<svg width="148" height="148" viewBox="0 0 148 148" fill="none" xmlns="http://www.w3.org/2000/svg">
<path d="M126.326 126.326C118.256 134.395 108.43 140.489 97.6148 144.131C86.7996 147.773 75.2887 148.864 63.9818 147.319C52.675 145.774 41.8787 141.635 32.4368 135.225C22.995 128.815 15.1636 120.309 9.55473 110.37C3.94587 100.432 0.71159 89.331 0.104702 77.9353C-0.50217 66.5395 1.53482 55.1578 6.05641 44.6799C10.578 34.202 17.4617 24.9118 26.1693 17.5356C34.877 10.1594 45.1726 4.89706 56.2514 2.15997L74 74L126.326 126.326Z" fill="#F4BE37"/>
<path d="M144.284 50.845C148.957 65.0301 149.229 80.2973 145.063 94.6397C140.898 108.982 132.49 121.728 120.945 131.203L74 74L144.284 50.845Z" fill="#5388D8"/>
<path d="M30.2511 14.3172C39.6697 7.41317 50.5885 2.83625 62.1149 0.960659C73.6413 -0.914932 85.4479 -0.0359406 96.5695 3.52577C107.691 7.08747 117.812 13.2308 126.104 21.4534C134.397 29.676 140.625 39.7444 144.281 50.8355L74 74L30.2511 14.3172Z" fill="#295854"/>
<path d="M68.136 28.344C68.136 28.9093 68.0293 29.4907 67.816 30.088C67.6133 30.6747 67.3413 31.2667 67 31.864C66.6693 32.4613 66.296 33.048 65.88 33.624C65.464 34.1893 65.048 34.728 64.632 35.24L63.848 35.928V35.992L64.872 35.816H68.36V37H61.992V36.536C62.2267 36.2907 62.5093 35.9867 62.84 35.624C63.1707 35.2613 63.512 34.8613 63.864 34.424C64.2267 33.976 64.5787 33.5067 64.92 33.016C65.272 32.5147 65.5867 32.008 65.864 31.496C66.152 30.984 66.3813 30.4773 66.552 29.976C66.7227 29.4747 66.808 29 66.808 28.552C66.808 28.0293 66.6587 27.5973 66.36 27.256C66.0613 26.904 65.608 26.728 65 26.728C64.5947 26.728 64.2 26.8133 63.816 26.984C63.432 27.144 63.1013 27.3307 62.824 27.544L62.296 26.632C62.6693 26.312 63.112 26.0613 63.624 25.88C64.136 25.6987 64.6853 25.608 65.272 25.608C65.7307 25.608 66.136 25.6773 66.488 25.816C66.84 25.944 67.1387 26.1307 67.384 26.376C67.6293 26.6213 67.816 26.9147 67.944 27.256C68.072 27.5867 68.136 27.9493 68.136 28.344ZM74.1268 36.072C74.8628 36.072 75.4708 35.8587 75.9508 35.432C76.4308 35.0053 76.6708 34.3867 76.6708 33.576C76.6708 32.7973 76.4308 32.216 75.9508 31.832C75.4814 31.448 74.8308 31.256 73.9988 31.256L72.6548 31.336V25.8H77.6468V26.984H73.8548V30.168L74.5428 30.136C75.5988 30.1467 76.4308 30.44 77.0388 31.016C77.6468 31.592 77.9508 32.4187 77.9508 33.496C77.9508 34.0933 77.8494 34.6267 77.6468 35.096C77.4441 35.5547 77.1668 35.9387 76.8148 36.248C76.4734 36.5573 76.0681 36.792 75.5988 36.952C75.1294 37.112 74.6281 37.192 74.0948 37.192C73.6148 37.192 73.2094 37.1653 72.8788 37.112C72.5481 37.0587 72.2388 36.9787 71.9508 36.872L72.2868 35.784C72.5321 35.88 72.7934 35.9547 73.0707 36.008C73.3588 36.0507 73.7108 36.072 74.1268 36.072ZM81.5575 28.328C81.5575 27.848 81.6215 27.4373 81.7495 27.096C81.8775 26.7547 82.0482 26.472 82.2615 26.248C82.4855 26.024 82.7468 25.864 83.0455 25.768C83.3548 25.6613 83.6855 25.608 84.0375 25.608C84.3895 25.608 84.7148 25.656 85.0135 25.752C85.3228 25.848 85.5842 26.0027 85.7975 26.216C86.0215 26.4293 86.1975 26.712 86.3255 27.064C86.4535 27.4053 86.5175 27.8267 86.5175 28.328C86.5175 28.8293 86.4535 29.256 86.3255 29.608C86.1975 29.9493 86.0215 30.2267 85.7975 30.44C85.5842 30.6533 85.3228 30.808 85.0135 30.904C84.7148 31 84.3895 31.048 84.0375 31.048C83.6855 31.048 83.3548 31 83.0455 30.904C82.7468 30.808 82.4855 30.6533 82.2615 30.44C82.0482 30.2267 81.8775 29.9493 81.7495 29.608C81.6215 29.256 81.5575 28.8293 81.5575 28.328ZM82.7415 28.328C82.7415 28.968 82.8535 29.4267 83.0775 29.704C83.3122 29.9813 83.6322 30.12 84.0375 30.12C84.2402 30.12 84.4215 30.0933 84.5815 30.04C84.7415 29.976 84.8748 29.88 84.9815 29.752C85.0988 29.6133 85.1842 29.432 85.2375 29.208C85.3015 28.9733 85.3335 28.68 85.3335 28.328C85.3335 27.976 85.3015 27.688 85.2375 27.464C85.1842 27.2293 85.0988 27.048 84.9815 26.92C84.8748 26.7813 84.7415 26.6853 84.5815 26.632C84.4215 26.568 84.2402 26.536 84.0375 26.536C83.6322 26.536 83.3122 26.664 83.0775 26.92C82.8535 27.1653 82.7415 27.6347 82.7415 28.328ZM87.2695 34.248C87.2695 33.768 87.3335 33.3573 87.4615 33.016C87.5895 32.6747 87.7602 32.392 87.9735 32.168C88.1975 31.944 88.4588 31.784 88.7575 31.688C89.0668 31.5813 89.3975 31.528 89.7495 31.528C90.1015 31.528 90.4268 31.576 90.7255 31.672C91.0348 31.768 91.2962 31.9227 91.5095 32.136C91.7335 32.3493 91.9095 32.632 92.0375 32.984C92.1655 33.3253 92.2295 33.7467 92.2295 34.248C92.2295 34.7493 92.1655 35.176 92.0375 35.528C91.9095 35.8693 91.7335 36.1467 91.5095 36.36C91.2962 36.5733 91.0348 36.728 90.7255 36.824C90.4268 36.92 90.1015 36.968 89.7495 36.968C89.3975 36.968 89.0668 36.92 88.7575 36.824C88.4588 36.728 88.1975 36.5733 87.9735 36.36C87.7602 36.1467 87.5895 35.8693 87.4615 35.528C87.3335 35.176 87.2695 34.7493 87.2695 34.248ZM88.4535 34.248C88.4535 34.888 88.5655 35.3467 88.7895 35.624C89.0242 35.9013 89.3442 36.04 89.7495 36.04C89.9522 36.04 90.1335 36.0133 90.2935 35.96C90.4535 35.896 90.5868 35.8 90.6935 35.672C90.8108 35.5333 90.8962 35.352 90.9495 35.128C91.0135 34.8933 91.0455 34.6 91.0455 34.248C91.0455 33.896 91.0135 33.608 90.9495 33.384C90.8962 33.1493 90.8108 32.968 90.6935 32.84C90.5868 32.7013 90.4535 32.6053 90.2935 32.552C90.1335 32.488 89.9522 32.456 89.7495 32.456C89.3442 32.456 89.0242 32.584 88.7895 32.84C88.5655 33.0853 88.4535 33.5547 88.4535 34.248ZM90.6295 25.592L91.4135 26.2L83.2055 37.192L82.4055 36.568L90.6295 25.592Z" fill="white"/>
<path d="M106.728 86.816H108.968V79.072L109.128 78.128L108.488 78.88L106.728 80.144L106.12 79.328L109.64 76.608H110.216V86.816H112.408V88H106.728V86.816ZM118.127 87.072C118.863 87.072 119.471 86.8587 119.951 86.432C120.431 86.0053 120.671 85.3867 120.671 84.576C120.671 83.7973 120.431 83.216 119.951 82.832C119.481 82.448 118.831 82.256 117.999 82.256L116.655 82.336V76.8H121.647V77.984H117.855V81.168L118.543 81.136C119.599 81.1467 120.431 81.44 121.039 82.016C121.647 82.592 121.951 83.4187 121.951 84.496C121.951 85.0933 121.849 85.6267 121.647 86.096C121.444 86.5547 121.167 86.9387 120.815 87.248C120.473 87.5573 120.068 87.792 119.599 87.952C119.129 88.112 118.628 88.192 118.095 88.192C117.615 88.192 117.209 88.1653 116.879 88.112C116.548 88.0587 116.239 87.9787 115.951 87.872L116.287 86.784C116.532 86.88 116.793 86.9547 117.071 87.008C117.359 87.0507 117.711 87.072 118.127 87.072ZM125.558 79.328C125.558 78.848 125.622 78.4373 125.75 78.096C125.878 77.7547 126.048 77.472 126.262 77.248C126.486 77.024 126.747 76.864 127.046 76.768C127.355 76.6613 127.686 76.608 128.038 76.608C128.39 76.608 128.715 76.656 129.014 76.752C129.323 76.848 129.584 77.0027 129.798 77.216C130.022 77.4293 130.198 77.712 130.326 78.064C130.454 78.4053 130.518 78.8267 130.518 79.328C130.518 79.8293 130.454 80.256 130.326 80.608C130.198 80.9493 130.022 81.2267 129.798 81.44C129.584 81.6533 129.323 81.808 129.014 81.904C128.715 82 128.39 82.048 128.038 82.048C127.686 82.048 127.355 82 127.046 81.904C126.747 81.808 126.486 81.6533 126.262 81.44C126.048 81.2267 125.878 80.9493 125.75 80.608C125.622 80.256 125.558 79.8293 125.558 79.328ZM126.742 79.328C126.742 79.968 126.854 80.4267 127.078 80.704C127.312 80.9813 127.632 81.12 128.038 81.12C128.24 81.12 128.422 81.0933 128.582 81.04C128.742 80.976 128.875 80.88 128.982 80.752C129.099 80.6133 129.184 80.432 129.238 80.208C129.302 79.9733 129.334 79.68 129.334 79.328C129.334 78.976 129.302 78.688 129.238 78.464C129.184 78.2293 129.099 78.048 128.982 77.92C128.875 77.7813 128.742 77.6853 128.582 77.632C128.422 77.568 128.24 77.536 128.038 77.536C127.632 77.536 127.312 77.664 127.078 77.92C126.854 78.1653 126.742 78.6347 126.742 79.328ZM131.27 85.248C131.27 84.768 131.334 84.3573 131.462 84.016C131.59 83.6747 131.76 83.392 131.974 83.168C132.198 82.944 132.459 82.784 132.758 82.688C133.067 82.5813 133.398 82.528 133.75 82.528C134.102 82.528 134.427 82.576 134.726 82.672C135.035 82.768 135.296 82.9227 135.51 83.136C135.734 83.3493 135.91 83.632 136.038 83.984C136.166 84.3253 136.23 84.7467 136.23 85.248C136.23 85.7493 136.166 86.176 136.038 86.528C135.91 86.8693 135.734 87.1467 135.51 87.36C135.296 87.5733 135.035 87.728 134.726 87.824C134.427 87.92 134.102 87.968 133.75 87.968C133.398 87.968 133.067 87.92 132.758 87.824C132.459 87.728 132.198 87.5733 131.974 87.36C131.76 87.1467 131.59 86.8693 131.462 86.528C131.334 86.176 131.27 85.7493 131.27 85.248ZM132.454 85.248C132.454 85.888 132.566 86.3467 132.79 86.624C133.024 86.9013 133.344 87.04 133.75 87.04C133.952 87.04 134.134 87.0133 134.294 86.96C134.454 86.896 134.587 86.8 134.694 86.672C134.811 86.5333 134.896 86.352 134.95 86.128C135.014 85.8933 135.046 85.6 135.046 85.248C135.046 84.896 135.014 84.608 134.95 84.384C134.896 84.1493 134.811 83.968 134.694 83.84C134.587 83.7013 134.454 83.6053 134.294 83.552C134.134 83.488 133.952 83.456 133.75 83.456C133.344 83.456 133.024 83.584 132.79 83.84C132.566 84.0853 132.454 84.5547 132.454 85.248ZM134.63 76.592L135.414 77.2L127.206 88.192L126.406 87.568L134.63 76.592Z" fill="white"/>
<path d="M36.872 96.624C36.872 97.1147 36.7973 97.5787 36.648 98.016C36.4987 98.4427 36.28 98.8213 35.992 99.152C35.704 99.472 35.3467 99.728 34.92 99.92C34.4933 100.101 34.008 100.192 33.464 100.192C32.9307 100.192 32.4507 100.107 32.024 99.936C31.5973 99.7653 31.2293 99.5147 30.92 99.184C30.6107 98.8427 30.3707 98.4267 30.2 97.936C30.04 97.4453 29.96 96.88 29.96 96.24C29.96 95.184 30.0933 94.2133 30.36 93.328C30.6373 92.432 31.016 91.6533 31.496 90.992C31.976 90.3307 32.5413 89.7973 33.192 89.392C33.8533 88.976 34.568 88.7147 35.336 88.608L35.608 89.632C35.0107 89.7387 34.4667 89.9413 33.976 90.24C33.4853 90.5387 33.0533 90.9067 32.68 91.344C32.3173 91.7813 32.0187 92.272 31.784 92.816C31.5493 93.36 31.3893 93.92 31.304 94.496C31.4747 94.208 31.7627 93.9467 32.168 93.712C32.5733 93.4667 33.0693 93.344 33.656 93.344C34.6587 93.344 35.4427 93.632 36.008 94.208C36.584 94.784 36.872 95.5893 36.872 96.624ZM35.544 96.752C35.544 95.9947 35.368 95.424 35.016 95.04C34.664 94.656 34.12 94.464 33.384 94.464C32.8613 94.464 32.408 94.592 32.024 94.848C31.6507 95.104 31.3893 95.392 31.24 95.712C31.2187 95.8613 31.208 95.984 31.208 96.08C31.208 96.176 31.208 96.2827 31.208 96.4C31.208 96.7307 31.2507 97.056 31.336 97.376C31.432 97.696 31.576 97.984 31.768 98.24C31.96 98.4853 32.1947 98.688 32.472 98.848C32.76 98.9973 33.096 99.072 33.48 99.072C33.7893 99.072 34.0667 99.0133 34.312 98.896C34.568 98.7787 34.7867 98.6187 34.968 98.416C35.1493 98.2133 35.288 97.968 35.384 97.68C35.4907 97.392 35.544 97.0827 35.544 96.752ZM39.4068 94.4C39.4068 92.48 39.7161 91.0347 40.3348 90.064C40.9641 89.0933 41.8761 88.608 43.0708 88.608C44.3614 88.608 45.2948 89.088 45.8708 90.048C46.4574 90.9973 46.7508 92.448 46.7508 94.4C46.7508 96.32 46.4361 97.7653 45.8068 98.736C45.1881 99.7067 44.2761 100.192 43.0708 100.192C41.8014 100.192 40.8734 99.6853 40.2868 98.672C39.7001 97.6587 39.4068 96.2347 39.4068 94.4ZM40.7348 94.4C40.7348 95.0933 40.7774 95.728 40.8628 96.304C40.9588 96.8693 41.1028 97.36 41.2948 97.776C41.4868 98.1813 41.7268 98.5013 42.0148 98.736C42.3134 98.96 42.6654 99.072 43.0708 99.072C43.8814 99.072 44.4734 98.6987 44.8468 97.952C45.2308 97.1947 45.4228 96.0107 45.4228 94.4C45.4228 93.7173 45.3801 93.088 45.2948 92.512C45.2201 91.936 45.0868 91.44 44.8948 91.024C44.7134 90.608 44.4734 90.288 44.1748 90.064C43.8761 89.84 43.5081 89.728 43.0708 89.728C42.2708 89.728 41.6788 90.1067 41.2948 90.864C40.9214 91.6213 40.7348 92.8 40.7348 94.4ZM49.5575 91.328C49.5575 90.848 49.6215 90.4373 49.7495 90.096C49.8775 89.7547 50.0482 89.472 50.2615 89.248C50.4855 89.024 50.7468 88.864 51.0455 88.768C51.3548 88.6613 51.6855 88.608 52.0375 88.608C52.3895 88.608 52.7148 88.656 53.0135 88.752C53.3228 88.848 53.5842 89.0027 53.7975 89.216C54.0215 89.4293 54.1975 89.712 54.3255 90.064C54.4535 90.4053 54.5175 90.8267 54.5175 91.328C54.5175 91.8293 54.4535 92.256 54.3255 92.608C54.1975 92.9493 54.0215 93.2267 53.7975 93.44C53.5842 93.6533 53.3228 93.808 53.0135 93.904C52.7148 94 52.3895 94.048 52.0375 94.048C51.6855 94.048 51.3548 94 51.0455 93.904C50.7468 93.808 50.4855 93.6533 50.2615 93.44C50.0482 93.2267 49.8775 92.9493 49.7495 92.608C49.6215 92.256 49.5575 91.8293 49.5575 91.328ZM50.7415 91.328C50.7415 91.968 50.8535 92.4267 51.0775 92.704C51.3122 92.9813 51.6322 93.12 52.0375 93.12C52.2402 93.12 52.4215 93.0933 52.5815 93.04C52.7415 92.976 52.8748 92.88 52.9815 92.752C53.0988 92.6133 53.1842 92.432 53.2375 92.208C53.3015 91.9733 53.3335 91.68 53.3335 91.328C53.3335 90.976 53.3015 90.688 53.2375 90.464C53.1842 90.2293 53.0988 90.048 52.9815 89.92C52.8748 89.7813 52.7415 89.6853 52.5815 89.632C52.4215 89.568 52.2402 89.536 52.0375 89.536C51.6322 89.536 51.3122 89.664 51.0775 89.92C50.8535 90.1653 50.7415 90.6347 50.7415 91.328ZM55.2695 97.248C55.2695 96.768 55.3335 96.3573 55.4615 96.016C55.5895 95.6747 55.7602 95.392 55.9735 95.168C56.1975 94.944 56.4588 94.784 56.7575 94.688C57.0668 94.5813 57.3975 94.528 57.7495 94.528C58.1015 94.528 58.4268 94.576 58.7255 94.672C59.0348 94.768 59.2962 94.9227 59.5095 95.136C59.7335 95.3493 59.9095 95.632 60.0375 95.984C60.1655 96.3253 60.2295 96.7467 60.2295 97.248C60.2295 97.7493 60.1655 98.176 60.0375 98.528C59.9095 98.8693 59.7335 99.1467 59.5095 99.36C59.2962 99.5733 59.0348 99.728 58.7255 99.824C58.4268 99.92 58.1015 99.968 57.7495 99.968C57.3975 99.968 57.0668 99.92 56.7575 99.824C56.4588 99.728 56.1975 99.5733 55.9735 99.36C55.7602 99.1467 55.5895 98.8693 55.4615 98.528C55.3335 98.176 55.2695 97.7493 55.2695 97.248ZM56.4535 97.248C56.4535 97.888 56.5655 98.3467 56.7895 98.624C57.0242 98.9013 57.3442 99.04 57.7495 99.04C57.9522 99.04 58.1335 99.0133 58.2935 98.96C58.4535 98.896 58.5868 98.8 58.6935 98.672C58.8108 98.5333 58.8962 98.352 58.9495 98.128C59.0135 97.8933 59.0455 97.6 59.0455 97.248C59.0455 96.896 59.0135 96.608 58.9495 96.384C58.8962 96.1493 58.8108 95.968 58.6935 95.84C58.5868 95.7013 58.4535 95.6053 58.2935 95.552C58.1335 95.488 57.9522 95.456 57.7495 95.456C57.3442 95.456 57.0242 95.584 56.7895 95.84C56.5655 96.0853 56.4535 96.5547 56.4535 97.248ZM58.6295 88.592L59.4135 89.2L51.2055 100.192L50.4055 99.568L58.6295 88.592Z" fill="white"/>
</svg>
