<svg width="148" height="148" viewBox="0 0 148 148" fill="none" xmlns="http://www.w3.org/2000/svg">
<path d="M126.326 126.326C115.389 137.263 101.3 144.498 86.0389 147.014C70.7778 149.53 55.1119 147.202 41.2427 140.355C27.3735 133.508 15.9983 122.488 8.71582 108.842C1.43327 95.1967 -1.39054 79.6124 0.641233 64.2793C2.67302 48.9462 9.45824 34.6351 20.0433 23.3573C30.6284 12.0796 44.4813 4.40204 59.655 1.40371C74.8287 -1.59462 90.5606 0.237001 104.64 6.64115C118.719 13.0453 130.437 23.7 138.148 37.108L74 74L126.326 126.326Z" fill="#F4BE37"/>
<path d="M138.027 36.8981C143.882 47.0022 147.263 58.3486 147.892 70.0096C148.522 81.6706 146.383 93.3151 141.65 103.991C136.917 114.667 129.725 124.071 120.661 131.435C111.597 138.798 100.919 143.912 89.5004 146.358L74 74L138.027 36.8981Z" fill="#295854"/>
<path d="M106.136 81.344C106.136 81.9093 106.029 82.4907 105.816 83.088C105.613 83.6747 105.341 84.2667 105 84.864C104.669 85.4613 104.296 86.048 103.88 86.624C103.464 87.1893 103.048 87.728 102.632 88.24L101.848 88.928V88.992L102.872 88.816H106.36V90H99.992V89.536C100.227 89.2907 100.509 88.9867 100.84 88.624C101.171 88.2613 101.512 87.8613 101.864 87.424C102.227 86.976 102.579 86.5067 102.92 86.016C103.272 85.5147 103.587 85.008 103.864 84.496C104.152 83.984 104.381 83.4773 104.552 82.976C104.723 82.4747 104.808 82 104.808 81.552C104.808 81.0293 104.659 80.5973 104.36 80.256C104.061 79.904 103.608 79.728 103 79.728C102.595 79.728 102.2 79.8133 101.816 79.984C101.432 80.144 101.101 80.3307 100.824 80.544L100.296 79.632C100.669 79.312 101.112 79.0613 101.624 78.88C102.136 78.6987 102.685 78.608 103.272 78.608C103.731 78.608 104.136 78.6773 104.488 78.816C104.84 78.944 105.139 79.1307 105.384 79.376C105.629 79.6213 105.816 79.9147 105.944 80.256C106.072 80.5867 106.136 80.9493 106.136 81.344ZM109.407 84.4C109.407 82.48 109.716 81.0347 110.335 80.064C110.964 79.0933 111.876 78.608 113.071 78.608C114.361 78.608 115.295 79.088 115.871 80.048C116.457 80.9973 116.751 82.448 116.751 84.4C116.751 86.32 116.436 87.7653 115.807 88.736C115.188 89.7067 114.276 90.192 113.071 90.192C111.801 90.192 110.873 89.6853 110.287 88.672C109.7 87.6587 109.407 86.2347 109.407 84.4ZM110.735 84.4C110.735 85.0933 110.777 85.728 110.863 86.304C110.959 86.8693 111.103 87.36 111.295 87.776C111.487 88.1813 111.727 88.5013 112.015 88.736C112.313 88.96 112.665 89.072 113.071 89.072C113.881 89.072 114.473 88.6987 114.847 87.952C115.231 87.1947 115.423 86.0107 115.423 84.4C115.423 83.7173 115.38 83.088 115.295 82.512C115.22 81.936 115.087 81.44 114.895 81.024C114.713 80.608 114.473 80.288 114.175 80.064C113.876 79.84 113.508 79.728 113.071 79.728C112.271 79.728 111.679 80.1067 111.295 80.864C110.921 81.6213 110.735 82.8 110.735 84.4ZM119.558 81.328C119.558 80.848 119.622 80.4373 119.75 80.096C119.878 79.7547 120.048 79.472 120.262 79.248C120.486 79.024 120.747 78.864 121.046 78.768C121.355 78.6613 121.686 78.608 122.038 78.608C122.39 78.608 122.715 78.656 123.014 78.752C123.323 78.848 123.584 79.0027 123.798 79.216C124.022 79.4293 124.198 79.712 124.326 80.064C124.454 80.4053 124.518 80.8267 124.518 81.328C124.518 81.8293 124.454 82.256 124.326 82.608C124.198 82.9493 124.022 83.2267 123.798 83.44C123.584 83.6533 123.323 83.808 123.014 83.904C122.715 84 122.39 84.048 122.038 84.048C121.686 84.048 121.355 84 121.046 83.904C120.747 83.808 120.486 83.6533 120.262 83.44C120.048 83.2267 119.878 82.9493 119.75 82.608C119.622 82.256 119.558 81.8293 119.558 81.328ZM120.742 81.328C120.742 81.968 120.854 82.4267 121.078 82.704C121.312 82.9813 121.632 83.12 122.038 83.12C122.24 83.12 122.422 83.0933 122.582 83.04C122.742 82.976 122.875 82.88 122.982 82.752C123.099 82.6133 123.184 82.432 123.238 82.208C123.302 81.9733 123.334 81.68 123.334 81.328C123.334 80.976 123.302 80.688 123.238 80.464C123.184 80.2293 123.099 80.048 122.982 79.92C122.875 79.7813 122.742 79.6853 122.582 79.632C122.422 79.568 122.24 79.536 122.038 79.536C121.632 79.536 121.312 79.664 121.078 79.92C120.854 80.1653 120.742 80.6347 120.742 81.328ZM125.27 87.248C125.27 86.768 125.334 86.3573 125.462 86.016C125.59 85.6747 125.76 85.392 125.974 85.168C126.198 84.944 126.459 84.784 126.758 84.688C127.067 84.5813 127.398 84.528 127.75 84.528C128.102 84.528 128.427 84.576 128.726 84.672C129.035 84.768 129.296 84.9227 129.51 85.136C129.734 85.3493 129.91 85.632 130.038 85.984C130.166 86.3253 130.23 86.7467 130.23 87.248C130.23 87.7493 130.166 88.176 130.038 88.528C129.91 88.8693 129.734 89.1467 129.51 89.36C129.296 89.5733 129.035 89.728 128.726 89.824C128.427 89.92 128.102 89.968 127.75 89.968C127.398 89.968 127.067 89.92 126.758 89.824C126.459 89.728 126.198 89.5733 125.974 89.36C125.76 89.1467 125.59 88.8693 125.462 88.528C125.334 88.176 125.27 87.7493 125.27 87.248ZM126.454 87.248C126.454 87.888 126.566 88.3467 126.79 88.624C127.024 88.9013 127.344 89.04 127.75 89.04C127.952 89.04 128.134 89.0133 128.294 88.96C128.454 88.896 128.587 88.8 128.694 88.672C128.811 88.5333 128.896 88.352 128.95 88.128C129.014 87.8933 129.046 87.6 129.046 87.248C129.046 86.896 129.014 86.608 128.95 86.384C128.896 86.1493 128.811 85.968 128.694 85.84C128.587 85.7013 128.454 85.6053 128.294 85.552C128.134 85.488 127.952 85.456 127.75 85.456C127.344 85.456 127.024 85.584 126.79 85.84C126.566 86.0853 126.454 86.5547 126.454 87.248ZM128.63 78.592L129.414 79.2L121.206 90.192L120.406 89.568L128.63 78.592Z" fill="white"/>
<path d="M26.088 73.328C26.088 72.656 26.264 72.0747 26.616 71.584C26.968 71.0827 27.5173 70.6293 28.264 70.224C27.9973 70.064 27.7467 69.8987 27.512 69.728C27.288 69.5467 27.0853 69.344 26.904 69.12C26.7333 68.896 26.5947 68.6453 26.488 68.368C26.392 68.0907 26.344 67.7707 26.344 67.408C26.344 66.992 26.4133 66.6133 26.552 66.272C26.7013 65.9307 26.9093 65.6373 27.176 65.392C27.4533 65.1467 27.7787 64.9547 28.152 64.816C28.536 64.6773 28.968 64.608 29.448 64.608C29.896 64.608 30.3013 64.672 30.664 64.8C31.0267 64.928 31.3307 65.104 31.576 65.328C31.832 65.552 32.0293 65.8187 32.168 66.128C32.3067 66.4373 32.376 66.7787 32.376 67.152C32.376 67.76 32.2373 68.2987 31.96 68.768C31.6827 69.2267 31.224 69.68 30.584 70.128C30.8613 70.288 31.1227 70.464 31.368 70.656C31.624 70.848 31.8427 71.0613 32.024 71.296C32.216 71.5307 32.3653 71.7973 32.472 72.096C32.5787 72.384 32.632 72.7147 32.632 73.088C32.632 73.5467 32.5573 73.968 32.408 74.352C32.2587 74.7253 32.04 75.0507 31.752 75.328C31.464 75.5947 31.112 75.808 30.696 75.968C30.28 76.1173 29.8053 76.192 29.272 76.192C28.76 76.192 28.3067 76.1173 27.912 75.968C27.5173 75.8187 27.1813 75.616 26.904 75.36C26.6373 75.104 26.4347 74.8053 26.296 74.464C26.1573 74.112 26.088 73.7333 26.088 73.328ZM31.384 73.168C31.384 72.848 31.32 72.5707 31.192 72.336C31.064 72.0907 30.8933 71.872 30.68 71.68C30.4773 71.4773 30.2427 71.296 29.976 71.136C29.7093 70.976 29.432 70.8213 29.144 70.672C28.4933 71.0347 28.0293 71.44 27.752 71.888C27.4747 72.336 27.336 72.7627 27.336 73.168C27.336 73.424 27.3787 73.6693 27.464 73.904C27.5493 74.1387 27.6773 74.3413 27.848 74.512C28.0187 74.6827 28.2267 74.8213 28.472 74.928C28.728 75.024 29.0213 75.072 29.352 75.072C29.6187 75.072 29.8747 75.0347 30.12 74.96C30.3653 74.8747 30.5787 74.7573 30.76 74.608C30.952 74.448 31.1013 74.2507 31.208 74.016C31.3253 73.7707 31.384 73.488 31.384 73.168ZM27.592 67.376C27.592 67.6747 27.6507 67.9413 27.768 68.176C27.8853 68.4 28.04 68.6027 28.232 68.784C28.4347 68.9653 28.664 69.136 28.92 69.296C29.176 69.4453 29.4427 69.5893 29.72 69.728C30.2 69.3547 30.552 68.9867 30.776 68.624C31.0107 68.2613 31.128 67.8613 31.128 67.424C31.128 66.88 30.9573 66.464 30.616 66.176C30.2853 65.8773 29.8853 65.728 29.416 65.728C29.128 65.728 28.872 65.776 28.648 65.872C28.424 65.968 28.232 66.0907 28.072 66.24C27.912 66.3893 27.7893 66.5653 27.704 66.768C27.6293 66.96 27.592 67.1627 27.592 67.376ZM35.4068 70.4C35.4068 68.48 35.7161 67.0347 36.3348 66.064C36.9641 65.0933 37.8761 64.608 39.0708 64.608C40.3614 64.608 41.2948 65.088 41.8708 66.048C42.4574 66.9973 42.7508 68.448 42.7508 70.4C42.7508 72.32 42.4361 73.7653 41.8068 74.736C41.1881 75.7067 40.2761 76.192 39.0708 76.192C37.8014 76.192 36.8734 75.6853 36.2868 74.672C35.7001 73.6587 35.4068 72.2347 35.4068 70.4ZM36.7348 70.4C36.7348 71.0933 36.7774 71.728 36.8628 72.304C36.9588 72.8693 37.1028 73.36 37.2948 73.776C37.4868 74.1813 37.7268 74.5013 38.0148 74.736C38.3134 74.96 38.6654 75.072 39.0708 75.072C39.8814 75.072 40.4734 74.6987 40.8468 73.952C41.2308 73.1947 41.4228 72.0107 41.4228 70.4C41.4228 69.7173 41.3801 69.088 41.2948 68.512C41.2201 67.936 41.0868 67.44 40.8948 67.024C40.7134 66.608 40.4734 66.288 40.1748 66.064C39.8761 65.84 39.5081 65.728 39.0708 65.728C38.2708 65.728 37.6788 66.1067 37.2948 66.864C36.9214 67.6213 36.7348 68.8 36.7348 70.4ZM45.5575 67.328C45.5575 66.848 45.6215 66.4373 45.7495 66.096C45.8775 65.7547 46.0482 65.472 46.2615 65.248C46.4855 65.024 46.7468 64.864 47.0455 64.768C47.3548 64.6613 47.6855 64.608 48.0375 64.608C48.3895 64.608 48.7148 64.656 49.0135 64.752C49.3228 64.848 49.5842 65.0027 49.7975 65.216C50.0215 65.4293 50.1975 65.712 50.3255 66.064C50.4535 66.4053 50.5175 66.8267 50.5175 67.328C50.5175 67.8293 50.4535 68.256 50.3255 68.608C50.1975 68.9493 50.0215 69.2267 49.7975 69.44C49.5842 69.6533 49.3228 69.808 49.0135 69.904C48.7148 70 48.3895 70.048 48.0375 70.048C47.6855 70.048 47.3548 70 47.0455 69.904C46.7468 69.808 46.4855 69.6533 46.2615 69.44C46.0482 69.2267 45.8775 68.9493 45.7495 68.608C45.6215 68.256 45.5575 67.8293 45.5575 67.328ZM46.7415 67.328C46.7415 67.968 46.8535 68.4267 47.0775 68.704C47.3122 68.9813 47.6322 69.12 48.0375 69.12C48.2402 69.12 48.4215 69.0933 48.5815 69.04C48.7415 68.976 48.8748 68.88 48.9815 68.752C49.0988 68.6133 49.1842 68.432 49.2375 68.208C49.3015 67.9733 49.3335 67.68 49.3335 67.328C49.3335 66.976 49.3015 66.688 49.2375 66.464C49.1842 66.2293 49.0988 66.048 48.9815 65.92C48.8748 65.7813 48.7415 65.6853 48.5815 65.632C48.4215 65.568 48.2402 65.536 48.0375 65.536C47.6322 65.536 47.3122 65.664 47.0775 65.92C46.8535 66.1653 46.7415 66.6347 46.7415 67.328ZM51.2695 73.248C51.2695 72.768 51.3335 72.3573 51.4615 72.016C51.5895 71.6747 51.7602 71.392 51.9735 71.168C52.1975 70.944 52.4588 70.784 52.7575 70.688C53.0668 70.5813 53.3975 70.528 53.7495 70.528C54.1015 70.528 54.4268 70.576 54.7255 70.672C55.0348 70.768 55.2962 70.9227 55.5095 71.136C55.7335 71.3493 55.9095 71.632 56.0375 71.984C56.1655 72.3253 56.2295 72.7467 56.2295 73.248C56.2295 73.7493 56.1655 74.176 56.0375 74.528C55.9095 74.8693 55.7335 75.1467 55.5095 75.36C55.2962 75.5733 55.0348 75.728 54.7255 75.824C54.4268 75.92 54.1015 75.968 53.7495 75.968C53.3975 75.968 53.0668 75.92 52.7575 75.824C52.4588 75.728 52.1975 75.5733 51.9735 75.36C51.7602 75.1467 51.5895 74.8693 51.4615 74.528C51.3335 74.176 51.2695 73.7493 51.2695 73.248ZM52.4535 73.248C52.4535 73.888 52.5655 74.3467 52.7895 74.624C53.0242 74.9013 53.3442 75.04 53.7495 75.04C53.9522 75.04 54.1335 75.0133 54.2935 74.96C54.4535 74.896 54.5868 74.8 54.6935 74.672C54.8108 74.5333 54.8962 74.352 54.9495 74.128C55.0135 73.8933 55.0455 73.6 55.0455 73.248C55.0455 72.896 55.0135 72.608 54.9495 72.384C54.8962 72.1493 54.8108 71.968 54.6935 71.84C54.5868 71.7013 54.4535 71.6053 54.2935 71.552C54.1335 71.488 53.9522 71.456 53.7495 71.456C53.3442 71.456 53.0242 71.584 52.7895 71.84C52.5655 72.0853 52.4535 72.5547 52.4535 73.248ZM54.6295 64.592L55.4135 65.2L47.2055 76.192L46.4055 75.568L54.6295 64.592Z" fill="white"/>
</svg>
