<svg width="148" height="148" viewBox="0 0 148 148" fill="none" xmlns="http://www.w3.org/2000/svg">
<path d="M126.326 126.326C113.966 138.686 97.629 146.272 80.2106 147.739C62.7923 149.206 45.4169 144.46 31.1634 134.341C16.9099 124.222 6.69851 109.384 2.33868 92.4569C-2.02114 75.5293 -0.247897 57.6048 7.34419 41.8596L74 74L126.326 126.326Z" fill="#F4BE37"/>
<path d="M7.28312 41.9866C12.6754 30.749 20.8188 21.0555 30.9577 13.8056L74 74L7.28312 41.9866Z" fill="#295854"/>
<path d="M144.284 50.845C148.957 65.0301 149.229 80.2973 145.063 94.6397C140.898 108.982 132.49 121.728 120.945 131.203L74 74L144.284 50.845Z" fill="#5388D8"/>
<path d="M30.2511 14.3172C39.6697 7.41317 50.5885 2.83625 62.1149 0.960659C73.6413 -0.914932 85.4479 -0.0359406 96.5695 3.52577C107.691 7.08747 117.812 13.2308 126.104 21.4534C134.397 29.676 140.625 39.7444 144.281 50.8355L74 74L30.2511 14.3172Z" fill="#295854"/>
<path d="M64.744 36.072C65.1067 36.072 65.4427 36.0187 65.752 35.912C66.0613 35.8053 66.328 35.6507 66.552 35.448C66.776 35.2347 66.952 34.984 67.08 34.696C67.208 34.408 67.272 34.0933 67.272 33.752C67.272 33.0053 67.048 32.4507 66.6 32.088C66.1627 31.7253 65.5547 31.544 64.776 31.544H63.592V31.08L65.896 27.528L66.632 26.824L65.592 26.984H62.424V25.8H68.136V26.264L65.592 30.088L65.032 30.552V30.584L65.576 30.472C66.0027 30.4827 66.3973 30.5627 66.76 30.712C67.1227 30.8507 67.4373 31.0587 67.704 31.336C67.9707 31.6027 68.1787 31.928 68.328 32.312C68.4773 32.6853 68.552 33.112 68.552 33.592C68.552 34.168 68.4507 34.68 68.248 35.128C68.0453 35.576 67.768 35.9547 67.416 36.264C67.0747 36.5627 66.6693 36.792 66.2 36.952C65.7307 37.112 65.2347 37.192 64.712 37.192C64.232 37.192 63.8 37.1547 63.416 37.08C63.032 37.0053 62.696 36.9093 62.408 36.792L62.744 35.656C62.9893 35.7733 63.2773 35.8747 63.608 35.96C63.9493 36.0347 64.328 36.072 64.744 36.072ZM71.4068 31.4C71.4068 29.48 71.7161 28.0347 72.3348 27.064C72.9641 26.0933 73.8761 25.608 75.0708 25.608C76.3614 25.608 77.2948 26.088 77.8708 27.048C78.4574 27.9973 78.7508 29.448 78.7508 31.4C78.7508 33.32 78.4361 34.7653 77.8068 35.736C77.1881 36.7067 76.2761 37.192 75.0708 37.192C73.8014 37.192 72.8734 36.6853 72.2868 35.672C71.7001 34.6587 71.4068 33.2347 71.4068 31.4ZM72.7348 31.4C72.7348 32.0933 72.7774 32.728 72.8628 33.304C72.9588 33.8693 73.1028 34.36 73.2948 34.776C73.4868 35.1813 73.7268 35.5013 74.0148 35.736C74.3134 35.96 74.6654 36.072 75.0708 36.072C75.8814 36.072 76.4734 35.6987 76.8468 34.952C77.2308 34.1947 77.4228 33.0107 77.4228 31.4C77.4228 30.7173 77.3801 30.088 77.2948 29.512C77.2201 28.936 77.0868 28.44 76.8948 28.024C76.7134 27.608 76.4734 27.288 76.1748 27.064C75.8761 26.84 75.5081 26.728 75.0708 26.728C74.2708 26.728 73.6788 27.1067 73.2948 27.864C72.9214 28.6213 72.7348 29.8 72.7348 31.4ZM81.5575 28.328C81.5575 27.848 81.6215 27.4373 81.7495 27.096C81.8775 26.7547 82.0482 26.472 82.2615 26.248C82.4855 26.024 82.7468 25.864 83.0455 25.768C83.3548 25.6613 83.6855 25.608 84.0375 25.608C84.3895 25.608 84.7148 25.656 85.0135 25.752C85.3228 25.848 85.5842 26.0027 85.7975 26.216C86.0215 26.4293 86.1975 26.712 86.3255 27.064C86.4535 27.4053 86.5175 27.8267 86.5175 28.328C86.5175 28.8293 86.4535 29.256 86.3255 29.608C86.1975 29.9493 86.0215 30.2267 85.7975 30.44C85.5842 30.6533 85.3228 30.808 85.0135 30.904C84.7148 31 84.3895 31.048 84.0375 31.048C83.6855 31.048 83.3548 31 83.0455 30.904C82.7468 30.808 82.4855 30.6533 82.2615 30.44C82.0482 30.2267 81.8775 29.9493 81.7495 29.608C81.6215 29.256 81.5575 28.8293 81.5575 28.328ZM82.7415 28.328C82.7415 28.968 82.8535 29.4267 83.0775 29.704C83.3122 29.9813 83.6322 30.12 84.0375 30.12C84.2402 30.12 84.4215 30.0933 84.5815 30.04C84.7415 29.976 84.8748 29.88 84.9815 29.752C85.0988 29.6133 85.1842 29.432 85.2375 29.208C85.3015 28.9733 85.3335 28.68 85.3335 28.328C85.3335 27.976 85.3015 27.688 85.2375 27.464C85.1842 27.2293 85.0988 27.048 84.9815 26.92C84.8748 26.7813 84.7415 26.6853 84.5815 26.632C84.4215 26.568 84.2402 26.536 84.0375 26.536C83.6322 26.536 83.3122 26.664 83.0775 26.92C82.8535 27.1653 82.7415 27.6347 82.7415 28.328ZM87.2695 34.248C87.2695 33.768 87.3335 33.3573 87.4615 33.016C87.5895 32.6747 87.7602 32.392 87.9735 32.168C88.1975 31.944 88.4588 31.784 88.7575 31.688C89.0668 31.5813 89.3975 31.528 89.7495 31.528C90.1015 31.528 90.4268 31.576 90.7255 31.672C91.0348 31.768 91.2962 31.9227 91.5095 32.136C91.7335 32.3493 91.9095 32.632 92.0375 32.984C92.1655 33.3253 92.2295 33.7467 92.2295 34.248C92.2295 34.7493 92.1655 35.176 92.0375 35.528C91.9095 35.8693 91.7335 36.1467 91.5095 36.36C91.2962 36.5733 91.0348 36.728 90.7255 36.824C90.4268 36.92 90.1015 36.968 89.7495 36.968C89.3975 36.968 89.0668 36.92 88.7575 36.824C88.4588 36.728 88.1975 36.5733 87.9735 36.36C87.7602 36.1467 87.5895 35.8693 87.4615 35.528C87.3335 35.176 87.2695 34.7493 87.2695 34.248ZM88.4535 34.248C88.4535 34.888 88.5655 35.3467 88.7895 35.624C89.0242 35.9013 89.3442 36.04 89.7495 36.04C89.9522 36.04 90.1335 36.0133 90.2935 35.96C90.4535 35.896 90.5868 35.8 90.6935 35.672C90.8108 35.5333 90.8962 35.352 90.9495 35.128C91.0135 34.8933 91.0455 34.6 91.0455 34.248C91.0455 33.896 91.0135 33.608 90.9495 33.384C90.8962 33.1493 90.8108 32.968 90.6935 32.84C90.5868 32.7013 90.4535 32.6053 90.2935 32.552C90.1335 32.488 89.9522 32.456 89.7495 32.456C89.3442 32.456 89.0242 32.584 88.7895 32.84C88.5655 33.0853 88.4535 33.5547 88.4535 34.248ZM90.6295 25.592L91.4135 26.2L83.2055 37.192L82.4055 36.568L90.6295 25.592Z" fill="white"/>
<path d="M112.136 79.344C112.136 79.9093 112.029 80.4907 111.816 81.088C111.613 81.6747 111.341 82.2667 111 82.864C110.669 83.4613 110.296 84.048 109.88 84.624C109.464 85.1893 109.048 85.728 108.632 86.24L107.848 86.928V86.992L108.872 86.816H112.36V88H105.992V87.536C106.227 87.2907 106.509 86.9867 106.84 86.624C107.171 86.2613 107.512 85.8613 107.864 85.424C108.227 84.976 108.579 84.5067 108.92 84.016C109.272 83.5147 109.587 83.008 109.864 82.496C110.152 81.984 110.381 81.4773 110.552 80.976C110.723 80.4747 110.808 80 110.808 79.552C110.808 79.0293 110.659 78.5973 110.36 78.256C110.061 77.904 109.608 77.728 109 77.728C108.595 77.728 108.2 77.8133 107.816 77.984C107.432 78.144 107.101 78.3307 106.824 78.544L106.296 77.632C106.669 77.312 107.112 77.0613 107.624 76.88C108.136 76.6987 108.685 76.608 109.272 76.608C109.731 76.608 110.136 76.6773 110.488 76.816C110.84 76.944 111.139 77.1307 111.384 77.376C111.629 77.6213 111.816 77.9147 111.944 78.256C112.072 78.5867 112.136 78.9493 112.136 79.344ZM115.407 82.4C115.407 80.48 115.716 79.0347 116.335 78.064C116.964 77.0933 117.876 76.608 119.071 76.608C120.361 76.608 121.295 77.088 121.871 78.048C122.457 78.9973 122.751 80.448 122.751 82.4C122.751 84.32 122.436 85.7653 121.807 86.736C121.188 87.7067 120.276 88.192 119.071 88.192C117.801 88.192 116.873 87.6853 116.287 86.672C115.7 85.6587 115.407 84.2347 115.407 82.4ZM116.735 82.4C116.735 83.0933 116.777 83.728 116.863 84.304C116.959 84.8693 117.103 85.36 117.295 85.776C117.487 86.1813 117.727 86.5013 118.015 86.736C118.313 86.96 118.665 87.072 119.071 87.072C119.881 87.072 120.473 86.6987 120.847 85.952C121.231 85.1947 121.423 84.0107 121.423 82.4C121.423 81.7173 121.38 81.088 121.295 80.512C121.22 79.936 121.087 79.44 120.895 79.024C120.713 78.608 120.473 78.288 120.175 78.064C119.876 77.84 119.508 77.728 119.071 77.728C118.271 77.728 117.679 78.1067 117.295 78.864C116.921 79.6213 116.735 80.8 116.735 82.4ZM125.558 79.328C125.558 78.848 125.622 78.4373 125.75 78.096C125.878 77.7547 126.048 77.472 126.262 77.248C126.486 77.024 126.747 76.864 127.046 76.768C127.355 76.6613 127.686 76.608 128.038 76.608C128.39 76.608 128.715 76.656 129.014 76.752C129.323 76.848 129.584 77.0027 129.798 77.216C130.022 77.4293 130.198 77.712 130.326 78.064C130.454 78.4053 130.518 78.8267 130.518 79.328C130.518 79.8293 130.454 80.256 130.326 80.608C130.198 80.9493 130.022 81.2267 129.798 81.44C129.584 81.6533 129.323 81.808 129.014 81.904C128.715 82 128.39 82.048 128.038 82.048C127.686 82.048 127.355 82 127.046 81.904C126.747 81.808 126.486 81.6533 126.262 81.44C126.048 81.2267 125.878 80.9493 125.75 80.608C125.622 80.256 125.558 79.8293 125.558 79.328ZM126.742 79.328C126.742 79.968 126.854 80.4267 127.078 80.704C127.312 80.9813 127.632 81.12 128.038 81.12C128.24 81.12 128.422 81.0933 128.582 81.04C128.742 80.976 128.875 80.88 128.982 80.752C129.099 80.6133 129.184 80.432 129.238 80.208C129.302 79.9733 129.334 79.68 129.334 79.328C129.334 78.976 129.302 78.688 129.238 78.464C129.184 78.2293 129.099 78.048 128.982 77.92C128.875 77.7813 128.742 77.6853 128.582 77.632C128.422 77.568 128.24 77.536 128.038 77.536C127.632 77.536 127.312 77.664 127.078 77.92C126.854 78.1653 126.742 78.6347 126.742 79.328ZM131.27 85.248C131.27 84.768 131.334 84.3573 131.462 84.016C131.59 83.6747 131.76 83.392 131.974 83.168C132.198 82.944 132.459 82.784 132.758 82.688C133.067 82.5813 133.398 82.528 133.75 82.528C134.102 82.528 134.427 82.576 134.726 82.672C135.035 82.768 135.296 82.9227 135.51 83.136C135.734 83.3493 135.91 83.632 136.038 83.984C136.166 84.3253 136.23 84.7467 136.23 85.248C136.23 85.7493 136.166 86.176 136.038 86.528C135.91 86.8693 135.734 87.1467 135.51 87.36C135.296 87.5733 135.035 87.728 134.726 87.824C134.427 87.92 134.102 87.968 133.75 87.968C133.398 87.968 133.067 87.92 132.758 87.824C132.459 87.728 132.198 87.5733 131.974 87.36C131.76 87.1467 131.59 86.8693 131.462 86.528C131.334 86.176 131.27 85.7493 131.27 85.248ZM132.454 85.248C132.454 85.888 132.566 86.3467 132.79 86.624C133.024 86.9013 133.344 87.04 133.75 87.04C133.952 87.04 134.134 87.0133 134.294 86.96C134.454 86.896 134.587 86.8 134.694 86.672C134.811 86.5333 134.896 86.352 134.95 86.128C135.014 85.8933 135.046 85.6 135.046 85.248C135.046 84.896 135.014 84.608 134.95 84.384C134.896 84.1493 134.811 83.968 134.694 83.84C134.587 83.7013 134.454 83.6053 134.294 83.552C134.134 83.488 133.952 83.456 133.75 83.456C133.344 83.456 133.024 83.584 132.79 83.84C132.566 84.0853 132.454 84.5547 132.454 85.248ZM134.63 76.592L135.414 77.2L127.206 88.192L126.406 87.568L134.63 76.592Z" fill="white"/>
<path d="M32.408 99.072C33.144 99.072 33.752 98.8587 34.232 98.432C34.712 98.0053 34.952 97.3867 34.952 96.576C34.952 95.7973 34.712 95.216 34.232 94.832C33.7627 94.448 33.112 94.256 32.28 94.256L30.936 94.336V88.8H35.928V89.984H32.136V93.168L32.824 93.136C33.88 93.1467 34.712 93.44 35.32 94.016C35.928 94.592 36.232 95.4187 36.232 96.496C36.232 97.0933 36.1307 97.6267 35.928 98.096C35.7253 98.5547 35.448 98.9387 35.096 99.248C34.7547 99.5573 34.3493 99.792 33.88 99.952C33.4107 100.112 32.9093 100.192 32.376 100.192C31.896 100.192 31.4907 100.165 31.16 100.112C30.8293 100.059 30.52 99.9787 30.232 99.872L30.568 98.784C30.8133 98.88 31.0747 98.9547 31.352 99.008C31.64 99.0507 31.992 99.072 32.408 99.072ZM39.4068 94.4C39.4068 92.48 39.7161 91.0347 40.3348 90.064C40.9641 89.0933 41.8761 88.608 43.0708 88.608C44.3614 88.608 45.2948 89.088 45.8708 90.048C46.4574 90.9973 46.7508 92.448 46.7508 94.4C46.7508 96.32 46.4361 97.7653 45.8068 98.736C45.1881 99.7067 44.2761 100.192 43.0708 100.192C41.8014 100.192 40.8734 99.6853 40.2868 98.672C39.7001 97.6587 39.4068 96.2347 39.4068 94.4ZM40.7348 94.4C40.7348 95.0933 40.7774 95.728 40.8628 96.304C40.9588 96.8693 41.1028 97.36 41.2948 97.776C41.4868 98.1813 41.7268 98.5013 42.0148 98.736C42.3134 98.96 42.6654 99.072 43.0708 99.072C43.8814 99.072 44.4734 98.6987 44.8468 97.952C45.2308 97.1947 45.4228 96.0107 45.4228 94.4C45.4228 93.7173 45.3801 93.088 45.2948 92.512C45.2201 91.936 45.0868 91.44 44.8948 91.024C44.7134 90.608 44.4734 90.288 44.1748 90.064C43.8761 89.84 43.5081 89.728 43.0708 89.728C42.2708 89.728 41.6788 90.1067 41.2948 90.864C40.9214 91.6213 40.7348 92.8 40.7348 94.4ZM49.5575 91.328C49.5575 90.848 49.6215 90.4373 49.7495 90.096C49.8775 89.7547 50.0482 89.472 50.2615 89.248C50.4855 89.024 50.7468 88.864 51.0455 88.768C51.3548 88.6613 51.6855 88.608 52.0375 88.608C52.3895 88.608 52.7148 88.656 53.0135 88.752C53.3228 88.848 53.5842 89.0027 53.7975 89.216C54.0215 89.4293 54.1975 89.712 54.3255 90.064C54.4535 90.4053 54.5175 90.8267 54.5175 91.328C54.5175 91.8293 54.4535 92.256 54.3255 92.608C54.1975 92.9493 54.0215 93.2267 53.7975 93.44C53.5842 93.6533 53.3228 93.808 53.0135 93.904C52.7148 94 52.3895 94.048 52.0375 94.048C51.6855 94.048 51.3548 94 51.0455 93.904C50.7468 93.808 50.4855 93.6533 50.2615 93.44C50.0482 93.2267 49.8775 92.9493 49.7495 92.608C49.6215 92.256 49.5575 91.8293 49.5575 91.328ZM50.7415 91.328C50.7415 91.968 50.8535 92.4267 51.0775 92.704C51.3122 92.9813 51.6322 93.12 52.0375 93.12C52.2402 93.12 52.4215 93.0933 52.5815 93.04C52.7415 92.976 52.8748 92.88 52.9815 92.752C53.0988 92.6133 53.1842 92.432 53.2375 92.208C53.3015 91.9733 53.3335 91.68 53.3335 91.328C53.3335 90.976 53.3015 90.688 53.2375 90.464C53.1842 90.2293 53.0988 90.048 52.9815 89.92C52.8748 89.7813 52.7415 89.6853 52.5815 89.632C52.4215 89.568 52.2402 89.536 52.0375 89.536C51.6322 89.536 51.3122 89.664 51.0775 89.92C50.8535 90.1653 50.7415 90.6347 50.7415 91.328ZM55.2695 97.248C55.2695 96.768 55.3335 96.3573 55.4615 96.016C55.5895 95.6747 55.7602 95.392 55.9735 95.168C56.1975 94.944 56.4588 94.784 56.7575 94.688C57.0668 94.5813 57.3975 94.528 57.7495 94.528C58.1015 94.528 58.4268 94.576 58.7255 94.672C59.0348 94.768 59.2962 94.9227 59.5095 95.136C59.7335 95.3493 59.9095 95.632 60.0375 95.984C60.1655 96.3253 60.2295 96.7467 60.2295 97.248C60.2295 97.7493 60.1655 98.176 60.0375 98.528C59.9095 98.8693 59.7335 99.1467 59.5095 99.36C59.2962 99.5733 59.0348 99.728 58.7255 99.824C58.4268 99.92 58.1015 99.968 57.7495 99.968C57.3975 99.968 57.0668 99.92 56.7575 99.824C56.4588 99.728 56.1975 99.5733 55.9735 99.36C55.7602 99.1467 55.5895 98.8693 55.4615 98.528C55.3335 98.176 55.2695 97.7493 55.2695 97.248ZM56.4535 97.248C56.4535 97.888 56.5655 98.3467 56.7895 98.624C57.0242 98.9013 57.3442 99.04 57.7495 99.04C57.9522 99.04 58.1335 99.0133 58.2935 98.96C58.4535 98.896 58.5868 98.8 58.6935 98.672C58.8108 98.5333 58.8962 98.352 58.9495 98.128C59.0135 97.8933 59.0455 97.6 59.0455 97.248C59.0455 96.896 59.0135 96.608 58.9495 96.384C58.8962 96.1493 58.8108 95.968 58.6935 95.84C58.5868 95.7013 58.4535 95.6053 58.2935 95.552C58.1335 95.488 57.9522 95.456 57.7495 95.456C57.3442 95.456 57.0242 95.584 56.7895 95.84C56.5655 96.0853 56.4535 96.5547 56.4535 97.248ZM58.6295 88.592L59.4135 89.2L51.2055 100.192L50.4055 99.568L58.6295 88.592Z" fill="white"/>
</svg>
