<svg width="104" height="104" viewBox="0 0 104 104" fill="none" xmlns="http://www.w3.org/2000/svg">
<circle cx="52" cy="52" r="50" fill="#FFD15C" stroke="white" stroke-width="4"/>
<path d="M71.5246 45.5001L73.7246 45.0001C75.0246 44.7001 74.6246 42.8001 73.3246 43.0001L71.3246 43.5001C70.2246 43.8001 70.4246 45.5001 71.5246 45.5001Z" fill="#C0811B"/>
<path d="M73.7245 52.8001L71.7245 52.3001C71.2245 52.2001 70.6245 52.6001 70.6245 53.1001C70.5245 53.6001 70.8245 54.1001 71.3245 54.2001C71.4245 54.2001 73.5245 54.7001 73.6245 54.7001C74.6245 54.8001 74.8245 53.1001 73.7245 52.8001Z" fill="#C0811B"/>
<path d="M68.7246 34.4998L67.1246 35.7998C66.4246 36.3998 66.8246 37.5998 67.7246 37.5998C68.2246 37.6998 69.4246 36.4998 69.9246 36.0998C71.0246 35.2998 69.8246 33.6998 68.7246 34.4998Z" fill="#C0811B"/>
<path d="M68.3246 60.5002C67.3246 59.7002 66.1246 61.2002 67.1246 62.1002L68.7246 63.4002C69.1246 63.7002 69.8246 63.6002 70.1246 63.2002C70.4246 62.8002 70.4246 62.2002 69.9246 61.8002L68.3246 60.5002Z" fill="#C0811B"/>
<path d="M61.3245 61.8C57.5245 61.4 54.1245 64.1 53.7245 67.9C53.2245 72.1 56.8245 75.8 61.0245 75.5C69.4245 74.8 69.6245 62.9 61.3245 61.8ZM63.8245 67.6L60.4245 71.1C60.2245 71.3 60.0245 71.4 59.7245 71.4C59.4245 71.4 59.2245 71.3 59.0245 71.1L57.3245 69.4C56.5245 68.5 57.8245 67.2 58.7245 68L59.7245 69L62.4245 66.3C63.3245 65.4 64.6245 66.7 63.8245 67.6Z" fill="#C0811B"/>
<path d="M52.4245 36.3999V39.6999C52.4245 40.2999 52.0245 40.6999 51.4245 40.6999C49.5245 40.6999 49.5245 43.4999 51.4245 43.4999C52.0245 43.4999 52.4245 43.8999 52.4245 44.4999V48.6999H56.8245C57.4245 48.6999 57.8245 49.0999 57.8245 49.6999C57.8245 50.4999 58.4245 51.0999 59.2245 51.0999C60.0245 51.0999 60.6245 50.4999 60.6245 49.6999C60.6245 49.0999 61.0245 48.6999 61.6245 48.6999H64.7245C64.7245 41.9999 59.2245 36.4999 52.4245 36.3999Z" fill="#C0811B"/>
<path d="M52.4246 60.8998V65.0998C53.7246 61.9998 56.7246 59.9998 60.0246 59.7998C60.4246 58.9998 60.9246 58.2998 61.3246 57.5998C63.1246 55.6998 64.2246 53.2998 64.6246 50.7998H62.4246C61.4246 53.9998 56.8246 53.9998 55.9246 50.7998H52.3246V54.2998C55.7246 55.1998 55.7246 59.9998 52.4246 60.8998Z" fill="#C0811B"/>
<path d="M60.4245 31.9998C60.9245 32.1998 61.5245 31.9998 61.7245 31.4998L62.6245 29.5998C62.8245 29.0998 62.6245 28.4998 62.1245 28.2998C61.6245 28.0998 61.0245 28.2998 60.8245 28.7998L59.9245 30.6998C59.7245 31.0998 59.9245 31.6998 60.4245 31.9998Z" fill="#C0811B"/>
<path d="M45.2246 76.1001C45.6246 77.4001 46.8246 78.3001 48.2246 78.2001H56.3246C57.1246 78.2001 57.9246 77.9001 58.5246 77.3001C57.5246 77.1001 56.6246 76.7001 55.7246 76.1001C53.9246 76.1001 46.8246 76.1001 45.2246 76.1001Z" fill="#C0811B"/>
<path d="M46.0245 74.1002H53.5245C53.1245 73.7002 52.8245 73.2002 52.6245 72.7002H44.4245C44.3245 73.4002 44.5245 74.1002 45.4245 74.1002H46.0245Z" fill="#C0811B"/>
<path d="M52.3246 30.1C52.8246 30.1 53.3246 29.7 53.3246 29.1V27C53.3246 26.4 52.9246 26 52.3246 26C51.7246 26 51.3246 26.4 51.3246 27V29.1C51.3246 29.6 51.7246 30.1 52.3246 30.1Z" fill="#C0811B"/>
<path d="M50.4246 67.2V60C50.4246 59.7 50.5246 59.5 50.7246 59.3C50.9246 59.1 51.3246 59 51.6246 59C52.4246 59 53.0246 58.3 52.9246 57.5C52.9246 56.7 52.2246 56.1 51.5246 56.2C50.9246 56.2 50.4246 55.8 50.4246 55.2V50.8H44.7246C44.1246 50.8 43.7246 50.4 43.7246 49.8C43.7246 47.9 40.9246 47.9 40.9246 49.8C40.9246 50.5 40.3246 50.9 39.7246 50.8C40.1246 53.4 41.2246 55.7 43.0246 57.6C45.0246 60.5 46.4246 63.7 46.9246 67.2H50.4246Z" fill="#C0811B"/>
<path d="M45.4246 69.2001C44.6246 69.2001 44.4246 69.9001 44.4246 70.6001H51.9246C51.8246 70.1001 51.7246 69.6001 51.7246 69.1001C51.6246 69.1001 51.5246 69.1001 51.5246 69.1001H45.4246V69.2001Z" fill="#C0811B"/>
<path d="M42.4246 46.3C43.9246 46.3 45.2246 47.3 45.7246 48.7H50.5246V45.3C47.3246 44.4 47.3246 39.7 50.5246 38.8V36.5C44.7246 37.3 40.3246 41.9 39.7246 47.7C40.3246 46.8 41.3246 46.3 42.4246 46.3Z" fill="#C0811B"/>
<path d="M42.8245 31.4001C43.4245 32.5001 45.0245 31.7001 44.6245 30.5001L43.7245 28.6001C43.5245 28.1001 42.9245 27.9001 42.4245 28.1001C41.9245 28.3001 41.6245 29.1001 41.9245 29.6001L42.8245 31.4001Z" fill="#C0811B"/>
<path d="M35.8246 34.4001C34.8246 33.6001 33.6246 35.1001 34.6246 36.0001L36.2246 37.3001C36.6246 37.6001 37.3246 37.5001 37.6246 37.1001C37.9246 36.7001 37.9246 36.1001 37.4246 35.7001L35.8246 34.4001Z" fill="#C0811B"/>
<path d="M36.1246 60.3001L34.5246 61.6001C33.8246 62.2001 34.2246 63.4001 35.1246 63.4001C35.6246 63.5001 36.9246 62.2001 37.3246 61.9001C38.3246 61.1001 37.1246 59.5001 36.1246 60.3001Z" fill="#C0811B"/>
<path d="M33.2246 43.3998L31.2246 42.8998C30.7246 42.7998 30.1246 43.0998 30.0246 43.6998C29.9246 44.1998 30.2246 44.7998 30.8246 44.8998C30.9246 44.8998 33.0246 45.3998 33.0246 45.3998C34.1246 45.3998 34.3246 43.6998 33.2246 43.3998Z" fill="#C0811B"/>
<path d="M32.7246 52.2L30.7246 52.7C29.5246 53 29.9246 54.9 31.1246 54.6L33.1246 54.1C34.3246 53.8 33.9246 52 32.7246 52.2Z" fill="#C0811B"/>
</svg>
