<svg width="234" height="233" viewBox="0 0 234 233" fill="none" xmlns="http://www.w3.org/2000/svg">
<g clip-path="url(#clip0_1_342)">
<rect x="0.5" width="233" height="233" rx="116.5" fill="black"/>
<path d="M96.7273 201.153L96.2438 202.762L93.4244 201.914C92.6888 201.693 91.9977 201.658 91.3509 201.809C90.6939 201.957 90.1278 202.266 89.6525 202.736C89.1639 203.213 88.8076 203.824 88.5835 204.57C88.3625 205.305 88.3259 206.001 88.4738 206.658C88.6216 207.315 88.9289 207.887 89.3956 208.372C89.8521 208.855 90.4429 209.205 91.1682 209.423L93.9877 210.27L93.5043 211.879L90.6388 211.018C89.8624 210.785 89.1837 210.43 88.6026 209.955C88.0184 209.49 87.5548 208.938 87.2118 208.301C86.8555 207.67 86.6376 206.987 86.5583 206.25C86.4758 205.523 86.5497 204.777 86.78 204.011C87.0071 203.255 87.3568 202.592 87.8291 202.021C88.3013 201.45 88.8563 200.993 89.494 200.65C90.1286 200.317 90.8194 200.112 91.5662 200.036C92.3101 199.97 93.065 200.052 93.8312 200.282L96.7273 201.153ZM97.9378 201.516L94.7148 212.243L92.9526 211.713L96.1756 200.987L97.9378 201.516Z" fill="white"/>
<path d="M82.2346 196.038L77.1387 206.011L75.5002 205.174L80.5961 195.2L82.2346 196.038ZM81.109 195.463L80.3447 196.959L74.7595 194.105L75.5239 192.609L81.109 195.463ZM78.8741 199.837L78.1389 201.276L73.0381 198.67L73.7734 197.23L78.8741 199.837ZM76.7775 203.94L76.0131 205.436L70.4992 202.619L71.2636 201.123L76.7775 203.94Z" fill="white"/>
<path d="M66.5046 186.628L63.4298 198.31L61.8275 197.113L64.4236 187.729L64.9876 188.15L56.7 193.283L55.1233 192.106L65.4791 185.862L66.5046 186.628Z" fill="white"/>
<path d="M58.0974 179.572L50.0233 187.334L48.7481 186.007L56.8222 178.245L58.0974 179.572ZM57.2214 178.661L56.0103 179.825L51.6635 175.303L52.8746 174.139L57.2214 178.661ZM53.6803 182.065L52.5154 183.185L48.5456 179.055L49.7106 177.936L53.6803 182.065ZM50.3584 185.258L49.1473 186.423L44.856 181.959L46.0671 180.795L50.3584 185.258Z" fill="white"/>
<path d="M47.3849 166.688C47.8864 167.417 48.1805 168.128 48.2672 168.819C48.3539 169.51 48.2813 170.233 48.0494 170.988L46.314 170.666C46.508 170.157 46.5896 169.655 46.5589 169.158C46.5194 168.668 46.3124 168.15 45.9378 167.605C45.5874 167.095 45.204 166.763 44.7876 166.609C44.3651 166.447 43.9693 166.492 43.6001 166.746C43.2924 166.957 43.0963 167.209 43.0116 167.5C42.927 167.791 42.9138 168.111 42.972 168.459C43.0153 168.805 43.0974 169.169 43.2182 169.552C43.3242 169.932 43.4244 170.322 43.5188 170.723C43.5984 171.122 43.6322 171.519 43.62 171.916C43.6018 172.304 43.4933 172.683 43.2944 173.052C43.0955 173.422 42.7586 173.77 42.284 174.096C41.7389 174.471 41.1868 174.656 40.6276 174.652C40.0535 174.645 39.5083 174.483 38.9919 174.165C38.4755 173.847 38.024 173.406 37.6374 172.844C37.2205 172.237 36.9676 171.615 36.8787 170.977C36.7837 170.331 36.8181 169.731 36.9819 169.178L38.7173 169.5C38.5997 169.969 38.5702 170.397 38.6289 170.784C38.6728 171.168 38.8217 171.544 39.0754 171.914C39.3896 172.371 39.7296 172.668 40.0955 172.805C40.4553 172.933 40.8022 172.882 41.1363 172.652C41.4176 172.459 41.5917 172.223 41.6588 171.944C41.7171 171.671 41.7201 171.364 41.668 171.025C41.601 170.683 41.5145 170.321 41.4086 169.941C41.2965 169.552 41.2007 169.159 41.1211 168.76C41.0355 168.353 41.0105 167.95 41.0463 167.55C41.0672 167.147 41.1859 166.755 41.4024 166.373C41.6189 165.991 41.9733 165.631 42.4656 165.293C43.2919 164.725 44.1492 164.569 45.0375 164.826C45.9197 165.074 46.7022 165.695 47.3849 166.688Z" fill="white"/>
<path d="M41.2323 156.922L31.0924 161.678L30.311 160.012L40.4509 155.256L41.2323 156.922ZM38.2086 150.476L28.0687 155.232L27.2873 153.566L37.4272 148.81L38.2086 150.476ZM36.205 157.884L34.684 158.597L32.0272 152.933L33.5482 152.22L36.205 157.884Z" fill="white"/>
<path d="M29.7598 104.86C29.6572 105.739 29.4112 106.468 29.0217 107.045C28.6322 107.622 28.1017 108.119 27.4304 108.535L26.3354 107.15C26.8162 106.895 27.2085 106.57 27.5122 106.176C27.8053 105.781 27.9901 105.255 28.0668 104.598C28.1384 103.983 28.0681 103.481 27.8559 103.091C27.6448 102.691 27.3168 102.465 26.8719 102.413C26.501 102.369 26.188 102.43 25.9326 102.593C25.6773 102.757 25.4569 102.989 25.2715 103.289C25.0768 103.578 24.8989 103.906 24.7379 104.274C24.5675 104.63 24.3859 104.99 24.1931 105.354C23.9909 105.706 23.7547 106.028 23.4846 106.319C23.2156 106.599 22.8846 106.812 22.4916 106.96C22.0985 107.107 21.6159 107.148 21.0438 107.081C20.3869 107.004 19.8492 106.781 19.4307 106.41C19.0029 106.027 18.6992 105.546 18.5198 104.966C18.3404 104.387 18.2902 103.758 18.3693 103.08C18.4545 102.349 18.6736 101.714 19.0264 101.175C19.3804 100.626 19.8009 100.197 20.2879 99.889L21.3829 101.273C20.9856 101.549 20.6818 101.852 20.4715 102.182C20.2519 102.5 20.1161 102.881 20.0642 103.326C19.9999 103.877 20.0605 104.324 20.2459 104.668C20.4326 105.001 20.7272 105.192 21.1298 105.239C21.4689 105.278 21.7554 105.215 21.9896 105.049C22.2131 104.882 22.417 104.653 22.6012 104.363C22.776 104.061 22.9486 103.732 23.1189 103.376C23.2906 103.01 23.4775 102.65 23.6796 102.298C23.883 101.935 24.1298 101.615 24.4199 101.337C24.7007 101.048 25.0482 100.831 25.4624 100.686C25.8767 100.541 26.3805 100.503 26.9738 100.572C27.9697 100.688 28.7176 101.135 29.2175 101.913C29.7187 102.68 29.8995 103.663 29.7598 104.86Z" fill="white"/>
<path d="M31.6558 92.4987L20.9634 89.1652L21.5111 87.4086L32.2035 90.7421L31.6558 92.4987ZM33.775 85.7014L23.0826 82.3679L23.6302 80.6113L34.3227 83.9448L33.775 85.7014ZM27.2968 89.8158L25.693 89.3157L27.555 83.3433L29.1589 83.8433L27.2968 89.8158Z" fill="white"/>
<path d="M37.2177 77.5324L29.5412 68.1652L30.1481 67.0382L42.1789 68.3193L41.2382 70.0661L31.5514 68.9205L31.87 68.3288L38.1432 75.8138L37.2177 77.5324ZM36.3931 74.5079L34.9844 73.7493L37.7987 68.5229L39.2074 69.2815L36.3931 74.5079Z" fill="white"/>
<path d="M42.8329 58.5658L41.6565 57.6033L43.4498 55.4114C43.8077 54.9738 43.9732 54.5442 43.9462 54.1224C43.9176 53.6856 43.7011 53.3017 43.2966 52.9708C42.9333 52.6736 42.5299 52.5434 42.0864 52.5801C41.6428 52.6169 41.2421 52.8541 40.8841 53.2917L39.0807 55.4959L37.8423 54.4828L39.6964 52.2166C40.1422 51.6717 40.6454 51.2841 41.206 51.0536C41.7584 50.8165 42.3156 50.7418 42.8778 50.8296C43.4384 50.9024 43.9581 51.1346 44.4369 51.5264C44.9405 51.9384 45.2835 52.412 45.4659 52.9471C45.6551 53.4739 45.684 54.0282 45.5526 54.6098C45.4213 55.1914 45.1328 55.7547 44.687 56.2996L42.8329 58.5658ZM45.7105 62.5531L37.042 55.4611L38.2071 54.037L46.8756 61.129L45.7105 62.5531ZM49.6009 57.7978L43.3541 57.7518L43.9552 56.0317L51.07 56.0022L49.6009 57.7978Z" fill="white"/>
<path d="M56.7468 50.1311L49.5887 41.5171L50.5731 40.699L59.0523 43.6178L58.4124 44.1495L57.0952 35.2793L58.0797 34.4613L65.2378 43.0753L63.8226 44.2513L58.7301 38.123L59.1217 37.9433L60.0938 44.5206L59.1093 45.3387L52.8211 43.1789L53.0695 42.8269L58.162 48.9552L56.7468 50.1311Z" fill="white"/>
<path d="M69.2187 40.4405L67.8738 28.4046L68.9961 27.7891L78.3937 35.4091L76.6541 36.3631L69.1495 30.1319L69.7387 29.8088L70.9303 39.502L69.2187 40.4405ZM70.1723 37.4542L69.4029 36.0513L74.6077 33.1971L75.377 34.6L70.1723 37.4542Z" fill="white"/>
<path d="M141.676 29.0838L142.147 27.5547L144.823 28.3792C145.19 28.4923 145.533 28.5199 145.852 28.462C146.185 28.397 146.473 28.2571 146.718 28.0423C146.966 27.8174 147.146 27.5214 147.26 27.1544C147.373 26.7874 147.388 26.4463 147.307 26.131C147.229 25.8055 147.069 25.5275 146.827 25.2968C146.599 25.0591 146.302 24.8837 145.935 24.7706L143.259 23.9461L143.73 22.4171L146.498 23.2698C147.17 23.4771 147.729 23.8001 148.175 24.2386C148.63 24.6803 148.934 25.198 149.086 25.7918C149.248 26.3886 149.225 27.0234 149.018 27.6962C148.811 28.369 148.472 28.9065 148.002 29.3086C147.542 29.7139 147 29.9709 146.375 30.0796C145.76 30.1915 145.116 30.1438 144.443 29.9365L141.676 29.0838ZM139.224 32.7483L142.522 22.0449L144.281 22.5867L140.983 33.2901L139.224 32.7483Z" fill="white"/>
<path d="M156.336 33.9571L157.03 32.6045L159.55 33.8965C160.053 34.1544 160.508 34.2257 160.914 34.1106C161.335 33.9908 161.665 33.6983 161.904 33.2332C162.118 32.8156 162.16 32.3938 162.031 31.9679C161.902 31.5421 161.585 31.2002 161.082 30.9423L158.548 29.643L159.278 28.2192L161.883 29.5549C162.51 29.8761 162.995 30.2865 163.338 30.7861C163.686 31.2762 163.876 31.8052 163.909 32.3733C163.956 32.9367 163.838 33.4936 163.556 34.0442C163.259 34.6232 162.868 35.0581 162.383 35.349C161.908 35.6448 161.372 35.7896 160.776 35.7836C160.18 35.7776 159.568 35.614 158.942 35.2929L156.336 33.9571ZM153.044 37.6092L158.153 27.6426L159.79 28.482L154.681 38.4486L153.044 37.6092ZM158.511 40.4121L157.242 34.2954L159.05 34.5211L160.576 41.4705L158.511 40.4121Z" fill="white"/>
<path d="M170.625 48.5553C169.996 48.0614 169.501 47.4829 169.14 46.8199C168.779 46.1569 168.554 45.4584 168.466 44.7246C168.384 43.9823 168.44 43.2463 168.633 42.5165C168.841 41.7849 169.192 41.1044 169.686 40.4751C170.18 39.8458 170.754 39.3474 171.409 38.9798C172.072 38.6188 172.766 38.3908 173.491 38.2958C174.232 38.199 174.96 38.248 175.674 38.443C176.404 38.6361 177.084 38.9796 177.713 39.4736C178.342 39.9675 178.833 40.5427 179.186 41.1992C179.553 41.8538 179.778 42.5522 179.86 43.2945C179.948 44.0283 179.889 44.761 179.68 45.4927C179.487 46.2225 179.144 46.902 178.65 47.5313C178.156 48.1606 177.574 48.66 176.905 49.0293C176.25 49.3969 175.556 49.6249 174.822 49.7134C174.096 49.8084 173.369 49.7593 172.639 49.5662C171.917 49.3796 171.246 49.0427 170.625 48.5553ZM171.687 47.1511C172.283 47.6187 172.908 47.8928 173.564 47.9733C174.228 48.0604 174.87 47.9679 175.49 47.6956C176.126 47.4214 176.687 46.9739 177.175 46.353C177.537 45.8915 177.791 45.4127 177.936 44.9166C178.096 44.4187 178.151 43.9259 178.1 43.4382C178.055 42.9422 177.907 42.4738 177.657 42.033C177.415 41.5987 177.071 41.2071 176.626 40.8581C176.039 40.397 175.413 40.123 174.75 40.0358C174.101 39.9469 173.462 40.0353 172.833 40.301C172.212 40.5733 171.658 41.0199 171.171 41.6408C170.809 42.1023 170.544 42.5862 170.377 43.0926C170.225 43.5971 170.171 44.0899 170.214 44.5709C170.265 45.0586 170.412 45.527 170.656 45.9762C170.907 46.417 171.251 46.8086 171.687 47.1511Z" fill="white"/>
<path d="M180.869 57.6527L182.145 56.5603L184.059 58.7968C184.559 59.3803 185.121 59.7833 185.747 60.0058C186.38 60.2365 187.023 60.2826 187.677 60.1442C188.346 60.007 188.976 59.6852 189.567 59.1789C190.151 58.6795 190.558 58.1134 190.789 57.4807C191.019 56.848 191.069 56.2013 190.939 55.5406C190.816 54.888 190.508 54.274 190.015 53.6986L188.101 51.4621L189.377 50.3696L191.323 52.6427C191.85 53.2585 192.23 53.9234 192.462 54.6374C192.702 55.3445 192.794 56.059 192.738 56.7809C192.697 57.504 192.511 58.1969 192.179 58.8596C191.856 59.5154 191.391 60.1034 190.783 60.6236C190.183 61.1369 189.531 61.5061 188.825 61.7312C188.119 61.9563 187.405 62.0409 186.683 61.9849C185.969 61.9219 185.277 61.7207 184.608 61.3813C183.946 61.0349 183.355 60.5578 182.835 59.9501L180.869 57.6527ZM180.047 56.6925L188.555 49.4094L189.752 50.8072L181.243 58.0903L180.047 56.6925Z" fill="white"/>
<path d="M192.322 73.5815C191.906 72.8486 191.699 72.0952 191.701 71.3212C191.703 70.5472 191.895 69.8254 192.275 69.1557C192.67 68.4901 193.234 67.9493 193.967 67.5334L200.006 64.106L200.914 65.7062L194.889 69.1257C194.416 69.3942 194.058 69.7259 193.816 70.1208C193.589 70.5197 193.475 70.946 193.475 71.3999C193.484 71.8484 193.61 72.286 193.852 72.7128C194.1 73.1488 194.411 73.4811 194.786 73.7098C195.17 73.9332 195.59 74.0449 196.043 74.0449C196.506 74.0396 196.97 73.9054 197.434 73.6422L203.473 70.2147L204.381 71.815L198.328 75.2503C197.595 75.6662 196.846 75.8704 196.082 75.8629C195.317 75.8553 194.604 75.6587 193.944 75.2731C193.284 74.8875 192.743 74.3236 192.322 73.5815Z" fill="white"/>
<path d="M199.412 89.4029C199.149 88.636 199.042 87.8779 199.09 87.1286C199.151 86.386 199.346 85.6878 199.674 85.0341C200.013 84.3768 200.465 83.8047 201.031 83.3176C201.607 82.827 202.274 82.4521 203.03 82.1928C203.787 81.9335 204.538 81.8226 205.284 81.8602C206.04 81.8944 206.748 82.069 207.409 82.3839C208.069 82.6989 208.651 83.1308 209.155 83.6798C209.662 84.2389 210.047 84.9019 210.31 85.6688C210.604 86.5265 210.717 87.3166 210.649 88.039C210.58 88.7615 210.387 89.4479 210.069 90.0982L208.484 89.3221C208.72 88.8917 208.856 88.4166 208.892 87.8969C208.931 87.3872 208.849 86.8346 208.645 86.2393C208.465 85.7146 208.21 85.2664 207.88 84.8947C207.55 84.523 207.158 84.2345 206.704 84.0292C206.264 83.8305 205.782 83.7249 205.259 83.7124C204.736 83.6999 204.197 83.7887 203.642 83.9788C203.087 84.169 202.607 84.4294 202.202 84.76C201.796 85.0905 201.476 85.471 201.24 85.9014C201.017 86.3384 200.89 86.805 200.857 87.3011C200.824 87.7972 200.897 88.3077 201.077 88.8324C201.298 89.4782 201.581 89.9903 201.925 90.3686C202.282 90.7535 202.686 91.0436 203.136 91.2388L202.36 92.824C201.7 92.509 201.116 92.072 200.609 91.5129C200.101 90.9538 199.703 90.2505 199.412 89.4029Z" fill="white"/>
<path d="M202.79 102.322L213.539 100.639L213.823 102.457L203.074 104.14L202.79 102.322ZM211.631 97.2453L213.291 96.9855L214.704 106.012L213.044 106.271L211.631 97.2453Z" fill="white"/>
<path d="M203.732 124.139L205.398 124.351L205.026 127.272C204.929 128.034 205.008 128.721 205.264 129.334C205.518 129.958 205.915 130.466 206.457 130.857C207.008 131.261 207.669 131.512 208.442 131.61C209.203 131.707 209.896 131.629 210.52 131.375C211.144 131.121 211.657 130.724 212.059 130.184C212.46 129.654 212.708 129.014 212.804 128.262L213.176 125.342L214.842 125.554L214.464 128.522C214.362 129.326 214.124 130.054 213.75 130.706C213.388 131.358 212.92 131.906 212.347 132.349C211.784 132.805 211.146 133.132 210.432 133.331C209.729 133.532 208.981 133.582 208.187 133.481C207.404 133.381 206.692 133.145 206.051 132.773C205.411 132.401 204.869 131.929 204.425 131.356C203.993 130.785 203.677 130.138 203.479 129.413C203.292 128.691 203.249 127.932 203.35 127.139L203.732 124.139ZM203.892 122.885L215.002 124.3L214.769 126.126L203.659 124.71L203.892 122.885Z" fill="white"/>
<path d="M201.07 139.275L211.745 142.662L211.189 144.416L200.513 141.029L201.07 139.275ZM200.688 140.48L202.289 140.988L200.392 146.967L198.791 146.459L200.688 140.48ZM205.37 141.965L206.91 142.454L205.178 147.914L203.638 147.425L205.37 141.965ZM209.762 143.359L211.363 143.867L209.491 149.769L207.89 149.261L209.762 143.359Z" fill="white"/>
<path d="M194.488 155.764C194.89 154.974 195.374 154.377 195.939 153.971C196.505 153.564 197.175 153.283 197.949 153.126L198.495 154.804C197.956 154.877 197.475 155.045 197.053 155.309C196.641 155.578 196.285 156.008 195.985 156.597C195.705 157.148 195.596 157.644 195.66 158.083C195.719 158.532 195.948 158.858 196.347 159.061C196.68 159.23 196.994 159.283 197.29 159.218C197.587 159.153 197.874 159.012 198.152 158.795C198.435 158.592 198.716 158.346 198.995 158.057C199.278 157.782 199.573 157.507 199.881 157.233C200.192 156.973 200.526 156.753 200.88 156.574C201.229 156.405 201.614 156.32 202.034 156.318C202.453 156.316 202.92 156.446 203.433 156.707C204.023 157.007 204.449 157.403 204.713 157.897C204.981 158.404 205.099 158.961 205.066 159.566C205.033 160.172 204.862 160.779 204.552 161.387C204.219 162.043 203.793 162.563 203.275 162.945C202.752 163.338 202.209 163.594 201.645 163.714L201.099 162.036C201.567 161.915 201.957 161.736 202.269 161.5C202.585 161.278 202.845 160.967 203.048 160.568C203.3 160.074 203.398 159.633 203.344 159.246C203.285 158.869 203.074 158.589 202.713 158.405C202.409 158.25 202.118 158.21 201.841 158.284C201.573 158.363 201.303 158.507 201.029 158.715C200.761 158.937 200.484 159.186 200.201 159.46C199.913 159.745 199.613 160.017 199.301 160.277C198.984 160.547 198.642 160.761 198.273 160.921C197.909 161.095 197.508 161.178 197.069 161.17C196.63 161.162 196.145 161.023 195.612 160.752C194.719 160.297 194.173 159.618 193.974 158.715C193.77 157.822 193.942 156.838 194.488 155.764Z" fill="white"/>
<path d="M189.279 164.989L198.484 171.369L197.436 172.881L188.231 166.502L189.279 164.989Z" fill="white"/>
<path d="M179.941 176.355C180.473 175.801 181.082 175.38 181.77 175.094C182.458 174.808 183.168 174.661 183.899 174.652C184.639 174.652 185.362 174.783 186.069 175.047C186.777 175.326 187.419 175.743 187.997 176.296C188.575 176.849 189.014 177.47 189.316 178.158C189.61 178.853 189.768 179.566 189.792 180.297C189.815 181.044 189.691 181.767 189.419 182.467C189.148 183.182 188.732 183.832 188.171 184.417C187.559 185.057 186.867 185.532 186.097 185.842C185.327 186.153 184.537 186.276 183.728 186.21L183.691 184.445C184.258 184.531 184.822 184.459 185.383 184.228C185.952 184.005 186.458 183.662 186.9 183.2C187.432 182.645 187.777 182.038 187.936 181.378C188.096 180.734 188.071 180.089 187.861 179.445C187.651 178.801 187.261 178.205 186.691 177.659C186.121 177.113 185.506 176.745 184.845 176.556C184.185 176.381 183.54 176.376 182.91 176.541C182.28 176.705 181.721 177.042 181.234 177.55C180.718 178.089 180.371 178.643 180.195 179.213C180.019 179.798 180.024 180.379 180.21 180.955C180.403 181.54 180.785 182.105 181.355 182.651L179.957 182.907L183.267 179.453L184.48 180.615L180.65 184.612L180.465 184.435C179.502 183.513 178.867 182.572 178.56 181.613C178.246 180.662 178.214 179.738 178.467 178.843C178.719 177.947 179.211 177.118 179.941 176.355Z" fill="white"/>
<path d="M170.804 184.973L177.318 194.084L175.821 195.154L169.307 186.043L170.804 184.973ZM169.775 185.708L170.752 187.075L165.65 190.723L164.673 189.356L169.775 185.708ZM172.632 189.704L173.572 191.019L168.913 194.35L167.973 193.036L172.632 189.704ZM175.312 193.452L176.289 194.819L171.253 198.42L170.275 197.054L175.312 193.452Z" fill="white"/>
<path d="M159.469 197.851L160.125 199.223L157.57 200.444C157.06 200.688 156.727 201.007 156.572 201.4C156.412 201.807 156.445 202.247 156.67 202.718C156.873 203.142 157.183 203.431 157.6 203.586C158.017 203.742 158.48 203.698 158.99 203.454L161.56 202.225L162.25 203.669L159.608 204.932C158.973 205.235 158.353 205.372 157.747 205.342C157.147 205.322 156.611 205.153 156.139 204.834C155.663 204.53 155.291 204.099 155.024 203.541C154.744 202.954 154.635 202.379 154.697 201.817C154.75 201.26 154.959 200.746 155.325 200.276C155.692 199.805 156.192 199.418 156.828 199.114L159.469 197.851ZM158.56 193.019L163.39 203.124L161.73 203.917L156.9 193.813L158.56 193.019ZM153.017 195.669L158.651 198.367L157.376 199.668L150.924 196.669L153.017 195.669Z" fill="white"/>
<g filter="url(#filter0_b_1_342)">
<circle cx="117" cy="116.5" r="68.5" fill="black"/>
<circle cx="117" cy="116.5" r="68" stroke="white"/>
</g>
<g clip-path="url(#clip1_1_342)">
<path d="M115.307 21.826L113.189 21.6442C112.235 21.5658 111.318 21.2441 110.525 20.7098C109.731 20.1754 109.088 19.4465 108.657 18.5925L107.692 16.6978C107.649 16.6332 107.589 16.5828 107.517 16.5528C107.446 16.5229 107.367 16.5148 107.291 16.5296C107.216 16.5444 107.146 16.5814 107.091 16.636C107.036 16.6906 106.999 16.7602 106.984 16.836L106.802 18.9546C106.724 19.908 106.402 20.8253 105.868 21.6187C105.333 22.4122 104.604 23.0552 103.75 23.4863L101.856 24.4514C101.783 24.4883 101.724 24.548 101.688 24.6213C101.652 24.6946 101.642 24.7776 101.657 24.8577C101.673 24.9378 101.714 25.0106 101.775 25.0651C101.836 25.1196 101.912 25.1527 101.994 25.1596L104.112 25.3413C105.066 25.4197 105.983 25.7415 106.776 26.2758C107.57 26.8101 108.213 27.5391 108.644 28.393L109.609 30.2877C109.646 30.3605 109.706 30.4193 109.779 30.4551C109.852 30.4909 109.935 30.5018 110.015 30.4862C110.096 30.4705 110.168 30.4292 110.223 30.3685C110.277 30.3077 110.31 30.2308 110.317 30.1495L110.499 28.0309C110.578 27.0776 110.899 26.1603 111.434 25.3668C111.968 24.5734 112.697 23.9303 113.551 23.4992L115.445 22.5341C115.518 22.4972 115.577 22.4376 115.613 22.3643C115.649 22.2909 115.66 22.2079 115.644 22.1278C115.628 22.0477 115.587 21.9749 115.526 21.9205C115.465 21.866 115.389 21.8328 115.307 21.826Z" fill="white"/>
</g>
<g clip-path="url(#clip2_1_342)">
<path d="M132.327 206.739L130.208 206.564C129.254 206.489 128.336 206.17 127.54 205.639C126.745 205.107 126.1 204.38 125.666 203.528L124.694 201.636C124.651 201.572 124.59 201.522 124.519 201.492C124.448 201.462 124.369 201.454 124.293 201.469C124.217 201.484 124.148 201.522 124.093 201.577C124.038 201.631 124.001 201.701 123.986 201.777L123.812 203.896C123.737 204.85 123.418 205.768 122.886 206.563C122.355 207.359 121.628 208.004 120.775 208.438L118.884 209.41C118.811 209.447 118.753 209.507 118.717 209.58C118.682 209.653 118.671 209.736 118.687 209.816C118.703 209.897 118.744 209.969 118.805 210.023C118.866 210.078 118.943 210.111 119.025 210.117L121.144 210.292C122.097 210.367 123.016 210.686 123.811 211.217C124.606 211.749 125.252 212.476 125.686 213.328L126.657 215.22C126.694 215.292 126.754 215.351 126.828 215.386C126.901 215.422 126.984 215.433 127.064 215.417C127.144 215.401 127.217 215.359 127.271 215.298C127.325 215.237 127.358 215.16 127.365 215.079L127.54 212.96C127.615 212.006 127.933 211.088 128.465 210.293C128.997 209.497 129.723 208.852 130.576 208.418L132.467 207.446C132.54 207.409 132.599 207.349 132.634 207.276C132.67 207.203 132.68 207.12 132.664 207.039C132.649 206.959 132.607 206.887 132.546 206.832C132.485 206.778 132.408 206.745 132.327 206.739Z" fill="white"/>
</g>
<mask id="mask0_1_342" style="mask-type:luminance" maskUnits="userSpaceOnUse" x="95" y="91" width="46" height="50">
<path d="M140.499 91H95.499V141H140.499V91Z" fill="white"/>
</mask>
<g mask="url(#mask0_1_342)">
<path d="M106.177 141L129.821 125.615L140.499 138.079V94.8462L106.177 116.463V141Z" fill="white" fill-opacity="0.4"/>
<path d="M129.821 91L106.177 106.385L95.499 93.921V137.154L129.821 115.537V91Z" fill="white"/>
</g>
</g>
<rect x="1" y="0.5" width="232" height="232" rx="116" stroke="white"/>
<defs>
<filter id="filter0_b_1_342" x="34.5" y="34" width="165" height="165" filterUnits="userSpaceOnUse" color-interpolation-filters="sRGB">
<feFlood flood-opacity="0" result="BackgroundImageFix"/>
<feGaussianBlur in="BackgroundImageFix" stdDeviation="7"/>
<feComposite in2="SourceAlpha" operator="in" result="effect1_backgroundBlur_1_342"/>
<feBlend mode="normal" in="SourceGraphic" in2="effect1_backgroundBlur_1_342" result="shape"/>
</filter>
<clipPath id="clip0_1_342">
<rect x="0.5" width="233" height="233" rx="116.5" fill="white"/>
</clipPath>
<clipPath id="clip1_1_342">
<rect width="18" height="18" fill="white" transform="translate(98.4426 16.8911) rotate(-11.0439)"/>
</clipPath>
<clipPath id="clip2_1_342">
<rect width="18" height="18" fill="white" transform="translate(115.419 202.122) rotate(-11.237)"/>
</clipPath>
</defs>
</svg>
