<svg width="53" height="33" viewBox="0 0 53 33" fill="none" xmlns="http://www.w3.org/2000/svg">
<path d="M26.2036 32.7536C24.8628 32.7536 23.1312 32.0112 22.3276 31.4828C21.3537 30.843 16.4668 27.1679 12.4008 23.7636C11.7239 23.1959 10.7172 22.1434 9.74335 21.1258C9.02056 20.3724 8.36547 19.6802 8.02701 19.3942C7.56626 19.0055 7.50949 18.3154 7.89817 17.8547C8.28468 17.3918 8.97252 17.3328 9.43764 17.7259C9.80886 18.0403 10.5316 18.7893 11.3221 19.6147C12.213 20.5449 13.2219 21.5975 13.8049 22.0888C17.956 25.5651 22.7622 29.1506 23.5286 29.6551C24.1684 30.0787 25.4764 30.57 26.2036 30.57C27.2255 30.57 27.3194 30.308 27.3609 30.1988C27.4854 29.856 27.7714 29.5983 28.1274 29.5109C28.4789 29.4258 28.8545 29.5197 29.1253 29.7642C29.5598 30.1617 30.0446 30.0852 30.3787 29.9586C31.0709 29.69 31.6015 29.0022 31.667 28.2859C31.7063 27.871 31.9771 27.5129 32.3658 27.3666C32.7545 27.2225 33.1934 27.3055 33.4991 27.5893C33.7721 27.8426 34.5014 27.9038 35.2002 27.55C35.4753 27.4125 36.1107 27.0151 36.0365 26.3207C35.9906 25.897 36.1959 25.4843 36.5627 25.266C36.9274 25.0476 37.3882 25.0629 37.7419 25.3053C38.0629 25.5302 38.6547 25.4123 39.087 25.041C39.3818 24.7899 39.8164 24.2418 39.4124 23.4011C38.5935 21.6979 34.9534 18.7544 31.7435 16.158C29.9682 14.7234 28.2824 13.3586 27.0334 12.186C26.7146 12.3148 26.4744 12.4218 26.2691 12.5135C25.7013 12.769 25.3236 12.9262 24.6292 13.0332C22.9478 15.2649 20.6899 16.0467 18.2158 15.23C17.2288 14.9046 16.565 14.2058 16.3401 13.2625C15.816 11.0461 17.8446 8.02398 19.3382 6.53037C23.2622 2.60419 26.0092 1.13024 31.0163 3.36847C35.3137 5.29225 39.6198 6.79677 39.6635 6.81206C40.2334 7.01077 40.5326 7.6331 40.3361 8.20303C40.1374 8.77296 39.5194 9.0743 38.9451 8.87559C38.9014 8.86031 34.5079 7.32521 30.1232 5.36431C26.2582 3.63705 24.4283 4.52579 20.8799 8.07638C19.3885 9.56781 18.2377 11.7995 18.467 12.7581C18.4997 12.8978 18.5609 13.0442 18.9015 13.1577C19.9693 13.5158 21.5677 13.7123 23.1116 11.4042C23.2928 11.1335 23.5854 10.9588 23.9108 10.926C24.6467 10.8518 24.8301 10.7688 25.376 10.5242C25.7341 10.3648 26.1883 10.1596 26.9242 9.89317C27.3194 9.75123 27.7671 9.84731 28.0662 10.1487C29.2607 11.3431 31.1342 12.8585 33.117 14.4613C36.6719 17.3372 40.3514 20.3135 41.3799 22.4578C42.1048 23.9623 41.7598 25.6306 40.5064 26.7028C39.7661 27.3382 38.8709 27.6461 38.0018 27.6003C37.6873 28.3886 37.0541 29.0633 36.1784 29.5044C35.2831 29.9542 34.2983 30.0831 33.438 29.8996C32.975 30.8386 32.1584 31.6138 31.1648 31.9981C30.3241 32.3256 29.4507 32.3235 28.682 32.0243C28.1077 32.5069 27.2801 32.7536 26.2036 32.7536Z" fill="white"/>
<path d="M21.8364 6.55033H12.01C11.4073 6.55033 10.9182 6.0612 10.9182 5.45852C10.9182 4.85583 11.4073 4.3667 12.01 4.3667H21.8364C22.4391 4.3667 22.9282 4.85583 22.9282 5.45852C22.9282 6.0612 22.4391 6.55033 21.8364 6.55033Z" fill="white"/>
<path d="M40.4824 23.9798C40.1309 23.9798 39.7858 23.8095 39.574 23.4973C39.2378 22.9972 39.371 22.3181 39.871 21.9818L43.0635 19.8375C43.5635 19.4968 44.2405 19.6344 44.5789 20.1345C44.9152 20.6345 44.782 21.3136 44.282 21.6499L41.0895 23.7942C40.9017 23.9209 40.6899 23.9798 40.4824 23.9798Z" fill="white"/>
<path d="M37.1218 27.295C36.886 27.295 36.6458 27.2185 36.4471 27.0613C35.2963 26.1529 30.346 20.993 29.7848 20.4078C29.3677 19.9732 29.3808 19.281 29.8176 18.864C30.2521 18.4447 30.9443 18.46 31.3614 18.8967C33.5232 21.1502 37.0192 24.7292 37.8009 25.345C38.2748 25.7184 38.3556 26.4062 37.9822 26.8779C37.7638 27.1508 37.4428 27.295 37.1218 27.295Z" fill="white"/>
<path d="M32.7545 29.4784C32.5165 29.4784 32.2741 29.3998 32.0732 29.2404C30.453 27.9433 26.5311 23.7093 26.4918 23.6678C26.0835 23.2245 26.1141 22.5323 26.5574 22.124C27.0028 21.7178 27.6907 21.744 28.1012 22.1895C28.8436 22.9974 32.13 26.489 33.438 27.535C33.9075 27.9106 33.9839 28.5984 33.6083 29.0701C33.3921 29.3365 33.0733 29.4784 32.7545 29.4784Z" fill="white"/>
<path d="M28.3873 31.6618C28.1383 31.6618 27.8894 31.5767 27.6841 31.4041C26.0748 30.0459 23.0265 26.8141 22.1312 25.8555C21.7206 25.4144 21.7425 24.7244 22.1836 24.3117C22.6225 23.899 23.3147 23.923 23.7274 24.3641C24.3497 25.0301 27.5357 28.4213 29.0926 29.7337C29.5533 30.1224 29.6123 30.8102 29.2236 31.2731C29.0074 31.5286 28.6974 31.6618 28.3873 31.6618Z" fill="white"/>
<path d="M7.64272 21.8357H1.09182C0.489134 21.8357 0 21.3465 0 20.7438V1.09112C0 0.789782 0.124467 0.501543 0.342831 0.296281C0.561194 0.0888356 0.84725 -0.0137958 1.15733 0.00148967C3.40647 0.134691 10.8898 0.708988 12.7612 2.4821C13.0035 2.7092 13.1258 3.03674 13.0974 3.36866C12.6018 9.04611 8.83935 20.5932 8.67995 21.0823C8.53365 21.5321 8.11439 21.8357 7.64272 21.8357ZM2.18363 19.652H6.8457C7.65801 17.0884 10.2762 8.59191 10.8548 3.80975C9.47916 3.14156 5.69274 2.53887 2.18363 2.26155V19.652Z" fill="white"/>
<path d="M51.3154 24.0195H44.7645C44.2732 24.0195 43.843 23.6919 43.712 23.2181C42.8997 20.2745 38.6744 8.20776 37.3249 6.03504C37.1611 5.76863 37.1174 5.44764 37.2048 5.14848C37.2921 4.84932 37.5039 4.60257 37.7878 4.46937C37.9865 4.37766 42.7425 2.18311 51.3154 2.18311C51.9181 2.18311 52.4073 2.67006 52.4073 3.27492V22.9276C52.4073 23.5303 51.9181 24.0195 51.3154 24.0195ZM45.5812 21.8358H50.2236V4.37984C45.0288 4.50213 41.4498 5.47384 39.7837 6.0394C41.4891 9.67297 44.5462 18.4643 45.5812 21.8358Z" fill="white"/>
</svg>
