<svg width="47" height="47" viewBox="0 0 47 47" fill="none" xmlns="http://www.w3.org/2000/svg">
<path d="M38.282 17.771L37.6558 18.0841L38.282 18.3971L45.8303 22.1708C46.9238 22.7177 46.9227 24.283 45.8304 24.829L45.8303 24.829L38.282 28.6031L37.6558 28.9162L38.282 29.2292L45.8303 33.0029C46.9237 33.5497 46.9228 35.1148 45.8303 35.6611L24.1648 46.4931C23.7453 46.7027 23.253 46.7019 22.8352 46.4931L1.16971 35.6611C0.0763043 35.1143 0.0772255 33.5493 1.16971 33.0029L8.718 29.2292L9.34415 28.9162L8.71801 28.6031L1.16971 24.829C0.0763043 24.2822 0.0772255 22.7172 1.16971 22.1708L8.718 18.3971L9.34415 18.0841L8.71801 17.771L1.16968 13.9969L1.16964 13.9969C0.0764061 13.4505 0.0771572 11.8852 1.16967 11.3388C1.16968 11.3388 1.16969 11.3388 1.16971 11.3388L22.8351 0.506775C22.8352 0.506751 22.8352 0.506726 22.8353 0.506701C23.2539 0.29777 23.7461 0.297766 24.1647 0.506689C24.1648 0.506718 24.1648 0.506746 24.1649 0.506775L45.8303 11.3388C45.8303 11.3388 45.8303 11.3388 45.8303 11.3388C46.9238 11.8856 46.9227 13.4509 45.8304 13.9969L45.8303 13.9969L38.282 17.771ZM23.6565 3.57542L23.5 3.49717L23.3435 3.57542L5.78355 12.355L5.1574 12.668L5.78355 12.9811L23.3435 21.7603L23.5 21.8385L23.6565 21.7603L41.2164 12.9811L41.8426 12.668L41.2165 12.355L23.6565 3.57542ZM41.2164 34.6452L41.8426 34.3322L41.2165 34.0191L34.4893 30.6556L34.3328 30.5774L34.1763 30.6556L24.1648 35.661C23.7453 35.8706 23.2533 35.8698 22.8351 35.661L12.8237 30.6556L12.6672 30.5774L12.5107 30.6556L5.78354 34.0191L5.15741 34.3322L5.78355 34.6452L23.3435 43.4244L23.5 43.5027L23.6565 43.4244L41.2164 34.6452ZM23.3435 32.5924L23.5 32.6706L23.6565 32.5924L41.2164 23.8132L41.8426 23.5001L41.2165 23.1871L34.4893 19.8236L34.3328 19.7453L34.1763 19.8235L24.1648 24.829C24.1648 24.829 24.1647 24.829 24.1647 24.829C23.7453 25.0385 23.2533 25.0377 22.8351 24.8289L12.8237 19.8235L12.6672 19.7453L12.5107 19.8236L5.78354 23.1871L5.15741 23.5001L5.78355 23.8132L23.3435 32.5924Z" fill="white" stroke="#151515" stroke-width="0.7"/>
</svg>
