<svg width="34" height="47" viewBox="0 0 34 47" fill="none" xmlns="http://www.w3.org/2000/svg">
<path d="M30 32.4745V4.89368C30 3.5958 29.4732 2.35107 28.5355 1.43333C27.5979 0.515583 26.3261 0 25 0L5 0C3.67392 0 2.40215 0.515583 1.46447 1.43333C0.526784 2.35107 0 3.5958 0 4.89368V42.0857C0 42.7283 0.129328 43.3647 0.380602 43.9584C0.631875 44.5521 1.00017 45.0916 1.46447 45.546C1.92876 46.0004 2.47996 46.3609 3.08658 46.6068C3.69321 46.8528 4.34339 46.9794 5 46.9794C17.89 46.9794 17.34 47.1262 17.76 46.6368C18.66 45.5993 17.53 45.1589 11.61 40.2065C11.497 40.1126 11.4099 39.9925 11.3563 39.8572C11.3028 39.7219 11.2847 39.5757 11.3036 39.4318C11.3224 39.2879 11.3777 39.1509 11.4644 39.0332C11.5511 38.9156 11.6665 38.8209 11.8 38.758C12.25 38.5329 12.08 38.572 16.68 40.0793C16.8306 40.1291 16.9913 40.143 17.1485 40.1199C17.3057 40.0968 17.4551 40.0373 17.5841 39.9464C17.7132 39.8555 17.8183 39.7358 17.8906 39.5972C17.9629 39.4586 18.0004 39.3051 18 39.1495V26.4259C18 26.1663 18.1054 25.9174 18.2929 25.7338C18.4804 25.5503 18.7348 25.4471 19 25.4471C19.2652 25.4471 19.5196 25.5503 19.7071 25.7338C19.8946 25.9174 20 26.1663 20 26.4259V37.192C20 37.4516 20.1054 37.7005 20.2929 37.8841C20.4804 38.0676 20.7348 38.1707 21 38.1707C21.2652 38.1707 21.5196 38.0676 21.7071 37.8841C21.8946 37.7005 22 37.4516 22 37.192V33.277C22 33.0175 22.1054 32.7685 22.2929 32.585C22.4804 32.4014 22.7348 32.2983 23 32.2983C23.2652 32.2983 23.5196 32.4014 23.7071 32.585C23.8946 32.7685 24 33.0175 24 33.277V37.192C24 37.4516 24.1054 37.7005 24.2929 37.8841C24.4804 38.0676 24.7348 38.1707 25 38.1707C25.2652 38.1707 25.5196 38.0676 25.7071 37.8841C25.8946 37.7005 26 37.4516 26 37.192V34.2558C26 33.9962 26.1054 33.7473 26.2929 33.5637C26.4804 33.3802 26.7348 33.277 27 33.277C27.2652 33.277 27.5196 33.3802 27.7071 33.5637C27.8946 33.7473 28 33.9962 28 34.2558V37.192C28 37.4516 28.1054 37.7005 28.2929 37.8841C28.4804 38.0676 28.7348 38.1707 29 38.1707C29.2652 38.1707 29.5196 38.0676 29.7071 37.8841C29.8946 37.7005 30 37.4516 30 37.192V35.2345C30 34.9749 30.1054 34.726 30.2929 34.5424C30.4804 34.3589 30.7348 34.2558 31 34.2558C31.2652 34.2558 31.5196 34.3589 31.7071 34.5424C31.8946 34.726 32 34.9749 32 35.2345V46.0006C32 46.2602 32.1054 46.5091 32.2929 46.6927C32.4804 46.8762 32.7348 46.9794 33 46.9794C33.2652 46.9794 33.5196 46.8762 33.7071 46.6927C33.8946 46.5091 34 46.2602 34 46.0006V35.2345C33.9987 34.7655 33.8825 34.3036 33.6613 33.8875C33.4401 33.4714 33.1203 33.1132 32.7286 32.843C32.3369 32.5727 31.8848 32.3982 31.4101 32.3341C30.9353 32.27 30.4518 32.3181 30 32.4745ZM2 4.89368C2 4.11495 2.31607 3.36812 2.87868 2.81747C3.44129 2.26682 4.20435 1.95747 5 1.95747H25C25.7956 1.95747 26.5587 2.26682 27.1213 2.81747C27.6839 3.36812 28 4.11495 28 4.89368V5.87242H2V4.89368ZM14.29 45.0219H5C4.20435 45.0219 3.44129 44.7125 2.87868 44.1619C2.31607 43.6112 2 42.8644 2 42.0857V41.1069H9.79C10.11 41.5865 9.92 41.3712 14.29 45.0219ZM25.53 31.7111C25.1662 31.1508 24.6191 30.7277 23.978 30.5108C23.3369 30.294 22.6397 30.2961 22 30.517V26.4259C22 25.6472 21.6839 24.9003 21.1213 24.3497C20.5587 23.799 19.7956 23.4897 19 23.4897C18.2044 23.4897 17.4413 23.799 16.8787 24.3497C16.3161 24.9003 16 25.6472 16 26.4259H7C6.73478 26.4259 6.48043 26.529 6.29289 26.7126C6.10536 26.8961 6 27.145 6 27.4046C6 27.6642 6.10536 27.9131 6.29289 28.0967C6.48043 28.2802 6.73478 28.3834 7 28.3834H16V37.789L13.12 36.8103C12.714 36.6782 12.283 36.636 11.8583 36.6867C11.4335 36.7375 11.0256 36.8799 10.664 37.1037C10.3023 37.3275 9.99594 37.6271 9.76698 37.9809C9.53802 38.3347 9.39219 38.7338 9.34 39.1495H2V7.82989H28V31.4957C27.5978 31.35 27.1674 31.2937 26.7402 31.3309C26.313 31.3682 25.8996 31.498 25.53 31.7111Z" fill="white"/>
<path d="M12 11.7448V16.6385C12 17.1577 11.7893 17.6556 11.4142 18.0227C11.0391 18.3898 10.5304 18.596 10 18.596C9.46957 18.596 8.96086 18.3898 8.58579 18.0227C8.21071 17.6556 8 17.1577 8 16.6385V11.7448C8 11.4853 7.89464 11.2363 7.70711 11.0528C7.51957 10.8692 7.26522 10.7661 7 10.7661C6.73478 10.7661 6.48043 10.8692 6.29289 11.0528C6.10536 11.2363 6 11.4853 6 11.7448V16.6385C6 17.6768 6.42143 18.6726 7.17157 19.4068C7.92172 20.141 8.93913 20.5535 10 20.5535C11.0609 20.5535 12.0783 20.141 12.8284 19.4068C13.5786 18.6726 14 17.6768 14 16.6385V11.7448C14 11.4853 13.8946 11.2363 13.7071 11.0528C13.5196 10.8692 13.2652 10.7661 13 10.7661C12.7348 10.7661 12.4804 10.8692 12.2929 11.0528C12.1054 11.2363 12 11.4853 12 11.7448Z" fill="white"/>
<path d="M22.2 11.1576L20 14.0253L17.8 11.1576C17.6409 10.9499 17.404 10.8127 17.1414 10.776C16.8789 10.7392 16.6122 10.8061 16.4 10.9619C16.1878 11.1176 16.0476 11.3495 16.0101 11.6064C15.9725 11.8634 16.0409 12.1244 16.2 12.3321L18.75 15.6598L16.2 18.9875C16.0409 19.1952 15.9725 19.4562 16.0101 19.7132C16.0476 19.9701 16.1878 20.202 16.4 20.3577C16.6122 20.5135 16.8789 20.5804 17.1414 20.5436C17.404 20.5069 17.6409 20.3696 17.8 20.162L20 17.2943L22.2 20.162C22.3591 20.3696 22.596 20.5069 22.8586 20.5436C23.1211 20.5804 23.3878 20.5135 23.6 20.3577C23.8122 20.202 23.9524 19.9701 23.99 19.7132C24.0275 19.4562 23.9591 19.1952 23.8 18.9875L21.25 15.6598L23.8 12.3321C23.9591 12.1244 24.0275 11.8634 23.99 11.6064C23.9524 11.3495 23.8122 11.1176 23.6 10.9619C23.3878 10.8061 23.1211 10.7392 22.8586 10.776C22.596 10.8127 22.3591 10.9499 22.2 11.1576Z" fill="white"/>
<path d="M13 22.5107H7C6.73478 22.5107 6.48043 22.6139 6.29289 22.7974C6.10536 22.981 6 23.2299 6 23.4895C6 23.7491 6.10536 23.998 6.29289 24.1816C6.48043 24.3651 6.73478 24.4682 7 24.4682H13C13.2652 24.4682 13.5196 24.3651 13.7071 24.1816C13.8946 23.998 14 23.7491 14 23.4895C14 23.2299 13.8946 22.981 13.7071 22.7974C13.5196 22.6139 13.2652 22.5107 13 22.5107Z" fill="white"/>
<path d="M7 32.2983H11C11.2652 32.2983 11.5196 32.1952 11.7071 32.0116C11.8946 31.8281 12 31.5791 12 31.3196C12 31.06 11.8946 30.811 11.7071 30.6275C11.5196 30.4439 11.2652 30.3408 11 30.3408H7C6.73478 30.3408 6.48043 30.4439 6.29289 30.6275C6.10536 30.811 6 31.06 6 31.3196C6 31.5791 6.10536 31.8281 6.29289 32.0116C6.48043 32.1952 6.73478 32.2983 7 32.2983Z" fill="white"/>
</svg>
