<svg width="78" height="78" viewBox="0 0 78 78" fill="none" xmlns="http://www.w3.org/2000/svg">
<path d="M65.3083 77.9124H12.6917C9.32592 77.9116 6.09823 76.5742 3.71825 74.1942C1.33828 71.8142 0.00084398 68.5865 0 65.2207V12.6901C0.00126592 9.3246 1.33888 6.09732 3.71881 3.71768C6.09874 1.33805 9.3262 0.000843779 12.6917 0H65.2223C68.5881 0.00084398 71.8158 1.33827 74.1958 3.71825C76.5758 6.09822 77.9132 9.32592 77.914 12.6917V65.2223C77.9233 66.8843 77.6041 68.5317 76.9749 70.07C76.3457 71.6083 75.4189 73.0072 74.2476 74.1863C73.0763 75.3654 71.6837 76.3016 70.1496 76.941C68.6155 77.5805 66.9703 77.9106 65.3083 77.9124Z" fill="#2563EB"/>
<path d="M52.4413 55.3496H38.9568C35.5683 55.347 32.3194 53.9999 29.9233 51.6038C27.5273 49.2078 26.1801 45.9588 26.1776 42.5703C26.1751 40.6127 26.628 38.6813 27.5004 36.9288L33.9282 24.062C35.1514 21.555 37.1481 19.5077 39.6237 18.2222C42.0993 16.9367 44.9226 16.4811 47.6769 16.9226C47.7874 16.9455 47.9015 16.945 48.0118 16.9212C48.1222 16.8974 48.2263 16.8508 48.3176 16.7844C48.4088 16.718 48.4852 16.6333 48.5418 16.5357C48.5984 16.438 48.6341 16.3296 48.6464 16.2175C48.6872 16.0421 48.6655 15.858 48.585 15.697C48.5045 15.5359 48.3702 15.4081 48.2054 15.3356C46.2561 14.148 44.0918 13.3565 41.8364 13.0061C39.5809 12.6557 37.2785 12.7535 35.0608 13.2937C32.8431 13.8339 30.7537 14.806 28.912 16.1545C27.0704 17.5029 25.5126 19.2012 24.3279 21.1522C24.0588 21.5741 23.823 22.0164 23.6227 22.475L15.1605 39.5729C13.8762 42.1437 13.2699 44.9998 13.3988 47.8706C13.5278 50.7414 14.3878 53.5317 15.8974 55.977C17.4069 58.4223 19.516 60.4415 22.0246 61.8433C24.5332 63.2451 27.3583 63.9829 30.232 63.9869H48.0351C51.9405 63.9892 55.7259 62.6379 58.747 60.163C61.7681 57.6882 63.8381 54.2427 64.6045 50.4133C64.6327 50.1923 64.5754 49.9688 64.4443 49.7886C64.3133 49.6084 64.1183 49.4851 63.8993 49.4439C63.734 49.4063 63.5612 49.4199 63.4037 49.4827C63.2462 49.5455 63.1115 49.6546 63.0175 49.7957C61.8393 51.5118 60.2602 52.9146 58.4172 53.8824C56.5742 54.8503 54.5229 55.3539 52.4413 55.3496Z" fill="#FCFDFF" stroke="#FCFDFF" stroke-width="0.815" stroke-miterlimit="10"/>
<path d="M38.867 28.1148L34.5483 36.9288C33.8926 38.2564 33.5876 39.7297 33.6625 41.2085C33.7373 42.6873 34.1894 44.1223 34.9758 45.3769C35.7622 46.6315 36.8567 47.6639 38.155 48.3758C39.4533 49.0877 40.9123 49.4554 42.3929 49.4438H51.5587C53.0416 49.4363 54.4983 49.053 55.7928 48.3296C57.0873 47.6062 58.1773 46.5665 58.9608 45.3075C59.7444 44.0486 60.1959 42.6115 60.2733 41.1306C60.3507 39.6498 60.0514 38.1735 59.4033 36.8397L54.9971 28.0257C53.9413 25.9022 52.0874 24.2834 49.841 23.5235C47.5945 22.7637 45.1386 22.9247 43.0106 23.9713C41.2607 24.9267 39.8224 26.365 38.867 28.1148Z" fill="#FCFDFF" stroke="#FCFDFF" stroke-width="0.815" stroke-miterlimit="10"/>
</svg>
