<svg width="531" height="328" viewBox="0 0 531 328" fill="none" xmlns="http://www.w3.org/2000/svg">
<rect width="531" height="328" rx="12" fill="white"/>
<rect x="32" y="32" width="466" height="48" rx="24" fill="#EDF3FE"/>
<rect x="32" y="104" width="466" height="48" rx="24" fill="#EDF3FE"/>
<rect x="32" y="176" width="466" height="48" rx="24" fill="#EDF3FE"/>
<rect x="32" y="248" width="466" height="48" rx="24" fill="#EDF3FE"/>
<rect x="32" y="32" width="328" height="48" rx="24" fill="#CFE0FE"/>
<rect x="32" y="104" width="90" height="48" rx="24" fill="#CFE0FE"/>
<rect x="32" y="176" width="78" height="48" rx="24" fill="#CFE0FE"/>
<rect x="32" y="248" width="99" height="48" rx="24" fill="#CFE0FE"/>
<path d="M57.53 49.526C57.986 49.418 58.478 49.346 59.006 49.31C59.534 49.274 60.056 49.256 60.572 49.256C61.124 49.256 61.682 49.31 62.246 49.418C62.822 49.526 63.344 49.724 63.812 50.012C64.28 50.3 64.658 50.696 64.946 51.2C65.246 51.704 65.396 52.346 65.396 53.126C65.396 53.894 65.258 54.542 64.982 55.07C64.706 55.598 64.34 56.03 63.884 56.366C63.428 56.69 62.906 56.924 62.318 57.068C61.73 57.212 61.124 57.284 60.5 57.284C60.44 57.284 60.338 57.284 60.194 57.284C60.062 57.284 59.918 57.284 59.762 57.284C59.618 57.272 59.474 57.26 59.33 57.248C59.186 57.236 59.084 57.224 59.024 57.212V62H57.53V49.526ZM60.608 50.552C60.296 50.552 59.996 50.558 59.708 50.57C59.42 50.582 59.192 50.612 59.024 50.66V55.88C59.084 55.904 59.18 55.922 59.312 55.934C59.444 55.934 59.582 55.94 59.726 55.952C59.87 55.952 60.008 55.952 60.14 55.952C60.272 55.952 60.368 55.952 60.428 55.952C60.836 55.952 61.238 55.916 61.634 55.844C62.042 55.76 62.408 55.616 62.732 55.412C63.056 55.208 63.314 54.92 63.506 54.548C63.71 54.176 63.812 53.702 63.812 53.126C63.812 52.634 63.716 52.226 63.524 51.902C63.344 51.566 63.098 51.302 62.786 51.11C62.486 50.906 62.144 50.762 61.76 50.678C61.376 50.594 60.992 50.552 60.608 50.552ZM67.6639 53.666C68.1199 53.39 68.6479 53.186 69.2479 53.054C69.8599 52.922 70.4959 52.856 71.1559 52.856C71.7799 52.856 72.2779 52.94 72.6499 53.108C73.0339 53.276 73.3219 53.498 73.5139 53.774C73.7179 54.038 73.8499 54.332 73.9099 54.656C73.9819 54.98 74.0179 55.304 74.0179 55.628C74.0179 56.348 73.9999 57.05 73.9639 57.734C73.9279 58.418 73.9099 59.066 73.9099 59.678C73.9099 60.122 73.9279 60.542 73.9639 60.938C73.9999 61.334 74.0659 61.7 74.1619 62.036H73.0999L72.7219 60.776H72.6319C72.5239 60.944 72.3859 61.112 72.2179 61.28C72.0619 61.436 71.8699 61.58 71.6419 61.712C71.4139 61.832 71.1499 61.934 70.8499 62.018C70.5499 62.102 70.2079 62.144 69.8239 62.144C69.4399 62.144 69.0799 62.084 68.7439 61.964C68.4199 61.844 68.1379 61.676 67.8979 61.46C67.6579 61.232 67.4659 60.962 67.3219 60.65C67.1899 60.338 67.1239 59.984 67.1239 59.588C67.1239 59.06 67.2319 58.622 67.4479 58.274C67.6639 57.914 67.9639 57.632 68.3479 57.428C68.7439 57.212 69.2119 57.062 69.7519 56.978C70.3039 56.882 70.9099 56.834 71.5699 56.834C71.7379 56.834 71.8999 56.834 72.0559 56.834C72.2239 56.834 72.3919 56.846 72.5599 56.87C72.5959 56.51 72.6139 56.186 72.6139 55.898C72.6139 55.238 72.4819 54.776 72.2179 54.512C71.9539 54.248 71.4739 54.116 70.7779 54.116C70.5739 54.116 70.3519 54.134 70.1119 54.17C69.8839 54.194 69.6439 54.236 69.3919 54.296C69.1519 54.344 68.9179 54.41 68.6899 54.494C68.4739 54.566 68.2819 54.65 68.1139 54.746L67.6639 53.666ZM70.2199 60.884C70.5559 60.884 70.8559 60.842 71.1199 60.758C71.3839 60.662 71.6119 60.548 71.8039 60.416C71.9959 60.272 72.1519 60.116 72.2719 59.948C72.4039 59.78 72.4999 59.618 72.5599 59.462V57.968C72.3919 57.956 72.2179 57.95 72.0379 57.95C71.8699 57.938 71.7019 57.932 71.5339 57.932C71.1619 57.932 70.7959 57.956 70.4359 58.004C70.0879 58.04 69.7759 58.118 69.4999 58.238C69.2359 58.346 69.0199 58.502 68.8519 58.706C68.6959 58.898 68.6179 59.144 68.6179 59.444C68.6179 59.864 68.7679 60.212 69.0679 60.488C69.3679 60.752 69.7519 60.884 70.2199 60.884ZM77.7376 53H78.7276L78.9976 54.08H79.0696C79.3456 53.66 79.6996 53.342 80.1316 53.126C80.5756 52.898 81.0796 52.784 81.6436 52.784C82.8436 52.784 83.7376 53.138 84.3256 53.846C84.9136 54.554 85.2076 55.712 85.2076 57.32C85.2076 58.076 85.1056 58.76 84.9016 59.372C84.7096 59.972 84.4336 60.482 84.0736 60.902C83.7136 61.322 83.2756 61.646 82.7596 61.874C82.2556 62.102 81.6916 62.216 81.0676 62.216C80.6236 62.216 80.2696 62.186 80.0056 62.126C79.7536 62.078 79.4776 61.988 79.1776 61.856V65.6H77.7376V53ZM81.3736 54.044C80.7616 54.044 80.2756 54.206 79.9156 54.53C79.5676 54.842 79.3216 55.322 79.1776 55.97V60.434C79.3936 60.602 79.6396 60.734 79.9156 60.83C80.1916 60.914 80.5576 60.956 81.0136 60.956C81.8416 60.956 82.4956 60.65 82.9756 60.038C83.4676 59.414 83.7136 58.502 83.7136 57.302C83.7136 56.81 83.6716 56.366 83.5876 55.97C83.5036 55.562 83.3656 55.22 83.1736 54.944C82.9936 54.656 82.7536 54.434 82.4536 54.278C82.1656 54.122 81.8056 54.044 81.3736 54.044ZM95.0458 61.28C94.6858 61.568 94.2298 61.796 93.6778 61.964C93.1378 62.132 92.5618 62.216 91.9498 62.216C91.2658 62.216 90.6718 62.108 90.1678 61.892C89.6638 61.664 89.2498 61.346 88.9258 60.938C88.6018 60.518 88.3618 60.02 88.2058 59.444C88.0498 58.868 87.9718 58.22 87.9718 57.5C87.9718 55.964 88.3138 54.794 88.9978 53.99C89.6818 53.186 90.6598 52.784 91.9318 52.784C92.3398 52.784 92.7478 52.832 93.1558 52.928C93.5638 53.012 93.9298 53.18 94.2538 53.432C94.5778 53.684 94.8418 54.044 95.0458 54.512C95.2498 54.968 95.3518 55.574 95.3518 56.33C95.3518 56.726 95.3158 57.164 95.2438 57.644H89.4658C89.4658 58.172 89.5198 58.64 89.6278 59.048C89.7358 59.456 89.9038 59.804 90.1318 60.092C90.3598 60.368 90.6538 60.584 91.0138 60.74C91.3858 60.884 91.8358 60.956 92.3638 60.956C92.7718 60.956 93.1798 60.884 93.5878 60.74C93.9958 60.596 94.3018 60.428 94.5058 60.236L95.0458 61.28ZM91.9498 54.044C91.2418 54.044 90.6718 54.23 90.2398 54.602C89.8198 54.974 89.5678 55.61 89.4838 56.51H93.9478C93.9478 55.598 93.7738 54.962 93.4258 54.602C93.0778 54.23 92.5858 54.044 91.9498 54.044ZM102.864 54.386C102.504 54.266 102.162 54.206 101.838 54.206C101.322 54.206 100.914 54.35 100.614 54.638C100.314 54.914 100.128 55.268 100.056 55.7V62H98.6165V53H99.6245L99.8945 54.098H99.9665C100.194 53.69 100.464 53.378 100.776 53.162C101.1 52.934 101.508 52.82 102 52.82C102.348 52.82 102.738 52.88 103.17 53L102.864 54.386ZM115.78 54.386C115.42 54.266 115.078 54.206 114.754 54.206C114.238 54.206 113.83 54.35 113.53 54.638C113.23 54.914 113.044 55.268 112.972 55.7V62H111.532V53H112.54L112.81 54.098H112.882C113.11 53.69 113.38 53.378 113.692 53.162C114.016 52.934 114.424 52.82 114.916 52.82C115.264 52.82 115.654 52.88 116.086 53L115.78 54.386ZM125.22 61.28C124.86 61.568 124.404 61.796 123.852 61.964C123.312 62.132 122.736 62.216 122.124 62.216C121.44 62.216 120.846 62.108 120.342 61.892C119.838 61.664 119.424 61.346 119.1 60.938C118.776 60.518 118.536 60.02 118.38 59.444C118.224 58.868 118.146 58.22 118.146 57.5C118.146 55.964 118.488 54.794 119.172 53.99C119.856 53.186 120.834 52.784 122.106 52.784C122.514 52.784 122.922 52.832 123.33 52.928C123.738 53.012 124.104 53.18 124.428 53.432C124.752 53.684 125.016 54.044 125.22 54.512C125.424 54.968 125.526 55.574 125.526 56.33C125.526 56.726 125.49 57.164 125.418 57.644H119.64C119.64 58.172 119.694 58.64 119.802 59.048C119.91 59.456 120.078 59.804 120.306 60.092C120.534 60.368 120.828 60.584 121.188 60.74C121.56 60.884 122.01 60.956 122.538 60.956C122.946 60.956 123.354 60.884 123.762 60.74C124.17 60.596 124.476 60.428 124.68 60.236L125.22 61.28ZM122.124 54.044C121.416 54.044 120.846 54.23 120.414 54.602C119.994 54.974 119.742 55.61 119.658 56.51H124.122C124.122 55.598 123.948 54.962 123.6 54.602C123.252 54.23 122.76 54.044 122.124 54.044ZM134.735 61.406C134.375 61.67 133.949 61.868 133.457 62C132.965 62.144 132.449 62.216 131.909 62.216C131.213 62.216 130.625 62.108 130.145 61.892C129.665 61.664 129.269 61.346 128.957 60.938C128.657 60.518 128.435 60.02 128.291 59.444C128.159 58.856 128.093 58.208 128.093 57.5C128.093 55.976 128.429 54.812 129.101 54.008C129.773 53.192 130.739 52.784 131.999 52.784C132.575 52.784 133.061 52.832 133.457 52.928C133.865 53.012 134.231 53.138 134.555 53.306L134.141 54.548C133.865 54.392 133.559 54.272 133.223 54.188C132.887 54.092 132.527 54.044 132.143 54.044C130.439 54.044 129.587 55.196 129.587 57.5C129.587 57.956 129.629 58.394 129.713 58.814C129.809 59.222 129.959 59.588 130.163 59.912C130.379 60.224 130.655 60.476 130.991 60.668C131.339 60.86 131.765 60.956 132.269 60.956C132.701 60.956 133.085 60.89 133.421 60.758C133.769 60.626 134.051 60.476 134.267 60.308L134.735 61.406ZM136.792 57.5C136.792 55.976 137.128 54.812 137.8 54.008C138.484 53.192 139.462 52.784 140.734 52.784C141.406 52.784 141.988 52.898 142.48 53.126C142.984 53.342 143.398 53.66 143.722 54.08C144.046 54.488 144.286 54.986 144.442 55.574C144.598 56.15 144.676 56.792 144.676 57.5C144.676 59.024 144.334 60.194 143.65 61.01C142.978 61.814 142.006 62.216 140.734 62.216C140.062 62.216 139.474 62.108 138.97 61.892C138.478 61.664 138.07 61.346 137.746 60.938C137.422 60.518 137.182 60.02 137.026 59.444C136.87 58.856 136.792 58.208 136.792 57.5ZM138.286 57.5C138.286 57.956 138.328 58.394 138.412 58.814C138.508 59.234 138.652 59.6 138.844 59.912C139.036 60.224 139.288 60.476 139.6 60.668C139.912 60.86 140.29 60.956 140.734 60.956C142.366 60.968 143.182 59.816 143.182 57.5C143.182 57.032 143.134 56.588 143.038 56.168C142.954 55.748 142.816 55.382 142.624 55.07C142.432 54.758 142.18 54.512 141.868 54.332C141.556 54.14 141.178 54.044 140.734 54.044C139.102 54.032 138.286 55.184 138.286 57.5ZM152.195 54.386C151.835 54.266 151.493 54.206 151.169 54.206C150.653 54.206 150.245 54.35 149.945 54.638C149.645 54.914 149.459 55.268 149.387 55.7V62H147.947V53H148.955L149.225 54.098H149.297C149.525 53.69 149.795 53.378 150.107 53.162C150.431 52.934 150.839 52.82 151.331 52.82C151.679 52.82 152.069 52.88 152.501 53L152.195 54.386ZM161.976 58.904C161.976 59.516 161.982 60.074 161.994 60.578C162.006 61.07 162.06 61.556 162.156 62.036H161.184L160.824 60.758H160.752C160.512 61.178 160.164 61.526 159.708 61.802C159.252 62.078 158.718 62.216 158.106 62.216C156.906 62.216 156.012 61.838 155.424 61.082C154.848 60.326 154.56 59.144 154.56 57.536C154.56 56 154.92 54.836 155.64 54.044C156.372 53.24 157.374 52.838 158.646 52.838C159.09 52.838 159.438 52.862 159.69 52.91C159.954 52.958 160.236 53.036 160.536 53.144V49.4H161.976V58.904ZM158.34 60.956C158.952 60.956 159.438 60.8 159.798 60.488C160.158 60.164 160.404 59.678 160.536 59.03V54.566C160.32 54.398 160.074 54.278 159.798 54.206C159.522 54.134 159.156 54.098 158.7 54.098C157.872 54.098 157.224 54.374 156.756 54.926C156.288 55.466 156.054 56.336 156.054 57.536C156.054 58.028 156.09 58.484 156.162 58.904C156.246 59.324 156.378 59.684 156.558 59.984C156.738 60.284 156.972 60.524 157.26 60.704C157.56 60.872 157.92 60.956 158.34 60.956ZM169.709 59.552C169.709 59.192 169.601 58.91 169.385 58.706C169.169 58.502 168.899 58.334 168.575 58.202C168.263 58.058 167.915 57.926 167.531 57.806C167.159 57.674 166.811 57.512 166.487 57.32C166.175 57.116 165.911 56.858 165.695 56.546C165.479 56.234 165.371 55.814 165.371 55.286C165.371 54.422 165.617 53.792 166.109 53.396C166.601 52.988 167.285 52.784 168.161 52.784C168.809 52.784 169.349 52.844 169.781 52.964C170.225 53.072 170.609 53.204 170.933 53.36L170.591 54.548C170.315 54.416 169.979 54.302 169.583 54.206C169.199 54.098 168.785 54.044 168.341 54.044C167.813 54.044 167.423 54.134 167.171 54.314C166.931 54.494 166.811 54.806 166.811 55.25C166.811 55.562 166.919 55.808 167.135 55.988C167.351 56.156 167.615 56.312 167.927 56.456C168.251 56.588 168.599 56.72 168.971 56.852C169.355 56.984 169.703 57.158 170.015 57.374C170.339 57.59 170.609 57.866 170.825 58.202C171.041 58.526 171.149 58.958 171.149 59.498C171.149 59.882 171.083 60.242 170.951 60.578C170.831 60.914 170.639 61.202 170.375 61.442C170.111 61.682 169.781 61.868 169.385 62C169.001 62.144 168.545 62.216 168.017 62.216C167.333 62.216 166.751 62.15 166.271 62.018C165.791 61.886 165.389 61.73 165.065 61.55L165.497 60.326C165.773 60.482 166.133 60.626 166.577 60.758C167.021 60.89 167.471 60.956 167.927 60.956C168.443 60.956 168.869 60.854 169.205 60.65C169.541 60.446 169.709 60.08 169.709 59.552Z" fill="#2D2D2D"/>
<path d="M65.126 124.28C65.126 124.58 65.078 124.886 64.982 125.198C64.886 125.51 64.742 125.804 64.55 126.08C64.358 126.344 64.112 126.578 63.812 126.782C63.512 126.986 63.158 127.142 62.75 127.25V127.322C63.11 127.382 63.452 127.484 63.776 127.628C64.112 127.772 64.406 127.97 64.658 128.222C64.91 128.474 65.114 128.78 65.27 129.14C65.426 129.5 65.504 129.926 65.504 130.418C65.504 131.066 65.366 131.63 65.09 132.11C64.826 132.578 64.472 132.962 64.028 133.262C63.596 133.562 63.098 133.784 62.534 133.928C61.97 134.072 61.394 134.144 60.806 134.144C60.602 134.144 60.362 134.144 60.086 134.144C59.81 134.144 59.522 134.132 59.222 134.108C58.922 134.096 58.622 134.072 58.322 134.036C58.022 134.012 57.758 133.97 57.53 133.91V121.508C57.974 121.436 58.49 121.376 59.078 121.328C59.666 121.28 60.308 121.256 61.004 121.256C61.472 121.256 61.946 121.298 62.426 121.382C62.918 121.454 63.362 121.604 63.758 121.832C64.154 122.048 64.478 122.354 64.73 122.75C64.994 123.146 65.126 123.656 65.126 124.28ZM60.95 132.848C61.334 132.848 61.706 132.806 62.066 132.722C62.426 132.626 62.744 132.482 63.02 132.29C63.296 132.086 63.512 131.84 63.668 131.552C63.836 131.264 63.92 130.922 63.92 130.526C63.92 130.034 63.818 129.638 63.614 129.338C63.422 129.038 63.164 128.804 62.84 128.636C62.528 128.468 62.174 128.354 61.778 128.294C61.382 128.234 60.986 128.204 60.59 128.204H59.024V132.722C59.108 132.746 59.228 132.764 59.384 132.776C59.54 132.788 59.708 132.8 59.888 132.812C60.068 132.824 60.254 132.836 60.446 132.848C60.638 132.848 60.806 132.848 60.95 132.848ZM59.96 126.944C60.164 126.944 60.41 126.938 60.698 126.926C60.986 126.914 61.226 126.896 61.418 126.872C61.706 126.776 61.976 126.662 62.228 126.53C62.48 126.386 62.702 126.224 62.894 126.044C63.098 125.852 63.254 125.636 63.362 125.396C63.482 125.144 63.542 124.874 63.542 124.586C63.542 124.19 63.464 123.866 63.308 123.614C63.164 123.35 62.966 123.14 62.714 122.984C62.462 122.828 62.174 122.72 61.85 122.66C61.526 122.588 61.196 122.552 60.86 122.552C60.464 122.552 60.098 122.564 59.762 122.588C59.438 122.6 59.192 122.624 59.024 122.66V126.944H59.96ZM68.7537 125.666C69.2097 125.39 69.7377 125.186 70.3377 125.054C70.9497 124.922 71.5857 124.856 72.2457 124.856C72.8697 124.856 73.3677 124.94 73.7397 125.108C74.1237 125.276 74.4117 125.498 74.6037 125.774C74.8077 126.038 74.9397 126.332 74.9997 126.656C75.0717 126.98 75.1077 127.304 75.1077 127.628C75.1077 128.348 75.0897 129.05 75.0537 129.734C75.0177 130.418 74.9997 131.066 74.9997 131.678C74.9997 132.122 75.0177 132.542 75.0537 132.938C75.0897 133.334 75.1557 133.7 75.2517 134.036H74.1897L73.8117 132.776H73.7217C73.6137 132.944 73.4757 133.112 73.3077 133.28C73.1517 133.436 72.9597 133.58 72.7317 133.712C72.5037 133.832 72.2397 133.934 71.9397 134.018C71.6397 134.102 71.2977 134.144 70.9137 134.144C70.5297 134.144 70.1697 134.084 69.8337 133.964C69.5097 133.844 69.2277 133.676 68.9877 133.46C68.7477 133.232 68.5557 132.962 68.4117 132.65C68.2797 132.338 68.2137 131.984 68.2137 131.588C68.2137 131.06 68.3217 130.622 68.5377 130.274C68.7537 129.914 69.0537 129.632 69.4377 129.428C69.8337 129.212 70.3017 129.062 70.8417 128.978C71.3937 128.882 71.9997 128.834 72.6597 128.834C72.8277 128.834 72.9897 128.834 73.1457 128.834C73.3137 128.834 73.4817 128.846 73.6497 128.87C73.6857 128.51 73.7037 128.186 73.7037 127.898C73.7037 127.238 73.5717 126.776 73.3077 126.512C73.0437 126.248 72.5637 126.116 71.8677 126.116C71.6637 126.116 71.4417 126.134 71.2017 126.17C70.9737 126.194 70.7337 126.236 70.4817 126.296C70.2417 126.344 70.0077 126.41 69.7797 126.494C69.5637 126.566 69.3717 126.65 69.2037 126.746L68.7537 125.666ZM71.3097 132.884C71.6457 132.884 71.9457 132.842 72.2097 132.758C72.4737 132.662 72.7017 132.548 72.8937 132.416C73.0857 132.272 73.2417 132.116 73.3617 131.948C73.4937 131.78 73.5897 131.618 73.6497 131.462V129.968C73.4817 129.956 73.3077 129.95 73.1277 129.95C72.9597 129.938 72.7917 129.932 72.6237 129.932C72.2517 129.932 71.8857 129.956 71.5257 130.004C71.1777 130.04 70.8657 130.118 70.5897 130.238C70.3257 130.346 70.1097 130.502 69.9417 130.706C69.7857 130.898 69.7077 131.144 69.7077 131.444C69.7077 131.864 69.8577 132.212 70.1577 132.488C70.4577 132.752 70.8417 132.884 71.3097 132.884ZM82.7874 131.552C82.7874 131.192 82.6794 130.91 82.4634 130.706C82.2474 130.502 81.9774 130.334 81.6534 130.202C81.3414 130.058 80.9934 129.926 80.6094 129.806C80.2374 129.674 79.8894 129.512 79.5654 129.32C79.2534 129.116 78.9894 128.858 78.7734 128.546C78.5574 128.234 78.4494 127.814 78.4494 127.286C78.4494 126.422 78.6954 125.792 79.1874 125.396C79.6794 124.988 80.3634 124.784 81.2394 124.784C81.8874 124.784 82.4274 124.844 82.8594 124.964C83.3034 125.072 83.6874 125.204 84.0114 125.36L83.6694 126.548C83.3934 126.416 83.0574 126.302 82.6614 126.206C82.2774 126.098 81.8634 126.044 81.4194 126.044C80.8914 126.044 80.5014 126.134 80.2494 126.314C80.0094 126.494 79.8894 126.806 79.8894 127.25C79.8894 127.562 79.9974 127.808 80.2134 127.988C80.4294 128.156 80.6934 128.312 81.0054 128.456C81.3294 128.588 81.6774 128.72 82.0494 128.852C82.4334 128.984 82.7814 129.158 83.0934 129.374C83.4174 129.59 83.6874 129.866 83.9034 130.202C84.1194 130.526 84.2274 130.958 84.2274 131.498C84.2274 131.882 84.1614 132.242 84.0294 132.578C83.9094 132.914 83.7174 133.202 83.4534 133.442C83.1894 133.682 82.8594 133.868 82.4634 134C82.0794 134.144 81.6234 134.216 81.0954 134.216C80.4114 134.216 79.8294 134.15 79.3494 134.018C78.8694 133.886 78.4674 133.73 78.1434 133.55L78.5754 132.326C78.8514 132.482 79.2114 132.626 79.6554 132.758C80.0994 132.89 80.5494 132.956 81.0054 132.956C81.5214 132.956 81.9474 132.854 82.2834 132.65C82.6194 132.446 82.7874 132.08 82.7874 131.552ZM87.7096 125H89.1496V134H87.7096V125ZM87.4036 122.264C87.4036 121.988 87.4936 121.754 87.6736 121.562C87.8656 121.358 88.1056 121.256 88.3936 121.256C88.6816 121.256 88.9276 121.358 89.1316 121.562C89.3356 121.754 89.4376 121.988 89.4376 122.264C89.4376 122.54 89.3356 122.768 89.1316 122.948C88.9276 123.128 88.6816 123.218 88.3936 123.218C88.1056 123.218 87.8656 123.128 87.6736 122.948C87.4936 122.768 87.4036 122.54 87.4036 122.264ZM99.358 133.406C98.998 133.67 98.572 133.868 98.08 134C97.588 134.144 97.072 134.216 96.532 134.216C95.836 134.216 95.248 134.108 94.768 133.892C94.288 133.664 93.892 133.346 93.58 132.938C93.28 132.518 93.058 132.02 92.914 131.444C92.782 130.856 92.716 130.208 92.716 129.5C92.716 127.976 93.052 126.812 93.724 126.008C94.396 125.192 95.362 124.784 96.622 124.784C97.198 124.784 97.684 124.832 98.08 124.928C98.488 125.012 98.854 125.138 99.178 125.306L98.764 126.548C98.488 126.392 98.182 126.272 97.846 126.188C97.51 126.092 97.15 126.044 96.766 126.044C95.062 126.044 94.21 127.196 94.21 129.5C94.21 129.956 94.252 130.394 94.336 130.814C94.432 131.222 94.582 131.588 94.786 131.912C95.002 132.224 95.278 132.476 95.614 132.668C95.962 132.86 96.388 132.956 96.892 132.956C97.324 132.956 97.708 132.89 98.044 132.758C98.392 132.626 98.674 132.476 98.89 132.308L99.358 133.406ZM114.612 130.904C114.612 131.516 114.618 132.074 114.63 132.578C114.642 133.07 114.696 133.556 114.792 134.036H113.82L113.46 132.758H113.388C113.148 133.178 112.8 133.526 112.344 133.802C111.888 134.078 111.354 134.216 110.742 134.216C109.542 134.216 108.648 133.838 108.06 133.082C107.484 132.326 107.196 131.144 107.196 129.536C107.196 128 107.556 126.836 108.276 126.044C109.008 125.24 110.01 124.838 111.282 124.838C111.726 124.838 112.074 124.862 112.326 124.91C112.59 124.958 112.872 125.036 113.172 125.144V121.4H114.612V130.904ZM110.976 132.956C111.588 132.956 112.074 132.8 112.434 132.488C112.794 132.164 113.04 131.678 113.172 131.03V126.566C112.956 126.398 112.71 126.278 112.434 126.206C112.158 126.134 111.792 126.098 111.336 126.098C110.508 126.098 109.86 126.374 109.392 126.926C108.924 127.466 108.69 128.336 108.69 129.536C108.69 130.028 108.726 130.484 108.798 130.904C108.882 131.324 109.014 131.684 109.194 131.984C109.374 132.284 109.608 132.524 109.896 132.704C110.196 132.872 110.556 132.956 110.976 132.956ZM118.692 125H120.132V134H118.692V125ZM118.386 122.264C118.386 121.988 118.476 121.754 118.656 121.562C118.848 121.358 119.088 121.256 119.376 121.256C119.664 121.256 119.91 121.358 120.114 121.562C120.318 121.754 120.42 121.988 120.42 122.264C120.42 122.54 120.318 122.768 120.114 122.948C119.91 123.128 119.664 123.218 119.376 123.218C119.088 123.218 118.848 123.128 118.656 122.948C118.476 122.768 118.386 122.54 118.386 122.264ZM131.096 134.414C131.096 135.578 130.784 136.436 130.16 136.988C129.548 137.54 128.636 137.816 127.424 137.816C126.704 137.816 126.122 137.768 125.678 137.672C125.246 137.588 124.874 137.474 124.562 137.33L124.94 136.106C125.216 136.214 125.522 136.316 125.858 136.412C126.194 136.508 126.632 136.556 127.172 136.556C127.676 136.556 128.084 136.508 128.396 136.412C128.72 136.328 128.978 136.178 129.17 135.962C129.362 135.758 129.494 135.488 129.566 135.152C129.638 134.828 129.674 134.438 129.674 133.982V133.118H129.602C129.362 133.466 129.056 133.736 128.684 133.928C128.312 134.108 127.826 134.198 127.226 134.198C126.014 134.198 125.12 133.82 124.544 133.064C123.98 132.308 123.698 131.132 123.698 129.536C123.698 128 124.064 126.836 124.796 126.044C125.528 125.24 126.608 124.838 128.036 124.838C128.72 124.838 129.302 124.892 129.782 125C130.274 125.108 130.712 125.234 131.096 125.378V134.414ZM127.478 132.938C128.09 132.938 128.57 132.788 128.918 132.488C129.266 132.176 129.512 131.696 129.656 131.048V126.44C129.176 126.212 128.564 126.098 127.82 126.098C127.004 126.098 126.362 126.374 125.894 126.926C125.426 127.478 125.192 128.342 125.192 129.518C125.192 130.022 125.234 130.484 125.318 130.904C125.402 131.324 125.534 131.684 125.714 131.984C125.894 132.284 126.128 132.518 126.416 132.686C126.704 132.854 127.058 132.938 127.478 132.938ZM135.176 125H136.616V134H135.176V125ZM134.87 122.264C134.87 121.988 134.96 121.754 135.14 121.562C135.332 121.358 135.572 121.256 135.86 121.256C136.148 121.256 136.394 121.358 136.598 121.562C136.802 121.754 136.904 121.988 136.904 122.264C136.904 122.54 136.802 122.768 136.598 122.948C136.394 123.128 136.148 123.218 135.86 123.218C135.572 123.218 135.332 123.128 135.14 122.948C134.96 122.768 134.87 122.54 134.87 122.264ZM139.499 125H140.903V123.218L142.343 122.804V125H144.791V126.26H142.343V131.246C142.343 131.87 142.421 132.314 142.577 132.578C142.733 132.83 142.997 132.956 143.369 132.956C143.681 132.956 143.945 132.926 144.161 132.866C144.377 132.794 144.617 132.704 144.881 132.596L145.205 133.694C144.881 133.85 144.527 133.976 144.143 134.072C143.759 134.168 143.345 134.216 142.901 134.216C142.169 134.216 141.653 134.012 141.353 133.604C141.053 133.184 140.903 132.488 140.903 131.516V126.26H139.499V125ZM147.642 125.666C148.098 125.39 148.626 125.186 149.226 125.054C149.838 124.922 150.474 124.856 151.134 124.856C151.758 124.856 152.256 124.94 152.628 125.108C153.012 125.276 153.3 125.498 153.492 125.774C153.696 126.038 153.828 126.332 153.888 126.656C153.96 126.98 153.996 127.304 153.996 127.628C153.996 128.348 153.978 129.05 153.942 129.734C153.906 130.418 153.888 131.066 153.888 131.678C153.888 132.122 153.906 132.542 153.942 132.938C153.978 133.334 154.044 133.7 154.14 134.036H153.078L152.7 132.776H152.61C152.502 132.944 152.364 133.112 152.196 133.28C152.04 133.436 151.848 133.58 151.62 133.712C151.392 133.832 151.128 133.934 150.828 134.018C150.528 134.102 150.186 134.144 149.802 134.144C149.418 134.144 149.058 134.084 148.722 133.964C148.398 133.844 148.116 133.676 147.876 133.46C147.636 133.232 147.444 132.962 147.3 132.65C147.168 132.338 147.102 131.984 147.102 131.588C147.102 131.06 147.21 130.622 147.426 130.274C147.642 129.914 147.942 129.632 148.326 129.428C148.722 129.212 149.19 129.062 149.73 128.978C150.282 128.882 150.888 128.834 151.548 128.834C151.716 128.834 151.878 128.834 152.034 128.834C152.202 128.834 152.37 128.846 152.538 128.87C152.574 128.51 152.592 128.186 152.592 127.898C152.592 127.238 152.46 126.776 152.196 126.512C151.932 126.248 151.452 126.116 150.756 126.116C150.552 126.116 150.33 126.134 150.09 126.17C149.862 126.194 149.622 126.236 149.37 126.296C149.13 126.344 148.896 126.41 148.668 126.494C148.452 126.566 148.26 126.65 148.092 126.746L147.642 125.666ZM150.198 132.884C150.534 132.884 150.834 132.842 151.098 132.758C151.362 132.662 151.59 132.548 151.782 132.416C151.974 132.272 152.13 132.116 152.25 131.948C152.382 131.78 152.478 131.618 152.538 131.462V129.968C152.37 129.956 152.196 129.95 152.016 129.95C151.848 129.938 151.68 129.932 151.512 129.932C151.14 129.932 150.774 129.956 150.414 130.004C150.066 130.04 149.754 130.118 149.478 130.238C149.214 130.346 148.998 130.502 148.83 130.706C148.674 130.898 148.596 131.144 148.596 131.444C148.596 131.864 148.746 132.212 149.046 132.488C149.346 132.752 149.73 132.884 150.198 132.884ZM159.318 131.786C159.318 132.206 159.39 132.506 159.534 132.686C159.678 132.866 159.882 132.956 160.146 132.956C160.302 132.956 160.47 132.944 160.65 132.92C160.83 132.896 161.034 132.842 161.262 132.758L161.424 133.892C161.232 133.988 160.962 134.066 160.614 134.126C160.278 134.186 159.984 134.216 159.732 134.216C159.192 134.216 158.748 134.066 158.4 133.766C158.052 133.454 157.878 132.932 157.878 132.2V121.4H159.318V131.786ZM174.019 126.386C173.659 126.266 173.317 126.206 172.993 126.206C172.477 126.206 172.069 126.35 171.769 126.638C171.469 126.914 171.283 127.268 171.211 127.7V134H169.771V125H170.779L171.049 126.098H171.121C171.349 125.69 171.619 125.378 171.931 125.162C172.255 124.934 172.663 124.82 173.155 124.82C173.503 124.82 173.893 124.88 174.325 125L174.019 126.386ZM183.458 133.28C183.098 133.568 182.642 133.796 182.09 133.964C181.55 134.132 180.974 134.216 180.362 134.216C179.678 134.216 179.084 134.108 178.58 133.892C178.076 133.664 177.662 133.346 177.338 132.938C177.014 132.518 176.774 132.02 176.618 131.444C176.462 130.868 176.384 130.22 176.384 129.5C176.384 127.964 176.726 126.794 177.41 125.99C178.094 125.186 179.072 124.784 180.344 124.784C180.752 124.784 181.16 124.832 181.568 124.928C181.976 125.012 182.342 125.18 182.666 125.432C182.99 125.684 183.254 126.044 183.458 126.512C183.662 126.968 183.764 127.574 183.764 128.33C183.764 128.726 183.728 129.164 183.656 129.644H177.878C177.878 130.172 177.932 130.64 178.04 131.048C178.148 131.456 178.316 131.804 178.544 132.092C178.772 132.368 179.066 132.584 179.426 132.74C179.798 132.884 180.248 132.956 180.776 132.956C181.184 132.956 181.592 132.884 182 132.74C182.408 132.596 182.714 132.428 182.918 132.236L183.458 133.28ZM180.362 126.044C179.654 126.044 179.084 126.23 178.652 126.602C178.232 126.974 177.98 127.61 177.896 128.51H182.36C182.36 127.598 182.186 126.962 181.838 126.602C181.49 126.23 180.998 126.044 180.362 126.044ZM192.973 133.406C192.613 133.67 192.187 133.868 191.695 134C191.203 134.144 190.687 134.216 190.147 134.216C189.451 134.216 188.863 134.108 188.383 133.892C187.903 133.664 187.507 133.346 187.195 132.938C186.895 132.518 186.673 132.02 186.529 131.444C186.397 130.856 186.331 130.208 186.331 129.5C186.331 127.976 186.667 126.812 187.339 126.008C188.011 125.192 188.977 124.784 190.237 124.784C190.813 124.784 191.299 124.832 191.695 124.928C192.103 125.012 192.469 125.138 192.793 125.306L192.379 126.548C192.103 126.392 191.797 126.272 191.461 126.188C191.125 126.092 190.765 126.044 190.381 126.044C188.677 126.044 187.825 127.196 187.825 129.5C187.825 129.956 187.867 130.394 187.951 130.814C188.047 131.222 188.197 131.588 188.401 131.912C188.617 132.224 188.893 132.476 189.229 132.668C189.577 132.86 190.003 132.956 190.507 132.956C190.939 132.956 191.323 132.89 191.659 132.758C192.007 132.626 192.289 132.476 192.505 132.308L192.973 133.406ZM195.03 129.5C195.03 127.976 195.366 126.812 196.038 126.008C196.722 125.192 197.7 124.784 198.972 124.784C199.644 124.784 200.226 124.898 200.718 125.126C201.222 125.342 201.636 125.66 201.96 126.08C202.284 126.488 202.524 126.986 202.68 127.574C202.836 128.15 202.914 128.792 202.914 129.5C202.914 131.024 202.572 132.194 201.888 133.01C201.216 133.814 200.244 134.216 198.972 134.216C198.3 134.216 197.712 134.108 197.208 133.892C196.716 133.664 196.308 133.346 195.984 132.938C195.66 132.518 195.42 132.02 195.264 131.444C195.108 130.856 195.03 130.208 195.03 129.5ZM196.524 129.5C196.524 129.956 196.566 130.394 196.65 130.814C196.746 131.234 196.89 131.6 197.082 131.912C197.274 132.224 197.526 132.476 197.838 132.668C198.15 132.86 198.528 132.956 198.972 132.956C200.604 132.968 201.42 131.816 201.42 129.5C201.42 129.032 201.372 128.588 201.276 128.168C201.192 127.748 201.054 127.382 200.862 127.07C200.67 126.758 200.418 126.512 200.106 126.332C199.794 126.14 199.416 126.044 198.972 126.044C197.34 126.032 196.524 127.184 196.524 129.5ZM210.433 126.386C210.073 126.266 209.731 126.206 209.407 126.206C208.891 126.206 208.483 126.35 208.183 126.638C207.883 126.914 207.697 127.268 207.625 127.7V134H206.185V125H207.193L207.463 126.098H207.535C207.763 125.69 208.033 125.378 208.345 125.162C208.669 124.934 209.077 124.82 209.569 124.82C209.917 124.82 210.307 124.88 210.739 125L210.433 126.386ZM220.214 130.904C220.214 131.516 220.22 132.074 220.232 132.578C220.244 133.07 220.298 133.556 220.394 134.036H219.422L219.062 132.758H218.99C218.75 133.178 218.402 133.526 217.946 133.802C217.49 134.078 216.956 134.216 216.344 134.216C215.144 134.216 214.25 133.838 213.662 133.082C213.086 132.326 212.798 131.144 212.798 129.536C212.798 128 213.158 126.836 213.878 126.044C214.61 125.24 215.612 124.838 216.884 124.838C217.328 124.838 217.676 124.862 217.928 124.91C218.192 124.958 218.474 125.036 218.774 125.144V121.4H220.214V130.904ZM216.578 132.956C217.19 132.956 217.676 132.8 218.036 132.488C218.396 132.164 218.642 131.678 218.774 131.03V126.566C218.558 126.398 218.312 126.278 218.036 126.206C217.76 126.134 217.394 126.098 216.938 126.098C216.11 126.098 215.462 126.374 214.994 126.926C214.526 127.466 214.292 128.336 214.292 129.536C214.292 130.028 214.328 130.484 214.4 130.904C214.484 131.324 214.616 131.684 214.796 131.984C214.976 132.284 215.21 132.524 215.498 132.704C215.798 132.872 216.158 132.956 216.578 132.956ZM227.948 131.552C227.948 131.192 227.84 130.91 227.624 130.706C227.408 130.502 227.138 130.334 226.814 130.202C226.502 130.058 226.154 129.926 225.77 129.806C225.398 129.674 225.05 129.512 224.726 129.32C224.414 129.116 224.15 128.858 223.934 128.546C223.718 128.234 223.61 127.814 223.61 127.286C223.61 126.422 223.856 125.792 224.348 125.396C224.84 124.988 225.524 124.784 226.4 124.784C227.048 124.784 227.588 124.844 228.02 124.964C228.464 125.072 228.848 125.204 229.172 125.36L228.83 126.548C228.554 126.416 228.218 126.302 227.822 126.206C227.438 126.098 227.024 126.044 226.58 126.044C226.052 126.044 225.662 126.134 225.41 126.314C225.17 126.494 225.05 126.806 225.05 127.25C225.05 127.562 225.158 127.808 225.374 127.988C225.59 128.156 225.854 128.312 226.166 128.456C226.49 128.588 226.838 128.72 227.21 128.852C227.594 128.984 227.942 129.158 228.254 129.374C228.578 129.59 228.848 129.866 229.064 130.202C229.28 130.526 229.388 130.958 229.388 131.498C229.388 131.882 229.322 132.242 229.19 132.578C229.07 132.914 228.878 133.202 228.614 133.442C228.35 133.682 228.02 133.868 227.624 134C227.24 134.144 226.784 134.216 226.256 134.216C225.572 134.216 224.99 134.15 224.51 134.018C224.03 133.886 223.628 133.73 223.304 133.55L223.736 132.326C224.012 132.482 224.372 132.626 224.816 132.758C225.26 132.89 225.71 132.956 226.166 132.956C226.682 132.956 227.108 132.854 227.444 132.65C227.78 132.446 227.948 132.08 227.948 131.552ZM241.063 137.96C240.511 137.384 240.043 136.748 239.659 136.052C239.275 135.368 238.963 134.666 238.723 133.946C238.495 133.214 238.327 132.482 238.219 131.75C238.111 131.006 238.057 130.298 238.057 129.626C238.057 128.966 238.111 128.27 238.219 127.538C238.327 126.806 238.501 126.074 238.741 125.342C238.981 124.598 239.293 123.872 239.677 123.164C240.073 122.456 240.553 121.796 241.117 121.184L241.981 121.814C241.501 122.426 241.099 123.062 240.775 123.722C240.463 124.37 240.211 125.03 240.019 125.702C239.827 126.374 239.689 127.046 239.605 127.718C239.533 128.378 239.497 129.014 239.497 129.626C239.497 130.202 239.539 130.832 239.623 131.516C239.719 132.188 239.863 132.866 240.055 133.55C240.259 134.222 240.517 134.882 240.829 135.53C241.153 136.178 241.537 136.766 241.981 137.294L241.063 137.96ZM250.872 133.28C250.512 133.568 250.056 133.796 249.504 133.964C248.964 134.132 248.388 134.216 247.776 134.216C247.092 134.216 246.498 134.108 245.994 133.892C245.49 133.664 245.076 133.346 244.752 132.938C244.428 132.518 244.188 132.02 244.032 131.444C243.876 130.868 243.798 130.22 243.798 129.5C243.798 127.964 244.14 126.794 244.824 125.99C245.508 125.186 246.486 124.784 247.758 124.784C248.166 124.784 248.574 124.832 248.982 124.928C249.39 125.012 249.756 125.18 250.08 125.432C250.404 125.684 250.668 126.044 250.872 126.512C251.076 126.968 251.178 127.574 251.178 128.33C251.178 128.726 251.142 129.164 251.07 129.644H245.292C245.292 130.172 245.346 130.64 245.454 131.048C245.562 131.456 245.73 131.804 245.958 132.092C246.186 132.368 246.48 132.584 246.84 132.74C247.212 132.884 247.662 132.956 248.19 132.956C248.598 132.956 249.006 132.884 249.414 132.74C249.822 132.596 250.128 132.428 250.332 132.236L250.872 133.28ZM247.776 126.044C247.068 126.044 246.498 126.23 246.066 126.602C245.646 126.974 245.394 127.61 245.31 128.51H249.774C249.774 127.598 249.6 126.962 249.252 126.602C248.904 126.23 248.412 126.044 247.776 126.044ZM253.939 133.172C253.939 132.848 254.029 132.596 254.209 132.416C254.401 132.224 254.653 132.128 254.965 132.128C255.289 132.128 255.547 132.224 255.739 132.416C255.931 132.596 256.027 132.848 256.027 133.172C256.027 133.484 255.931 133.736 255.739 133.928C255.547 134.12 255.289 134.216 254.965 134.216C254.653 134.216 254.401 134.12 254.209 133.928C254.029 133.736 253.939 133.484 253.939 133.172ZM266.186 134.414C266.186 135.578 265.874 136.436 265.25 136.988C264.638 137.54 263.726 137.816 262.514 137.816C261.794 137.816 261.212 137.768 260.768 137.672C260.336 137.588 259.964 137.474 259.652 137.33L260.03 136.106C260.306 136.214 260.612 136.316 260.948 136.412C261.284 136.508 261.722 136.556 262.262 136.556C262.766 136.556 263.174 136.508 263.486 136.412C263.81 136.328 264.068 136.178 264.26 135.962C264.452 135.758 264.584 135.488 264.656 135.152C264.728 134.828 264.764 134.438 264.764 133.982V133.118H264.692C264.452 133.466 264.146 133.736 263.774 133.928C263.402 134.108 262.916 134.198 262.316 134.198C261.104 134.198 260.21 133.82 259.634 133.064C259.07 132.308 258.788 131.132 258.788 129.536C258.788 128 259.154 126.836 259.886 126.044C260.618 125.24 261.698 124.838 263.126 124.838C263.81 124.838 264.392 124.892 264.872 125C265.364 125.108 265.802 125.234 266.186 125.378V134.414ZM262.568 132.938C263.18 132.938 263.66 132.788 264.008 132.488C264.356 132.176 264.602 131.696 264.746 131.048V126.44C264.266 126.212 263.654 126.098 262.91 126.098C262.094 126.098 261.452 126.374 260.984 126.926C260.516 127.478 260.282 128.342 260.282 129.518C260.282 130.022 260.324 130.484 260.408 130.904C260.492 131.324 260.624 131.684 260.804 131.984C260.984 132.284 261.218 132.518 261.506 132.686C261.794 132.854 262.148 132.938 262.568 132.938ZM269.456 133.172C269.456 132.848 269.546 132.596 269.726 132.416C269.918 132.224 270.17 132.128 270.482 132.128C270.806 132.128 271.064 132.224 271.256 132.416C271.448 132.596 271.544 132.848 271.544 133.172C271.544 133.484 271.448 133.736 271.256 133.928C271.064 134.12 270.806 134.216 270.482 134.216C270.17 134.216 269.918 134.12 269.726 133.928C269.546 133.736 269.456 133.484 269.456 133.172ZM275.484 133.226C275.484 132.938 275.58 132.704 275.772 132.524C275.964 132.344 276.21 132.254 276.51 132.254C276.882 132.254 277.182 132.386 277.41 132.65C277.65 132.914 277.77 133.298 277.77 133.802C277.77 134.234 277.71 134.612 277.59 134.936C277.47 135.26 277.314 135.536 277.122 135.764C276.93 136.004 276.72 136.196 276.492 136.34C276.264 136.496 276.036 136.61 275.808 136.682L275.358 135.98C275.79 135.812 276.108 135.548 276.312 135.188C276.528 134.84 276.636 134.486 276.636 134.126C276.528 134.162 276.426 134.18 276.33 134.18C276.09 134.18 275.886 134.102 275.718 133.946C275.562 133.778 275.484 133.538 275.484 133.226ZM285.04 121.4H291.898V122.732H286.534V126.854H291.448V128.186H286.534V132.668H291.988V134H285.04V121.4ZM297.904 129.392L294.88 125H296.644L298.354 127.484L298.858 128.51L299.38 127.484L301.126 125H302.746L299.704 129.32L302.926 134H301.216L299.308 131.264L298.768 130.184L298.21 131.264L296.266 134H294.664L297.904 129.392ZM311.508 133.406C311.148 133.67 310.722 133.868 310.23 134C309.738 134.144 309.222 134.216 308.682 134.216C307.986 134.216 307.398 134.108 306.918 133.892C306.438 133.664 306.042 133.346 305.73 132.938C305.43 132.518 305.208 132.02 305.064 131.444C304.932 130.856 304.866 130.208 304.866 129.5C304.866 127.976 305.202 126.812 305.874 126.008C306.546 125.192 307.512 124.784 308.772 124.784C309.348 124.784 309.834 124.832 310.23 124.928C310.638 125.012 311.004 125.138 311.328 125.306L310.914 126.548C310.638 126.392 310.332 126.272 309.996 126.188C309.66 126.092 309.3 126.044 308.916 126.044C307.212 126.044 306.36 127.196 306.36 129.5C306.36 129.956 306.402 130.394 306.486 130.814C306.582 131.222 306.732 131.588 306.936 131.912C307.152 132.224 307.428 132.476 307.764 132.668C308.112 132.86 308.538 132.956 309.042 132.956C309.474 132.956 309.858 132.89 310.194 132.758C310.542 132.626 310.824 132.476 311.04 132.308L311.508 133.406ZM320.64 133.28C320.28 133.568 319.824 133.796 319.272 133.964C318.732 134.132 318.156 134.216 317.544 134.216C316.86 134.216 316.266 134.108 315.762 133.892C315.258 133.664 314.844 133.346 314.52 132.938C314.196 132.518 313.956 132.02 313.8 131.444C313.644 130.868 313.566 130.22 313.566 129.5C313.566 127.964 313.908 126.794 314.592 125.99C315.276 125.186 316.254 124.784 317.526 124.784C317.934 124.784 318.342 124.832 318.75 124.928C319.158 125.012 319.524 125.18 319.848 125.432C320.172 125.684 320.436 126.044 320.64 126.512C320.844 126.968 320.946 127.574 320.946 128.33C320.946 128.726 320.91 129.164 320.838 129.644H315.06C315.06 130.172 315.114 130.64 315.222 131.048C315.33 131.456 315.498 131.804 315.726 132.092C315.954 132.368 316.248 132.584 316.608 132.74C316.98 132.884 317.43 132.956 317.958 132.956C318.366 132.956 318.774 132.884 319.182 132.74C319.59 132.596 319.896 132.428 320.1 132.236L320.64 133.28ZM317.544 126.044C316.836 126.044 316.266 126.23 315.834 126.602C315.414 126.974 315.162 127.61 315.078 128.51H319.542C319.542 127.598 319.368 126.962 319.02 126.602C318.672 126.23 318.18 126.044 317.544 126.044ZM325.812 131.786C325.812 132.206 325.884 132.506 326.028 132.686C326.172 132.866 326.376 132.956 326.64 132.956C326.796 132.956 326.964 132.944 327.144 132.92C327.324 132.896 327.528 132.842 327.756 132.758L327.918 133.892C327.726 133.988 327.456 134.066 327.108 134.126C326.772 134.186 326.478 134.216 326.226 134.216C325.686 134.216 325.242 134.066 324.894 133.766C324.546 133.454 324.372 132.932 324.372 132.2V121.4H325.812V131.786ZM329.962 133.226C329.962 132.938 330.058 132.704 330.25 132.524C330.442 132.344 330.688 132.254 330.988 132.254C331.36 132.254 331.66 132.386 331.888 132.65C332.128 132.914 332.248 133.298 332.248 133.802C332.248 134.234 332.188 134.612 332.068 134.936C331.948 135.26 331.792 135.536 331.6 135.764C331.408 136.004 331.198 136.196 330.97 136.34C330.742 136.496 330.514 136.61 330.286 136.682L329.836 135.98C330.268 135.812 330.586 135.548 330.79 135.188C331.006 134.84 331.114 134.486 331.114 134.126C331.006 134.162 330.904 134.18 330.808 134.18C330.568 134.18 330.364 134.102 330.196 133.946C330.04 133.778 329.962 133.538 329.962 133.226ZM341.65 129.842L341.938 131.93H341.956L342.262 129.806L344.854 121.4H345.574L348.184 129.842L348.49 131.93H348.508L348.832 129.806L350.956 121.4H352.414L348.904 134.198H348.076L345.52 125.756L345.196 123.848H345.106L344.782 125.774L342.226 134.198H341.398L337.798 121.4H339.382L341.65 129.842ZM353.687 129.5C353.687 127.976 354.023 126.812 354.695 126.008C355.379 125.192 356.357 124.784 357.629 124.784C358.301 124.784 358.883 124.898 359.375 125.126C359.879 125.342 360.293 125.66 360.617 126.08C360.941 126.488 361.181 126.986 361.337 127.574C361.493 128.15 361.571 128.792 361.571 129.5C361.571 131.024 361.229 132.194 360.545 133.01C359.873 133.814 358.901 134.216 357.629 134.216C356.957 134.216 356.369 134.108 355.865 133.892C355.373 133.664 354.965 133.346 354.641 132.938C354.317 132.518 354.077 132.02 353.921 131.444C353.765 130.856 353.687 130.208 353.687 129.5ZM355.181 129.5C355.181 129.956 355.223 130.394 355.307 130.814C355.403 131.234 355.547 131.6 355.739 131.912C355.931 132.224 356.183 132.476 356.495 132.668C356.807 132.86 357.185 132.956 357.629 132.956C359.261 132.968 360.077 131.816 360.077 129.5C360.077 129.032 360.029 128.588 359.933 128.168C359.849 127.748 359.711 127.382 359.519 127.07C359.327 126.758 359.075 126.512 358.763 126.332C358.451 126.14 358.073 126.044 357.629 126.044C355.997 126.032 355.181 127.184 355.181 129.5ZM369.089 126.386C368.729 126.266 368.387 126.206 368.063 126.206C367.547 126.206 367.139 126.35 366.839 126.638C366.539 126.914 366.353 127.268 366.281 127.7V134H364.841V125H365.849L366.119 126.098H366.191C366.419 125.69 366.689 125.378 367.001 125.162C367.325 124.934 367.733 124.82 368.225 124.82C368.573 124.82 368.963 124.88 369.395 125L369.089 126.386ZM378.87 130.904C378.87 131.516 378.876 132.074 378.888 132.578C378.9 133.07 378.954 133.556 379.05 134.036H378.078L377.718 132.758H377.646C377.406 133.178 377.058 133.526 376.602 133.802C376.146 134.078 375.612 134.216 375 134.216C373.8 134.216 372.906 133.838 372.318 133.082C371.742 132.326 371.454 131.144 371.454 129.536C371.454 128 371.814 126.836 372.534 126.044C373.266 125.24 374.268 124.838 375.54 124.838C375.984 124.838 376.332 124.862 376.584 124.91C376.848 124.958 377.13 125.036 377.43 125.144V121.4H378.87V130.904ZM375.234 132.956C375.846 132.956 376.332 132.8 376.692 132.488C377.052 132.164 377.298 131.678 377.43 131.03V126.566C377.214 126.398 376.968 126.278 376.692 126.206C376.416 126.134 376.05 126.098 375.594 126.098C374.766 126.098 374.118 126.374 373.65 126.926C373.182 127.466 372.948 128.336 372.948 129.536C372.948 130.028 372.984 130.484 373.056 130.904C373.14 131.324 373.272 131.684 373.452 131.984C373.632 132.284 373.866 132.524 374.154 132.704C374.454 132.872 374.814 132.956 375.234 132.956ZM382.212 121.184C382.764 121.76 383.232 122.396 383.616 123.092C384 123.776 384.306 124.484 384.534 125.216C384.774 125.936 384.948 126.668 385.056 127.412C385.164 128.144 385.218 128.846 385.218 129.518C385.218 130.178 385.164 130.874 385.056 131.606C384.948 132.338 384.774 133.076 384.534 133.82C384.294 134.552 383.976 135.272 383.58 135.98C383.196 136.688 382.722 137.348 382.158 137.96L381.294 137.33C381.774 136.718 382.176 136.082 382.5 135.422C382.824 134.762 383.076 134.096 383.256 133.424C383.448 132.752 383.58 132.086 383.652 131.426C383.736 130.766 383.778 130.13 383.778 129.518C383.778 128.942 383.73 128.318 383.634 127.646C383.538 126.974 383.388 126.296 383.184 125.612C382.992 124.928 382.74 124.262 382.428 123.614C382.116 122.966 381.738 122.378 381.294 121.85L382.212 121.184Z" fill="#2D2D2D"/>
<path d="M57.53 193.4H64.388V194.732H59.024V198.854H63.938V200.186H59.024V204.668H64.478V206H57.53V193.4ZM70.3944 201.392L67.3704 197H69.1344L70.8444 199.484L71.3484 200.51L71.8704 199.484L73.6164 197H75.2364L72.1944 201.32L75.4164 206H73.7064L71.7984 203.264L71.2584 202.184L70.7004 203.264L68.7564 206H67.1544L70.3944 201.392ZM78.6061 197H80.0461V206H78.6061V197ZM78.3001 194.264C78.3001 193.988 78.3901 193.754 78.5701 193.562C78.7621 193.358 79.0021 193.256 79.2901 193.256C79.5781 193.256 79.8241 193.358 80.0281 193.562C80.2321 193.754 80.3341 193.988 80.3341 194.264C80.3341 194.54 80.2321 194.768 80.0281 194.948C79.8241 195.128 79.5781 195.218 79.2901 195.218C79.0021 195.218 78.7621 195.128 78.5701 194.948C78.3901 194.768 78.3001 194.54 78.3001 194.264ZM88.0765 203.552C88.0765 203.192 87.9685 202.91 87.7525 202.706C87.5365 202.502 87.2665 202.334 86.9425 202.202C86.6305 202.058 86.2825 201.926 85.8985 201.806C85.5265 201.674 85.1785 201.512 84.8545 201.32C84.5425 201.116 84.2785 200.858 84.0625 200.546C83.8465 200.234 83.7385 199.814 83.7385 199.286C83.7385 198.422 83.9845 197.792 84.4765 197.396C84.9685 196.988 85.6525 196.784 86.5285 196.784C87.1765 196.784 87.7165 196.844 88.1485 196.964C88.5925 197.072 88.9765 197.204 89.3005 197.36L88.9585 198.548C88.6825 198.416 88.3465 198.302 87.9505 198.206C87.5665 198.098 87.1525 198.044 86.7085 198.044C86.1805 198.044 85.7905 198.134 85.5385 198.314C85.2985 198.494 85.1785 198.806 85.1785 199.25C85.1785 199.562 85.2865 199.808 85.5025 199.988C85.7185 200.156 85.9825 200.312 86.2945 200.456C86.6185 200.588 86.9665 200.72 87.3385 200.852C87.7225 200.984 88.0705 201.158 88.3825 201.374C88.7065 201.59 88.9765 201.866 89.1925 202.202C89.4085 202.526 89.5165 202.958 89.5165 203.498C89.5165 203.882 89.4505 204.242 89.3185 204.578C89.1985 204.914 89.0065 205.202 88.7425 205.442C88.4785 205.682 88.1485 205.868 87.7525 206C87.3685 206.144 86.9125 206.216 86.3845 206.216C85.7005 206.216 85.1185 206.15 84.6385 206.018C84.1585 205.886 83.7565 205.73 83.4325 205.55L83.8645 204.326C84.1405 204.482 84.5005 204.626 84.9445 204.758C85.3885 204.89 85.8385 204.956 86.2945 204.956C86.8105 204.956 87.2365 204.854 87.5725 204.65C87.9085 204.446 88.0765 204.08 88.0765 203.552ZM91.5046 197H92.9086V195.218L94.3486 194.804V197H96.7966V198.26H94.3486V203.246C94.3486 203.87 94.4266 204.314 94.5826 204.578C94.7386 204.83 95.0026 204.956 95.3746 204.956C95.6866 204.956 95.9506 204.926 96.1666 204.866C96.3826 204.794 96.6226 204.704 96.8866 204.596L97.2106 205.694C96.8866 205.85 96.5326 205.976 96.1486 206.072C95.7646 206.168 95.3506 206.216 94.9066 206.216C94.1746 206.216 93.6586 206.012 93.3586 205.604C93.0586 205.184 92.9086 204.488 92.9086 203.516V198.26H91.5046V197ZM100.098 197H101.538V206H100.098V197ZM99.7923 194.264C99.7923 193.988 99.8823 193.754 100.062 193.562C100.254 193.358 100.494 193.256 100.782 193.256C101.07 193.256 101.316 193.358 101.52 193.562C101.724 193.754 101.826 193.988 101.826 194.264C101.826 194.54 101.724 194.768 101.52 194.948C101.316 195.128 101.07 195.218 100.782 195.218C100.494 195.218 100.254 195.128 100.062 194.948C99.8823 194.768 99.7923 194.54 99.7923 194.264ZM111.387 206V200.87C111.387 199.934 111.249 199.232 110.973 198.764C110.709 198.284 110.217 198.044 109.497 198.044C108.861 198.044 108.333 198.218 107.913 198.566C107.505 198.902 107.217 199.328 107.049 199.844V206H105.609V197H106.617L106.887 198.098H106.959C107.247 197.714 107.631 197.402 108.111 197.162C108.603 196.91 109.185 196.784 109.857 196.784C110.349 196.784 110.781 196.844 111.153 196.964C111.525 197.072 111.831 197.27 112.071 197.558C112.323 197.846 112.509 198.236 112.629 198.728C112.761 199.208 112.827 199.82 112.827 200.564V206H111.387ZM123.346 206.414C123.346 207.578 123.034 208.436 122.41 208.988C121.798 209.54 120.886 209.816 119.674 209.816C118.954 209.816 118.372 209.768 117.928 209.672C117.496 209.588 117.124 209.474 116.812 209.33L117.19 208.106C117.466 208.214 117.772 208.316 118.108 208.412C118.444 208.508 118.882 208.556 119.422 208.556C119.926 208.556 120.334 208.508 120.646 208.412C120.97 208.328 121.228 208.178 121.42 207.962C121.612 207.758 121.744 207.488 121.816 207.152C121.888 206.828 121.924 206.438 121.924 205.982V205.118H121.852C121.612 205.466 121.306 205.736 120.934 205.928C120.562 206.108 120.076 206.198 119.476 206.198C118.264 206.198 117.37 205.82 116.794 205.064C116.23 204.308 115.948 203.132 115.948 201.536C115.948 200 116.314 198.836 117.046 198.044C117.778 197.24 118.858 196.838 120.286 196.838C120.97 196.838 121.552 196.892 122.032 197C122.524 197.108 122.962 197.234 123.346 197.378V206.414ZM119.728 204.938C120.34 204.938 120.82 204.788 121.168 204.488C121.516 204.176 121.762 203.696 121.906 203.048V198.44C121.426 198.212 120.814 198.098 120.07 198.098C119.254 198.098 118.612 198.374 118.144 198.926C117.676 199.478 117.442 200.342 117.442 201.518C117.442 202.022 117.484 202.484 117.568 202.904C117.652 203.324 117.784 203.684 117.964 203.984C118.144 204.284 118.378 204.518 118.666 204.686C118.954 204.854 119.308 204.938 119.728 204.938ZM133.063 193.4H139.921V194.732H134.557V198.854H139.471V200.186H134.557V204.668H140.011V206H133.063V193.4ZM151.256 200.222H145.208V206H143.714V193.4H145.208V198.89H151.256V193.4H152.75V206H151.256V200.222ZM156.807 193.526C157.263 193.442 157.785 193.376 158.373 193.328C158.973 193.28 159.519 193.256 160.011 193.256C160.563 193.256 161.085 193.316 161.577 193.436C162.081 193.556 162.519 193.754 162.891 194.03C163.275 194.306 163.581 194.666 163.809 195.11C164.037 195.554 164.151 196.094 164.151 196.73C164.151 197.714 163.881 198.512 163.341 199.124C162.801 199.736 162.117 200.144 161.289 200.348L162.153 201.014L165.285 206H163.539L160.065 200.564L158.301 200.294V206H156.807V193.526ZM160.047 194.552C159.891 194.552 159.729 194.552 159.561 194.552C159.393 194.552 159.231 194.558 159.075 194.57C158.919 194.582 158.769 194.594 158.625 194.606C158.493 194.618 158.385 194.636 158.301 194.66V199.304H159.705C160.533 199.304 161.217 199.1 161.757 198.692C162.297 198.284 162.567 197.648 162.567 196.784C162.567 196.136 162.345 195.602 161.901 195.182C161.457 194.762 160.839 194.552 160.047 194.552ZM178.127 203.552C178.127 203.192 178.019 202.91 177.803 202.706C177.587 202.502 177.317 202.334 176.993 202.202C176.681 202.058 176.333 201.926 175.949 201.806C175.577 201.674 175.229 201.512 174.905 201.32C174.593 201.116 174.329 200.858 174.113 200.546C173.897 200.234 173.789 199.814 173.789 199.286C173.789 198.422 174.035 197.792 174.527 197.396C175.019 196.988 175.703 196.784 176.579 196.784C177.227 196.784 177.767 196.844 178.199 196.964C178.643 197.072 179.027 197.204 179.351 197.36L179.009 198.548C178.733 198.416 178.397 198.302 178.001 198.206C177.617 198.098 177.203 198.044 176.759 198.044C176.231 198.044 175.841 198.134 175.589 198.314C175.349 198.494 175.229 198.806 175.229 199.25C175.229 199.562 175.337 199.808 175.553 199.988C175.769 200.156 176.033 200.312 176.345 200.456C176.669 200.588 177.017 200.72 177.389 200.852C177.773 200.984 178.121 201.158 178.433 201.374C178.757 201.59 179.027 201.866 179.243 202.202C179.459 202.526 179.567 202.958 179.567 203.498C179.567 203.882 179.501 204.242 179.369 204.578C179.249 204.914 179.057 205.202 178.793 205.442C178.529 205.682 178.199 205.868 177.803 206C177.419 206.144 176.963 206.216 176.435 206.216C175.751 206.216 175.169 206.15 174.689 206.018C174.209 205.886 173.807 205.73 173.483 205.55L173.915 204.326C174.191 204.482 174.551 204.626 174.995 204.758C175.439 204.89 175.889 204.956 176.345 204.956C176.861 204.956 177.287 204.854 177.623 204.65C177.959 204.446 178.127 204.08 178.127 203.552ZM185.389 202.832L185.893 204.56H185.983L186.379 202.814L188.125 197H189.583L186.919 205.082C186.715 205.67 186.511 206.24 186.307 206.792C186.115 207.344 185.899 207.836 185.659 208.268C185.419 208.7 185.149 209.042 184.849 209.294C184.549 209.558 184.201 209.69 183.805 209.69C183.373 209.69 183.019 209.63 182.743 209.51L182.995 208.268C183.151 208.328 183.301 208.358 183.445 208.358C183.781 208.358 184.105 208.178 184.417 207.818C184.729 207.47 184.987 206.864 185.191 206L181.573 197H183.229L185.389 202.832ZM196.088 203.552C196.088 203.192 195.98 202.91 195.764 202.706C195.548 202.502 195.278 202.334 194.954 202.202C194.642 202.058 194.294 201.926 193.91 201.806C193.538 201.674 193.19 201.512 192.866 201.32C192.554 201.116 192.29 200.858 192.074 200.546C191.858 200.234 191.75 199.814 191.75 199.286C191.75 198.422 191.996 197.792 192.488 197.396C192.98 196.988 193.664 196.784 194.54 196.784C195.188 196.784 195.728 196.844 196.16 196.964C196.604 197.072 196.988 197.204 197.312 197.36L196.97 198.548C196.694 198.416 196.358 198.302 195.962 198.206C195.578 198.098 195.164 198.044 194.72 198.044C194.192 198.044 193.802 198.134 193.55 198.314C193.31 198.494 193.19 198.806 193.19 199.25C193.19 199.562 193.298 199.808 193.514 199.988C193.73 200.156 193.994 200.312 194.306 200.456C194.63 200.588 194.978 200.72 195.35 200.852C195.734 200.984 196.082 201.158 196.394 201.374C196.718 201.59 196.988 201.866 197.204 202.202C197.42 202.526 197.528 202.958 197.528 203.498C197.528 203.882 197.462 204.242 197.33 204.578C197.21 204.914 197.018 205.202 196.754 205.442C196.49 205.682 196.16 205.868 195.764 206C195.38 206.144 194.924 206.216 194.396 206.216C193.712 206.216 193.13 206.15 192.65 206.018C192.17 205.886 191.768 205.73 191.444 205.55L191.876 204.326C192.152 204.482 192.512 204.626 192.956 204.758C193.4 204.89 193.85 204.956 194.306 204.956C194.822 204.956 195.248 204.854 195.584 204.65C195.92 204.446 196.088 204.08 196.088 203.552ZM199.516 197H200.92V195.218L202.36 194.804V197H204.808V198.26H202.36V203.246C202.36 203.87 202.438 204.314 202.594 204.578C202.75 204.83 203.014 204.956 203.386 204.956C203.698 204.956 203.962 204.926 204.178 204.866C204.394 204.794 204.634 204.704 204.898 204.596L205.222 205.694C204.898 205.85 204.544 205.976 204.16 206.072C203.776 206.168 203.362 206.216 202.918 206.216C202.186 206.216 201.67 206.012 201.37 205.604C201.07 205.184 200.92 204.488 200.92 203.516V198.26H199.516V197ZM214.181 205.28C213.821 205.568 213.365 205.796 212.813 205.964C212.273 206.132 211.697 206.216 211.085 206.216C210.401 206.216 209.807 206.108 209.303 205.892C208.799 205.664 208.385 205.346 208.061 204.938C207.737 204.518 207.497 204.02 207.341 203.444C207.185 202.868 207.107 202.22 207.107 201.5C207.107 199.964 207.449 198.794 208.133 197.99C208.817 197.186 209.795 196.784 211.067 196.784C211.475 196.784 211.883 196.832 212.291 196.928C212.699 197.012 213.065 197.18 213.389 197.432C213.713 197.684 213.977 198.044 214.181 198.512C214.385 198.968 214.487 199.574 214.487 200.33C214.487 200.726 214.451 201.164 214.379 201.644H208.601C208.601 202.172 208.655 202.64 208.763 203.048C208.871 203.456 209.039 203.804 209.267 204.092C209.495 204.368 209.789 204.584 210.149 204.74C210.521 204.884 210.971 204.956 211.499 204.956C211.907 204.956 212.315 204.884 212.723 204.74C213.131 204.596 213.437 204.428 213.641 204.236L214.181 205.28ZM211.085 198.044C210.377 198.044 209.807 198.23 209.375 198.602C208.955 198.974 208.703 199.61 208.619 200.51H213.083C213.083 199.598 212.909 198.962 212.561 198.602C212.213 198.23 211.721 198.044 211.085 198.044ZM223.025 206V200.906C223.025 200.426 223.001 200.012 222.953 199.664C222.917 199.304 222.839 199.004 222.719 198.764C222.599 198.524 222.425 198.344 222.197 198.224C221.981 198.104 221.693 198.044 221.333 198.044C220.781 198.044 220.319 198.212 219.947 198.548C219.587 198.884 219.335 199.304 219.191 199.808V206H217.751V197H218.759L219.029 198.098H219.101C219.425 197.714 219.797 197.402 220.217 197.162C220.649 196.91 221.207 196.784 221.891 196.784C222.467 196.784 222.935 196.898 223.295 197.126C223.667 197.342 223.955 197.726 224.159 198.278C224.435 197.81 224.813 197.444 225.293 197.18C225.785 196.916 226.337 196.784 226.949 196.784C227.453 196.784 227.879 196.844 228.227 196.964C228.575 197.072 228.863 197.27 229.091 197.558C229.319 197.846 229.481 198.236 229.577 198.728C229.685 199.22 229.739 199.844 229.739 200.6V206H228.299V200.582C228.299 200.15 228.275 199.778 228.227 199.466C228.191 199.142 228.107 198.878 227.975 198.674C227.855 198.458 227.681 198.302 227.453 198.206C227.237 198.098 226.949 198.044 226.589 198.044C225.989 198.044 225.521 198.212 225.185 198.548C224.849 198.884 224.609 199.364 224.465 199.988V206H223.025Z" fill="#2D2D2D"/>
<path d="M57.008 271.7C57.008 269.6 57.452 267.992 58.34 266.876C59.228 265.748 60.494 265.184 62.138 265.184C63.026 265.184 63.794 265.34 64.442 265.652C65.09 265.964 65.624 266.408 66.044 266.984C66.476 267.548 66.794 268.232 66.998 269.036C67.202 269.828 67.304 270.716 67.304 271.7C67.304 273.8 66.854 275.414 65.954 276.542C65.066 277.658 63.794 278.216 62.138 278.216C61.262 278.216 60.5 278.06 59.852 277.748C59.216 277.436 58.682 276.998 58.25 276.434C57.83 275.858 57.518 275.174 57.314 274.382C57.11 273.578 57.008 272.684 57.008 271.7ZM58.592 271.7C58.592 272.396 58.658 273.056 58.79 273.68C58.934 274.304 59.15 274.856 59.438 275.336C59.726 275.804 60.092 276.182 60.536 276.47C60.992 276.746 61.526 276.884 62.138 276.884C63.254 276.884 64.13 276.464 64.766 275.624C65.402 274.772 65.72 273.464 65.72 271.7C65.72 271.016 65.648 270.362 65.504 269.738C65.372 269.102 65.156 268.55 64.856 268.082C64.568 267.602 64.196 267.224 63.74 266.948C63.296 266.66 62.762 266.516 62.138 266.516C61.034 266.516 60.164 266.942 59.528 267.794C58.904 268.634 58.592 269.936 58.592 271.7ZM69.5027 269H70.9067V267.218L72.3467 266.804V269H74.7947V270.26H72.3467V275.246C72.3467 275.87 72.4247 276.314 72.5807 276.578C72.7367 276.83 73.0007 276.956 73.3727 276.956C73.6847 276.956 73.9487 276.926 74.1647 276.866C74.3807 276.794 74.6207 276.704 74.8847 276.596L75.2087 277.694C74.8847 277.85 74.5307 277.976 74.1467 278.072C73.7627 278.168 73.3487 278.216 72.9047 278.216C72.1727 278.216 71.6567 278.012 71.3567 277.604C71.0567 277.184 70.9067 276.488 70.9067 275.516V270.26H69.5027V269ZM83.5683 278V272.87C83.5683 272.402 83.5383 271.994 83.4783 271.646C83.4303 271.286 83.3343 270.992 83.1903 270.764C83.0463 270.524 82.8483 270.344 82.5963 270.224C82.3563 270.104 82.0383 270.044 81.6423 270.044C81.0783 270.044 80.5683 270.23 80.1123 270.602C79.6563 270.962 79.3623 271.43 79.2303 272.006V278H77.7903V265.4H79.2303V270.008H79.3023C79.6143 269.636 79.9863 269.342 80.4183 269.126C80.8623 268.898 81.4083 268.784 82.0563 268.784C82.5603 268.784 82.9983 268.844 83.3703 268.964C83.7423 269.072 84.0483 269.27 84.2883 269.558C84.5403 269.846 84.7203 270.236 84.8283 270.728C84.9483 271.208 85.0083 271.82 85.0083 272.564V278H83.5683ZM95.204 277.28C94.844 277.568 94.388 277.796 93.836 277.964C93.296 278.132 92.72 278.216 92.108 278.216C91.424 278.216 90.83 278.108 90.326 277.892C89.822 277.664 89.408 277.346 89.084 276.938C88.76 276.518 88.52 276.02 88.364 275.444C88.208 274.868 88.13 274.22 88.13 273.5C88.13 271.964 88.472 270.794 89.156 269.99C89.84 269.186 90.818 268.784 92.09 268.784C92.498 268.784 92.906 268.832 93.314 268.928C93.722 269.012 94.088 269.18 94.412 269.432C94.736 269.684 95 270.044 95.204 270.512C95.408 270.968 95.51 271.574 95.51 272.33C95.51 272.726 95.474 273.164 95.402 273.644H89.624C89.624 274.172 89.678 274.64 89.786 275.048C89.894 275.456 90.062 275.804 90.29 276.092C90.518 276.368 90.812 276.584 91.172 276.74C91.544 276.884 91.994 276.956 92.522 276.956C92.93 276.956 93.338 276.884 93.746 276.74C94.154 276.596 94.46 276.428 94.664 276.236L95.204 277.28ZM92.108 270.044C91.4 270.044 90.83 270.23 90.398 270.602C89.978 270.974 89.726 271.61 89.642 272.51H94.106C94.106 271.598 93.932 270.962 93.584 270.602C93.236 270.23 92.744 270.044 92.108 270.044ZM103.023 270.386C102.663 270.266 102.321 270.206 101.997 270.206C101.481 270.206 101.073 270.35 100.773 270.638C100.473 270.914 100.287 271.268 100.215 271.7V278H98.7747V269H99.7827L100.053 270.098H100.125C100.353 269.69 100.623 269.378 100.935 269.162C101.259 268.934 101.667 268.82 102.159 268.82C102.507 268.82 102.897 268.88 103.329 269L103.023 270.386Z" fill="#2D2D2D"/>
<path d="M437.98 62L442.498 51.452L443.29 50.57L442.228 50.732H437.098V49.4H444.622V49.886L439.438 62H437.98ZM447.583 55.7C447.583 53.54 447.931 51.914 448.627 50.822C449.335 49.73 450.361 49.184 451.705 49.184C453.157 49.184 454.207 49.724 454.855 50.804C455.515 51.872 455.845 53.504 455.845 55.7C455.845 57.86 455.491 59.486 454.783 60.578C454.087 61.67 453.061 62.216 451.705 62.216C450.277 62.216 449.233 61.646 448.573 60.506C447.913 59.366 447.583 57.764 447.583 55.7ZM449.077 55.7C449.077 56.48 449.125 57.194 449.221 57.842C449.329 58.478 449.491 59.03 449.707 59.498C449.923 59.954 450.193 60.314 450.517 60.578C450.853 60.83 451.249 60.956 451.705 60.956C452.617 60.956 453.283 60.536 453.703 59.696C454.135 58.844 454.351 57.512 454.351 55.7C454.351 54.932 454.303 54.224 454.207 53.576C454.123 52.928 453.973 52.37 453.757 51.902C453.553 51.434 453.283 51.074 452.947 50.822C452.611 50.57 452.197 50.444 451.705 50.444C450.805 50.444 450.139 50.87 449.707 51.722C449.287 52.574 449.077 53.9 449.077 55.7ZM458.877 52.244C458.877 51.704 458.949 51.242 459.093 50.858C459.237 50.474 459.429 50.156 459.669 49.904C459.921 49.652 460.215 49.472 460.551 49.364C460.899 49.244 461.271 49.184 461.667 49.184C462.063 49.184 462.429 49.238 462.765 49.346C463.113 49.454 463.407 49.628 463.647 49.868C463.899 50.108 464.097 50.426 464.241 50.822C464.385 51.206 464.457 51.68 464.457 52.244C464.457 52.808 464.385 53.288 464.241 53.684C464.097 54.068 463.899 54.38 463.647 54.62C463.407 54.86 463.113 55.034 462.765 55.142C462.429 55.25 462.063 55.304 461.667 55.304C461.271 55.304 460.899 55.25 460.551 55.142C460.215 55.034 459.921 54.86 459.669 54.62C459.429 54.38 459.237 54.068 459.093 53.684C458.949 53.288 458.877 52.808 458.877 52.244ZM460.209 52.244C460.209 52.964 460.335 53.48 460.587 53.792C460.851 54.104 461.211 54.26 461.667 54.26C461.895 54.26 462.099 54.23 462.279 54.17C462.459 54.098 462.609 53.99 462.729 53.846C462.861 53.69 462.957 53.486 463.017 53.234C463.089 52.97 463.125 52.64 463.125 52.244C463.125 51.848 463.089 51.524 463.017 51.272C462.957 51.008 462.861 50.804 462.729 50.66C462.609 50.504 462.459 50.396 462.279 50.336C462.099 50.264 461.895 50.228 461.667 50.228C461.211 50.228 460.851 50.372 460.587 50.66C460.335 50.936 460.209 51.464 460.209 52.244ZM465.303 58.904C465.303 58.364 465.375 57.902 465.519 57.518C465.663 57.134 465.855 56.816 466.095 56.564C466.347 56.312 466.641 56.132 466.977 56.024C467.325 55.904 467.697 55.844 468.093 55.844C468.489 55.844 468.855 55.898 469.191 56.006C469.539 56.114 469.833 56.288 470.073 56.528C470.325 56.768 470.523 57.086 470.667 57.482C470.811 57.866 470.883 58.34 470.883 58.904C470.883 59.468 470.811 59.948 470.667 60.344C470.523 60.728 470.325 61.04 470.073 61.28C469.833 61.52 469.539 61.694 469.191 61.802C468.855 61.91 468.489 61.964 468.093 61.964C467.697 61.964 467.325 61.91 466.977 61.802C466.641 61.694 466.347 61.52 466.095 61.28C465.855 61.04 465.663 60.728 465.519 60.344C465.375 59.948 465.303 59.468 465.303 58.904ZM466.635 58.904C466.635 59.624 466.761 60.14 467.013 60.452C467.277 60.764 467.637 60.92 468.093 60.92C468.321 60.92 468.525 60.89 468.705 60.83C468.885 60.758 469.035 60.65 469.155 60.506C469.287 60.35 469.383 60.146 469.443 59.894C469.515 59.63 469.551 59.3 469.551 58.904C469.551 58.508 469.515 58.184 469.443 57.932C469.383 57.668 469.287 57.464 469.155 57.32C469.035 57.164 468.885 57.056 468.705 56.996C468.525 56.924 468.321 56.888 468.093 56.888C467.637 56.888 467.277 57.032 467.013 57.32C466.761 57.596 466.635 58.124 466.635 58.904ZM469.083 49.166L469.965 49.85L460.731 62.216L459.831 61.514L469.083 49.166Z" fill="#2D2D2D"/>
<path d="M439.944 132.668H442.464V123.956L442.644 122.894L441.924 123.74L439.944 125.162L439.26 124.244L443.22 121.184H443.868V132.668H446.334V134H439.944V132.668ZM452.643 132.956C453.471 132.956 454.155 132.716 454.695 132.236C455.235 131.756 455.505 131.06 455.505 130.148C455.505 129.272 455.235 128.618 454.695 128.186C454.167 127.754 453.435 127.538 452.499 127.538L450.987 127.628V121.4H456.603V122.732H452.337V126.314L453.111 126.278C454.299 126.29 455.235 126.62 455.919 127.268C456.603 127.916 456.945 128.846 456.945 130.058C456.945 130.73 456.831 131.33 456.603 131.858C456.375 132.374 456.063 132.806 455.667 133.154C455.283 133.502 454.827 133.766 454.299 133.946C453.771 134.126 453.207 134.216 452.607 134.216C452.067 134.216 451.611 134.186 451.239 134.126C450.867 134.066 450.519 133.976 450.195 133.856L450.573 132.632C450.849 132.74 451.143 132.824 451.455 132.884C451.779 132.932 452.175 132.956 452.643 132.956ZM460.877 124.244C460.877 123.704 460.949 123.242 461.093 122.858C461.237 122.474 461.429 122.156 461.669 121.904C461.921 121.652 462.215 121.472 462.551 121.364C462.899 121.244 463.271 121.184 463.667 121.184C464.063 121.184 464.429 121.238 464.765 121.346C465.113 121.454 465.407 121.628 465.647 121.868C465.899 122.108 466.097 122.426 466.241 122.822C466.385 123.206 466.457 123.68 466.457 124.244C466.457 124.808 466.385 125.288 466.241 125.684C466.097 126.068 465.899 126.38 465.647 126.62C465.407 126.86 465.113 127.034 464.765 127.142C464.429 127.25 464.063 127.304 463.667 127.304C463.271 127.304 462.899 127.25 462.551 127.142C462.215 127.034 461.921 126.86 461.669 126.62C461.429 126.38 461.237 126.068 461.093 125.684C460.949 125.288 460.877 124.808 460.877 124.244ZM462.209 124.244C462.209 124.964 462.335 125.48 462.587 125.792C462.851 126.104 463.211 126.26 463.667 126.26C463.895 126.26 464.099 126.23 464.279 126.17C464.459 126.098 464.609 125.99 464.729 125.846C464.861 125.69 464.957 125.486 465.017 125.234C465.089 124.97 465.125 124.64 465.125 124.244C465.125 123.848 465.089 123.524 465.017 123.272C464.957 123.008 464.861 122.804 464.729 122.66C464.609 122.504 464.459 122.396 464.279 122.336C464.099 122.264 463.895 122.228 463.667 122.228C463.211 122.228 462.851 122.372 462.587 122.66C462.335 122.936 462.209 123.464 462.209 124.244ZM467.303 130.904C467.303 130.364 467.375 129.902 467.519 129.518C467.663 129.134 467.855 128.816 468.095 128.564C468.347 128.312 468.641 128.132 468.977 128.024C469.325 127.904 469.697 127.844 470.093 127.844C470.489 127.844 470.855 127.898 471.191 128.006C471.539 128.114 471.833 128.288 472.073 128.528C472.325 128.768 472.523 129.086 472.667 129.482C472.811 129.866 472.883 130.34 472.883 130.904C472.883 131.468 472.811 131.948 472.667 132.344C472.523 132.728 472.325 133.04 472.073 133.28C471.833 133.52 471.539 133.694 471.191 133.802C470.855 133.91 470.489 133.964 470.093 133.964C469.697 133.964 469.325 133.91 468.977 133.802C468.641 133.694 468.347 133.52 468.095 133.28C467.855 133.04 467.663 132.728 467.519 132.344C467.375 131.948 467.303 131.468 467.303 130.904ZM468.635 130.904C468.635 131.624 468.761 132.14 469.013 132.452C469.277 132.764 469.637 132.92 470.093 132.92C470.321 132.92 470.525 132.89 470.705 132.83C470.885 132.758 471.035 132.65 471.155 132.506C471.287 132.35 471.383 132.146 471.443 131.894C471.515 131.63 471.551 131.3 471.551 130.904C471.551 130.508 471.515 130.184 471.443 129.932C471.383 129.668 471.287 129.464 471.155 129.32C471.035 129.164 470.885 129.056 470.705 128.996C470.525 128.924 470.321 128.888 470.093 128.888C469.637 128.888 469.277 129.032 469.013 129.32C468.761 129.596 468.635 130.124 468.635 130.904ZM471.083 121.166L471.965 121.85L462.731 134.216L461.831 133.514L471.083 121.166Z" fill="#2D2D2D"/>
<path d="M438.944 204.668H441.464V195.956L441.644 194.894L440.924 195.74L438.944 197.162L438.26 196.244L442.22 193.184H442.868V204.668H445.334V206H438.944V204.668ZM448.583 199.7C448.583 197.54 448.931 195.914 449.627 194.822C450.335 193.73 451.361 193.184 452.705 193.184C454.157 193.184 455.207 193.724 455.855 194.804C456.515 195.872 456.845 197.504 456.845 199.7C456.845 201.86 456.491 203.486 455.783 204.578C455.087 205.67 454.061 206.216 452.705 206.216C451.277 206.216 450.233 205.646 449.573 204.506C448.913 203.366 448.583 201.764 448.583 199.7ZM450.077 199.7C450.077 200.48 450.125 201.194 450.221 201.842C450.329 202.478 450.491 203.03 450.707 203.498C450.923 203.954 451.193 204.314 451.517 204.578C451.853 204.83 452.249 204.956 452.705 204.956C453.617 204.956 454.283 204.536 454.703 203.696C455.135 202.844 455.351 201.512 455.351 199.7C455.351 198.932 455.303 198.224 455.207 197.576C455.123 196.928 454.973 196.37 454.757 195.902C454.553 195.434 454.283 195.074 453.947 194.822C453.611 194.57 453.197 194.444 452.705 194.444C451.805 194.444 451.139 194.87 450.707 195.722C450.287 196.574 450.077 197.9 450.077 199.7ZM459.877 196.244C459.877 195.704 459.949 195.242 460.093 194.858C460.237 194.474 460.429 194.156 460.669 193.904C460.921 193.652 461.215 193.472 461.551 193.364C461.899 193.244 462.271 193.184 462.667 193.184C463.063 193.184 463.429 193.238 463.765 193.346C464.113 193.454 464.407 193.628 464.647 193.868C464.899 194.108 465.097 194.426 465.241 194.822C465.385 195.206 465.457 195.68 465.457 196.244C465.457 196.808 465.385 197.288 465.241 197.684C465.097 198.068 464.899 198.38 464.647 198.62C464.407 198.86 464.113 199.034 463.765 199.142C463.429 199.25 463.063 199.304 462.667 199.304C462.271 199.304 461.899 199.25 461.551 199.142C461.215 199.034 460.921 198.86 460.669 198.62C460.429 198.38 460.237 198.068 460.093 197.684C459.949 197.288 459.877 196.808 459.877 196.244ZM461.209 196.244C461.209 196.964 461.335 197.48 461.587 197.792C461.851 198.104 462.211 198.26 462.667 198.26C462.895 198.26 463.099 198.23 463.279 198.17C463.459 198.098 463.609 197.99 463.729 197.846C463.861 197.69 463.957 197.486 464.017 197.234C464.089 196.97 464.125 196.64 464.125 196.244C464.125 195.848 464.089 195.524 464.017 195.272C463.957 195.008 463.861 194.804 463.729 194.66C463.609 194.504 463.459 194.396 463.279 194.336C463.099 194.264 462.895 194.228 462.667 194.228C462.211 194.228 461.851 194.372 461.587 194.66C461.335 194.936 461.209 195.464 461.209 196.244ZM466.303 202.904C466.303 202.364 466.375 201.902 466.519 201.518C466.663 201.134 466.855 200.816 467.095 200.564C467.347 200.312 467.641 200.132 467.977 200.024C468.325 199.904 468.697 199.844 469.093 199.844C469.489 199.844 469.855 199.898 470.191 200.006C470.539 200.114 470.833 200.288 471.073 200.528C471.325 200.768 471.523 201.086 471.667 201.482C471.811 201.866 471.883 202.34 471.883 202.904C471.883 203.468 471.811 203.948 471.667 204.344C471.523 204.728 471.325 205.04 471.073 205.28C470.833 205.52 470.539 205.694 470.191 205.802C469.855 205.91 469.489 205.964 469.093 205.964C468.697 205.964 468.325 205.91 467.977 205.802C467.641 205.694 467.347 205.52 467.095 205.28C466.855 205.04 466.663 204.728 466.519 204.344C466.375 203.948 466.303 203.468 466.303 202.904ZM467.635 202.904C467.635 203.624 467.761 204.14 468.013 204.452C468.277 204.764 468.637 204.92 469.093 204.92C469.321 204.92 469.525 204.89 469.705 204.83C469.885 204.758 470.035 204.65 470.155 204.506C470.287 204.35 470.383 204.146 470.443 203.894C470.515 203.63 470.551 203.3 470.551 202.904C470.551 202.508 470.515 202.184 470.443 201.932C470.383 201.668 470.287 201.464 470.155 201.32C470.035 201.164 469.885 201.056 469.705 200.996C469.525 200.924 469.321 200.888 469.093 200.888C468.637 200.888 468.277 201.032 468.013 201.32C467.761 201.596 467.635 202.124 467.635 202.904ZM470.083 193.166L470.965 193.85L461.731 206.216L460.831 205.514L470.083 193.166Z" fill="#2D2D2D"/>
<path d="M450.834 276.956C451.662 276.956 452.346 276.716 452.886 276.236C453.426 275.756 453.696 275.06 453.696 274.148C453.696 273.272 453.426 272.618 452.886 272.186C452.358 271.754 451.626 271.538 450.69 271.538L449.178 271.628V265.4H454.794V266.732H450.528V270.314L451.302 270.278C452.49 270.29 453.426 270.62 454.11 271.268C454.794 271.916 455.136 272.846 455.136 274.058C455.136 274.73 455.022 275.33 454.794 275.858C454.566 276.374 454.254 276.806 453.858 277.154C453.474 277.502 453.018 277.766 452.49 277.946C451.962 278.126 451.398 278.216 450.798 278.216C450.258 278.216 449.802 278.186 449.43 278.126C449.058 278.066 448.71 277.976 448.386 277.856L448.764 276.632C449.04 276.74 449.334 276.824 449.646 276.884C449.97 276.932 450.366 276.956 450.834 276.956ZM459.069 268.244C459.069 267.704 459.141 267.242 459.285 266.858C459.429 266.474 459.621 266.156 459.861 265.904C460.113 265.652 460.407 265.472 460.743 265.364C461.091 265.244 461.463 265.184 461.859 265.184C462.255 265.184 462.621 265.238 462.957 265.346C463.305 265.454 463.599 265.628 463.839 265.868C464.091 266.108 464.289 266.426 464.433 266.822C464.577 267.206 464.649 267.68 464.649 268.244C464.649 268.808 464.577 269.288 464.433 269.684C464.289 270.068 464.091 270.38 463.839 270.62C463.599 270.86 463.305 271.034 462.957 271.142C462.621 271.25 462.255 271.304 461.859 271.304C461.463 271.304 461.091 271.25 460.743 271.142C460.407 271.034 460.113 270.86 459.861 270.62C459.621 270.38 459.429 270.068 459.285 269.684C459.141 269.288 459.069 268.808 459.069 268.244ZM460.401 268.244C460.401 268.964 460.527 269.48 460.779 269.792C461.043 270.104 461.403 270.26 461.859 270.26C462.087 270.26 462.291 270.23 462.471 270.17C462.651 270.098 462.801 269.99 462.921 269.846C463.053 269.69 463.149 269.486 463.209 269.234C463.281 268.97 463.317 268.64 463.317 268.244C463.317 267.848 463.281 267.524 463.209 267.272C463.149 267.008 463.053 266.804 462.921 266.66C462.801 266.504 462.651 266.396 462.471 266.336C462.291 266.264 462.087 266.228 461.859 266.228C461.403 266.228 461.043 266.372 460.779 266.66C460.527 266.936 460.401 267.464 460.401 268.244ZM465.495 274.904C465.495 274.364 465.567 273.902 465.711 273.518C465.855 273.134 466.047 272.816 466.287 272.564C466.539 272.312 466.833 272.132 467.169 272.024C467.517 271.904 467.889 271.844 468.285 271.844C468.681 271.844 469.047 271.898 469.383 272.006C469.731 272.114 470.025 272.288 470.265 272.528C470.517 272.768 470.715 273.086 470.859 273.482C471.003 273.866 471.075 274.34 471.075 274.904C471.075 275.468 471.003 275.948 470.859 276.344C470.715 276.728 470.517 277.04 470.265 277.28C470.025 277.52 469.731 277.694 469.383 277.802C469.047 277.91 468.681 277.964 468.285 277.964C467.889 277.964 467.517 277.91 467.169 277.802C466.833 277.694 466.539 277.52 466.287 277.28C466.047 277.04 465.855 276.728 465.711 276.344C465.567 275.948 465.495 275.468 465.495 274.904ZM466.827 274.904C466.827 275.624 466.953 276.14 467.205 276.452C467.469 276.764 467.829 276.92 468.285 276.92C468.513 276.92 468.717 276.89 468.897 276.83C469.077 276.758 469.227 276.65 469.347 276.506C469.479 276.35 469.575 276.146 469.635 275.894C469.707 275.63 469.743 275.3 469.743 274.904C469.743 274.508 469.707 274.184 469.635 273.932C469.575 273.668 469.479 273.464 469.347 273.32C469.227 273.164 469.077 273.056 468.897 272.996C468.717 272.924 468.513 272.888 468.285 272.888C467.829 272.888 467.469 273.032 467.205 273.32C466.953 273.596 466.827 274.124 466.827 274.904ZM469.275 265.166L470.157 265.85L460.923 278.216L460.023 277.514L469.275 265.166Z" fill="#2D2D2D"/>
</svg>
