<svg width="531" height="328" viewBox="0 0 531 328" fill="none" xmlns="http://www.w3.org/2000/svg">
<rect width="531" height="328" rx="12" fill="white"/>
<rect x="33" y="32" width="466" height="48" rx="24" fill="#EDF3FE"/>
<rect x="33" y="104" width="466" height="48" rx="24" fill="#EDF3FE"/>
<rect x="33" y="176" width="466" height="48" rx="24" fill="#EDF3FE"/>
<rect x="33" y="32" width="328" height="48" rx="24" fill="#CFE0FE"/>
<rect x="33" y="104" width="144" height="48" rx="24" fill="#CFE0FE"/>
<rect x="33" y="176" width="78" height="48" rx="24" fill="#CFE0FE"/>
<path d="M65.982 62H58.53V49.4H60.024V60.668H65.982V62ZM74.2001 61.28C73.8401 61.568 73.3841 61.796 72.8321 61.964C72.2921 62.132 71.7161 62.216 71.1041 62.216C70.4201 62.216 69.8261 62.108 69.3221 61.892C68.8181 61.664 68.4041 61.346 68.0801 60.938C67.7561 60.518 67.5161 60.02 67.3601 59.444C67.2041 58.868 67.1261 58.22 67.1261 57.5C67.1261 55.964 67.4681 54.794 68.1521 53.99C68.8361 53.186 69.8141 52.784 71.0861 52.784C71.4941 52.784 71.9021 52.832 72.3101 52.928C72.7181 53.012 73.0841 53.18 73.4081 53.432C73.7321 53.684 73.9961 54.044 74.2001 54.512C74.4041 54.968 74.5061 55.574 74.5061 56.33C74.5061 56.726 74.4701 57.164 74.3981 57.644H68.6201C68.6201 58.172 68.6741 58.64 68.7821 59.048C68.8901 59.456 69.0581 59.804 69.2861 60.092C69.5141 60.368 69.8081 60.584 70.1681 60.74C70.5401 60.884 70.9901 60.956 71.5181 60.956C71.9261 60.956 72.3341 60.884 72.7421 60.74C73.1501 60.596 73.4561 60.428 73.6601 60.236L74.2001 61.28ZM71.1041 54.044C70.3961 54.044 69.8261 54.23 69.3941 54.602C68.9741 54.974 68.7221 55.61 68.6381 56.51H73.1021C73.1021 55.598 72.9281 54.962 72.5801 54.602C72.2321 54.23 71.7401 54.044 71.1041 54.044ZM81.7308 59.552C81.7308 59.192 81.6228 58.91 81.4068 58.706C81.1908 58.502 80.9208 58.334 80.5968 58.202C80.2848 58.058 79.9368 57.926 79.5528 57.806C79.1808 57.674 78.8328 57.512 78.5088 57.32C78.1968 57.116 77.9328 56.858 77.7168 56.546C77.5008 56.234 77.3928 55.814 77.3928 55.286C77.3928 54.422 77.6388 53.792 78.1308 53.396C78.6228 52.988 79.3068 52.784 80.1828 52.784C80.8308 52.784 81.3708 52.844 81.8028 52.964C82.2468 53.072 82.6308 53.204 82.9548 53.36L82.6128 54.548C82.3368 54.416 82.0008 54.302 81.6048 54.206C81.2208 54.098 80.8068 54.044 80.3628 54.044C79.8348 54.044 79.4448 54.134 79.1928 54.314C78.9528 54.494 78.8328 54.806 78.8328 55.25C78.8328 55.562 78.9408 55.808 79.1568 55.988C79.3728 56.156 79.6368 56.312 79.9488 56.456C80.2728 56.588 80.6208 56.72 80.9928 56.852C81.3768 56.984 81.7248 57.158 82.0368 57.374C82.3608 57.59 82.6308 57.866 82.8468 58.202C83.0628 58.526 83.1708 58.958 83.1708 59.498C83.1708 59.882 83.1048 60.242 82.9728 60.578C82.8528 60.914 82.6608 61.202 82.3968 61.442C82.1328 61.682 81.8028 61.868 81.4068 62C81.0228 62.144 80.5668 62.216 80.0388 62.216C79.3548 62.216 78.7728 62.15 78.2928 62.018C77.8128 61.886 77.4108 61.73 77.0868 61.55L77.5188 60.326C77.7948 60.482 78.1548 60.626 78.5988 60.758C79.0428 60.89 79.4928 60.956 79.9488 60.956C80.4648 60.956 80.8908 60.854 81.2268 60.65C81.5628 60.446 81.7308 60.08 81.7308 59.552ZM90.3069 59.552C90.3069 59.192 90.1989 58.91 89.9829 58.706C89.7669 58.502 89.4969 58.334 89.1729 58.202C88.8609 58.058 88.5129 57.926 88.1289 57.806C87.7569 57.674 87.4089 57.512 87.0849 57.32C86.7729 57.116 86.5089 56.858 86.2929 56.546C86.0769 56.234 85.9689 55.814 85.9689 55.286C85.9689 54.422 86.2149 53.792 86.7069 53.396C87.1989 52.988 87.8829 52.784 88.7589 52.784C89.4069 52.784 89.9469 52.844 90.3789 52.964C90.8229 53.072 91.2069 53.204 91.5309 53.36L91.1889 54.548C90.9129 54.416 90.5769 54.302 90.1809 54.206C89.7969 54.098 89.3829 54.044 88.9389 54.044C88.4109 54.044 88.0209 54.134 87.7689 54.314C87.5289 54.494 87.4089 54.806 87.4089 55.25C87.4089 55.562 87.5169 55.808 87.7329 55.988C87.9489 56.156 88.2129 56.312 88.5249 56.456C88.8489 56.588 89.1969 56.72 89.5689 56.852C89.9529 56.984 90.3009 57.158 90.6129 57.374C90.9369 57.59 91.2069 57.866 91.4229 58.202C91.6389 58.526 91.7469 58.958 91.7469 59.498C91.7469 59.882 91.6809 60.242 91.5489 60.578C91.4289 60.914 91.2369 61.202 90.9729 61.442C90.7089 61.682 90.3789 61.868 89.9829 62C89.5989 62.144 89.1429 62.216 88.6149 62.216C87.9309 62.216 87.3489 62.15 86.8689 62.018C86.3889 61.886 85.9869 61.73 85.6629 61.55L86.0949 60.326C86.3709 60.482 86.7309 60.626 87.1749 60.758C87.6189 60.89 88.0689 60.956 88.5249 60.956C89.0409 60.956 89.4669 60.854 89.8029 60.65C90.1389 60.446 90.3069 60.08 90.3069 59.552ZM99.5339 53H100.938V51.218L102.378 50.804V53H104.826V54.26H102.378V59.246C102.378 59.87 102.456 60.314 102.612 60.578C102.768 60.83 103.032 60.956 103.404 60.956C103.716 60.956 103.98 60.926 104.196 60.866C104.412 60.794 104.652 60.704 104.916 60.596L105.24 61.694C104.916 61.85 104.562 61.976 104.178 62.072C103.794 62.168 103.38 62.216 102.936 62.216C102.204 62.216 101.688 62.012 101.388 61.604C101.088 61.184 100.938 60.488 100.938 59.516V54.26H99.5339V53ZM113.6 62V56.87C113.6 56.402 113.57 55.994 113.51 55.646C113.462 55.286 113.366 54.992 113.222 54.764C113.078 54.524 112.88 54.344 112.628 54.224C112.388 54.104 112.07 54.044 111.674 54.044C111.11 54.044 110.6 54.23 110.144 54.602C109.688 54.962 109.394 55.43 109.262 56.006V62H107.822V49.4H109.262V54.008H109.334C109.646 53.636 110.018 53.342 110.45 53.126C110.894 52.898 111.44 52.784 112.088 52.784C112.592 52.784 113.03 52.844 113.402 52.964C113.774 53.072 114.08 53.27 114.32 53.558C114.572 53.846 114.752 54.236 114.86 54.728C114.98 55.208 115.04 55.82 115.04 56.564V62H113.6ZM118.521 53.666C118.977 53.39 119.505 53.186 120.105 53.054C120.717 52.922 121.353 52.856 122.013 52.856C122.637 52.856 123.135 52.94 123.507 53.108C123.891 53.276 124.179 53.498 124.371 53.774C124.575 54.038 124.707 54.332 124.767 54.656C124.839 54.98 124.875 55.304 124.875 55.628C124.875 56.348 124.857 57.05 124.821 57.734C124.785 58.418 124.767 59.066 124.767 59.678C124.767 60.122 124.785 60.542 124.821 60.938C124.857 61.334 124.923 61.7 125.019 62.036H123.957L123.579 60.776H123.489C123.381 60.944 123.243 61.112 123.075 61.28C122.919 61.436 122.727 61.58 122.499 61.712C122.271 61.832 122.007 61.934 121.707 62.018C121.407 62.102 121.065 62.144 120.681 62.144C120.297 62.144 119.937 62.084 119.601 61.964C119.277 61.844 118.995 61.676 118.755 61.46C118.515 61.232 118.323 60.962 118.179 60.65C118.047 60.338 117.981 59.984 117.981 59.588C117.981 59.06 118.089 58.622 118.305 58.274C118.521 57.914 118.821 57.632 119.205 57.428C119.601 57.212 120.069 57.062 120.609 56.978C121.161 56.882 121.767 56.834 122.427 56.834C122.595 56.834 122.757 56.834 122.913 56.834C123.081 56.834 123.249 56.846 123.417 56.87C123.453 56.51 123.471 56.186 123.471 55.898C123.471 55.238 123.339 54.776 123.075 54.512C122.811 54.248 122.331 54.116 121.635 54.116C121.431 54.116 121.209 54.134 120.969 54.17C120.741 54.194 120.501 54.236 120.249 54.296C120.009 54.344 119.775 54.41 119.547 54.494C119.331 54.566 119.139 54.65 118.971 54.746L118.521 53.666ZM121.077 60.884C121.413 60.884 121.713 60.842 121.977 60.758C122.241 60.662 122.469 60.548 122.661 60.416C122.853 60.272 123.009 60.116 123.129 59.948C123.261 59.78 123.357 59.618 123.417 59.462V57.968C123.249 57.956 123.075 57.95 122.895 57.95C122.727 57.938 122.559 57.932 122.391 57.932C122.019 57.932 121.653 57.956 121.293 58.004C120.945 58.04 120.633 58.118 120.357 58.238C120.093 58.346 119.877 58.502 119.709 58.706C119.553 58.898 119.475 59.144 119.475 59.444C119.475 59.864 119.625 60.212 119.925 60.488C120.225 60.752 120.609 60.884 121.077 60.884ZM134.373 62V56.87C134.373 55.934 134.235 55.232 133.959 54.764C133.695 54.284 133.203 54.044 132.483 54.044C131.847 54.044 131.319 54.218 130.899 54.566C130.491 54.902 130.203 55.328 130.035 55.844V62H128.595V53H129.603L129.873 54.098H129.945C130.233 53.714 130.617 53.402 131.097 53.162C131.589 52.91 132.171 52.784 132.843 52.784C133.335 52.784 133.767 52.844 134.139 52.964C134.511 53.072 134.817 53.27 135.057 53.558C135.309 53.846 135.495 54.236 135.615 54.728C135.747 55.208 135.813 55.82 135.813 56.564V62H134.373ZM145.796 60.668H148.316V51.956L148.496 50.894L147.776 51.74L145.796 53.162L145.112 52.244L149.072 49.184H149.72V60.668H152.186V62H145.796V60.668ZM167.623 62V56.87C167.623 56.402 167.593 55.994 167.533 55.646C167.485 55.286 167.389 54.992 167.245 54.764C167.101 54.524 166.903 54.344 166.651 54.224C166.411 54.104 166.093 54.044 165.697 54.044C165.133 54.044 164.623 54.23 164.167 54.602C163.711 54.962 163.417 55.43 163.285 56.006V62H161.845V49.4H163.285V54.008H163.357C163.669 53.636 164.041 53.342 164.473 53.126C164.917 52.898 165.463 52.784 166.111 52.784C166.615 52.784 167.053 52.844 167.425 52.964C167.797 53.072 168.103 53.27 168.343 53.558C168.595 53.846 168.775 54.236 168.883 54.728C169.003 55.208 169.063 55.82 169.063 56.564V62H167.623ZM172.185 57.5C172.185 55.976 172.521 54.812 173.193 54.008C173.877 53.192 174.855 52.784 176.127 52.784C176.799 52.784 177.381 52.898 177.873 53.126C178.377 53.342 178.791 53.66 179.115 54.08C179.439 54.488 179.679 54.986 179.835 55.574C179.991 56.15 180.069 56.792 180.069 57.5C180.069 59.024 179.727 60.194 179.043 61.01C178.371 61.814 177.399 62.216 176.127 62.216C175.455 62.216 174.867 62.108 174.363 61.892C173.871 61.664 173.463 61.346 173.139 60.938C172.815 60.518 172.575 60.02 172.419 59.444C172.263 58.856 172.185 58.208 172.185 57.5ZM173.679 57.5C173.679 57.956 173.721 58.394 173.805 58.814C173.901 59.234 174.045 59.6 174.237 59.912C174.429 60.224 174.681 60.476 174.993 60.668C175.305 60.86 175.683 60.956 176.127 60.956C177.759 60.968 178.575 59.816 178.575 57.5C178.575 57.032 178.527 56.588 178.431 56.168C178.347 55.748 178.209 55.382 178.017 55.07C177.825 54.758 177.573 54.512 177.261 54.332C176.949 54.14 176.571 54.044 176.127 54.044C174.495 54.032 173.679 55.184 173.679 57.5ZM184.635 53V58.13C184.635 58.598 184.659 59.012 184.707 59.372C184.767 59.72 184.863 60.014 184.995 60.254C185.127 60.482 185.307 60.656 185.535 60.776C185.763 60.896 186.051 60.956 186.399 60.956C186.723 60.956 187.011 60.908 187.263 60.812C187.515 60.704 187.737 60.56 187.929 60.38C188.133 60.2 188.307 59.996 188.451 59.768C188.607 59.528 188.733 59.276 188.829 59.012V53H190.269V59.444C190.269 59.876 190.281 60.326 190.305 60.794C190.341 61.25 190.395 61.652 190.467 62H189.477L189.117 60.578H189.027C188.751 61.046 188.379 61.436 187.911 61.748C187.443 62.06 186.849 62.216 186.129 62.216C185.649 62.216 185.223 62.156 184.851 62.036C184.491 61.928 184.185 61.73 183.933 61.442C183.693 61.154 183.507 60.77 183.375 60.29C183.255 59.798 183.195 59.18 183.195 58.436V53H184.635ZM198.29 54.386C197.93 54.266 197.588 54.206 197.264 54.206C196.748 54.206 196.34 54.35 196.04 54.638C195.74 54.914 195.554 55.268 195.482 55.7V62H194.042V53H195.05L195.32 54.098H195.392C195.62 53.69 195.89 53.378 196.202 53.162C196.526 52.934 196.934 52.82 197.426 52.82C197.774 52.82 198.164 52.88 198.596 53L198.29 54.386Z" fill="#2D2D2D"/>
<path d="M58.944 132.668H61.464V123.956L61.644 122.894L60.924 123.74L58.944 125.162L58.26 124.244L62.22 121.184H62.868V132.668H65.334V134H58.944V132.668ZM68.8706 128.15H73.2266V129.482H68.8706V128.15ZM83.3229 124.262C83.3229 124.898 83.2029 125.552 82.9629 126.224C82.7349 126.884 82.4289 127.55 82.0449 128.222C81.6729 128.894 81.2529 129.554 80.7849 130.202C80.3169 130.838 79.8489 131.444 79.3809 132.02L78.4989 132.794V132.866L79.6509 132.668H83.5749V134H76.4109V133.478C76.6749 133.202 76.9929 132.86 77.3649 132.452C77.7369 132.044 78.1209 131.594 78.5169 131.102C78.9249 130.598 79.3209 130.07 79.7049 129.518C80.1009 128.954 80.4549 128.384 80.7669 127.808C81.0909 127.232 81.3489 126.662 81.5409 126.098C81.7329 125.534 81.8289 125 81.8289 124.496C81.8289 123.908 81.6609 123.422 81.3249 123.038C80.9889 122.642 80.4789 122.444 79.7949 122.444C79.3389 122.444 78.8949 122.54 78.4629 122.732C78.0309 122.912 77.6589 123.122 77.3469 123.362L76.7529 122.336C77.1729 121.976 77.6709 121.694 78.2469 121.49C78.8229 121.286 79.4409 121.184 80.1009 121.184C80.6169 121.184 81.0729 121.262 81.4689 121.418C81.8649 121.562 82.2009 121.772 82.4769 122.048C82.7529 122.324 82.9629 122.654 83.1069 123.038C83.2509 123.41 83.3229 123.818 83.3229 124.262ZM99.0663 134V128.87C99.0663 128.402 99.0363 127.994 98.9763 127.646C98.9283 127.286 98.8323 126.992 98.6883 126.764C98.5443 126.524 98.3463 126.344 98.0943 126.224C97.8543 126.104 97.5363 126.044 97.1403 126.044C96.5763 126.044 96.0663 126.23 95.6103 126.602C95.1543 126.962 94.8603 127.43 94.7283 128.006V134H93.2883V121.4H94.7283V126.008H94.8003C95.1123 125.636 95.4843 125.342 95.9163 125.126C96.3603 124.898 96.9063 124.784 97.5543 124.784C98.0583 124.784 98.4963 124.844 98.8683 124.964C99.2403 125.072 99.5463 125.27 99.7863 125.558C100.038 125.846 100.218 126.236 100.326 126.728C100.446 127.208 100.506 127.82 100.506 128.564V134H99.0663ZM103.628 129.5C103.628 127.976 103.964 126.812 104.636 126.008C105.32 125.192 106.298 124.784 107.57 124.784C108.242 124.784 108.824 124.898 109.316 125.126C109.82 125.342 110.234 125.66 110.558 126.08C110.882 126.488 111.122 126.986 111.278 127.574C111.434 128.15 111.512 128.792 111.512 129.5C111.512 131.024 111.17 132.194 110.486 133.01C109.814 133.814 108.842 134.216 107.57 134.216C106.898 134.216 106.31 134.108 105.806 133.892C105.314 133.664 104.906 133.346 104.582 132.938C104.258 132.518 104.018 132.02 103.862 131.444C103.706 130.856 103.628 130.208 103.628 129.5ZM105.122 129.5C105.122 129.956 105.164 130.394 105.248 130.814C105.344 131.234 105.488 131.6 105.68 131.912C105.872 132.224 106.124 132.476 106.436 132.668C106.748 132.86 107.126 132.956 107.57 132.956C109.202 132.968 110.018 131.816 110.018 129.5C110.018 129.032 109.97 128.588 109.874 128.168C109.79 127.748 109.652 127.382 109.46 127.07C109.268 126.758 109.016 126.512 108.704 126.332C108.392 126.14 108.014 126.044 107.57 126.044C105.938 126.032 105.122 127.184 105.122 129.5ZM116.078 125V130.13C116.078 130.598 116.102 131.012 116.15 131.372C116.21 131.72 116.306 132.014 116.438 132.254C116.57 132.482 116.75 132.656 116.978 132.776C117.206 132.896 117.494 132.956 117.842 132.956C118.166 132.956 118.454 132.908 118.706 132.812C118.958 132.704 119.18 132.56 119.372 132.38C119.576 132.2 119.75 131.996 119.894 131.768C120.05 131.528 120.176 131.276 120.272 131.012V125H121.712V131.444C121.712 131.876 121.724 132.326 121.748 132.794C121.784 133.25 121.838 133.652 121.91 134H120.92L120.56 132.578H120.47C120.194 133.046 119.822 133.436 119.354 133.748C118.886 134.06 118.292 134.216 117.572 134.216C117.092 134.216 116.666 134.156 116.294 134.036C115.934 133.928 115.628 133.73 115.376 133.442C115.136 133.154 114.95 132.77 114.818 132.29C114.698 131.798 114.638 131.18 114.638 130.436V125H116.078ZM129.734 126.386C129.374 126.266 129.032 126.206 128.708 126.206C128.192 126.206 127.784 126.35 127.484 126.638C127.184 126.914 126.998 127.268 126.926 127.7V134H125.486V125H126.494L126.764 126.098H126.836C127.064 125.69 127.334 125.378 127.646 125.162C127.97 124.934 128.378 124.82 128.87 124.82C129.218 124.82 129.608 124.88 130.04 125L129.734 126.386ZM136.563 131.552C136.563 131.192 136.455 130.91 136.239 130.706C136.023 130.502 135.753 130.334 135.429 130.202C135.117 130.058 134.769 129.926 134.385 129.806C134.013 129.674 133.665 129.512 133.341 129.32C133.029 129.116 132.765 128.858 132.549 128.546C132.333 128.234 132.225 127.814 132.225 127.286C132.225 126.422 132.471 125.792 132.963 125.396C133.455 124.988 134.139 124.784 135.015 124.784C135.663 124.784 136.203 124.844 136.635 124.964C137.079 125.072 137.463 125.204 137.787 125.36L137.445 126.548C137.169 126.416 136.833 126.302 136.437 126.206C136.053 126.098 135.639 126.044 135.195 126.044C134.667 126.044 134.277 126.134 134.025 126.314C133.785 126.494 133.665 126.806 133.665 127.25C133.665 127.562 133.773 127.808 133.989 127.988C134.205 128.156 134.469 128.312 134.781 128.456C135.105 128.588 135.453 128.72 135.825 128.852C136.209 128.984 136.557 129.158 136.869 129.374C137.193 129.59 137.463 129.866 137.679 130.202C137.895 130.526 138.003 130.958 138.003 131.498C138.003 131.882 137.937 132.242 137.805 132.578C137.685 132.914 137.493 133.202 137.229 133.442C136.965 133.682 136.635 133.868 136.239 134C135.855 134.144 135.399 134.216 134.871 134.216C134.187 134.216 133.605 134.15 133.125 134.018C132.645 133.886 132.243 133.73 131.919 133.55L132.351 132.326C132.627 132.482 132.987 132.626 133.431 132.758C133.875 132.89 134.325 132.956 134.781 132.956C135.297 132.956 135.723 132.854 136.059 132.65C136.395 132.446 136.563 132.08 136.563 131.552Z" fill="#2D2D2D"/>
<path d="M65.028 196.262C65.028 196.898 64.908 197.552 64.668 198.224C64.44 198.884 64.134 199.55 63.75 200.222C63.378 200.894 62.958 201.554 62.49 202.202C62.022 202.838 61.554 203.444 61.086 204.02L60.204 204.794V204.866L61.356 204.668H65.28V206H58.116V205.478C58.38 205.202 58.698 204.86 59.07 204.452C59.442 204.044 59.826 203.594 60.222 203.102C60.63 202.598 61.026 202.07 61.41 201.518C61.806 200.954 62.16 200.384 62.472 199.808C62.796 199.232 63.054 198.662 63.246 198.098C63.438 197.534 63.534 197 63.534 196.496C63.534 195.908 63.366 195.422 63.03 195.038C62.694 194.642 62.184 194.444 61.5 194.444C61.044 194.444 60.6 194.54 60.168 194.732C59.736 194.912 59.364 195.122 59.052 195.362L58.458 194.336C58.878 193.976 59.376 193.694 59.952 193.49C60.528 193.286 61.146 193.184 61.806 193.184C62.322 193.184 62.778 193.262 63.174 193.418C63.57 193.562 63.906 193.772 64.182 194.048C64.458 194.324 64.668 194.654 64.812 195.038C64.956 195.41 65.028 195.818 65.028 196.262ZM68.8706 200.15H73.2266V201.482H68.8706V200.15ZM79.5069 204.956C79.9149 204.956 80.2929 204.896 80.6409 204.776C80.9889 204.656 81.2889 204.482 81.5409 204.254C81.7929 204.014 81.9909 203.732 82.1349 203.408C82.2789 203.084 82.3509 202.73 82.3509 202.346C82.3509 201.506 82.0989 200.882 81.5949 200.474C81.1029 200.066 80.4189 199.862 79.5429 199.862H78.2109V199.34L80.8029 195.344L81.6309 194.552L80.4609 194.732H76.8969V193.4H83.3229V193.922L80.4609 198.224L79.8309 198.746V198.782L80.4429 198.656C80.9229 198.668 81.3669 198.758 81.7749 198.926C82.1829 199.082 82.5369 199.316 82.8369 199.628C83.1369 199.928 83.3709 200.294 83.5389 200.726C83.7069 201.146 83.7909 201.626 83.7909 202.166C83.7909 202.814 83.6769 203.39 83.4489 203.894C83.2209 204.398 82.9089 204.824 82.5129 205.172C82.1289 205.508 81.6729 205.766 81.1449 205.946C80.6169 206.126 80.0589 206.216 79.4709 206.216C78.9309 206.216 78.4449 206.174 78.0129 206.09C77.5809 206.006 77.2029 205.898 76.8789 205.766L77.2569 204.488C77.5329 204.62 77.8569 204.734 78.2289 204.83C78.6129 204.914 79.0389 204.956 79.5069 204.956ZM99.0663 206V200.87C99.0663 200.402 99.0363 199.994 98.9763 199.646C98.9283 199.286 98.8323 198.992 98.6883 198.764C98.5443 198.524 98.3463 198.344 98.0943 198.224C97.8543 198.104 97.5363 198.044 97.1403 198.044C96.5763 198.044 96.0663 198.23 95.6103 198.602C95.1543 198.962 94.8603 199.43 94.7283 200.006V206H93.2883V193.4H94.7283V198.008H94.8003C95.1123 197.636 95.4843 197.342 95.9163 197.126C96.3603 196.898 96.9063 196.784 97.5543 196.784C98.0583 196.784 98.4963 196.844 98.8683 196.964C99.2403 197.072 99.5463 197.27 99.7863 197.558C100.038 197.846 100.218 198.236 100.326 198.728C100.446 199.208 100.506 199.82 100.506 200.564V206H99.0663ZM103.628 201.5C103.628 199.976 103.964 198.812 104.636 198.008C105.32 197.192 106.298 196.784 107.57 196.784C108.242 196.784 108.824 196.898 109.316 197.126C109.82 197.342 110.234 197.66 110.558 198.08C110.882 198.488 111.122 198.986 111.278 199.574C111.434 200.15 111.512 200.792 111.512 201.5C111.512 203.024 111.17 204.194 110.486 205.01C109.814 205.814 108.842 206.216 107.57 206.216C106.898 206.216 106.31 206.108 105.806 205.892C105.314 205.664 104.906 205.346 104.582 204.938C104.258 204.518 104.018 204.02 103.862 203.444C103.706 202.856 103.628 202.208 103.628 201.5ZM105.122 201.5C105.122 201.956 105.164 202.394 105.248 202.814C105.344 203.234 105.488 203.6 105.68 203.912C105.872 204.224 106.124 204.476 106.436 204.668C106.748 204.86 107.126 204.956 107.57 204.956C109.202 204.968 110.018 203.816 110.018 201.5C110.018 201.032 109.97 200.588 109.874 200.168C109.79 199.748 109.652 199.382 109.46 199.07C109.268 198.758 109.016 198.512 108.704 198.332C108.392 198.14 108.014 198.044 107.57 198.044C105.938 198.032 105.122 199.184 105.122 201.5ZM116.078 197V202.13C116.078 202.598 116.102 203.012 116.15 203.372C116.21 203.72 116.306 204.014 116.438 204.254C116.57 204.482 116.75 204.656 116.978 204.776C117.206 204.896 117.494 204.956 117.842 204.956C118.166 204.956 118.454 204.908 118.706 204.812C118.958 204.704 119.18 204.56 119.372 204.38C119.576 204.2 119.75 203.996 119.894 203.768C120.05 203.528 120.176 203.276 120.272 203.012V197H121.712V203.444C121.712 203.876 121.724 204.326 121.748 204.794C121.784 205.25 121.838 205.652 121.91 206H120.92L120.56 204.578H120.47C120.194 205.046 119.822 205.436 119.354 205.748C118.886 206.06 118.292 206.216 117.572 206.216C117.092 206.216 116.666 206.156 116.294 206.036C115.934 205.928 115.628 205.73 115.376 205.442C115.136 205.154 114.95 204.77 114.818 204.29C114.698 203.798 114.638 203.18 114.638 202.436V197H116.078ZM129.734 198.386C129.374 198.266 129.032 198.206 128.708 198.206C128.192 198.206 127.784 198.35 127.484 198.638C127.184 198.914 126.998 199.268 126.926 199.7V206H125.486V197H126.494L126.764 198.098H126.836C127.064 197.69 127.334 197.378 127.646 197.162C127.97 196.934 128.378 196.82 128.87 196.82C129.218 196.82 129.608 196.88 130.04 197L129.734 198.386ZM136.563 203.552C136.563 203.192 136.455 202.91 136.239 202.706C136.023 202.502 135.753 202.334 135.429 202.202C135.117 202.058 134.769 201.926 134.385 201.806C134.013 201.674 133.665 201.512 133.341 201.32C133.029 201.116 132.765 200.858 132.549 200.546C132.333 200.234 132.225 199.814 132.225 199.286C132.225 198.422 132.471 197.792 132.963 197.396C133.455 196.988 134.139 196.784 135.015 196.784C135.663 196.784 136.203 196.844 136.635 196.964C137.079 197.072 137.463 197.204 137.787 197.36L137.445 198.548C137.169 198.416 136.833 198.302 136.437 198.206C136.053 198.098 135.639 198.044 135.195 198.044C134.667 198.044 134.277 198.134 134.025 198.314C133.785 198.494 133.665 198.806 133.665 199.25C133.665 199.562 133.773 199.808 133.989 199.988C134.205 200.156 134.469 200.312 134.781 200.456C135.105 200.588 135.453 200.72 135.825 200.852C136.209 200.984 136.557 201.158 136.869 201.374C137.193 201.59 137.463 201.866 137.679 202.202C137.895 202.526 138.003 202.958 138.003 203.498C138.003 203.882 137.937 204.242 137.805 204.578C137.685 204.914 137.493 205.202 137.229 205.442C136.965 205.682 136.635 205.868 136.239 206C135.855 206.144 135.399 206.216 134.871 206.216C134.187 206.216 133.605 206.15 133.125 206.018C132.645 205.886 132.243 205.73 131.919 205.55L132.351 204.326C132.627 204.482 132.987 204.626 133.431 204.758C133.875 204.89 134.325 204.956 134.781 204.956C135.297 204.956 135.723 204.854 136.059 204.65C136.395 204.446 136.563 204.08 136.563 203.552Z" fill="#2D2D2D"/>
<path d="M438.98 62L443.498 51.452L444.29 50.57L443.228 50.732H438.098V49.4H445.622V49.886L440.438 62H438.98ZM448.583 55.7C448.583 53.54 448.931 51.914 449.627 50.822C450.335 49.73 451.361 49.184 452.705 49.184C454.157 49.184 455.207 49.724 455.855 50.804C456.515 51.872 456.845 53.504 456.845 55.7C456.845 57.86 456.491 59.486 455.783 60.578C455.087 61.67 454.061 62.216 452.705 62.216C451.277 62.216 450.233 61.646 449.573 60.506C448.913 59.366 448.583 57.764 448.583 55.7ZM450.077 55.7C450.077 56.48 450.125 57.194 450.221 57.842C450.329 58.478 450.491 59.03 450.707 59.498C450.923 59.954 451.193 60.314 451.517 60.578C451.853 60.83 452.249 60.956 452.705 60.956C453.617 60.956 454.283 60.536 454.703 59.696C455.135 58.844 455.351 57.512 455.351 55.7C455.351 54.932 455.303 54.224 455.207 53.576C455.123 52.928 454.973 52.37 454.757 51.902C454.553 51.434 454.283 51.074 453.947 50.822C453.611 50.57 453.197 50.444 452.705 50.444C451.805 50.444 451.139 50.87 450.707 51.722C450.287 52.574 450.077 53.9 450.077 55.7ZM459.877 52.244C459.877 51.704 459.949 51.242 460.093 50.858C460.237 50.474 460.429 50.156 460.669 49.904C460.921 49.652 461.215 49.472 461.551 49.364C461.899 49.244 462.271 49.184 462.667 49.184C463.063 49.184 463.429 49.238 463.765 49.346C464.113 49.454 464.407 49.628 464.647 49.868C464.899 50.108 465.097 50.426 465.241 50.822C465.385 51.206 465.457 51.68 465.457 52.244C465.457 52.808 465.385 53.288 465.241 53.684C465.097 54.068 464.899 54.38 464.647 54.62C464.407 54.86 464.113 55.034 463.765 55.142C463.429 55.25 463.063 55.304 462.667 55.304C462.271 55.304 461.899 55.25 461.551 55.142C461.215 55.034 460.921 54.86 460.669 54.62C460.429 54.38 460.237 54.068 460.093 53.684C459.949 53.288 459.877 52.808 459.877 52.244ZM461.209 52.244C461.209 52.964 461.335 53.48 461.587 53.792C461.851 54.104 462.211 54.26 462.667 54.26C462.895 54.26 463.099 54.23 463.279 54.17C463.459 54.098 463.609 53.99 463.729 53.846C463.861 53.69 463.957 53.486 464.017 53.234C464.089 52.97 464.125 52.64 464.125 52.244C464.125 51.848 464.089 51.524 464.017 51.272C463.957 51.008 463.861 50.804 463.729 50.66C463.609 50.504 463.459 50.396 463.279 50.336C463.099 50.264 462.895 50.228 462.667 50.228C462.211 50.228 461.851 50.372 461.587 50.66C461.335 50.936 461.209 51.464 461.209 52.244ZM466.303 58.904C466.303 58.364 466.375 57.902 466.519 57.518C466.663 57.134 466.855 56.816 467.095 56.564C467.347 56.312 467.641 56.132 467.977 56.024C468.325 55.904 468.697 55.844 469.093 55.844C469.489 55.844 469.855 55.898 470.191 56.006C470.539 56.114 470.833 56.288 471.073 56.528C471.325 56.768 471.523 57.086 471.667 57.482C471.811 57.866 471.883 58.34 471.883 58.904C471.883 59.468 471.811 59.948 471.667 60.344C471.523 60.728 471.325 61.04 471.073 61.28C470.833 61.52 470.539 61.694 470.191 61.802C469.855 61.91 469.489 61.964 469.093 61.964C468.697 61.964 468.325 61.91 467.977 61.802C467.641 61.694 467.347 61.52 467.095 61.28C466.855 61.04 466.663 60.728 466.519 60.344C466.375 59.948 466.303 59.468 466.303 58.904ZM467.635 58.904C467.635 59.624 467.761 60.14 468.013 60.452C468.277 60.764 468.637 60.92 469.093 60.92C469.321 60.92 469.525 60.89 469.705 60.83C469.885 60.758 470.035 60.65 470.155 60.506C470.287 60.35 470.383 60.146 470.443 59.894C470.515 59.63 470.551 59.3 470.551 58.904C470.551 58.508 470.515 58.184 470.443 57.932C470.383 57.668 470.287 57.464 470.155 57.32C470.035 57.164 469.885 57.056 469.705 56.996C469.525 56.924 469.321 56.888 469.093 56.888C468.637 56.888 468.277 57.032 468.013 57.32C467.761 57.596 467.635 58.124 467.635 58.904ZM470.083 49.166L470.965 49.85L461.731 62.216L460.831 61.514L470.083 49.166Z" fill="#2D2D2D"/>
<path d="M444.028 124.262C444.028 124.898 443.908 125.552 443.668 126.224C443.44 126.884 443.134 127.55 442.75 128.222C442.378 128.894 441.958 129.554 441.49 130.202C441.022 130.838 440.554 131.444 440.086 132.02L439.204 132.794V132.866L440.356 132.668H444.28V134H437.116V133.478C437.38 133.202 437.698 132.86 438.07 132.452C438.442 132.044 438.826 131.594 439.222 131.102C439.63 130.598 440.026 130.07 440.41 129.518C440.806 128.954 441.16 128.384 441.472 127.808C441.796 127.232 442.054 126.662 442.246 126.098C442.438 125.534 442.534 125 442.534 124.496C442.534 123.908 442.366 123.422 442.03 123.038C441.694 122.642 441.184 122.444 440.5 122.444C440.044 122.444 439.6 122.54 439.168 122.732C438.736 122.912 438.364 123.122 438.052 123.362L437.458 122.336C437.878 121.976 438.376 121.694 438.952 121.49C439.528 121.286 440.146 121.184 440.806 121.184C441.322 121.184 441.778 121.262 442.174 121.418C442.57 121.562 442.906 121.772 443.182 122.048C443.458 122.324 443.668 122.654 443.812 123.038C443.956 123.41 444.028 123.818 444.028 124.262ZM450.643 132.956C451.471 132.956 452.155 132.716 452.695 132.236C453.235 131.756 453.505 131.06 453.505 130.148C453.505 129.272 453.235 128.618 452.695 128.186C452.167 127.754 451.435 127.538 450.499 127.538L448.987 127.628V121.4H454.603V122.732H450.337V126.314L451.111 126.278C452.299 126.29 453.235 126.62 453.919 127.268C454.603 127.916 454.945 128.846 454.945 130.058C454.945 130.73 454.831 131.33 454.603 131.858C454.375 132.374 454.063 132.806 453.667 133.154C453.283 133.502 452.827 133.766 452.299 133.946C451.771 134.126 451.207 134.216 450.607 134.216C450.067 134.216 449.611 134.186 449.239 134.126C448.867 134.066 448.519 133.976 448.195 133.856L448.573 132.632C448.849 132.74 449.143 132.824 449.455 132.884C449.779 132.932 450.175 132.956 450.643 132.956ZM458.877 124.244C458.877 123.704 458.949 123.242 459.093 122.858C459.237 122.474 459.429 122.156 459.669 121.904C459.921 121.652 460.215 121.472 460.551 121.364C460.899 121.244 461.271 121.184 461.667 121.184C462.063 121.184 462.429 121.238 462.765 121.346C463.113 121.454 463.407 121.628 463.647 121.868C463.899 122.108 464.097 122.426 464.241 122.822C464.385 123.206 464.457 123.68 464.457 124.244C464.457 124.808 464.385 125.288 464.241 125.684C464.097 126.068 463.899 126.38 463.647 126.62C463.407 126.86 463.113 127.034 462.765 127.142C462.429 127.25 462.063 127.304 461.667 127.304C461.271 127.304 460.899 127.25 460.551 127.142C460.215 127.034 459.921 126.86 459.669 126.62C459.429 126.38 459.237 126.068 459.093 125.684C458.949 125.288 458.877 124.808 458.877 124.244ZM460.209 124.244C460.209 124.964 460.335 125.48 460.587 125.792C460.851 126.104 461.211 126.26 461.667 126.26C461.895 126.26 462.099 126.23 462.279 126.17C462.459 126.098 462.609 125.99 462.729 125.846C462.861 125.69 462.957 125.486 463.017 125.234C463.089 124.97 463.125 124.64 463.125 124.244C463.125 123.848 463.089 123.524 463.017 123.272C462.957 123.008 462.861 122.804 462.729 122.66C462.609 122.504 462.459 122.396 462.279 122.336C462.099 122.264 461.895 122.228 461.667 122.228C461.211 122.228 460.851 122.372 460.587 122.66C460.335 122.936 460.209 123.464 460.209 124.244ZM465.303 130.904C465.303 130.364 465.375 129.902 465.519 129.518C465.663 129.134 465.855 128.816 466.095 128.564C466.347 128.312 466.641 128.132 466.977 128.024C467.325 127.904 467.697 127.844 468.093 127.844C468.489 127.844 468.855 127.898 469.191 128.006C469.539 128.114 469.833 128.288 470.073 128.528C470.325 128.768 470.523 129.086 470.667 129.482C470.811 129.866 470.883 130.34 470.883 130.904C470.883 131.468 470.811 131.948 470.667 132.344C470.523 132.728 470.325 133.04 470.073 133.28C469.833 133.52 469.539 133.694 469.191 133.802C468.855 133.91 468.489 133.964 468.093 133.964C467.697 133.964 467.325 133.91 466.977 133.802C466.641 133.694 466.347 133.52 466.095 133.28C465.855 133.04 465.663 132.728 465.519 132.344C465.375 131.948 465.303 131.468 465.303 130.904ZM466.635 130.904C466.635 131.624 466.761 132.14 467.013 132.452C467.277 132.764 467.637 132.92 468.093 132.92C468.321 132.92 468.525 132.89 468.705 132.83C468.885 132.758 469.035 132.65 469.155 132.506C469.287 132.35 469.383 132.146 469.443 131.894C469.515 131.63 469.551 131.3 469.551 130.904C469.551 130.508 469.515 130.184 469.443 129.932C469.383 129.668 469.287 129.464 469.155 129.32C469.035 129.164 468.885 129.056 468.705 128.996C468.525 128.924 468.321 128.888 468.093 128.888C467.637 128.888 467.277 129.032 467.013 129.32C466.761 129.596 466.635 130.124 466.635 130.904ZM469.083 121.166L469.965 121.85L460.731 134.216L459.831 133.514L469.083 121.166Z" fill="#2D2D2D"/>
<path d="M451.834 204.956C452.662 204.956 453.346 204.716 453.886 204.236C454.426 203.756 454.696 203.06 454.696 202.148C454.696 201.272 454.426 200.618 453.886 200.186C453.358 199.754 452.626 199.538 451.69 199.538L450.178 199.628V193.4H455.794V194.732H451.528V198.314L452.302 198.278C453.49 198.29 454.426 198.62 455.11 199.268C455.794 199.916 456.136 200.846 456.136 202.058C456.136 202.73 456.022 203.33 455.794 203.858C455.566 204.374 455.254 204.806 454.858 205.154C454.474 205.502 454.018 205.766 453.49 205.946C452.962 206.126 452.398 206.216 451.798 206.216C451.258 206.216 450.802 206.186 450.43 206.126C450.058 206.066 449.71 205.976 449.386 205.856L449.764 204.632C450.04 204.74 450.334 204.824 450.646 204.884C450.97 204.932 451.366 204.956 451.834 204.956ZM460.069 196.244C460.069 195.704 460.141 195.242 460.285 194.858C460.429 194.474 460.621 194.156 460.861 193.904C461.113 193.652 461.407 193.472 461.743 193.364C462.091 193.244 462.463 193.184 462.859 193.184C463.255 193.184 463.621 193.238 463.957 193.346C464.305 193.454 464.599 193.628 464.839 193.868C465.091 194.108 465.289 194.426 465.433 194.822C465.577 195.206 465.649 195.68 465.649 196.244C465.649 196.808 465.577 197.288 465.433 197.684C465.289 198.068 465.091 198.38 464.839 198.62C464.599 198.86 464.305 199.034 463.957 199.142C463.621 199.25 463.255 199.304 462.859 199.304C462.463 199.304 462.091 199.25 461.743 199.142C461.407 199.034 461.113 198.86 460.861 198.62C460.621 198.38 460.429 198.068 460.285 197.684C460.141 197.288 460.069 196.808 460.069 196.244ZM461.401 196.244C461.401 196.964 461.527 197.48 461.779 197.792C462.043 198.104 462.403 198.26 462.859 198.26C463.087 198.26 463.291 198.23 463.471 198.17C463.651 198.098 463.801 197.99 463.921 197.846C464.053 197.69 464.149 197.486 464.209 197.234C464.281 196.97 464.317 196.64 464.317 196.244C464.317 195.848 464.281 195.524 464.209 195.272C464.149 195.008 464.053 194.804 463.921 194.66C463.801 194.504 463.651 194.396 463.471 194.336C463.291 194.264 463.087 194.228 462.859 194.228C462.403 194.228 462.043 194.372 461.779 194.66C461.527 194.936 461.401 195.464 461.401 196.244ZM466.495 202.904C466.495 202.364 466.567 201.902 466.711 201.518C466.855 201.134 467.047 200.816 467.287 200.564C467.539 200.312 467.833 200.132 468.169 200.024C468.517 199.904 468.889 199.844 469.285 199.844C469.681 199.844 470.047 199.898 470.383 200.006C470.731 200.114 471.025 200.288 471.265 200.528C471.517 200.768 471.715 201.086 471.859 201.482C472.003 201.866 472.075 202.34 472.075 202.904C472.075 203.468 472.003 203.948 471.859 204.344C471.715 204.728 471.517 205.04 471.265 205.28C471.025 205.52 470.731 205.694 470.383 205.802C470.047 205.91 469.681 205.964 469.285 205.964C468.889 205.964 468.517 205.91 468.169 205.802C467.833 205.694 467.539 205.52 467.287 205.28C467.047 205.04 466.855 204.728 466.711 204.344C466.567 203.948 466.495 203.468 466.495 202.904ZM467.827 202.904C467.827 203.624 467.953 204.14 468.205 204.452C468.469 204.764 468.829 204.92 469.285 204.92C469.513 204.92 469.717 204.89 469.897 204.83C470.077 204.758 470.227 204.65 470.347 204.506C470.479 204.35 470.575 204.146 470.635 203.894C470.707 203.63 470.743 203.3 470.743 202.904C470.743 202.508 470.707 202.184 470.635 201.932C470.575 201.668 470.479 201.464 470.347 201.32C470.227 201.164 470.077 201.056 469.897 200.996C469.717 200.924 469.513 200.888 469.285 200.888C468.829 200.888 468.469 201.032 468.205 201.32C467.953 201.596 467.827 202.124 467.827 202.904ZM470.275 193.166L471.157 193.85L461.923 206.216L461.023 205.514L470.275 193.166Z" fill="#2D2D2D"/>
<rect x="33" y="248" width="466" height="48" rx="24" fill="#EDF3FE"/>
<rect x="33" y="248" width="78" height="48" rx="24" fill="#CFE0FE"/>
<path d="M68.214 269.54L68.394 267.65H68.304L67.62 269.378L64.344 275.066H63.894L60.42 269.36L59.772 267.65H59.682L59.934 269.522V278H58.53V265.4H59.646L63.588 271.844L64.182 273.248H64.218L64.776 271.808L68.538 265.4H69.708V278H68.214V269.54ZM73.1203 273.5C73.1203 271.976 73.4563 270.812 74.1283 270.008C74.8123 269.192 75.7903 268.784 77.0623 268.784C77.7343 268.784 78.3163 268.898 78.8083 269.126C79.3123 269.342 79.7263 269.66 80.0503 270.08C80.3743 270.488 80.6143 270.986 80.7703 271.574C80.9263 272.15 81.0043 272.792 81.0043 273.5C81.0043 275.024 80.6623 276.194 79.9783 277.01C79.3063 277.814 78.3343 278.216 77.0623 278.216C76.3903 278.216 75.8023 278.108 75.2983 277.892C74.8063 277.664 74.3983 277.346 74.0743 276.938C73.7503 276.518 73.5103 276.02 73.3543 275.444C73.1983 274.856 73.1203 274.208 73.1203 273.5ZM74.6143 273.5C74.6143 273.956 74.6563 274.394 74.7403 274.814C74.8363 275.234 74.9803 275.6 75.1723 275.912C75.3643 276.224 75.6163 276.476 75.9283 276.668C76.2403 276.86 76.6183 276.956 77.0623 276.956C78.6943 276.968 79.5103 275.816 79.5103 273.5C79.5103 273.032 79.4623 272.588 79.3663 272.168C79.2823 271.748 79.1443 271.382 78.9523 271.07C78.7603 270.758 78.5083 270.512 78.1963 270.332C77.8843 270.14 77.5063 270.044 77.0623 270.044C75.4303 270.032 74.6143 271.184 74.6143 273.5ZM88.5227 270.386C88.1627 270.266 87.8207 270.206 87.4967 270.206C86.9807 270.206 86.5727 270.35 86.2727 270.638C85.9727 270.914 85.7867 271.268 85.7147 271.7V278H84.2747V269H85.2827L85.5527 270.098H85.6247C85.8527 269.69 86.1227 269.378 86.4347 269.162C86.7587 268.934 87.1667 268.82 87.6587 268.82C88.0067 268.82 88.3967 268.88 88.8287 269L88.5227 270.386ZM97.9619 277.28C97.6019 277.568 97.1459 277.796 96.5939 277.964C96.0539 278.132 95.4779 278.216 94.8659 278.216C94.1819 278.216 93.5879 278.108 93.0839 277.892C92.5799 277.664 92.1659 277.346 91.8419 276.938C91.5179 276.518 91.2779 276.02 91.1219 275.444C90.9659 274.868 90.8879 274.22 90.8879 273.5C90.8879 271.964 91.2299 270.794 91.9139 269.99C92.5979 269.186 93.5759 268.784 94.8479 268.784C95.2559 268.784 95.6639 268.832 96.0719 268.928C96.4799 269.012 96.8459 269.18 97.1699 269.432C97.4939 269.684 97.7579 270.044 97.9619 270.512C98.1659 270.968 98.2679 271.574 98.2679 272.33C98.2679 272.726 98.2319 273.164 98.1599 273.644H92.3819C92.3819 274.172 92.4359 274.64 92.5439 275.048C92.6519 275.456 92.8199 275.804 93.0479 276.092C93.2759 276.368 93.5699 276.584 93.9299 276.74C94.3019 276.884 94.7519 276.956 95.2799 276.956C95.6879 276.956 96.0959 276.884 96.5039 276.74C96.9119 276.596 97.2179 276.428 97.4219 276.236L97.9619 277.28ZM94.8659 270.044C94.1579 270.044 93.5879 270.23 93.1559 270.602C92.7359 270.974 92.4839 271.61 92.3999 272.51H96.8639C96.8639 271.598 96.6899 270.962 96.3419 270.602C95.9939 270.23 95.5019 270.044 94.8659 270.044ZM106.143 269H107.547V267.218L108.987 266.804V269H111.435V270.26H108.987V275.246C108.987 275.87 109.065 276.314 109.221 276.578C109.377 276.83 109.641 276.956 110.013 276.956C110.325 276.956 110.589 276.926 110.805 276.866C111.021 276.794 111.261 276.704 111.525 276.596L111.849 277.694C111.525 277.85 111.171 277.976 110.787 278.072C110.403 278.168 109.989 278.216 109.545 278.216C108.813 278.216 108.297 278.012 107.997 277.604C107.697 277.184 107.547 276.488 107.547 275.516V270.26H106.143V269ZM120.209 278V272.87C120.209 272.402 120.179 271.994 120.119 271.646C120.071 271.286 119.975 270.992 119.831 270.764C119.687 270.524 119.489 270.344 119.237 270.224C118.997 270.104 118.679 270.044 118.283 270.044C117.719 270.044 117.209 270.23 116.753 270.602C116.297 270.962 116.003 271.43 115.871 272.006V278H114.431V265.4H115.871V270.008H115.943C116.255 269.636 116.627 269.342 117.059 269.126C117.503 268.898 118.049 268.784 118.697 268.784C119.201 268.784 119.639 268.844 120.011 268.964C120.383 269.072 120.689 269.27 120.929 269.558C121.181 269.846 121.361 270.236 121.469 270.728C121.589 271.208 121.649 271.82 121.649 272.564V278H120.209ZM125.131 269.666C125.587 269.39 126.115 269.186 126.715 269.054C127.327 268.922 127.963 268.856 128.623 268.856C129.247 268.856 129.745 268.94 130.117 269.108C130.501 269.276 130.789 269.498 130.981 269.774C131.185 270.038 131.317 270.332 131.377 270.656C131.449 270.98 131.485 271.304 131.485 271.628C131.485 272.348 131.467 273.05 131.431 273.734C131.395 274.418 131.377 275.066 131.377 275.678C131.377 276.122 131.395 276.542 131.431 276.938C131.467 277.334 131.533 277.7 131.629 278.036H130.567L130.189 276.776H130.099C129.991 276.944 129.853 277.112 129.685 277.28C129.529 277.436 129.337 277.58 129.109 277.712C128.881 277.832 128.617 277.934 128.317 278.018C128.017 278.102 127.675 278.144 127.291 278.144C126.907 278.144 126.547 278.084 126.211 277.964C125.887 277.844 125.605 277.676 125.365 277.46C125.125 277.232 124.933 276.962 124.789 276.65C124.657 276.338 124.591 275.984 124.591 275.588C124.591 275.06 124.699 274.622 124.915 274.274C125.131 273.914 125.431 273.632 125.815 273.428C126.211 273.212 126.679 273.062 127.219 272.978C127.771 272.882 128.377 272.834 129.037 272.834C129.205 272.834 129.367 272.834 129.523 272.834C129.691 272.834 129.859 272.846 130.027 272.87C130.063 272.51 130.081 272.186 130.081 271.898C130.081 271.238 129.949 270.776 129.685 270.512C129.421 270.248 128.941 270.116 128.245 270.116C128.041 270.116 127.819 270.134 127.579 270.17C127.351 270.194 127.111 270.236 126.859 270.296C126.619 270.344 126.385 270.41 126.157 270.494C125.941 270.566 125.749 270.65 125.581 270.746L125.131 269.666ZM127.687 276.884C128.023 276.884 128.323 276.842 128.587 276.758C128.851 276.662 129.079 276.548 129.271 276.416C129.463 276.272 129.619 276.116 129.739 275.948C129.871 275.78 129.967 275.618 130.027 275.462V273.968C129.859 273.956 129.685 273.95 129.505 273.95C129.337 273.938 129.169 273.932 129.001 273.932C128.629 273.932 128.263 273.956 127.903 274.004C127.555 274.04 127.243 274.118 126.967 274.238C126.703 274.346 126.487 274.502 126.319 274.706C126.163 274.898 126.085 275.144 126.085 275.444C126.085 275.864 126.235 276.212 126.535 276.488C126.835 276.752 127.219 276.884 127.687 276.884ZM140.982 278V272.87C140.982 271.934 140.844 271.232 140.568 270.764C140.304 270.284 139.812 270.044 139.092 270.044C138.456 270.044 137.928 270.218 137.508 270.566C137.1 270.902 136.812 271.328 136.644 271.844V278H135.204V269H136.212L136.482 270.098H136.554C136.842 269.714 137.226 269.402 137.706 269.162C138.198 268.91 138.78 268.784 139.452 268.784C139.944 268.784 140.376 268.844 140.748 268.964C141.12 269.072 141.426 269.27 141.666 269.558C141.918 269.846 142.104 270.236 142.224 270.728C142.356 271.208 142.422 271.82 142.422 272.564V278H140.982ZM154.673 276.956C155.081 276.956 155.459 276.896 155.807 276.776C156.155 276.656 156.455 276.482 156.707 276.254C156.959 276.014 157.157 275.732 157.301 275.408C157.445 275.084 157.517 274.73 157.517 274.346C157.517 273.506 157.265 272.882 156.761 272.474C156.269 272.066 155.585 271.862 154.709 271.862H153.377V271.34L155.969 267.344L156.797 266.552L155.627 266.732H152.063V265.4H158.489V265.922L155.627 270.224L154.997 270.746V270.782L155.609 270.656C156.089 270.668 156.533 270.758 156.941 270.926C157.349 271.082 157.703 271.316 158.003 271.628C158.303 271.928 158.537 272.294 158.705 272.726C158.873 273.146 158.957 273.626 158.957 274.166C158.957 274.814 158.843 275.39 158.615 275.894C158.387 276.398 158.075 276.824 157.679 277.172C157.295 277.508 156.839 277.766 156.311 277.946C155.783 278.126 155.225 278.216 154.637 278.216C154.097 278.216 153.611 278.174 153.179 278.09C152.747 278.006 152.369 277.898 152.045 277.766L152.423 276.488C152.699 276.62 153.023 276.734 153.395 276.83C153.779 276.914 154.205 276.956 154.673 276.956ZM174.232 278V272.87C174.232 272.402 174.202 271.994 174.142 271.646C174.094 271.286 173.998 270.992 173.854 270.764C173.71 270.524 173.512 270.344 173.26 270.224C173.02 270.104 172.702 270.044 172.306 270.044C171.742 270.044 171.232 270.23 170.776 270.602C170.32 270.962 170.026 271.43 169.894 272.006V278H168.454V265.4H169.894V270.008H169.966C170.278 269.636 170.65 269.342 171.082 269.126C171.526 268.898 172.072 268.784 172.72 268.784C173.224 268.784 173.662 268.844 174.034 268.964C174.406 269.072 174.712 269.27 174.952 269.558C175.204 269.846 175.384 270.236 175.492 270.728C175.612 271.208 175.672 271.82 175.672 272.564V278H174.232ZM178.794 273.5C178.794 271.976 179.13 270.812 179.802 270.008C180.486 269.192 181.464 268.784 182.736 268.784C183.408 268.784 183.99 268.898 184.482 269.126C184.986 269.342 185.4 269.66 185.724 270.08C186.048 270.488 186.288 270.986 186.444 271.574C186.6 272.15 186.678 272.792 186.678 273.5C186.678 275.024 186.336 276.194 185.652 277.01C184.98 277.814 184.008 278.216 182.736 278.216C182.064 278.216 181.476 278.108 180.972 277.892C180.48 277.664 180.072 277.346 179.748 276.938C179.424 276.518 179.184 276.02 179.028 275.444C178.872 274.856 178.794 274.208 178.794 273.5ZM180.288 273.5C180.288 273.956 180.33 274.394 180.414 274.814C180.51 275.234 180.654 275.6 180.846 275.912C181.038 276.224 181.29 276.476 181.602 276.668C181.914 276.86 182.292 276.956 182.736 276.956C184.368 276.968 185.184 275.816 185.184 273.5C185.184 273.032 185.136 272.588 185.04 272.168C184.956 271.748 184.818 271.382 184.626 271.07C184.434 270.758 184.182 270.512 183.87 270.332C183.558 270.14 183.18 270.044 182.736 270.044C181.104 270.032 180.288 271.184 180.288 273.5ZM191.245 269V274.13C191.245 274.598 191.269 275.012 191.317 275.372C191.377 275.72 191.473 276.014 191.605 276.254C191.737 276.482 191.917 276.656 192.145 276.776C192.373 276.896 192.661 276.956 193.009 276.956C193.333 276.956 193.621 276.908 193.873 276.812C194.125 276.704 194.347 276.56 194.539 276.38C194.743 276.2 194.917 275.996 195.061 275.768C195.217 275.528 195.343 275.276 195.439 275.012V269H196.879V275.444C196.879 275.876 196.891 276.326 196.915 276.794C196.951 277.25 197.005 277.652 197.077 278H196.087L195.727 276.578H195.637C195.361 277.046 194.989 277.436 194.521 277.748C194.053 278.06 193.459 278.216 192.739 278.216C192.259 278.216 191.833 278.156 191.461 278.036C191.101 277.928 190.795 277.73 190.543 277.442C190.303 277.154 190.117 276.77 189.985 276.29C189.865 275.798 189.805 275.18 189.805 274.436V269H191.245ZM204.9 270.386C204.54 270.266 204.198 270.206 203.874 270.206C203.358 270.206 202.95 270.35 202.65 270.638C202.35 270.914 202.164 271.268 202.092 271.7V278H200.652V269H201.66L201.93 270.098H202.002C202.23 269.69 202.5 269.378 202.812 269.162C203.136 268.934 203.544 268.82 204.036 268.82C204.384 268.82 204.774 268.88 205.206 269L204.9 270.386ZM211.729 275.552C211.729 275.192 211.621 274.91 211.405 274.706C211.189 274.502 210.919 274.334 210.595 274.202C210.283 274.058 209.935 273.926 209.551 273.806C209.179 273.674 208.831 273.512 208.507 273.32C208.195 273.116 207.931 272.858 207.715 272.546C207.499 272.234 207.391 271.814 207.391 271.286C207.391 270.422 207.637 269.792 208.129 269.396C208.621 268.988 209.305 268.784 210.181 268.784C210.829 268.784 211.369 268.844 211.801 268.964C212.245 269.072 212.629 269.204 212.953 269.36L212.611 270.548C212.335 270.416 211.999 270.302 211.603 270.206C211.219 270.098 210.805 270.044 210.361 270.044C209.833 270.044 209.443 270.134 209.191 270.314C208.951 270.494 208.831 270.806 208.831 271.25C208.831 271.562 208.939 271.808 209.155 271.988C209.371 272.156 209.635 272.312 209.947 272.456C210.271 272.588 210.619 272.72 210.991 272.852C211.375 272.984 211.723 273.158 212.035 273.374C212.359 273.59 212.629 273.866 212.845 274.202C213.061 274.526 213.169 274.958 213.169 275.498C213.169 275.882 213.103 276.242 212.971 276.578C212.851 276.914 212.659 277.202 212.395 277.442C212.131 277.682 211.801 277.868 211.405 278C211.021 278.144 210.565 278.216 210.037 278.216C209.353 278.216 208.771 278.15 208.291 278.018C207.811 277.886 207.409 277.73 207.085 277.55L207.517 276.326C207.793 276.482 208.153 276.626 208.597 276.758C209.041 276.89 209.491 276.956 209.947 276.956C210.463 276.956 210.889 276.854 211.225 276.65C211.561 276.446 211.729 276.08 211.729 275.552Z" fill="#2D2D2D"/>
<path d="M451.834 276.956C452.662 276.956 453.346 276.716 453.886 276.236C454.426 275.756 454.696 275.06 454.696 274.148C454.696 273.272 454.426 272.618 453.886 272.186C453.358 271.754 452.626 271.538 451.69 271.538L450.178 271.628V265.4H455.794V266.732H451.528V270.314L452.302 270.278C453.49 270.29 454.426 270.62 455.11 271.268C455.794 271.916 456.136 272.846 456.136 274.058C456.136 274.73 456.022 275.33 455.794 275.858C455.566 276.374 455.254 276.806 454.858 277.154C454.474 277.502 454.018 277.766 453.49 277.946C452.962 278.126 452.398 278.216 451.798 278.216C451.258 278.216 450.802 278.186 450.43 278.126C450.058 278.066 449.71 277.976 449.386 277.856L449.764 276.632C450.04 276.74 450.334 276.824 450.646 276.884C450.97 276.932 451.366 276.956 451.834 276.956ZM460.069 268.244C460.069 267.704 460.141 267.242 460.285 266.858C460.429 266.474 460.621 266.156 460.861 265.904C461.113 265.652 461.407 265.472 461.743 265.364C462.091 265.244 462.463 265.184 462.859 265.184C463.255 265.184 463.621 265.238 463.957 265.346C464.305 265.454 464.599 265.628 464.839 265.868C465.091 266.108 465.289 266.426 465.433 266.822C465.577 267.206 465.649 267.68 465.649 268.244C465.649 268.808 465.577 269.288 465.433 269.684C465.289 270.068 465.091 270.38 464.839 270.62C464.599 270.86 464.305 271.034 463.957 271.142C463.621 271.25 463.255 271.304 462.859 271.304C462.463 271.304 462.091 271.25 461.743 271.142C461.407 271.034 461.113 270.86 460.861 270.62C460.621 270.38 460.429 270.068 460.285 269.684C460.141 269.288 460.069 268.808 460.069 268.244ZM461.401 268.244C461.401 268.964 461.527 269.48 461.779 269.792C462.043 270.104 462.403 270.26 462.859 270.26C463.087 270.26 463.291 270.23 463.471 270.17C463.651 270.098 463.801 269.99 463.921 269.846C464.053 269.69 464.149 269.486 464.209 269.234C464.281 268.97 464.317 268.64 464.317 268.244C464.317 267.848 464.281 267.524 464.209 267.272C464.149 267.008 464.053 266.804 463.921 266.66C463.801 266.504 463.651 266.396 463.471 266.336C463.291 266.264 463.087 266.228 462.859 266.228C462.403 266.228 462.043 266.372 461.779 266.66C461.527 266.936 461.401 267.464 461.401 268.244ZM466.495 274.904C466.495 274.364 466.567 273.902 466.711 273.518C466.855 273.134 467.047 272.816 467.287 272.564C467.539 272.312 467.833 272.132 468.169 272.024C468.517 271.904 468.889 271.844 469.285 271.844C469.681 271.844 470.047 271.898 470.383 272.006C470.731 272.114 471.025 272.288 471.265 272.528C471.517 272.768 471.715 273.086 471.859 273.482C472.003 273.866 472.075 274.34 472.075 274.904C472.075 275.468 472.003 275.948 471.859 276.344C471.715 276.728 471.517 277.04 471.265 277.28C471.025 277.52 470.731 277.694 470.383 277.802C470.047 277.91 469.681 277.964 469.285 277.964C468.889 277.964 468.517 277.91 468.169 277.802C467.833 277.694 467.539 277.52 467.287 277.28C467.047 277.04 466.855 276.728 466.711 276.344C466.567 275.948 466.495 275.468 466.495 274.904ZM467.827 274.904C467.827 275.624 467.953 276.14 468.205 276.452C468.469 276.764 468.829 276.92 469.285 276.92C469.513 276.92 469.717 276.89 469.897 276.83C470.077 276.758 470.227 276.65 470.347 276.506C470.479 276.35 470.575 276.146 470.635 275.894C470.707 275.63 470.743 275.3 470.743 274.904C470.743 274.508 470.707 274.184 470.635 273.932C470.575 273.668 470.479 273.464 470.347 273.32C470.227 273.164 470.077 273.056 469.897 272.996C469.717 272.924 469.513 272.888 469.285 272.888C468.829 272.888 468.469 273.032 468.205 273.32C467.953 273.596 467.827 274.124 467.827 274.904ZM470.275 265.166L471.157 265.85L461.923 278.216L461.023 277.514L470.275 265.166Z" fill="#2D2D2D"/>
</svg>
