<svg width="531" height="328" viewBox="0 0 531 328" fill="none" xmlns="http://www.w3.org/2000/svg">
<rect width="531" height="328" rx="12" fill="white"/>
<rect x="32" y="32" width="466" height="48" rx="24" fill="#EEFAF3"/>
<rect x="32" y="104" width="466" height="48" rx="24" fill="#EEFAF3"/>
<rect x="32" y="176" width="466" height="48" rx="24" fill="#EEFAF3"/>
<rect x="32" y="248" width="466" height="48" rx="24" fill="#EEFAF3"/>
<rect x="32" y="32" width="257" height="48" rx="24" fill="#CDF1DE"/>
<rect x="32" y="104" width="138" height="48" rx="24" fill="#CDF1DE"/>
<rect x="32" y="176" width="80" height="48" rx="24" fill="#CDF1DE"/>
<rect x="32" y="248" width="62" height="48" rx="24" fill="#CDF1DE"/>
<path d="M60.302 56.996L56.144 49.4H57.89L60.842 54.908L61.148 56.006H61.166L61.49 54.872L64.316 49.4H65.918L61.796 56.978V62H60.302V56.996ZM73.4638 61.28C73.1038 61.568 72.6478 61.796 72.0958 61.964C71.5558 62.132 70.9798 62.216 70.3678 62.216C69.6838 62.216 69.0898 62.108 68.5858 61.892C68.0818 61.664 67.6678 61.346 67.3438 60.938C67.0198 60.518 66.7798 60.02 66.6238 59.444C66.4678 58.868 66.3898 58.22 66.3898 57.5C66.3898 55.964 66.7318 54.794 67.4158 53.99C68.0998 53.186 69.0778 52.784 70.3498 52.784C70.7578 52.784 71.1658 52.832 71.5738 52.928C71.9818 53.012 72.3478 53.18 72.6718 53.432C72.9958 53.684 73.2598 54.044 73.4638 54.512C73.6678 54.968 73.7698 55.574 73.7698 56.33C73.7698 56.726 73.7338 57.164 73.6618 57.644H67.8838C67.8838 58.172 67.9378 58.64 68.0458 59.048C68.1538 59.456 68.3218 59.804 68.5498 60.092C68.7778 60.368 69.0718 60.584 69.4318 60.74C69.8038 60.884 70.2538 60.956 70.7818 60.956C71.1898 60.956 71.5978 60.884 72.0058 60.74C72.4138 60.596 72.7198 60.428 72.9238 60.236L73.4638 61.28ZM70.3678 54.044C69.6598 54.044 69.0898 54.23 68.6578 54.602C68.2378 54.974 67.9858 55.61 67.9018 56.51H72.3658C72.3658 55.598 72.1918 54.962 71.8438 54.602C71.4958 54.23 71.0038 54.044 70.3678 54.044ZM80.9944 59.552C80.9944 59.192 80.8864 58.91 80.6704 58.706C80.4544 58.502 80.1844 58.334 79.8604 58.202C79.5484 58.058 79.2004 57.926 78.8164 57.806C78.4444 57.674 78.0964 57.512 77.7724 57.32C77.4604 57.116 77.1964 56.858 76.9804 56.546C76.7644 56.234 76.6564 55.814 76.6564 55.286C76.6564 54.422 76.9024 53.792 77.3944 53.396C77.8864 52.988 78.5704 52.784 79.4464 52.784C80.0944 52.784 80.6344 52.844 81.0664 52.964C81.5104 53.072 81.8944 53.204 82.2184 53.36L81.8764 54.548C81.6004 54.416 81.2644 54.302 80.8684 54.206C80.4844 54.098 80.0704 54.044 79.6264 54.044C79.0984 54.044 78.7084 54.134 78.4564 54.314C78.2164 54.494 78.0964 54.806 78.0964 55.25C78.0964 55.562 78.2044 55.808 78.4204 55.988C78.6364 56.156 78.9004 56.312 79.2124 56.456C79.5364 56.588 79.8844 56.72 80.2564 56.852C80.6404 56.984 80.9884 57.158 81.3004 57.374C81.6244 57.59 81.8944 57.866 82.1104 58.202C82.3264 58.526 82.4344 58.958 82.4344 59.498C82.4344 59.882 82.3684 60.242 82.2364 60.578C82.1164 60.914 81.9244 61.202 81.6604 61.442C81.3964 61.682 81.0664 61.868 80.6704 62C80.2864 62.144 79.8304 62.216 79.3024 62.216C78.6184 62.216 78.0364 62.15 77.5564 62.018C77.0764 61.886 76.6744 61.73 76.3504 61.55L76.7824 60.326C77.0584 60.482 77.4184 60.626 77.8624 60.758C78.3064 60.89 78.7564 60.956 79.2124 60.956C79.7284 60.956 80.1544 60.854 80.4904 60.65C80.8264 60.446 80.9944 60.08 80.9944 59.552ZM85.1066 61.226C85.1066 60.938 85.2026 60.704 85.3946 60.524C85.5866 60.344 85.8326 60.254 86.1326 60.254C86.5046 60.254 86.8046 60.386 87.0326 60.65C87.2726 60.914 87.3926 61.298 87.3926 61.802C87.3926 62.234 87.3326 62.612 87.2126 62.936C87.0926 63.26 86.9366 63.536 86.7446 63.764C86.5526 64.004 86.3426 64.196 86.1146 64.34C85.8866 64.496 85.6586 64.61 85.4306 64.682L84.9806 63.98C85.4126 63.812 85.7306 63.548 85.9346 63.188C86.1506 62.84 86.2586 62.486 86.2586 62.126C86.1506 62.162 86.0486 62.18 85.9526 62.18C85.7126 62.18 85.5086 62.102 85.3406 61.946C85.1846 61.778 85.1066 61.538 85.1066 61.226ZM94.0148 57.5C94.0148 55.976 94.3508 54.812 95.0228 54.008C95.7068 53.192 96.6848 52.784 97.9568 52.784C98.6288 52.784 99.2108 52.898 99.7028 53.126C100.207 53.342 100.621 53.66 100.945 54.08C101.269 54.488 101.509 54.986 101.665 55.574C101.821 56.15 101.899 56.792 101.899 57.5C101.899 59.024 101.557 60.194 100.873 61.01C100.201 61.814 99.2288 62.216 97.9568 62.216C97.2848 62.216 96.6968 62.108 96.1928 61.892C95.7008 61.664 95.2928 61.346 94.9688 60.938C94.6448 60.518 94.4048 60.02 94.2488 59.444C94.0928 58.856 94.0148 58.208 94.0148 57.5ZM95.5088 57.5C95.5088 57.956 95.5508 58.394 95.6348 58.814C95.7308 59.234 95.8748 59.6 96.0668 59.912C96.2588 60.224 96.5108 60.476 96.8228 60.668C97.1348 60.86 97.5128 60.956 97.9568 60.956C99.5888 60.968 100.405 59.816 100.405 57.5C100.405 57.032 100.357 56.588 100.261 56.168C100.177 55.748 100.039 55.382 99.8468 55.07C99.6548 54.758 99.4028 54.512 99.0908 54.332C98.7788 54.14 98.4008 54.044 97.9568 54.044C96.3248 54.032 95.5088 55.184 95.5088 57.5ZM103.968 53H105.372V52.496C105.372 51.944 105.414 51.464 105.498 51.056C105.594 50.648 105.744 50.318 105.948 50.066C106.152 49.802 106.416 49.61 106.74 49.49C107.064 49.358 107.466 49.292 107.946 49.292C108.33 49.292 108.666 49.316 108.954 49.364C109.254 49.412 109.566 49.502 109.89 49.634L109.566 50.84C109.29 50.72 109.026 50.642 108.774 50.606C108.534 50.57 108.306 50.552 108.09 50.552C107.778 50.552 107.532 50.6 107.352 50.696C107.184 50.792 107.058 50.936 106.974 51.128C106.902 51.308 106.854 51.536 106.83 51.812C106.818 52.076 106.812 52.388 106.812 52.748V53H109.206V54.26H106.812V62H105.372V54.26H103.968V53ZM110.237 53H111.641V51.218L113.081 50.804V53H115.529V54.26H113.081V59.246C113.081 59.87 113.159 60.314 113.315 60.578C113.471 60.83 113.735 60.956 114.107 60.956C114.419 60.956 114.683 60.926 114.899 60.866C115.115 60.794 115.355 60.704 115.619 60.596L115.943 61.694C115.619 61.85 115.265 61.976 114.881 62.072C114.497 62.168 114.083 62.216 113.639 62.216C112.907 62.216 112.391 62.012 112.091 61.604C111.791 61.184 111.641 60.488 111.641 59.516V54.26H110.237V53ZM124.901 61.28C124.541 61.568 124.085 61.796 123.533 61.964C122.993 62.132 122.417 62.216 121.805 62.216C121.121 62.216 120.527 62.108 120.023 61.892C119.519 61.664 119.105 61.346 118.781 60.938C118.457 60.518 118.217 60.02 118.061 59.444C117.905 58.868 117.827 58.22 117.827 57.5C117.827 55.964 118.169 54.794 118.853 53.99C119.537 53.186 120.515 52.784 121.787 52.784C122.195 52.784 122.603 52.832 123.011 52.928C123.419 53.012 123.785 53.18 124.109 53.432C124.433 53.684 124.697 54.044 124.901 54.512C125.105 54.968 125.207 55.574 125.207 56.33C125.207 56.726 125.171 57.164 125.099 57.644H119.321C119.321 58.172 119.375 58.64 119.483 59.048C119.591 59.456 119.759 59.804 119.987 60.092C120.215 60.368 120.509 60.584 120.869 60.74C121.241 60.884 121.691 60.956 122.219 60.956C122.627 60.956 123.035 60.884 123.443 60.74C123.851 60.596 124.157 60.428 124.361 60.236L124.901 61.28ZM121.805 54.044C121.097 54.044 120.527 54.23 120.095 54.602C119.675 54.974 119.423 55.61 119.339 56.51H123.803C123.803 55.598 123.629 54.962 123.281 54.602C122.933 54.23 122.441 54.044 121.805 54.044ZM134.25 62V56.87C134.25 55.934 134.112 55.232 133.836 54.764C133.572 54.284 133.08 54.044 132.36 54.044C131.724 54.044 131.196 54.218 130.776 54.566C130.368 54.902 130.08 55.328 129.912 55.844V62H128.472V53H129.48L129.75 54.098H129.822C130.11 53.714 130.494 53.402 130.974 53.162C131.466 52.91 132.048 52.784 132.72 52.784C133.212 52.784 133.644 52.844 134.016 52.964C134.388 53.072 134.694 53.27 134.934 53.558C135.186 53.846 135.372 54.236 135.492 54.728C135.624 55.208 135.69 55.82 135.69 56.564V62H134.25Z" fill="#2D2D2D"/>
<path d="M57.008 127.7C57.008 125.6 57.452 123.992 58.34 122.876C59.228 121.748 60.494 121.184 62.138 121.184C63.026 121.184 63.794 121.34 64.442 121.652C65.09 121.964 65.624 122.408 66.044 122.984C66.476 123.548 66.794 124.232 66.998 125.036C67.202 125.828 67.304 126.716 67.304 127.7C67.304 129.8 66.854 131.414 65.954 132.542C65.066 133.658 63.794 134.216 62.138 134.216C61.262 134.216 60.5 134.06 59.852 133.748C59.216 133.436 58.682 132.998 58.25 132.434C57.83 131.858 57.518 131.174 57.314 130.382C57.11 129.578 57.008 128.684 57.008 127.7ZM58.592 127.7C58.592 128.396 58.658 129.056 58.79 129.68C58.934 130.304 59.15 130.856 59.438 131.336C59.726 131.804 60.092 132.182 60.536 132.47C60.992 132.746 61.526 132.884 62.138 132.884C63.254 132.884 64.13 132.464 64.766 131.624C65.402 130.772 65.72 129.464 65.72 127.7C65.72 127.016 65.648 126.362 65.504 125.738C65.372 125.102 65.156 124.55 64.856 124.082C64.568 123.602 64.196 123.224 63.74 122.948C63.296 122.66 62.762 122.516 62.138 122.516C61.034 122.516 60.164 122.942 59.528 123.794C58.904 124.634 58.592 125.936 58.592 127.7ZM76.8287 133.406C76.4687 133.67 76.0427 133.868 75.5507 134C75.0587 134.144 74.5427 134.216 74.0027 134.216C73.3067 134.216 72.7187 134.108 72.2387 133.892C71.7587 133.664 71.3627 133.346 71.0507 132.938C70.7507 132.518 70.5287 132.02 70.3847 131.444C70.2527 130.856 70.1867 130.208 70.1867 129.5C70.1867 127.976 70.5227 126.812 71.1947 126.008C71.8667 125.192 72.8327 124.784 74.0927 124.784C74.6687 124.784 75.1547 124.832 75.5507 124.928C75.9587 125.012 76.3247 125.138 76.6487 125.306L76.2347 126.548C75.9587 126.392 75.6527 126.272 75.3167 126.188C74.9807 126.092 74.6207 126.044 74.2367 126.044C72.5327 126.044 71.6807 127.196 71.6807 129.5C71.6807 129.956 71.7227 130.394 71.8067 130.814C71.9027 131.222 72.0527 131.588 72.2567 131.912C72.4727 132.224 72.7487 132.476 73.0847 132.668C73.4327 132.86 73.8587 132.956 74.3627 132.956C74.7947 132.956 75.1787 132.89 75.5147 132.758C75.8627 132.626 76.1447 132.476 76.3607 132.308L76.8287 133.406ZM85.5279 133.406C85.1679 133.67 84.7419 133.868 84.2499 134C83.7579 134.144 83.2419 134.216 82.7019 134.216C82.0059 134.216 81.4179 134.108 80.9379 133.892C80.4579 133.664 80.0619 133.346 79.7499 132.938C79.4499 132.518 79.2279 132.02 79.0839 131.444C78.9519 130.856 78.8859 130.208 78.8859 129.5C78.8859 127.976 79.2219 126.812 79.8939 126.008C80.5659 125.192 81.5319 124.784 82.7919 124.784C83.3679 124.784 83.8539 124.832 84.2499 124.928C84.6579 125.012 85.0239 125.138 85.3479 125.306L84.9339 126.548C84.6579 126.392 84.3519 126.272 84.0159 126.188C83.6799 126.092 83.3199 126.044 82.9359 126.044C81.2319 126.044 80.3799 127.196 80.3799 129.5C80.3799 129.956 80.4219 130.394 80.5059 130.814C80.6019 131.222 80.7519 131.588 80.9559 131.912C81.1719 132.224 81.4479 132.476 81.7839 132.668C82.1319 132.86 82.5579 132.956 83.0619 132.956C83.4939 132.956 83.8779 132.89 84.2139 132.758C84.5619 132.626 84.8439 132.476 85.0599 132.308L85.5279 133.406ZM88.367 125.666C88.823 125.39 89.351 125.186 89.951 125.054C90.563 124.922 91.199 124.856 91.859 124.856C92.483 124.856 92.981 124.94 93.353 125.108C93.737 125.276 94.025 125.498 94.217 125.774C94.421 126.038 94.553 126.332 94.613 126.656C94.685 126.98 94.721 127.304 94.721 127.628C94.721 128.348 94.703 129.05 94.667 129.734C94.631 130.418 94.613 131.066 94.613 131.678C94.613 132.122 94.631 132.542 94.667 132.938C94.703 133.334 94.769 133.7 94.865 134.036H93.803L93.425 132.776H93.335C93.227 132.944 93.089 133.112 92.921 133.28C92.765 133.436 92.573 133.58 92.345 133.712C92.117 133.832 91.853 133.934 91.553 134.018C91.253 134.102 90.911 134.144 90.527 134.144C90.143 134.144 89.783 134.084 89.447 133.964C89.123 133.844 88.841 133.676 88.601 133.46C88.361 133.232 88.169 132.962 88.025 132.65C87.893 132.338 87.827 131.984 87.827 131.588C87.827 131.06 87.935 130.622 88.151 130.274C88.367 129.914 88.667 129.632 89.051 129.428C89.447 129.212 89.915 129.062 90.455 128.978C91.007 128.882 91.613 128.834 92.273 128.834C92.441 128.834 92.603 128.834 92.759 128.834C92.927 128.834 93.095 128.846 93.263 128.87C93.299 128.51 93.317 128.186 93.317 127.898C93.317 127.238 93.185 126.776 92.921 126.512C92.657 126.248 92.177 126.116 91.481 126.116C91.277 126.116 91.055 126.134 90.815 126.17C90.587 126.194 90.347 126.236 90.095 126.296C89.855 126.344 89.621 126.41 89.393 126.494C89.177 126.566 88.985 126.65 88.817 126.746L88.367 125.666ZM90.923 132.884C91.259 132.884 91.559 132.842 91.823 132.758C92.087 132.662 92.315 132.548 92.507 132.416C92.699 132.272 92.855 132.116 92.975 131.948C93.107 131.78 93.203 131.618 93.263 131.462V129.968C93.095 129.956 92.921 129.95 92.741 129.95C92.573 129.938 92.405 129.932 92.237 129.932C91.865 129.932 91.499 129.956 91.139 130.004C90.791 130.04 90.479 130.118 90.203 130.238C89.939 130.346 89.723 130.502 89.555 130.706C89.399 130.898 89.321 131.144 89.321 131.444C89.321 131.864 89.471 132.212 89.771 132.488C90.071 132.752 90.455 132.884 90.923 132.884ZM102.401 131.552C102.401 131.192 102.293 130.91 102.077 130.706C101.861 130.502 101.591 130.334 101.267 130.202C100.955 130.058 100.607 129.926 100.223 129.806C99.8507 129.674 99.5027 129.512 99.1787 129.32C98.8667 129.116 98.6027 128.858 98.3867 128.546C98.1707 128.234 98.0627 127.814 98.0627 127.286C98.0627 126.422 98.3087 125.792 98.8007 125.396C99.2927 124.988 99.9767 124.784 100.853 124.784C101.501 124.784 102.041 124.844 102.473 124.964C102.917 125.072 103.301 125.204 103.625 125.36L103.283 126.548C103.007 126.416 102.671 126.302 102.275 126.206C101.891 126.098 101.477 126.044 101.033 126.044C100.505 126.044 100.115 126.134 99.8627 126.314C99.6227 126.494 99.5027 126.806 99.5027 127.25C99.5027 127.562 99.6107 127.808 99.8267 127.988C100.043 128.156 100.307 128.312 100.619 128.456C100.943 128.588 101.291 128.72 101.663 128.852C102.047 128.984 102.395 129.158 102.707 129.374C103.031 129.59 103.301 129.866 103.517 130.202C103.733 130.526 103.841 130.958 103.841 131.498C103.841 131.882 103.775 132.242 103.643 132.578C103.523 132.914 103.331 133.202 103.067 133.442C102.803 133.682 102.473 133.868 102.077 134C101.693 134.144 101.237 134.216 100.709 134.216C100.025 134.216 99.4427 134.15 98.9627 134.018C98.4827 133.886 98.0807 133.73 97.7567 133.55L98.1887 132.326C98.4647 132.482 98.8247 132.626 99.2687 132.758C99.7127 132.89 100.163 132.956 100.619 132.956C101.135 132.956 101.561 132.854 101.897 132.65C102.233 132.446 102.401 132.08 102.401 131.552ZM107.323 125H108.763V134H107.323V125ZM107.017 122.264C107.017 121.988 107.107 121.754 107.287 121.562C107.479 121.358 107.719 121.256 108.007 121.256C108.295 121.256 108.541 121.358 108.745 121.562C108.949 121.754 109.051 121.988 109.051 122.264C109.051 122.54 108.949 122.768 108.745 122.948C108.541 123.128 108.295 123.218 108.007 123.218C107.719 123.218 107.479 123.128 107.287 122.948C107.107 122.768 107.017 122.54 107.017 122.264ZM112.329 129.5C112.329 127.976 112.665 126.812 113.337 126.008C114.021 125.192 114.999 124.784 116.271 124.784C116.943 124.784 117.525 124.898 118.017 125.126C118.521 125.342 118.935 125.66 119.259 126.08C119.583 126.488 119.823 126.986 119.979 127.574C120.135 128.15 120.213 128.792 120.213 129.5C120.213 131.024 119.871 132.194 119.187 133.01C118.515 133.814 117.543 134.216 116.271 134.216C115.599 134.216 115.011 134.108 114.507 133.892C114.015 133.664 113.607 133.346 113.283 132.938C112.959 132.518 112.719 132.02 112.563 131.444C112.407 130.856 112.329 130.208 112.329 129.5ZM113.823 129.5C113.823 129.956 113.865 130.394 113.949 130.814C114.045 131.234 114.189 131.6 114.381 131.912C114.573 132.224 114.825 132.476 115.137 132.668C115.449 132.86 115.827 132.956 116.271 132.956C117.903 132.968 118.719 131.816 118.719 129.5C118.719 129.032 118.671 128.588 118.575 128.168C118.491 127.748 118.353 127.382 118.161 127.07C117.969 126.758 117.717 126.512 117.405 126.332C117.093 126.14 116.715 126.044 116.271 126.044C114.639 126.032 113.823 127.184 113.823 129.5ZM129.262 134V128.87C129.262 127.934 129.124 127.232 128.848 126.764C128.584 126.284 128.092 126.044 127.372 126.044C126.736 126.044 126.208 126.218 125.788 126.566C125.38 126.902 125.092 127.328 124.924 127.844V134H123.484V125H124.492L124.762 126.098H124.834C125.122 125.714 125.506 125.402 125.986 125.162C126.478 124.91 127.06 124.784 127.732 124.784C128.224 124.784 128.656 124.844 129.028 124.964C129.4 125.072 129.706 125.27 129.946 125.558C130.198 125.846 130.384 126.236 130.504 126.728C130.636 127.208 130.702 127.82 130.702 128.564V134H129.262ZM134.183 125.666C134.639 125.39 135.167 125.186 135.767 125.054C136.379 124.922 137.015 124.856 137.675 124.856C138.299 124.856 138.797 124.94 139.169 125.108C139.553 125.276 139.841 125.498 140.033 125.774C140.237 126.038 140.369 126.332 140.429 126.656C140.501 126.98 140.537 127.304 140.537 127.628C140.537 128.348 140.519 129.05 140.483 129.734C140.447 130.418 140.429 131.066 140.429 131.678C140.429 132.122 140.447 132.542 140.483 132.938C140.519 133.334 140.585 133.7 140.681 134.036H139.619L139.241 132.776H139.151C139.043 132.944 138.905 133.112 138.737 133.28C138.581 133.436 138.389 133.58 138.161 133.712C137.933 133.832 137.669 133.934 137.369 134.018C137.069 134.102 136.727 134.144 136.343 134.144C135.959 134.144 135.599 134.084 135.263 133.964C134.939 133.844 134.657 133.676 134.417 133.46C134.177 133.232 133.985 132.962 133.841 132.65C133.709 132.338 133.643 131.984 133.643 131.588C133.643 131.06 133.751 130.622 133.967 130.274C134.183 129.914 134.483 129.632 134.867 129.428C135.263 129.212 135.731 129.062 136.271 128.978C136.823 128.882 137.429 128.834 138.089 128.834C138.257 128.834 138.419 128.834 138.575 128.834C138.743 128.834 138.911 128.846 139.079 128.87C139.115 128.51 139.133 128.186 139.133 127.898C139.133 127.238 139.001 126.776 138.737 126.512C138.473 126.248 137.993 126.116 137.297 126.116C137.093 126.116 136.871 126.134 136.631 126.17C136.403 126.194 136.163 126.236 135.911 126.296C135.671 126.344 135.437 126.41 135.209 126.494C134.993 126.566 134.801 126.65 134.633 126.746L134.183 125.666ZM136.739 132.884C137.075 132.884 137.375 132.842 137.639 132.758C137.903 132.662 138.131 132.548 138.323 132.416C138.515 132.272 138.671 132.116 138.791 131.948C138.923 131.78 139.019 131.618 139.079 131.462V129.968C138.911 129.956 138.737 129.95 138.557 129.95C138.389 129.938 138.221 129.932 138.053 129.932C137.681 129.932 137.315 129.956 136.955 130.004C136.607 130.04 136.295 130.118 136.019 130.238C135.755 130.346 135.539 130.502 135.371 130.706C135.215 130.898 135.137 131.144 135.137 131.444C135.137 131.864 135.287 132.212 135.587 132.488C135.887 132.752 136.271 132.884 136.739 132.884ZM145.859 131.786C145.859 132.206 145.931 132.506 146.075 132.686C146.219 132.866 146.423 132.956 146.687 132.956C146.843 132.956 147.011 132.944 147.191 132.92C147.371 132.896 147.575 132.842 147.803 132.758L147.965 133.892C147.773 133.988 147.503 134.066 147.155 134.126C146.819 134.186 146.525 134.216 146.273 134.216C145.733 134.216 145.289 134.066 144.941 133.766C144.593 133.454 144.419 132.932 144.419 132.2V121.4H145.859V131.786ZM152.115 131.786C152.115 132.206 152.187 132.506 152.331 132.686C152.475 132.866 152.679 132.956 152.943 132.956C153.099 132.956 153.267 132.944 153.447 132.92C153.627 132.896 153.831 132.842 154.059 132.758L154.221 133.892C154.029 133.988 153.759 134.066 153.411 134.126C153.075 134.186 152.781 134.216 152.529 134.216C151.989 134.216 151.545 134.066 151.197 133.766C150.849 133.454 150.675 132.932 150.675 132.2V121.4H152.115V131.786ZM159.415 130.832L159.919 132.56H160.009L160.405 130.814L162.151 125H163.609L160.945 133.082C160.741 133.67 160.537 134.24 160.333 134.792C160.141 135.344 159.925 135.836 159.685 136.268C159.445 136.7 159.175 137.042 158.875 137.294C158.575 137.558 158.227 137.69 157.831 137.69C157.399 137.69 157.045 137.63 156.769 137.51L157.021 136.268C157.177 136.328 157.327 136.358 157.471 136.358C157.807 136.358 158.131 136.178 158.443 135.818C158.755 135.47 159.013 134.864 159.217 134L155.599 125H157.255L159.415 130.832Z" fill="#2D2D2D"/>
<path d="M57.53 193.526C57.986 193.442 58.508 193.376 59.096 193.328C59.696 193.28 60.242 193.256 60.734 193.256C61.286 193.256 61.808 193.316 62.3 193.436C62.804 193.556 63.242 193.754 63.614 194.03C63.998 194.306 64.304 194.666 64.532 195.11C64.76 195.554 64.874 196.094 64.874 196.73C64.874 197.714 64.604 198.512 64.064 199.124C63.524 199.736 62.84 200.144 62.012 200.348L62.876 201.014L66.008 206H64.262L60.788 200.564L59.024 200.294V206H57.53V193.526ZM60.77 194.552C60.614 194.552 60.452 194.552 60.284 194.552C60.116 194.552 59.954 194.558 59.798 194.57C59.642 194.582 59.492 194.594 59.348 194.606C59.216 194.618 59.108 194.636 59.024 194.66V199.304H60.428C61.256 199.304 61.94 199.1 62.48 198.692C63.02 198.284 63.29 197.648 63.29 196.784C63.29 196.136 63.068 195.602 62.624 195.182C62.18 194.762 61.562 194.552 60.77 194.552ZM68.7713 197.666C69.2273 197.39 69.7553 197.186 70.3553 197.054C70.9673 196.922 71.6033 196.856 72.2633 196.856C72.8873 196.856 73.3853 196.94 73.7573 197.108C74.1413 197.276 74.4293 197.498 74.6213 197.774C74.8253 198.038 74.9573 198.332 75.0173 198.656C75.0893 198.98 75.1253 199.304 75.1253 199.628C75.1253 200.348 75.1073 201.05 75.0713 201.734C75.0353 202.418 75.0173 203.066 75.0173 203.678C75.0173 204.122 75.0353 204.542 75.0713 204.938C75.1073 205.334 75.1733 205.7 75.2693 206.036H74.2073L73.8293 204.776H73.7393C73.6313 204.944 73.4933 205.112 73.3253 205.28C73.1693 205.436 72.9773 205.58 72.7493 205.712C72.5213 205.832 72.2573 205.934 71.9573 206.018C71.6573 206.102 71.3153 206.144 70.9313 206.144C70.5473 206.144 70.1873 206.084 69.8513 205.964C69.5273 205.844 69.2453 205.676 69.0053 205.46C68.7653 205.232 68.5733 204.962 68.4293 204.65C68.2973 204.338 68.2313 203.984 68.2313 203.588C68.2313 203.06 68.3393 202.622 68.5553 202.274C68.7713 201.914 69.0713 201.632 69.4553 201.428C69.8513 201.212 70.3193 201.062 70.8593 200.978C71.4113 200.882 72.0173 200.834 72.6773 200.834C72.8453 200.834 73.0073 200.834 73.1633 200.834C73.3313 200.834 73.4993 200.846 73.6673 200.87C73.7033 200.51 73.7213 200.186 73.7213 199.898C73.7213 199.238 73.5893 198.776 73.3253 198.512C73.0613 198.248 72.5813 198.116 71.8853 198.116C71.6813 198.116 71.4593 198.134 71.2193 198.17C70.9913 198.194 70.7513 198.236 70.4993 198.296C70.2593 198.344 70.0253 198.41 69.7973 198.494C69.5813 198.566 69.3893 198.65 69.2213 198.746L68.7713 197.666ZM71.3273 204.884C71.6633 204.884 71.9633 204.842 72.2273 204.758C72.4913 204.662 72.7193 204.548 72.9113 204.416C73.1033 204.272 73.2593 204.116 73.3793 203.948C73.5113 203.78 73.6073 203.618 73.6673 203.462V201.968C73.4993 201.956 73.3253 201.95 73.1453 201.95C72.9773 201.938 72.8093 201.932 72.6413 201.932C72.2693 201.932 71.9033 201.956 71.5433 202.004C71.1953 202.04 70.8833 202.118 70.6073 202.238C70.3433 202.346 70.1273 202.502 69.9593 202.706C69.8033 202.898 69.7253 203.144 69.7253 203.444C69.7253 203.864 69.8753 204.212 70.1753 204.488C70.4753 204.752 70.8593 204.884 71.3273 204.884ZM83.093 198.386C82.733 198.266 82.391 198.206 82.067 198.206C81.551 198.206 81.143 198.35 80.843 198.638C80.543 198.914 80.357 199.268 80.285 199.7V206H78.845V197H79.853L80.123 198.098H80.195C80.423 197.69 80.693 197.378 81.005 197.162C81.329 196.934 81.737 196.82 82.229 196.82C82.577 196.82 82.967 196.88 83.399 197L83.093 198.386ZM92.5322 205.28C92.1722 205.568 91.7162 205.796 91.1642 205.964C90.6242 206.132 90.0482 206.216 89.4362 206.216C88.7522 206.216 88.1582 206.108 87.6542 205.892C87.1502 205.664 86.7362 205.346 86.4122 204.938C86.0882 204.518 85.8482 204.02 85.6922 203.444C85.5362 202.868 85.4582 202.22 85.4582 201.5C85.4582 199.964 85.8002 198.794 86.4842 197.99C87.1682 197.186 88.1462 196.784 89.4182 196.784C89.8262 196.784 90.2342 196.832 90.6422 196.928C91.0502 197.012 91.4162 197.18 91.7402 197.432C92.0642 197.684 92.3282 198.044 92.5322 198.512C92.7362 198.968 92.8382 199.574 92.8382 200.33C92.8382 200.726 92.8022 201.164 92.7302 201.644H86.9522C86.9522 202.172 87.0062 202.64 87.1142 203.048C87.2222 203.456 87.3902 203.804 87.6182 204.092C87.8462 204.368 88.1402 204.584 88.5002 204.74C88.8722 204.884 89.3222 204.956 89.8502 204.956C90.2582 204.956 90.6662 204.884 91.0742 204.74C91.4822 204.596 91.7882 204.428 91.9922 204.236L92.5322 205.28ZM89.4362 198.044C88.7282 198.044 88.1582 198.23 87.7262 198.602C87.3062 198.974 87.0542 199.61 86.9702 200.51H91.4342C91.4342 199.598 91.2602 198.962 90.9122 198.602C90.5642 198.23 90.0722 198.044 89.4362 198.044ZM97.7048 203.786C97.7048 204.206 97.7768 204.506 97.9208 204.686C98.0648 204.866 98.2688 204.956 98.5328 204.956C98.6888 204.956 98.8568 204.944 99.0368 204.92C99.2168 204.896 99.4208 204.842 99.6488 204.758L99.8108 205.892C99.6188 205.988 99.3488 206.066 99.0008 206.126C98.6648 206.186 98.3708 206.216 98.1188 206.216C97.5788 206.216 97.1348 206.066 96.7868 205.766C96.4388 205.454 96.2648 204.932 96.2648 204.2V193.4H97.7048V203.786ZM105.005 202.832L105.509 204.56H105.599L105.995 202.814L107.741 197H109.199L106.535 205.082C106.331 205.67 106.127 206.24 105.923 206.792C105.731 207.344 105.515 207.836 105.275 208.268C105.035 208.7 104.765 209.042 104.465 209.294C104.165 209.558 103.817 209.69 103.421 209.69C102.989 209.69 102.635 209.63 102.359 209.51L102.611 208.268C102.767 208.328 102.917 208.358 103.061 208.358C103.397 208.358 103.721 208.178 104.033 207.818C104.345 207.47 104.603 206.864 104.807 206L101.189 197H102.845L105.005 202.832Z" fill="#2D2D2D"/>
<path d="M59.798 269.756L58.826 267.938H58.754L58.934 269.756V278H57.53V265.202H58.322L64.352 273.608L65.288 275.336H65.378L65.18 273.608V265.4H66.584V278.198H65.792L59.798 269.756ZM77.0673 277.28C76.7073 277.568 76.2513 277.796 75.6993 277.964C75.1593 278.132 74.5833 278.216 73.9713 278.216C73.2873 278.216 72.6933 278.108 72.1893 277.892C71.6853 277.664 71.2713 277.346 70.9473 276.938C70.6233 276.518 70.3833 276.02 70.2273 275.444C70.0713 274.868 69.9933 274.22 69.9933 273.5C69.9933 271.964 70.3353 270.794 71.0193 269.99C71.7033 269.186 72.6813 268.784 73.9533 268.784C74.3613 268.784 74.7693 268.832 75.1773 268.928C75.5853 269.012 75.9513 269.18 76.2753 269.432C76.5993 269.684 76.8633 270.044 77.0673 270.512C77.2713 270.968 77.3733 271.574 77.3733 272.33C77.3733 272.726 77.3373 273.164 77.2653 273.644H71.4873C71.4873 274.172 71.5413 274.64 71.6493 275.048C71.7573 275.456 71.9253 275.804 72.1533 276.092C72.3813 276.368 72.6753 276.584 73.0353 276.74C73.4073 276.884 73.8573 276.956 74.3853 276.956C74.7933 276.956 75.2013 276.884 75.6093 276.74C76.0173 276.596 76.3233 276.428 76.5273 276.236L77.0673 277.28ZM73.9713 270.044C73.2633 270.044 72.6933 270.23 72.2613 270.602C71.8413 270.974 71.5893 271.61 71.5053 272.51H75.9693C75.9693 271.598 75.7953 270.962 75.4473 270.602C75.0993 270.23 74.6073 270.044 73.9713 270.044ZM82.8257 274.274L83.3297 275.984H83.3477L83.7977 274.238L85.8137 269H87.3617L83.5277 278.198H82.9157L79.0097 269H80.6657L82.8257 274.274ZM96.2939 277.28C95.9339 277.568 95.4779 277.796 94.9259 277.964C94.3859 278.132 93.8099 278.216 93.1979 278.216C92.5139 278.216 91.9199 278.108 91.4159 277.892C90.9119 277.664 90.4979 277.346 90.1739 276.938C89.8499 276.518 89.6099 276.02 89.4539 275.444C89.2979 274.868 89.2199 274.22 89.2199 273.5C89.2199 271.964 89.5619 270.794 90.2459 269.99C90.9299 269.186 91.9079 268.784 93.1799 268.784C93.5879 268.784 93.9959 268.832 94.4039 268.928C94.8119 269.012 95.1779 269.18 95.5019 269.432C95.8259 269.684 96.0899 270.044 96.2939 270.512C96.4979 270.968 96.5999 271.574 96.5999 272.33C96.5999 272.726 96.5639 273.164 96.4919 273.644H90.7139C90.7139 274.172 90.7679 274.64 90.8759 275.048C90.9839 275.456 91.1519 275.804 91.3799 276.092C91.6079 276.368 91.9019 276.584 92.2619 276.74C92.6339 276.884 93.0839 276.956 93.6119 276.956C94.0199 276.956 94.4279 276.884 94.8359 276.74C95.2439 276.596 95.5499 276.428 95.7539 276.236L96.2939 277.28ZM93.1979 270.044C92.4899 270.044 91.9199 270.23 91.4879 270.602C91.0679 270.974 90.8159 271.61 90.7319 272.51H95.1959C95.1959 271.598 95.0219 270.962 94.6739 270.602C94.3259 270.23 93.8339 270.044 93.1979 270.044ZM104.113 270.386C103.753 270.266 103.411 270.206 103.087 270.206C102.571 270.206 102.163 270.35 101.863 270.638C101.563 270.914 101.377 271.268 101.305 271.7V278H99.8645V269H100.873L101.143 270.098H101.215C101.443 269.69 101.713 269.378 102.025 269.162C102.349 268.934 102.757 268.82 103.249 268.82C103.597 268.82 103.987 268.88 104.419 269L104.113 270.386Z" fill="#2D2D2D"/>
<path d="M442.856 58.202C442.856 58.754 442.772 59.276 442.604 59.768C442.436 60.248 442.19 60.674 441.866 61.046C441.542 61.406 441.14 61.694 440.66 61.91C440.18 62.114 439.634 62.216 439.022 62.216C438.422 62.216 437.882 62.12 437.402 61.928C436.922 61.736 436.508 61.454 436.16 61.082C435.812 60.698 435.542 60.23 435.35 59.678C435.17 59.126 435.08 58.49 435.08 57.77C435.08 56.582 435.23 55.49 435.53 54.494C435.842 53.486 436.268 52.61 436.808 51.866C437.348 51.122 437.984 50.522 438.716 50.066C439.46 49.598 440.264 49.304 441.128 49.184L441.434 50.336C440.762 50.456 440.15 50.684 439.598 51.02C439.046 51.356 438.56 51.77 438.14 52.262C437.732 52.754 437.396 53.306 437.132 53.918C436.868 54.53 436.688 55.16 436.592 55.808C436.784 55.484 437.108 55.19 437.564 54.926C438.02 54.65 438.578 54.512 439.238 54.512C440.366 54.512 441.248 54.836 441.884 55.484C442.532 56.132 442.856 57.038 442.856 58.202ZM441.362 58.346C441.362 57.494 441.164 56.852 440.768 56.42C440.372 55.988 439.76 55.772 438.932 55.772C438.344 55.772 437.834 55.916 437.402 56.204C436.982 56.492 436.688 56.816 436.52 57.176C436.496 57.344 436.484 57.482 436.484 57.59C436.484 57.698 436.484 57.818 436.484 57.95C436.484 58.322 436.532 58.688 436.628 59.048C436.736 59.408 436.898 59.732 437.114 60.02C437.33 60.296 437.594 60.524 437.906 60.704C438.23 60.872 438.608 60.956 439.04 60.956C439.388 60.956 439.7 60.89 439.976 60.758C440.264 60.626 440.51 60.446 440.714 60.218C440.918 59.99 441.074 59.714 441.182 59.39C441.302 59.066 441.362 58.718 441.362 58.346ZM445.583 55.7C445.583 53.54 445.931 51.914 446.627 50.822C447.335 49.73 448.361 49.184 449.705 49.184C451.157 49.184 452.207 49.724 452.855 50.804C453.515 51.872 453.845 53.504 453.845 55.7C453.845 57.86 453.491 59.486 452.783 60.578C452.087 61.67 451.061 62.216 449.705 62.216C448.277 62.216 447.233 61.646 446.573 60.506C445.913 59.366 445.583 57.764 445.583 55.7ZM447.077 55.7C447.077 56.48 447.125 57.194 447.221 57.842C447.329 58.478 447.491 59.03 447.707 59.498C447.923 59.954 448.193 60.314 448.517 60.578C448.853 60.83 449.249 60.956 449.705 60.956C450.617 60.956 451.283 60.536 451.703 59.696C452.135 58.844 452.351 57.512 452.351 55.7C452.351 54.932 452.303 54.224 452.207 53.576C452.123 52.928 451.973 52.37 451.757 51.902C451.553 51.434 451.283 51.074 450.947 50.822C450.611 50.57 450.197 50.444 449.705 50.444C448.805 50.444 448.139 50.87 447.707 51.722C447.287 52.574 447.077 53.9 447.077 55.7ZM456.877 52.244C456.877 51.704 456.949 51.242 457.093 50.858C457.237 50.474 457.429 50.156 457.669 49.904C457.921 49.652 458.215 49.472 458.551 49.364C458.899 49.244 459.271 49.184 459.667 49.184C460.063 49.184 460.429 49.238 460.765 49.346C461.113 49.454 461.407 49.628 461.647 49.868C461.899 50.108 462.097 50.426 462.241 50.822C462.385 51.206 462.457 51.68 462.457 52.244C462.457 52.808 462.385 53.288 462.241 53.684C462.097 54.068 461.899 54.38 461.647 54.62C461.407 54.86 461.113 55.034 460.765 55.142C460.429 55.25 460.063 55.304 459.667 55.304C459.271 55.304 458.899 55.25 458.551 55.142C458.215 55.034 457.921 54.86 457.669 54.62C457.429 54.38 457.237 54.068 457.093 53.684C456.949 53.288 456.877 52.808 456.877 52.244ZM458.209 52.244C458.209 52.964 458.335 53.48 458.587 53.792C458.851 54.104 459.211 54.26 459.667 54.26C459.895 54.26 460.099 54.23 460.279 54.17C460.459 54.098 460.609 53.99 460.729 53.846C460.861 53.69 460.957 53.486 461.017 53.234C461.089 52.97 461.125 52.64 461.125 52.244C461.125 51.848 461.089 51.524 461.017 51.272C460.957 51.008 460.861 50.804 460.729 50.66C460.609 50.504 460.459 50.396 460.279 50.336C460.099 50.264 459.895 50.228 459.667 50.228C459.211 50.228 458.851 50.372 458.587 50.66C458.335 50.936 458.209 51.464 458.209 52.244ZM463.303 58.904C463.303 58.364 463.375 57.902 463.519 57.518C463.663 57.134 463.855 56.816 464.095 56.564C464.347 56.312 464.641 56.132 464.977 56.024C465.325 55.904 465.697 55.844 466.093 55.844C466.489 55.844 466.855 55.898 467.191 56.006C467.539 56.114 467.833 56.288 468.073 56.528C468.325 56.768 468.523 57.086 468.667 57.482C468.811 57.866 468.883 58.34 468.883 58.904C468.883 59.468 468.811 59.948 468.667 60.344C468.523 60.728 468.325 61.04 468.073 61.28C467.833 61.52 467.539 61.694 467.191 61.802C466.855 61.91 466.489 61.964 466.093 61.964C465.697 61.964 465.325 61.91 464.977 61.802C464.641 61.694 464.347 61.52 464.095 61.28C463.855 61.04 463.663 60.728 463.519 60.344C463.375 59.948 463.303 59.468 463.303 58.904ZM464.635 58.904C464.635 59.624 464.761 60.14 465.013 60.452C465.277 60.764 465.637 60.92 466.093 60.92C466.321 60.92 466.525 60.89 466.705 60.83C466.885 60.758 467.035 60.65 467.155 60.506C467.287 60.35 467.383 60.146 467.443 59.894C467.515 59.63 467.551 59.3 467.551 58.904C467.551 58.508 467.515 58.184 467.443 57.932C467.383 57.668 467.287 57.464 467.155 57.32C467.035 57.164 466.885 57.056 466.705 56.996C466.525 56.924 466.321 56.888 466.093 56.888C465.637 56.888 465.277 57.032 465.013 57.32C464.761 57.596 464.635 58.124 464.635 58.904ZM467.083 49.166L467.965 49.85L458.731 62.216L457.831 61.514L467.083 49.166Z" fill="#2D2D2D"/>
<path d="M443.028 124.262C443.028 124.898 442.908 125.552 442.668 126.224C442.44 126.884 442.134 127.55 441.75 128.222C441.378 128.894 440.958 129.554 440.49 130.202C440.022 130.838 439.554 131.444 439.086 132.02L438.204 132.794V132.866L439.356 132.668H443.28V134H436.116V133.478C436.38 133.202 436.698 132.86 437.07 132.452C437.442 132.044 437.826 131.594 438.222 131.102C438.63 130.598 439.026 130.07 439.41 129.518C439.806 128.954 440.16 128.384 440.472 127.808C440.796 127.232 441.054 126.662 441.246 126.098C441.438 125.534 441.534 125 441.534 124.496C441.534 123.908 441.366 123.422 441.03 123.038C440.694 122.642 440.184 122.444 439.5 122.444C439.044 122.444 438.6 122.54 438.168 122.732C437.736 122.912 437.364 123.122 437.052 123.362L436.458 122.336C436.878 121.976 437.376 121.694 437.952 121.49C438.528 121.286 439.146 121.184 439.806 121.184C440.322 121.184 440.778 121.262 441.174 121.418C441.57 121.562 441.906 121.772 442.182 122.048C442.458 122.324 442.668 122.654 442.812 123.038C442.956 123.41 443.028 123.818 443.028 124.262ZM449.643 132.956C450.471 132.956 451.155 132.716 451.695 132.236C452.235 131.756 452.505 131.06 452.505 130.148C452.505 129.272 452.235 128.618 451.695 128.186C451.167 127.754 450.435 127.538 449.499 127.538L447.987 127.628V121.4H453.603V122.732H449.337V126.314L450.111 126.278C451.299 126.29 452.235 126.62 452.919 127.268C453.603 127.916 453.945 128.846 453.945 130.058C453.945 130.73 453.831 131.33 453.603 131.858C453.375 132.374 453.063 132.806 452.667 133.154C452.283 133.502 451.827 133.766 451.299 133.946C450.771 134.126 450.207 134.216 449.607 134.216C449.067 134.216 448.611 134.186 448.239 134.126C447.867 134.066 447.519 133.976 447.195 133.856L447.573 132.632C447.849 132.74 448.143 132.824 448.455 132.884C448.779 132.932 449.175 132.956 449.643 132.956ZM457.877 124.244C457.877 123.704 457.949 123.242 458.093 122.858C458.237 122.474 458.429 122.156 458.669 121.904C458.921 121.652 459.215 121.472 459.551 121.364C459.899 121.244 460.271 121.184 460.667 121.184C461.063 121.184 461.429 121.238 461.765 121.346C462.113 121.454 462.407 121.628 462.647 121.868C462.899 122.108 463.097 122.426 463.241 122.822C463.385 123.206 463.457 123.68 463.457 124.244C463.457 124.808 463.385 125.288 463.241 125.684C463.097 126.068 462.899 126.38 462.647 126.62C462.407 126.86 462.113 127.034 461.765 127.142C461.429 127.25 461.063 127.304 460.667 127.304C460.271 127.304 459.899 127.25 459.551 127.142C459.215 127.034 458.921 126.86 458.669 126.62C458.429 126.38 458.237 126.068 458.093 125.684C457.949 125.288 457.877 124.808 457.877 124.244ZM459.209 124.244C459.209 124.964 459.335 125.48 459.587 125.792C459.851 126.104 460.211 126.26 460.667 126.26C460.895 126.26 461.099 126.23 461.279 126.17C461.459 126.098 461.609 125.99 461.729 125.846C461.861 125.69 461.957 125.486 462.017 125.234C462.089 124.97 462.125 124.64 462.125 124.244C462.125 123.848 462.089 123.524 462.017 123.272C461.957 123.008 461.861 122.804 461.729 122.66C461.609 122.504 461.459 122.396 461.279 122.336C461.099 122.264 460.895 122.228 460.667 122.228C460.211 122.228 459.851 122.372 459.587 122.66C459.335 122.936 459.209 123.464 459.209 124.244ZM464.303 130.904C464.303 130.364 464.375 129.902 464.519 129.518C464.663 129.134 464.855 128.816 465.095 128.564C465.347 128.312 465.641 128.132 465.977 128.024C466.325 127.904 466.697 127.844 467.093 127.844C467.489 127.844 467.855 127.898 468.191 128.006C468.539 128.114 468.833 128.288 469.073 128.528C469.325 128.768 469.523 129.086 469.667 129.482C469.811 129.866 469.883 130.34 469.883 130.904C469.883 131.468 469.811 131.948 469.667 132.344C469.523 132.728 469.325 133.04 469.073 133.28C468.833 133.52 468.539 133.694 468.191 133.802C467.855 133.91 467.489 133.964 467.093 133.964C466.697 133.964 466.325 133.91 465.977 133.802C465.641 133.694 465.347 133.52 465.095 133.28C464.855 133.04 464.663 132.728 464.519 132.344C464.375 131.948 464.303 131.468 464.303 130.904ZM465.635 130.904C465.635 131.624 465.761 132.14 466.013 132.452C466.277 132.764 466.637 132.92 467.093 132.92C467.321 132.92 467.525 132.89 467.705 132.83C467.885 132.758 468.035 132.65 468.155 132.506C468.287 132.35 468.383 132.146 468.443 131.894C468.515 131.63 468.551 131.3 468.551 130.904C468.551 130.508 468.515 130.184 468.443 129.932C468.383 129.668 468.287 129.464 468.155 129.32C468.035 129.164 467.885 129.056 467.705 128.996C467.525 128.924 467.321 128.888 467.093 128.888C466.637 128.888 466.277 129.032 466.013 129.32C465.761 129.596 465.635 130.124 465.635 130.904ZM468.083 121.166L468.965 121.85L459.731 134.216L458.831 133.514L468.083 121.166Z" fill="#2D2D2D"/>
<path d="M438.944 204.668H441.464V195.956L441.644 194.894L440.924 195.74L438.944 197.162L438.26 196.244L442.22 193.184H442.868V204.668H445.334V206H438.944V204.668ZM448.583 199.7C448.583 197.54 448.931 195.914 449.627 194.822C450.335 193.73 451.361 193.184 452.705 193.184C454.157 193.184 455.207 193.724 455.855 194.804C456.515 195.872 456.845 197.504 456.845 199.7C456.845 201.86 456.491 203.486 455.783 204.578C455.087 205.67 454.061 206.216 452.705 206.216C451.277 206.216 450.233 205.646 449.573 204.506C448.913 203.366 448.583 201.764 448.583 199.7ZM450.077 199.7C450.077 200.48 450.125 201.194 450.221 201.842C450.329 202.478 450.491 203.03 450.707 203.498C450.923 203.954 451.193 204.314 451.517 204.578C451.853 204.83 452.249 204.956 452.705 204.956C453.617 204.956 454.283 204.536 454.703 203.696C455.135 202.844 455.351 201.512 455.351 199.7C455.351 198.932 455.303 198.224 455.207 197.576C455.123 196.928 454.973 196.37 454.757 195.902C454.553 195.434 454.283 195.074 453.947 194.822C453.611 194.57 453.197 194.444 452.705 194.444C451.805 194.444 451.139 194.87 450.707 195.722C450.287 196.574 450.077 197.9 450.077 199.7ZM459.877 196.244C459.877 195.704 459.949 195.242 460.093 194.858C460.237 194.474 460.429 194.156 460.669 193.904C460.921 193.652 461.215 193.472 461.551 193.364C461.899 193.244 462.271 193.184 462.667 193.184C463.063 193.184 463.429 193.238 463.765 193.346C464.113 193.454 464.407 193.628 464.647 193.868C464.899 194.108 465.097 194.426 465.241 194.822C465.385 195.206 465.457 195.68 465.457 196.244C465.457 196.808 465.385 197.288 465.241 197.684C465.097 198.068 464.899 198.38 464.647 198.62C464.407 198.86 464.113 199.034 463.765 199.142C463.429 199.25 463.063 199.304 462.667 199.304C462.271 199.304 461.899 199.25 461.551 199.142C461.215 199.034 460.921 198.86 460.669 198.62C460.429 198.38 460.237 198.068 460.093 197.684C459.949 197.288 459.877 196.808 459.877 196.244ZM461.209 196.244C461.209 196.964 461.335 197.48 461.587 197.792C461.851 198.104 462.211 198.26 462.667 198.26C462.895 198.26 463.099 198.23 463.279 198.17C463.459 198.098 463.609 197.99 463.729 197.846C463.861 197.69 463.957 197.486 464.017 197.234C464.089 196.97 464.125 196.64 464.125 196.244C464.125 195.848 464.089 195.524 464.017 195.272C463.957 195.008 463.861 194.804 463.729 194.66C463.609 194.504 463.459 194.396 463.279 194.336C463.099 194.264 462.895 194.228 462.667 194.228C462.211 194.228 461.851 194.372 461.587 194.66C461.335 194.936 461.209 195.464 461.209 196.244ZM466.303 202.904C466.303 202.364 466.375 201.902 466.519 201.518C466.663 201.134 466.855 200.816 467.095 200.564C467.347 200.312 467.641 200.132 467.977 200.024C468.325 199.904 468.697 199.844 469.093 199.844C469.489 199.844 469.855 199.898 470.191 200.006C470.539 200.114 470.833 200.288 471.073 200.528C471.325 200.768 471.523 201.086 471.667 201.482C471.811 201.866 471.883 202.34 471.883 202.904C471.883 203.468 471.811 203.948 471.667 204.344C471.523 204.728 471.325 205.04 471.073 205.28C470.833 205.52 470.539 205.694 470.191 205.802C469.855 205.91 469.489 205.964 469.093 205.964C468.697 205.964 468.325 205.91 467.977 205.802C467.641 205.694 467.347 205.52 467.095 205.28C466.855 205.04 466.663 204.728 466.519 204.344C466.375 203.948 466.303 203.468 466.303 202.904ZM467.635 202.904C467.635 203.624 467.761 204.14 468.013 204.452C468.277 204.764 468.637 204.92 469.093 204.92C469.321 204.92 469.525 204.89 469.705 204.83C469.885 204.758 470.035 204.65 470.155 204.506C470.287 204.35 470.383 204.146 470.443 203.894C470.515 203.63 470.551 203.3 470.551 202.904C470.551 202.508 470.515 202.184 470.443 201.932C470.383 201.668 470.287 201.464 470.155 201.32C470.035 201.164 469.885 201.056 469.705 200.996C469.525 200.924 469.321 200.888 469.093 200.888C468.637 200.888 468.277 201.032 468.013 201.32C467.761 201.596 467.635 202.124 467.635 202.904ZM470.083 193.166L470.965 193.85L461.731 206.216L460.831 205.514L470.083 193.166Z" fill="#2D2D2D"/>
<path d="M450.834 276.956C451.662 276.956 452.346 276.716 452.886 276.236C453.426 275.756 453.696 275.06 453.696 274.148C453.696 273.272 453.426 272.618 452.886 272.186C452.358 271.754 451.626 271.538 450.69 271.538L449.178 271.628V265.4H454.794V266.732H450.528V270.314L451.302 270.278C452.49 270.29 453.426 270.62 454.11 271.268C454.794 271.916 455.136 272.846 455.136 274.058C455.136 274.73 455.022 275.33 454.794 275.858C454.566 276.374 454.254 276.806 453.858 277.154C453.474 277.502 453.018 277.766 452.49 277.946C451.962 278.126 451.398 278.216 450.798 278.216C450.258 278.216 449.802 278.186 449.43 278.126C449.058 278.066 448.71 277.976 448.386 277.856L448.764 276.632C449.04 276.74 449.334 276.824 449.646 276.884C449.97 276.932 450.366 276.956 450.834 276.956ZM459.069 268.244C459.069 267.704 459.141 267.242 459.285 266.858C459.429 266.474 459.621 266.156 459.861 265.904C460.113 265.652 460.407 265.472 460.743 265.364C461.091 265.244 461.463 265.184 461.859 265.184C462.255 265.184 462.621 265.238 462.957 265.346C463.305 265.454 463.599 265.628 463.839 265.868C464.091 266.108 464.289 266.426 464.433 266.822C464.577 267.206 464.649 267.68 464.649 268.244C464.649 268.808 464.577 269.288 464.433 269.684C464.289 270.068 464.091 270.38 463.839 270.62C463.599 270.86 463.305 271.034 462.957 271.142C462.621 271.25 462.255 271.304 461.859 271.304C461.463 271.304 461.091 271.25 460.743 271.142C460.407 271.034 460.113 270.86 459.861 270.62C459.621 270.38 459.429 270.068 459.285 269.684C459.141 269.288 459.069 268.808 459.069 268.244ZM460.401 268.244C460.401 268.964 460.527 269.48 460.779 269.792C461.043 270.104 461.403 270.26 461.859 270.26C462.087 270.26 462.291 270.23 462.471 270.17C462.651 270.098 462.801 269.99 462.921 269.846C463.053 269.69 463.149 269.486 463.209 269.234C463.281 268.97 463.317 268.64 463.317 268.244C463.317 267.848 463.281 267.524 463.209 267.272C463.149 267.008 463.053 266.804 462.921 266.66C462.801 266.504 462.651 266.396 462.471 266.336C462.291 266.264 462.087 266.228 461.859 266.228C461.403 266.228 461.043 266.372 460.779 266.66C460.527 266.936 460.401 267.464 460.401 268.244ZM465.495 274.904C465.495 274.364 465.567 273.902 465.711 273.518C465.855 273.134 466.047 272.816 466.287 272.564C466.539 272.312 466.833 272.132 467.169 272.024C467.517 271.904 467.889 271.844 468.285 271.844C468.681 271.844 469.047 271.898 469.383 272.006C469.731 272.114 470.025 272.288 470.265 272.528C470.517 272.768 470.715 273.086 470.859 273.482C471.003 273.866 471.075 274.34 471.075 274.904C471.075 275.468 471.003 275.948 470.859 276.344C470.715 276.728 470.517 277.04 470.265 277.28C470.025 277.52 469.731 277.694 469.383 277.802C469.047 277.91 468.681 277.964 468.285 277.964C467.889 277.964 467.517 277.91 467.169 277.802C466.833 277.694 466.539 277.52 466.287 277.28C466.047 277.04 465.855 276.728 465.711 276.344C465.567 275.948 465.495 275.468 465.495 274.904ZM466.827 274.904C466.827 275.624 466.953 276.14 467.205 276.452C467.469 276.764 467.829 276.92 468.285 276.92C468.513 276.92 468.717 276.89 468.897 276.83C469.077 276.758 469.227 276.65 469.347 276.506C469.479 276.35 469.575 276.146 469.635 275.894C469.707 275.63 469.743 275.3 469.743 274.904C469.743 274.508 469.707 274.184 469.635 273.932C469.575 273.668 469.479 273.464 469.347 273.32C469.227 273.164 469.077 273.056 468.897 272.996C468.717 272.924 468.513 272.888 468.285 272.888C467.829 272.888 467.469 273.032 467.205 273.32C466.953 273.596 466.827 274.124 466.827 274.904ZM469.275 265.166L470.157 265.85L460.923 278.216L460.023 277.514L469.275 265.166Z" fill="#2D2D2D"/>
</svg>
