<svg width="531" height="328" viewBox="0 0 531 328" fill="none" xmlns="http://www.w3.org/2000/svg">
<rect width="531" height="328" rx="12" fill="white"/>
<rect x="33" y="32" width="466" height="48" rx="24" fill="#EDF3FE"/>
<rect x="33" y="104" width="466" height="48" rx="24" fill="#EDF3FE"/>
<rect x="33" y="176" width="466" height="48" rx="24" fill="#EDF3FE"/>
<rect x="33" y="32" width="328" height="48" rx="24" fill="#CFE0FE"/>
<rect x="33" y="104" width="144" height="48" rx="24" fill="#CFE0FE"/>
<rect x="33" y="176" width="78" height="48" rx="24" fill="#CFE0FE"/>
<path d="M58.53 49.4H65.388V50.732H60.024V55.034H65.028V56.366H60.024V62H58.53V49.4ZM72.9328 54.386C72.5728 54.266 72.2308 54.206 71.9068 54.206C71.3908 54.206 70.9828 54.35 70.6828 54.638C70.3828 54.914 70.1968 55.268 70.1248 55.7V62H68.6848V53H69.6928L69.9628 54.098H70.0348C70.2628 53.69 70.5328 53.378 70.8448 53.162C71.1688 52.934 71.5768 52.82 72.0688 52.82C72.4168 52.82 72.8068 52.88 73.2388 53L72.9328 54.386ZM82.372 61.28C82.012 61.568 81.556 61.796 81.004 61.964C80.464 62.132 79.888 62.216 79.276 62.216C78.592 62.216 77.998 62.108 77.494 61.892C76.99 61.664 76.576 61.346 76.252 60.938C75.928 60.518 75.688 60.02 75.532 59.444C75.376 58.868 75.298 58.22 75.298 57.5C75.298 55.964 75.64 54.794 76.324 53.99C77.008 53.186 77.986 52.784 79.258 52.784C79.666 52.784 80.074 52.832 80.482 52.928C80.89 53.012 81.256 53.18 81.58 53.432C81.904 53.684 82.168 54.044 82.372 54.512C82.576 54.968 82.678 55.574 82.678 56.33C82.678 56.726 82.642 57.164 82.57 57.644H76.792C76.792 58.172 76.846 58.64 76.954 59.048C77.062 59.456 77.23 59.804 77.458 60.092C77.686 60.368 77.98 60.584 78.34 60.74C78.712 60.884 79.162 60.956 79.69 60.956C80.098 60.956 80.506 60.884 80.914 60.74C81.322 60.596 81.628 60.428 81.832 60.236L82.372 61.28ZM79.276 54.044C78.568 54.044 77.998 54.23 77.566 54.602C77.146 54.974 76.894 55.61 76.81 56.51H81.274C81.274 55.598 81.1 54.962 80.752 54.602C80.404 54.23 79.912 54.044 79.276 54.044ZM92.6433 65.6H91.2033V61.1H91.1313C90.8913 61.46 90.5853 61.736 90.2133 61.928C89.8533 62.12 89.3733 62.216 88.7733 62.216C87.5733 62.216 86.6853 61.838 86.1093 61.082C85.5333 60.314 85.2453 59.132 85.2453 57.536C85.2453 55.988 85.6173 54.818 86.3613 54.026C87.1053 53.234 88.1913 52.838 89.6193 52.838C90.2553 52.838 90.8493 52.898 91.4013 53.018C91.9653 53.138 92.3793 53.264 92.6433 53.396V65.6ZM89.0253 60.956C89.6373 60.956 90.1173 60.8 90.4653 60.488C90.8133 60.176 91.0593 59.696 91.2033 59.048V54.44C90.7593 54.212 90.1473 54.098 89.3673 54.098C88.5393 54.098 87.8913 54.38 87.4233 54.944C86.9673 55.496 86.7393 56.354 86.7393 57.518C86.7393 58.022 86.7813 58.49 86.8653 58.922C86.9493 59.342 87.0813 59.702 87.2613 60.002C87.4413 60.302 87.6753 60.536 87.9633 60.704C88.2513 60.872 88.6053 60.956 89.0253 60.956ZM97.7133 53V58.13C97.7133 58.598 97.7373 59.012 97.7853 59.372C97.8453 59.72 97.9413 60.014 98.0733 60.254C98.2053 60.482 98.3853 60.656 98.6133 60.776C98.8413 60.896 99.1293 60.956 99.4773 60.956C99.8013 60.956 100.089 60.908 100.341 60.812C100.593 60.704 100.815 60.56 101.007 60.38C101.211 60.2 101.385 59.996 101.529 59.768C101.685 59.528 101.811 59.276 101.907 59.012V53H103.347V59.444C103.347 59.876 103.359 60.326 103.383 60.794C103.419 61.25 103.473 61.652 103.545 62H102.555L102.195 60.578H102.105C101.829 61.046 101.457 61.436 100.989 61.748C100.521 62.06 99.9273 62.216 99.2073 62.216C98.7273 62.216 98.3013 62.156 97.9293 62.036C97.5693 61.928 97.2633 61.73 97.0113 61.442C96.7713 61.154 96.5853 60.77 96.4533 60.29C96.3333 59.798 96.2733 59.18 96.2733 58.436V53H97.7133ZM113.69 61.28C113.33 61.568 112.874 61.796 112.322 61.964C111.782 62.132 111.206 62.216 110.594 62.216C109.91 62.216 109.316 62.108 108.812 61.892C108.308 61.664 107.894 61.346 107.57 60.938C107.246 60.518 107.006 60.02 106.85 59.444C106.694 58.868 106.616 58.22 106.616 57.5C106.616 55.964 106.958 54.794 107.642 53.99C108.326 53.186 109.304 52.784 110.576 52.784C110.984 52.784 111.392 52.832 111.8 52.928C112.208 53.012 112.574 53.18 112.898 53.432C113.222 53.684 113.486 54.044 113.69 54.512C113.894 54.968 113.996 55.574 113.996 56.33C113.996 56.726 113.96 57.164 113.888 57.644H108.11C108.11 58.172 108.164 58.64 108.272 59.048C108.38 59.456 108.548 59.804 108.776 60.092C109.004 60.368 109.298 60.584 109.658 60.74C110.03 60.884 110.48 60.956 111.008 60.956C111.416 60.956 111.824 60.884 112.232 60.74C112.64 60.596 112.946 60.428 113.15 60.236L113.69 61.28ZM110.594 54.044C109.886 54.044 109.316 54.23 108.884 54.602C108.464 54.974 108.212 55.61 108.128 56.51H112.592C112.592 55.598 112.418 54.962 112.07 54.602C111.722 54.23 111.23 54.044 110.594 54.044ZM123.039 62V56.87C123.039 55.934 122.901 55.232 122.625 54.764C122.361 54.284 121.869 54.044 121.149 54.044C120.513 54.044 119.985 54.218 119.565 54.566C119.157 54.902 118.869 55.328 118.701 55.844V62H117.261V53H118.269L118.539 54.098H118.611C118.899 53.714 119.283 53.402 119.763 53.162C120.255 52.91 120.837 52.784 121.509 52.784C122.001 52.784 122.433 52.844 122.805 52.964C123.177 53.072 123.483 53.27 123.723 53.558C123.975 53.846 124.161 54.236 124.281 54.728C124.413 55.208 124.479 55.82 124.479 56.564V62H123.039ZM126.917 53H128.321V51.218L129.761 50.804V53H132.209V54.26H129.761V59.246C129.761 59.87 129.839 60.314 129.995 60.578C130.151 60.83 130.415 60.956 130.787 60.956C131.099 60.956 131.363 60.926 131.579 60.866C131.795 60.794 132.035 60.704 132.299 60.596L132.623 61.694C132.299 61.85 131.945 61.976 131.561 62.072C131.177 62.168 130.763 62.216 130.319 62.216C129.587 62.216 129.071 62.012 128.771 61.604C128.471 61.184 128.321 60.488 128.321 59.516V54.26H126.917V53ZM136.806 59.786C136.806 60.206 136.878 60.506 137.022 60.686C137.166 60.866 137.37 60.956 137.634 60.956C137.79 60.956 137.958 60.944 138.138 60.92C138.318 60.896 138.522 60.842 138.75 60.758L138.912 61.892C138.72 61.988 138.45 62.066 138.102 62.126C137.766 62.186 137.472 62.216 137.22 62.216C136.68 62.216 136.236 62.066 135.888 61.766C135.54 61.454 135.366 60.932 135.366 60.2V49.4H136.806V59.786ZM144.106 58.832L144.61 60.56H144.7L145.096 58.814L146.842 53H148.3L145.636 61.082C145.432 61.67 145.228 62.24 145.024 62.792C144.832 63.344 144.616 63.836 144.376 64.268C144.136 64.7 143.866 65.042 143.566 65.294C143.266 65.558 142.918 65.69 142.522 65.69C142.09 65.69 141.736 65.63 141.46 65.51L141.712 64.268C141.868 64.328 142.018 64.358 142.162 64.358C142.498 64.358 142.822 64.178 143.134 63.818C143.446 63.47 143.704 62.864 143.908 62L140.29 53H141.946L144.106 58.832ZM158.693 65.96C158.141 65.384 157.673 64.748 157.289 64.052C156.905 63.368 156.593 62.666 156.353 61.946C156.125 61.214 155.957 60.482 155.849 59.75C155.741 59.006 155.687 58.298 155.687 57.626C155.687 56.966 155.741 56.27 155.849 55.538C155.957 54.806 156.131 54.074 156.371 53.342C156.611 52.598 156.923 51.872 157.307 51.164C157.703 50.456 158.183 49.796 158.747 49.184L159.611 49.814C159.131 50.426 158.729 51.062 158.405 51.722C158.093 52.37 157.841 53.03 157.649 53.702C157.457 54.374 157.319 55.046 157.235 55.718C157.163 56.378 157.127 57.014 157.127 57.626C157.127 58.202 157.169 58.832 157.253 59.516C157.349 60.188 157.493 60.866 157.685 61.55C157.889 62.222 158.147 62.882 158.459 63.53C158.783 64.178 159.167 64.766 159.611 65.294L158.693 65.96ZM167.312 62V56.906C167.312 56.426 167.288 56.012 167.24 55.664C167.204 55.304 167.126 55.004 167.006 54.764C166.886 54.524 166.712 54.344 166.484 54.224C166.268 54.104 165.98 54.044 165.62 54.044C165.068 54.044 164.606 54.212 164.234 54.548C163.874 54.884 163.622 55.304 163.478 55.808V62H162.038V53H163.046L163.316 54.098H163.388C163.712 53.714 164.084 53.402 164.504 53.162C164.936 52.91 165.494 52.784 166.178 52.784C166.754 52.784 167.222 52.898 167.582 53.126C167.954 53.342 168.242 53.726 168.446 54.278C168.722 53.81 169.1 53.444 169.58 53.18C170.072 52.916 170.624 52.784 171.236 52.784C171.74 52.784 172.166 52.844 172.514 52.964C172.862 53.072 173.15 53.27 173.378 53.558C173.606 53.846 173.768 54.236 173.864 54.728C173.972 55.22 174.026 55.844 174.026 56.6V62H172.586V56.582C172.586 56.15 172.562 55.778 172.514 55.466C172.478 55.142 172.394 54.878 172.262 54.674C172.142 54.458 171.968 54.302 171.74 54.206C171.524 54.098 171.236 54.044 170.876 54.044C170.276 54.044 169.808 54.212 169.472 54.548C169.136 54.884 168.896 55.364 168.752 55.988V62H167.312ZM177.142 57.5C177.142 55.976 177.478 54.812 178.15 54.008C178.834 53.192 179.812 52.784 181.084 52.784C181.756 52.784 182.338 52.898 182.83 53.126C183.334 53.342 183.748 53.66 184.072 54.08C184.396 54.488 184.636 54.986 184.792 55.574C184.948 56.15 185.026 56.792 185.026 57.5C185.026 59.024 184.684 60.194 184 61.01C183.328 61.814 182.356 62.216 181.084 62.216C180.412 62.216 179.824 62.108 179.32 61.892C178.828 61.664 178.42 61.346 178.096 60.938C177.772 60.518 177.532 60.02 177.376 59.444C177.22 58.856 177.142 58.208 177.142 57.5ZM178.636 57.5C178.636 57.956 178.678 58.394 178.762 58.814C178.858 59.234 179.002 59.6 179.194 59.912C179.386 60.224 179.638 60.476 179.95 60.668C180.262 60.86 180.64 60.956 181.084 60.956C182.716 60.968 183.532 59.816 183.532 57.5C183.532 57.032 183.484 56.588 183.388 56.168C183.304 55.748 183.166 55.382 182.974 55.07C182.782 54.758 182.53 54.512 182.218 54.332C181.906 54.14 181.528 54.044 181.084 54.044C179.452 54.032 178.636 55.184 178.636 57.5ZM192.544 54.386C192.184 54.266 191.842 54.206 191.518 54.206C191.002 54.206 190.594 54.35 190.294 54.638C189.994 54.914 189.808 55.268 189.736 55.7V62H188.296V53H189.304L189.574 54.098H189.646C189.874 53.69 190.144 53.378 190.456 53.162C190.78 52.934 191.188 52.82 191.68 52.82C192.028 52.82 192.418 52.88 192.85 53L192.544 54.386ZM201.983 61.28C201.623 61.568 201.167 61.796 200.615 61.964C200.075 62.132 199.499 62.216 198.887 62.216C198.203 62.216 197.609 62.108 197.105 61.892C196.601 61.664 196.187 61.346 195.863 60.938C195.539 60.518 195.299 60.02 195.143 59.444C194.987 58.868 194.909 58.22 194.909 57.5C194.909 55.964 195.251 54.794 195.935 53.99C196.619 53.186 197.597 52.784 198.869 52.784C199.277 52.784 199.685 52.832 200.093 52.928C200.501 53.012 200.867 53.18 201.191 53.432C201.515 53.684 201.779 54.044 201.983 54.512C202.187 54.968 202.289 55.574 202.289 56.33C202.289 56.726 202.253 57.164 202.181 57.644H196.403C196.403 58.172 196.457 58.64 196.565 59.048C196.673 59.456 196.841 59.804 197.069 60.092C197.297 60.368 197.591 60.584 197.951 60.74C198.323 60.884 198.773 60.956 199.301 60.956C199.709 60.956 200.117 60.884 200.525 60.74C200.933 60.596 201.239 60.428 201.443 60.236L201.983 61.28ZM198.887 54.044C198.179 54.044 197.609 54.23 197.177 54.602C196.757 54.974 196.505 55.61 196.421 56.51H200.885C200.885 55.598 200.711 54.962 200.363 54.602C200.015 54.23 199.523 54.044 198.887 54.044ZM210.165 53H211.569V51.218L213.009 50.804V53H215.457V54.26H213.009V59.246C213.009 59.87 213.087 60.314 213.243 60.578C213.399 60.83 213.663 60.956 214.035 60.956C214.347 60.956 214.611 60.926 214.827 60.866C215.043 60.794 215.283 60.704 215.547 60.596L215.871 61.694C215.547 61.85 215.193 61.976 214.809 62.072C214.425 62.168 214.011 62.216 213.567 62.216C212.835 62.216 212.319 62.012 212.019 61.604C211.719 61.184 211.569 60.488 211.569 59.516V54.26H210.165V53ZM224.23 62V56.87C224.23 56.402 224.2 55.994 224.14 55.646C224.092 55.286 223.996 54.992 223.852 54.764C223.708 54.524 223.51 54.344 223.258 54.224C223.018 54.104 222.7 54.044 222.304 54.044C221.74 54.044 221.23 54.23 220.774 54.602C220.318 54.962 220.024 55.43 219.892 56.006V62H218.452V49.4H219.892V54.008H219.964C220.276 53.636 220.648 53.342 221.08 53.126C221.524 52.898 222.07 52.784 222.718 52.784C223.222 52.784 223.66 52.844 224.032 52.964C224.404 53.072 224.71 53.27 224.95 53.558C225.202 53.846 225.382 54.236 225.49 54.728C225.61 55.208 225.67 55.82 225.67 56.564V62H224.23ZM229.152 53.666C229.608 53.39 230.136 53.186 230.736 53.054C231.348 52.922 231.984 52.856 232.644 52.856C233.268 52.856 233.766 52.94 234.138 53.108C234.522 53.276 234.81 53.498 235.002 53.774C235.206 54.038 235.338 54.332 235.398 54.656C235.47 54.98 235.506 55.304 235.506 55.628C235.506 56.348 235.488 57.05 235.452 57.734C235.416 58.418 235.398 59.066 235.398 59.678C235.398 60.122 235.416 60.542 235.452 60.938C235.488 61.334 235.554 61.7 235.65 62.036H234.588L234.21 60.776H234.12C234.012 60.944 233.874 61.112 233.706 61.28C233.55 61.436 233.358 61.58 233.13 61.712C232.902 61.832 232.638 61.934 232.338 62.018C232.038 62.102 231.696 62.144 231.312 62.144C230.928 62.144 230.568 62.084 230.232 61.964C229.908 61.844 229.626 61.676 229.386 61.46C229.146 61.232 228.954 60.962 228.81 60.65C228.678 60.338 228.612 59.984 228.612 59.588C228.612 59.06 228.72 58.622 228.936 58.274C229.152 57.914 229.452 57.632 229.836 57.428C230.232 57.212 230.7 57.062 231.24 56.978C231.792 56.882 232.398 56.834 233.058 56.834C233.226 56.834 233.388 56.834 233.544 56.834C233.712 56.834 233.88 56.846 234.048 56.87C234.084 56.51 234.102 56.186 234.102 55.898C234.102 55.238 233.97 54.776 233.706 54.512C233.442 54.248 232.962 54.116 232.266 54.116C232.062 54.116 231.84 54.134 231.6 54.17C231.372 54.194 231.132 54.236 230.88 54.296C230.64 54.344 230.406 54.41 230.178 54.494C229.962 54.566 229.77 54.65 229.602 54.746L229.152 53.666ZM231.708 60.884C232.044 60.884 232.344 60.842 232.608 60.758C232.872 60.662 233.1 60.548 233.292 60.416C233.484 60.272 233.64 60.116 233.76 59.948C233.892 59.78 233.988 59.618 234.048 59.462V57.968C233.88 57.956 233.706 57.95 233.526 57.95C233.358 57.938 233.19 57.932 233.022 57.932C232.65 57.932 232.284 57.956 231.924 58.004C231.576 58.04 231.264 58.118 230.988 58.238C230.724 58.346 230.508 58.502 230.34 58.706C230.184 58.898 230.106 59.144 230.106 59.444C230.106 59.864 230.256 60.212 230.556 60.488C230.856 60.752 231.24 60.884 231.708 60.884ZM245.004 62V56.87C245.004 55.934 244.866 55.232 244.59 54.764C244.326 54.284 243.834 54.044 243.114 54.044C242.478 54.044 241.95 54.218 241.53 54.566C241.122 54.902 240.834 55.328 240.666 55.844V62H239.226V53H240.234L240.504 54.098H240.576C240.864 53.714 241.248 53.402 241.728 53.162C242.22 52.91 242.802 52.784 243.474 52.784C243.966 52.784 244.398 52.844 244.77 52.964C245.142 53.072 245.448 53.27 245.688 53.558C245.94 53.846 246.126 54.236 246.246 54.728C246.378 55.208 246.444 55.82 246.444 56.564V62H245.004ZM258.316 60.956C259.144 60.956 259.828 60.716 260.368 60.236C260.908 59.756 261.178 59.06 261.178 58.148C261.178 57.272 260.908 56.618 260.368 56.186C259.84 55.754 259.108 55.538 258.172 55.538L256.66 55.628V49.4H262.276V50.732H258.01V54.314L258.784 54.278C259.972 54.29 260.908 54.62 261.592 55.268C262.276 55.916 262.618 56.846 262.618 58.058C262.618 58.73 262.504 59.33 262.276 59.858C262.048 60.374 261.736 60.806 261.34 61.154C260.956 61.502 260.5 61.766 259.972 61.946C259.444 62.126 258.88 62.216 258.28 62.216C257.74 62.216 257.284 62.186 256.912 62.126C256.54 62.066 256.192 61.976 255.868 61.856L256.246 60.632C256.522 60.74 256.816 60.824 257.128 60.884C257.452 60.932 257.848 60.956 258.316 60.956ZM271.288 53H272.692V51.218L274.132 50.804V53H276.58V54.26H274.132V59.246C274.132 59.87 274.21 60.314 274.366 60.578C274.522 60.83 274.786 60.956 275.158 60.956C275.47 60.956 275.734 60.926 275.95 60.866C276.166 60.794 276.406 60.704 276.67 60.596L276.994 61.694C276.67 61.85 276.316 61.976 275.932 62.072C275.548 62.168 275.134 62.216 274.69 62.216C273.958 62.216 273.442 62.012 273.142 61.604C272.842 61.184 272.692 60.488 272.692 59.516V54.26H271.288V53ZM279.881 53H281.321V62H279.881V53ZM279.575 50.264C279.575 49.988 279.665 49.754 279.845 49.562C280.037 49.358 280.277 49.256 280.565 49.256C280.853 49.256 281.099 49.358 281.303 49.562C281.507 49.754 281.609 49.988 281.609 50.264C281.609 50.54 281.507 50.768 281.303 50.948C281.099 51.128 280.853 51.218 280.565 51.218C280.277 51.218 280.037 51.128 279.845 50.948C279.665 50.768 279.575 50.54 279.575 50.264ZM290.666 62V56.906C290.666 56.426 290.642 56.012 290.594 55.664C290.558 55.304 290.48 55.004 290.36 54.764C290.24 54.524 290.066 54.344 289.838 54.224C289.622 54.104 289.334 54.044 288.974 54.044C288.422 54.044 287.96 54.212 287.588 54.548C287.228 54.884 286.976 55.304 286.832 55.808V62H285.392V53H286.4L286.67 54.098H286.742C287.066 53.714 287.438 53.402 287.858 53.162C288.29 52.91 288.848 52.784 289.532 52.784C290.108 52.784 290.576 52.898 290.936 53.126C291.308 53.342 291.596 53.726 291.8 54.278C292.076 53.81 292.454 53.444 292.934 53.18C293.426 52.916 293.978 52.784 294.59 52.784C295.094 52.784 295.52 52.844 295.868 52.964C296.216 53.072 296.504 53.27 296.732 53.558C296.96 53.846 297.122 54.236 297.218 54.728C297.326 55.22 297.38 55.844 297.38 56.6V62H295.94V56.582C295.94 56.15 295.916 55.778 295.868 55.466C295.832 55.142 295.748 54.878 295.616 54.674C295.496 54.458 295.322 54.302 295.094 54.206C294.878 54.098 294.59 54.044 294.23 54.044C293.63 54.044 293.162 54.212 292.826 54.548C292.49 54.884 292.25 55.364 292.106 55.988V62H290.666ZM307.569 61.28C307.209 61.568 306.753 61.796 306.201 61.964C305.661 62.132 305.085 62.216 304.473 62.216C303.789 62.216 303.195 62.108 302.691 61.892C302.187 61.664 301.773 61.346 301.449 60.938C301.125 60.518 300.885 60.02 300.729 59.444C300.573 58.868 300.495 58.22 300.495 57.5C300.495 55.964 300.837 54.794 301.521 53.99C302.205 53.186 303.183 52.784 304.455 52.784C304.863 52.784 305.271 52.832 305.679 52.928C306.087 53.012 306.453 53.18 306.777 53.432C307.101 53.684 307.365 54.044 307.569 54.512C307.773 54.968 307.875 55.574 307.875 56.33C307.875 56.726 307.839 57.164 307.767 57.644H301.989C301.989 58.172 302.043 58.64 302.151 59.048C302.259 59.456 302.427 59.804 302.655 60.092C302.883 60.368 303.177 60.584 303.537 60.74C303.909 60.884 304.359 60.956 304.887 60.956C305.295 60.956 305.703 60.884 306.111 60.74C306.519 60.596 306.825 60.428 307.029 60.236L307.569 61.28ZM304.473 54.044C303.765 54.044 303.195 54.23 302.763 54.602C302.343 54.974 302.091 55.61 302.007 56.51H306.471C306.471 55.598 306.297 54.962 305.949 54.602C305.601 54.23 305.109 54.044 304.473 54.044ZM315.1 59.552C315.1 59.192 314.992 58.91 314.776 58.706C314.56 58.502 314.29 58.334 313.966 58.202C313.654 58.058 313.306 57.926 312.922 57.806C312.55 57.674 312.202 57.512 311.878 57.32C311.566 57.116 311.302 56.858 311.086 56.546C310.87 56.234 310.762 55.814 310.762 55.286C310.762 54.422 311.008 53.792 311.5 53.396C311.992 52.988 312.676 52.784 313.552 52.784C314.2 52.784 314.74 52.844 315.172 52.964C315.616 53.072 316 53.204 316.324 53.36L315.982 54.548C315.706 54.416 315.37 54.302 314.974 54.206C314.59 54.098 314.176 54.044 313.732 54.044C313.204 54.044 312.814 54.134 312.562 54.314C312.322 54.494 312.202 54.806 312.202 55.25C312.202 55.562 312.31 55.808 312.526 55.988C312.742 56.156 313.006 56.312 313.318 56.456C313.642 56.588 313.99 56.72 314.362 56.852C314.746 56.984 315.094 57.158 315.406 57.374C315.73 57.59 316 57.866 316.216 58.202C316.432 58.526 316.54 58.958 316.54 59.498C316.54 59.882 316.474 60.242 316.342 60.578C316.222 60.914 316.03 61.202 315.766 61.442C315.502 61.682 315.172 61.868 314.776 62C314.392 62.144 313.936 62.216 313.408 62.216C312.724 62.216 312.142 62.15 311.662 62.018C311.182 61.886 310.78 61.73 310.456 61.55L310.888 60.326C311.164 60.482 311.524 60.626 311.968 60.758C312.412 60.89 312.862 60.956 313.318 60.956C313.834 60.956 314.26 60.854 314.596 60.65C314.932 60.446 315.1 60.08 315.1 59.552ZM325.371 53.666C325.827 53.39 326.355 53.186 326.955 53.054C327.567 52.922 328.203 52.856 328.863 52.856C329.487 52.856 329.985 52.94 330.357 53.108C330.741 53.276 331.029 53.498 331.221 53.774C331.425 54.038 331.557 54.332 331.617 54.656C331.689 54.98 331.725 55.304 331.725 55.628C331.725 56.348 331.707 57.05 331.671 57.734C331.635 58.418 331.617 59.066 331.617 59.678C331.617 60.122 331.635 60.542 331.671 60.938C331.707 61.334 331.773 61.7 331.869 62.036H330.807L330.429 60.776H330.339C330.231 60.944 330.093 61.112 329.925 61.28C329.769 61.436 329.577 61.58 329.349 61.712C329.121 61.832 328.857 61.934 328.557 62.018C328.257 62.102 327.915 62.144 327.531 62.144C327.147 62.144 326.787 62.084 326.451 61.964C326.127 61.844 325.845 61.676 325.605 61.46C325.365 61.232 325.173 60.962 325.029 60.65C324.897 60.338 324.831 59.984 324.831 59.588C324.831 59.06 324.939 58.622 325.155 58.274C325.371 57.914 325.671 57.632 326.055 57.428C326.451 57.212 326.919 57.062 327.459 56.978C328.011 56.882 328.617 56.834 329.277 56.834C329.445 56.834 329.607 56.834 329.763 56.834C329.931 56.834 330.099 56.846 330.267 56.87C330.303 56.51 330.321 56.186 330.321 55.898C330.321 55.238 330.189 54.776 329.925 54.512C329.661 54.248 329.181 54.116 328.485 54.116C328.281 54.116 328.059 54.134 327.819 54.17C327.591 54.194 327.351 54.236 327.099 54.296C326.859 54.344 326.625 54.41 326.397 54.494C326.181 54.566 325.989 54.65 325.821 54.746L325.371 53.666ZM327.927 60.884C328.263 60.884 328.563 60.842 328.827 60.758C329.091 60.662 329.319 60.548 329.511 60.416C329.703 60.272 329.859 60.116 329.979 59.948C330.111 59.78 330.207 59.618 330.267 59.462V57.968C330.099 57.956 329.925 57.95 329.745 57.95C329.577 57.938 329.409 57.932 329.241 57.932C328.869 57.932 328.503 57.956 328.143 58.004C327.795 58.04 327.483 58.118 327.207 58.238C326.943 58.346 326.727 58.502 326.559 58.706C326.403 58.898 326.325 59.144 326.325 59.444C326.325 59.864 326.475 60.212 326.775 60.488C327.075 60.752 327.459 60.884 327.927 60.884ZM343.643 58.832L344.147 60.56H344.237L344.633 58.814L346.379 53H347.837L345.173 61.082C344.969 61.67 344.765 62.24 344.561 62.792C344.369 63.344 344.153 63.836 343.913 64.268C343.673 64.7 343.403 65.042 343.103 65.294C342.803 65.558 342.455 65.69 342.059 65.69C341.627 65.69 341.273 65.63 340.997 65.51L341.249 64.268C341.405 64.328 341.555 64.358 341.699 64.358C342.035 64.358 342.359 64.178 342.671 63.818C342.983 63.47 343.241 62.864 343.445 62L339.827 53H341.483L343.643 58.832ZM356.759 61.28C356.399 61.568 355.943 61.796 355.391 61.964C354.851 62.132 354.275 62.216 353.663 62.216C352.979 62.216 352.385 62.108 351.881 61.892C351.377 61.664 350.963 61.346 350.639 60.938C350.315 60.518 350.075 60.02 349.919 59.444C349.763 58.868 349.685 58.22 349.685 57.5C349.685 55.964 350.027 54.794 350.711 53.99C351.395 53.186 352.373 52.784 353.645 52.784C354.053 52.784 354.461 52.832 354.869 52.928C355.277 53.012 355.643 53.18 355.967 53.432C356.291 53.684 356.555 54.044 356.759 54.512C356.963 54.968 357.065 55.574 357.065 56.33C357.065 56.726 357.029 57.164 356.957 57.644H351.179C351.179 58.172 351.233 58.64 351.341 59.048C351.449 59.456 351.617 59.804 351.845 60.092C352.073 60.368 352.367 60.584 352.727 60.74C353.099 60.884 353.549 60.956 354.077 60.956C354.485 60.956 354.893 60.884 355.301 60.74C355.709 60.596 356.015 60.428 356.219 60.236L356.759 61.28ZM353.663 54.044C352.955 54.044 352.385 54.23 351.953 54.602C351.533 54.974 351.281 55.61 351.197 56.51H355.661C355.661 55.598 355.487 54.962 355.139 54.602C354.791 54.23 354.299 54.044 353.663 54.044ZM360.185 53.666C360.641 53.39 361.169 53.186 361.769 53.054C362.381 52.922 363.017 52.856 363.677 52.856C364.301 52.856 364.799 52.94 365.171 53.108C365.555 53.276 365.843 53.498 366.035 53.774C366.239 54.038 366.371 54.332 366.431 54.656C366.503 54.98 366.539 55.304 366.539 55.628C366.539 56.348 366.521 57.05 366.485 57.734C366.449 58.418 366.431 59.066 366.431 59.678C366.431 60.122 366.449 60.542 366.485 60.938C366.521 61.334 366.587 61.7 366.683 62.036H365.621L365.243 60.776H365.153C365.045 60.944 364.907 61.112 364.739 61.28C364.583 61.436 364.391 61.58 364.163 61.712C363.935 61.832 363.671 61.934 363.371 62.018C363.071 62.102 362.729 62.144 362.345 62.144C361.961 62.144 361.601 62.084 361.265 61.964C360.941 61.844 360.659 61.676 360.419 61.46C360.179 61.232 359.987 60.962 359.843 60.65C359.711 60.338 359.645 59.984 359.645 59.588C359.645 59.06 359.753 58.622 359.969 58.274C360.185 57.914 360.485 57.632 360.869 57.428C361.265 57.212 361.733 57.062 362.273 56.978C362.825 56.882 363.431 56.834 364.091 56.834C364.259 56.834 364.421 56.834 364.577 56.834C364.745 56.834 364.913 56.846 365.081 56.87C365.117 56.51 365.135 56.186 365.135 55.898C365.135 55.238 365.003 54.776 364.739 54.512C364.475 54.248 363.995 54.116 363.299 54.116C363.095 54.116 362.873 54.134 362.633 54.17C362.405 54.194 362.165 54.236 361.913 54.296C361.673 54.344 361.439 54.41 361.211 54.494C360.995 54.566 360.803 54.65 360.635 54.746L360.185 53.666ZM362.741 60.884C363.077 60.884 363.377 60.842 363.641 60.758C363.905 60.662 364.133 60.548 364.325 60.416C364.517 60.272 364.673 60.116 364.793 59.948C364.925 59.78 365.021 59.618 365.081 59.462V57.968C364.913 57.956 364.739 57.95 364.559 57.95C364.391 57.938 364.223 57.932 364.055 57.932C363.683 57.932 363.317 57.956 362.957 58.004C362.609 58.04 362.297 58.118 362.021 58.238C361.757 58.346 361.541 58.502 361.373 58.706C361.217 58.898 361.139 59.144 361.139 59.444C361.139 59.864 361.289 60.212 361.589 60.488C361.889 60.752 362.273 60.884 362.741 60.884ZM374.507 54.386C374.147 54.266 373.805 54.206 373.481 54.206C372.965 54.206 372.557 54.35 372.257 54.638C371.957 54.914 371.771 55.268 371.699 55.7V62H370.259V53H371.267L371.537 54.098H371.609C371.837 53.69 372.107 53.378 372.419 53.162C372.743 52.934 373.151 52.82 373.643 52.82C373.991 52.82 374.381 52.88 374.813 53L374.507 54.386ZM376.944 49.184C377.496 49.76 377.964 50.396 378.348 51.092C378.732 51.776 379.038 52.484 379.266 53.216C379.506 53.936 379.68 54.668 379.788 55.412C379.896 56.144 379.95 56.846 379.95 57.518C379.95 58.178 379.896 58.874 379.788 59.606C379.68 60.338 379.506 61.076 379.266 61.82C379.026 62.552 378.708 63.272 378.312 63.98C377.928 64.688 377.454 65.348 376.89 65.96L376.026 65.33C376.506 64.718 376.908 64.082 377.232 63.422C377.556 62.762 377.808 62.096 377.988 61.424C378.18 60.752 378.312 60.086 378.384 59.426C378.468 58.766 378.51 58.13 378.51 57.518C378.51 56.942 378.462 56.318 378.366 55.646C378.27 54.974 378.12 54.296 377.916 53.612C377.724 52.928 377.472 52.262 377.16 51.614C376.848 50.966 376.47 50.378 376.026 49.85L376.944 49.184Z" fill="#2D2D2D"/>
<path d="M58.008 127.7C58.008 125.6 58.452 123.992 59.34 122.876C60.228 121.748 61.494 121.184 63.138 121.184C64.026 121.184 64.794 121.34 65.442 121.652C66.09 121.964 66.624 122.408 67.044 122.984C67.476 123.548 67.794 124.232 67.998 125.036C68.202 125.828 68.304 126.716 68.304 127.7C68.304 129.8 67.854 131.414 66.954 132.542C66.066 133.658 64.794 134.216 63.138 134.216C62.262 134.216 61.5 134.06 60.852 133.748C60.216 133.436 59.682 132.998 59.25 132.434C58.83 131.858 58.518 131.174 58.314 130.382C58.11 129.578 58.008 128.684 58.008 127.7ZM59.592 127.7C59.592 128.396 59.658 129.056 59.79 129.68C59.934 130.304 60.15 130.856 60.438 131.336C60.726 131.804 61.092 132.182 61.536 132.47C61.992 132.746 62.526 132.884 63.138 132.884C64.254 132.884 65.13 132.464 65.766 131.624C66.402 130.772 66.72 129.464 66.72 127.7C66.72 127.016 66.648 126.362 66.504 125.738C66.372 125.102 66.156 124.55 65.856 124.082C65.568 123.602 65.196 123.224 64.74 122.948C64.296 122.66 63.762 122.516 63.138 122.516C62.034 122.516 61.164 122.942 60.528 123.794C59.904 124.634 59.592 125.936 59.592 127.7ZM77.8287 133.406C77.4687 133.67 77.0427 133.868 76.5507 134C76.0587 134.144 75.5427 134.216 75.0027 134.216C74.3067 134.216 73.7187 134.108 73.2387 133.892C72.7587 133.664 72.3627 133.346 72.0507 132.938C71.7507 132.518 71.5287 132.02 71.3847 131.444C71.2527 130.856 71.1867 130.208 71.1867 129.5C71.1867 127.976 71.5227 126.812 72.1947 126.008C72.8667 125.192 73.8327 124.784 75.0927 124.784C75.6687 124.784 76.1547 124.832 76.5507 124.928C76.9587 125.012 77.3247 125.138 77.6487 125.306L77.2347 126.548C76.9587 126.392 76.6527 126.272 76.3167 126.188C75.9807 126.092 75.6207 126.044 75.2367 126.044C73.5327 126.044 72.6807 127.196 72.6807 129.5C72.6807 129.956 72.7227 130.394 72.8067 130.814C72.9027 131.222 73.0527 131.588 73.2567 131.912C73.4727 132.224 73.7487 132.476 74.0847 132.668C74.4327 132.86 74.8587 132.956 75.3627 132.956C75.7947 132.956 76.1787 132.89 76.5147 132.758C76.8627 132.626 77.1447 132.476 77.3607 132.308L77.8287 133.406ZM86.5279 133.406C86.1679 133.67 85.7419 133.868 85.2499 134C84.7579 134.144 84.2419 134.216 83.7019 134.216C83.0059 134.216 82.4179 134.108 81.9379 133.892C81.4579 133.664 81.0619 133.346 80.7499 132.938C80.4499 132.518 80.2279 132.02 80.0839 131.444C79.9519 130.856 79.8859 130.208 79.8859 129.5C79.8859 127.976 80.2219 126.812 80.8939 126.008C81.5659 125.192 82.5319 124.784 83.7919 124.784C84.3679 124.784 84.8539 124.832 85.2499 124.928C85.6579 125.012 86.0239 125.138 86.3479 125.306L85.9339 126.548C85.6579 126.392 85.3519 126.272 85.0159 126.188C84.6799 126.092 84.3199 126.044 83.9359 126.044C82.2319 126.044 81.3799 127.196 81.3799 129.5C81.3799 129.956 81.4219 130.394 81.5059 130.814C81.6019 131.222 81.7519 131.588 81.9559 131.912C82.1719 132.224 82.4479 132.476 82.7839 132.668C83.1319 132.86 83.5579 132.956 84.0619 132.956C84.4939 132.956 84.8779 132.89 85.2139 132.758C85.5619 132.626 85.8439 132.476 86.0599 132.308L86.5279 133.406ZM89.367 125.666C89.823 125.39 90.351 125.186 90.951 125.054C91.563 124.922 92.199 124.856 92.859 124.856C93.483 124.856 93.981 124.94 94.353 125.108C94.737 125.276 95.025 125.498 95.217 125.774C95.421 126.038 95.553 126.332 95.613 126.656C95.685 126.98 95.721 127.304 95.721 127.628C95.721 128.348 95.703 129.05 95.667 129.734C95.631 130.418 95.613 131.066 95.613 131.678C95.613 132.122 95.631 132.542 95.667 132.938C95.703 133.334 95.769 133.7 95.865 134.036H94.803L94.425 132.776H94.335C94.227 132.944 94.089 133.112 93.921 133.28C93.765 133.436 93.573 133.58 93.345 133.712C93.117 133.832 92.853 133.934 92.553 134.018C92.253 134.102 91.911 134.144 91.527 134.144C91.143 134.144 90.783 134.084 90.447 133.964C90.123 133.844 89.841 133.676 89.601 133.46C89.361 133.232 89.169 132.962 89.025 132.65C88.893 132.338 88.827 131.984 88.827 131.588C88.827 131.06 88.935 130.622 89.151 130.274C89.367 129.914 89.667 129.632 90.051 129.428C90.447 129.212 90.915 129.062 91.455 128.978C92.007 128.882 92.613 128.834 93.273 128.834C93.441 128.834 93.603 128.834 93.759 128.834C93.927 128.834 94.095 128.846 94.263 128.87C94.299 128.51 94.317 128.186 94.317 127.898C94.317 127.238 94.185 126.776 93.921 126.512C93.657 126.248 93.177 126.116 92.481 126.116C92.277 126.116 92.055 126.134 91.815 126.17C91.587 126.194 91.347 126.236 91.095 126.296C90.855 126.344 90.621 126.41 90.393 126.494C90.177 126.566 89.985 126.65 89.817 126.746L89.367 125.666ZM91.923 132.884C92.259 132.884 92.559 132.842 92.823 132.758C93.087 132.662 93.315 132.548 93.507 132.416C93.699 132.272 93.855 132.116 93.975 131.948C94.107 131.78 94.203 131.618 94.263 131.462V129.968C94.095 129.956 93.921 129.95 93.741 129.95C93.573 129.938 93.405 129.932 93.237 129.932C92.865 129.932 92.499 129.956 92.139 130.004C91.791 130.04 91.479 130.118 91.203 130.238C90.939 130.346 90.723 130.502 90.555 130.706C90.399 130.898 90.321 131.144 90.321 131.444C90.321 131.864 90.471 132.212 90.771 132.488C91.071 132.752 91.455 132.884 91.923 132.884ZM103.401 131.552C103.401 131.192 103.293 130.91 103.077 130.706C102.861 130.502 102.591 130.334 102.267 130.202C101.955 130.058 101.607 129.926 101.223 129.806C100.851 129.674 100.503 129.512 100.179 129.32C99.8667 129.116 99.6027 128.858 99.3867 128.546C99.1707 128.234 99.0627 127.814 99.0627 127.286C99.0627 126.422 99.3087 125.792 99.8007 125.396C100.293 124.988 100.977 124.784 101.853 124.784C102.501 124.784 103.041 124.844 103.473 124.964C103.917 125.072 104.301 125.204 104.625 125.36L104.283 126.548C104.007 126.416 103.671 126.302 103.275 126.206C102.891 126.098 102.477 126.044 102.033 126.044C101.505 126.044 101.115 126.134 100.863 126.314C100.623 126.494 100.503 126.806 100.503 127.25C100.503 127.562 100.611 127.808 100.827 127.988C101.043 128.156 101.307 128.312 101.619 128.456C101.943 128.588 102.291 128.72 102.663 128.852C103.047 128.984 103.395 129.158 103.707 129.374C104.031 129.59 104.301 129.866 104.517 130.202C104.733 130.526 104.841 130.958 104.841 131.498C104.841 131.882 104.775 132.242 104.643 132.578C104.523 132.914 104.331 133.202 104.067 133.442C103.803 133.682 103.473 133.868 103.077 134C102.693 134.144 102.237 134.216 101.709 134.216C101.025 134.216 100.443 134.15 99.9627 134.018C99.4827 133.886 99.0807 133.73 98.7567 133.55L99.1887 132.326C99.4647 132.482 99.8247 132.626 100.269 132.758C100.713 132.89 101.163 132.956 101.619 132.956C102.135 132.956 102.561 132.854 102.897 132.65C103.233 132.446 103.401 132.08 103.401 131.552ZM108.323 125H109.763V134H108.323V125ZM108.017 122.264C108.017 121.988 108.107 121.754 108.287 121.562C108.479 121.358 108.719 121.256 109.007 121.256C109.295 121.256 109.541 121.358 109.745 121.562C109.949 121.754 110.051 121.988 110.051 122.264C110.051 122.54 109.949 122.768 109.745 122.948C109.541 123.128 109.295 123.218 109.007 123.218C108.719 123.218 108.479 123.128 108.287 122.948C108.107 122.768 108.017 122.54 108.017 122.264ZM113.329 129.5C113.329 127.976 113.665 126.812 114.337 126.008C115.021 125.192 115.999 124.784 117.271 124.784C117.943 124.784 118.525 124.898 119.017 125.126C119.521 125.342 119.935 125.66 120.259 126.08C120.583 126.488 120.823 126.986 120.979 127.574C121.135 128.15 121.213 128.792 121.213 129.5C121.213 131.024 120.871 132.194 120.187 133.01C119.515 133.814 118.543 134.216 117.271 134.216C116.599 134.216 116.011 134.108 115.507 133.892C115.015 133.664 114.607 133.346 114.283 132.938C113.959 132.518 113.719 132.02 113.563 131.444C113.407 130.856 113.329 130.208 113.329 129.5ZM114.823 129.5C114.823 129.956 114.865 130.394 114.949 130.814C115.045 131.234 115.189 131.6 115.381 131.912C115.573 132.224 115.825 132.476 116.137 132.668C116.449 132.86 116.827 132.956 117.271 132.956C118.903 132.968 119.719 131.816 119.719 129.5C119.719 129.032 119.671 128.588 119.575 128.168C119.491 127.748 119.353 127.382 119.161 127.07C118.969 126.758 118.717 126.512 118.405 126.332C118.093 126.14 117.715 126.044 117.271 126.044C115.639 126.032 114.823 127.184 114.823 129.5ZM130.262 134V128.87C130.262 127.934 130.124 127.232 129.848 126.764C129.584 126.284 129.092 126.044 128.372 126.044C127.736 126.044 127.208 126.218 126.788 126.566C126.38 126.902 126.092 127.328 125.924 127.844V134H124.484V125H125.492L125.762 126.098H125.834C126.122 125.714 126.506 125.402 126.986 125.162C127.478 124.91 128.06 124.784 128.732 124.784C129.224 124.784 129.656 124.844 130.028 124.964C130.4 125.072 130.706 125.27 130.946 125.558C131.198 125.846 131.384 126.236 131.504 126.728C131.636 127.208 131.702 127.82 131.702 128.564V134H130.262ZM135.183 125.666C135.639 125.39 136.167 125.186 136.767 125.054C137.379 124.922 138.015 124.856 138.675 124.856C139.299 124.856 139.797 124.94 140.169 125.108C140.553 125.276 140.841 125.498 141.033 125.774C141.237 126.038 141.369 126.332 141.429 126.656C141.501 126.98 141.537 127.304 141.537 127.628C141.537 128.348 141.519 129.05 141.483 129.734C141.447 130.418 141.429 131.066 141.429 131.678C141.429 132.122 141.447 132.542 141.483 132.938C141.519 133.334 141.585 133.7 141.681 134.036H140.619L140.241 132.776H140.151C140.043 132.944 139.905 133.112 139.737 133.28C139.581 133.436 139.389 133.58 139.161 133.712C138.933 133.832 138.669 133.934 138.369 134.018C138.069 134.102 137.727 134.144 137.343 134.144C136.959 134.144 136.599 134.084 136.263 133.964C135.939 133.844 135.657 133.676 135.417 133.46C135.177 133.232 134.985 132.962 134.841 132.65C134.709 132.338 134.643 131.984 134.643 131.588C134.643 131.06 134.751 130.622 134.967 130.274C135.183 129.914 135.483 129.632 135.867 129.428C136.263 129.212 136.731 129.062 137.271 128.978C137.823 128.882 138.429 128.834 139.089 128.834C139.257 128.834 139.419 128.834 139.575 128.834C139.743 128.834 139.911 128.846 140.079 128.87C140.115 128.51 140.133 128.186 140.133 127.898C140.133 127.238 140.001 126.776 139.737 126.512C139.473 126.248 138.993 126.116 138.297 126.116C138.093 126.116 137.871 126.134 137.631 126.17C137.403 126.194 137.163 126.236 136.911 126.296C136.671 126.344 136.437 126.41 136.209 126.494C135.993 126.566 135.801 126.65 135.633 126.746L135.183 125.666ZM137.739 132.884C138.075 132.884 138.375 132.842 138.639 132.758C138.903 132.662 139.131 132.548 139.323 132.416C139.515 132.272 139.671 132.116 139.791 131.948C139.923 131.78 140.019 131.618 140.079 131.462V129.968C139.911 129.956 139.737 129.95 139.557 129.95C139.389 129.938 139.221 129.932 139.053 129.932C138.681 129.932 138.315 129.956 137.955 130.004C137.607 130.04 137.295 130.118 137.019 130.238C136.755 130.346 136.539 130.502 136.371 130.706C136.215 130.898 136.137 131.144 136.137 131.444C136.137 131.864 136.287 132.212 136.587 132.488C136.887 132.752 137.271 132.884 137.739 132.884ZM146.859 131.786C146.859 132.206 146.931 132.506 147.075 132.686C147.219 132.866 147.423 132.956 147.687 132.956C147.843 132.956 148.011 132.944 148.191 132.92C148.371 132.896 148.575 132.842 148.803 132.758L148.965 133.892C148.773 133.988 148.503 134.066 148.155 134.126C147.819 134.186 147.525 134.216 147.273 134.216C146.733 134.216 146.289 134.066 145.941 133.766C145.593 133.454 145.419 132.932 145.419 132.2V121.4H146.859V131.786ZM153.115 131.786C153.115 132.206 153.187 132.506 153.331 132.686C153.475 132.866 153.679 132.956 153.943 132.956C154.099 132.956 154.267 132.944 154.447 132.92C154.627 132.896 154.831 132.842 155.059 132.758L155.221 133.892C155.029 133.988 154.759 134.066 154.411 134.126C154.075 134.186 153.781 134.216 153.529 134.216C152.989 134.216 152.545 134.066 152.197 133.766C151.849 133.454 151.675 132.932 151.675 132.2V121.4H153.115V131.786ZM160.415 130.832L160.919 132.56H161.009L161.405 130.814L163.151 125H164.609L161.945 133.082C161.741 133.67 161.537 134.24 161.333 134.792C161.141 135.344 160.925 135.836 160.685 136.268C160.445 136.7 160.175 137.042 159.875 137.294C159.575 137.558 159.227 137.69 158.831 137.69C158.399 137.69 158.045 137.63 157.769 137.51L158.021 136.268C158.177 136.328 158.327 136.358 158.471 136.358C158.807 136.358 159.131 136.178 159.443 135.818C159.755 135.47 160.013 134.864 160.217 134L156.599 125H158.255L160.415 130.832ZM175.002 137.96C174.45 137.384 173.982 136.748 173.598 136.052C173.214 135.368 172.902 134.666 172.662 133.946C172.434 133.214 172.266 132.482 172.158 131.75C172.05 131.006 171.996 130.298 171.996 129.626C171.996 128.966 172.05 128.27 172.158 127.538C172.266 126.806 172.44 126.074 172.68 125.342C172.92 124.598 173.232 123.872 173.616 123.164C174.012 122.456 174.492 121.796 175.056 121.184L175.92 121.814C175.44 122.426 175.038 123.062 174.714 123.722C174.402 124.37 174.15 125.03 173.958 125.702C173.766 126.374 173.628 127.046 173.544 127.718C173.472 128.378 173.436 129.014 173.436 129.626C173.436 130.202 173.478 130.832 173.562 131.516C173.658 132.188 173.802 132.866 173.994 133.55C174.198 134.222 174.456 134.882 174.768 135.53C175.092 136.178 175.476 136.766 175.92 137.294L175.002 137.96ZM184.989 124.262C184.989 124.898 184.869 125.552 184.629 126.224C184.401 126.884 184.095 127.55 183.711 128.222C183.339 128.894 182.919 129.554 182.451 130.202C181.983 130.838 181.515 131.444 181.047 132.02L180.165 132.794V132.866L181.317 132.668H185.241V134H178.077V133.478C178.341 133.202 178.659 132.86 179.031 132.452C179.403 132.044 179.787 131.594 180.183 131.102C180.591 130.598 180.987 130.07 181.371 129.518C181.767 128.954 182.121 128.384 182.433 127.808C182.757 127.232 183.015 126.662 183.207 126.098C183.399 125.534 183.495 125 183.495 124.496C183.495 123.908 183.327 123.422 182.991 123.038C182.655 122.642 182.145 122.444 181.461 122.444C181.005 122.444 180.561 122.54 180.129 122.732C179.697 122.912 179.325 123.122 179.013 123.362L178.419 122.336C178.839 121.976 179.337 121.694 179.913 121.49C180.489 121.286 181.107 121.184 181.767 121.184C182.283 121.184 182.739 121.262 183.135 121.418C183.531 121.562 183.867 121.772 184.143 122.048C184.419 122.324 184.629 122.654 184.773 123.038C184.917 123.41 184.989 123.818 184.989 124.262ZM188.832 128.15H193.188V129.482H188.832V128.15ZM204.688 130.13H202.564V134H201.16V130.13H195.616V129.536L201.592 121.202H202.564V128.87H204.688V130.13ZM201.16 124.946L201.34 123.47H201.286L200.656 124.694L198.118 128.132L197.254 129.014L198.514 128.87H201.16V124.946ZM212.061 125H213.465V123.218L214.905 122.804V125H217.353V126.26H214.905V131.246C214.905 131.87 214.983 132.314 215.139 132.578C215.295 132.83 215.559 132.956 215.931 132.956C216.243 132.956 216.507 132.926 216.723 132.866C216.939 132.794 217.179 132.704 217.443 132.596L217.767 133.694C217.443 133.85 217.089 133.976 216.705 134.072C216.321 134.168 215.907 134.216 215.463 134.216C214.731 134.216 214.215 134.012 213.915 133.604C213.615 133.184 213.465 132.488 213.465 131.516V126.26H212.061V125ZM220.655 125H222.095V134H220.655V125ZM220.349 122.264C220.349 121.988 220.439 121.754 220.619 121.562C220.811 121.358 221.051 121.256 221.339 121.256C221.627 121.256 221.873 121.358 222.077 121.562C222.281 121.754 222.383 121.988 222.383 122.264C222.383 122.54 222.281 122.768 222.077 122.948C221.873 123.128 221.627 123.218 221.339 123.218C221.051 123.218 220.811 123.128 220.619 122.948C220.439 122.768 220.349 122.54 220.349 122.264ZM231.439 134V128.906C231.439 128.426 231.415 128.012 231.367 127.664C231.331 127.304 231.253 127.004 231.133 126.764C231.013 126.524 230.839 126.344 230.611 126.224C230.395 126.104 230.107 126.044 229.747 126.044C229.195 126.044 228.733 126.212 228.361 126.548C228.001 126.884 227.749 127.304 227.605 127.808V134H226.165V125H227.173L227.443 126.098H227.515C227.839 125.714 228.211 125.402 228.631 125.162C229.063 124.91 229.621 124.784 230.305 124.784C230.881 124.784 231.349 124.898 231.709 125.126C232.081 125.342 232.369 125.726 232.573 126.278C232.849 125.81 233.227 125.444 233.707 125.18C234.199 124.916 234.751 124.784 235.363 124.784C235.867 124.784 236.293 124.844 236.641 124.964C236.989 125.072 237.277 125.27 237.505 125.558C237.733 125.846 237.895 126.236 237.991 126.728C238.099 127.22 238.153 127.844 238.153 128.6V134H236.713V128.582C236.713 128.15 236.689 127.778 236.641 127.466C236.605 127.142 236.521 126.878 236.389 126.674C236.269 126.458 236.095 126.302 235.867 126.206C235.651 126.098 235.363 126.044 235.003 126.044C234.403 126.044 233.935 126.212 233.599 126.548C233.263 126.884 233.023 127.364 232.879 127.988V134H231.439ZM248.343 133.28C247.983 133.568 247.527 133.796 246.975 133.964C246.435 134.132 245.859 134.216 245.247 134.216C244.563 134.216 243.969 134.108 243.465 133.892C242.961 133.664 242.547 133.346 242.223 132.938C241.899 132.518 241.659 132.02 241.503 131.444C241.347 130.868 241.269 130.22 241.269 129.5C241.269 127.964 241.611 126.794 242.295 125.99C242.979 125.186 243.957 124.784 245.229 124.784C245.637 124.784 246.045 124.832 246.453 124.928C246.861 125.012 247.227 125.18 247.551 125.432C247.875 125.684 248.139 126.044 248.343 126.512C248.547 126.968 248.649 127.574 248.649 128.33C248.649 128.726 248.613 129.164 248.541 129.644H242.763C242.763 130.172 242.817 130.64 242.925 131.048C243.033 131.456 243.201 131.804 243.429 132.092C243.657 132.368 243.951 132.584 244.311 132.74C244.683 132.884 245.133 132.956 245.661 132.956C246.069 132.956 246.477 132.884 246.885 132.74C247.293 132.596 247.599 132.428 247.803 132.236L248.343 133.28ZM245.247 126.044C244.539 126.044 243.969 126.23 243.537 126.602C243.117 126.974 242.865 127.61 242.781 128.51H247.245C247.245 127.598 247.071 126.962 246.723 126.602C246.375 126.23 245.883 126.044 245.247 126.044ZM255.873 131.552C255.873 131.192 255.765 130.91 255.549 130.706C255.333 130.502 255.063 130.334 254.739 130.202C254.427 130.058 254.079 129.926 253.695 129.806C253.323 129.674 252.975 129.512 252.651 129.32C252.339 129.116 252.075 128.858 251.859 128.546C251.643 128.234 251.535 127.814 251.535 127.286C251.535 126.422 251.781 125.792 252.273 125.396C252.765 124.988 253.449 124.784 254.325 124.784C254.973 124.784 255.513 124.844 255.945 124.964C256.389 125.072 256.773 125.204 257.097 125.36L256.755 126.548C256.479 126.416 256.143 126.302 255.747 126.206C255.363 126.098 254.949 126.044 254.505 126.044C253.977 126.044 253.587 126.134 253.335 126.314C253.095 126.494 252.975 126.806 252.975 127.25C252.975 127.562 253.083 127.808 253.299 127.988C253.515 128.156 253.779 128.312 254.091 128.456C254.415 128.588 254.763 128.72 255.135 128.852C255.519 128.984 255.867 129.158 256.179 129.374C256.503 129.59 256.773 129.866 256.989 130.202C257.205 130.526 257.313 130.958 257.313 131.498C257.313 131.882 257.247 132.242 257.115 132.578C256.995 132.914 256.803 133.202 256.539 133.442C256.275 133.682 255.945 133.868 255.549 134C255.165 134.144 254.709 134.216 254.181 134.216C253.497 134.216 252.915 134.15 252.435 134.018C251.955 133.886 251.553 133.73 251.229 133.55L251.661 132.326C251.937 132.482 252.297 132.626 252.741 132.758C253.185 132.89 253.635 132.956 254.091 132.956C254.607 132.956 255.033 132.854 255.369 132.65C255.705 132.446 255.873 132.08 255.873 131.552ZM266.144 125.666C266.6 125.39 267.128 125.186 267.728 125.054C268.34 124.922 268.976 124.856 269.636 124.856C270.26 124.856 270.758 124.94 271.13 125.108C271.514 125.276 271.802 125.498 271.994 125.774C272.198 126.038 272.33 126.332 272.39 126.656C272.462 126.98 272.498 127.304 272.498 127.628C272.498 128.348 272.48 129.05 272.444 129.734C272.408 130.418 272.39 131.066 272.39 131.678C272.39 132.122 272.408 132.542 272.444 132.938C272.48 133.334 272.546 133.7 272.642 134.036H271.58L271.202 132.776H271.112C271.004 132.944 270.866 133.112 270.698 133.28C270.542 133.436 270.35 133.58 270.122 133.712C269.894 133.832 269.63 133.934 269.33 134.018C269.03 134.102 268.688 134.144 268.304 134.144C267.92 134.144 267.56 134.084 267.224 133.964C266.9 133.844 266.618 133.676 266.378 133.46C266.138 133.232 265.946 132.962 265.802 132.65C265.67 132.338 265.604 131.984 265.604 131.588C265.604 131.06 265.712 130.622 265.928 130.274C266.144 129.914 266.444 129.632 266.828 129.428C267.224 129.212 267.692 129.062 268.232 128.978C268.784 128.882 269.39 128.834 270.05 128.834C270.218 128.834 270.38 128.834 270.536 128.834C270.704 128.834 270.872 128.846 271.04 128.87C271.076 128.51 271.094 128.186 271.094 127.898C271.094 127.238 270.962 126.776 270.698 126.512C270.434 126.248 269.954 126.116 269.258 126.116C269.054 126.116 268.832 126.134 268.592 126.17C268.364 126.194 268.124 126.236 267.872 126.296C267.632 126.344 267.398 126.41 267.17 126.494C266.954 126.566 266.762 126.65 266.594 126.746L266.144 125.666ZM268.7 132.884C269.036 132.884 269.336 132.842 269.6 132.758C269.864 132.662 270.092 132.548 270.284 132.416C270.476 132.272 270.632 132.116 270.752 131.948C270.884 131.78 270.98 131.618 271.04 131.462V129.968C270.872 129.956 270.698 129.95 270.518 129.95C270.35 129.938 270.182 129.932 270.014 129.932C269.642 129.932 269.276 129.956 268.916 130.004C268.568 130.04 268.256 130.118 267.98 130.238C267.716 130.346 267.5 130.502 267.332 130.706C267.176 130.898 267.098 131.144 267.098 131.444C267.098 131.864 267.248 132.212 267.548 132.488C267.848 132.752 268.232 132.884 268.7 132.884ZM284.417 130.832L284.921 132.56H285.011L285.407 130.814L287.153 125H288.611L285.947 133.082C285.743 133.67 285.539 134.24 285.335 134.792C285.143 135.344 284.927 135.836 284.687 136.268C284.447 136.7 284.177 137.042 283.877 137.294C283.577 137.558 283.229 137.69 282.833 137.69C282.401 137.69 282.047 137.63 281.771 137.51L282.023 136.268C282.179 136.328 282.329 136.358 282.473 136.358C282.809 136.358 283.133 136.178 283.445 135.818C283.757 135.47 284.015 134.864 284.219 134L280.601 125H282.257L284.417 130.832ZM297.532 133.28C297.172 133.568 296.716 133.796 296.164 133.964C295.624 134.132 295.048 134.216 294.436 134.216C293.752 134.216 293.158 134.108 292.654 133.892C292.15 133.664 291.736 133.346 291.412 132.938C291.088 132.518 290.848 132.02 290.692 131.444C290.536 130.868 290.458 130.22 290.458 129.5C290.458 127.964 290.8 126.794 291.484 125.99C292.168 125.186 293.146 124.784 294.418 124.784C294.826 124.784 295.234 124.832 295.642 124.928C296.05 125.012 296.416 125.18 296.74 125.432C297.064 125.684 297.328 126.044 297.532 126.512C297.736 126.968 297.838 127.574 297.838 128.33C297.838 128.726 297.802 129.164 297.73 129.644H291.952C291.952 130.172 292.006 130.64 292.114 131.048C292.222 131.456 292.39 131.804 292.618 132.092C292.846 132.368 293.14 132.584 293.5 132.74C293.872 132.884 294.322 132.956 294.85 132.956C295.258 132.956 295.666 132.884 296.074 132.74C296.482 132.596 296.788 132.428 296.992 132.236L297.532 133.28ZM294.436 126.044C293.728 126.044 293.158 126.23 292.726 126.602C292.306 126.974 292.054 127.61 291.97 128.51H296.434C296.434 127.598 296.26 126.962 295.912 126.602C295.564 126.23 295.072 126.044 294.436 126.044ZM300.959 125.666C301.415 125.39 301.943 125.186 302.543 125.054C303.155 124.922 303.791 124.856 304.451 124.856C305.075 124.856 305.573 124.94 305.945 125.108C306.329 125.276 306.617 125.498 306.809 125.774C307.013 126.038 307.145 126.332 307.205 126.656C307.277 126.98 307.313 127.304 307.313 127.628C307.313 128.348 307.295 129.05 307.259 129.734C307.223 130.418 307.205 131.066 307.205 131.678C307.205 132.122 307.223 132.542 307.259 132.938C307.295 133.334 307.361 133.7 307.457 134.036H306.395L306.017 132.776H305.927C305.819 132.944 305.681 133.112 305.513 133.28C305.357 133.436 305.165 133.58 304.937 133.712C304.709 133.832 304.445 133.934 304.145 134.018C303.845 134.102 303.503 134.144 303.119 134.144C302.735 134.144 302.375 134.084 302.039 133.964C301.715 133.844 301.433 133.676 301.193 133.46C300.953 133.232 300.761 132.962 300.617 132.65C300.485 132.338 300.419 131.984 300.419 131.588C300.419 131.06 300.527 130.622 300.743 130.274C300.959 129.914 301.259 129.632 301.643 129.428C302.039 129.212 302.507 129.062 303.047 128.978C303.599 128.882 304.205 128.834 304.865 128.834C305.033 128.834 305.195 128.834 305.351 128.834C305.519 128.834 305.687 128.846 305.855 128.87C305.891 128.51 305.909 128.186 305.909 127.898C305.909 127.238 305.777 126.776 305.513 126.512C305.249 126.248 304.769 126.116 304.073 126.116C303.869 126.116 303.647 126.134 303.407 126.17C303.179 126.194 302.939 126.236 302.687 126.296C302.447 126.344 302.213 126.41 301.985 126.494C301.769 126.566 301.577 126.65 301.409 126.746L300.959 125.666ZM303.515 132.884C303.851 132.884 304.151 132.842 304.415 132.758C304.679 132.662 304.907 132.548 305.099 132.416C305.291 132.272 305.447 132.116 305.567 131.948C305.699 131.78 305.795 131.618 305.855 131.462V129.968C305.687 129.956 305.513 129.95 305.333 129.95C305.165 129.938 304.997 129.932 304.829 129.932C304.457 129.932 304.091 129.956 303.731 130.004C303.383 130.04 303.071 130.118 302.795 130.238C302.531 130.346 302.315 130.502 302.147 130.706C301.991 130.898 301.913 131.144 301.913 131.444C301.913 131.864 302.063 132.212 302.363 132.488C302.663 132.752 303.047 132.884 303.515 132.884ZM315.28 126.386C314.92 126.266 314.578 126.206 314.254 126.206C313.738 126.206 313.33 126.35 313.03 126.638C312.73 126.914 312.544 127.268 312.472 127.7V134H311.032V125H312.04L312.31 126.098H312.382C312.61 125.69 312.88 125.378 313.192 125.162C313.516 124.934 313.924 124.82 314.416 124.82C314.764 124.82 315.154 124.88 315.586 125L315.28 126.386ZM317.718 121.184C318.27 121.76 318.738 122.396 319.122 123.092C319.506 123.776 319.812 124.484 320.04 125.216C320.28 125.936 320.454 126.668 320.562 127.412C320.67 128.144 320.724 128.846 320.724 129.518C320.724 130.178 320.67 130.874 320.562 131.606C320.454 132.338 320.28 133.076 320.04 133.82C319.8 134.552 319.482 135.272 319.086 135.98C318.702 136.688 318.228 137.348 317.664 137.96L316.8 137.33C317.28 136.718 317.682 136.082 318.006 135.422C318.33 134.762 318.582 134.096 318.762 133.424C318.954 132.752 319.086 132.086 319.158 131.426C319.242 130.766 319.284 130.13 319.284 129.518C319.284 128.942 319.236 128.318 319.14 127.646C319.044 126.974 318.894 126.296 318.69 125.612C318.498 124.928 318.246 124.262 317.934 123.614C317.622 122.966 317.244 122.378 316.8 121.85L317.718 121.184Z" fill="#2D2D2D"/>
<path d="M58.53 193.526C58.986 193.442 59.508 193.376 60.096 193.328C60.696 193.28 61.242 193.256 61.734 193.256C62.286 193.256 62.808 193.316 63.3 193.436C63.804 193.556 64.242 193.754 64.614 194.03C64.998 194.306 65.304 194.666 65.532 195.11C65.76 195.554 65.874 196.094 65.874 196.73C65.874 197.714 65.604 198.512 65.064 199.124C64.524 199.736 63.84 200.144 63.012 200.348L63.876 201.014L67.008 206H65.262L61.788 200.564L60.024 200.294V206H58.53V193.526ZM61.77 194.552C61.614 194.552 61.452 194.552 61.284 194.552C61.116 194.552 60.954 194.558 60.798 194.57C60.642 194.582 60.492 194.594 60.348 194.606C60.216 194.618 60.108 194.636 60.024 194.66V199.304H61.428C62.256 199.304 62.94 199.1 63.48 198.692C64.02 198.284 64.29 197.648 64.29 196.784C64.29 196.136 64.068 195.602 63.624 195.182C63.18 194.762 62.562 194.552 61.77 194.552ZM69.7713 197.666C70.2273 197.39 70.7553 197.186 71.3553 197.054C71.9673 196.922 72.6033 196.856 73.2633 196.856C73.8873 196.856 74.3853 196.94 74.7573 197.108C75.1413 197.276 75.4293 197.498 75.6213 197.774C75.8253 198.038 75.9573 198.332 76.0173 198.656C76.0893 198.98 76.1253 199.304 76.1253 199.628C76.1253 200.348 76.1073 201.05 76.0713 201.734C76.0353 202.418 76.0173 203.066 76.0173 203.678C76.0173 204.122 76.0353 204.542 76.0713 204.938C76.1073 205.334 76.1733 205.7 76.2693 206.036H75.2073L74.8293 204.776H74.7393C74.6313 204.944 74.4933 205.112 74.3253 205.28C74.1693 205.436 73.9773 205.58 73.7493 205.712C73.5213 205.832 73.2573 205.934 72.9573 206.018C72.6573 206.102 72.3153 206.144 71.9313 206.144C71.5473 206.144 71.1873 206.084 70.8513 205.964C70.5273 205.844 70.2453 205.676 70.0053 205.46C69.7653 205.232 69.5733 204.962 69.4293 204.65C69.2973 204.338 69.2313 203.984 69.2313 203.588C69.2313 203.06 69.3393 202.622 69.5553 202.274C69.7713 201.914 70.0713 201.632 70.4553 201.428C70.8513 201.212 71.3193 201.062 71.8593 200.978C72.4113 200.882 73.0173 200.834 73.6773 200.834C73.8453 200.834 74.0073 200.834 74.1633 200.834C74.3313 200.834 74.4993 200.846 74.6673 200.87C74.7033 200.51 74.7213 200.186 74.7213 199.898C74.7213 199.238 74.5893 198.776 74.3253 198.512C74.0613 198.248 73.5813 198.116 72.8853 198.116C72.6813 198.116 72.4593 198.134 72.2193 198.17C71.9913 198.194 71.7513 198.236 71.4993 198.296C71.2593 198.344 71.0253 198.41 70.7973 198.494C70.5813 198.566 70.3893 198.65 70.2213 198.746L69.7713 197.666ZM72.3273 204.884C72.6633 204.884 72.9633 204.842 73.2273 204.758C73.4913 204.662 73.7193 204.548 73.9113 204.416C74.1033 204.272 74.2593 204.116 74.3793 203.948C74.5113 203.78 74.6073 203.618 74.6673 203.462V201.968C74.4993 201.956 74.3253 201.95 74.1453 201.95C73.9773 201.938 73.8093 201.932 73.6413 201.932C73.2693 201.932 72.9033 201.956 72.5433 202.004C72.1953 202.04 71.8833 202.118 71.6073 202.238C71.3433 202.346 71.1273 202.502 70.9593 202.706C70.8033 202.898 70.7253 203.144 70.7253 203.444C70.7253 203.864 70.8753 204.212 71.1753 204.488C71.4753 204.752 71.8593 204.884 72.3273 204.884ZM84.093 198.386C83.733 198.266 83.391 198.206 83.067 198.206C82.551 198.206 82.143 198.35 81.843 198.638C81.543 198.914 81.357 199.268 81.285 199.7V206H79.845V197H80.853L81.123 198.098H81.195C81.423 197.69 81.693 197.378 82.005 197.162C82.329 196.934 82.737 196.82 83.229 196.82C83.577 196.82 83.967 196.88 84.399 197L84.093 198.386ZM93.5322 205.28C93.1722 205.568 92.7162 205.796 92.1642 205.964C91.6242 206.132 91.0482 206.216 90.4362 206.216C89.7522 206.216 89.1582 206.108 88.6542 205.892C88.1502 205.664 87.7362 205.346 87.4122 204.938C87.0882 204.518 86.8482 204.02 86.6922 203.444C86.5362 202.868 86.4582 202.22 86.4582 201.5C86.4582 199.964 86.8002 198.794 87.4842 197.99C88.1682 197.186 89.1462 196.784 90.4182 196.784C90.8262 196.784 91.2342 196.832 91.6422 196.928C92.0502 197.012 92.4162 197.18 92.7402 197.432C93.0642 197.684 93.3282 198.044 93.5322 198.512C93.7362 198.968 93.8382 199.574 93.8382 200.33C93.8382 200.726 93.8022 201.164 93.7302 201.644H87.9522C87.9522 202.172 88.0062 202.64 88.1142 203.048C88.2222 203.456 88.3902 203.804 88.6182 204.092C88.8462 204.368 89.1402 204.584 89.5002 204.74C89.8722 204.884 90.3222 204.956 90.8502 204.956C91.2582 204.956 91.6662 204.884 92.0742 204.74C92.4822 204.596 92.7882 204.428 92.9922 204.236L93.5322 205.28ZM90.4362 198.044C89.7282 198.044 89.1582 198.23 88.7262 198.602C88.3062 198.974 88.0542 199.61 87.9702 200.51H92.4342C92.4342 199.598 92.2602 198.962 91.9122 198.602C91.5642 198.23 91.0722 198.044 90.4362 198.044ZM98.7048 203.786C98.7048 204.206 98.7768 204.506 98.9208 204.686C99.0648 204.866 99.2688 204.956 99.5328 204.956C99.6888 204.956 99.8568 204.944 100.037 204.92C100.217 204.896 100.421 204.842 100.649 204.758L100.811 205.892C100.619 205.988 100.349 206.066 100.001 206.126C99.6648 206.186 99.3708 206.216 99.1188 206.216C98.5788 206.216 98.1348 206.066 97.7868 205.766C97.4388 205.454 97.2648 204.932 97.2648 204.2V193.4H98.7048V203.786ZM106.005 202.832L106.509 204.56H106.599L106.995 202.814L108.741 197H110.199L107.535 205.082C107.331 205.67 107.127 206.24 106.923 206.792C106.731 207.344 106.515 207.836 106.275 208.268C106.035 208.7 105.765 209.042 105.465 209.294C105.165 209.558 104.817 209.69 104.421 209.69C103.989 209.69 103.635 209.63 103.359 209.51L103.611 208.268C103.767 208.328 103.917 208.358 104.061 208.358C104.397 208.358 104.721 208.178 105.033 207.818C105.345 207.47 105.603 206.864 105.807 206L102.189 197H103.845L106.005 202.832ZM120.592 209.96C120.04 209.384 119.572 208.748 119.188 208.052C118.804 207.368 118.492 206.666 118.252 205.946C118.024 205.214 117.856 204.482 117.748 203.75C117.64 203.006 117.586 202.298 117.586 201.626C117.586 200.966 117.64 200.27 117.748 199.538C117.856 198.806 118.03 198.074 118.27 197.342C118.51 196.598 118.822 195.872 119.206 195.164C119.602 194.456 120.082 193.796 120.646 193.184L121.51 193.814C121.03 194.426 120.628 195.062 120.304 195.722C119.992 196.37 119.74 197.03 119.548 197.702C119.356 198.374 119.218 199.046 119.134 199.718C119.062 200.378 119.026 201.014 119.026 201.626C119.026 202.202 119.068 202.832 119.152 203.516C119.248 204.188 119.392 204.866 119.584 205.55C119.788 206.222 120.046 206.882 120.358 207.53C120.682 208.178 121.066 208.766 121.51 209.294L120.592 209.96ZM124.495 204.668H127.015V195.956L127.195 194.894L126.475 195.74L124.495 197.162L123.811 196.244L127.771 193.184H128.419V204.668H130.885V206H124.495V204.668ZM139.356 197H140.76V195.218L142.2 194.804V197H144.648V198.26H142.2V203.246C142.2 203.87 142.278 204.314 142.434 204.578C142.59 204.83 142.854 204.956 143.226 204.956C143.538 204.956 143.802 204.926 144.018 204.866C144.234 204.794 144.474 204.704 144.738 204.596L145.062 205.694C144.738 205.85 144.384 205.976 144 206.072C143.616 206.168 143.202 206.216 142.758 206.216C142.026 206.216 141.51 206.012 141.21 205.604C140.91 205.184 140.76 204.488 140.76 203.516V198.26H139.356V197ZM147.95 197H149.39V206H147.95V197ZM147.644 194.264C147.644 193.988 147.734 193.754 147.914 193.562C148.106 193.358 148.346 193.256 148.634 193.256C148.922 193.256 149.168 193.358 149.372 193.562C149.576 193.754 149.678 193.988 149.678 194.264C149.678 194.54 149.576 194.768 149.372 194.948C149.168 195.128 148.922 195.218 148.634 195.218C148.346 195.218 148.106 195.128 147.914 194.948C147.734 194.768 147.644 194.54 147.644 194.264ZM158.734 206V200.906C158.734 200.426 158.71 200.012 158.662 199.664C158.626 199.304 158.548 199.004 158.428 198.764C158.308 198.524 158.134 198.344 157.906 198.224C157.69 198.104 157.402 198.044 157.042 198.044C156.49 198.044 156.028 198.212 155.656 198.548C155.296 198.884 155.044 199.304 154.9 199.808V206H153.46V197H154.468L154.738 198.098H154.81C155.134 197.714 155.506 197.402 155.926 197.162C156.358 196.91 156.916 196.784 157.6 196.784C158.176 196.784 158.644 196.898 159.004 197.126C159.376 197.342 159.664 197.726 159.868 198.278C160.144 197.81 160.522 197.444 161.002 197.18C161.494 196.916 162.046 196.784 162.658 196.784C163.162 196.784 163.588 196.844 163.936 196.964C164.284 197.072 164.572 197.27 164.8 197.558C165.028 197.846 165.19 198.236 165.286 198.728C165.394 199.22 165.448 199.844 165.448 200.6V206H164.008V200.582C164.008 200.15 163.984 199.778 163.936 199.466C163.9 199.142 163.816 198.878 163.684 198.674C163.564 198.458 163.39 198.302 163.162 198.206C162.946 198.098 162.658 198.044 162.298 198.044C161.698 198.044 161.23 198.212 160.894 198.548C160.558 198.884 160.318 199.364 160.174 199.988V206H158.734ZM175.638 205.28C175.278 205.568 174.822 205.796 174.27 205.964C173.73 206.132 173.154 206.216 172.542 206.216C171.858 206.216 171.264 206.108 170.76 205.892C170.256 205.664 169.842 205.346 169.518 204.938C169.194 204.518 168.954 204.02 168.798 203.444C168.642 202.868 168.564 202.22 168.564 201.5C168.564 199.964 168.906 198.794 169.59 197.99C170.274 197.186 171.252 196.784 172.524 196.784C172.932 196.784 173.34 196.832 173.748 196.928C174.156 197.012 174.522 197.18 174.846 197.432C175.17 197.684 175.434 198.044 175.638 198.512C175.842 198.968 175.944 199.574 175.944 200.33C175.944 200.726 175.908 201.164 175.836 201.644H170.058C170.058 202.172 170.112 202.64 170.22 203.048C170.328 203.456 170.496 203.804 170.724 204.092C170.952 204.368 171.246 204.584 171.606 204.74C171.978 204.884 172.428 204.956 172.956 204.956C173.364 204.956 173.772 204.884 174.18 204.74C174.588 204.596 174.894 204.428 175.098 204.236L175.638 205.28ZM172.542 198.044C171.834 198.044 171.264 198.23 170.832 198.602C170.412 198.974 170.16 199.61 170.076 200.51H174.54C174.54 199.598 174.366 198.962 174.018 198.602C173.67 198.23 173.178 198.044 172.542 198.044ZM184.863 197.666C185.319 197.39 185.847 197.186 186.447 197.054C187.059 196.922 187.695 196.856 188.355 196.856C188.979 196.856 189.477 196.94 189.849 197.108C190.233 197.276 190.521 197.498 190.713 197.774C190.917 198.038 191.049 198.332 191.109 198.656C191.181 198.98 191.217 199.304 191.217 199.628C191.217 200.348 191.199 201.05 191.163 201.734C191.127 202.418 191.109 203.066 191.109 203.678C191.109 204.122 191.127 204.542 191.163 204.938C191.199 205.334 191.265 205.7 191.361 206.036H190.299L189.921 204.776H189.831C189.723 204.944 189.585 205.112 189.417 205.28C189.261 205.436 189.069 205.58 188.841 205.712C188.613 205.832 188.349 205.934 188.049 206.018C187.749 206.102 187.407 206.144 187.023 206.144C186.639 206.144 186.279 206.084 185.943 205.964C185.619 205.844 185.337 205.676 185.097 205.46C184.857 205.232 184.665 204.962 184.521 204.65C184.389 204.338 184.323 203.984 184.323 203.588C184.323 203.06 184.431 202.622 184.647 202.274C184.863 201.914 185.163 201.632 185.547 201.428C185.943 201.212 186.411 201.062 186.951 200.978C187.503 200.882 188.109 200.834 188.769 200.834C188.937 200.834 189.099 200.834 189.255 200.834C189.423 200.834 189.591 200.846 189.759 200.87C189.795 200.51 189.813 200.186 189.813 199.898C189.813 199.238 189.681 198.776 189.417 198.512C189.153 198.248 188.673 198.116 187.977 198.116C187.773 198.116 187.551 198.134 187.311 198.17C187.083 198.194 186.843 198.236 186.591 198.296C186.351 198.344 186.117 198.41 185.889 198.494C185.673 198.566 185.481 198.65 185.313 198.746L184.863 197.666ZM187.419 204.884C187.755 204.884 188.055 204.842 188.319 204.758C188.583 204.662 188.811 204.548 189.003 204.416C189.195 204.272 189.351 204.116 189.471 203.948C189.603 203.78 189.699 203.618 189.759 203.462V201.968C189.591 201.956 189.417 201.95 189.237 201.95C189.069 201.938 188.901 201.932 188.733 201.932C188.361 201.932 187.995 201.956 187.635 202.004C187.287 202.04 186.975 202.118 186.699 202.238C186.435 202.346 186.219 202.502 186.051 202.706C185.895 202.898 185.817 203.144 185.817 203.444C185.817 203.864 185.967 204.212 186.267 204.488C186.567 204.752 186.951 204.884 187.419 204.884ZM203.136 202.832L203.64 204.56H203.73L204.126 202.814L205.872 197H207.33L204.666 205.082C204.462 205.67 204.258 206.24 204.054 206.792C203.862 207.344 203.646 207.836 203.406 208.268C203.166 208.7 202.896 209.042 202.596 209.294C202.296 209.558 201.948 209.69 201.552 209.69C201.12 209.69 200.766 209.63 200.49 209.51L200.742 208.268C200.898 208.328 201.048 208.358 201.192 208.358C201.528 208.358 201.852 208.178 202.164 207.818C202.476 207.47 202.734 206.864 202.938 206L199.32 197H200.976L203.136 202.832ZM216.251 205.28C215.891 205.568 215.435 205.796 214.883 205.964C214.343 206.132 213.767 206.216 213.155 206.216C212.471 206.216 211.877 206.108 211.373 205.892C210.869 205.664 210.455 205.346 210.131 204.938C209.807 204.518 209.567 204.02 209.411 203.444C209.255 202.868 209.177 202.22 209.177 201.5C209.177 199.964 209.519 198.794 210.203 197.99C210.887 197.186 211.865 196.784 213.137 196.784C213.545 196.784 213.953 196.832 214.361 196.928C214.769 197.012 215.135 197.18 215.459 197.432C215.783 197.684 216.047 198.044 216.251 198.512C216.455 198.968 216.557 199.574 216.557 200.33C216.557 200.726 216.521 201.164 216.449 201.644H210.671C210.671 202.172 210.725 202.64 210.833 203.048C210.941 203.456 211.109 203.804 211.337 204.092C211.565 204.368 211.859 204.584 212.219 204.74C212.591 204.884 213.041 204.956 213.569 204.956C213.977 204.956 214.385 204.884 214.793 204.74C215.201 204.596 215.507 204.428 215.711 204.236L216.251 205.28ZM213.155 198.044C212.447 198.044 211.877 198.23 211.445 198.602C211.025 198.974 210.773 199.61 210.689 200.51H215.153C215.153 199.598 214.979 198.962 214.631 198.602C214.283 198.23 213.791 198.044 213.155 198.044ZM219.678 197.666C220.134 197.39 220.662 197.186 221.262 197.054C221.874 196.922 222.51 196.856 223.17 196.856C223.794 196.856 224.292 196.94 224.664 197.108C225.048 197.276 225.336 197.498 225.528 197.774C225.732 198.038 225.864 198.332 225.924 198.656C225.996 198.98 226.032 199.304 226.032 199.628C226.032 200.348 226.014 201.05 225.978 201.734C225.942 202.418 225.924 203.066 225.924 203.678C225.924 204.122 225.942 204.542 225.978 204.938C226.014 205.334 226.08 205.7 226.176 206.036H225.114L224.736 204.776H224.646C224.538 204.944 224.4 205.112 224.232 205.28C224.076 205.436 223.884 205.58 223.656 205.712C223.428 205.832 223.164 205.934 222.864 206.018C222.564 206.102 222.222 206.144 221.838 206.144C221.454 206.144 221.094 206.084 220.758 205.964C220.434 205.844 220.152 205.676 219.912 205.46C219.672 205.232 219.48 204.962 219.336 204.65C219.204 204.338 219.138 203.984 219.138 203.588C219.138 203.06 219.246 202.622 219.462 202.274C219.678 201.914 219.978 201.632 220.362 201.428C220.758 201.212 221.226 201.062 221.766 200.978C222.318 200.882 222.924 200.834 223.584 200.834C223.752 200.834 223.914 200.834 224.07 200.834C224.238 200.834 224.406 200.846 224.574 200.87C224.61 200.51 224.628 200.186 224.628 199.898C224.628 199.238 224.496 198.776 224.232 198.512C223.968 198.248 223.488 198.116 222.792 198.116C222.588 198.116 222.366 198.134 222.126 198.17C221.898 198.194 221.658 198.236 221.406 198.296C221.166 198.344 220.932 198.41 220.704 198.494C220.488 198.566 220.296 198.65 220.128 198.746L219.678 197.666ZM222.234 204.884C222.57 204.884 222.87 204.842 223.134 204.758C223.398 204.662 223.626 204.548 223.818 204.416C224.01 204.272 224.166 204.116 224.286 203.948C224.418 203.78 224.514 203.618 224.574 203.462V201.968C224.406 201.956 224.232 201.95 224.052 201.95C223.884 201.938 223.716 201.932 223.548 201.932C223.176 201.932 222.81 201.956 222.45 202.004C222.102 202.04 221.79 202.118 221.514 202.238C221.25 202.346 221.034 202.502 220.866 202.706C220.71 202.898 220.632 203.144 220.632 203.444C220.632 203.864 220.782 204.212 221.082 204.488C221.382 204.752 221.766 204.884 222.234 204.884ZM233.999 198.386C233.639 198.266 233.297 198.206 232.973 198.206C232.457 198.206 232.049 198.35 231.749 198.638C231.449 198.914 231.263 199.268 231.191 199.7V206H229.751V197H230.759L231.029 198.098H231.101C231.329 197.69 231.599 197.378 231.911 197.162C232.235 196.934 232.643 196.82 233.135 196.82C233.483 196.82 233.873 196.88 234.305 197L233.999 198.386ZM236.436 193.184C236.988 193.76 237.456 194.396 237.84 195.092C238.224 195.776 238.53 196.484 238.758 197.216C238.998 197.936 239.172 198.668 239.28 199.412C239.388 200.144 239.442 200.846 239.442 201.518C239.442 202.178 239.388 202.874 239.28 203.606C239.172 204.338 238.998 205.076 238.758 205.82C238.518 206.552 238.2 207.272 237.804 207.98C237.42 208.688 236.946 209.348 236.382 209.96L235.518 209.33C235.998 208.718 236.4 208.082 236.724 207.422C237.048 206.762 237.3 206.096 237.48 205.424C237.672 204.752 237.804 204.086 237.876 203.426C237.96 202.766 238.002 202.13 238.002 201.518C238.002 200.942 237.954 200.318 237.858 199.646C237.762 198.974 237.612 198.296 237.408 197.612C237.216 196.928 236.964 196.262 236.652 195.614C236.34 194.966 235.962 194.378 235.518 193.85L236.436 193.184Z" fill="#2D2D2D"/>
<path d="M438.98 62L443.498 51.452L444.29 50.57L443.228 50.732H438.098V49.4H445.622V49.886L440.438 62H438.98ZM448.583 55.7C448.583 53.54 448.931 51.914 449.627 50.822C450.335 49.73 451.361 49.184 452.705 49.184C454.157 49.184 455.207 49.724 455.855 50.804C456.515 51.872 456.845 53.504 456.845 55.7C456.845 57.86 456.491 59.486 455.783 60.578C455.087 61.67 454.061 62.216 452.705 62.216C451.277 62.216 450.233 61.646 449.573 60.506C448.913 59.366 448.583 57.764 448.583 55.7ZM450.077 55.7C450.077 56.48 450.125 57.194 450.221 57.842C450.329 58.478 450.491 59.03 450.707 59.498C450.923 59.954 451.193 60.314 451.517 60.578C451.853 60.83 452.249 60.956 452.705 60.956C453.617 60.956 454.283 60.536 454.703 59.696C455.135 58.844 455.351 57.512 455.351 55.7C455.351 54.932 455.303 54.224 455.207 53.576C455.123 52.928 454.973 52.37 454.757 51.902C454.553 51.434 454.283 51.074 453.947 50.822C453.611 50.57 453.197 50.444 452.705 50.444C451.805 50.444 451.139 50.87 450.707 51.722C450.287 52.574 450.077 53.9 450.077 55.7ZM459.877 52.244C459.877 51.704 459.949 51.242 460.093 50.858C460.237 50.474 460.429 50.156 460.669 49.904C460.921 49.652 461.215 49.472 461.551 49.364C461.899 49.244 462.271 49.184 462.667 49.184C463.063 49.184 463.429 49.238 463.765 49.346C464.113 49.454 464.407 49.628 464.647 49.868C464.899 50.108 465.097 50.426 465.241 50.822C465.385 51.206 465.457 51.68 465.457 52.244C465.457 52.808 465.385 53.288 465.241 53.684C465.097 54.068 464.899 54.38 464.647 54.62C464.407 54.86 464.113 55.034 463.765 55.142C463.429 55.25 463.063 55.304 462.667 55.304C462.271 55.304 461.899 55.25 461.551 55.142C461.215 55.034 460.921 54.86 460.669 54.62C460.429 54.38 460.237 54.068 460.093 53.684C459.949 53.288 459.877 52.808 459.877 52.244ZM461.209 52.244C461.209 52.964 461.335 53.48 461.587 53.792C461.851 54.104 462.211 54.26 462.667 54.26C462.895 54.26 463.099 54.23 463.279 54.17C463.459 54.098 463.609 53.99 463.729 53.846C463.861 53.69 463.957 53.486 464.017 53.234C464.089 52.97 464.125 52.64 464.125 52.244C464.125 51.848 464.089 51.524 464.017 51.272C463.957 51.008 463.861 50.804 463.729 50.66C463.609 50.504 463.459 50.396 463.279 50.336C463.099 50.264 462.895 50.228 462.667 50.228C462.211 50.228 461.851 50.372 461.587 50.66C461.335 50.936 461.209 51.464 461.209 52.244ZM466.303 58.904C466.303 58.364 466.375 57.902 466.519 57.518C466.663 57.134 466.855 56.816 467.095 56.564C467.347 56.312 467.641 56.132 467.977 56.024C468.325 55.904 468.697 55.844 469.093 55.844C469.489 55.844 469.855 55.898 470.191 56.006C470.539 56.114 470.833 56.288 471.073 56.528C471.325 56.768 471.523 57.086 471.667 57.482C471.811 57.866 471.883 58.34 471.883 58.904C471.883 59.468 471.811 59.948 471.667 60.344C471.523 60.728 471.325 61.04 471.073 61.28C470.833 61.52 470.539 61.694 470.191 61.802C469.855 61.91 469.489 61.964 469.093 61.964C468.697 61.964 468.325 61.91 467.977 61.802C467.641 61.694 467.347 61.52 467.095 61.28C466.855 61.04 466.663 60.728 466.519 60.344C466.375 59.948 466.303 59.468 466.303 58.904ZM467.635 58.904C467.635 59.624 467.761 60.14 468.013 60.452C468.277 60.764 468.637 60.92 469.093 60.92C469.321 60.92 469.525 60.89 469.705 60.83C469.885 60.758 470.035 60.65 470.155 60.506C470.287 60.35 470.383 60.146 470.443 59.894C470.515 59.63 470.551 59.3 470.551 58.904C470.551 58.508 470.515 58.184 470.443 57.932C470.383 57.668 470.287 57.464 470.155 57.32C470.035 57.164 469.885 57.056 469.705 56.996C469.525 56.924 469.321 56.888 469.093 56.888C468.637 56.888 468.277 57.032 468.013 57.32C467.761 57.596 467.635 58.124 467.635 58.904ZM470.083 49.166L470.965 49.85L461.731 62.216L460.831 61.514L470.083 49.166Z" fill="#2D2D2D"/>
<path d="M444.028 124.262C444.028 124.898 443.908 125.552 443.668 126.224C443.44 126.884 443.134 127.55 442.75 128.222C442.378 128.894 441.958 129.554 441.49 130.202C441.022 130.838 440.554 131.444 440.086 132.02L439.204 132.794V132.866L440.356 132.668H444.28V134H437.116V133.478C437.38 133.202 437.698 132.86 438.07 132.452C438.442 132.044 438.826 131.594 439.222 131.102C439.63 130.598 440.026 130.07 440.41 129.518C440.806 128.954 441.16 128.384 441.472 127.808C441.796 127.232 442.054 126.662 442.246 126.098C442.438 125.534 442.534 125 442.534 124.496C442.534 123.908 442.366 123.422 442.03 123.038C441.694 122.642 441.184 122.444 440.5 122.444C440.044 122.444 439.6 122.54 439.168 122.732C438.736 122.912 438.364 123.122 438.052 123.362L437.458 122.336C437.878 121.976 438.376 121.694 438.952 121.49C439.528 121.286 440.146 121.184 440.806 121.184C441.322 121.184 441.778 121.262 442.174 121.418C442.57 121.562 442.906 121.772 443.182 122.048C443.458 122.324 443.668 122.654 443.812 123.038C443.956 123.41 444.028 123.818 444.028 124.262ZM450.643 132.956C451.471 132.956 452.155 132.716 452.695 132.236C453.235 131.756 453.505 131.06 453.505 130.148C453.505 129.272 453.235 128.618 452.695 128.186C452.167 127.754 451.435 127.538 450.499 127.538L448.987 127.628V121.4H454.603V122.732H450.337V126.314L451.111 126.278C452.299 126.29 453.235 126.62 453.919 127.268C454.603 127.916 454.945 128.846 454.945 130.058C454.945 130.73 454.831 131.33 454.603 131.858C454.375 132.374 454.063 132.806 453.667 133.154C453.283 133.502 452.827 133.766 452.299 133.946C451.771 134.126 451.207 134.216 450.607 134.216C450.067 134.216 449.611 134.186 449.239 134.126C448.867 134.066 448.519 133.976 448.195 133.856L448.573 132.632C448.849 132.74 449.143 132.824 449.455 132.884C449.779 132.932 450.175 132.956 450.643 132.956ZM458.877 124.244C458.877 123.704 458.949 123.242 459.093 122.858C459.237 122.474 459.429 122.156 459.669 121.904C459.921 121.652 460.215 121.472 460.551 121.364C460.899 121.244 461.271 121.184 461.667 121.184C462.063 121.184 462.429 121.238 462.765 121.346C463.113 121.454 463.407 121.628 463.647 121.868C463.899 122.108 464.097 122.426 464.241 122.822C464.385 123.206 464.457 123.68 464.457 124.244C464.457 124.808 464.385 125.288 464.241 125.684C464.097 126.068 463.899 126.38 463.647 126.62C463.407 126.86 463.113 127.034 462.765 127.142C462.429 127.25 462.063 127.304 461.667 127.304C461.271 127.304 460.899 127.25 460.551 127.142C460.215 127.034 459.921 126.86 459.669 126.62C459.429 126.38 459.237 126.068 459.093 125.684C458.949 125.288 458.877 124.808 458.877 124.244ZM460.209 124.244C460.209 124.964 460.335 125.48 460.587 125.792C460.851 126.104 461.211 126.26 461.667 126.26C461.895 126.26 462.099 126.23 462.279 126.17C462.459 126.098 462.609 125.99 462.729 125.846C462.861 125.69 462.957 125.486 463.017 125.234C463.089 124.97 463.125 124.64 463.125 124.244C463.125 123.848 463.089 123.524 463.017 123.272C462.957 123.008 462.861 122.804 462.729 122.66C462.609 122.504 462.459 122.396 462.279 122.336C462.099 122.264 461.895 122.228 461.667 122.228C461.211 122.228 460.851 122.372 460.587 122.66C460.335 122.936 460.209 123.464 460.209 124.244ZM465.303 130.904C465.303 130.364 465.375 129.902 465.519 129.518C465.663 129.134 465.855 128.816 466.095 128.564C466.347 128.312 466.641 128.132 466.977 128.024C467.325 127.904 467.697 127.844 468.093 127.844C468.489 127.844 468.855 127.898 469.191 128.006C469.539 128.114 469.833 128.288 470.073 128.528C470.325 128.768 470.523 129.086 470.667 129.482C470.811 129.866 470.883 130.34 470.883 130.904C470.883 131.468 470.811 131.948 470.667 132.344C470.523 132.728 470.325 133.04 470.073 133.28C469.833 133.52 469.539 133.694 469.191 133.802C468.855 133.91 468.489 133.964 468.093 133.964C467.697 133.964 467.325 133.91 466.977 133.802C466.641 133.694 466.347 133.52 466.095 133.28C465.855 133.04 465.663 132.728 465.519 132.344C465.375 131.948 465.303 131.468 465.303 130.904ZM466.635 130.904C466.635 131.624 466.761 132.14 467.013 132.452C467.277 132.764 467.637 132.92 468.093 132.92C468.321 132.92 468.525 132.89 468.705 132.83C468.885 132.758 469.035 132.65 469.155 132.506C469.287 132.35 469.383 132.146 469.443 131.894C469.515 131.63 469.551 131.3 469.551 130.904C469.551 130.508 469.515 130.184 469.443 129.932C469.383 129.668 469.287 129.464 469.155 129.32C469.035 129.164 468.885 129.056 468.705 128.996C468.525 128.924 468.321 128.888 468.093 128.888C467.637 128.888 467.277 129.032 467.013 129.32C466.761 129.596 466.635 130.124 466.635 130.904ZM469.083 121.166L469.965 121.85L460.731 134.216L459.831 133.514L469.083 121.166Z" fill="#2D2D2D"/>
<path d="M451.834 204.956C452.662 204.956 453.346 204.716 453.886 204.236C454.426 203.756 454.696 203.06 454.696 202.148C454.696 201.272 454.426 200.618 453.886 200.186C453.358 199.754 452.626 199.538 451.69 199.538L450.178 199.628V193.4H455.794V194.732H451.528V198.314L452.302 198.278C453.49 198.29 454.426 198.62 455.11 199.268C455.794 199.916 456.136 200.846 456.136 202.058C456.136 202.73 456.022 203.33 455.794 203.858C455.566 204.374 455.254 204.806 454.858 205.154C454.474 205.502 454.018 205.766 453.49 205.946C452.962 206.126 452.398 206.216 451.798 206.216C451.258 206.216 450.802 206.186 450.43 206.126C450.058 206.066 449.71 205.976 449.386 205.856L449.764 204.632C450.04 204.74 450.334 204.824 450.646 204.884C450.97 204.932 451.366 204.956 451.834 204.956ZM460.069 196.244C460.069 195.704 460.141 195.242 460.285 194.858C460.429 194.474 460.621 194.156 460.861 193.904C461.113 193.652 461.407 193.472 461.743 193.364C462.091 193.244 462.463 193.184 462.859 193.184C463.255 193.184 463.621 193.238 463.957 193.346C464.305 193.454 464.599 193.628 464.839 193.868C465.091 194.108 465.289 194.426 465.433 194.822C465.577 195.206 465.649 195.68 465.649 196.244C465.649 196.808 465.577 197.288 465.433 197.684C465.289 198.068 465.091 198.38 464.839 198.62C464.599 198.86 464.305 199.034 463.957 199.142C463.621 199.25 463.255 199.304 462.859 199.304C462.463 199.304 462.091 199.25 461.743 199.142C461.407 199.034 461.113 198.86 460.861 198.62C460.621 198.38 460.429 198.068 460.285 197.684C460.141 197.288 460.069 196.808 460.069 196.244ZM461.401 196.244C461.401 196.964 461.527 197.48 461.779 197.792C462.043 198.104 462.403 198.26 462.859 198.26C463.087 198.26 463.291 198.23 463.471 198.17C463.651 198.098 463.801 197.99 463.921 197.846C464.053 197.69 464.149 197.486 464.209 197.234C464.281 196.97 464.317 196.64 464.317 196.244C464.317 195.848 464.281 195.524 464.209 195.272C464.149 195.008 464.053 194.804 463.921 194.66C463.801 194.504 463.651 194.396 463.471 194.336C463.291 194.264 463.087 194.228 462.859 194.228C462.403 194.228 462.043 194.372 461.779 194.66C461.527 194.936 461.401 195.464 461.401 196.244ZM466.495 202.904C466.495 202.364 466.567 201.902 466.711 201.518C466.855 201.134 467.047 200.816 467.287 200.564C467.539 200.312 467.833 200.132 468.169 200.024C468.517 199.904 468.889 199.844 469.285 199.844C469.681 199.844 470.047 199.898 470.383 200.006C470.731 200.114 471.025 200.288 471.265 200.528C471.517 200.768 471.715 201.086 471.859 201.482C472.003 201.866 472.075 202.34 472.075 202.904C472.075 203.468 472.003 203.948 471.859 204.344C471.715 204.728 471.517 205.04 471.265 205.28C471.025 205.52 470.731 205.694 470.383 205.802C470.047 205.91 469.681 205.964 469.285 205.964C468.889 205.964 468.517 205.91 468.169 205.802C467.833 205.694 467.539 205.52 467.287 205.28C467.047 205.04 466.855 204.728 466.711 204.344C466.567 203.948 466.495 203.468 466.495 202.904ZM467.827 202.904C467.827 203.624 467.953 204.14 468.205 204.452C468.469 204.764 468.829 204.92 469.285 204.92C469.513 204.92 469.717 204.89 469.897 204.83C470.077 204.758 470.227 204.65 470.347 204.506C470.479 204.35 470.575 204.146 470.635 203.894C470.707 203.63 470.743 203.3 470.743 202.904C470.743 202.508 470.707 202.184 470.635 201.932C470.575 201.668 470.479 201.464 470.347 201.32C470.227 201.164 470.077 201.056 469.897 200.996C469.717 200.924 469.513 200.888 469.285 200.888C468.829 200.888 468.469 201.032 468.205 201.32C467.953 201.596 467.827 202.124 467.827 202.904ZM470.275 193.166L471.157 193.85L461.923 206.216L461.023 205.514L470.275 193.166Z" fill="#2D2D2D"/>
<rect x="33" y="248" width="466" height="48" rx="24" fill="#EDF3FE"/>
<rect x="33" y="248" width="78" height="48" rx="24" fill="#CFE0FE"/>
<path d="M60.798 269.756L59.826 267.938H59.754L59.934 269.756V278H58.53V265.202H59.322L65.352 273.608L66.288 275.336H66.378L66.18 273.608V265.4H67.584V278.198H66.792L60.798 269.756ZM78.0673 277.28C77.7073 277.568 77.2513 277.796 76.6993 277.964C76.1593 278.132 75.5833 278.216 74.9713 278.216C74.2873 278.216 73.6933 278.108 73.1893 277.892C72.6853 277.664 72.2713 277.346 71.9473 276.938C71.6233 276.518 71.3833 276.02 71.2273 275.444C71.0713 274.868 70.9933 274.22 70.9933 273.5C70.9933 271.964 71.3353 270.794 72.0193 269.99C72.7033 269.186 73.6813 268.784 74.9533 268.784C75.3613 268.784 75.7693 268.832 76.1773 268.928C76.5853 269.012 76.9513 269.18 77.2753 269.432C77.5993 269.684 77.8633 270.044 78.0673 270.512C78.2713 270.968 78.3733 271.574 78.3733 272.33C78.3733 272.726 78.3373 273.164 78.2653 273.644H72.4873C72.4873 274.172 72.5413 274.64 72.6493 275.048C72.7573 275.456 72.9253 275.804 73.1533 276.092C73.3813 276.368 73.6753 276.584 74.0353 276.74C74.4073 276.884 74.8573 276.956 75.3853 276.956C75.7933 276.956 76.2013 276.884 76.6093 276.74C77.0173 276.596 77.3233 276.428 77.5273 276.236L78.0673 277.28ZM74.9713 270.044C74.2633 270.044 73.6933 270.23 73.2613 270.602C72.8413 270.974 72.5893 271.61 72.5053 272.51H76.9693C76.9693 271.598 76.7953 270.962 76.4473 270.602C76.0993 270.23 75.6073 270.044 74.9713 270.044ZM83.8257 274.274L84.3297 275.984H84.3477L84.7977 274.238L86.8137 269H88.3617L84.5277 278.198H83.9157L80.0097 269H81.6657L83.8257 274.274ZM97.2939 277.28C96.9339 277.568 96.4779 277.796 95.9259 277.964C95.3859 278.132 94.8099 278.216 94.1979 278.216C93.5139 278.216 92.9199 278.108 92.4159 277.892C91.9119 277.664 91.4979 277.346 91.1739 276.938C90.8499 276.518 90.6099 276.02 90.4539 275.444C90.2979 274.868 90.2199 274.22 90.2199 273.5C90.2199 271.964 90.5619 270.794 91.2459 269.99C91.9299 269.186 92.9079 268.784 94.1799 268.784C94.5879 268.784 94.9959 268.832 95.4039 268.928C95.8119 269.012 96.1779 269.18 96.5019 269.432C96.8259 269.684 97.0899 270.044 97.2939 270.512C97.4979 270.968 97.5999 271.574 97.5999 272.33C97.5999 272.726 97.5639 273.164 97.4919 273.644H91.7139C91.7139 274.172 91.7679 274.64 91.8759 275.048C91.9839 275.456 92.1519 275.804 92.3799 276.092C92.6079 276.368 92.9019 276.584 93.2619 276.74C93.6339 276.884 94.0839 276.956 94.6119 276.956C95.0199 276.956 95.4279 276.884 95.8359 276.74C96.2439 276.596 96.5499 276.428 96.7539 276.236L97.2939 277.28ZM94.1979 270.044C93.4899 270.044 92.9199 270.23 92.4879 270.602C92.0679 270.974 91.8159 271.61 91.7319 272.51H96.1959C96.1959 271.598 96.0219 270.962 95.6739 270.602C95.3259 270.23 94.8339 270.044 94.1979 270.044ZM105.113 270.386C104.753 270.266 104.411 270.206 104.087 270.206C103.571 270.206 103.163 270.35 102.863 270.638C102.563 270.914 102.377 271.268 102.305 271.7V278H100.865V269H101.873L102.143 270.098H102.215C102.443 269.69 102.713 269.378 103.025 269.162C103.349 268.934 103.757 268.82 104.249 268.82C104.597 268.82 104.987 268.88 105.419 269L105.113 270.386Z" fill="#2D2D2D"/>
<path d="M451.834 276.956C452.662 276.956 453.346 276.716 453.886 276.236C454.426 275.756 454.696 275.06 454.696 274.148C454.696 273.272 454.426 272.618 453.886 272.186C453.358 271.754 452.626 271.538 451.69 271.538L450.178 271.628V265.4H455.794V266.732H451.528V270.314L452.302 270.278C453.49 270.29 454.426 270.62 455.11 271.268C455.794 271.916 456.136 272.846 456.136 274.058C456.136 274.73 456.022 275.33 455.794 275.858C455.566 276.374 455.254 276.806 454.858 277.154C454.474 277.502 454.018 277.766 453.49 277.946C452.962 278.126 452.398 278.216 451.798 278.216C451.258 278.216 450.802 278.186 450.43 278.126C450.058 278.066 449.71 277.976 449.386 277.856L449.764 276.632C450.04 276.74 450.334 276.824 450.646 276.884C450.97 276.932 451.366 276.956 451.834 276.956ZM460.069 268.244C460.069 267.704 460.141 267.242 460.285 266.858C460.429 266.474 460.621 266.156 460.861 265.904C461.113 265.652 461.407 265.472 461.743 265.364C462.091 265.244 462.463 265.184 462.859 265.184C463.255 265.184 463.621 265.238 463.957 265.346C464.305 265.454 464.599 265.628 464.839 265.868C465.091 266.108 465.289 266.426 465.433 266.822C465.577 267.206 465.649 267.68 465.649 268.244C465.649 268.808 465.577 269.288 465.433 269.684C465.289 270.068 465.091 270.38 464.839 270.62C464.599 270.86 464.305 271.034 463.957 271.142C463.621 271.25 463.255 271.304 462.859 271.304C462.463 271.304 462.091 271.25 461.743 271.142C461.407 271.034 461.113 270.86 460.861 270.62C460.621 270.38 460.429 270.068 460.285 269.684C460.141 269.288 460.069 268.808 460.069 268.244ZM461.401 268.244C461.401 268.964 461.527 269.48 461.779 269.792C462.043 270.104 462.403 270.26 462.859 270.26C463.087 270.26 463.291 270.23 463.471 270.17C463.651 270.098 463.801 269.99 463.921 269.846C464.053 269.69 464.149 269.486 464.209 269.234C464.281 268.97 464.317 268.64 464.317 268.244C464.317 267.848 464.281 267.524 464.209 267.272C464.149 267.008 464.053 266.804 463.921 266.66C463.801 266.504 463.651 266.396 463.471 266.336C463.291 266.264 463.087 266.228 462.859 266.228C462.403 266.228 462.043 266.372 461.779 266.66C461.527 266.936 461.401 267.464 461.401 268.244ZM466.495 274.904C466.495 274.364 466.567 273.902 466.711 273.518C466.855 273.134 467.047 272.816 467.287 272.564C467.539 272.312 467.833 272.132 468.169 272.024C468.517 271.904 468.889 271.844 469.285 271.844C469.681 271.844 470.047 271.898 470.383 272.006C470.731 272.114 471.025 272.288 471.265 272.528C471.517 272.768 471.715 273.086 471.859 273.482C472.003 273.866 472.075 274.34 472.075 274.904C472.075 275.468 472.003 275.948 471.859 276.344C471.715 276.728 471.517 277.04 471.265 277.28C471.025 277.52 470.731 277.694 470.383 277.802C470.047 277.91 469.681 277.964 469.285 277.964C468.889 277.964 468.517 277.91 468.169 277.802C467.833 277.694 467.539 277.52 467.287 277.28C467.047 277.04 466.855 276.728 466.711 276.344C466.567 275.948 466.495 275.468 466.495 274.904ZM467.827 274.904C467.827 275.624 467.953 276.14 468.205 276.452C468.469 276.764 468.829 276.92 469.285 276.92C469.513 276.92 469.717 276.89 469.897 276.83C470.077 276.758 470.227 276.65 470.347 276.506C470.479 276.35 470.575 276.146 470.635 275.894C470.707 275.63 470.743 275.3 470.743 274.904C470.743 274.508 470.707 274.184 470.635 273.932C470.575 273.668 470.479 273.464 470.347 273.32C470.227 273.164 470.077 273.056 469.897 272.996C469.717 272.924 469.513 272.888 469.285 272.888C468.829 272.888 468.469 273.032 468.205 273.32C467.953 273.596 467.827 274.124 467.827 274.904ZM470.275 265.166L471.157 265.85L461.923 278.216L461.023 277.514L470.275 265.166Z" fill="#2D2D2D"/>
</svg>
