<svg width="531" height="328" viewBox="0 0 531 328" fill="none" xmlns="http://www.w3.org/2000/svg">
<rect width="531" height="328" rx="12" fill="white"/>
<rect x="32" y="32" width="466" height="48" rx="24" fill="#EEFAF3"/>
<rect x="32" y="104" width="466" height="48" rx="24" fill="#EEFAF3"/>
<rect x="32" y="176" width="466" height="48" rx="24" fill="#EEFAF3"/>
<rect x="32" y="248" width="466" height="48" rx="24" fill="#EEFAF3"/>
<rect x="32" y="32" width="328" height="48" rx="24" fill="#CDF1DE"/>
<rect x="32" y="104" width="90" height="48" rx="24" fill="#CDF1DE"/>
<rect x="32" y="176" width="78" height="48" rx="24" fill="#CDF1DE"/>
<rect x="32" y="248" width="99" height="48" rx="24" fill="#CDF1DE"/>
<path d="M60.302 56.996L56.144 49.4H57.89L60.842 54.908L61.148 56.006H61.166L61.49 54.872L64.316 49.4H65.918L61.796 56.978V62H60.302V56.996ZM73.4638 61.28C73.1038 61.568 72.6478 61.796 72.0958 61.964C71.5558 62.132 70.9798 62.216 70.3678 62.216C69.6838 62.216 69.0898 62.108 68.5858 61.892C68.0818 61.664 67.6678 61.346 67.3438 60.938C67.0198 60.518 66.7798 60.02 66.6238 59.444C66.4678 58.868 66.3898 58.22 66.3898 57.5C66.3898 55.964 66.7318 54.794 67.4158 53.99C68.0998 53.186 69.0778 52.784 70.3498 52.784C70.7578 52.784 71.1658 52.832 71.5738 52.928C71.9818 53.012 72.3478 53.18 72.6718 53.432C72.9958 53.684 73.2598 54.044 73.4638 54.512C73.6678 54.968 73.7698 55.574 73.7698 56.33C73.7698 56.726 73.7338 57.164 73.6618 57.644H67.8838C67.8838 58.172 67.9378 58.64 68.0458 59.048C68.1538 59.456 68.3218 59.804 68.5498 60.092C68.7778 60.368 69.0718 60.584 69.4318 60.74C69.8038 60.884 70.2538 60.956 70.7818 60.956C71.1898 60.956 71.5978 60.884 72.0058 60.74C72.4138 60.596 72.7198 60.428 72.9238 60.236L73.4638 61.28ZM70.3678 54.044C69.6598 54.044 69.0898 54.23 68.6578 54.602C68.2378 54.974 67.9858 55.61 67.9018 56.51H72.3658C72.3658 55.598 72.1918 54.962 71.8438 54.602C71.4958 54.23 71.0038 54.044 70.3678 54.044ZM80.9944 59.552C80.9944 59.192 80.8864 58.91 80.6704 58.706C80.4544 58.502 80.1844 58.334 79.8604 58.202C79.5484 58.058 79.2004 57.926 78.8164 57.806C78.4444 57.674 78.0964 57.512 77.7724 57.32C77.4604 57.116 77.1964 56.858 76.9804 56.546C76.7644 56.234 76.6564 55.814 76.6564 55.286C76.6564 54.422 76.9024 53.792 77.3944 53.396C77.8864 52.988 78.5704 52.784 79.4464 52.784C80.0944 52.784 80.6344 52.844 81.0664 52.964C81.5104 53.072 81.8944 53.204 82.2184 53.36L81.8764 54.548C81.6004 54.416 81.2644 54.302 80.8684 54.206C80.4844 54.098 80.0704 54.044 79.6264 54.044C79.0984 54.044 78.7084 54.134 78.4564 54.314C78.2164 54.494 78.0964 54.806 78.0964 55.25C78.0964 55.562 78.2044 55.808 78.4204 55.988C78.6364 56.156 78.9004 56.312 79.2124 56.456C79.5364 56.588 79.8844 56.72 80.2564 56.852C80.6404 56.984 80.9884 57.158 81.3004 57.374C81.6244 57.59 81.8944 57.866 82.1104 58.202C82.3264 58.526 82.4344 58.958 82.4344 59.498C82.4344 59.882 82.3684 60.242 82.2364 60.578C82.1164 60.914 81.9244 61.202 81.6604 61.442C81.3964 61.682 81.0664 61.868 80.6704 62C80.2864 62.144 79.8304 62.216 79.3024 62.216C78.6184 62.216 78.0364 62.15 77.5564 62.018C77.0764 61.886 76.6744 61.73 76.3504 61.55L76.7824 60.326C77.0584 60.482 77.4184 60.626 77.8624 60.758C78.3064 60.89 78.7564 60.956 79.2124 60.956C79.7284 60.956 80.1544 60.854 80.4904 60.65C80.8264 60.446 80.9944 60.08 80.9944 59.552ZM85.1066 61.226C85.1066 60.938 85.2026 60.704 85.3946 60.524C85.5866 60.344 85.8326 60.254 86.1326 60.254C86.5046 60.254 86.8046 60.386 87.0326 60.65C87.2726 60.914 87.3926 61.298 87.3926 61.802C87.3926 62.234 87.3326 62.612 87.2126 62.936C87.0926 63.26 86.9366 63.536 86.7446 63.764C86.5526 64.004 86.3426 64.196 86.1146 64.34C85.8866 64.496 85.6586 64.61 85.4306 64.682L84.9806 63.98C85.4126 63.812 85.7306 63.548 85.9346 63.188C86.1506 62.84 86.2586 62.486 86.2586 62.126C86.1506 62.162 86.0486 62.18 85.9526 62.18C85.7126 62.18 85.5086 62.102 85.3406 61.946C85.1846 61.778 85.1066 61.538 85.1066 61.226ZM99.7928 62V56.906C99.7928 56.426 99.7688 56.012 99.7208 55.664C99.6848 55.304 99.6068 55.004 99.4868 54.764C99.3668 54.524 99.1928 54.344 98.9648 54.224C98.7488 54.104 98.4608 54.044 98.1008 54.044C97.5488 54.044 97.0868 54.212 96.7148 54.548C96.3548 54.884 96.1028 55.304 95.9588 55.808V62H94.5188V53H95.5268L95.7968 54.098H95.8688C96.1928 53.714 96.5648 53.402 96.9848 53.162C97.4168 52.91 97.9748 52.784 98.6588 52.784C99.2348 52.784 99.7028 52.898 100.063 53.126C100.435 53.342 100.723 53.726 100.927 54.278C101.203 53.81 101.581 53.444 102.061 53.18C102.553 52.916 103.105 52.784 103.717 52.784C104.221 52.784 104.647 52.844 104.995 52.964C105.343 53.072 105.631 53.27 105.859 53.558C106.087 53.846 106.249 54.236 106.345 54.728C106.453 55.22 106.507 55.844 106.507 56.6V62H105.067V56.582C105.067 56.15 105.043 55.778 104.995 55.466C104.959 55.142 104.875 54.878 104.743 54.674C104.623 54.458 104.449 54.302 104.221 54.206C104.005 54.098 103.717 54.044 103.357 54.044C102.757 54.044 102.289 54.212 101.953 54.548C101.617 54.884 101.377 55.364 101.233 55.988V62H99.7928ZM111.422 53V58.13C111.422 58.598 111.446 59.012 111.494 59.372C111.554 59.72 111.65 60.014 111.782 60.254C111.914 60.482 112.094 60.656 112.322 60.776C112.55 60.896 112.838 60.956 113.186 60.956C113.51 60.956 113.798 60.908 114.05 60.812C114.302 60.704 114.524 60.56 114.716 60.38C114.92 60.2 115.094 59.996 115.238 59.768C115.394 59.528 115.52 59.276 115.616 59.012V53H117.056V59.444C117.056 59.876 117.068 60.326 117.092 60.794C117.128 61.25 117.182 61.652 117.254 62H116.264L115.904 60.578H115.814C115.538 61.046 115.166 61.436 114.698 61.748C114.23 62.06 113.636 62.216 112.916 62.216C112.436 62.216 112.01 62.156 111.638 62.036C111.278 61.928 110.972 61.73 110.72 61.442C110.48 61.154 110.294 60.77 110.162 60.29C110.042 59.798 109.982 59.18 109.982 58.436V53H111.422ZM122.431 59.786C122.431 60.206 122.503 60.506 122.647 60.686C122.791 60.866 122.995 60.956 123.259 60.956C123.415 60.956 123.583 60.944 123.763 60.92C123.943 60.896 124.147 60.842 124.375 60.758L124.537 61.892C124.345 61.988 124.075 62.066 123.727 62.126C123.391 62.186 123.097 62.216 122.845 62.216C122.305 62.216 121.861 62.066 121.513 61.766C121.165 61.454 120.991 60.932 120.991 60.2V49.4H122.431V59.786ZM125.897 53H127.301V51.218L128.741 50.804V53H131.189V54.26H128.741V59.246C128.741 59.87 128.819 60.314 128.975 60.578C129.131 60.83 129.395 60.956 129.767 60.956C130.079 60.956 130.343 60.926 130.559 60.866C130.775 60.794 131.015 60.704 131.279 60.596L131.603 61.694C131.279 61.85 130.925 61.976 130.541 62.072C130.157 62.168 129.743 62.216 129.299 62.216C128.567 62.216 128.051 62.012 127.751 61.604C127.451 61.184 127.301 60.488 127.301 59.516V54.26H125.897V53ZM134.491 53H135.931V62H134.491V53ZM134.185 50.264C134.185 49.988 134.275 49.754 134.455 49.562C134.647 49.358 134.887 49.256 135.175 49.256C135.463 49.256 135.709 49.358 135.913 49.562C136.117 49.754 136.219 49.988 136.219 50.264C136.219 50.54 136.117 50.768 135.913 50.948C135.709 51.128 135.463 51.218 135.175 51.218C134.887 51.218 134.647 51.128 134.455 50.948C134.275 50.768 134.185 50.54 134.185 50.264ZM140.001 53H140.991L141.261 54.08H141.333C141.609 53.66 141.963 53.342 142.395 53.126C142.839 52.898 143.343 52.784 143.907 52.784C145.107 52.784 146.001 53.138 146.589 53.846C147.177 54.554 147.471 55.712 147.471 57.32C147.471 58.076 147.369 58.76 147.165 59.372C146.973 59.972 146.697 60.482 146.337 60.902C145.977 61.322 145.539 61.646 145.023 61.874C144.519 62.102 143.955 62.216 143.331 62.216C142.887 62.216 142.533 62.186 142.269 62.126C142.017 62.078 141.741 61.988 141.441 61.856V65.6H140.001V53ZM143.637 54.044C143.025 54.044 142.539 54.206 142.179 54.53C141.831 54.842 141.585 55.322 141.441 55.97V60.434C141.657 60.602 141.903 60.734 142.179 60.83C142.455 60.914 142.821 60.956 143.277 60.956C144.105 60.956 144.759 60.65 145.239 60.038C145.731 59.414 145.977 58.502 145.977 57.302C145.977 56.81 145.935 56.366 145.851 55.97C145.767 55.562 145.629 55.22 145.437 54.944C145.257 54.656 145.017 54.434 144.717 54.278C144.429 54.122 144.069 54.044 143.637 54.044ZM152.342 59.786C152.342 60.206 152.414 60.506 152.558 60.686C152.702 60.866 152.906 60.956 153.17 60.956C153.326 60.956 153.494 60.944 153.674 60.92C153.854 60.896 154.058 60.842 154.286 60.758L154.448 61.892C154.256 61.988 153.986 62.066 153.638 62.126C153.302 62.186 153.008 62.216 152.756 62.216C152.216 62.216 151.772 62.066 151.424 61.766C151.076 61.454 150.902 60.932 150.902 60.2V49.4H152.342V59.786ZM163.565 61.28C163.205 61.568 162.749 61.796 162.197 61.964C161.657 62.132 161.081 62.216 160.469 62.216C159.785 62.216 159.191 62.108 158.687 61.892C158.183 61.664 157.769 61.346 157.445 60.938C157.121 60.518 156.881 60.02 156.725 59.444C156.569 58.868 156.491 58.22 156.491 57.5C156.491 55.964 156.833 54.794 157.517 53.99C158.201 53.186 159.179 52.784 160.451 52.784C160.859 52.784 161.267 52.832 161.675 52.928C162.083 53.012 162.449 53.18 162.773 53.432C163.097 53.684 163.361 54.044 163.565 54.512C163.769 54.968 163.871 55.574 163.871 56.33C163.871 56.726 163.835 57.164 163.763 57.644H157.985C157.985 58.172 158.039 58.64 158.147 59.048C158.255 59.456 158.423 59.804 158.651 60.092C158.879 60.368 159.173 60.584 159.533 60.74C159.905 60.884 160.355 60.956 160.883 60.956C161.291 60.956 161.699 60.884 162.107 60.74C162.515 60.596 162.821 60.428 163.025 60.236L163.565 61.28ZM160.469 54.044C159.761 54.044 159.191 54.23 158.759 54.602C158.339 54.974 158.087 55.61 158.003 56.51H162.467C162.467 55.598 162.293 54.962 161.945 54.602C161.597 54.23 161.105 54.044 160.469 54.044ZM171.747 53H173.151V51.218L174.591 50.804V53H177.039V54.26H174.591V59.246C174.591 59.87 174.669 60.314 174.825 60.578C174.981 60.83 175.245 60.956 175.617 60.956C175.929 60.956 176.193 60.926 176.409 60.866C176.625 60.794 176.865 60.704 177.129 60.596L177.453 61.694C177.129 61.85 176.775 61.976 176.391 62.072C176.007 62.168 175.593 62.216 175.149 62.216C174.417 62.216 173.901 62.012 173.601 61.604C173.301 61.184 173.151 60.488 173.151 59.516V54.26H171.747V53ZM180.34 53H181.78V62H180.34V53ZM180.034 50.264C180.034 49.988 180.124 49.754 180.304 49.562C180.496 49.358 180.736 49.256 181.024 49.256C181.312 49.256 181.558 49.358 181.762 49.562C181.966 49.754 182.068 49.988 182.068 50.264C182.068 50.54 181.966 50.768 181.762 50.948C181.558 51.128 181.312 51.218 181.024 51.218C180.736 51.218 180.496 51.128 180.304 50.948C180.124 50.768 180.034 50.54 180.034 50.264ZM191.125 62V56.906C191.125 56.426 191.101 56.012 191.053 55.664C191.017 55.304 190.939 55.004 190.819 54.764C190.699 54.524 190.525 54.344 190.297 54.224C190.081 54.104 189.793 54.044 189.433 54.044C188.881 54.044 188.419 54.212 188.047 54.548C187.687 54.884 187.435 55.304 187.291 55.808V62H185.851V53H186.859L187.129 54.098H187.201C187.525 53.714 187.897 53.402 188.317 53.162C188.749 52.91 189.307 52.784 189.991 52.784C190.567 52.784 191.035 52.898 191.395 53.126C191.767 53.342 192.055 53.726 192.259 54.278C192.535 53.81 192.913 53.444 193.393 53.18C193.885 52.916 194.437 52.784 195.049 52.784C195.553 52.784 195.979 52.844 196.327 52.964C196.675 53.072 196.963 53.27 197.191 53.558C197.419 53.846 197.581 54.236 197.677 54.728C197.785 55.22 197.839 55.844 197.839 56.6V62H196.399V56.582C196.399 56.15 196.375 55.778 196.327 55.466C196.291 55.142 196.207 54.878 196.075 54.674C195.955 54.458 195.781 54.302 195.553 54.206C195.337 54.098 195.049 54.044 194.689 54.044C194.089 54.044 193.621 54.212 193.285 54.548C192.949 54.884 192.709 55.364 192.565 55.988V62H191.125ZM208.028 61.28C207.668 61.568 207.212 61.796 206.66 61.964C206.12 62.132 205.544 62.216 204.932 62.216C204.248 62.216 203.654 62.108 203.15 61.892C202.646 61.664 202.232 61.346 201.908 60.938C201.584 60.518 201.344 60.02 201.188 59.444C201.032 58.868 200.954 58.22 200.954 57.5C200.954 55.964 201.296 54.794 201.98 53.99C202.664 53.186 203.642 52.784 204.914 52.784C205.322 52.784 205.73 52.832 206.138 52.928C206.546 53.012 206.912 53.18 207.236 53.432C207.56 53.684 207.824 54.044 208.028 54.512C208.232 54.968 208.334 55.574 208.334 56.33C208.334 56.726 208.298 57.164 208.226 57.644H202.448C202.448 58.172 202.502 58.64 202.61 59.048C202.718 59.456 202.886 59.804 203.114 60.092C203.342 60.368 203.636 60.584 203.996 60.74C204.368 60.884 204.818 60.956 205.346 60.956C205.754 60.956 206.162 60.884 206.57 60.74C206.978 60.596 207.284 60.428 207.488 60.236L208.028 61.28ZM204.932 54.044C204.224 54.044 203.654 54.23 203.222 54.602C202.802 54.974 202.55 55.61 202.466 56.51H206.93C206.93 55.598 206.756 54.962 206.408 54.602C206.06 54.23 205.568 54.044 204.932 54.044ZM215.559 59.552C215.559 59.192 215.451 58.91 215.235 58.706C215.019 58.502 214.749 58.334 214.425 58.202C214.113 58.058 213.765 57.926 213.381 57.806C213.009 57.674 212.661 57.512 212.337 57.32C212.025 57.116 211.761 56.858 211.545 56.546C211.329 56.234 211.221 55.814 211.221 55.286C211.221 54.422 211.467 53.792 211.959 53.396C212.451 52.988 213.135 52.784 214.011 52.784C214.659 52.784 215.199 52.844 215.631 52.964C216.075 53.072 216.459 53.204 216.783 53.36L216.441 54.548C216.165 54.416 215.829 54.302 215.433 54.206C215.049 54.098 214.635 54.044 214.191 54.044C213.663 54.044 213.273 54.134 213.021 54.314C212.781 54.494 212.661 54.806 212.661 55.25C212.661 55.562 212.769 55.808 212.985 55.988C213.201 56.156 213.465 56.312 213.777 56.456C214.101 56.588 214.449 56.72 214.821 56.852C215.205 56.984 215.553 57.158 215.865 57.374C216.189 57.59 216.459 57.866 216.675 58.202C216.891 58.526 216.999 58.958 216.999 59.498C216.999 59.882 216.933 60.242 216.801 60.578C216.681 60.914 216.489 61.202 216.225 61.442C215.961 61.682 215.631 61.868 215.235 62C214.851 62.144 214.395 62.216 213.867 62.216C213.183 62.216 212.601 62.15 212.121 62.018C211.641 61.886 211.239 61.73 210.915 61.55L211.347 60.326C211.623 60.482 211.983 60.626 212.427 60.758C212.871 60.89 213.321 60.956 213.777 60.956C214.293 60.956 214.719 60.854 215.055 60.65C215.391 60.446 215.559 60.08 215.559 59.552Z" fill="#2D2D2D"/>
<path d="M60.302 128.996L56.144 121.4H57.89L60.842 126.908L61.148 128.006H61.166L61.49 126.872L64.316 121.4H65.918L61.796 128.978V134H60.302V128.996ZM73.4638 133.28C73.1038 133.568 72.6478 133.796 72.0958 133.964C71.5558 134.132 70.9798 134.216 70.3678 134.216C69.6838 134.216 69.0898 134.108 68.5858 133.892C68.0818 133.664 67.6678 133.346 67.3438 132.938C67.0198 132.518 66.7798 132.02 66.6238 131.444C66.4678 130.868 66.3898 130.22 66.3898 129.5C66.3898 127.964 66.7318 126.794 67.4158 125.99C68.0998 125.186 69.0778 124.784 70.3498 124.784C70.7578 124.784 71.1658 124.832 71.5738 124.928C71.9818 125.012 72.3478 125.18 72.6718 125.432C72.9958 125.684 73.2598 126.044 73.4638 126.512C73.6678 126.968 73.7698 127.574 73.7698 128.33C73.7698 128.726 73.7338 129.164 73.6618 129.644H67.8838C67.8838 130.172 67.9378 130.64 68.0458 131.048C68.1538 131.456 68.3218 131.804 68.5498 132.092C68.7778 132.368 69.0718 132.584 69.4318 132.74C69.8038 132.884 70.2538 132.956 70.7818 132.956C71.1898 132.956 71.5978 132.884 72.0058 132.74C72.4138 132.596 72.7198 132.428 72.9238 132.236L73.4638 133.28ZM70.3678 126.044C69.6598 126.044 69.0898 126.23 68.6578 126.602C68.2378 126.974 67.9858 127.61 67.9018 128.51H72.3658C72.3658 127.598 72.1918 126.962 71.8438 126.602C71.4958 126.23 71.0038 126.044 70.3678 126.044ZM80.9944 131.552C80.9944 131.192 80.8864 130.91 80.6704 130.706C80.4544 130.502 80.1844 130.334 79.8604 130.202C79.5484 130.058 79.2004 129.926 78.8164 129.806C78.4444 129.674 78.0964 129.512 77.7724 129.32C77.4604 129.116 77.1964 128.858 76.9804 128.546C76.7644 128.234 76.6564 127.814 76.6564 127.286C76.6564 126.422 76.9024 125.792 77.3944 125.396C77.8864 124.988 78.5704 124.784 79.4464 124.784C80.0944 124.784 80.6344 124.844 81.0664 124.964C81.5104 125.072 81.8944 125.204 82.2184 125.36L81.8764 126.548C81.6004 126.416 81.2644 126.302 80.8684 126.206C80.4844 126.098 80.0704 126.044 79.6264 126.044C79.0984 126.044 78.7084 126.134 78.4564 126.314C78.2164 126.494 78.0964 126.806 78.0964 127.25C78.0964 127.562 78.2044 127.808 78.4204 127.988C78.6364 128.156 78.9004 128.312 79.2124 128.456C79.5364 128.588 79.8844 128.72 80.2564 128.852C80.6404 128.984 80.9884 129.158 81.3004 129.374C81.6244 129.59 81.8944 129.866 82.1104 130.202C82.3264 130.526 82.4344 130.958 82.4344 131.498C82.4344 131.882 82.3684 132.242 82.2364 132.578C82.1164 132.914 81.9244 133.202 81.6604 133.442C81.3964 133.682 81.0664 133.868 80.6704 134C80.2864 134.144 79.8304 134.216 79.3024 134.216C78.6184 134.216 78.0364 134.15 77.5564 134.018C77.0764 133.886 76.6744 133.73 76.3504 133.55L76.7824 132.326C77.0584 132.482 77.4184 132.626 77.8624 132.758C78.3064 132.89 78.7564 132.956 79.2124 132.956C79.7284 132.956 80.1544 132.854 80.4904 132.65C80.8264 132.446 80.9944 132.08 80.9944 131.552ZM85.1066 133.226C85.1066 132.938 85.2026 132.704 85.3946 132.524C85.5866 132.344 85.8326 132.254 86.1326 132.254C86.5046 132.254 86.8046 132.386 87.0326 132.65C87.2726 132.914 87.3926 133.298 87.3926 133.802C87.3926 134.234 87.3326 134.612 87.2126 134.936C87.0926 135.26 86.9366 135.536 86.7446 135.764C86.5526 136.004 86.3426 136.196 86.1146 136.34C85.8866 136.496 85.6586 136.61 85.4306 136.682L84.9806 135.98C85.4126 135.812 85.7306 135.548 85.9346 135.188C86.1506 134.84 86.2586 134.486 86.2586 134.126C86.1506 134.162 86.0486 134.18 85.9526 134.18C85.7126 134.18 85.5086 134.102 85.3406 133.946C85.1846 133.778 85.1066 133.538 85.1066 133.226ZM94.0148 129.5C94.0148 127.976 94.3508 126.812 95.0228 126.008C95.7068 125.192 96.6848 124.784 97.9568 124.784C98.6288 124.784 99.2108 124.898 99.7028 125.126C100.207 125.342 100.621 125.66 100.945 126.08C101.269 126.488 101.509 126.986 101.665 127.574C101.821 128.15 101.899 128.792 101.899 129.5C101.899 131.024 101.557 132.194 100.873 133.01C100.201 133.814 99.2288 134.216 97.9568 134.216C97.2848 134.216 96.6968 134.108 96.1928 133.892C95.7008 133.664 95.2928 133.346 94.9688 132.938C94.6448 132.518 94.4048 132.02 94.2488 131.444C94.0928 130.856 94.0148 130.208 94.0148 129.5ZM95.5088 129.5C95.5088 129.956 95.5508 130.394 95.6348 130.814C95.7308 131.234 95.8748 131.6 96.0668 131.912C96.2588 132.224 96.5108 132.476 96.8228 132.668C97.1348 132.86 97.5128 132.956 97.9568 132.956C99.5888 132.968 100.405 131.816 100.405 129.5C100.405 129.032 100.357 128.588 100.261 128.168C100.177 127.748 100.039 127.382 99.8468 127.07C99.6548 126.758 99.4028 126.512 99.0908 126.332C98.7788 126.14 98.4008 126.044 97.9568 126.044C96.3248 126.032 95.5088 127.184 95.5088 129.5ZM110.947 134V128.87C110.947 127.934 110.809 127.232 110.533 126.764C110.269 126.284 109.777 126.044 109.057 126.044C108.421 126.044 107.893 126.218 107.473 126.566C107.065 126.902 106.777 127.328 106.609 127.844V134H105.169V125H106.177L106.447 126.098H106.519C106.807 125.714 107.191 125.402 107.671 125.162C108.163 124.91 108.745 124.784 109.417 124.784C109.909 124.784 110.341 124.844 110.713 124.964C111.085 125.072 111.391 125.27 111.631 125.558C111.883 125.846 112.069 126.236 112.189 126.728C112.321 127.208 112.387 127.82 112.387 128.564V134H110.947ZM122.151 133.406C121.791 133.67 121.365 133.868 120.873 134C120.381 134.144 119.865 134.216 119.325 134.216C118.629 134.216 118.041 134.108 117.561 133.892C117.081 133.664 116.685 133.346 116.373 132.938C116.073 132.518 115.851 132.02 115.707 131.444C115.575 130.856 115.509 130.208 115.509 129.5C115.509 127.976 115.845 126.812 116.517 126.008C117.189 125.192 118.155 124.784 119.415 124.784C119.991 124.784 120.477 124.832 120.873 124.928C121.281 125.012 121.647 125.138 121.971 125.306L121.557 126.548C121.281 126.392 120.975 126.272 120.639 126.188C120.303 126.092 119.943 126.044 119.559 126.044C117.855 126.044 117.003 127.196 117.003 129.5C117.003 129.956 117.045 130.394 117.129 130.814C117.225 131.222 117.375 131.588 117.579 131.912C117.795 132.224 118.071 132.476 118.407 132.668C118.755 132.86 119.181 132.956 119.685 132.956C120.117 132.956 120.501 132.89 120.837 132.758C121.185 132.626 121.467 132.476 121.683 132.308L122.151 133.406ZM131.282 133.28C130.922 133.568 130.466 133.796 129.914 133.964C129.374 134.132 128.798 134.216 128.186 134.216C127.502 134.216 126.908 134.108 126.404 133.892C125.9 133.664 125.486 133.346 125.162 132.938C124.838 132.518 124.598 132.02 124.442 131.444C124.286 130.868 124.208 130.22 124.208 129.5C124.208 127.964 124.55 126.794 125.234 125.99C125.918 125.186 126.896 124.784 128.168 124.784C128.576 124.784 128.984 124.832 129.392 124.928C129.8 125.012 130.166 125.18 130.49 125.432C130.814 125.684 131.078 126.044 131.282 126.512C131.486 126.968 131.588 127.574 131.588 128.33C131.588 128.726 131.552 129.164 131.48 129.644H125.702C125.702 130.172 125.756 130.64 125.864 131.048C125.972 131.456 126.14 131.804 126.368 132.092C126.596 132.368 126.89 132.584 127.25 132.74C127.622 132.884 128.072 132.956 128.6 132.956C129.008 132.956 129.416 132.884 129.824 132.74C130.232 132.596 130.538 132.428 130.742 132.236L131.282 133.28ZM128.186 126.044C127.478 126.044 126.908 126.23 126.476 126.602C126.056 126.974 125.804 127.61 125.72 128.51H130.184C130.184 127.598 130.01 126.962 129.662 126.602C129.314 126.23 128.822 126.044 128.186 126.044Z" fill="#2D2D2D"/>
<path d="M59.798 197.756L58.826 195.938H58.754L58.934 197.756V206H57.53V193.202H58.322L64.352 201.608L65.288 203.336H65.378L65.18 201.608V193.4H66.584V206.198H65.792L59.798 197.756ZM69.9933 201.5C69.9933 199.976 70.3293 198.812 71.0013 198.008C71.6853 197.192 72.6633 196.784 73.9353 196.784C74.6073 196.784 75.1893 196.898 75.6813 197.126C76.1853 197.342 76.5993 197.66 76.9233 198.08C77.2473 198.488 77.4873 198.986 77.6433 199.574C77.7993 200.15 77.8773 200.792 77.8773 201.5C77.8773 203.024 77.5353 204.194 76.8513 205.01C76.1793 205.814 75.2073 206.216 73.9353 206.216C73.2633 206.216 72.6753 206.108 72.1713 205.892C71.6793 205.664 71.2713 205.346 70.9473 204.938C70.6233 204.518 70.3833 204.02 70.2273 203.444C70.0713 202.856 69.9933 202.208 69.9933 201.5ZM71.4873 201.5C71.4873 201.956 71.5293 202.394 71.6133 202.814C71.7093 203.234 71.8533 203.6 72.0453 203.912C72.2373 204.224 72.4893 204.476 72.8013 204.668C73.1133 204.86 73.4913 204.956 73.9353 204.956C75.5673 204.968 76.3833 203.816 76.3833 201.5C76.3833 201.032 76.3353 200.588 76.2393 200.168C76.1553 199.748 76.0173 199.382 75.8253 199.07C75.6333 198.758 75.3813 198.512 75.0693 198.332C74.7573 198.14 74.3793 198.044 73.9353 198.044C72.3033 198.032 71.4873 199.184 71.4873 201.5ZM80.4328 205.226C80.4328 204.938 80.5288 204.704 80.7208 204.524C80.9128 204.344 81.1588 204.254 81.4588 204.254C81.8308 204.254 82.1308 204.386 82.3588 204.65C82.5988 204.914 82.7188 205.298 82.7188 205.802C82.7188 206.234 82.6588 206.612 82.5388 206.936C82.4188 207.26 82.2628 207.536 82.0708 207.764C81.8788 208.004 81.6688 208.196 81.4408 208.34C81.2128 208.496 80.9848 208.61 80.7568 208.682L80.3068 207.98C80.7388 207.812 81.0568 207.548 81.2608 207.188C81.4768 206.84 81.5848 206.486 81.5848 206.126C81.4768 206.162 81.3748 206.18 81.2788 206.18C81.0388 206.18 80.8348 206.102 80.6668 205.946C80.5108 205.778 80.4328 205.538 80.4328 205.226ZM95.623 206V200.87C95.623 199.934 95.485 199.232 95.209 198.764C94.945 198.284 94.453 198.044 93.733 198.044C93.097 198.044 92.569 198.218 92.149 198.566C91.741 198.902 91.453 199.328 91.285 199.844V206H89.845V197H90.853L91.123 198.098H91.195C91.483 197.714 91.867 197.402 92.347 197.162C92.839 196.91 93.421 196.784 94.093 196.784C94.585 196.784 95.017 196.844 95.389 196.964C95.761 197.072 96.067 197.27 96.307 197.558C96.559 197.846 96.745 198.236 96.865 198.728C96.997 199.208 97.063 199.82 97.063 200.564V206H95.623ZM107.259 205.28C106.899 205.568 106.443 205.796 105.891 205.964C105.351 206.132 104.775 206.216 104.163 206.216C103.479 206.216 102.885 206.108 102.381 205.892C101.877 205.664 101.463 205.346 101.139 204.938C100.815 204.518 100.575 204.02 100.419 203.444C100.263 202.868 100.185 202.22 100.185 201.5C100.185 199.964 100.527 198.794 101.211 197.99C101.895 197.186 102.873 196.784 104.145 196.784C104.553 196.784 104.961 196.832 105.369 196.928C105.777 197.012 106.143 197.18 106.467 197.432C106.791 197.684 107.055 198.044 107.259 198.512C107.463 198.968 107.565 199.574 107.565 200.33C107.565 200.726 107.529 201.164 107.457 201.644H101.679C101.679 202.172 101.733 202.64 101.841 203.048C101.949 203.456 102.117 203.804 102.345 204.092C102.573 204.368 102.867 204.584 103.227 204.74C103.599 204.884 104.049 204.956 104.577 204.956C104.985 204.956 105.393 204.884 105.801 204.74C106.209 204.596 106.515 204.428 106.719 204.236L107.259 205.28ZM104.163 198.044C103.455 198.044 102.885 198.23 102.453 198.602C102.033 198.974 101.781 199.61 101.697 200.51H106.161C106.161 199.598 105.987 198.962 105.639 198.602C105.291 198.23 104.799 198.044 104.163 198.044ZM113.017 202.274L113.521 203.984H113.539L113.989 202.238L116.005 197H117.553L113.719 206.198H113.107L109.201 197H110.857L113.017 202.274ZM126.485 205.28C126.125 205.568 125.669 205.796 125.117 205.964C124.577 206.132 124.001 206.216 123.389 206.216C122.705 206.216 122.111 206.108 121.607 205.892C121.103 205.664 120.689 205.346 120.365 204.938C120.041 204.518 119.801 204.02 119.645 203.444C119.489 202.868 119.411 202.22 119.411 201.5C119.411 199.964 119.753 198.794 120.437 197.99C121.121 197.186 122.099 196.784 123.371 196.784C123.779 196.784 124.187 196.832 124.595 196.928C125.003 197.012 125.369 197.18 125.693 197.432C126.017 197.684 126.281 198.044 126.485 198.512C126.689 198.968 126.791 199.574 126.791 200.33C126.791 200.726 126.755 201.164 126.683 201.644H120.905C120.905 202.172 120.959 202.64 121.067 203.048C121.175 203.456 121.343 203.804 121.571 204.092C121.799 204.368 122.093 204.584 122.453 204.74C122.825 204.884 123.275 204.956 123.803 204.956C124.211 204.956 124.619 204.884 125.027 204.74C125.435 204.596 125.741 204.428 125.945 204.236L126.485 205.28ZM123.389 198.044C122.681 198.044 122.111 198.23 121.679 198.602C121.259 198.974 121.007 199.61 120.923 200.51H125.387C125.387 199.598 125.213 198.962 124.865 198.602C124.517 198.23 124.025 198.044 123.389 198.044ZM134.304 198.386C133.944 198.266 133.602 198.206 133.278 198.206C132.762 198.206 132.354 198.35 132.054 198.638C131.754 198.914 131.568 199.268 131.496 199.7V206H130.056V197H131.064L131.334 198.098H131.406C131.634 197.69 131.904 197.378 132.216 197.162C132.54 196.934 132.948 196.82 133.44 196.82C133.788 196.82 134.178 196.88 134.61 197L134.304 198.386Z" fill="#2D2D2D"/>
<path d="M57.872 265.4H59.366V278H57.872V265.4ZM76.3351 274.904C76.3351 275.516 76.3411 276.074 76.3531 276.578C76.3651 277.07 76.4191 277.556 76.5151 278.036H75.5431L75.1831 276.758H75.1111C74.8711 277.178 74.5231 277.526 74.0671 277.802C73.6111 278.078 73.0771 278.216 72.4651 278.216C71.2651 278.216 70.3711 277.838 69.7831 277.082C69.2071 276.326 68.9191 275.144 68.9191 273.536C68.9191 272 69.2791 270.836 69.9991 270.044C70.7311 269.24 71.7331 268.838 73.0051 268.838C73.4491 268.838 73.7971 268.862 74.0491 268.91C74.3131 268.958 74.5951 269.036 74.8951 269.144V265.4H76.3351V274.904ZM72.6991 276.956C73.3111 276.956 73.7971 276.8 74.1571 276.488C74.5171 276.164 74.7631 275.678 74.8951 275.03V270.566C74.6791 270.398 74.4331 270.278 74.1571 270.206C73.8811 270.134 73.5151 270.098 73.0591 270.098C72.2311 270.098 71.5831 270.374 71.1151 270.926C70.6471 271.466 70.4131 272.336 70.4131 273.536C70.4131 274.028 70.4491 274.484 70.5211 274.904C70.6051 275.324 70.7371 275.684 70.9171 275.984C71.0971 276.284 71.3311 276.524 71.6191 276.704C71.9191 276.872 72.2791 276.956 72.6991 276.956ZM79.6047 273.5C79.6047 271.976 79.9407 270.812 80.6127 270.008C81.2967 269.192 82.2747 268.784 83.5467 268.784C84.2187 268.784 84.8007 268.898 85.2927 269.126C85.7967 269.342 86.2107 269.66 86.5347 270.08C86.8587 270.488 87.0987 270.986 87.2547 271.574C87.4107 272.15 87.4887 272.792 87.4887 273.5C87.4887 275.024 87.1467 276.194 86.4627 277.01C85.7907 277.814 84.8187 278.216 83.5467 278.216C82.8747 278.216 82.2867 278.108 81.7827 277.892C81.2907 277.664 80.8827 277.346 80.5587 276.938C80.2347 276.518 79.9947 276.02 79.8387 275.444C79.6827 274.856 79.6047 274.208 79.6047 273.5ZM81.0987 273.5C81.0987 273.956 81.1407 274.394 81.2247 274.814C81.3207 275.234 81.4647 275.6 81.6567 275.912C81.8487 276.224 82.1007 276.476 82.4127 276.668C82.7247 276.86 83.1027 276.956 83.5467 276.956C85.1787 276.968 85.9947 275.816 85.9947 273.5C85.9947 273.032 85.9467 272.588 85.8507 272.168C85.7667 271.748 85.6287 271.382 85.4367 271.07C85.2447 270.758 84.9927 270.512 84.6807 270.332C84.3687 270.14 83.9907 270.044 83.5467 270.044C81.9147 270.032 81.0987 271.184 81.0987 273.5ZM96.537 278V272.87C96.537 271.934 96.399 271.232 96.123 270.764C95.859 270.284 95.367 270.044 94.647 270.044C94.011 270.044 93.483 270.218 93.063 270.566C92.655 270.902 92.367 271.328 92.199 271.844V278H90.759V269H91.767L92.037 270.098H92.109C92.397 269.714 92.781 269.402 93.261 269.162C93.753 268.91 94.335 268.784 95.007 268.784C95.499 268.784 95.931 268.844 96.303 268.964C96.675 269.072 96.981 269.27 97.221 269.558C97.473 269.846 97.659 270.236 97.779 270.728C97.911 271.208 97.977 271.82 97.977 272.564V278H96.537ZM100.937 266.138C100.937 265.862 101.021 265.646 101.189 265.49C101.369 265.334 101.597 265.256 101.873 265.256C102.209 265.256 102.479 265.364 102.683 265.58C102.899 265.784 103.007 266.096 103.007 266.516C103.007 266.912 102.947 267.254 102.827 267.542C102.719 267.83 102.581 268.076 102.413 268.28C102.257 268.472 102.089 268.628 101.909 268.748C101.729 268.868 101.573 268.952 101.441 269L100.991 268.388C101.267 268.244 101.483 268.064 101.639 267.848C101.795 267.632 101.873 267.35 101.873 267.002C101.825 267.014 101.759 267.02 101.675 267.02C101.447 267.02 101.267 266.942 101.135 266.786C101.003 266.618 100.937 266.402 100.937 266.138ZM104.913 269H106.317V267.218L107.757 266.804V269H110.205V270.26H107.757V275.246C107.757 275.87 107.835 276.314 107.991 276.578C108.147 276.83 108.411 276.956 108.783 276.956C109.095 276.956 109.359 276.926 109.575 276.866C109.791 276.794 110.031 276.704 110.295 276.596L110.619 277.694C110.295 277.85 109.941 277.976 109.557 278.072C109.173 278.168 108.759 278.216 108.315 278.216C107.583 278.216 107.067 278.012 106.767 277.604C106.467 277.184 106.317 276.488 106.317 275.516V270.26H104.913V269ZM121.267 273.95H120.439V278H118.999V265.4H120.439V273.068L121.177 272.816L123.967 269H125.641L122.887 272.618L122.149 273.212L123.049 273.932L126.055 278H124.273L121.267 273.95ZM134.972 277.28C134.612 277.568 134.156 277.796 133.604 277.964C133.064 278.132 132.488 278.216 131.876 278.216C131.192 278.216 130.598 278.108 130.094 277.892C129.59 277.664 129.176 277.346 128.852 276.938C128.528 276.518 128.288 276.02 128.132 275.444C127.976 274.868 127.898 274.22 127.898 273.5C127.898 271.964 128.24 270.794 128.924 269.99C129.608 269.186 130.586 268.784 131.858 268.784C132.266 268.784 132.674 268.832 133.082 268.928C133.49 269.012 133.856 269.18 134.18 269.432C134.504 269.684 134.768 270.044 134.972 270.512C135.176 270.968 135.278 271.574 135.278 272.33C135.278 272.726 135.242 273.164 135.17 273.644H129.392C129.392 274.172 129.446 274.64 129.554 275.048C129.662 275.456 129.83 275.804 130.058 276.092C130.286 276.368 130.58 276.584 130.94 276.74C131.312 276.884 131.762 276.956 132.29 276.956C132.698 276.956 133.106 276.884 133.514 276.74C133.922 276.596 134.228 276.428 134.432 276.236L134.972 277.28ZM131.876 270.044C131.168 270.044 130.598 270.23 130.166 270.602C129.746 270.974 129.494 271.61 129.41 272.51H133.874C133.874 271.598 133.7 270.962 133.352 270.602C133.004 270.23 132.512 270.044 131.876 270.044ZM144.919 277.28C144.559 277.568 144.103 277.796 143.551 277.964C143.011 278.132 142.435 278.216 141.823 278.216C141.139 278.216 140.545 278.108 140.041 277.892C139.537 277.664 139.123 277.346 138.799 276.938C138.475 276.518 138.235 276.02 138.079 275.444C137.923 274.868 137.845 274.22 137.845 273.5C137.845 271.964 138.187 270.794 138.871 269.99C139.555 269.186 140.533 268.784 141.805 268.784C142.213 268.784 142.621 268.832 143.029 268.928C143.437 269.012 143.803 269.18 144.127 269.432C144.451 269.684 144.715 270.044 144.919 270.512C145.123 270.968 145.225 271.574 145.225 272.33C145.225 272.726 145.189 273.164 145.117 273.644H139.339C139.339 274.172 139.393 274.64 139.501 275.048C139.609 275.456 139.777 275.804 140.005 276.092C140.233 276.368 140.527 276.584 140.887 276.74C141.259 276.884 141.709 276.956 142.237 276.956C142.645 276.956 143.053 276.884 143.461 276.74C143.869 276.596 144.175 276.428 144.379 276.236L144.919 277.28ZM141.823 270.044C141.115 270.044 140.545 270.23 140.113 270.602C139.693 270.974 139.441 271.61 139.357 272.51H143.821C143.821 271.598 143.647 270.962 143.299 270.602C142.951 270.23 142.459 270.044 141.823 270.044ZM148.49 269H149.48L149.75 270.08H149.822C150.098 269.66 150.452 269.342 150.884 269.126C151.328 268.898 151.832 268.784 152.396 268.784C153.596 268.784 154.49 269.138 155.078 269.846C155.666 270.554 155.96 271.712 155.96 273.32C155.96 274.076 155.858 274.76 155.654 275.372C155.462 275.972 155.186 276.482 154.826 276.902C154.466 277.322 154.028 277.646 153.512 277.874C153.008 278.102 152.444 278.216 151.82 278.216C151.376 278.216 151.022 278.186 150.758 278.126C150.506 278.078 150.23 277.988 149.93 277.856V281.6H148.49V269ZM152.126 270.044C151.514 270.044 151.028 270.206 150.668 270.53C150.32 270.842 150.074 271.322 149.93 271.97V276.434C150.146 276.602 150.392 276.734 150.668 276.83C150.944 276.914 151.31 276.956 151.766 276.956C152.594 276.956 153.248 276.65 153.728 276.038C154.22 275.414 154.466 274.502 154.466 273.302C154.466 272.81 154.424 272.366 154.34 271.97C154.256 271.562 154.118 271.22 153.926 270.944C153.746 270.656 153.506 270.434 153.206 270.278C152.918 270.122 152.558 270.044 152.126 270.044ZM170.301 278V272.906C170.301 272.426 170.277 272.012 170.229 271.664C170.193 271.304 170.115 271.004 169.995 270.764C169.875 270.524 169.701 270.344 169.473 270.224C169.257 270.104 168.969 270.044 168.609 270.044C168.057 270.044 167.595 270.212 167.223 270.548C166.863 270.884 166.611 271.304 166.467 271.808V278H165.027V269H166.035L166.305 270.098H166.377C166.701 269.714 167.073 269.402 167.493 269.162C167.925 268.91 168.483 268.784 169.167 268.784C169.743 268.784 170.211 268.898 170.571 269.126C170.943 269.342 171.231 269.726 171.435 270.278C171.711 269.81 172.089 269.444 172.569 269.18C173.061 268.916 173.613 268.784 174.225 268.784C174.729 268.784 175.155 268.844 175.503 268.964C175.851 269.072 176.139 269.27 176.367 269.558C176.595 269.846 176.757 270.236 176.853 270.728C176.961 271.22 177.015 271.844 177.015 272.6V278H175.575V272.582C175.575 272.15 175.551 271.778 175.503 271.466C175.467 271.142 175.383 270.878 175.251 270.674C175.131 270.458 174.957 270.302 174.729 270.206C174.513 270.098 174.225 270.044 173.865 270.044C173.265 270.044 172.797 270.212 172.461 270.548C172.125 270.884 171.885 271.364 171.741 271.988V278H170.301ZM187.204 277.28C186.844 277.568 186.388 277.796 185.836 277.964C185.296 278.132 184.72 278.216 184.108 278.216C183.424 278.216 182.83 278.108 182.326 277.892C181.822 277.664 181.408 277.346 181.084 276.938C180.76 276.518 180.52 276.02 180.364 275.444C180.208 274.868 180.13 274.22 180.13 273.5C180.13 271.964 180.472 270.794 181.156 269.99C181.84 269.186 182.818 268.784 184.09 268.784C184.498 268.784 184.906 268.832 185.314 268.928C185.722 269.012 186.088 269.18 186.412 269.432C186.736 269.684 187 270.044 187.204 270.512C187.408 270.968 187.51 271.574 187.51 272.33C187.51 272.726 187.474 273.164 187.402 273.644H181.624C181.624 274.172 181.678 274.64 181.786 275.048C181.894 275.456 182.062 275.804 182.29 276.092C182.518 276.368 182.812 276.584 183.172 276.74C183.544 276.884 183.994 276.956 184.522 276.956C184.93 276.956 185.338 276.884 185.746 276.74C186.154 276.596 186.46 276.428 186.664 276.236L187.204 277.28ZM184.108 270.044C183.4 270.044 182.83 270.23 182.398 270.602C181.978 270.974 181.726 271.61 181.642 272.51H186.106C186.106 271.598 185.932 270.962 185.584 270.602C185.236 270.23 184.744 270.044 184.108 270.044ZM197.687 274.904C197.687 275.516 197.693 276.074 197.705 276.578C197.717 277.07 197.771 277.556 197.867 278.036H196.895L196.535 276.758H196.463C196.223 277.178 195.875 277.526 195.419 277.802C194.963 278.078 194.429 278.216 193.817 278.216C192.617 278.216 191.723 277.838 191.135 277.082C190.559 276.326 190.271 275.144 190.271 273.536C190.271 272 190.631 270.836 191.351 270.044C192.083 269.24 193.085 268.838 194.357 268.838C194.801 268.838 195.149 268.862 195.401 268.91C195.665 268.958 195.947 269.036 196.247 269.144V265.4H197.687V274.904ZM194.051 276.956C194.663 276.956 195.149 276.8 195.509 276.488C195.869 276.164 196.115 275.678 196.247 275.03V270.566C196.031 270.398 195.785 270.278 195.509 270.206C195.233 270.134 194.867 270.098 194.411 270.098C193.583 270.098 192.935 270.374 192.467 270.926C191.999 271.466 191.765 272.336 191.765 273.536C191.765 274.028 191.801 274.484 191.873 274.904C191.957 275.324 192.089 275.684 192.269 275.984C192.449 276.284 192.683 276.524 192.971 276.704C193.271 276.872 193.631 276.956 194.051 276.956ZM201.766 269H203.206V278H201.766V269ZM201.46 266.264C201.46 265.988 201.55 265.754 201.73 265.562C201.922 265.358 202.162 265.256 202.45 265.256C202.738 265.256 202.984 265.358 203.188 265.562C203.392 265.754 203.494 265.988 203.494 266.264C203.494 266.54 203.392 266.768 203.188 266.948C202.984 267.128 202.738 267.218 202.45 267.218C202.162 267.218 201.922 267.128 201.73 266.948C201.55 266.768 201.46 266.54 201.46 266.264ZM213.415 277.406C213.055 277.67 212.629 277.868 212.137 278C211.645 278.144 211.129 278.216 210.589 278.216C209.893 278.216 209.305 278.108 208.825 277.892C208.345 277.664 207.949 277.346 207.637 276.938C207.337 276.518 207.115 276.02 206.971 275.444C206.839 274.856 206.773 274.208 206.773 273.5C206.773 271.976 207.109 270.812 207.781 270.008C208.453 269.192 209.419 268.784 210.679 268.784C211.255 268.784 211.741 268.832 212.137 268.928C212.545 269.012 212.911 269.138 213.235 269.306L212.821 270.548C212.545 270.392 212.239 270.272 211.903 270.188C211.567 270.092 211.207 270.044 210.823 270.044C209.119 270.044 208.267 271.196 208.267 273.5C208.267 273.956 208.309 274.394 208.393 274.814C208.489 275.222 208.639 275.588 208.843 275.912C209.059 276.224 209.335 276.476 209.671 276.668C210.019 276.86 210.445 276.956 210.949 276.956C211.381 276.956 211.765 276.89 212.101 276.758C212.449 276.626 212.731 276.476 212.947 276.308L213.415 277.406ZM216.254 269.666C216.71 269.39 217.238 269.186 217.838 269.054C218.45 268.922 219.086 268.856 219.746 268.856C220.37 268.856 220.868 268.94 221.24 269.108C221.624 269.276 221.912 269.498 222.104 269.774C222.308 270.038 222.44 270.332 222.5 270.656C222.572 270.98 222.608 271.304 222.608 271.628C222.608 272.348 222.59 273.05 222.554 273.734C222.518 274.418 222.5 275.066 222.5 275.678C222.5 276.122 222.518 276.542 222.554 276.938C222.59 277.334 222.656 277.7 222.752 278.036H221.69L221.312 276.776H221.222C221.114 276.944 220.976 277.112 220.808 277.28C220.652 277.436 220.46 277.58 220.232 277.712C220.004 277.832 219.74 277.934 219.44 278.018C219.14 278.102 218.798 278.144 218.414 278.144C218.03 278.144 217.67 278.084 217.334 277.964C217.01 277.844 216.728 277.676 216.488 277.46C216.248 277.232 216.056 276.962 215.912 276.65C215.78 276.338 215.714 275.984 215.714 275.588C215.714 275.06 215.822 274.622 216.038 274.274C216.254 273.914 216.554 273.632 216.938 273.428C217.334 273.212 217.802 273.062 218.342 272.978C218.894 272.882 219.5 272.834 220.16 272.834C220.328 272.834 220.49 272.834 220.646 272.834C220.814 272.834 220.982 272.846 221.15 272.87C221.186 272.51 221.204 272.186 221.204 271.898C221.204 271.238 221.072 270.776 220.808 270.512C220.544 270.248 220.064 270.116 219.368 270.116C219.164 270.116 218.942 270.134 218.702 270.17C218.474 270.194 218.234 270.236 217.982 270.296C217.742 270.344 217.508 270.41 217.28 270.494C217.064 270.566 216.872 270.65 216.704 270.746L216.254 269.666ZM218.81 276.884C219.146 276.884 219.446 276.842 219.71 276.758C219.974 276.662 220.202 276.548 220.394 276.416C220.586 276.272 220.742 276.116 220.862 275.948C220.994 275.78 221.09 275.618 221.15 275.462V273.968C220.982 273.956 220.808 273.95 220.628 273.95C220.46 273.938 220.292 273.932 220.124 273.932C219.752 273.932 219.386 273.956 219.026 274.004C218.678 274.04 218.366 274.118 218.09 274.238C217.826 274.346 217.61 274.502 217.442 274.706C217.286 274.898 217.208 275.144 217.208 275.444C217.208 275.864 217.358 276.212 217.658 276.488C217.958 276.752 218.342 276.884 218.81 276.884ZM227.929 275.786C227.929 276.206 228.001 276.506 228.145 276.686C228.289 276.866 228.493 276.956 228.757 276.956C228.913 276.956 229.081 276.944 229.261 276.92C229.441 276.896 229.645 276.842 229.873 276.758L230.035 277.892C229.843 277.988 229.573 278.066 229.225 278.126C228.889 278.186 228.595 278.216 228.343 278.216C227.803 278.216 227.359 278.066 227.011 277.766C226.663 277.454 226.489 276.932 226.489 276.2V265.4H227.929V275.786ZM245.294 274.904C245.294 275.516 245.3 276.074 245.312 276.578C245.324 277.07 245.378 277.556 245.474 278.036H244.502L244.142 276.758H244.07C243.83 277.178 243.482 277.526 243.026 277.802C242.57 278.078 242.036 278.216 241.424 278.216C240.224 278.216 239.33 277.838 238.742 277.082C238.166 276.326 237.878 275.144 237.878 273.536C237.878 272 238.238 270.836 238.958 270.044C239.69 269.24 240.692 268.838 241.964 268.838C242.408 268.838 242.756 268.862 243.008 268.91C243.272 268.958 243.554 269.036 243.854 269.144V265.4H245.294V274.904ZM241.658 276.956C242.27 276.956 242.756 276.8 243.116 276.488C243.476 276.164 243.722 275.678 243.854 275.03V270.566C243.638 270.398 243.392 270.278 243.116 270.206C242.84 270.134 242.474 270.098 242.018 270.098C241.19 270.098 240.542 270.374 240.074 270.926C239.606 271.466 239.372 272.336 239.372 273.536C239.372 274.028 239.408 274.484 239.48 274.904C239.564 275.324 239.696 275.684 239.876 275.984C240.056 276.284 240.29 276.524 240.578 276.704C240.878 276.872 241.238 276.956 241.658 276.956ZM248.564 273.5C248.564 271.976 248.9 270.812 249.572 270.008C250.256 269.192 251.234 268.784 252.506 268.784C253.178 268.784 253.76 268.898 254.252 269.126C254.756 269.342 255.17 269.66 255.494 270.08C255.818 270.488 256.058 270.986 256.214 271.574C256.37 272.15 256.448 272.792 256.448 273.5C256.448 275.024 256.106 276.194 255.422 277.01C254.75 277.814 253.778 278.216 252.506 278.216C251.834 278.216 251.246 278.108 250.742 277.892C250.25 277.664 249.842 277.346 249.518 276.938C249.194 276.518 248.954 276.02 248.798 275.444C248.642 274.856 248.564 274.208 248.564 273.5ZM250.058 273.5C250.058 273.956 250.1 274.394 250.184 274.814C250.28 275.234 250.424 275.6 250.616 275.912C250.808 276.224 251.06 276.476 251.372 276.668C251.684 276.86 252.062 276.956 252.506 276.956C254.138 276.968 254.954 275.816 254.954 273.5C254.954 273.032 254.906 272.588 254.81 272.168C254.726 271.748 254.588 271.382 254.396 271.07C254.204 270.758 253.952 270.512 253.64 270.332C253.328 270.14 252.95 270.044 252.506 270.044C250.874 270.032 250.058 271.184 250.058 273.5ZM265.856 277.406C265.496 277.67 265.07 277.868 264.578 278C264.086 278.144 263.57 278.216 263.03 278.216C262.334 278.216 261.746 278.108 261.266 277.892C260.786 277.664 260.39 277.346 260.078 276.938C259.778 276.518 259.556 276.02 259.412 275.444C259.28 274.856 259.214 274.208 259.214 273.5C259.214 271.976 259.55 270.812 260.222 270.008C260.894 269.192 261.86 268.784 263.12 268.784C263.696 268.784 264.182 268.832 264.578 268.928C264.986 269.012 265.352 269.138 265.676 269.306L265.262 270.548C264.986 270.392 264.68 270.272 264.344 270.188C264.008 270.092 263.648 270.044 263.264 270.044C261.56 270.044 260.708 271.196 260.708 273.5C260.708 273.956 260.75 274.394 260.834 274.814C260.93 275.222 261.08 275.588 261.284 275.912C261.5 276.224 261.776 276.476 262.112 276.668C262.46 276.86 262.886 276.956 263.39 276.956C263.822 276.956 264.206 276.89 264.542 276.758C264.89 276.626 265.172 276.476 265.388 276.308L265.856 277.406ZM270.135 269V274.13C270.135 274.598 270.159 275.012 270.207 275.372C270.267 275.72 270.363 276.014 270.495 276.254C270.627 276.482 270.807 276.656 271.035 276.776C271.263 276.896 271.551 276.956 271.899 276.956C272.223 276.956 272.511 276.908 272.763 276.812C273.015 276.704 273.237 276.56 273.429 276.38C273.633 276.2 273.807 275.996 273.951 275.768C274.107 275.528 274.233 275.276 274.329 275.012V269H275.769V275.444C275.769 275.876 275.781 276.326 275.805 276.794C275.841 277.25 275.895 277.652 275.967 278H274.977L274.617 276.578H274.527C274.251 277.046 273.879 277.436 273.411 277.748C272.943 278.06 272.349 278.216 271.629 278.216C271.149 278.216 270.723 278.156 270.351 278.036C269.991 277.928 269.685 277.73 269.433 277.442C269.193 277.154 269.007 276.77 268.875 276.29C268.755 275.798 268.695 275.18 268.695 274.436V269H270.135ZM284.816 278V272.906C284.816 272.426 284.792 272.012 284.744 271.664C284.708 271.304 284.63 271.004 284.51 270.764C284.39 270.524 284.216 270.344 283.988 270.224C283.772 270.104 283.484 270.044 283.124 270.044C282.572 270.044 282.11 270.212 281.738 270.548C281.378 270.884 281.126 271.304 280.982 271.808V278H279.542V269H280.55L280.82 270.098H280.892C281.216 269.714 281.588 269.402 282.008 269.162C282.44 268.91 282.998 268.784 283.682 268.784C284.258 268.784 284.726 268.898 285.086 269.126C285.458 269.342 285.746 269.726 285.95 270.278C286.226 269.81 286.604 269.444 287.084 269.18C287.576 268.916 288.128 268.784 288.74 268.784C289.244 268.784 289.67 268.844 290.018 268.964C290.366 269.072 290.654 269.27 290.882 269.558C291.11 269.846 291.272 270.236 291.368 270.728C291.476 271.22 291.53 271.844 291.53 272.6V278H290.09V272.582C290.09 272.15 290.066 271.778 290.018 271.466C289.982 271.142 289.898 270.878 289.766 270.674C289.646 270.458 289.472 270.302 289.244 270.206C289.028 270.098 288.74 270.044 288.38 270.044C287.78 270.044 287.312 270.212 286.976 270.548C286.64 270.884 286.4 271.364 286.256 271.988V278H284.816ZM301.72 277.28C301.36 277.568 300.904 277.796 300.352 277.964C299.812 278.132 299.236 278.216 298.624 278.216C297.94 278.216 297.346 278.108 296.842 277.892C296.338 277.664 295.924 277.346 295.6 276.938C295.276 276.518 295.036 276.02 294.88 275.444C294.724 274.868 294.646 274.22 294.646 273.5C294.646 271.964 294.988 270.794 295.672 269.99C296.356 269.186 297.334 268.784 298.606 268.784C299.014 268.784 299.422 268.832 299.83 268.928C300.238 269.012 300.604 269.18 300.928 269.432C301.252 269.684 301.516 270.044 301.72 270.512C301.924 270.968 302.026 271.574 302.026 272.33C302.026 272.726 301.99 273.164 301.918 273.644H296.14C296.14 274.172 296.194 274.64 296.302 275.048C296.41 275.456 296.578 275.804 296.806 276.092C297.034 276.368 297.328 276.584 297.688 276.74C298.06 276.884 298.51 276.956 299.038 276.956C299.446 276.956 299.854 276.884 300.262 276.74C300.67 276.596 300.976 276.428 301.18 276.236L301.72 277.28ZM298.624 270.044C297.916 270.044 297.346 270.23 296.914 270.602C296.494 270.974 296.242 271.61 296.158 272.51H300.622C300.622 271.598 300.448 270.962 300.1 270.602C299.752 270.23 299.26 270.044 298.624 270.044ZM311.068 278V272.87C311.068 271.934 310.93 271.232 310.654 270.764C310.39 270.284 309.898 270.044 309.178 270.044C308.542 270.044 308.014 270.218 307.594 270.566C307.186 270.902 306.898 271.328 306.73 271.844V278H305.29V269H306.298L306.568 270.098H306.64C306.928 269.714 307.312 269.402 307.792 269.162C308.284 268.91 308.866 268.784 309.538 268.784C310.03 268.784 310.462 268.844 310.834 268.964C311.206 269.072 311.512 269.27 311.752 269.558C312.004 269.846 312.19 270.236 312.31 270.728C312.442 271.208 312.508 271.82 312.508 272.564V278H311.068ZM314.946 269H316.35V267.218L317.79 266.804V269H320.238V270.26H317.79V275.246C317.79 275.87 317.868 276.314 318.024 276.578C318.18 276.83 318.444 276.956 318.816 276.956C319.128 276.956 319.392 276.926 319.608 276.866C319.824 276.794 320.064 276.704 320.328 276.596L320.652 277.694C320.328 277.85 319.974 277.976 319.59 278.072C319.206 278.168 318.792 278.216 318.348 278.216C317.616 278.216 317.1 278.012 316.8 277.604C316.5 277.184 316.35 276.488 316.35 275.516V270.26H314.946V269ZM327.194 275.552C327.194 275.192 327.086 274.91 326.87 274.706C326.654 274.502 326.384 274.334 326.06 274.202C325.748 274.058 325.4 273.926 325.016 273.806C324.644 273.674 324.296 273.512 323.972 273.32C323.66 273.116 323.396 272.858 323.18 272.546C322.964 272.234 322.856 271.814 322.856 271.286C322.856 270.422 323.102 269.792 323.594 269.396C324.086 268.988 324.77 268.784 325.646 268.784C326.294 268.784 326.834 268.844 327.266 268.964C327.71 269.072 328.094 269.204 328.418 269.36L328.076 270.548C327.8 270.416 327.464 270.302 327.068 270.206C326.684 270.098 326.27 270.044 325.826 270.044C325.298 270.044 324.908 270.134 324.656 270.314C324.416 270.494 324.296 270.806 324.296 271.25C324.296 271.562 324.404 271.808 324.62 271.988C324.836 272.156 325.1 272.312 325.412 272.456C325.736 272.588 326.084 272.72 326.456 272.852C326.84 272.984 327.188 273.158 327.5 273.374C327.824 273.59 328.094 273.866 328.31 274.202C328.526 274.526 328.634 274.958 328.634 275.498C328.634 275.882 328.568 276.242 328.436 276.578C328.316 276.914 328.124 277.202 327.86 277.442C327.596 277.682 327.266 277.868 326.87 278C326.486 278.144 326.03 278.216 325.502 278.216C324.818 278.216 324.236 278.15 323.756 278.018C323.276 277.886 322.874 277.73 322.55 277.55L322.982 276.326C323.258 276.482 323.618 276.626 324.062 276.758C324.506 276.89 324.956 276.956 325.412 276.956C325.928 276.956 326.354 276.854 326.69 276.65C327.026 276.446 327.194 276.08 327.194 275.552Z" fill="#2D2D2D"/>
<path d="M437.98 62L442.498 51.452L443.29 50.57L442.228 50.732H437.098V49.4H444.622V49.886L439.438 62H437.98ZM447.583 55.7C447.583 53.54 447.931 51.914 448.627 50.822C449.335 49.73 450.361 49.184 451.705 49.184C453.157 49.184 454.207 49.724 454.855 50.804C455.515 51.872 455.845 53.504 455.845 55.7C455.845 57.86 455.491 59.486 454.783 60.578C454.087 61.67 453.061 62.216 451.705 62.216C450.277 62.216 449.233 61.646 448.573 60.506C447.913 59.366 447.583 57.764 447.583 55.7ZM449.077 55.7C449.077 56.48 449.125 57.194 449.221 57.842C449.329 58.478 449.491 59.03 449.707 59.498C449.923 59.954 450.193 60.314 450.517 60.578C450.853 60.83 451.249 60.956 451.705 60.956C452.617 60.956 453.283 60.536 453.703 59.696C454.135 58.844 454.351 57.512 454.351 55.7C454.351 54.932 454.303 54.224 454.207 53.576C454.123 52.928 453.973 52.37 453.757 51.902C453.553 51.434 453.283 51.074 452.947 50.822C452.611 50.57 452.197 50.444 451.705 50.444C450.805 50.444 450.139 50.87 449.707 51.722C449.287 52.574 449.077 53.9 449.077 55.7ZM458.877 52.244C458.877 51.704 458.949 51.242 459.093 50.858C459.237 50.474 459.429 50.156 459.669 49.904C459.921 49.652 460.215 49.472 460.551 49.364C460.899 49.244 461.271 49.184 461.667 49.184C462.063 49.184 462.429 49.238 462.765 49.346C463.113 49.454 463.407 49.628 463.647 49.868C463.899 50.108 464.097 50.426 464.241 50.822C464.385 51.206 464.457 51.68 464.457 52.244C464.457 52.808 464.385 53.288 464.241 53.684C464.097 54.068 463.899 54.38 463.647 54.62C463.407 54.86 463.113 55.034 462.765 55.142C462.429 55.25 462.063 55.304 461.667 55.304C461.271 55.304 460.899 55.25 460.551 55.142C460.215 55.034 459.921 54.86 459.669 54.62C459.429 54.38 459.237 54.068 459.093 53.684C458.949 53.288 458.877 52.808 458.877 52.244ZM460.209 52.244C460.209 52.964 460.335 53.48 460.587 53.792C460.851 54.104 461.211 54.26 461.667 54.26C461.895 54.26 462.099 54.23 462.279 54.17C462.459 54.098 462.609 53.99 462.729 53.846C462.861 53.69 462.957 53.486 463.017 53.234C463.089 52.97 463.125 52.64 463.125 52.244C463.125 51.848 463.089 51.524 463.017 51.272C462.957 51.008 462.861 50.804 462.729 50.66C462.609 50.504 462.459 50.396 462.279 50.336C462.099 50.264 461.895 50.228 461.667 50.228C461.211 50.228 460.851 50.372 460.587 50.66C460.335 50.936 460.209 51.464 460.209 52.244ZM465.303 58.904C465.303 58.364 465.375 57.902 465.519 57.518C465.663 57.134 465.855 56.816 466.095 56.564C466.347 56.312 466.641 56.132 466.977 56.024C467.325 55.904 467.697 55.844 468.093 55.844C468.489 55.844 468.855 55.898 469.191 56.006C469.539 56.114 469.833 56.288 470.073 56.528C470.325 56.768 470.523 57.086 470.667 57.482C470.811 57.866 470.883 58.34 470.883 58.904C470.883 59.468 470.811 59.948 470.667 60.344C470.523 60.728 470.325 61.04 470.073 61.28C469.833 61.52 469.539 61.694 469.191 61.802C468.855 61.91 468.489 61.964 468.093 61.964C467.697 61.964 467.325 61.91 466.977 61.802C466.641 61.694 466.347 61.52 466.095 61.28C465.855 61.04 465.663 60.728 465.519 60.344C465.375 59.948 465.303 59.468 465.303 58.904ZM466.635 58.904C466.635 59.624 466.761 60.14 467.013 60.452C467.277 60.764 467.637 60.92 468.093 60.92C468.321 60.92 468.525 60.89 468.705 60.83C468.885 60.758 469.035 60.65 469.155 60.506C469.287 60.35 469.383 60.146 469.443 59.894C469.515 59.63 469.551 59.3 469.551 58.904C469.551 58.508 469.515 58.184 469.443 57.932C469.383 57.668 469.287 57.464 469.155 57.32C469.035 57.164 468.885 57.056 468.705 56.996C468.525 56.924 468.321 56.888 468.093 56.888C467.637 56.888 467.277 57.032 467.013 57.32C466.761 57.596 466.635 58.124 466.635 58.904ZM469.083 49.166L469.965 49.85L460.731 62.216L459.831 61.514L469.083 49.166Z" fill="#2D2D2D"/>
<path d="M439.944 132.668H442.464V123.956L442.644 122.894L441.924 123.74L439.944 125.162L439.26 124.244L443.22 121.184H443.868V132.668H446.334V134H439.944V132.668ZM452.643 132.956C453.471 132.956 454.155 132.716 454.695 132.236C455.235 131.756 455.505 131.06 455.505 130.148C455.505 129.272 455.235 128.618 454.695 128.186C454.167 127.754 453.435 127.538 452.499 127.538L450.987 127.628V121.4H456.603V122.732H452.337V126.314L453.111 126.278C454.299 126.29 455.235 126.62 455.919 127.268C456.603 127.916 456.945 128.846 456.945 130.058C456.945 130.73 456.831 131.33 456.603 131.858C456.375 132.374 456.063 132.806 455.667 133.154C455.283 133.502 454.827 133.766 454.299 133.946C453.771 134.126 453.207 134.216 452.607 134.216C452.067 134.216 451.611 134.186 451.239 134.126C450.867 134.066 450.519 133.976 450.195 133.856L450.573 132.632C450.849 132.74 451.143 132.824 451.455 132.884C451.779 132.932 452.175 132.956 452.643 132.956ZM460.877 124.244C460.877 123.704 460.949 123.242 461.093 122.858C461.237 122.474 461.429 122.156 461.669 121.904C461.921 121.652 462.215 121.472 462.551 121.364C462.899 121.244 463.271 121.184 463.667 121.184C464.063 121.184 464.429 121.238 464.765 121.346C465.113 121.454 465.407 121.628 465.647 121.868C465.899 122.108 466.097 122.426 466.241 122.822C466.385 123.206 466.457 123.68 466.457 124.244C466.457 124.808 466.385 125.288 466.241 125.684C466.097 126.068 465.899 126.38 465.647 126.62C465.407 126.86 465.113 127.034 464.765 127.142C464.429 127.25 464.063 127.304 463.667 127.304C463.271 127.304 462.899 127.25 462.551 127.142C462.215 127.034 461.921 126.86 461.669 126.62C461.429 126.38 461.237 126.068 461.093 125.684C460.949 125.288 460.877 124.808 460.877 124.244ZM462.209 124.244C462.209 124.964 462.335 125.48 462.587 125.792C462.851 126.104 463.211 126.26 463.667 126.26C463.895 126.26 464.099 126.23 464.279 126.17C464.459 126.098 464.609 125.99 464.729 125.846C464.861 125.69 464.957 125.486 465.017 125.234C465.089 124.97 465.125 124.64 465.125 124.244C465.125 123.848 465.089 123.524 465.017 123.272C464.957 123.008 464.861 122.804 464.729 122.66C464.609 122.504 464.459 122.396 464.279 122.336C464.099 122.264 463.895 122.228 463.667 122.228C463.211 122.228 462.851 122.372 462.587 122.66C462.335 122.936 462.209 123.464 462.209 124.244ZM467.303 130.904C467.303 130.364 467.375 129.902 467.519 129.518C467.663 129.134 467.855 128.816 468.095 128.564C468.347 128.312 468.641 128.132 468.977 128.024C469.325 127.904 469.697 127.844 470.093 127.844C470.489 127.844 470.855 127.898 471.191 128.006C471.539 128.114 471.833 128.288 472.073 128.528C472.325 128.768 472.523 129.086 472.667 129.482C472.811 129.866 472.883 130.34 472.883 130.904C472.883 131.468 472.811 131.948 472.667 132.344C472.523 132.728 472.325 133.04 472.073 133.28C471.833 133.52 471.539 133.694 471.191 133.802C470.855 133.91 470.489 133.964 470.093 133.964C469.697 133.964 469.325 133.91 468.977 133.802C468.641 133.694 468.347 133.52 468.095 133.28C467.855 133.04 467.663 132.728 467.519 132.344C467.375 131.948 467.303 131.468 467.303 130.904ZM468.635 130.904C468.635 131.624 468.761 132.14 469.013 132.452C469.277 132.764 469.637 132.92 470.093 132.92C470.321 132.92 470.525 132.89 470.705 132.83C470.885 132.758 471.035 132.65 471.155 132.506C471.287 132.35 471.383 132.146 471.443 131.894C471.515 131.63 471.551 131.3 471.551 130.904C471.551 130.508 471.515 130.184 471.443 129.932C471.383 129.668 471.287 129.464 471.155 129.32C471.035 129.164 470.885 129.056 470.705 128.996C470.525 128.924 470.321 128.888 470.093 128.888C469.637 128.888 469.277 129.032 469.013 129.32C468.761 129.596 468.635 130.124 468.635 130.904ZM471.083 121.166L471.965 121.85L462.731 134.216L461.831 133.514L471.083 121.166Z" fill="#2D2D2D"/>
<path d="M438.944 204.668H441.464V195.956L441.644 194.894L440.924 195.74L438.944 197.162L438.26 196.244L442.22 193.184H442.868V204.668H445.334V206H438.944V204.668ZM448.583 199.7C448.583 197.54 448.931 195.914 449.627 194.822C450.335 193.73 451.361 193.184 452.705 193.184C454.157 193.184 455.207 193.724 455.855 194.804C456.515 195.872 456.845 197.504 456.845 199.7C456.845 201.86 456.491 203.486 455.783 204.578C455.087 205.67 454.061 206.216 452.705 206.216C451.277 206.216 450.233 205.646 449.573 204.506C448.913 203.366 448.583 201.764 448.583 199.7ZM450.077 199.7C450.077 200.48 450.125 201.194 450.221 201.842C450.329 202.478 450.491 203.03 450.707 203.498C450.923 203.954 451.193 204.314 451.517 204.578C451.853 204.83 452.249 204.956 452.705 204.956C453.617 204.956 454.283 204.536 454.703 203.696C455.135 202.844 455.351 201.512 455.351 199.7C455.351 198.932 455.303 198.224 455.207 197.576C455.123 196.928 454.973 196.37 454.757 195.902C454.553 195.434 454.283 195.074 453.947 194.822C453.611 194.57 453.197 194.444 452.705 194.444C451.805 194.444 451.139 194.87 450.707 195.722C450.287 196.574 450.077 197.9 450.077 199.7ZM459.877 196.244C459.877 195.704 459.949 195.242 460.093 194.858C460.237 194.474 460.429 194.156 460.669 193.904C460.921 193.652 461.215 193.472 461.551 193.364C461.899 193.244 462.271 193.184 462.667 193.184C463.063 193.184 463.429 193.238 463.765 193.346C464.113 193.454 464.407 193.628 464.647 193.868C464.899 194.108 465.097 194.426 465.241 194.822C465.385 195.206 465.457 195.68 465.457 196.244C465.457 196.808 465.385 197.288 465.241 197.684C465.097 198.068 464.899 198.38 464.647 198.62C464.407 198.86 464.113 199.034 463.765 199.142C463.429 199.25 463.063 199.304 462.667 199.304C462.271 199.304 461.899 199.25 461.551 199.142C461.215 199.034 460.921 198.86 460.669 198.62C460.429 198.38 460.237 198.068 460.093 197.684C459.949 197.288 459.877 196.808 459.877 196.244ZM461.209 196.244C461.209 196.964 461.335 197.48 461.587 197.792C461.851 198.104 462.211 198.26 462.667 198.26C462.895 198.26 463.099 198.23 463.279 198.17C463.459 198.098 463.609 197.99 463.729 197.846C463.861 197.69 463.957 197.486 464.017 197.234C464.089 196.97 464.125 196.64 464.125 196.244C464.125 195.848 464.089 195.524 464.017 195.272C463.957 195.008 463.861 194.804 463.729 194.66C463.609 194.504 463.459 194.396 463.279 194.336C463.099 194.264 462.895 194.228 462.667 194.228C462.211 194.228 461.851 194.372 461.587 194.66C461.335 194.936 461.209 195.464 461.209 196.244ZM466.303 202.904C466.303 202.364 466.375 201.902 466.519 201.518C466.663 201.134 466.855 200.816 467.095 200.564C467.347 200.312 467.641 200.132 467.977 200.024C468.325 199.904 468.697 199.844 469.093 199.844C469.489 199.844 469.855 199.898 470.191 200.006C470.539 200.114 470.833 200.288 471.073 200.528C471.325 200.768 471.523 201.086 471.667 201.482C471.811 201.866 471.883 202.34 471.883 202.904C471.883 203.468 471.811 203.948 471.667 204.344C471.523 204.728 471.325 205.04 471.073 205.28C470.833 205.52 470.539 205.694 470.191 205.802C469.855 205.91 469.489 205.964 469.093 205.964C468.697 205.964 468.325 205.91 467.977 205.802C467.641 205.694 467.347 205.52 467.095 205.28C466.855 205.04 466.663 204.728 466.519 204.344C466.375 203.948 466.303 203.468 466.303 202.904ZM467.635 202.904C467.635 203.624 467.761 204.14 468.013 204.452C468.277 204.764 468.637 204.92 469.093 204.92C469.321 204.92 469.525 204.89 469.705 204.83C469.885 204.758 470.035 204.65 470.155 204.506C470.287 204.35 470.383 204.146 470.443 203.894C470.515 203.63 470.551 203.3 470.551 202.904C470.551 202.508 470.515 202.184 470.443 201.932C470.383 201.668 470.287 201.464 470.155 201.32C470.035 201.164 469.885 201.056 469.705 200.996C469.525 200.924 469.321 200.888 469.093 200.888C468.637 200.888 468.277 201.032 468.013 201.32C467.761 201.596 467.635 202.124 467.635 202.904ZM470.083 193.166L470.965 193.85L461.731 206.216L460.831 205.514L470.083 193.166Z" fill="#2D2D2D"/>
<path d="M450.834 276.956C451.662 276.956 452.346 276.716 452.886 276.236C453.426 275.756 453.696 275.06 453.696 274.148C453.696 273.272 453.426 272.618 452.886 272.186C452.358 271.754 451.626 271.538 450.69 271.538L449.178 271.628V265.4H454.794V266.732H450.528V270.314L451.302 270.278C452.49 270.29 453.426 270.62 454.11 271.268C454.794 271.916 455.136 272.846 455.136 274.058C455.136 274.73 455.022 275.33 454.794 275.858C454.566 276.374 454.254 276.806 453.858 277.154C453.474 277.502 453.018 277.766 452.49 277.946C451.962 278.126 451.398 278.216 450.798 278.216C450.258 278.216 449.802 278.186 449.43 278.126C449.058 278.066 448.71 277.976 448.386 277.856L448.764 276.632C449.04 276.74 449.334 276.824 449.646 276.884C449.97 276.932 450.366 276.956 450.834 276.956ZM459.069 268.244C459.069 267.704 459.141 267.242 459.285 266.858C459.429 266.474 459.621 266.156 459.861 265.904C460.113 265.652 460.407 265.472 460.743 265.364C461.091 265.244 461.463 265.184 461.859 265.184C462.255 265.184 462.621 265.238 462.957 265.346C463.305 265.454 463.599 265.628 463.839 265.868C464.091 266.108 464.289 266.426 464.433 266.822C464.577 267.206 464.649 267.68 464.649 268.244C464.649 268.808 464.577 269.288 464.433 269.684C464.289 270.068 464.091 270.38 463.839 270.62C463.599 270.86 463.305 271.034 462.957 271.142C462.621 271.25 462.255 271.304 461.859 271.304C461.463 271.304 461.091 271.25 460.743 271.142C460.407 271.034 460.113 270.86 459.861 270.62C459.621 270.38 459.429 270.068 459.285 269.684C459.141 269.288 459.069 268.808 459.069 268.244ZM460.401 268.244C460.401 268.964 460.527 269.48 460.779 269.792C461.043 270.104 461.403 270.26 461.859 270.26C462.087 270.26 462.291 270.23 462.471 270.17C462.651 270.098 462.801 269.99 462.921 269.846C463.053 269.69 463.149 269.486 463.209 269.234C463.281 268.97 463.317 268.64 463.317 268.244C463.317 267.848 463.281 267.524 463.209 267.272C463.149 267.008 463.053 266.804 462.921 266.66C462.801 266.504 462.651 266.396 462.471 266.336C462.291 266.264 462.087 266.228 461.859 266.228C461.403 266.228 461.043 266.372 460.779 266.66C460.527 266.936 460.401 267.464 460.401 268.244ZM465.495 274.904C465.495 274.364 465.567 273.902 465.711 273.518C465.855 273.134 466.047 272.816 466.287 272.564C466.539 272.312 466.833 272.132 467.169 272.024C467.517 271.904 467.889 271.844 468.285 271.844C468.681 271.844 469.047 271.898 469.383 272.006C469.731 272.114 470.025 272.288 470.265 272.528C470.517 272.768 470.715 273.086 470.859 273.482C471.003 273.866 471.075 274.34 471.075 274.904C471.075 275.468 471.003 275.948 470.859 276.344C470.715 276.728 470.517 277.04 470.265 277.28C470.025 277.52 469.731 277.694 469.383 277.802C469.047 277.91 468.681 277.964 468.285 277.964C467.889 277.964 467.517 277.91 467.169 277.802C466.833 277.694 466.539 277.52 466.287 277.28C466.047 277.04 465.855 276.728 465.711 276.344C465.567 275.948 465.495 275.468 465.495 274.904ZM466.827 274.904C466.827 275.624 466.953 276.14 467.205 276.452C467.469 276.764 467.829 276.92 468.285 276.92C468.513 276.92 468.717 276.89 468.897 276.83C469.077 276.758 469.227 276.65 469.347 276.506C469.479 276.35 469.575 276.146 469.635 275.894C469.707 275.63 469.743 275.3 469.743 274.904C469.743 274.508 469.707 274.184 469.635 273.932C469.575 273.668 469.479 273.464 469.347 273.32C469.227 273.164 469.077 273.056 468.897 272.996C468.717 272.924 468.513 272.888 468.285 272.888C467.829 272.888 467.469 273.032 467.205 273.32C466.953 273.596 466.827 274.124 466.827 274.904ZM469.275 265.166L470.157 265.85L460.923 278.216L460.023 277.514L469.275 265.166Z" fill="#2D2D2D"/>
</svg>
