<svg width="78" height="78" viewBox="0 0 78 78" fill="none" xmlns="http://www.w3.org/2000/svg">
<path d="M65.3083 77.9124H12.6917C9.32592 77.9116 6.09823 76.5742 3.71825 74.1942C1.33828 71.8142 0.00084398 68.5865 0 65.2207V12.6901C0.00126592 9.3246 1.33888 6.09732 3.71881 3.71768C6.09874 1.33805 9.3262 0.000843779 12.6917 0H65.2223C68.5881 0.00084398 71.8158 1.33827 74.1958 3.71825C76.5758 6.09822 77.9132 9.32592 77.914 12.6917V65.2223C77.9233 66.8843 77.6041 68.5317 76.9749 70.07C76.3457 71.6083 75.4189 73.0072 74.2476 74.1863C73.0763 75.3654 71.6837 76.3016 70.1496 76.941C68.6155 77.5805 66.9703 77.9106 65.3083 77.9124Z" fill="url(#paint0_linear_135_2590)"/>
<path d="M0.088889 30.9358V15.8642C0.088889 15.8642 -0.175355 1.67461 15.9531 0H36.4003C36.3127 0 8.28526 5.90571 0.088889 30.9358Z" fill="url(#paint1_linear_135_2590)"/>
<path opacity="0.76" d="M77.9125 15.8643V62.1358C77.9125 62.1358 78 75.9736 63.6337 77.9125L15.8643 78C15.8643 77.9125 60.2845 50.942 77.9125 15.8643Z" fill="url(#paint2_linear_135_2590)"/>
<g opacity="0.22">
<path opacity="0.22" d="M52.4413 56.6709H38.9568C35.5683 56.6683 32.3194 55.3211 29.9233 52.9251C27.5273 50.5291 26.1801 47.2801 26.1776 43.8916C26.1751 41.934 26.628 40.0026 27.5004 38.2501L33.9282 25.3833C35.1514 22.8763 37.1481 20.829 39.6237 19.5435C42.0993 18.258 44.9226 17.8024 47.6769 18.2439C47.7874 18.2668 47.9015 18.2663 48.0118 18.2425C48.1222 18.2187 48.2263 18.1721 48.3176 18.1057C48.4088 18.0393 48.4852 17.9546 48.5418 17.8569C48.5984 17.7593 48.6341 17.6509 48.6464 17.5387C48.6872 17.3634 48.6655 17.1793 48.585 17.0182C48.5045 16.8572 48.3702 16.7294 48.2054 16.6569C46.2561 15.4693 44.0918 14.6778 41.8364 14.3274C39.5809 13.977 37.2785 14.0747 35.0608 14.615C32.8431 15.1552 30.7537 16.1273 28.912 17.4758C27.0704 18.8242 25.5126 20.5225 24.3279 22.4734C24.0588 22.8954 23.823 23.3377 23.6227 23.7963L15.1605 40.8066C13.8762 43.3774 13.2699 46.2336 13.3988 49.1044C13.5278 51.9752 14.3878 54.7655 15.8974 57.2108C17.4069 59.6561 19.516 61.6753 22.0246 63.0771C24.5332 64.4788 27.3583 65.2167 30.232 65.2206H48.0351C51.9405 65.2229 55.7259 63.8716 58.747 61.3968C61.7681 58.9219 63.8381 55.4765 64.6045 51.647C64.6327 51.426 64.5754 51.2025 64.4443 51.0224C64.3133 50.8422 64.1183 50.7188 63.8993 50.6776C63.734 50.6401 63.5612 50.6536 63.4037 50.7164C63.2462 50.7792 63.1115 50.8884 63.0175 51.0294C61.8579 52.7704 60.2851 54.1969 58.4395 55.1814C56.5938 56.1658 54.533 56.6776 52.4413 56.6709Z" fill="black"/>
<path opacity="0.22" d="M38.8672 29.4361L34.5486 38.2501C33.8928 39.5777 33.5879 41.051 33.6627 42.5298C33.7375 44.0086 34.1897 45.4436 34.9761 46.6982C35.7624 47.9528 36.8569 48.9852 38.1552 49.6971C39.4536 50.409 40.9125 50.7767 42.3932 50.7651H51.559C53.0418 50.7576 54.4986 50.3743 55.7931 49.6509C57.0875 48.9275 58.1775 47.8878 58.9611 46.6288C59.7446 45.3698 60.1962 43.9328 60.2736 42.4519C60.3509 40.971 60.0516 39.4947 59.4035 38.161L54.9973 29.347C53.9416 27.2235 52.0876 25.6047 49.8412 24.8448C47.5948 24.085 45.1388 24.246 43.0108 25.2926C41.2238 26.1975 39.7722 27.6491 38.8672 29.4361Z" fill="black"/>
</g>
<path d="M52.4413 55.3496H38.9568C35.5683 55.347 32.3194 53.9999 29.9233 51.6038C27.5273 49.2078 26.1801 45.9588 26.1776 42.5703C26.1751 40.6127 26.628 38.6813 27.5004 36.9288L33.9282 24.062C35.1514 21.555 37.1481 19.5077 39.6237 18.2222C42.0993 16.9367 44.9226 16.4811 47.6769 16.9226C47.7874 16.9455 47.9015 16.945 48.0118 16.9212C48.1222 16.8974 48.2263 16.8508 48.3176 16.7844C48.4088 16.718 48.4852 16.6333 48.5418 16.5357C48.5984 16.438 48.6341 16.3296 48.6464 16.2175C48.6872 16.0421 48.6655 15.858 48.585 15.697C48.5045 15.5359 48.3702 15.4081 48.2054 15.3356C46.2561 14.148 44.0918 13.3565 41.8364 13.0061C39.5809 12.6557 37.2785 12.7535 35.0608 13.2937C32.8431 13.8339 30.7537 14.806 28.912 16.1545C27.0704 17.5029 25.5126 19.2012 24.3279 21.1522C24.0588 21.5741 23.823 22.0164 23.6227 22.475L15.1605 39.5729C13.8762 42.1437 13.2699 44.9998 13.3988 47.8706C13.5278 50.7414 14.3878 53.5317 15.8974 55.977C17.4069 58.4223 19.516 60.4415 22.0246 61.8433C24.5332 63.2451 27.3583 63.9829 30.232 63.9869H48.0351C51.9405 63.9892 55.7259 62.6379 58.747 60.163C61.7681 57.6882 63.8381 54.2427 64.6045 50.4133C64.6327 50.1923 64.5754 49.9688 64.4443 49.7886C64.3133 49.6084 64.1183 49.4851 63.8993 49.4439C63.734 49.4063 63.5612 49.4199 63.4037 49.4827C63.2462 49.5455 63.1115 49.6546 63.0175 49.7957C61.8393 51.5118 60.2602 52.9146 58.4172 53.8824C56.5742 54.8503 54.5229 55.3539 52.4413 55.3496Z" fill="#FCFDFF" stroke="#FCFDFF" stroke-width="0.815" stroke-miterlimit="10"/>
<path d="M38.8672 28.1148L34.5486 36.9288C33.8928 38.2564 33.5879 39.7297 33.6627 41.2085C33.7375 42.6873 34.1897 44.1223 34.9761 45.3769C35.7624 46.6315 36.8569 47.6639 38.1552 48.3758C39.4536 49.0877 40.9125 49.4554 42.3932 49.4438H51.559C53.0418 49.4363 54.4986 49.053 55.7931 48.3296C57.0875 47.6062 58.1775 46.5665 58.9611 45.3075C59.7446 44.0486 60.1962 42.6115 60.2736 41.1306C60.3509 39.6498 60.0516 38.1735 59.4035 36.8397L54.9973 28.0257C53.9416 25.9022 52.0876 24.2834 49.8412 23.5235C47.5948 22.7637 45.1388 22.9247 43.0108 23.9713C41.2609 24.9267 39.8226 26.365 38.8672 28.1148Z" fill="#FCFDFF" stroke="#FCFDFF" stroke-width="0.815" stroke-miterlimit="10"/>
<defs>
<linearGradient id="paint0_linear_135_2590" x1="12.9338" y1="401.717" x2="54.6947" y2="351.696" gradientUnits="userSpaceOnUse">
<stop offset="0.001" stop-color="#FA9138"/>
<stop offset="1" stop-color="#F75C26"/>
</linearGradient>
<linearGradient id="paint1_linear_135_2590" x1="17.954" y1="406.403" x2="18.402" y2="374.722" gradientUnits="userSpaceOnUse">
<stop offset="0.001" stop-color="#FA9138"/>
<stop offset="1" stop-color="#F75C26"/>
</linearGradient>
<linearGradient id="paint2_linear_135_2590" x1="46.392" y1="386.815" x2="47.6364" y2="322.939" gradientUnits="userSpaceOnUse">
<stop offset="0.001" stop-color="#FA9138"/>
<stop offset="1" stop-color="#F75C26"/>
</linearGradient>
</defs>
</svg>
