<svg width="179" height="179" viewBox="0 0 179 179" fill="none" xmlns="http://www.w3.org/2000/svg">
<path d="M81.2205 167.593H22.375V149.822V160.22H67.0026C108.581 160.22 142.407 126.394 142.407 84.8125C142.407 71.4085 138.888 58.8114 132.728 47.8956C146.405 60.5776 154.978 78.6915 154.978 98.7672C154.978 104.516 154.265 110.097 152.938 115.44C155.302 108.17 156.604 100.421 156.625 92.376C156.521 133.871 122.736 167.593 81.2205 167.593ZM156.625 92.376C156.625 92.3465 156.625 92.3188 156.625 92.2894C156.625 92.3171 156.625 92.3483 156.625 92.376ZM138.854 92.1214C138.854 92.1145 138.854 92.1128 138.854 92.1059C138.854 92.1111 138.854 92.1162 138.854 92.1214ZM138.854 92.0418C138.854 92.0401 138.854 92.0349 138.854 92.0331C138.854 92.0349 138.854 92.0383 138.854 92.0418ZM138.854 91.8964C138.854 91.8929 138.854 91.8877 138.854 91.8842C138.854 91.8894 138.854 91.8929 138.854 91.8964ZM138.852 91.673C138.852 91.6695 138.852 91.673 138.852 91.6713V91.673ZM138.85 91.6054C138.85 91.602 138.85 91.5985 138.85 91.5934C138.85 91.5968 138.85 91.602 138.85 91.6054ZM138.85 91.5275C138.85 91.5241 138.85 91.5241 138.85 91.5223C138.85 91.5223 138.85 91.5258 138.85 91.5275ZM138.849 91.4531C138.849 91.4514 138.849 91.4531 138.849 91.4514V91.4531ZM138.847 91.2349C138.847 91.2332 138.847 91.2314 138.847 91.2297C138.847 91.2314 138.847 91.2315 138.847 91.2349ZM100.254 37.7833C94.2937 35.6916 87.887 34.5539 81.2205 34.5539C80.0534 34.5539 78.9036 34.6128 77.7608 34.7098H39.1054C49.5484 23.9256 64.0347 17.0894 80.1278 16.7916C68.1004 17.0132 56.9716 20.8902 47.7563 27.3368H47.777C46.7572 28.0502 45.7615 28.7947 44.7901 29.5687H81.423C81.9546 29.5237 82.4897 29.4856 83.0247 29.4545C89.267 31.2691 95.073 34.1107 100.254 37.7833ZM80.1296 16.7916C80.1763 16.7916 80.2248 16.7898 80.2716 16.7898C80.2231 16.7898 80.1781 16.7916 80.1296 16.7916ZM80.5711 16.7864C80.6144 16.7846 80.6594 16.7846 80.7045 16.7846C80.6923 16.7846 80.6767 16.7846 80.6646 16.7846C80.6611 16.7846 80.656 16.7846 80.6525 16.7846C80.6248 16.7846 80.5971 16.7846 80.5711 16.7864ZM80.7166 16.7846C80.7373 16.7829 80.7616 16.7829 80.7824 16.7829C80.772 16.7829 80.7598 16.7829 80.7495 16.7829C80.7425 16.7829 80.7356 16.7829 80.7287 16.7846C80.7252 16.7846 80.72 16.7846 80.7166 16.7846ZM80.7824 16.7829C80.7945 16.7829 80.8031 16.7829 80.8135 16.7829C80.8101 16.7829 80.8083 16.7829 80.8049 16.7829C80.798 16.7829 80.791 16.7829 80.7824 16.7829ZM80.8187 16.7829C80.8291 16.7829 80.8378 16.7829 80.8482 16.7829C80.8412 16.7829 80.8361 16.7829 80.8309 16.7829C80.8274 16.7829 80.8222 16.7829 80.8187 16.7829ZM80.8637 16.7829C80.8759 16.7829 80.8845 16.7829 80.8949 16.7829C80.8915 16.7829 80.888 16.7829 80.8828 16.7829C80.8776 16.7829 80.8707 16.7829 80.8637 16.7829ZM80.9001 16.7829C80.9313 16.7829 80.9624 16.7829 80.9936 16.7829C80.9919 16.7829 80.9901 16.7829 80.9884 16.7829C80.978 16.7829 80.9694 16.7829 80.959 16.7829C80.9417 16.7829 80.9261 16.7829 80.9088 16.7829C80.9053 16.7829 80.9036 16.7829 80.9001 16.7829ZM81.0092 16.7829C81.0248 16.7829 81.0369 16.7829 81.0525 16.7829C81.0473 16.7829 81.0438 16.7829 81.0386 16.7829C81.0282 16.7829 81.0196 16.7829 81.0092 16.7829ZM81.0629 16.7829C81.0871 16.7829 81.1114 16.7829 81.1356 16.7829C81.1304 16.7829 81.1235 16.7829 81.12 16.7829C81.101 16.7829 81.0837 16.7829 81.0663 16.7829C81.0646 16.7829 81.0646 16.7829 81.0629 16.7829Z" fill="black"/>
<path d="M81.2205 167.593H22.375V149.822V160.22H67.0026C108.581 160.22 142.407 126.394 142.407 84.8125C142.407 71.4085 138.888 58.8114 132.728 47.8956C146.405 60.5776 154.978 78.6915 154.978 98.7672C154.978 104.516 154.265 110.097 152.938 115.44C155.302 108.17 156.604 100.421 156.625 92.376C156.521 133.871 122.736 167.593 81.2205 167.593ZM156.625 92.376C156.625 92.3465 156.625 92.3188 156.625 92.2894C156.625 92.3171 156.625 92.3483 156.625 92.376ZM138.854 92.1214C138.854 92.1145 138.854 92.1128 138.854 92.1059C138.854 92.1111 138.854 92.1162 138.854 92.1214ZM138.854 92.0418C138.854 92.0401 138.854 92.0349 138.854 92.0331C138.854 92.0349 138.854 92.0383 138.854 92.0418ZM138.854 91.8964C138.854 91.8929 138.854 91.8877 138.854 91.8842C138.854 91.8894 138.854 91.8929 138.854 91.8964ZM138.852 91.673C138.852 91.6695 138.852 91.673 138.852 91.6713V91.673ZM138.85 91.6054C138.85 91.602 138.85 91.5985 138.85 91.5934C138.85 91.5968 138.85 91.602 138.85 91.6054ZM138.85 91.5275C138.85 91.5241 138.85 91.5241 138.85 91.5223C138.85 91.5223 138.85 91.5258 138.85 91.5275ZM138.849 91.4531C138.849 91.4514 138.849 91.4531 138.849 91.4514V91.4531ZM138.847 91.2349C138.847 91.2332 138.847 91.2314 138.847 91.2297C138.847 91.2314 138.847 91.2315 138.847 91.2349ZM100.254 37.7833C94.2937 35.6916 87.887 34.5539 81.2205 34.5539C80.0534 34.5539 78.9036 34.6128 77.7608 34.7098H39.1054C49.5484 23.9256 64.0347 17.0894 80.1278 16.7916C68.1004 17.0132 56.9716 20.8902 47.7563 27.3368H47.777C46.7572 28.0502 45.7615 28.7947 44.7901 29.5687H81.423C81.9546 29.5237 82.4897 29.4856 83.0247 29.4545C89.267 31.2691 95.073 34.1107 100.254 37.7833ZM80.1296 16.7916C80.1763 16.7916 80.2248 16.7898 80.2716 16.7898C80.2231 16.7898 80.1781 16.7916 80.1296 16.7916ZM80.5711 16.7864C80.6144 16.7846 80.6594 16.7846 80.7045 16.7846C80.6923 16.7846 80.6767 16.7846 80.6646 16.7846C80.6611 16.7846 80.656 16.7846 80.6525 16.7846C80.6248 16.7846 80.5971 16.7846 80.5711 16.7864ZM80.7166 16.7846C80.7373 16.7829 80.7616 16.7829 80.7824 16.7829C80.772 16.7829 80.7598 16.7829 80.7495 16.7829C80.7425 16.7829 80.7356 16.7829 80.7287 16.7846C80.7252 16.7846 80.72 16.7846 80.7166 16.7846ZM80.7824 16.7829C80.7945 16.7829 80.8031 16.7829 80.8135 16.7829C80.8101 16.7829 80.8083 16.7829 80.8049 16.7829C80.798 16.7829 80.791 16.7829 80.7824 16.7829ZM80.8187 16.7829C80.8291 16.7829 80.8378 16.7829 80.8482 16.7829C80.8412 16.7829 80.8361 16.7829 80.8309 16.7829C80.8274 16.7829 80.8222 16.7829 80.8187 16.7829ZM80.8637 16.7829C80.8759 16.7829 80.8845 16.7829 80.8949 16.7829C80.8915 16.7829 80.888 16.7829 80.8828 16.7829C80.8776 16.7829 80.8707 16.7829 80.8637 16.7829ZM80.9001 16.7829C80.9313 16.7829 80.9624 16.7829 80.9936 16.7829C80.9919 16.7829 80.9901 16.7829 80.9884 16.7829C80.978 16.7829 80.9694 16.7829 80.959 16.7829C80.9417 16.7829 80.9261 16.7829 80.9088 16.7829C80.9053 16.7829 80.9036 16.7829 80.9001 16.7829ZM81.0092 16.7829C81.0248 16.7829 81.0369 16.7829 81.0525 16.7829C81.0473 16.7829 81.0438 16.7829 81.0386 16.7829C81.0282 16.7829 81.0196 16.7829 81.0092 16.7829ZM81.0629 16.7829C81.0871 16.7829 81.1114 16.7829 81.1356 16.7829C81.1304 16.7829 81.1235 16.7829 81.12 16.7829C81.101 16.7829 81.0837 16.7829 81.0663 16.7829C81.0646 16.7829 81.0646 16.7829 81.0629 16.7829Z" fill="url(#paint0_linear_655_4366)"/>
<path d="M138.854 92.0331C138.854 92.0124 138.854 91.9933 138.854 91.9726C138.854 91.9951 138.854 92.0106 138.854 92.0331ZM138.854 91.8842C138.854 91.8635 138.854 91.8427 138.852 91.8202C138.854 91.8409 138.854 91.8635 138.854 91.8842ZM138.852 91.8184C138.852 91.7959 138.852 91.7752 138.852 91.7509C138.852 91.7752 138.852 91.7942 138.852 91.8184ZM138.852 91.7388C138.852 91.7163 138.852 91.6955 138.852 91.673C138.852 91.6938 138.852 91.718 138.852 91.7388ZM138.852 91.6713C138.852 91.6488 138.852 91.628 138.85 91.6054C138.852 91.6262 138.852 91.6505 138.852 91.6713ZM138.85 91.5934C138.85 91.5708 138.85 91.55 138.85 91.5275C138.85 91.5483 138.85 91.5726 138.85 91.5934ZM138.847 91.2297C138.845 91.1812 138.845 91.1335 138.844 91.0868C138.845 91.1353 138.845 91.1812 138.847 91.2297ZM138.844 91.0868C138.844 91.0625 138.843 91.0375 138.842 91.0133C138.843 91.0358 138.844 91.0625 138.844 91.0868ZM138.842 91.0115C138.348 66.4268 122.371 45.5744 100.289 37.8083C100.277 37.8014 100.266 37.7928 100.254 37.7841C122.359 45.5415 138.348 66.4112 138.842 91.0115ZM80.1282 16.7924H80.1299C80.1299 16.7924 80.1299 16.7924 80.1282 16.7924ZM80.2719 16.7906C80.2736 16.7906 80.2771 16.7906 80.2771 16.7906C80.2753 16.7906 80.2736 16.7906 80.2719 16.7906ZM80.5593 16.7872C80.5645 16.7872 80.5662 16.7872 80.5714 16.7872C80.568 16.7872 80.5628 16.7872 80.5593 16.7872ZM80.7048 16.7854C80.71 16.7854 80.7134 16.7854 80.7169 16.7854C80.7117 16.7854 80.71 16.7854 80.7048 16.7854ZM81.4493 16.7837C81.4459 16.7837 81.4407 16.7837 81.439 16.7837C81.4424 16.7837 81.4459 16.7837 81.4493 16.7837ZM81.3368 16.7837C81.3264 16.7837 81.3108 16.7837 81.3004 16.7837C81.3125 16.7837 81.3247 16.7837 81.3368 16.7837ZM81.1428 16.7837C81.148 16.7837 81.1515 16.7837 81.155 16.7837C81.1532 16.7837 81.148 16.7837 81.1463 16.7837C81.1446 16.7837 81.1446 16.7837 81.1428 16.7837ZM81.2796 16.7837C81.2589 16.7837 81.2416 16.7837 81.2208 16.7837C81.2398 16.7837 81.2606 16.7837 81.2796 16.7837Z" fill="black"/>
<path d="M138.854 92.0331C138.854 92.0124 138.854 91.9933 138.854 91.9726C138.854 91.9951 138.854 92.0106 138.854 92.0331ZM138.854 91.8842C138.854 91.8635 138.854 91.8427 138.852 91.8202C138.854 91.8409 138.854 91.8635 138.854 91.8842ZM138.852 91.8184C138.852 91.7959 138.852 91.7752 138.852 91.7509C138.852 91.7752 138.852 91.7942 138.852 91.8184ZM138.852 91.7388C138.852 91.7163 138.852 91.6955 138.852 91.673C138.852 91.6938 138.852 91.718 138.852 91.7388ZM138.852 91.6713C138.852 91.6488 138.852 91.628 138.85 91.6054C138.852 91.6262 138.852 91.6505 138.852 91.6713ZM138.85 91.5934C138.85 91.5708 138.85 91.55 138.85 91.5275C138.85 91.5483 138.85 91.5726 138.85 91.5934ZM138.847 91.2297C138.845 91.1812 138.845 91.1335 138.844 91.0868C138.845 91.1353 138.845 91.1812 138.847 91.2297ZM138.844 91.0868C138.844 91.0625 138.843 91.0375 138.842 91.0133C138.843 91.0358 138.844 91.0625 138.844 91.0868ZM138.842 91.0115C138.348 66.4268 122.371 45.5744 100.289 37.8083C100.277 37.8014 100.266 37.7928 100.254 37.7841C122.359 45.5415 138.348 66.4112 138.842 91.0115ZM80.1282 16.7924H80.1299C80.1299 16.7924 80.1299 16.7924 80.1282 16.7924ZM80.2719 16.7906C80.2736 16.7906 80.2771 16.7906 80.2771 16.7906C80.2753 16.7906 80.2736 16.7906 80.2719 16.7906ZM80.5593 16.7872C80.5645 16.7872 80.5662 16.7872 80.5714 16.7872C80.568 16.7872 80.5628 16.7872 80.5593 16.7872ZM80.7048 16.7854C80.71 16.7854 80.7134 16.7854 80.7169 16.7854C80.7117 16.7854 80.71 16.7854 80.7048 16.7854ZM81.4493 16.7837C81.4459 16.7837 81.4407 16.7837 81.439 16.7837C81.4424 16.7837 81.4459 16.7837 81.4493 16.7837ZM81.3368 16.7837C81.3264 16.7837 81.3108 16.7837 81.3004 16.7837C81.3125 16.7837 81.3247 16.7837 81.3368 16.7837ZM81.1428 16.7837C81.148 16.7837 81.1515 16.7837 81.155 16.7837C81.1532 16.7837 81.148 16.7837 81.1463 16.7837C81.1446 16.7837 81.1446 16.7837 81.1428 16.7837ZM81.2796 16.7837C81.2589 16.7837 81.2416 16.7837 81.2208 16.7837C81.2398 16.7837 81.2606 16.7837 81.2796 16.7837Z" fill="url(#paint1_radial_655_4366)"/>
<path d="M67.0026 160.22H22.375V149.822H81.2205C83.4317 149.822 85.6134 149.696 87.7606 149.454C107.113 148.633 123.685 136.931 131.512 120.315C136.187 111.992 138.854 102.396 138.854 92.1863C138.854 92.1656 138.854 92.1422 138.854 92.1214C138.854 92.1162 138.854 92.1111 138.854 92.1059C138.854 92.0851 138.854 92.0626 138.854 92.0418C138.854 92.0383 138.854 92.0349 138.854 92.0331C138.854 92.0106 138.854 91.9951 138.854 91.9726C138.854 91.9691 138.854 91.9656 138.854 91.9622C138.854 91.9396 138.854 91.9189 138.854 91.8964C138.854 91.8929 138.854 91.8894 138.854 91.8842C138.854 91.8635 138.854 91.8409 138.852 91.8202V91.8184C138.852 91.7942 138.852 91.7752 138.852 91.7509C138.852 91.7475 138.852 91.7422 138.852 91.7388C138.852 91.718 138.852 91.6938 138.852 91.673V91.6713C138.852 91.6505 138.852 91.6262 138.85 91.6054C138.85 91.602 138.85 91.5968 138.85 91.5934C138.85 91.5726 138.85 91.5483 138.85 91.5275C138.85 91.5258 138.85 91.5223 138.85 91.5223C138.85 91.4981 138.85 91.4773 138.849 91.4531V91.4514C138.849 91.4288 138.849 91.4046 138.849 91.3821C138.849 91.3786 138.849 91.3769 138.849 91.3752C138.847 91.3284 138.847 91.2817 138.847 91.2349C138.847 91.2315 138.847 91.2314 138.847 91.2297C138.845 91.1812 138.845 91.1353 138.844 91.0868C138.844 91.0625 138.843 91.0358 138.842 91.0133V91.0115C138.348 66.4112 122.359 45.5407 100.254 37.7833C95.073 34.1107 89.267 31.2691 83.0247 29.4545C83.8732 29.406 84.7268 29.3805 85.5874 29.3805C103.771 29.3805 120.342 36.4119 132.728 47.8956C138.888 58.8114 142.407 71.4085 142.407 84.8125C142.407 126.394 108.581 160.22 67.0026 160.22ZM47.777 27.3368H47.7563C56.9716 20.8902 68.1004 17.0132 80.1278 16.7916C80.1296 16.7916 80.1296 16.7916 80.1296 16.7916C80.1781 16.7916 80.2231 16.7898 80.2716 16.7898C80.2733 16.7898 80.275 16.7898 80.2767 16.7898C80.3235 16.7898 80.3685 16.7881 80.4153 16.7881C80.4187 16.7881 80.4222 16.7881 80.4257 16.7881C80.4707 16.7864 80.514 16.7864 80.559 16.7864C80.5625 16.7864 80.5677 16.7864 80.5711 16.7864C80.5971 16.7846 80.6248 16.7846 80.6525 16.7846C68.4294 16.9024 57.1223 20.8018 47.777 27.3368ZM80.6646 16.7846C80.6767 16.7846 80.6923 16.7846 80.7045 16.7846C80.7096 16.7846 80.7114 16.7846 80.7166 16.7846C80.72 16.7846 80.7252 16.7846 80.7287 16.7846C80.7079 16.7846 80.6854 16.7846 80.6646 16.7846ZM80.7495 16.7829C80.7598 16.7829 80.772 16.7829 80.7824 16.7829C80.791 16.7829 80.798 16.7829 80.8049 16.7829C80.7876 16.7829 80.7685 16.7829 80.7495 16.7829ZM80.8309 16.7829C80.8361 16.7829 80.8412 16.7829 80.8482 16.7829C80.8534 16.7829 80.8585 16.7829 80.8637 16.7829C80.8707 16.7829 80.8776 16.7829 80.8828 16.7829C80.8655 16.7829 80.8482 16.7829 80.8309 16.7829ZM80.959 16.7829C80.9417 16.7829 80.9261 16.7829 80.9088 16.7829C80.9261 16.7829 80.9434 16.7829 80.959 16.7829ZM80.9884 16.7829C80.9901 16.7829 80.9919 16.7829 80.9936 16.7829C80.9988 16.7829 81.004 16.7829 81.0092 16.7829C81.0196 16.7829 81.0282 16.7829 81.0386 16.7829C81.0213 16.7829 81.0057 16.7829 80.9884 16.7829ZM81.1463 16.7837C81.148 16.7837 81.1529 16.7829 81.1547 16.7829C81.1772 16.7829 81.1979 16.7829 81.2205 16.7829C81.1962 16.7829 81.1706 16.7837 81.1463 16.7837Z" fill="url(#paint2_linear_655_4366)"/>
<path d="M87.5952 149.46C106.521 147.367 122.711 136.073 131.586 120.162C131.561 120.212 131.537 120.264 131.513 120.314C122.647 136.103 106.561 147.32 87.7615 149.453C87.7061 149.455 87.6506 149.457 87.5952 149.46ZM81.1105 134.331C81.0915 134.331 81.0724 134.331 81.0534 134.331C81.0707 134.331 81.0932 134.331 81.1105 134.331ZM81.0205 134.331C81.0032 134.331 80.9876 134.331 80.9703 134.331C80.9876 134.331 81.0014 134.331 81.0205 134.331ZM80.9339 134.331C80.9183 134.331 80.901 134.331 80.8854 134.331C80.9027 134.331 80.9183 134.331 80.9339 134.331ZM80.8491 134.331C80.8335 134.331 80.8179 134.331 80.8023 134.33C80.8196 134.331 80.8317 134.331 80.8491 134.331ZM80.7642 134.33C80.7486 134.33 80.7348 134.33 80.7192 134.33C80.733 134.33 80.7504 134.33 80.7642 134.33ZM80.6794 134.33C80.6638 134.33 80.6499 134.328 80.6361 134.328C80.6499 134.328 80.6655 134.33 80.6794 134.33ZM80.5963 134.328C80.5807 134.328 80.5668 134.328 80.5512 134.328C80.5668 134.328 80.5824 134.328 80.5963 134.328ZM80.5114 134.328C80.4958 134.328 80.4837 134.328 80.4681 134.326C80.4837 134.328 80.4975 134.328 80.5114 134.328ZM80.4283 134.326C80.4127 134.326 80.3988 134.326 80.385 134.326C80.3988 134.326 80.4144 134.326 80.4283 134.326ZM80.3452 134.325C80.3296 134.325 80.3157 134.325 80.3002 134.325C80.314 134.325 80.3313 134.325 80.3452 134.325ZM80.2621 134.325C80.2482 134.325 80.2309 134.323 80.217 134.323C80.2326 134.325 80.2465 134.325 80.2621 134.325ZM80.0941 134.321C80.0803 134.321 80.0647 134.321 80.0491 134.319C80.0664 134.321 80.0785 134.321 80.0941 134.321ZM79.9279 134.318C79.914 134.318 79.8984 134.318 79.8846 134.316C79.9002 134.318 79.9123 134.318 79.9279 134.318ZM79.7946 134.314C79.7859 134.314 79.7738 134.314 79.7634 134.314C79.7738 134.314 79.7842 134.314 79.7946 134.314ZM79.7166 134.312C79.7045 134.312 79.6924 134.312 79.6803 134.312C79.6924 134.312 79.7028 134.312 79.7166 134.312ZM79.6352 134.311C79.6231 134.311 79.6093 134.309 79.5971 134.309C79.6093 134.309 79.6214 134.311 79.6352 134.311ZM79.5504 134.309C79.5383 134.307 79.5279 134.307 79.5158 134.307C79.5279 134.307 79.5383 134.309 79.5504 134.309ZM79.4673 134.305C79.4552 134.305 79.443 134.305 79.4326 134.305C79.4448 134.305 79.4552 134.305 79.4673 134.305ZM79.301 134.3C79.2889 134.3 79.2785 134.3 79.2664 134.3C79.2768 134.3 79.2906 134.3 79.301 134.3ZM79.1348 134.295C79.1244 134.295 79.114 134.293 79.1037 134.293C79.1123 134.293 79.1262 134.295 79.1348 134.295ZM79.0517 134.292C79.0413 134.292 79.0309 134.292 79.0223 134.292C79.0326 134.292 79.0413 134.292 79.0517 134.292ZM78.8855 134.286C78.8786 134.285 78.8682 134.285 78.8612 134.285C78.8699 134.285 78.8768 134.285 78.8855 134.286ZM78.721 134.28C78.7175 134.278 78.7106 134.278 78.7071 134.278C78.7123 134.278 78.714 134.278 78.721 134.28ZM78.0855 134.248C78.0803 134.248 78.0786 134.248 78.0734 134.248C78.0786 134.248 78.0786 134.248 78.0855 134.248ZM78.0041 134.245C78.0006 134.245 77.9972 134.245 77.992 134.245C77.9972 134.245 77.9989 134.245 78.0041 134.245ZM77.76 134.231C77.7565 134.231 77.7548 134.231 77.7513 134.231C77.753 134.231 77.7582 134.231 77.76 134.231ZM77.6786 134.226C77.6751 134.226 77.6768 134.226 77.6734 134.226C77.6751 134.226 77.6768 134.226 77.6786 134.226ZM156.626 92.2891C156.626 92.2822 156.626 92.2787 156.626 92.2701C156.626 92.277 156.626 92.2822 156.626 92.2891ZM84.6585 68.0593C83.5624 67.9 82.4438 67.8152 81.3045 67.8117C82.4404 67.8152 83.5572 67.8983 84.6533 68.0524C84.655 68.0559 84.6568 68.0559 84.6585 68.0593ZM81.3045 67.8117C81.2924 67.8117 81.2802 67.8117 81.2664 67.8117C81.2785 67.8117 81.2924 67.8117 81.3045 67.8117ZM80.8958 16.7826C80.8976 16.7826 80.8993 16.7826 80.901 16.7826C80.901 16.7826 80.8976 16.7826 80.8958 16.7826ZM81.1365 16.7826C81.1382 16.7826 81.1417 16.7826 81.1434 16.7826H81.1417C81.1382 16.7826 81.1382 16.7826 81.1365 16.7826Z" fill="black"/>
<path d="M87.5952 149.46C106.521 147.367 122.711 136.073 131.586 120.162C131.561 120.212 131.537 120.264 131.513 120.314C122.647 136.103 106.561 147.32 87.7615 149.453C87.7061 149.455 87.6506 149.457 87.5952 149.46ZM81.1105 134.331C81.0915 134.331 81.0724 134.331 81.0534 134.331C81.0707 134.331 81.0932 134.331 81.1105 134.331ZM81.0205 134.331C81.0032 134.331 80.9876 134.331 80.9703 134.331C80.9876 134.331 81.0014 134.331 81.0205 134.331ZM80.9339 134.331C80.9183 134.331 80.901 134.331 80.8854 134.331C80.9027 134.331 80.9183 134.331 80.9339 134.331ZM80.8491 134.331C80.8335 134.331 80.8179 134.331 80.8023 134.33C80.8196 134.331 80.8317 134.331 80.8491 134.331ZM80.7642 134.33C80.7486 134.33 80.7348 134.33 80.7192 134.33C80.733 134.33 80.7504 134.33 80.7642 134.33ZM80.6794 134.33C80.6638 134.33 80.6499 134.328 80.6361 134.328C80.6499 134.328 80.6655 134.33 80.6794 134.33ZM80.5963 134.328C80.5807 134.328 80.5668 134.328 80.5512 134.328C80.5668 134.328 80.5824 134.328 80.5963 134.328ZM80.5114 134.328C80.4958 134.328 80.4837 134.328 80.4681 134.326C80.4837 134.328 80.4975 134.328 80.5114 134.328ZM80.4283 134.326C80.4127 134.326 80.3988 134.326 80.385 134.326C80.3988 134.326 80.4144 134.326 80.4283 134.326ZM80.3452 134.325C80.3296 134.325 80.3157 134.325 80.3002 134.325C80.314 134.325 80.3313 134.325 80.3452 134.325ZM80.2621 134.325C80.2482 134.325 80.2309 134.323 80.217 134.323C80.2326 134.325 80.2465 134.325 80.2621 134.325ZM80.0941 134.321C80.0803 134.321 80.0647 134.321 80.0491 134.319C80.0664 134.321 80.0785 134.321 80.0941 134.321ZM79.9279 134.318C79.914 134.318 79.8984 134.318 79.8846 134.316C79.9002 134.318 79.9123 134.318 79.9279 134.318ZM79.7946 134.314C79.7859 134.314 79.7738 134.314 79.7634 134.314C79.7738 134.314 79.7842 134.314 79.7946 134.314ZM79.7166 134.312C79.7045 134.312 79.6924 134.312 79.6803 134.312C79.6924 134.312 79.7028 134.312 79.7166 134.312ZM79.6352 134.311C79.6231 134.311 79.6093 134.309 79.5971 134.309C79.6093 134.309 79.6214 134.311 79.6352 134.311ZM79.5504 134.309C79.5383 134.307 79.5279 134.307 79.5158 134.307C79.5279 134.307 79.5383 134.309 79.5504 134.309ZM79.4673 134.305C79.4552 134.305 79.443 134.305 79.4326 134.305C79.4448 134.305 79.4552 134.305 79.4673 134.305ZM79.301 134.3C79.2889 134.3 79.2785 134.3 79.2664 134.3C79.2768 134.3 79.2906 134.3 79.301 134.3ZM79.1348 134.295C79.1244 134.295 79.114 134.293 79.1037 134.293C79.1123 134.293 79.1262 134.295 79.1348 134.295ZM79.0517 134.292C79.0413 134.292 79.0309 134.292 79.0223 134.292C79.0326 134.292 79.0413 134.292 79.0517 134.292ZM78.8855 134.286C78.8786 134.285 78.8682 134.285 78.8612 134.285C78.8699 134.285 78.8768 134.285 78.8855 134.286ZM78.721 134.28C78.7175 134.278 78.7106 134.278 78.7071 134.278C78.7123 134.278 78.714 134.278 78.721 134.28ZM78.0855 134.248C78.0803 134.248 78.0786 134.248 78.0734 134.248C78.0786 134.248 78.0786 134.248 78.0855 134.248ZM78.0041 134.245C78.0006 134.245 77.9972 134.245 77.992 134.245C77.9972 134.245 77.9989 134.245 78.0041 134.245ZM77.76 134.231C77.7565 134.231 77.7548 134.231 77.7513 134.231C77.753 134.231 77.7582 134.231 77.76 134.231ZM77.6786 134.226C77.6751 134.226 77.6768 134.226 77.6734 134.226C77.6751 134.226 77.6768 134.226 77.6786 134.226ZM156.626 92.2891C156.626 92.2822 156.626 92.2787 156.626 92.2701C156.626 92.277 156.626 92.2822 156.626 92.2891ZM84.6585 68.0593C83.5624 67.9 82.4438 67.8152 81.3045 67.8117C82.4404 67.8152 83.5572 67.8983 84.6533 68.0524C84.655 68.0559 84.6568 68.0559 84.6585 68.0593ZM81.3045 67.8117C81.2924 67.8117 81.2802 67.8117 81.2664 67.8117C81.2785 67.8117 81.2924 67.8117 81.3045 67.8117ZM80.8958 16.7826C80.8976 16.7826 80.8993 16.7826 80.901 16.7826C80.901 16.7826 80.8976 16.7826 80.8958 16.7826ZM81.1365 16.7826C81.1382 16.7826 81.1417 16.7826 81.1434 16.7826H81.1417C81.1382 16.7826 81.1382 16.7826 81.1365 16.7826Z" fill="white"/>
<path d="M152.942 115.439C154.268 110.095 154.982 104.514 154.982 98.7656C154.982 78.6898 146.409 60.5759 132.731 47.894C126.835 37.444 118.517 28.5334 108.546 21.924C100.15 18.6496 91.0386 16.8159 81.5063 16.7812C122.956 16.9336 156.628 50.7008 156.628 92.1839C156.628 92.2133 156.628 92.241 156.628 92.2687C156.628 92.2774 156.628 92.2808 156.628 92.2878C156.628 92.3172 156.628 92.3449 156.628 92.3743C156.608 100.419 155.305 108.168 152.942 115.439ZM81.4266 29.5671H44.7937C45.7651 28.7931 46.7608 28.0485 47.7806 27.3351H63.5465C64.6876 27.2364 65.8391 27.1793 67.0062 27.1793C72.5645 27.1793 77.941 27.9741 83.0283 29.4528C82.4933 29.484 81.9582 29.5221 81.4266 29.5671ZM80.8085 16.7812C80.8119 16.7812 80.8137 16.7812 80.8171 16.7812C80.8188 16.7812 80.8206 16.7812 80.8223 16.7812C80.8258 16.7812 80.831 16.7812 80.8344 16.7812C80.8258 16.7812 80.8171 16.7812 80.8085 16.7812ZM80.8864 16.7812C80.8916 16.7812 80.8951 16.7812 80.8985 16.7812C80.9002 16.7812 80.9037 16.7812 80.9037 16.7812C80.9072 16.7812 80.9089 16.7812 80.9124 16.7812C80.9037 16.7812 80.895 16.7812 80.8864 16.7812ZM81.0422 16.7812C81.0474 16.7812 81.0509 16.7812 81.0561 16.7812C81.0595 16.7812 81.063 16.7812 81.0665 16.7812C81.0682 16.7812 81.0682 16.7812 81.0699 16.7812C81.0595 16.7812 81.0509 16.7812 81.0422 16.7812ZM81.373 16.7812C81.3626 16.7812 81.3522 16.7812 81.34 16.7812C81.3539 16.7812 81.3608 16.7812 81.373 16.7812ZM81.1236 16.7812C81.1271 16.7812 81.134 16.7812 81.1392 16.7812C81.1409 16.7812 81.1409 16.7812 81.1444 16.7812C81.1375 16.7812 81.1288 16.7812 81.1236 16.7812Z" fill="black"/>
<path d="M152.942 115.439C154.268 110.095 154.982 104.514 154.982 98.7656C154.982 78.6898 146.409 60.5759 132.731 47.894C126.835 37.444 118.517 28.5334 108.546 21.924C100.15 18.6496 91.0386 16.8159 81.5063 16.7812C122.956 16.9336 156.628 50.7008 156.628 92.1839C156.628 92.2133 156.628 92.241 156.628 92.2687C156.628 92.2774 156.628 92.2808 156.628 92.2878C156.628 92.3172 156.628 92.3449 156.628 92.3743C156.608 100.419 155.305 108.168 152.942 115.439ZM81.4266 29.5671H44.7937C45.7651 28.7931 46.7608 28.0485 47.7806 27.3351H63.5465C64.6876 27.2364 65.8391 27.1793 67.0062 27.1793C72.5645 27.1793 77.941 27.9741 83.0283 29.4528C82.4933 29.484 81.9582 29.5221 81.4266 29.5671ZM80.8085 16.7812C80.8119 16.7812 80.8137 16.7812 80.8171 16.7812C80.8188 16.7812 80.8206 16.7812 80.8223 16.7812C80.8258 16.7812 80.831 16.7812 80.8344 16.7812C80.8258 16.7812 80.8171 16.7812 80.8085 16.7812ZM80.8864 16.7812C80.8916 16.7812 80.8951 16.7812 80.8985 16.7812C80.9002 16.7812 80.9037 16.7812 80.9037 16.7812C80.9072 16.7812 80.9089 16.7812 80.9124 16.7812C80.9037 16.7812 80.895 16.7812 80.8864 16.7812ZM81.0422 16.7812C81.0474 16.7812 81.0509 16.7812 81.0561 16.7812C81.0595 16.7812 81.063 16.7812 81.0665 16.7812C81.0682 16.7812 81.0682 16.7812 81.0699 16.7812C81.0595 16.7812 81.0509 16.7812 81.0422 16.7812ZM81.373 16.7812C81.3626 16.7812 81.3522 16.7812 81.34 16.7812C81.3539 16.7812 81.3608 16.7812 81.373 16.7812ZM81.1236 16.7812C81.1271 16.7812 81.134 16.7812 81.1392 16.7812C81.1409 16.7812 81.1409 16.7812 81.1444 16.7812C81.1375 16.7812 81.1288 16.7812 81.1236 16.7812Z" fill="#2668F2"/>
<path d="M87.7598 149.454C106.559 147.321 122.646 136.104 131.512 120.315C123.685 136.931 107.112 148.633 87.7598 149.454ZM132.727 47.8961C120.341 36.4124 103.771 29.3805 85.5874 29.3805C84.7268 29.3805 83.8725 29.4065 83.024 29.4549C77.9367 27.9762 72.5602 27.1814 67.0019 27.1814C65.8348 27.1814 64.6833 27.2385 63.5422 27.3372H47.7763C57.1216 20.8023 68.4287 16.9029 80.6518 16.7851C80.6552 16.7851 80.6604 16.7851 80.6639 16.7851C80.6847 16.7851 80.7072 16.7851 80.7279 16.7851C80.7349 16.7834 80.7418 16.7834 80.7487 16.7834C80.7678 16.7834 80.7868 16.7834 80.8041 16.7834C80.8128 16.7834 80.8215 16.7834 80.8301 16.7834C80.8474 16.7834 80.8647 16.7834 80.882 16.7834C80.8907 16.7834 80.8994 16.7834 80.908 16.7834C80.9253 16.7834 80.9427 16.7834 80.9582 16.7834C80.9686 16.7834 80.9773 16.7834 80.9877 16.7834C81.005 16.7834 81.0206 16.7834 81.0379 16.7834C81.0466 16.7834 81.0552 16.7834 81.0656 16.7834C81.0829 16.7834 81.1002 16.7834 81.1193 16.7834C81.1245 16.7834 81.1331 16.7834 81.14 16.7834C81.1418 16.7834 81.1435 16.7834 81.1453 16.7834C81.1695 16.7834 81.1955 16.7834 81.2197 16.7834C81.2405 16.7834 81.2578 16.7834 81.2786 16.7834C81.2855 16.7834 81.2924 16.7834 81.2994 16.7834C81.3097 16.7834 81.3253 16.7834 81.3357 16.7834C81.3478 16.7834 81.3582 16.7834 81.3686 16.7834C81.3773 16.7834 81.3842 16.7834 81.3929 16.7834C81.4085 16.7834 81.4223 16.7834 81.4379 16.7834C81.4396 16.7834 81.4448 16.7834 81.4483 16.7834C81.4656 16.7834 81.4829 16.7834 81.5002 16.7834L81.5013 16.7837C91.0335 16.8183 100.146 18.6517 108.542 21.9261C118.512 28.5355 126.831 37.4461 132.727 47.8961Z" fill="black"/>
<path d="M87.7598 149.454C106.559 147.321 122.646 136.104 131.512 120.315C123.685 136.931 107.112 148.633 87.7598 149.454ZM132.727 47.8961C120.341 36.4124 103.771 29.3805 85.5874 29.3805C84.7268 29.3805 83.8725 29.4065 83.024 29.4549C77.9367 27.9762 72.5602 27.1814 67.0019 27.1814C65.8348 27.1814 64.6833 27.2385 63.5422 27.3372H47.7763C57.1216 20.8023 68.4287 16.9029 80.6518 16.7851C80.6552 16.7851 80.6604 16.7851 80.6639 16.7851C80.6847 16.7851 80.7072 16.7851 80.7279 16.7851C80.7349 16.7834 80.7418 16.7834 80.7487 16.7834C80.7678 16.7834 80.7868 16.7834 80.8041 16.7834C80.8128 16.7834 80.8215 16.7834 80.8301 16.7834C80.8474 16.7834 80.8647 16.7834 80.882 16.7834C80.8907 16.7834 80.8994 16.7834 80.908 16.7834C80.9253 16.7834 80.9427 16.7834 80.9582 16.7834C80.9686 16.7834 80.9773 16.7834 80.9877 16.7834C81.005 16.7834 81.0206 16.7834 81.0379 16.7834C81.0466 16.7834 81.0552 16.7834 81.0656 16.7834C81.0829 16.7834 81.1002 16.7834 81.1193 16.7834C81.1245 16.7834 81.1331 16.7834 81.14 16.7834C81.1418 16.7834 81.1435 16.7834 81.1453 16.7834C81.1695 16.7834 81.1955 16.7834 81.2197 16.7834C81.2405 16.7834 81.2578 16.7834 81.2786 16.7834C81.2855 16.7834 81.2924 16.7834 81.2994 16.7834C81.3097 16.7834 81.3253 16.7834 81.3357 16.7834C81.3478 16.7834 81.3582 16.7834 81.3686 16.7834C81.3773 16.7834 81.3842 16.7834 81.3929 16.7834C81.4085 16.7834 81.4223 16.7834 81.4379 16.7834C81.4396 16.7834 81.4448 16.7834 81.4483 16.7834C81.4656 16.7834 81.4829 16.7834 81.5002 16.7834L81.5013 16.7837C91.0335 16.8183 100.146 18.6517 108.542 21.9261C118.512 28.5355 126.831 37.4461 132.727 47.8961Z" fill="url(#paint3_linear_655_4366)"/>
<path d="M81.1365 134.332C81.1279 134.332 81.1192 134.332 81.1106 134.332C81.1192 134.332 81.1296 134.332 81.1365 134.332ZM81.0534 134.332C81.043 134.332 81.0309 134.332 81.0205 134.332C81.0326 134.332 81.0413 134.332 81.0534 134.332ZM80.9703 134.332C80.9599 134.332 80.9443 134.332 80.9339 134.332C80.946 134.332 80.9582 134.332 80.9703 134.332ZM80.8854 134.332C80.8733 134.332 80.8612 134.332 80.8491 134.332C80.8629 134.332 80.8733 134.332 80.8854 134.332ZM80.7192 134.33C80.7054 134.33 80.695 134.33 80.6794 134.33C80.6932 134.33 80.7054 134.33 80.7192 134.33ZM80.6361 134.329C80.6223 134.329 80.6084 134.329 80.5963 134.329C80.6084 134.329 80.624 134.329 80.6361 134.329ZM80.5513 134.329C80.5374 134.329 80.5253 134.329 80.5114 134.329C80.5253 134.329 80.5391 134.329 80.5513 134.329ZM80.385 134.327C80.3694 134.327 80.359 134.325 80.3452 134.325C80.359 134.325 80.3712 134.327 80.385 134.327ZM80.3002 134.325C80.2881 134.325 80.2742 134.325 80.2621 134.325C80.2759 134.325 80.2863 134.325 80.3002 134.325ZM80.2171 134.324C80.2049 134.324 80.1894 134.324 80.1772 134.324C80.1911 134.324 80.2032 134.324 80.2171 134.324ZM80.0491 134.32C80.037 134.32 80.0231 134.32 80.011 134.32C80.0231 134.32 80.0387 134.32 80.0491 134.32ZM79.9625 134.32C79.9521 134.32 79.9383 134.318 79.9279 134.318C79.94 134.318 79.9521 134.32 79.9625 134.32ZM79.8846 134.317C79.8552 134.317 79.824 134.317 79.7946 134.315C79.8257 134.317 79.8552 134.317 79.8846 134.317ZM79.7634 134.315C79.7478 134.315 79.7322 134.313 79.7166 134.313C79.7322 134.313 79.7461 134.315 79.7634 134.315ZM79.5972 134.31C79.5816 134.31 79.5677 134.31 79.5504 134.31C79.566 134.31 79.5816 134.31 79.5972 134.31ZM79.5158 134.308C79.5002 134.308 79.4812 134.308 79.4673 134.306C79.4829 134.308 79.5002 134.308 79.5158 134.308ZM79.3495 134.303C79.3322 134.303 79.3184 134.303 79.3011 134.301C79.3184 134.303 79.334 134.303 79.3495 134.303ZM79.2664 134.301C79.2509 134.299 79.2335 134.299 79.2179 134.299C79.2353 134.299 79.2491 134.299 79.2664 134.301ZM79.1851 134.298C79.1677 134.298 79.1521 134.296 79.1348 134.296C79.1504 134.296 79.1695 134.298 79.1851 134.298ZM79.1037 134.294C79.0864 134.294 79.069 134.294 79.0517 134.292C79.0708 134.294 79.0846 134.294 79.1037 134.294ZM79.0223 134.292C79.0032 134.291 78.9877 134.291 78.9686 134.291C78.9859 134.291 79.005 134.291 79.0223 134.292ZM78.9392 134.289C78.9219 134.289 78.9028 134.287 78.8855 134.287C78.9045 134.287 78.9219 134.289 78.9392 134.289ZM78.7816 134.282C78.7625 134.282 78.74 134.28 78.721 134.28C78.7418 134.28 78.7608 134.282 78.7816 134.282ZM78.7071 134.279C78.553 134.273 78.3954 134.265 78.2396 134.258C78.3954 134.265 78.5513 134.273 78.7071 134.279ZM78.1548 134.254C78.1323 134.253 78.108 134.251 78.0855 134.249C78.108 134.251 78.1305 134.253 78.1548 134.254ZM78.0734 134.249C78.0526 134.249 78.0266 134.247 78.0041 134.246C78.0266 134.247 78.0509 134.249 78.0734 134.249ZM77.992 134.246C77.9695 134.244 77.947 134.242 77.9245 134.24C77.947 134.242 77.9678 134.244 77.992 134.246ZM77.831 134.235C77.8067 134.234 77.7842 134.234 77.76 134.232C77.7842 134.234 77.8085 134.235 77.831 134.235ZM77.7513 134.232C77.7271 134.23 77.7046 134.228 77.6786 134.227C77.7028 134.228 77.7288 134.23 77.7513 134.232ZM77.6734 134.227C50.7632 132.614 28.7429 112.786 23.6521 86.9376C24.9109 93.3305 27.207 99.3512 30.355 104.821C39.934 121.477 57.4159 133.013 77.6734 134.227ZM85.5884 128.114C81.2837 128.114 77.1089 127.558 73.1298 126.516C93.4756 123.539 109.15 105.974 109.15 84.813C109.15 83.5558 109.094 82.3108 108.985 81.0814C112.717 86.0008 114.933 92.1288 114.933 98.7676C114.933 114.951 101.77 128.114 85.5884 128.114ZM81.0673 116.559C81.0621 116.559 81.0569 116.559 81.0517 116.559C81.0551 116.559 81.0621 116.559 81.0673 116.559ZM55.6843 107.569C50.2697 106.006 45.3191 103.349 41.082 99.8533C39.4907 96.4958 38.2665 92.9323 37.4596 89.2129H31.9324C30.9835 87.6268 30.1368 85.9662 29.4026 84.2502H23.1863H41.2465C43.2759 93.6041 48.4845 101.782 55.6843 107.569ZM105.595 91.9799C105.595 91.9747 105.593 91.9678 105.593 91.9609C105.593 91.9678 105.593 91.9747 105.595 91.9799ZM23.6296 86.8268C23.6279 86.8129 23.6227 86.7939 23.6209 86.7783C23.6244 86.7939 23.6261 86.8112 23.6296 86.8268ZM23.6123 86.7367C23.6105 86.7281 23.6088 86.7159 23.6071 86.7073C23.6088 86.7177 23.6105 86.7264 23.6123 86.7367ZM23.595 86.6484C23.5932 86.6415 23.5915 86.6311 23.5915 86.6242C23.5932 86.6328 23.5932 86.6398 23.595 86.6484ZM23.5776 86.5584C23.5776 86.5532 23.5776 86.5532 23.5759 86.5463C23.5776 86.5515 23.5776 86.5549 23.5776 86.5584ZM23.5465 86.3939V86.3904C23.5465 86.3922 23.5465 86.3922 23.5465 86.3939ZM23.2123 84.4164V84.413C23.2123 84.4147 23.2123 84.4147 23.2123 84.4164ZM23.2002 84.3333C23.1984 84.3316 23.1984 84.3316 23.1984 84.3299C23.1984 84.3299 23.1984 84.3333 23.2002 84.3333Z" fill="black"/>
<path d="M81.1365 134.332C81.1279 134.332 81.1192 134.332 81.1106 134.332C81.1192 134.332 81.1296 134.332 81.1365 134.332ZM81.0534 134.332C81.043 134.332 81.0309 134.332 81.0205 134.332C81.0326 134.332 81.0413 134.332 81.0534 134.332ZM80.9703 134.332C80.9599 134.332 80.9443 134.332 80.9339 134.332C80.946 134.332 80.9582 134.332 80.9703 134.332ZM80.8854 134.332C80.8733 134.332 80.8612 134.332 80.8491 134.332C80.8629 134.332 80.8733 134.332 80.8854 134.332ZM80.7192 134.33C80.7054 134.33 80.695 134.33 80.6794 134.33C80.6932 134.33 80.7054 134.33 80.7192 134.33ZM80.6361 134.329C80.6223 134.329 80.6084 134.329 80.5963 134.329C80.6084 134.329 80.624 134.329 80.6361 134.329ZM80.5513 134.329C80.5374 134.329 80.5253 134.329 80.5114 134.329C80.5253 134.329 80.5391 134.329 80.5513 134.329ZM80.385 134.327C80.3694 134.327 80.359 134.325 80.3452 134.325C80.359 134.325 80.3712 134.327 80.385 134.327ZM80.3002 134.325C80.2881 134.325 80.2742 134.325 80.2621 134.325C80.2759 134.325 80.2863 134.325 80.3002 134.325ZM80.2171 134.324C80.2049 134.324 80.1894 134.324 80.1772 134.324C80.1911 134.324 80.2032 134.324 80.2171 134.324ZM80.0491 134.32C80.037 134.32 80.0231 134.32 80.011 134.32C80.0231 134.32 80.0387 134.32 80.0491 134.32ZM79.9625 134.32C79.9521 134.32 79.9383 134.318 79.9279 134.318C79.94 134.318 79.9521 134.32 79.9625 134.32ZM79.8846 134.317C79.8552 134.317 79.824 134.317 79.7946 134.315C79.8257 134.317 79.8552 134.317 79.8846 134.317ZM79.7634 134.315C79.7478 134.315 79.7322 134.313 79.7166 134.313C79.7322 134.313 79.7461 134.315 79.7634 134.315ZM79.5972 134.31C79.5816 134.31 79.5677 134.31 79.5504 134.31C79.566 134.31 79.5816 134.31 79.5972 134.31ZM79.5158 134.308C79.5002 134.308 79.4812 134.308 79.4673 134.306C79.4829 134.308 79.5002 134.308 79.5158 134.308ZM79.3495 134.303C79.3322 134.303 79.3184 134.303 79.3011 134.301C79.3184 134.303 79.334 134.303 79.3495 134.303ZM79.2664 134.301C79.2509 134.299 79.2335 134.299 79.2179 134.299C79.2353 134.299 79.2491 134.299 79.2664 134.301ZM79.1851 134.298C79.1677 134.298 79.1521 134.296 79.1348 134.296C79.1504 134.296 79.1695 134.298 79.1851 134.298ZM79.1037 134.294C79.0864 134.294 79.069 134.294 79.0517 134.292C79.0708 134.294 79.0846 134.294 79.1037 134.294ZM79.0223 134.292C79.0032 134.291 78.9877 134.291 78.9686 134.291C78.9859 134.291 79.005 134.291 79.0223 134.292ZM78.9392 134.289C78.9219 134.289 78.9028 134.287 78.8855 134.287C78.9045 134.287 78.9219 134.289 78.9392 134.289ZM78.7816 134.282C78.7625 134.282 78.74 134.28 78.721 134.28C78.7418 134.28 78.7608 134.282 78.7816 134.282ZM78.7071 134.279C78.553 134.273 78.3954 134.265 78.2396 134.258C78.3954 134.265 78.5513 134.273 78.7071 134.279ZM78.1548 134.254C78.1323 134.253 78.108 134.251 78.0855 134.249C78.108 134.251 78.1305 134.253 78.1548 134.254ZM78.0734 134.249C78.0526 134.249 78.0266 134.247 78.0041 134.246C78.0266 134.247 78.0509 134.249 78.0734 134.249ZM77.992 134.246C77.9695 134.244 77.947 134.242 77.9245 134.24C77.947 134.242 77.9678 134.244 77.992 134.246ZM77.831 134.235C77.8067 134.234 77.7842 134.234 77.76 134.232C77.7842 134.234 77.8085 134.235 77.831 134.235ZM77.7513 134.232C77.7271 134.23 77.7046 134.228 77.6786 134.227C77.7028 134.228 77.7288 134.23 77.7513 134.232ZM77.6734 134.227C50.7632 132.614 28.7429 112.786 23.6521 86.9376C24.9109 93.3305 27.207 99.3512 30.355 104.821C39.934 121.477 57.4159 133.013 77.6734 134.227ZM85.5884 128.114C81.2837 128.114 77.1089 127.558 73.1298 126.516C93.4756 123.539 109.15 105.974 109.15 84.813C109.15 83.5558 109.094 82.3108 108.985 81.0814C112.717 86.0008 114.933 92.1288 114.933 98.7676C114.933 114.951 101.77 128.114 85.5884 128.114ZM81.0673 116.559C81.0621 116.559 81.0569 116.559 81.0517 116.559C81.0551 116.559 81.0621 116.559 81.0673 116.559ZM55.6843 107.569C50.2697 106.006 45.3191 103.349 41.082 99.8533C39.4907 96.4958 38.2665 92.9323 37.4596 89.2129H31.9324C30.9835 87.6268 30.1368 85.9662 29.4026 84.2502H23.1863H41.2465C43.2759 93.6041 48.4845 101.782 55.6843 107.569ZM105.595 91.9799C105.595 91.9747 105.593 91.9678 105.593 91.9609C105.593 91.9678 105.593 91.9747 105.595 91.9799ZM23.6296 86.8268C23.6279 86.8129 23.6227 86.7939 23.6209 86.7783C23.6244 86.7939 23.6261 86.8112 23.6296 86.8268ZM23.6123 86.7367C23.6105 86.7281 23.6088 86.7159 23.6071 86.7073C23.6088 86.7177 23.6105 86.7264 23.6123 86.7367ZM23.595 86.6484C23.5932 86.6415 23.5915 86.6311 23.5915 86.6242C23.5932 86.6328 23.5932 86.6398 23.595 86.6484ZM23.5776 86.5584C23.5776 86.5532 23.5776 86.5532 23.5759 86.5463C23.5776 86.5515 23.5776 86.5549 23.5776 86.5584ZM23.5465 86.3939V86.3904C23.5465 86.3922 23.5465 86.3922 23.5465 86.3939ZM23.2123 84.4164V84.413C23.2123 84.4147 23.2123 84.4147 23.2123 84.4164ZM23.2002 84.3333C23.1984 84.3316 23.1984 84.3316 23.1984 84.3299C23.1984 84.3299 23.1984 84.3333 23.2002 84.3333Z" fill="white"/>
<path d="M81.1642 116.561C81.1573 116.561 81.1486 116.561 81.1417 116.559C81.1486 116.561 81.1556 116.561 81.1642 116.561ZM81.1071 116.559C81.095 116.559 81.0794 116.559 81.0673 116.559C81.0811 116.559 81.0932 116.559 81.1071 116.559ZM81.0517 116.559C71.4502 116.521 62.6382 113.16 55.6843 107.569C55.6981 107.573 55.712 107.578 55.7241 107.581C62.6746 113.155 71.4658 116.521 81.0517 116.559ZM105.595 92.0734C105.595 92.0665 105.595 92.063 105.595 92.0578C105.595 92.063 105.595 92.0682 105.595 92.0734ZM105.595 91.999C105.595 91.992 105.595 91.9851 105.595 91.9799C105.595 91.9869 105.595 91.992 105.595 91.999ZM105.593 91.9609C105.593 91.9557 105.593 91.9488 105.593 91.9418C105.593 91.9488 105.593 91.9539 105.593 91.9609ZM105.593 91.9245C105.593 91.9176 105.593 91.9106 105.593 91.9037C105.593 91.9124 105.593 91.9176 105.593 91.9245ZM105.593 91.8881C105.593 91.8812 105.593 91.8725 105.593 91.8656C105.593 91.8743 105.593 91.8812 105.593 91.8881ZM105.593 91.8553C105.432 79.7412 96.3795 69.7624 84.6845 68.088C84.6758 68.0776 84.6672 68.0689 84.6585 68.0603C86.9598 68.391 89.1571 69.049 91.209 69.9771C91.2402 69.9823 91.2696 69.9893 91.3008 69.9945C99.6313 73.7935 105.463 82.1464 105.593 91.8553ZM23.6521 86.9376C23.6521 86.9359 23.6504 86.9341 23.6504 86.9341C23.6521 86.9359 23.6504 86.9359 23.6521 86.9376ZM23.6348 86.8545C23.6331 86.8458 23.6313 86.8354 23.6296 86.8268C23.6313 86.8372 23.6331 86.8441 23.6348 86.8545ZM23.6209 86.7783C23.6175 86.7645 23.6157 86.7506 23.6123 86.7367C23.6157 86.7523 23.6175 86.7627 23.6209 86.7783ZM23.5759 86.5463C23.5725 86.5238 23.5673 86.5013 23.5621 86.477C23.5673 86.4995 23.5725 86.5255 23.5759 86.5463ZM23.5621 86.4735C23.5569 86.4476 23.5517 86.4199 23.5465 86.3939C23.5517 86.4216 23.5569 86.4441 23.5621 86.4735ZM23.5465 86.3904C23.4235 85.7359 23.3127 85.0779 23.2123 84.4164C23.3127 85.0779 23.4235 85.7342 23.5465 86.3904ZM23.2123 84.413C23.2071 84.387 23.2036 84.361 23.2002 84.3333C23.2036 84.361 23.2071 84.3853 23.2123 84.413ZM23.1984 84.3299C23.195 84.3021 23.1915 84.2762 23.1863 84.2502C23.1915 84.2744 23.195 84.3039 23.1984 84.3299ZM81.3322 50.0416C81.3253 50.0416 81.3131 50.0416 81.3045 50.0416C81.3131 50.0416 81.3235 50.0416 81.3322 50.0416Z" fill="black"/>
<path d="M81.1642 116.561C81.1573 116.561 81.1486 116.561 81.1417 116.559C81.1486 116.561 81.1556 116.561 81.1642 116.561ZM81.1071 116.559C81.095 116.559 81.0794 116.559 81.0673 116.559C81.0811 116.559 81.0932 116.559 81.1071 116.559ZM81.0517 116.559C71.4502 116.521 62.6382 113.16 55.6843 107.569C55.6981 107.573 55.712 107.578 55.7241 107.581C62.6746 113.155 71.4658 116.521 81.0517 116.559ZM105.595 92.0734C105.595 92.0665 105.595 92.063 105.595 92.0578C105.595 92.063 105.595 92.0682 105.595 92.0734ZM105.595 91.999C105.595 91.992 105.595 91.9851 105.595 91.9799C105.595 91.9869 105.595 91.992 105.595 91.999ZM105.593 91.9609C105.593 91.9557 105.593 91.9488 105.593 91.9418C105.593 91.9488 105.593 91.9539 105.593 91.9609ZM105.593 91.9245C105.593 91.9176 105.593 91.9106 105.593 91.9037C105.593 91.9124 105.593 91.9176 105.593 91.9245ZM105.593 91.8881C105.593 91.8812 105.593 91.8725 105.593 91.8656C105.593 91.8743 105.593 91.8812 105.593 91.8881ZM105.593 91.8553C105.432 79.7412 96.3795 69.7624 84.6845 68.088C84.6758 68.0776 84.6672 68.0689 84.6585 68.0603C86.9598 68.391 89.1571 69.049 91.209 69.9771C91.2402 69.9823 91.2696 69.9893 91.3008 69.9945C99.6313 73.7935 105.463 82.1464 105.593 91.8553ZM23.6521 86.9376C23.6521 86.9359 23.6504 86.9341 23.6504 86.9341C23.6521 86.9359 23.6504 86.9359 23.6521 86.9376ZM23.6348 86.8545C23.6331 86.8458 23.6313 86.8354 23.6296 86.8268C23.6313 86.8372 23.6331 86.8441 23.6348 86.8545ZM23.6209 86.7783C23.6175 86.7645 23.6157 86.7506 23.6123 86.7367C23.6157 86.7523 23.6175 86.7627 23.6209 86.7783ZM23.5759 86.5463C23.5725 86.5238 23.5673 86.5013 23.5621 86.477C23.5673 86.4995 23.5725 86.5255 23.5759 86.5463ZM23.5621 86.4735C23.5569 86.4476 23.5517 86.4199 23.5465 86.3939C23.5517 86.4216 23.5569 86.4441 23.5621 86.4735ZM23.5465 86.3904C23.4235 85.7359 23.3127 85.0779 23.2123 84.4164C23.3127 85.0779 23.4235 85.7342 23.5465 86.3904ZM23.2123 84.413C23.2071 84.387 23.2036 84.361 23.2002 84.3333C23.2036 84.361 23.2071 84.3853 23.2123 84.413ZM23.1984 84.3299C23.195 84.3021 23.1915 84.2762 23.1863 84.2502C23.1915 84.2744 23.195 84.3039 23.1984 84.3299ZM81.3322 50.0416C81.3253 50.0416 81.3131 50.0416 81.3045 50.0416C81.3131 50.0416 81.3235 50.0416 81.3322 50.0416Z" fill="url(#paint4_radial_655_4366)"/>
<path d="M73.1298 126.517C58.9414 122.799 47.2533 112.886 41.082 99.8546C45.3191 103.351 50.2697 106.007 55.6843 107.57C62.6382 113.162 71.4502 116.523 81.0517 116.561C81.0569 116.561 81.0621 116.561 81.0673 116.561C81.0794 116.561 81.095 116.561 81.1071 116.561C81.1192 116.561 81.1296 116.561 81.1417 116.561C81.1486 116.562 81.1573 116.562 81.1642 116.562C81.1833 116.562 81.2023 116.562 81.2214 116.562C94.6618 116.562 105.595 105.628 105.595 92.1872C105.595 92.1751 105.595 92.163 105.595 92.1508C105.595 92.1456 105.595 92.1422 105.595 92.137C105.595 92.1283 105.595 92.1214 105.595 92.1128C105.595 92.1076 105.595 92.1024 105.595 92.0972C105.595 92.0902 105.595 92.0816 105.595 92.0746C105.595 92.0694 105.595 92.0643 105.595 92.0591C105.595 92.0521 105.595 92.0435 105.595 92.0365C105.595 92.0313 105.595 92.0244 105.595 92.0192C105.595 92.0123 105.595 92.0054 105.595 92.0002C105.595 91.9933 105.595 91.9881 105.595 91.9812C105.593 91.976 105.593 91.969 105.593 91.9621C105.593 91.9552 105.593 91.95 105.593 91.9431C105.593 91.9379 105.593 91.9309 105.593 91.9257C105.593 91.9188 105.593 91.9136 105.593 91.9049C105.593 91.8997 105.593 91.8946 105.593 91.8894C105.593 91.8825 105.593 91.8755 105.593 91.8668C105.593 91.8634 105.593 91.8599 105.593 91.8565C105.463 82.1476 99.6313 73.7946 91.3008 69.9955C98.4764 71.4171 104.72 75.4603 108.985 81.0827C109.094 82.3121 109.15 83.5571 109.15 84.8142C109.15 105.976 93.4756 123.541 73.1298 126.517ZM30.355 104.822C27.207 99.3524 24.9109 93.3318 23.6521 86.9388C23.6504 86.9371 23.6521 86.9371 23.6504 86.9354C23.6452 86.9094 23.64 86.8817 23.6348 86.8557C23.6331 86.8453 23.6313 86.8384 23.6296 86.828C23.6261 86.8124 23.6244 86.7951 23.6209 86.7795C23.6175 86.7639 23.6157 86.7536 23.6123 86.738C23.6105 86.7276 23.6088 86.7189 23.6071 86.7085C23.6036 86.6877 23.5984 86.6687 23.595 86.6497C23.5932 86.641 23.5932 86.6341 23.5915 86.6254C23.5863 86.6046 23.5828 86.5821 23.5776 86.5596C23.5776 86.5562 23.5776 86.5527 23.5759 86.5475C23.5725 86.5267 23.5673 86.5008 23.5621 86.4782C23.5621 86.4765 23.5621 86.4748 23.5621 86.4748C23.5569 86.4453 23.5517 86.4228 23.5465 86.3951C23.5465 86.3934 23.5465 86.3934 23.5465 86.3917C23.4235 85.7354 23.3127 85.0791 23.2123 84.4177C23.2123 84.4159 23.2123 84.4159 23.2123 84.4142C23.2071 84.3865 23.2036 84.3622 23.2002 84.3345C23.1984 84.3345 23.1984 84.3311 23.1984 84.3311C23.195 84.3051 23.1915 84.2757 23.1863 84.2514H29.4026C30.1368 85.9674 30.9835 87.628 31.9324 89.2141H24.1525C25.4754 94.7621 27.5862 100.007 30.355 104.822Z" fill="black"/>
<path d="M73.1298 126.517C58.9414 122.799 47.2533 112.886 41.082 99.8546C45.3191 103.351 50.2697 106.007 55.6843 107.57C62.6382 113.162 71.4502 116.523 81.0517 116.561C81.0569 116.561 81.0621 116.561 81.0673 116.561C81.0794 116.561 81.095 116.561 81.1071 116.561C81.1192 116.561 81.1296 116.561 81.1417 116.561C81.1486 116.562 81.1573 116.562 81.1642 116.562C81.1833 116.562 81.2023 116.562 81.2214 116.562C94.6618 116.562 105.595 105.628 105.595 92.1872C105.595 92.1751 105.595 92.163 105.595 92.1508C105.595 92.1456 105.595 92.1422 105.595 92.137C105.595 92.1283 105.595 92.1214 105.595 92.1128C105.595 92.1076 105.595 92.1024 105.595 92.0972C105.595 92.0902 105.595 92.0816 105.595 92.0746C105.595 92.0694 105.595 92.0643 105.595 92.0591C105.595 92.0521 105.595 92.0435 105.595 92.0365C105.595 92.0313 105.595 92.0244 105.595 92.0192C105.595 92.0123 105.595 92.0054 105.595 92.0002C105.595 91.9933 105.595 91.9881 105.595 91.9812C105.593 91.976 105.593 91.969 105.593 91.9621C105.593 91.9552 105.593 91.95 105.593 91.9431C105.593 91.9379 105.593 91.9309 105.593 91.9257C105.593 91.9188 105.593 91.9136 105.593 91.9049C105.593 91.8997 105.593 91.8946 105.593 91.8894C105.593 91.8825 105.593 91.8755 105.593 91.8668C105.593 91.8634 105.593 91.8599 105.593 91.8565C105.463 82.1476 99.6313 73.7946 91.3008 69.9955C98.4764 71.4171 104.72 75.4603 108.985 81.0827C109.094 82.3121 109.15 83.5571 109.15 84.8142C109.15 105.976 93.4756 123.541 73.1298 126.517ZM30.355 104.822C27.207 99.3524 24.9109 93.3318 23.6521 86.9388C23.6504 86.9371 23.6521 86.9371 23.6504 86.9354C23.6452 86.9094 23.64 86.8817 23.6348 86.8557C23.6331 86.8453 23.6313 86.8384 23.6296 86.828C23.6261 86.8124 23.6244 86.7951 23.6209 86.7795C23.6175 86.7639 23.6157 86.7536 23.6123 86.738C23.6105 86.7276 23.6088 86.7189 23.6071 86.7085C23.6036 86.6877 23.5984 86.6687 23.595 86.6497C23.5932 86.641 23.5932 86.6341 23.5915 86.6254C23.5863 86.6046 23.5828 86.5821 23.5776 86.5596C23.5776 86.5562 23.5776 86.5527 23.5759 86.5475C23.5725 86.5267 23.5673 86.5008 23.5621 86.4782C23.5621 86.4765 23.5621 86.4748 23.5621 86.4748C23.5569 86.4453 23.5517 86.4228 23.5465 86.3951C23.5465 86.3934 23.5465 86.3934 23.5465 86.3917C23.4235 85.7354 23.3127 85.0791 23.2123 84.4177C23.2123 84.4159 23.2123 84.4159 23.2123 84.4142C23.2071 84.3865 23.2036 84.3622 23.2002 84.3345C23.1984 84.3345 23.1984 84.3311 23.1984 84.3311C23.195 84.3051 23.1915 84.2757 23.1863 84.2514H29.4026C30.1368 85.9674 30.9835 87.628 31.9324 89.2141H24.1525C25.4754 94.7621 27.5862 100.007 30.355 104.822Z" fill="white"/>
<path d="M81.2215 134.332C81.192 134.332 81.166 134.332 81.1365 134.332C81.1296 134.332 81.1192 134.332 81.1106 134.332C81.0932 134.332 81.0707 134.332 81.0534 134.332C81.0413 134.332 81.0326 134.332 81.0205 134.332C81.0015 134.332 80.9876 134.332 80.9703 134.332C80.9582 134.332 80.946 134.332 80.9339 134.332C80.9183 134.332 80.9028 134.332 80.8854 134.332C80.8733 134.332 80.8629 134.332 80.8491 134.332C80.8318 134.332 80.8196 134.332 80.8023 134.33C80.7902 134.33 80.7764 134.33 80.7642 134.33C80.7504 134.33 80.7331 134.33 80.7192 134.33C80.7054 134.33 80.6932 134.33 80.6794 134.33C80.6655 134.33 80.65 134.329 80.6361 134.329C80.624 134.329 80.6084 134.329 80.5963 134.329C80.5824 134.329 80.5668 134.329 80.5513 134.329C80.5391 134.329 80.5253 134.329 80.5114 134.329C80.4976 134.329 80.4837 134.329 80.4681 134.327C80.456 134.327 80.4404 134.327 80.4283 134.327C80.4145 134.327 80.3989 134.327 80.385 134.327C80.3712 134.327 80.359 134.325 80.3452 134.325C80.3313 134.325 80.314 134.325 80.3002 134.325C80.2863 134.325 80.2759 134.325 80.2621 134.325C80.2465 134.325 80.2326 134.325 80.2171 134.324C80.2032 134.324 80.1911 134.324 80.1772 134.324C80.1634 134.324 80.1478 134.322 80.1322 134.322C80.1201 134.322 80.108 134.322 80.0941 134.322C80.0785 134.322 80.0664 134.322 80.0491 134.32C80.0387 134.32 80.0231 134.32 80.011 134.32C79.9937 134.32 79.9798 134.32 79.9625 134.32C79.9521 134.32 79.94 134.318 79.9279 134.318C79.9123 134.318 79.9002 134.318 79.8846 134.317C79.8552 134.317 79.8257 134.317 79.7946 134.315C79.7842 134.315 79.7738 134.315 79.7634 134.315C79.7461 134.315 79.7322 134.313 79.7166 134.313C79.7028 134.313 79.6924 134.313 79.6803 134.313C79.6664 134.313 79.6491 134.311 79.6353 134.311C79.6214 134.311 79.6093 134.31 79.5972 134.31C79.5816 134.31 79.566 134.31 79.5504 134.31C79.5383 134.31 79.5279 134.308 79.5158 134.308C79.5002 134.308 79.4829 134.308 79.4673 134.306C79.4552 134.306 79.4448 134.306 79.4327 134.306C79.4153 134.305 79.3998 134.305 79.3842 134.305C79.3738 134.305 79.3599 134.305 79.3495 134.303C79.334 134.303 79.3184 134.303 79.3011 134.301C79.2907 134.301 79.2768 134.301 79.2664 134.301C79.2491 134.299 79.2353 134.299 79.2179 134.299C79.2076 134.298 79.1954 134.298 79.1851 134.298C79.1695 134.298 79.1504 134.296 79.1348 134.296C79.1262 134.296 79.1123 134.294 79.1037 134.294C79.0846 134.294 79.0708 134.294 79.0517 134.292C79.0413 134.292 79.0327 134.292 79.0223 134.292C79.005 134.291 78.9859 134.291 78.9686 134.291C78.96 134.289 78.9496 134.289 78.9392 134.289C78.9219 134.289 78.9045 134.287 78.8855 134.287C78.8768 134.285 78.8699 134.285 78.8613 134.285C78.8422 134.285 78.8232 134.284 78.8024 134.284C78.7954 134.282 78.7885 134.282 78.7816 134.282C78.7608 134.282 78.7418 134.28 78.721 134.28C78.7141 134.279 78.7123 134.279 78.7071 134.279C78.5513 134.273 78.3954 134.265 78.2396 134.258C78.2379 134.258 78.2379 134.258 78.2362 134.258C78.2119 134.256 78.1877 134.254 78.1634 134.254C78.1617 134.254 78.1565 134.254 78.1548 134.254C78.1305 134.253 78.108 134.251 78.0855 134.249C78.0786 134.249 78.0786 134.249 78.0734 134.249C78.0509 134.249 78.0266 134.247 78.0041 134.246C77.9989 134.246 77.9972 134.246 77.992 134.246C77.9678 134.244 77.947 134.242 77.9245 134.24C77.921 134.24 77.9141 134.24 77.9106 134.24C77.8881 134.239 77.8656 134.239 77.8431 134.235C77.8396 134.235 77.8344 134.235 77.831 134.235C77.8085 134.235 77.7842 134.234 77.76 134.232C77.7583 134.232 77.753 134.232 77.7513 134.232C77.7288 134.23 77.7028 134.228 77.6786 134.227C77.6769 134.227 77.6751 134.227 77.6734 134.227C57.4159 133.013 39.934 121.477 30.355 104.821C34.6354 112.255 40.4917 118.667 47.4647 123.598C53.5771 125.766 60.1501 126.961 67.0036 126.961C69.085 126.961 71.1281 126.809 73.1298 126.516C77.1089 127.558 81.2837 128.114 85.5884 128.114C101.77 128.114 114.933 114.951 114.933 98.7676C114.933 92.1288 112.717 86.0008 108.985 81.0814C107.936 69.2185 101.931 58.7686 93.0809 51.7679C89.3477 50.67 85.4118 50.052 81.3322 50.0416C104.523 50.1005 123.368 68.9865 123.368 92.186C123.368 115.427 104.463 134.332 81.2215 134.332ZM122.637 99.8429C120.405 108.103 116.379 115.626 111.003 121.981C116.918 116.068 121.058 108.399 122.637 99.8429ZM41.082 99.8533C37.4596 96.8664 34.3584 93.2682 31.9324 89.2129H37.4596C38.2665 92.9323 39.4907 96.4958 41.082 99.8533ZM84.6534 68.0532C83.5573 67.8991 82.4405 67.816 81.3046 67.8125C81.2925 67.8125 81.2785 67.8125 81.2664 67.8125C81.2647 67.8125 81.2647 67.8125 81.2629 67.8125C81.2491 67.8125 81.2353 67.8125 81.2215 67.8125H22.963C23.7803 61.5044 25.6174 55.5515 28.3412 50.0918C26.7083 53.3662 25.4357 56.8396 24.4695 60.4412H67.0036C73.9506 60.4412 80.2085 63.3745 84.6534 68.0532ZM81.3045 50.0416C81.2958 50.0416 81.2872 50.0416 81.2802 50.0416C81.2889 50.0416 81.2958 50.0416 81.3045 50.0416Z" fill="white"/>
<path d="M91.2968 69.9951C91.2656 69.9899 91.2362 69.983 91.205 69.9778C89.1531 69.0497 86.9557 68.3917 84.6545 68.0609C84.6528 68.0575 84.651 68.0575 84.6493 68.054C86.9869 68.3847 89.2189 69.0497 91.2968 69.9951Z" fill="black"/>
<path d="M91.2968 69.9951C91.2656 69.9899 91.2362 69.983 91.205 69.9778C89.1531 69.0497 86.9557 68.3917 84.6545 68.0609C84.6528 68.0575 84.651 68.0575 84.6493 68.054C86.9869 68.3847 89.2189 69.0497 91.2968 69.9951Z" fill="url(#paint5_radial_655_4366)"/>
<path d="M67.0022 126.962C60.1486 126.962 53.5756 125.767 47.4632 123.599C40.4902 118.667 34.6341 112.255 30.3536 104.822C27.5849 100.006 25.4741 94.7615 24.1512 89.2136H31.9311C34.357 93.2689 37.4582 96.8671 41.0807 99.854C47.252 112.886 58.94 122.799 73.1284 126.517C71.1268 126.809 69.0835 126.962 67.0022 126.962ZM111.001 121.982C116.378 115.627 120.404 108.103 122.636 99.8436C121.056 108.399 116.916 116.068 111.001 121.982ZM108.984 81.0821C104.719 75.4598 98.475 71.4166 91.2994 69.995C89.2216 69.0496 86.9896 68.3846 84.652 68.0539C80.2071 63.3752 73.9492 60.4419 67.0022 60.4419H24.4681C25.4343 56.8403 26.707 53.3668 28.3398 50.0924C28.3485 50.0751 28.3571 50.0577 28.3641 50.0422H81.22C81.2391 50.0422 81.2581 50.0422 81.2789 50.0422C81.2858 50.0422 81.2945 50.0422 81.3031 50.0422C81.3118 50.0422 81.3239 50.0422 81.3309 50.0422C85.4104 50.0525 89.3463 50.6708 93.0795 51.7686C101.93 58.7693 107.935 69.2192 108.984 81.0821Z" fill="white"/>
<defs>
<linearGradient id="paint0_linear_655_4366" x1="-129.75" y1="219.354" x2="527.831" y2="-214.301" gradientUnits="userSpaceOnUse">
<stop offset="0.182796" stop-color="#2668F2"/>
<stop offset="0.370968" stop-color="#2668F2"/>
<stop offset="0.516129" stop-color="#2668F2"/>
<stop offset="0.645161" stop-color="#2668F2"/>
<stop offset="0.725807" stop-color="#2668F2"/>
<stop offset="0.83871" stop-color="#2668F2"/>
<stop offset="1" stop-color="#2668F2"/>
</linearGradient>
<radialGradient id="paint1_radial_655_4366" cx="0" cy="0" r="1" gradientUnits="userSpaceOnUse" gradientTransform="translate(12.4708 -50.6558) scale(678.891 593.957)">
<stop stop-color="white"/>
<stop offset="0.556122" stop-color="white"/>
<stop offset="1" stop-color="#FAFAFA"/>
</radialGradient>
<linearGradient id="paint2_linear_655_4366" x1="-147.77" y1="222.014" x2="559.491" y2="-274.146" gradientUnits="userSpaceOnUse">
<stop stop-color="#2668F2"/>
<stop offset="0.182796" stop-color="#2668F2"/>
<stop offset="0.370968" stop-color="#2668F2"/>
<stop offset="0.516129" stop-color="#2668F2"/>
<stop offset="0.645161" stop-color="#2668F2"/>
<stop offset="0.725807" stop-color="#2668F2"/>
<stop offset="0.83871" stop-color="#2668F2"/>
<stop offset="1" stop-color="#2668F2"/>
</linearGradient>
<linearGradient id="paint3_linear_655_4366" x1="-129.747" y1="-34.9764" x2="527.823" y2="398.664" gradientUnits="userSpaceOnUse">
<stop stop-color="#2668F2"/>
<stop offset="0.182796" stop-color="#2668F2"/>
<stop offset="0.370968" stop-color="#2668F2"/>
<stop offset="0.516129" stop-color="#2668F2"/>
<stop offset="0.645161" stop-color="#2668F2"/>
<stop offset="0.725807" stop-color="#2668F2"/>
<stop offset="0.83871" stop-color="#2668F2"/>
<stop offset="1" stop-color="#2668F2"/>
</linearGradient>
<radialGradient id="paint4_radial_655_4366" cx="0" cy="0" r="1" gradientUnits="userSpaceOnUse" gradientTransform="translate(87.0619 38.2042) scale(361.815 376.299)">
<stop stop-color="white"/>
<stop offset="0.556122" stop-color="white"/>
<stop offset="1" stop-color="#FAFAFA"/>
</radialGradient>
<radialGradient id="paint5_radial_655_4366" cx="0" cy="0" r="1" gradientUnits="userSpaceOnUse" gradientTransform="translate(-110.814 -2377.77) scale(4485.41 12895.6)">
<stop stop-color="white"/>
<stop offset="0.556122" stop-color="white"/>
<stop offset="1" stop-color="#F7F7F7"/>
</radialGradient>
</defs>
</svg>
