<svg width="233" height="233" viewBox="0 0 233 233" fill="none" xmlns="http://www.w3.org/2000/svg">
<g clip-path="url(#clip0_708_3714)">
<rect width="233" height="233" rx="116.5" fill="black"/>
<path d="M96.2273 201.153L95.7438 202.762L92.9244 201.915C92.1888 201.694 91.4977 201.659 90.8509 201.809C90.1939 201.957 89.6278 202.266 89.1525 202.736C88.6639 203.213 88.3076 203.824 88.0835 204.57C87.8625 205.305 87.8259 206.002 87.9738 206.659C88.1216 207.316 88.4289 207.887 88.8956 208.372C89.3521 208.855 89.9429 209.205 90.6682 209.423L93.4877 210.27L93.0043 211.879L90.1388 211.018C89.3624 210.785 88.6837 210.43 88.1026 209.955C87.5184 209.49 87.0548 208.939 86.7118 208.301C86.3555 207.67 86.1376 206.987 86.0583 206.25C85.9758 205.524 86.0497 204.777 86.28 204.011C86.5071 203.255 86.8568 202.592 87.3291 202.021C87.8013 201.45 88.3563 200.993 88.994 200.65C89.6286 200.317 90.3194 200.113 91.0662 200.036C91.8101 199.97 92.565 200.052 93.3312 200.283L96.2273 201.153ZM97.4378 201.517L94.2148 212.243L92.4526 211.713L95.6756 200.987L97.4378 201.517Z" fill="white"/>
<path d="M81.7346 196.038L76.6387 206.011L75.0002 205.174L80.0961 195.2L81.7346 196.038ZM80.609 195.463L79.8447 196.959L74.2595 194.105L75.0239 192.609L80.609 195.463ZM78.3741 199.837L77.6389 201.276L72.5381 198.67L73.2734 197.23L78.3741 199.837ZM76.2775 203.94L75.5131 205.436L69.9992 202.619L70.7636 201.123L76.2775 203.94Z" fill="white"/>
<path d="M66.0048 186.628L62.93 198.311L61.3276 197.114L63.9237 187.729L64.4877 188.151L56.2001 193.284L54.6234 192.106L64.9793 185.862L66.0048 186.628Z" fill="white"/>
<path d="M57.5975 179.572L49.5234 187.334L48.2483 186.008L56.3223 178.246L57.5975 179.572ZM56.7215 178.661L55.5104 179.825L51.1636 175.304L52.3747 174.139L56.7215 178.661ZM53.1804 182.065L52.0155 183.185L48.0457 179.056L49.2107 177.936L53.1804 182.065ZM49.8586 185.259L48.6474 186.423L44.3561 181.959L45.5672 180.795L49.8586 185.259Z" fill="white"/>
<path d="M46.8851 166.688C47.3865 167.418 47.6806 168.128 47.7673 168.819C47.854 169.51 47.7814 170.233 47.5495 170.988L45.8141 170.666C46.0081 170.158 46.0897 169.655 46.059 169.158C46.0196 168.668 45.8125 168.15 45.4379 167.605C45.0875 167.095 44.7041 166.763 44.2877 166.609C43.8653 166.447 43.4694 166.492 43.1002 166.746C42.7926 166.958 42.5964 167.209 42.5118 167.5C42.4271 167.791 42.4139 168.111 42.4721 168.459C42.5154 168.805 42.5975 169.169 42.7183 169.552C42.8243 169.932 42.9245 170.323 43.0189 170.724C43.0985 171.122 43.1323 171.519 43.1201 171.916C43.102 172.304 42.9934 172.683 42.7945 173.052C42.5956 173.422 42.2588 173.77 41.7841 174.096C41.2391 174.471 40.6869 174.656 40.1277 174.652C39.5536 174.646 39.0084 174.483 38.492 174.165C37.9757 173.847 37.5241 173.407 37.1375 172.844C36.7206 172.237 36.4677 171.615 36.3788 170.977C36.2838 170.331 36.3182 169.731 36.482 169.179L38.2174 169.5C38.0998 169.969 38.0703 170.397 38.1291 170.784C38.173 171.168 38.3218 171.545 38.5755 171.914C38.8897 172.371 39.2297 172.668 39.5956 172.805C39.9554 172.933 40.3023 172.882 40.6364 172.652C40.9177 172.459 41.0919 172.223 41.1589 171.944C41.2172 171.671 41.2202 171.365 41.1681 171.025C41.1011 170.683 41.0147 170.322 40.9087 169.941C40.7967 169.552 40.7008 169.159 40.6212 168.761C40.5356 168.353 40.5107 167.95 40.5464 167.55C40.5673 167.147 40.6861 166.755 40.9026 166.373C41.1191 165.992 41.4734 165.631 41.9657 165.293C42.792 164.725 43.6493 164.57 44.5376 164.826C45.4199 165.074 46.2023 165.695 46.8851 166.688Z" fill="white"/>
<path d="M40.7324 156.922L30.5925 161.678L29.8111 160.012L39.951 155.256L40.7324 156.922ZM37.7087 150.476L27.5688 155.232L26.7874 153.566L36.9273 148.81L37.7087 150.476ZM35.7051 157.884L34.1841 158.597L31.5273 152.933L33.0483 152.22L35.7051 157.884Z" fill="white"/>
<path d="M29.2601 104.86C29.1575 105.739 28.9115 106.468 28.5219 107.045C28.1324 107.623 27.602 108.119 26.9306 108.535L25.8356 107.151C26.3164 106.895 26.7087 106.571 27.0124 106.176C27.3055 105.781 27.4904 105.255 27.567 104.598C27.6387 103.984 27.5684 103.481 27.3561 103.092C27.1451 102.691 26.8171 102.465 26.3721 102.413C26.0013 102.37 25.6882 102.43 25.4329 102.593C25.1775 102.757 24.9572 102.989 24.7718 103.289C24.577 103.578 24.3991 103.906 24.2381 104.274C24.0677 104.63 23.8861 104.99 23.6933 105.354C23.4911 105.707 23.255 106.028 22.9848 106.319C22.7159 106.599 22.3849 106.813 21.9918 106.96C21.5988 107.108 21.1162 107.148 20.544 107.081C19.8872 107.005 19.3495 106.781 18.931 106.41C18.5031 106.027 18.1995 105.546 18.02 104.967C17.8406 104.387 17.7904 103.759 17.8695 103.08C17.9548 102.349 18.1738 101.714 18.5266 101.176C18.8806 100.626 19.3011 100.198 19.7881 99.8892L20.8832 101.273C20.4859 101.549 20.1821 101.852 19.9718 102.182C19.7521 102.5 19.6163 102.881 19.5644 103.326C19.5002 103.877 19.5608 104.325 19.7462 104.669C19.9328 105.002 20.2275 105.192 20.6301 105.239C20.9691 105.278 21.2557 105.215 21.4898 105.049C21.7134 104.882 21.9172 104.653 22.1014 104.363C22.2762 104.062 22.4488 103.733 22.6192 103.377C22.7908 103.01 22.9777 102.651 23.1799 102.298C23.3833 101.935 23.6301 101.615 23.9202 101.338C24.2009 101.048 24.5484 100.831 24.9627 100.686C25.3769 100.541 25.8807 100.503 26.474 100.572C27.4699 100.689 28.2179 101.136 28.7178 101.913C29.2189 102.681 29.3997 103.663 29.2601 104.86Z" fill="white"/>
<path d="M31.1561 92.4987L20.4637 89.1652L21.0113 87.4086L31.7037 90.7421L31.1561 92.4987ZM33.2753 85.7014L22.5828 82.3679L23.1305 80.6113L33.8229 83.9448L33.2753 85.7014ZM26.7971 89.8158L25.1932 89.3157L27.0552 83.3433L28.6591 83.8433L26.7971 89.8158Z" fill="white"/>
<path d="M36.7178 77.5324L29.0414 68.1652L29.6482 67.0382L41.679 68.3193L40.7383 70.0661L31.0515 68.9205L31.3701 68.3288L37.6433 75.8138L36.7178 77.5324ZM35.8932 74.5079L34.4845 73.7493L37.2988 68.5229L38.7076 69.2815L35.8932 74.5079Z" fill="white"/>
<path d="M42.3332 58.5655L41.1567 57.603L42.95 55.4111C43.308 54.9736 43.4735 54.5439 43.4464 54.1221C43.4179 53.6853 43.2014 53.3015 42.7968 52.9705C42.4336 52.6733 42.0302 52.5431 41.5866 52.5799C41.1431 52.6167 40.7423 52.8539 40.3843 53.2914L38.5809 55.4957L37.3426 54.4825L39.1966 52.2163C39.6424 51.6715 40.1456 51.2838 40.7063 51.0534C41.2586 50.8162 41.8159 50.7415 42.378 50.8293C42.9386 50.9021 43.4584 51.1344 43.9372 51.5261C44.4408 51.9381 44.7838 52.4117 44.9662 52.9468C45.1553 53.4737 45.1842 54.0279 45.0529 54.6096C44.9216 55.1912 44.633 55.7545 44.1872 56.2993L42.3332 58.5655ZM45.2107 62.5529L36.5422 55.4608L37.7073 54.0367L46.3758 61.1288L45.2107 62.5529ZM49.1012 57.7976L42.8544 57.7516L43.4555 56.0314L50.5703 56.002L49.1012 57.7976Z" fill="white"/>
<path d="M56.2472 50.1314L49.0891 41.5173L50.0735 40.6993L58.5527 43.618L57.9128 44.1498L56.5956 35.2796L57.58 34.4615L64.7381 43.0755L63.323 44.2515L58.2305 38.1232L58.622 37.9435L59.5942 44.5208L58.6097 45.3389L52.3215 43.1792L52.5698 42.8271L57.6623 48.9554L56.2472 50.1314Z" fill="white"/>
<path d="M68.719 40.4408L67.374 28.4048L68.4963 27.7894L77.894 35.4094L76.1544 36.3633L68.6497 30.1322L69.239 29.8091L70.4305 39.5022L68.719 40.4408ZM69.6725 37.4544L68.9032 36.0515L74.1079 33.1973L74.8773 34.6002L69.6725 37.4544Z" fill="white"/>
<path d="M141.176 29.0835L141.647 27.5545L144.323 28.379C144.69 28.492 145.033 28.5196 145.352 28.4617C145.685 28.3968 145.973 28.2569 146.218 28.0421C146.466 27.8171 146.646 27.5211 146.76 27.1542C146.873 26.7872 146.888 26.4461 146.807 26.1308C146.729 25.8053 146.569 25.5272 146.327 25.2966C146.099 25.0588 145.802 24.8835 145.435 24.7704L142.759 23.9459L143.23 22.4168L145.998 23.2696C146.67 23.4769 147.229 23.7998 147.675 24.2384C148.13 24.6801 148.434 25.1978 148.586 25.7915C148.748 26.3884 148.725 27.0232 148.518 27.696C148.311 28.3688 147.972 28.9062 147.502 29.3084C147.042 29.7136 146.5 29.9706 145.875 30.0794C145.26 30.1913 144.616 30.1436 143.943 29.9363L141.176 29.0835ZM138.724 32.748L142.022 22.0446L143.781 22.5864L140.483 33.2898L138.724 32.748Z" fill="white"/>
<path d="M155.836 33.9569L156.53 32.6043L159.05 33.8962C159.553 34.1541 160.008 34.2255 160.414 34.1103C160.835 33.9905 161.165 33.6981 161.404 33.233C161.618 32.8153 161.66 32.3936 161.531 31.9677C161.402 31.5418 161.085 31.1999 160.582 30.942L158.048 29.6428L158.778 28.2189L161.383 29.5547C162.01 29.8759 162.495 30.2862 162.838 30.7858C163.186 31.2759 163.376 31.805 163.409 32.373C163.456 32.9364 163.338 33.4934 163.056 34.0439C162.759 34.6229 162.368 35.0579 161.883 35.3488C161.408 35.6445 160.872 35.7894 160.276 35.7834C159.68 35.7774 159.068 35.6138 158.442 35.2926L155.836 33.9569ZM152.544 37.6089L157.653 27.6423L159.29 28.4817L154.181 38.4483L152.544 37.6089ZM158.011 40.4118L156.742 34.2952L158.55 34.5209L160.076 41.4702L158.011 40.4118Z" fill="white"/>
<path d="M170.125 48.5551C169.496 48.0611 169.001 47.4827 168.64 46.8196C168.279 46.1566 168.054 45.4582 167.966 44.7243C167.884 43.9821 167.94 43.2461 168.133 42.5163C168.341 41.7846 168.692 41.1042 169.186 40.4749C169.68 39.8456 170.254 39.3471 170.909 38.9796C171.572 38.6186 172.266 38.3906 172.991 38.2955C173.732 38.1987 174.46 38.2478 175.174 38.4427C175.904 38.6359 176.584 38.9794 177.213 39.4733C177.842 39.9673 178.333 40.5425 178.686 41.1989C179.053 41.8535 179.278 42.552 179.36 43.2942C179.448 44.0281 179.389 44.7608 179.18 45.4924C178.987 46.2222 178.644 46.9018 178.15 47.5311C177.656 48.1604 177.074 48.6597 176.405 49.0291C175.75 49.3967 175.056 49.6247 174.322 49.7131C173.596 49.8081 172.869 49.7591 172.139 49.5659C171.417 49.3794 170.746 49.0424 170.125 48.5551ZM171.187 47.1508C171.783 47.6184 172.408 47.8925 173.064 47.9731C173.728 48.0602 174.37 47.9676 174.99 47.6953C175.626 47.4212 176.187 46.9737 176.675 46.3528C177.037 45.8913 177.291 45.4125 177.436 44.9164C177.596 44.4184 177.651 43.9256 177.6 43.438C177.555 42.942 177.407 42.4735 177.157 42.0327C176.915 41.5985 176.571 41.2069 176.126 40.8578C175.539 40.3968 174.913 40.1227 174.25 40.0356C173.601 39.9467 172.962 40.035 172.333 40.3008C171.712 40.5731 171.158 41.0197 170.671 41.6406C170.309 42.1021 170.044 42.586 169.877 43.0923C169.725 43.5968 169.671 44.0896 169.714 44.5707C169.765 45.0583 169.912 45.5267 170.156 45.9759C170.407 46.4167 170.751 46.8084 171.187 47.1508Z" fill="white"/>
<path d="M180.369 57.6527L181.645 56.5603L183.559 58.7968C184.059 59.3803 184.621 59.7833 185.247 60.0058C185.88 60.2365 186.523 60.2826 187.177 60.1442C187.846 60.007 188.476 59.6852 189.067 59.1789C189.651 58.6795 190.058 58.1134 190.289 57.4807C190.519 56.848 190.569 56.2013 190.439 55.5406C190.316 54.888 190.008 54.274 189.515 53.6986L187.601 51.4621L188.877 50.3696L190.823 52.6427C191.35 53.2585 191.73 53.9234 191.962 54.6374C192.202 55.3445 192.294 56.059 192.238 56.7809C192.197 57.504 192.011 58.1969 191.679 58.8596C191.356 59.5154 190.891 60.1034 190.283 60.6236C189.683 61.1369 189.031 61.5061 188.325 61.7312C187.619 61.9563 186.905 62.0409 186.183 61.9849C185.469 61.9219 184.777 61.7207 184.108 61.3813C183.446 61.0349 182.855 60.5578 182.335 59.9501L180.369 57.6527ZM179.547 56.6925L188.055 49.4094L189.252 50.8072L180.743 58.0903L179.547 56.6925Z" fill="white"/>
<path d="M191.822 73.5815C191.406 72.8486 191.199 72.0952 191.201 71.3212C191.203 70.5472 191.395 69.8254 191.775 69.1557C192.17 68.4901 192.734 67.9493 193.467 67.5334L199.506 64.106L200.414 65.7062L194.389 69.1257C193.916 69.3942 193.558 69.7259 193.316 70.1208C193.089 70.5197 192.975 70.946 192.975 71.3999C192.984 71.8484 193.11 72.286 193.352 72.7128C193.6 73.1488 193.911 73.4811 194.286 73.7098C194.67 73.9332 195.09 74.0449 195.543 74.0449C196.006 74.0396 196.47 73.9054 196.934 73.6422L202.973 70.2147L203.881 71.815L197.828 75.2503C197.095 75.6662 196.346 75.8704 195.582 75.8629C194.817 75.8553 194.104 75.6587 193.444 75.2731C192.784 74.8875 192.243 74.3236 191.822 73.5815Z" fill="white"/>
<path d="M198.912 89.4026C198.649 88.6357 198.542 87.8776 198.59 87.1284C198.651 86.3858 198.846 85.6876 199.174 85.0338C199.513 84.3766 199.965 83.8044 200.531 83.3173C201.107 82.8268 201.774 82.4518 202.53 82.1925C203.287 81.9332 204.038 81.8224 204.784 81.86C205.54 81.8942 206.248 82.0687 206.909 82.3837C207.569 82.6986 208.151 83.1306 208.655 83.6796C209.162 84.2387 209.547 84.9017 209.81 85.6686C210.104 86.5263 210.217 87.3164 210.149 88.0388C210.08 88.7612 209.887 89.4476 209.569 90.0979L207.984 89.3218C208.22 88.8915 208.356 88.4164 208.392 87.8966C208.431 87.3869 208.349 86.8344 208.145 86.239C207.965 85.7143 207.71 85.2661 207.38 84.8945C207.05 84.5228 206.658 84.2343 206.204 84.0289C205.764 83.8302 205.282 83.7246 204.759 83.7121C204.236 83.6996 203.697 83.7884 203.142 83.9786C202.587 84.1688 202.107 84.4291 201.702 84.7597C201.296 85.0903 200.976 85.4708 200.74 85.9011C200.517 86.3381 200.39 86.8047 200.357 87.3009C200.324 87.797 200.397 88.3074 200.577 88.8321C200.798 89.478 201.081 89.99 201.425 90.3683C201.782 90.7532 202.186 91.0433 202.636 91.2386L201.86 92.8237C201.2 92.5088 200.616 92.0718 200.109 91.5127C199.601 90.9536 199.203 90.2502 198.912 89.4026Z" fill="white"/>
<path d="M202.29 102.322L213.039 100.639L213.323 102.457L202.574 104.14L202.29 102.322ZM211.131 97.2453L212.791 96.9855L214.204 106.012L212.544 106.271L211.131 97.2453Z" fill="white"/>
<path d="M203.232 124.139L204.898 124.351L204.526 127.272C204.429 128.034 204.508 128.721 204.764 129.334C205.018 129.958 205.415 130.466 205.957 130.857C206.508 131.261 207.169 131.512 207.942 131.61C208.703 131.707 209.396 131.629 210.02 131.375C210.644 131.121 211.157 130.724 211.559 130.184C211.96 129.654 212.208 129.014 212.304 128.262L212.676 125.342L214.342 125.554L213.964 128.522C213.862 129.326 213.624 130.054 213.25 130.706C212.888 131.358 212.42 131.906 211.847 132.349C211.284 132.805 210.646 133.132 209.932 133.331C209.229 133.532 208.481 133.582 207.687 133.481C206.904 133.381 206.192 133.145 205.551 132.773C204.911 132.401 204.369 131.929 203.925 131.356C203.493 130.785 203.177 130.138 202.979 129.413C202.792 128.691 202.749 127.932 202.85 127.139L203.232 124.139ZM203.392 122.885L214.502 124.3L214.269 126.126L203.159 124.71L203.392 122.885Z" fill="white"/>
<path d="M200.57 139.275L211.245 142.662L210.689 144.416L200.013 141.029L200.57 139.275ZM200.188 140.48L201.789 140.988L199.892 146.967L198.291 146.459L200.188 140.48ZM204.87 141.965L206.41 142.454L204.678 147.914L203.138 147.425L204.87 141.965ZM209.262 143.359L210.863 143.867L208.991 149.769L207.39 149.261L209.262 143.359Z" fill="white"/>
<path d="M193.988 155.764C194.39 154.974 194.874 154.377 195.439 153.971C196.005 153.564 196.675 153.283 197.449 153.126L197.995 154.804C197.456 154.877 196.975 155.045 196.553 155.309C196.141 155.578 195.785 156.008 195.485 156.597C195.205 157.148 195.096 157.644 195.16 158.083C195.219 158.532 195.448 158.858 195.847 159.061C196.18 159.23 196.494 159.283 196.79 159.218C197.087 159.153 197.374 159.012 197.652 158.795C197.935 158.592 198.216 158.346 198.495 158.057C198.778 157.782 199.073 157.507 199.381 157.233C199.692 156.973 200.026 156.753 200.38 156.574C200.729 156.405 201.114 156.32 201.534 156.318C201.953 156.316 202.42 156.446 202.933 156.707C203.523 157.007 203.949 157.403 204.213 157.897C204.481 158.404 204.599 158.961 204.566 159.566C204.533 160.172 204.362 160.779 204.052 161.387C203.719 162.043 203.293 162.563 202.775 162.945C202.252 163.338 201.709 163.594 201.145 163.714L200.599 162.036C201.067 161.915 201.457 161.736 201.769 161.5C202.085 161.278 202.345 160.967 202.548 160.568C202.8 160.074 202.898 159.633 202.844 159.246C202.785 158.869 202.574 158.589 202.213 158.405C201.909 158.25 201.618 158.21 201.341 158.284C201.073 158.363 200.803 158.507 200.529 158.715C200.261 158.937 199.984 159.186 199.701 159.46C199.413 159.745 199.113 160.017 198.801 160.277C198.484 160.547 198.142 160.761 197.773 160.921C197.409 161.095 197.008 161.178 196.569 161.17C196.13 161.162 195.645 161.023 195.112 160.752C194.219 160.297 193.673 159.618 193.474 158.715C193.27 157.822 193.442 156.838 193.988 155.764Z" fill="white"/>
<path d="M188.779 164.989L197.984 171.369L196.936 172.881L187.731 166.502L188.779 164.989Z" fill="white"/>
<path d="M179.441 176.355C179.973 175.801 180.582 175.38 181.27 175.094C181.958 174.808 182.668 174.66 183.399 174.652C184.139 174.651 184.862 174.783 185.569 175.047C186.277 175.326 186.919 175.742 187.497 176.296C188.075 176.849 188.514 177.47 188.816 178.157C189.11 178.853 189.268 179.566 189.292 180.297C189.315 181.044 189.191 181.767 188.919 182.467C188.648 183.182 188.232 183.832 187.671 184.417C187.059 185.056 186.367 185.531 185.597 185.842C184.827 186.153 184.037 186.275 183.228 186.21L183.191 184.445C183.758 184.531 184.322 184.459 184.883 184.228C185.452 184.004 185.958 183.662 186.4 183.2C186.932 182.645 187.277 182.038 187.436 181.378C187.596 180.733 187.571 180.089 187.361 179.445C187.151 178.8 186.761 178.205 186.191 177.659C185.621 177.113 185.006 176.745 184.345 176.556C183.685 176.381 183.04 176.376 182.41 176.541C181.78 176.705 181.221 177.041 180.734 177.55C180.218 178.089 179.871 178.643 179.695 179.213C179.519 179.797 179.524 180.378 179.71 180.955C179.903 181.539 180.285 182.105 180.855 182.651L179.457 182.907L182.767 179.452L183.98 180.615L180.15 184.612L179.965 184.435C179.002 183.513 178.367 182.572 178.06 181.613C177.746 180.662 177.714 179.738 177.967 178.842C178.219 177.947 178.711 177.118 179.441 176.355Z" fill="white"/>
<path d="M170.304 184.973L176.818 194.084L175.321 195.154L168.807 186.043L170.304 184.973ZM169.275 185.708L170.252 187.075L165.15 190.723L164.173 189.356L169.275 185.708ZM172.132 189.704L173.072 191.019L168.413 194.35L167.473 193.036L172.132 189.704ZM174.812 193.452L175.789 194.819L170.753 198.42L169.775 197.054L174.812 193.452Z" fill="white"/>
<path d="M158.969 197.851L159.625 199.223L157.07 200.444C156.56 200.688 156.227 201.007 156.072 201.4C155.912 201.807 155.945 202.247 156.17 202.718C156.373 203.142 156.683 203.431 157.1 203.586C157.517 203.742 157.98 203.698 158.49 203.454L161.06 202.225L161.75 203.669L159.108 204.932C158.473 205.235 157.853 205.372 157.247 205.342C156.647 205.322 156.111 205.153 155.639 204.834C155.163 204.53 154.791 204.099 154.524 203.541C154.244 202.954 154.135 202.379 154.197 201.817C154.25 201.26 154.459 200.746 154.825 200.276C155.192 199.805 155.692 199.418 156.328 199.114L158.969 197.851ZM158.06 193.019L162.89 203.124L161.23 203.917L156.4 193.813L158.06 193.019ZM152.517 195.669L158.151 198.367L156.876 199.668L150.424 196.669L152.517 195.669Z" fill="white"/>
<g filter="url(#filter0_b_708_3714)">
<circle cx="116.5" cy="116.5" r="68.5" fill="black"/>
<circle cx="116.5" cy="116.5" r="68" stroke="white"/>
</g>
<g clip-path="url(#clip1_708_3714)">
<path d="M114.807 21.8257L112.689 21.644C111.735 21.5656 110.818 21.2438 110.025 20.7095C109.231 20.1752 108.588 19.4462 108.157 18.5923L107.192 16.6976C107.149 16.633 107.089 16.5825 107.017 16.5526C106.946 16.5226 106.867 16.5145 106.791 16.5293C106.716 16.5442 106.646 16.5812 106.591 16.6358C106.536 16.6903 106.499 16.76 106.484 16.8358L106.302 18.9543C106.224 19.9077 105.902 20.825 105.368 21.6185C104.833 22.4119 104.104 23.055 103.25 23.4861L101.356 24.4512C101.283 24.4881 101.224 24.5477 101.188 24.621C101.152 24.6944 101.142 24.7774 101.157 24.8575C101.173 24.9376 101.214 25.0104 101.275 25.0648C101.336 25.1193 101.412 25.1525 101.494 25.1593L103.612 25.3411C104.566 25.4195 105.483 25.7412 106.276 26.2755C107.07 26.8098 107.713 27.5388 108.144 28.3928L109.109 30.2875C109.146 30.3603 109.206 30.419 109.279 30.4548C109.352 30.4906 109.435 30.5016 109.515 30.4859C109.596 30.4703 109.668 30.429 109.723 30.3682C109.777 30.3074 109.81 30.2306 109.817 30.1493L109.999 28.0307C110.078 27.0773 110.399 26.16 110.934 25.3666C111.468 24.5731 112.197 23.9301 113.051 23.499L114.945 22.5339C115.018 22.497 115.077 22.4373 115.113 22.364C115.149 22.2907 115.16 22.2077 115.144 22.1276C115.128 22.0475 115.087 21.9747 115.026 21.9202C114.965 21.8657 114.889 21.8326 114.807 21.8257Z" fill="white"/>
</g>
<g clip-path="url(#clip2_708_3714)">
<path d="M131.827 206.739L129.708 206.564C128.754 206.489 127.836 206.17 127.04 205.639C126.245 205.107 125.599 204.38 125.165 203.528L124.194 201.636C124.151 201.572 124.09 201.522 124.019 201.492C123.948 201.462 123.869 201.454 123.793 201.47C123.717 201.485 123.648 201.522 123.593 201.577C123.538 201.631 123.501 201.701 123.486 201.777L123.312 203.896C123.237 204.85 122.918 205.768 122.386 206.563C121.855 207.359 121.128 208.004 120.275 208.438L118.384 209.41C118.311 209.447 118.253 209.507 118.217 209.58C118.182 209.654 118.171 209.737 118.187 209.817C118.203 209.897 118.244 209.969 118.305 210.024C118.366 210.078 118.443 210.111 118.524 210.117L120.644 210.292C121.597 210.367 122.516 210.686 123.311 211.217C124.106 211.749 124.752 212.476 125.186 213.328L126.157 215.22C126.194 215.292 126.254 215.351 126.328 215.387C126.401 215.422 126.484 215.433 126.564 215.417C126.644 215.401 126.717 215.359 126.771 215.298C126.825 215.237 126.858 215.161 126.865 215.079L127.039 212.96C127.115 212.006 127.433 211.088 127.965 210.293C128.497 209.498 129.223 208.852 130.076 208.418L131.967 207.447C132.04 207.409 132.098 207.35 132.134 207.276C132.17 207.203 132.18 207.12 132.164 207.04C132.148 206.96 132.107 206.887 132.046 206.833C131.985 206.778 131.908 206.745 131.827 206.739Z" fill="white"/>
</g>
</g>
<rect x="0.5" y="0.5" width="232" height="232" rx="116" stroke="white"/>
<defs>
<filter id="filter0_b_708_3714" x="34" y="34" width="165" height="165" filterUnits="userSpaceOnUse" color-interpolation-filters="sRGB">
<feFlood flood-opacity="0" result="BackgroundImageFix"/>
<feGaussianBlur in="BackgroundImageFix" stdDeviation="7"/>
<feComposite in2="SourceAlpha" operator="in" result="effect1_backgroundBlur_708_3714"/>
<feBlend mode="normal" in="SourceGraphic" in2="effect1_backgroundBlur_708_3714" result="shape"/>
</filter>
<clipPath id="clip0_708_3714">
<rect width="233" height="233" rx="116.5" fill="white"/>
</clipPath>
<clipPath id="clip1_708_3714">
<rect width="18" height="18" fill="white" transform="translate(97.9426 16.8909) rotate(-11.0439)"/>
</clipPath>
<clipPath id="clip2_708_3714">
<rect width="18" height="18" fill="white" transform="translate(114.919 202.122) rotate(-11.237)"/>
</clipPath>
</defs>
</svg>
