<svg width="234" height="233" viewBox="0 0 234 233" fill="none" xmlns="http://www.w3.org/2000/svg">
<g clip-path="url(#clip0_655_4068)">
<rect x="0.5" width="233" height="233" rx="116.5" fill="black"/>
<path d="M96.7273 201.153L96.2439 202.762L93.4244 201.915C92.6889 201.694 91.9977 201.659 91.3509 201.809C90.6939 201.957 90.1278 202.266 89.6525 202.736C89.1639 203.213 88.8076 203.824 88.5835 204.57C88.3625 205.305 88.3259 206.002 88.4738 206.659C88.6216 207.316 88.9289 207.887 89.3956 208.372C89.8521 208.855 90.443 209.205 91.1683 209.423L93.9877 210.27L93.5043 211.879L90.6388 211.018C89.8625 210.785 89.1837 210.43 88.6026 209.955C88.0184 209.49 87.5548 208.939 87.2118 208.301C86.8555 207.67 86.6377 206.987 86.5583 206.25C86.4759 205.524 86.5498 204.777 86.78 204.011C87.0071 203.255 87.3568 202.592 87.8291 202.021C88.3014 201.45 88.8563 200.993 89.494 200.65C90.1286 200.317 90.8194 200.113 91.5663 200.036C92.3101 199.97 93.0651 200.052 93.8312 200.283L96.7273 201.153ZM97.9378 201.517L94.7148 212.243L92.9526 211.713L96.1757 200.987L97.9378 201.517Z" fill="white"/>
<path d="M82.2347 196.038L77.1387 206.011L75.5002 205.174L80.5961 195.2L82.2347 196.038ZM81.1091 195.463L80.3447 196.959L74.7595 194.105L75.5239 192.609L81.1091 195.463ZM78.8742 199.837L78.1389 201.276L73.0381 198.67L73.7734 197.23L78.8742 199.837ZM76.7775 203.94L76.0132 205.436L70.4992 202.619L71.2636 201.123L76.7775 203.94Z" fill="white"/>
<path d="M66.5048 186.628L63.43 198.311L61.8277 197.114L64.4237 187.729L64.9878 188.151L56.7002 193.284L55.1235 192.106L65.4793 185.862L66.5048 186.628Z" fill="white"/>
<path d="M58.0975 179.572L50.0235 187.334L48.7483 186.008L56.8223 178.246L58.0975 179.572ZM57.2215 178.661L56.0104 179.825L51.6637 175.304L52.8748 174.139L57.2215 178.661ZM53.6805 182.065L52.5155 183.185L48.5458 179.056L49.7107 177.936L53.6805 182.065ZM50.3586 185.259L49.1475 186.423L44.8562 181.959L46.0673 180.795L50.3586 185.259Z" fill="white"/>
<path d="M47.385 166.688C47.8865 167.418 48.1806 168.128 48.2673 168.819C48.354 169.51 48.2814 170.233 48.0494 170.988L46.314 170.666C46.508 170.158 46.5897 169.655 46.559 169.158C46.5195 168.668 46.3125 168.15 45.9379 167.605C45.5874 167.095 45.204 166.763 44.7876 166.609C44.3652 166.447 43.9694 166.492 43.6002 166.746C43.2925 166.958 43.0963 167.209 43.0117 167.5C42.9271 167.791 42.9138 168.111 42.972 168.459C43.0154 168.805 43.0975 169.169 43.2183 169.552C43.3242 169.932 43.4244 170.323 43.5189 170.724C43.5985 171.122 43.6322 171.519 43.6201 171.916C43.6019 172.304 43.4933 172.683 43.2944 173.052C43.0955 173.422 42.7587 173.77 42.284 174.096C41.739 174.471 41.1869 174.656 40.6276 174.652C40.0535 174.646 39.5083 174.483 38.992 174.165C38.4756 173.847 38.0241 173.407 37.6374 172.844C37.2205 172.237 36.9676 171.615 36.8787 170.977C36.7838 170.331 36.8182 169.731 36.982 169.179L38.7174 169.5C38.5997 169.969 38.5703 170.397 38.629 170.784C38.6729 171.168 38.8217 171.545 39.0755 171.914C39.3897 172.371 39.7297 172.668 40.0955 172.805C40.4553 172.933 40.8023 172.882 41.1363 172.652C41.4176 172.459 41.5918 172.223 41.6589 171.944C41.7171 171.671 41.7202 171.365 41.668 171.025C41.6011 170.683 41.5146 170.322 41.4086 169.941C41.2966 169.552 41.2008 169.159 41.1212 168.761C41.0355 168.353 41.0106 167.95 41.0464 167.55C41.0673 167.147 41.186 166.755 41.4025 166.373C41.619 165.992 41.9734 165.631 42.4657 165.293C43.292 164.725 44.1493 164.57 45.0376 164.826C45.9198 165.074 46.7023 165.695 47.385 166.688Z" fill="white"/>
<path d="M41.2324 156.922L31.0925 161.678L30.3111 160.012L40.451 155.256L41.2324 156.922ZM38.2087 150.476L28.0688 155.232L27.2874 153.566L37.4273 148.81L38.2087 150.476ZM36.2051 157.884L34.6841 158.597L32.0273 152.933L33.5483 152.22L36.2051 157.884Z" fill="white"/>
<path d="M29.76 104.86C29.6575 105.739 29.4114 106.468 29.0219 107.045C28.6324 107.623 28.102 108.119 27.4306 108.535L26.3356 107.151C26.8164 106.895 27.2087 106.571 27.5124 106.176C27.8055 105.781 27.9904 105.255 28.067 104.598C28.1387 103.984 28.0684 103.481 27.8561 103.092C27.6451 102.691 27.3171 102.465 26.8721 102.413C26.5013 102.37 26.1882 102.43 25.9329 102.593C25.6775 102.757 25.4572 102.989 25.2718 103.289C25.077 103.578 24.8991 103.906 24.7381 104.274C24.5677 104.63 24.3861 104.99 24.1933 105.354C23.9911 105.707 23.7549 106.028 23.4848 106.319C23.2159 106.599 22.8849 106.813 22.4918 106.96C22.0987 107.108 21.6162 107.148 21.044 107.081C20.3871 107.005 19.8495 106.781 19.4309 106.41C19.0031 106.027 18.6994 105.546 18.52 104.967C18.3406 104.387 18.2904 103.759 18.3695 103.08C18.4548 102.349 18.6738 101.714 19.0266 101.176C19.3806 100.626 19.8011 100.198 20.2881 99.8892L21.3831 101.273C20.9859 101.549 20.6821 101.852 20.4718 102.182C20.2521 102.5 20.1163 102.881 20.0644 103.326C20.0002 103.877 20.0607 104.325 20.2462 104.669C20.4328 105.002 20.7275 105.192 21.1301 105.239C21.4691 105.278 21.7557 105.215 21.9898 105.049C22.2134 104.882 22.4172 104.653 22.6014 104.363C22.7762 104.062 22.9488 103.733 23.1192 103.377C23.2908 103.01 23.4777 102.651 23.6799 102.298C23.8833 101.935 24.13 101.615 24.4202 101.338C24.7009 101.048 25.0484 100.831 25.4627 100.686C25.8769 100.541 26.3807 100.503 26.974 100.572C27.9699 100.689 28.7178 101.136 29.2178 101.913C29.7189 102.681 29.8997 103.663 29.76 104.86Z" fill="white"/>
<path d="M31.6561 92.4987L20.9637 89.1652L21.5114 87.4086L32.2038 90.7421L31.6561 92.4987ZM33.7753 85.7014L23.0829 82.3679L23.6305 80.6113L34.3229 83.9448L33.7753 85.7014ZM27.2971 89.8158L25.6933 89.3157L27.5553 83.3433L29.1591 83.8433L27.2971 89.8158Z" fill="white"/>
<path d="M37.2179 77.5324L29.5415 68.1652L30.1483 67.0382L42.1791 68.3193L41.2384 70.0661L31.5516 68.9205L31.8702 68.3288L38.1434 75.8138L37.2179 77.5324ZM36.3933 74.5079L34.9846 73.7493L37.7989 68.5229L39.2077 69.2815L36.3933 74.5079Z" fill="white"/>
<path d="M42.8332 58.5655L41.6567 57.603L43.45 55.4111C43.808 54.9736 43.9735 54.5439 43.9464 54.1221C43.9179 53.6853 43.7014 53.3015 43.2968 52.9705C42.9336 52.6733 42.5302 52.5431 42.0866 52.5799C41.6431 52.6167 41.2423 52.8539 40.8843 53.2914L39.0809 55.4957L37.8426 54.4825L39.6966 52.2163C40.1424 51.6715 40.6456 51.2838 41.2063 51.0534C41.7586 50.8162 42.3159 50.7415 42.878 50.8293C43.4386 50.9021 43.9584 51.1344 44.4372 51.5261C44.9408 51.9381 45.2838 52.4117 45.4662 52.9468C45.6553 53.4737 45.6842 54.0279 45.5529 54.6096C45.4216 55.1912 45.133 55.7545 44.6872 56.2993L42.8332 58.5655ZM45.7107 62.5529L37.0422 55.4608L38.2073 54.0367L46.8758 61.1288L45.7107 62.5529ZM49.6012 57.7976L43.3544 57.7516L43.9555 56.0314L51.0703 56.002L49.6012 57.7976Z" fill="white"/>
<path d="M56.7472 50.1314L49.5891 41.5173L50.5735 40.6993L59.0527 43.618L58.4128 44.1498L57.0956 35.2796L58.08 34.4615L65.2381 43.0755L63.823 44.2515L58.7305 38.1232L59.122 37.9435L60.0942 44.5208L59.1097 45.3389L52.8215 43.1792L53.0698 42.8271L58.1623 48.9554L56.7472 50.1314Z" fill="white"/>
<path d="M69.219 40.4408L67.874 28.4048L68.9964 27.7894L78.394 35.4094L76.6544 36.3633L69.1498 30.1322L69.739 29.8091L70.9306 39.5022L69.219 40.4408ZM70.1725 37.4544L69.4032 36.0515L74.608 33.1973L75.3773 34.6002L70.1725 37.4544Z" fill="white"/>
<path d="M141.676 29.0835L142.147 27.5545L144.823 28.379C145.19 28.492 145.533 28.5196 145.852 28.4617C146.185 28.3968 146.473 28.2569 146.718 28.0421C146.966 27.8171 147.146 27.5211 147.26 27.1542C147.373 26.7872 147.388 26.4461 147.307 26.1308C147.229 25.8053 147.069 25.5272 146.827 25.2966C146.599 25.0588 146.302 24.8835 145.935 24.7704L143.259 23.9459L143.73 22.4168L146.498 23.2696C147.17 23.4769 147.729 23.7998 148.175 24.2384C148.63 24.6801 148.934 25.1978 149.086 25.7915C149.248 26.3884 149.225 27.0232 149.018 27.696C148.811 28.3688 148.472 28.9062 148.002 29.3084C147.542 29.7136 147 29.9706 146.375 30.0794C145.76 30.1913 145.116 30.1436 144.443 29.9363L141.676 29.0835ZM139.224 32.748L142.522 22.0446L144.281 22.5864L140.983 33.2898L139.224 32.748Z" fill="white"/>
<path d="M156.336 33.9569L157.03 32.6043L159.55 33.8962C160.053 34.1541 160.508 34.2255 160.914 34.1103C161.335 33.9905 161.665 33.6981 161.904 33.233C162.118 32.8153 162.16 32.3936 162.031 31.9677C161.902 31.5418 161.585 31.1999 161.082 30.942L158.548 29.6428L159.278 28.2189L161.883 29.5547C162.51 29.8759 162.995 30.2862 163.338 30.7858C163.686 31.2759 163.876 31.805 163.909 32.373C163.956 32.9364 163.838 33.4934 163.556 34.0439C163.259 34.6229 162.868 35.0579 162.383 35.3488C161.908 35.6445 161.372 35.7894 160.776 35.7834C160.18 35.7774 159.568 35.6138 158.942 35.2926L156.336 33.9569ZM153.044 37.6089L158.153 27.6423L159.79 28.4817L154.681 38.4483L153.044 37.6089ZM158.511 40.4118L157.242 34.2952L159.05 34.5209L160.576 41.4702L158.511 40.4118Z" fill="white"/>
<path d="M170.625 48.5551C169.996 48.0611 169.501 47.4827 169.14 46.8196C168.779 46.1566 168.554 45.4582 168.466 44.7243C168.384 43.9821 168.44 43.2461 168.633 42.5163C168.841 41.7846 169.192 41.1042 169.686 40.4749C170.18 39.8456 170.754 39.3471 171.409 38.9796C172.072 38.6186 172.766 38.3906 173.491 38.2955C174.232 38.1987 174.96 38.2478 175.674 38.4427C176.404 38.6359 177.084 38.9794 177.713 39.4733C178.342 39.9673 178.833 40.5425 179.186 41.1989C179.553 41.8535 179.778 42.552 179.86 43.2942C179.948 44.0281 179.889 44.7608 179.68 45.4924C179.487 46.2222 179.144 46.9018 178.65 47.5311C178.156 48.1604 177.574 48.6597 176.905 49.0291C176.25 49.3967 175.556 49.6247 174.822 49.7131C174.096 49.8081 173.369 49.7591 172.639 49.5659C171.917 49.3794 171.246 49.0424 170.625 48.5551ZM171.687 47.1508C172.283 47.6184 172.908 47.8925 173.564 47.9731C174.228 48.0602 174.87 47.9676 175.49 47.6953C176.126 47.4212 176.687 46.9737 177.175 46.3528C177.537 45.8913 177.791 45.4125 177.936 44.9164C178.096 44.4184 178.151 43.9256 178.1 43.438C178.055 42.942 177.907 42.4735 177.657 42.0327C177.415 41.5985 177.071 41.2069 176.626 40.8578C176.039 40.3968 175.413 40.1227 174.75 40.0356C174.101 39.9467 173.462 40.035 172.833 40.3008C172.212 40.5731 171.658 41.0197 171.171 41.6406C170.809 42.1021 170.544 42.586 170.377 43.0923C170.225 43.5968 170.171 44.0896 170.214 44.5707C170.265 45.0583 170.412 45.5267 170.656 45.9759C170.907 46.4167 171.251 46.8084 171.687 47.1508Z" fill="white"/>
<path d="M180.869 57.6527L182.145 56.5603L184.059 58.7968C184.559 59.3803 185.121 59.7833 185.747 60.0058C186.38 60.2365 187.023 60.2826 187.677 60.1442C188.346 60.007 188.976 59.6852 189.567 59.1789C190.151 58.6795 190.558 58.1134 190.789 57.4807C191.019 56.848 191.069 56.2013 190.939 55.5406C190.816 54.888 190.508 54.274 190.015 53.6986L188.101 51.4621L189.377 50.3696L191.323 52.6427C191.85 53.2585 192.23 53.9234 192.462 54.6374C192.702 55.3445 192.794 56.059 192.738 56.7809C192.697 57.504 192.511 58.1969 192.179 58.8596C191.856 59.5154 191.391 60.1034 190.783 60.6236C190.183 61.1369 189.531 61.5061 188.825 61.7312C188.119 61.9563 187.405 62.0409 186.683 61.9849C185.969 61.9219 185.277 61.7207 184.608 61.3813C183.946 61.0349 183.355 60.5578 182.835 59.9501L180.869 57.6527ZM180.047 56.6925L188.555 49.4094L189.752 50.8072L181.243 58.0903L180.047 56.6925Z" fill="white"/>
<path d="M192.322 73.5815C191.906 72.8486 191.699 72.0952 191.701 71.3212C191.703 70.5472 191.895 69.8254 192.275 69.1557C192.67 68.4901 193.234 67.9493 193.967 67.5334L200.006 64.106L200.914 65.7062L194.889 69.1257C194.416 69.3942 194.058 69.7259 193.816 70.1208C193.589 70.5197 193.475 70.946 193.475 71.3999C193.484 71.8484 193.61 72.286 193.852 72.7128C194.1 73.1488 194.411 73.4811 194.786 73.7098C195.17 73.9332 195.59 74.0449 196.043 74.0449C196.506 74.0396 196.97 73.9054 197.434 73.6422L203.473 70.2147L204.381 71.815L198.328 75.2503C197.595 75.6662 196.846 75.8704 196.082 75.8629C195.317 75.8553 194.604 75.6587 193.944 75.2731C193.284 74.8875 192.743 74.3236 192.322 73.5815Z" fill="white"/>
<path d="M199.412 89.4026C199.149 88.6357 199.042 87.8776 199.09 87.1284C199.151 86.3858 199.346 85.6876 199.674 85.0338C200.013 84.3766 200.465 83.8044 201.031 83.3173C201.607 82.8268 202.274 82.4518 203.03 82.1925C203.787 81.9332 204.538 81.8224 205.284 81.86C206.04 81.8942 206.748 82.0687 207.409 82.3837C208.069 82.6986 208.651 83.1306 209.155 83.6796C209.662 84.2387 210.047 84.9017 210.31 85.6686C210.604 86.5263 210.717 87.3164 210.649 88.0388C210.58 88.7612 210.387 89.4476 210.069 90.0979L208.484 89.3218C208.72 88.8915 208.856 88.4164 208.892 87.8966C208.931 87.3869 208.849 86.8344 208.645 86.239C208.465 85.7143 208.21 85.2661 207.88 84.8945C207.55 84.5228 207.158 84.2343 206.704 84.0289C206.264 83.8302 205.782 83.7246 205.259 83.7121C204.736 83.6996 204.197 83.7884 203.642 83.9786C203.087 84.1688 202.607 84.4291 202.202 84.7597C201.796 85.0903 201.476 85.4708 201.24 85.9011C201.017 86.3381 200.89 86.8047 200.857 87.3009C200.824 87.797 200.897 88.3074 201.077 88.8321C201.298 89.478 201.581 89.99 201.925 90.3683C202.282 90.7532 202.686 91.0433 203.136 91.2386L202.36 92.8237C201.7 92.5088 201.116 92.0718 200.609 91.5127C200.101 90.9536 199.703 90.2502 199.412 89.4026Z" fill="white"/>
<path d="M202.79 102.322L213.539 100.639L213.823 102.457L203.074 104.14L202.79 102.322ZM211.631 97.2453L213.291 96.9855L214.704 106.012L213.044 106.271L211.631 97.2453Z" fill="white"/>
<path d="M203.732 124.139L205.398 124.351L205.026 127.272C204.929 128.034 205.008 128.721 205.264 129.334C205.518 129.958 205.915 130.466 206.457 130.857C207.008 131.261 207.669 131.512 208.442 131.61C209.203 131.707 209.896 131.629 210.52 131.375C211.144 131.121 211.657 130.724 212.059 130.184C212.46 129.654 212.708 129.014 212.804 128.262L213.176 125.342L214.842 125.554L214.464 128.522C214.362 129.326 214.124 130.054 213.75 130.706C213.388 131.358 212.92 131.906 212.347 132.349C211.784 132.805 211.146 133.132 210.432 133.331C209.729 133.532 208.981 133.582 208.187 133.481C207.404 133.381 206.692 133.145 206.051 132.773C205.411 132.401 204.869 131.929 204.425 131.356C203.993 130.785 203.677 130.138 203.479 129.413C203.292 128.691 203.249 127.932 203.35 127.139L203.732 124.139ZM203.892 122.885L215.002 124.3L214.769 126.126L203.659 124.71L203.892 122.885Z" fill="white"/>
<path d="M201.07 139.275L211.745 142.662L211.189 144.416L200.513 141.029L201.07 139.275ZM200.688 140.48L202.289 140.988L200.392 146.967L198.791 146.459L200.688 140.48ZM205.37 141.965L206.91 142.454L205.178 147.914L203.638 147.425L205.37 141.965ZM209.762 143.359L211.363 143.867L209.491 149.769L207.89 149.261L209.762 143.359Z" fill="white"/>
<path d="M194.488 155.764C194.89 154.974 195.374 154.377 195.939 153.971C196.505 153.564 197.175 153.283 197.949 153.126L198.495 154.804C197.956 154.877 197.475 155.045 197.053 155.309C196.641 155.578 196.285 156.008 195.985 156.597C195.705 157.148 195.596 157.644 195.66 158.083C195.719 158.532 195.948 158.858 196.347 159.061C196.68 159.23 196.994 159.283 197.29 159.218C197.587 159.153 197.874 159.012 198.152 158.795C198.435 158.592 198.716 158.346 198.995 158.057C199.278 157.782 199.573 157.507 199.881 157.233C200.192 156.973 200.526 156.753 200.88 156.574C201.229 156.405 201.614 156.32 202.034 156.318C202.453 156.316 202.92 156.446 203.433 156.707C204.023 157.007 204.449 157.403 204.713 157.897C204.981 158.404 205.099 158.961 205.066 159.566C205.033 160.172 204.862 160.779 204.552 161.387C204.219 162.043 203.793 162.563 203.275 162.945C202.752 163.338 202.209 163.594 201.645 163.714L201.099 162.036C201.567 161.915 201.957 161.736 202.269 161.5C202.585 161.278 202.845 160.967 203.048 160.568C203.3 160.074 203.398 159.633 203.344 159.246C203.285 158.869 203.074 158.589 202.713 158.405C202.409 158.25 202.118 158.21 201.841 158.284C201.573 158.363 201.303 158.507 201.029 158.715C200.761 158.937 200.484 159.186 200.201 159.46C199.913 159.745 199.613 160.017 199.301 160.277C198.984 160.547 198.642 160.761 198.273 160.921C197.909 161.095 197.508 161.178 197.069 161.17C196.63 161.162 196.145 161.023 195.612 160.752C194.719 160.297 194.173 159.618 193.974 158.715C193.77 157.822 193.942 156.838 194.488 155.764Z" fill="white"/>
<path d="M189.279 164.989L198.484 171.369L197.436 172.881L188.231 166.502L189.279 164.989Z" fill="white"/>
<path d="M179.941 176.355C180.473 175.801 181.082 175.38 181.77 175.094C182.458 174.808 183.168 174.66 183.899 174.652C184.639 174.651 185.362 174.783 186.069 175.047C186.777 175.326 187.419 175.742 187.997 176.296C188.575 176.849 189.014 177.47 189.316 178.157C189.61 178.853 189.768 179.566 189.792 180.297C189.815 181.044 189.691 181.767 189.419 182.467C189.148 183.182 188.732 183.832 188.171 184.417C187.559 185.056 186.867 185.531 186.097 185.842C185.327 186.153 184.537 186.275 183.728 186.21L183.691 184.445C184.258 184.531 184.822 184.459 185.383 184.228C185.952 184.004 186.458 183.662 186.9 183.2C187.432 182.645 187.777 182.038 187.936 181.378C188.096 180.733 188.071 180.089 187.861 179.445C187.651 178.8 187.261 178.205 186.691 177.659C186.121 177.113 185.506 176.745 184.845 176.556C184.185 176.381 183.54 176.376 182.91 176.541C182.28 176.705 181.721 177.041 181.234 177.55C180.718 178.089 180.371 178.643 180.195 179.213C180.019 179.797 180.024 180.378 180.21 180.955C180.403 181.539 180.785 182.105 181.355 182.651L179.957 182.907L183.267 179.452L184.48 180.615L180.65 184.612L180.465 184.435C179.502 183.513 178.867 182.572 178.56 181.613C178.246 180.662 178.214 179.738 178.467 178.842C178.719 177.947 179.211 177.118 179.941 176.355Z" fill="white"/>
<path d="M170.804 184.973L177.318 194.084L175.821 195.154L169.307 186.043L170.804 184.973ZM169.775 185.708L170.752 187.075L165.65 190.723L164.673 189.356L169.775 185.708ZM172.632 189.704L173.572 191.019L168.913 194.35L167.973 193.036L172.632 189.704ZM175.312 193.452L176.289 194.819L171.253 198.42L170.275 197.054L175.312 193.452Z" fill="white"/>
<path d="M159.469 197.851L160.125 199.223L157.57 200.444C157.06 200.688 156.727 201.007 156.572 201.4C156.412 201.807 156.445 202.247 156.67 202.718C156.873 203.142 157.183 203.431 157.6 203.586C158.017 203.742 158.48 203.698 158.99 203.454L161.56 202.225L162.25 203.669L159.608 204.932C158.973 205.235 158.353 205.372 157.747 205.342C157.147 205.322 156.611 205.153 156.139 204.834C155.663 204.53 155.291 204.099 155.024 203.541C154.744 202.954 154.635 202.379 154.697 201.817C154.75 201.26 154.959 200.746 155.325 200.276C155.692 199.805 156.192 199.418 156.828 199.114L159.469 197.851ZM158.56 193.019L163.39 203.124L161.73 203.917L156.9 193.813L158.56 193.019ZM153.017 195.669L158.651 198.367L157.376 199.668L150.924 196.669L153.017 195.669Z" fill="white"/>
<g filter="url(#filter0_b_655_4068)">
<circle cx="117" cy="116.5" r="68.5" fill="black"/>
<circle cx="117" cy="116.5" r="68" stroke="white"/>
</g>
<g clip-path="url(#clip1_655_4068)">
<path d="M115.307 21.8257L113.189 21.644C112.235 21.5656 111.318 21.2438 110.525 20.7095C109.731 20.1752 109.088 19.4462 108.657 18.5923L107.692 16.6976C107.649 16.633 107.589 16.5825 107.517 16.5526C107.446 16.5226 107.367 16.5145 107.292 16.5293C107.216 16.5442 107.146 16.5812 107.091 16.6358C107.036 16.6903 106.999 16.76 106.984 16.8358L106.802 18.9543C106.724 19.9077 106.402 20.825 105.868 21.6185C105.333 22.4119 104.604 23.055 103.75 23.4861L101.856 24.4512C101.783 24.4881 101.724 24.5477 101.688 24.621C101.652 24.6944 101.642 24.7774 101.657 24.8575C101.673 24.9376 101.714 25.0104 101.775 25.0648C101.836 25.1193 101.913 25.1525 101.994 25.1593L104.112 25.3411C105.066 25.4195 105.983 25.7412 106.777 26.2755C107.57 26.8098 108.213 27.5388 108.644 28.3928L109.609 30.2875C109.646 30.3603 109.706 30.419 109.779 30.4548C109.852 30.4906 109.935 30.5016 110.016 30.4859C110.096 30.4703 110.168 30.429 110.223 30.3682C110.277 30.3074 110.311 30.2306 110.317 30.1493L110.499 28.0307C110.578 27.0773 110.899 26.16 111.434 25.3666C111.968 24.5731 112.697 23.9301 113.551 23.499L115.446 22.5339C115.518 22.497 115.577 22.4373 115.613 22.364C115.649 22.2907 115.66 22.2077 115.644 22.1276C115.628 22.0475 115.587 21.9747 115.526 21.9202C115.466 21.8657 115.389 21.8326 115.307 21.8257Z" fill="white"/>
</g>
<g clip-path="url(#clip2_655_4068)">
<path d="M132.327 206.739L130.208 206.564C129.254 206.489 128.336 206.17 127.54 205.639C126.745 205.107 126.1 204.38 125.666 203.528L124.694 201.636C124.651 201.572 124.59 201.522 124.519 201.492C124.448 201.462 124.369 201.454 124.293 201.47C124.217 201.485 124.148 201.522 124.093 201.577C124.038 201.631 124.001 201.701 123.986 201.777L123.812 203.896C123.737 204.85 123.418 205.768 122.886 206.563C122.355 207.359 121.628 208.004 120.775 208.438L118.884 209.41C118.811 209.447 118.753 209.507 118.717 209.58C118.682 209.654 118.671 209.737 118.687 209.817C118.703 209.897 118.744 209.969 118.805 210.024C118.866 210.078 118.943 210.111 119.025 210.117L121.144 210.292C122.097 210.367 123.016 210.686 123.811 211.217C124.606 211.749 125.252 212.476 125.686 213.328L126.657 215.22C126.694 215.292 126.754 215.351 126.828 215.387C126.901 215.422 126.984 215.433 127.064 215.417C127.144 215.401 127.217 215.359 127.271 215.298C127.325 215.237 127.358 215.161 127.365 215.079L127.54 212.96C127.615 212.006 127.933 211.088 128.465 210.293C128.997 209.498 129.723 208.852 130.576 208.418L132.467 207.447C132.54 207.409 132.599 207.35 132.634 207.276C132.67 207.203 132.68 207.12 132.664 207.04C132.649 206.96 132.607 206.887 132.546 206.833C132.485 206.778 132.408 206.745 132.327 206.739Z" fill="white"/>
</g>
<g clip-path="url(#clip3_655_4068)">
<path d="M113.3 148.902H87V140.96V145.607H106.945C125.528 145.607 140.646 130.489 140.646 111.905C140.646 105.914 139.073 100.284 136.32 95.4059C142.432 101.074 146.264 109.169 146.264 118.142C146.264 120.711 145.945 123.205 145.352 125.593C146.409 122.344 146.991 118.881 147 115.285C146.953 133.831 131.854 148.902 113.3 148.902ZM147 115.285C147 115.272 147 115.26 147 115.247C147 115.259 147 115.273 147 115.285ZM139.058 115.172C139.058 115.169 139.058 115.168 139.058 115.165C139.058 115.167 139.058 115.169 139.058 115.172ZM139.058 115.136C139.058 115.135 139.058 115.133 139.058 115.132C139.058 115.133 139.058 115.134 139.058 115.136ZM139.058 115.071C139.058 115.069 139.058 115.067 139.058 115.066C139.058 115.068 139.058 115.069 139.058 115.071ZM139.057 114.971C139.057 114.97 139.057 114.971 139.057 114.97V114.971ZM139.056 114.941C139.056 114.939 139.056 114.938 139.056 114.936C139.056 114.937 139.056 114.939 139.056 114.941ZM139.056 114.906C139.056 114.905 139.056 114.905 139.056 114.904C139.056 114.904 139.056 114.905 139.056 114.906ZM139.055 114.873C139.055 114.872 139.055 114.873 139.055 114.872V114.873ZM139.054 114.775C139.054 114.775 139.054 114.774 139.054 114.773C139.054 114.774 139.054 114.774 139.054 114.775ZM121.806 90.8864C119.142 89.9515 116.279 89.4431 113.3 89.4431C112.778 89.4431 112.264 89.4694 111.753 89.5127H94.4773C99.1445 84.693 105.619 81.6377 112.811 81.5046C107.436 81.6037 102.462 83.3364 98.3436 86.2175H98.3529C97.8971 86.5364 97.4521 86.8691 97.0179 87.2151H113.39C113.628 87.195 113.867 87.1779 114.106 87.164C116.896 87.975 119.491 89.245 121.806 90.8864ZM112.812 81.5046C112.833 81.5046 112.855 81.5038 112.876 81.5038C112.854 81.5038 112.834 81.5046 112.812 81.5046ZM113.009 81.5023C113.029 81.5015 113.049 81.5015 113.069 81.5015C113.064 81.5015 113.057 81.5015 113.051 81.5015C113.05 81.5015 113.047 81.5015 113.046 81.5015C113.033 81.5015 113.021 81.5015 113.009 81.5023ZM113.074 81.5015C113.084 81.5007 113.095 81.5007 113.104 81.5007C113.099 81.5007 113.094 81.5007 113.089 81.5007C113.086 81.5007 113.083 81.5007 113.08 81.5015C113.078 81.5015 113.076 81.5015 113.074 81.5015ZM113.104 81.5007C113.109 81.5007 113.113 81.5007 113.118 81.5007C113.116 81.5007 113.115 81.5007 113.114 81.5007C113.111 81.5007 113.108 81.5007 113.104 81.5007ZM113.12 81.5007C113.125 81.5007 113.129 81.5007 113.133 81.5007C113.13 81.5007 113.128 81.5007 113.126 81.5007C113.124 81.5007 113.122 81.5007 113.12 81.5007ZM113.14 81.5007C113.146 81.5007 113.15 81.5007 113.154 81.5007C113.153 81.5007 113.151 81.5007 113.149 81.5007C113.146 81.5007 113.143 81.5007 113.14 81.5007ZM113.156 81.5007C113.17 81.5007 113.184 81.5007 113.198 81.5007C113.197 81.5007 113.197 81.5007 113.196 81.5007C113.191 81.5007 113.187 81.5007 113.183 81.5007C113.175 81.5007 113.168 81.5007 113.16 81.5007C113.159 81.5007 113.158 81.5007 113.156 81.5007ZM113.205 81.5007C113.212 81.5007 113.218 81.5007 113.225 81.5007C113.222 81.5007 113.221 81.5007 113.218 81.5007C113.214 81.5007 113.21 81.5007 113.205 81.5007ZM113.229 81.5007C113.24 81.5007 113.251 81.5007 113.262 81.5007C113.259 81.5007 113.256 81.5007 113.255 81.5007C113.246 81.5007 113.239 81.5007 113.231 81.5007C113.23 81.5007 113.23 81.5007 113.229 81.5007Z" fill="black"/>
<path d="M113.3 148.902H87V140.96V145.607H106.945C125.528 145.607 140.646 130.489 140.646 111.905C140.646 105.914 139.073 100.284 136.32 95.4059C142.432 101.074 146.264 109.169 146.264 118.142C146.264 120.711 145.945 123.205 145.352 125.593C146.409 122.344 146.991 118.881 147 115.285C146.953 133.831 131.854 148.902 113.3 148.902ZM147 115.285C147 115.272 147 115.26 147 115.247C147 115.259 147 115.273 147 115.285ZM139.058 115.172C139.058 115.169 139.058 115.168 139.058 115.165C139.058 115.167 139.058 115.169 139.058 115.172ZM139.058 115.136C139.058 115.135 139.058 115.133 139.058 115.132C139.058 115.133 139.058 115.134 139.058 115.136ZM139.058 115.071C139.058 115.069 139.058 115.067 139.058 115.066C139.058 115.068 139.058 115.069 139.058 115.071ZM139.057 114.971C139.057 114.97 139.057 114.971 139.057 114.97V114.971ZM139.056 114.941C139.056 114.939 139.056 114.938 139.056 114.936C139.056 114.937 139.056 114.939 139.056 114.941ZM139.056 114.906C139.056 114.905 139.056 114.905 139.056 114.904C139.056 114.904 139.056 114.905 139.056 114.906ZM139.055 114.873C139.055 114.872 139.055 114.873 139.055 114.872V114.873ZM139.054 114.775C139.054 114.775 139.054 114.774 139.054 114.773C139.054 114.774 139.054 114.774 139.054 114.775ZM121.806 90.8864C119.142 89.9515 116.279 89.4431 113.3 89.4431C112.778 89.4431 112.264 89.4694 111.753 89.5127H94.4773C99.1445 84.693 105.619 81.6377 112.811 81.5046C107.436 81.6037 102.462 83.3364 98.3436 86.2175H98.3529C97.8971 86.5364 97.4521 86.8691 97.0179 87.2151H113.39C113.628 87.195 113.867 87.1779 114.106 87.164C116.896 87.975 119.491 89.245 121.806 90.8864ZM112.812 81.5046C112.833 81.5046 112.855 81.5038 112.876 81.5038C112.854 81.5038 112.834 81.5046 112.812 81.5046ZM113.009 81.5023C113.029 81.5015 113.049 81.5015 113.069 81.5015C113.064 81.5015 113.057 81.5015 113.051 81.5015C113.05 81.5015 113.047 81.5015 113.046 81.5015C113.033 81.5015 113.021 81.5015 113.009 81.5023ZM113.074 81.5015C113.084 81.5007 113.095 81.5007 113.104 81.5007C113.099 81.5007 113.094 81.5007 113.089 81.5007C113.086 81.5007 113.083 81.5007 113.08 81.5015C113.078 81.5015 113.076 81.5015 113.074 81.5015ZM113.104 81.5007C113.109 81.5007 113.113 81.5007 113.118 81.5007C113.116 81.5007 113.115 81.5007 113.114 81.5007C113.111 81.5007 113.108 81.5007 113.104 81.5007ZM113.12 81.5007C113.125 81.5007 113.129 81.5007 113.133 81.5007C113.13 81.5007 113.128 81.5007 113.126 81.5007C113.124 81.5007 113.122 81.5007 113.12 81.5007ZM113.14 81.5007C113.146 81.5007 113.15 81.5007 113.154 81.5007C113.153 81.5007 113.151 81.5007 113.149 81.5007C113.146 81.5007 113.143 81.5007 113.14 81.5007ZM113.156 81.5007C113.17 81.5007 113.184 81.5007 113.198 81.5007C113.197 81.5007 113.197 81.5007 113.196 81.5007C113.191 81.5007 113.187 81.5007 113.183 81.5007C113.175 81.5007 113.168 81.5007 113.16 81.5007C113.159 81.5007 113.158 81.5007 113.156 81.5007ZM113.205 81.5007C113.212 81.5007 113.218 81.5007 113.225 81.5007C113.222 81.5007 113.221 81.5007 113.218 81.5007C113.214 81.5007 113.21 81.5007 113.205 81.5007ZM113.229 81.5007C113.24 81.5007 113.251 81.5007 113.262 81.5007C113.259 81.5007 113.256 81.5007 113.255 81.5007C113.246 81.5007 113.239 81.5007 113.231 81.5007C113.23 81.5007 113.23 81.5007 113.229 81.5007Z" fill="url(#paint0_linear_655_4068)"/>
<path d="M139.058 115.132C139.058 115.123 139.058 115.114 139.058 115.105C139.058 115.115 139.058 115.122 139.058 115.132ZM139.058 115.066C139.058 115.056 139.058 115.047 139.057 115.037C139.058 115.046 139.058 115.056 139.058 115.066ZM139.057 115.036C139.057 115.026 139.057 115.017 139.057 115.006C139.057 115.017 139.057 115.025 139.057 115.036ZM139.057 115.001C139.057 114.991 139.057 114.981 139.057 114.971C139.057 114.98 139.057 114.991 139.057 115.001ZM139.057 114.97C139.057 114.96 139.057 114.951 139.056 114.941C139.057 114.95 139.057 114.961 139.057 114.97ZM139.056 114.936C139.056 114.926 139.056 114.916 139.056 114.906C139.056 114.915 139.056 114.926 139.056 114.936ZM139.054 114.773C139.054 114.751 139.054 114.73 139.053 114.709C139.054 114.731 139.054 114.751 139.054 114.773ZM139.053 114.709C139.053 114.698 139.053 114.687 139.052 114.676C139.053 114.686 139.053 114.698 139.053 114.709ZM139.052 114.676C138.832 103.688 131.691 94.3684 121.822 90.8976C121.816 90.8945 121.812 90.8906 121.806 90.8867C131.686 94.3537 138.832 103.681 139.052 114.676ZM112.811 81.505H112.812C112.812 81.505 112.812 81.505 112.811 81.505ZM112.876 81.5042C112.876 81.5042 112.878 81.5042 112.878 81.5042C112.877 81.5042 112.876 81.5042 112.876 81.5042ZM113.004 81.5026C113.006 81.5026 113.007 81.5026 113.01 81.5026C113.008 81.5026 113.006 81.5026 113.004 81.5026ZM113.069 81.5019C113.071 81.5019 113.073 81.5019 113.075 81.5019C113.072 81.5019 113.071 81.5019 113.069 81.5019ZM113.402 81.5011C113.4 81.5011 113.398 81.5011 113.397 81.5011C113.399 81.5011 113.4 81.5011 113.402 81.5011ZM113.352 81.5011C113.347 81.5011 113.34 81.5011 113.335 81.5011C113.341 81.5011 113.346 81.5011 113.352 81.5011ZM113.265 81.5011C113.267 81.5011 113.269 81.5011 113.27 81.5011C113.27 81.5011 113.267 81.5011 113.267 81.5011C113.266 81.5011 113.266 81.5011 113.265 81.5011ZM113.326 81.5011C113.317 81.5011 113.309 81.5011 113.3 81.5011C113.308 81.5011 113.318 81.5011 113.326 81.5011Z" fill="black"/>
<path d="M139.058 115.132C139.058 115.123 139.058 115.114 139.058 115.105C139.058 115.115 139.058 115.122 139.058 115.132ZM139.058 115.066C139.058 115.056 139.058 115.047 139.057 115.037C139.058 115.046 139.058 115.056 139.058 115.066ZM139.057 115.036C139.057 115.026 139.057 115.017 139.057 115.006C139.057 115.017 139.057 115.025 139.057 115.036ZM139.057 115.001C139.057 114.991 139.057 114.981 139.057 114.971C139.057 114.98 139.057 114.991 139.057 115.001ZM139.057 114.97C139.057 114.96 139.057 114.951 139.056 114.941C139.057 114.95 139.057 114.961 139.057 114.97ZM139.056 114.936C139.056 114.926 139.056 114.916 139.056 114.906C139.056 114.915 139.056 114.926 139.056 114.936ZM139.054 114.773C139.054 114.751 139.054 114.73 139.053 114.709C139.054 114.731 139.054 114.751 139.054 114.773ZM139.053 114.709C139.053 114.698 139.053 114.687 139.052 114.676C139.053 114.686 139.053 114.698 139.053 114.709ZM139.052 114.676C138.832 103.688 131.691 94.3684 121.822 90.8976C121.816 90.8945 121.812 90.8906 121.806 90.8867C131.686 94.3537 138.832 103.681 139.052 114.676ZM112.811 81.505H112.812C112.812 81.505 112.812 81.505 112.811 81.505ZM112.876 81.5042C112.876 81.5042 112.878 81.5042 112.878 81.5042C112.877 81.5042 112.876 81.5042 112.876 81.5042ZM113.004 81.5026C113.006 81.5026 113.007 81.5026 113.01 81.5026C113.008 81.5026 113.006 81.5026 113.004 81.5026ZM113.069 81.5019C113.071 81.5019 113.073 81.5019 113.075 81.5019C113.072 81.5019 113.071 81.5019 113.069 81.5019ZM113.402 81.5011C113.4 81.5011 113.398 81.5011 113.397 81.5011C113.399 81.5011 113.4 81.5011 113.402 81.5011ZM113.352 81.5011C113.347 81.5011 113.34 81.5011 113.335 81.5011C113.341 81.5011 113.346 81.5011 113.352 81.5011ZM113.265 81.5011C113.267 81.5011 113.269 81.5011 113.27 81.5011C113.27 81.5011 113.267 81.5011 113.267 81.5011C113.266 81.5011 113.266 81.5011 113.265 81.5011ZM113.326 81.5011C113.317 81.5011 113.309 81.5011 113.3 81.5011C113.308 81.5011 113.318 81.5011 113.326 81.5011Z" fill="url(#paint1_radial_655_4068)"/>
<path d="M106.945 145.607H87V140.96H113.3C114.288 140.96 115.263 140.903 116.223 140.795C124.872 140.428 132.278 135.198 135.776 127.772C137.866 124.052 139.058 119.763 139.058 115.201C139.058 115.191 139.058 115.181 139.058 115.172C139.058 115.169 139.058 115.167 139.058 115.165C139.058 115.155 139.058 115.145 139.058 115.136C139.058 115.134 139.058 115.133 139.058 115.132C139.058 115.122 139.058 115.115 139.058 115.105C139.058 115.104 139.058 115.102 139.058 115.1C139.058 115.09 139.058 115.081 139.058 115.071C139.058 115.069 139.058 115.068 139.058 115.066C139.058 115.056 139.058 115.046 139.057 115.037V115.036C139.057 115.025 139.057 115.017 139.057 115.006C139.057 115.004 139.057 115.002 139.057 115.001C139.057 114.991 139.057 114.98 139.057 114.971V114.97C139.057 114.961 139.057 114.95 139.056 114.941C139.056 114.939 139.056 114.937 139.056 114.936C139.056 114.926 139.056 114.915 139.056 114.906C139.056 114.905 139.056 114.904 139.056 114.904C139.056 114.893 139.056 114.884 139.055 114.873V114.872C139.055 114.862 139.055 114.851 139.055 114.841C139.055 114.84 139.055 114.839 139.055 114.838C139.054 114.817 139.054 114.796 139.054 114.775C139.054 114.774 139.054 114.774 139.054 114.773C139.054 114.751 139.054 114.731 139.053 114.709C139.053 114.698 139.053 114.686 139.052 114.676V114.676C138.832 103.681 131.686 94.3534 121.806 90.8864C119.491 89.245 116.896 87.975 114.106 87.164C114.485 87.1423 114.867 87.131 115.251 87.131C123.378 87.131 130.784 90.2735 136.32 95.4059C139.073 100.284 140.646 105.914 140.646 111.905C140.646 130.489 125.528 145.607 106.945 145.607ZM98.3529 86.2175H98.3436C102.462 83.3364 107.436 81.6037 112.811 81.5046C112.812 81.5046 112.812 81.5046 112.812 81.5046C112.834 81.5046 112.854 81.5038 112.876 81.5038C112.876 81.5038 112.877 81.5038 112.878 81.5038C112.899 81.5038 112.919 81.5031 112.94 81.5031C112.941 81.5031 112.943 81.5031 112.944 81.5031C112.965 81.5023 112.984 81.5023 113.004 81.5023C113.006 81.5023 113.008 81.5023 113.009 81.5023C113.021 81.5015 113.033 81.5015 113.046 81.5015C107.583 81.5541 102.53 83.2969 98.3529 86.2175ZM113.051 81.5015C113.057 81.5015 113.064 81.5015 113.069 81.5015C113.071 81.5015 113.072 81.5015 113.074 81.5015C113.076 81.5015 113.078 81.5015 113.08 81.5015C113.071 81.5015 113.061 81.5015 113.051 81.5015ZM113.089 81.5007C113.094 81.5007 113.099 81.5007 113.104 81.5007C113.108 81.5007 113.111 81.5007 113.114 81.5007C113.106 81.5007 113.098 81.5007 113.089 81.5007ZM113.126 81.5007C113.128 81.5007 113.13 81.5007 113.133 81.5007C113.136 81.5007 113.138 81.5007 113.14 81.5007C113.143 81.5007 113.146 81.5007 113.149 81.5007C113.141 81.5007 113.133 81.5007 113.126 81.5007ZM113.183 81.5007C113.175 81.5007 113.168 81.5007 113.16 81.5007C113.168 81.5007 113.176 81.5007 113.183 81.5007ZM113.196 81.5007C113.197 81.5007 113.197 81.5007 113.198 81.5007C113.201 81.5007 113.203 81.5007 113.205 81.5007C113.21 81.5007 113.214 81.5007 113.218 81.5007C113.211 81.5007 113.204 81.5007 113.196 81.5007ZM113.267 81.5011C113.267 81.5011 113.269 81.5007 113.27 81.5007C113.28 81.5007 113.29 81.5007 113.3 81.5007C113.289 81.5007 113.277 81.5011 113.267 81.5011Z" fill="url(#paint2_linear_655_4068)"/>
<path d="M116.149 140.798C124.607 139.862 131.843 134.815 135.809 127.704C135.798 127.726 135.788 127.749 135.777 127.772C131.814 134.828 124.625 139.841 116.223 140.795C116.198 140.795 116.173 140.796 116.149 140.798ZM113.251 134.036C113.242 134.036 113.233 134.036 113.225 134.036C113.233 134.036 113.243 134.036 113.251 134.036ZM113.21 134.036C113.203 134.036 113.196 134.036 113.188 134.036C113.196 134.036 113.202 134.036 113.21 134.036ZM113.172 134.036C113.165 134.036 113.157 134.036 113.15 134.036C113.158 134.036 113.165 134.036 113.172 134.036ZM113.134 134.036C113.127 134.036 113.12 134.036 113.113 134.036C113.121 134.036 113.126 134.036 113.134 134.036ZM113.096 134.036C113.089 134.036 113.083 134.036 113.076 134.036C113.082 134.036 113.09 134.036 113.096 134.036ZM113.058 134.036C113.051 134.036 113.045 134.035 113.038 134.035C113.045 134.035 113.052 134.036 113.058 134.036ZM113.021 134.035C113.014 134.035 113.008 134.035 113.001 134.035C113.008 134.035 113.014 134.035 113.021 134.035ZM112.983 134.035C112.976 134.035 112.97 134.035 112.963 134.034C112.97 134.035 112.977 134.035 112.983 134.035ZM112.946 134.034C112.939 134.034 112.932 134.034 112.926 134.034C112.932 134.034 112.939 134.034 112.946 134.034ZM112.908 134.033C112.901 134.033 112.895 134.033 112.888 134.033C112.895 134.033 112.902 134.033 112.908 134.033ZM112.871 134.033C112.865 134.033 112.857 134.033 112.851 134.033C112.858 134.033 112.864 134.033 112.871 134.033ZM112.796 134.032C112.79 134.032 112.783 134.032 112.776 134.031C112.784 134.032 112.789 134.032 112.796 134.032ZM112.722 134.03C112.716 134.03 112.709 134.03 112.703 134.029C112.71 134.03 112.715 134.03 112.722 134.03ZM112.662 134.029C112.659 134.029 112.653 134.029 112.648 134.029C112.653 134.029 112.658 134.029 112.662 134.029ZM112.628 134.028C112.622 134.028 112.617 134.028 112.611 134.028C112.617 134.028 112.621 134.028 112.628 134.028ZM112.591 134.027C112.586 134.027 112.58 134.026 112.574 134.026C112.58 134.026 112.585 134.027 112.591 134.027ZM112.553 134.026C112.548 134.026 112.543 134.026 112.538 134.026C112.543 134.026 112.548 134.026 112.553 134.026ZM112.516 134.025C112.511 134.025 112.505 134.025 112.501 134.025C112.506 134.025 112.511 134.025 112.516 134.025ZM112.442 134.022C112.436 134.022 112.432 134.022 112.426 134.022C112.431 134.022 112.437 134.022 112.442 134.022ZM112.368 134.02C112.363 134.02 112.358 134.019 112.354 134.019C112.357 134.019 112.364 134.02 112.368 134.02ZM112.33 134.019C112.326 134.019 112.321 134.019 112.317 134.019C112.322 134.019 112.326 134.019 112.33 134.019ZM112.256 134.016C112.253 134.016 112.248 134.016 112.245 134.016C112.249 134.016 112.252 134.016 112.256 134.016ZM112.183 134.013C112.181 134.012 112.178 134.012 112.176 134.012C112.179 134.012 112.179 134.012 112.183 134.013ZM111.899 133.999C111.896 133.999 111.895 133.999 111.893 133.999C111.895 133.999 111.895 133.999 111.899 133.999ZM111.862 133.998C111.861 133.998 111.859 133.998 111.857 133.998C111.859 133.998 111.86 133.998 111.862 133.998ZM111.753 133.992C111.752 133.992 111.751 133.992 111.749 133.992C111.75 133.992 111.752 133.992 111.753 133.992ZM111.717 133.989C111.715 133.989 111.716 133.989 111.714 133.989C111.715 133.989 111.716 133.989 111.717 133.989ZM147 115.247C147 115.243 147 115.242 147 115.238C147 115.241 147 115.243 147 115.247ZM114.836 104.418C114.346 104.346 113.846 104.308 113.337 104.307C113.845 104.308 114.344 104.346 114.834 104.414C114.835 104.416 114.835 104.416 114.836 104.418ZM113.337 104.307C113.332 104.307 113.326 104.307 113.32 104.307C113.326 104.307 113.332 104.307 113.337 104.307ZM113.155 81.5006C113.155 81.5006 113.156 81.5006 113.157 81.5006C113.157 81.5006 113.155 81.5006 113.155 81.5006ZM113.262 81.5006C113.263 81.5006 113.264 81.5006 113.265 81.5006H113.264C113.263 81.5006 113.263 81.5006 113.262 81.5006Z" fill="black"/>
<path d="M116.149 140.798C124.607 139.862 131.843 134.815 135.809 127.704C135.798 127.726 135.788 127.749 135.777 127.772C131.814 134.828 124.625 139.841 116.223 140.795C116.198 140.795 116.173 140.796 116.149 140.798ZM113.251 134.036C113.242 134.036 113.233 134.036 113.225 134.036C113.233 134.036 113.243 134.036 113.251 134.036ZM113.21 134.036C113.203 134.036 113.196 134.036 113.188 134.036C113.196 134.036 113.202 134.036 113.21 134.036ZM113.172 134.036C113.165 134.036 113.157 134.036 113.15 134.036C113.158 134.036 113.165 134.036 113.172 134.036ZM113.134 134.036C113.127 134.036 113.12 134.036 113.113 134.036C113.121 134.036 113.126 134.036 113.134 134.036ZM113.096 134.036C113.089 134.036 113.083 134.036 113.076 134.036C113.082 134.036 113.09 134.036 113.096 134.036ZM113.058 134.036C113.051 134.036 113.045 134.035 113.038 134.035C113.045 134.035 113.052 134.036 113.058 134.036ZM113.021 134.035C113.014 134.035 113.008 134.035 113.001 134.035C113.008 134.035 113.014 134.035 113.021 134.035ZM112.983 134.035C112.976 134.035 112.97 134.035 112.963 134.034C112.97 134.035 112.977 134.035 112.983 134.035ZM112.946 134.034C112.939 134.034 112.932 134.034 112.926 134.034C112.932 134.034 112.939 134.034 112.946 134.034ZM112.908 134.033C112.901 134.033 112.895 134.033 112.888 134.033C112.895 134.033 112.902 134.033 112.908 134.033ZM112.871 134.033C112.865 134.033 112.857 134.033 112.851 134.033C112.858 134.033 112.864 134.033 112.871 134.033ZM112.796 134.032C112.79 134.032 112.783 134.032 112.776 134.031C112.784 134.032 112.789 134.032 112.796 134.032ZM112.722 134.03C112.716 134.03 112.709 134.03 112.703 134.029C112.71 134.03 112.715 134.03 112.722 134.03ZM112.662 134.029C112.659 134.029 112.653 134.029 112.648 134.029C112.653 134.029 112.658 134.029 112.662 134.029ZM112.628 134.028C112.622 134.028 112.617 134.028 112.611 134.028C112.617 134.028 112.621 134.028 112.628 134.028ZM112.591 134.027C112.586 134.027 112.58 134.026 112.574 134.026C112.58 134.026 112.585 134.027 112.591 134.027ZM112.553 134.026C112.548 134.026 112.543 134.026 112.538 134.026C112.543 134.026 112.548 134.026 112.553 134.026ZM112.516 134.025C112.511 134.025 112.505 134.025 112.501 134.025C112.506 134.025 112.511 134.025 112.516 134.025ZM112.442 134.022C112.436 134.022 112.432 134.022 112.426 134.022C112.431 134.022 112.437 134.022 112.442 134.022ZM112.368 134.02C112.363 134.02 112.358 134.019 112.354 134.019C112.357 134.019 112.364 134.02 112.368 134.02ZM112.33 134.019C112.326 134.019 112.321 134.019 112.317 134.019C112.322 134.019 112.326 134.019 112.33 134.019ZM112.256 134.016C112.253 134.016 112.248 134.016 112.245 134.016C112.249 134.016 112.252 134.016 112.256 134.016ZM112.183 134.013C112.181 134.012 112.178 134.012 112.176 134.012C112.179 134.012 112.179 134.012 112.183 134.013ZM111.899 133.999C111.896 133.999 111.895 133.999 111.893 133.999C111.895 133.999 111.895 133.999 111.899 133.999ZM111.862 133.998C111.861 133.998 111.859 133.998 111.857 133.998C111.859 133.998 111.86 133.998 111.862 133.998ZM111.753 133.992C111.752 133.992 111.751 133.992 111.749 133.992C111.75 133.992 111.752 133.992 111.753 133.992ZM111.717 133.989C111.715 133.989 111.716 133.989 111.714 133.989C111.715 133.989 111.716 133.989 111.717 133.989ZM147 115.247C147 115.243 147 115.242 147 115.238C147 115.241 147 115.243 147 115.247ZM114.836 104.418C114.346 104.346 113.846 104.308 113.337 104.307C113.845 104.308 114.344 104.346 114.834 104.414C114.835 104.416 114.835 104.416 114.836 104.418ZM113.337 104.307C113.332 104.307 113.326 104.307 113.32 104.307C113.326 104.307 113.332 104.307 113.337 104.307ZM113.155 81.5006C113.155 81.5006 113.156 81.5006 113.157 81.5006C113.157 81.5006 113.155 81.5006 113.155 81.5006ZM113.262 81.5006C113.263 81.5006 113.264 81.5006 113.265 81.5006H113.264C113.263 81.5006 113.263 81.5006 113.262 81.5006Z" fill="white"/>
<path d="M145.354 125.593C145.947 123.205 146.266 120.71 146.266 118.141C146.266 109.169 142.434 101.073 136.321 95.4051C133.686 90.7347 129.968 86.7523 125.512 83.7984C121.76 82.335 117.688 81.5155 113.427 81.5C131.953 81.5681 147.002 96.6596 147.002 115.2C147.002 115.213 147.002 115.225 147.002 115.237C147.002 115.241 147.002 115.243 147.002 115.246C147.002 115.259 147.002 115.271 147.002 115.285C146.992 118.88 146.41 122.343 145.354 125.593ZM113.392 87.2143H97.0195C97.4537 86.8684 97.8987 86.5357 98.3545 86.2168H105.401C105.911 86.1727 106.425 86.1472 106.947 86.1472C109.431 86.1472 111.834 86.5024 114.108 87.1633C113.869 87.1772 113.629 87.1942 113.392 87.2143ZM113.116 81.5C113.117 81.5 113.118 81.5 113.119 81.5C113.12 81.5 113.121 81.5 113.122 81.5C113.123 81.5 113.126 81.5 113.127 81.5C113.123 81.5 113.119 81.5 113.116 81.5ZM113.15 81.5C113.153 81.5 113.154 81.5 113.156 81.5C113.157 81.5 113.158 81.5 113.158 81.5C113.16 81.5 113.16 81.5 113.162 81.5C113.158 81.5 113.154 81.5 113.15 81.5ZM113.22 81.5C113.222 81.5 113.224 81.5 113.226 81.5C113.228 81.5 113.229 81.5 113.231 81.5C113.232 81.5 113.232 81.5 113.232 81.5C113.228 81.5 113.224 81.5 113.22 81.5ZM113.368 81.5C113.363 81.5 113.359 81.5 113.353 81.5C113.359 81.5 113.362 81.5 113.368 81.5ZM113.256 81.5C113.258 81.5 113.261 81.5 113.263 81.5C113.264 81.5 113.264 81.5 113.266 81.5C113.263 81.5 113.259 81.5 113.256 81.5Z" fill="black"/>
<path d="M145.354 125.593C145.947 123.205 146.266 120.71 146.266 118.141C146.266 109.169 142.434 101.073 136.321 95.4051C133.686 90.7347 129.968 86.7523 125.512 83.7984C121.76 82.335 117.688 81.5155 113.427 81.5C131.953 81.5681 147.002 96.6596 147.002 115.2C147.002 115.213 147.002 115.225 147.002 115.237C147.002 115.241 147.002 115.243 147.002 115.246C147.002 115.259 147.002 115.271 147.002 115.285C146.992 118.88 146.41 122.343 145.354 125.593ZM113.392 87.2143H97.0195C97.4537 86.8684 97.8987 86.5357 98.3545 86.2168H105.401C105.911 86.1727 106.425 86.1472 106.947 86.1472C109.431 86.1472 111.834 86.5024 114.108 87.1633C113.869 87.1772 113.629 87.1942 113.392 87.2143ZM113.116 81.5C113.117 81.5 113.118 81.5 113.119 81.5C113.12 81.5 113.121 81.5 113.122 81.5C113.123 81.5 113.126 81.5 113.127 81.5C113.123 81.5 113.119 81.5 113.116 81.5ZM113.15 81.5C113.153 81.5 113.154 81.5 113.156 81.5C113.157 81.5 113.158 81.5 113.158 81.5C113.16 81.5 113.16 81.5 113.162 81.5C113.158 81.5 113.154 81.5 113.15 81.5ZM113.22 81.5C113.222 81.5 113.224 81.5 113.226 81.5C113.228 81.5 113.229 81.5 113.231 81.5C113.232 81.5 113.232 81.5 113.232 81.5C113.228 81.5 113.224 81.5 113.22 81.5ZM113.368 81.5C113.363 81.5 113.359 81.5 113.353 81.5C113.359 81.5 113.362 81.5 113.368 81.5ZM113.256 81.5C113.258 81.5 113.261 81.5 113.263 81.5C113.264 81.5 113.264 81.5 113.266 81.5C113.263 81.5 113.259 81.5 113.256 81.5Z" fill="#2668F2"/>
<path d="M116.222 140.795C124.624 139.842 131.814 134.828 135.776 127.772C132.278 135.198 124.871 140.428 116.222 140.795ZM136.319 95.4061C130.784 90.2737 123.378 87.131 115.251 87.131C114.867 87.131 114.485 87.1426 114.106 87.1642C111.832 86.5033 109.429 86.1481 106.945 86.1481C106.423 86.1481 105.909 86.1737 105.399 86.2178H98.3525C102.529 83.2971 107.583 81.5543 113.045 81.5017C113.047 81.5017 113.049 81.5017 113.051 81.5017C113.06 81.5017 113.07 81.5017 113.08 81.5017C113.083 81.501 113.086 81.5009 113.089 81.5009C113.097 81.5009 113.106 81.5009 113.114 81.5009C113.117 81.5009 113.121 81.5009 113.125 81.5009C113.133 81.5009 113.141 81.5009 113.148 81.5009C113.152 81.5009 113.156 81.5009 113.16 81.5009C113.168 81.5009 113.175 81.5009 113.182 81.5009C113.187 81.5009 113.191 81.5009 113.196 81.5009C113.203 81.5009 113.21 81.5009 113.218 81.5009C113.222 81.5009 113.226 81.5009 113.23 81.5009C113.238 81.5009 113.246 81.5009 113.254 81.5009C113.257 81.5009 113.261 81.5009 113.264 81.5009C113.264 81.5009 113.265 81.5009 113.266 81.5009C113.277 81.5009 113.288 81.5009 113.299 81.5009C113.309 81.5009 113.316 81.5009 113.326 81.5009C113.329 81.5009 113.332 81.5009 113.335 81.5009C113.34 81.5009 113.347 81.5009 113.351 81.5009C113.357 81.5009 113.361 81.5009 113.366 81.5009C113.37 81.5009 113.373 81.5009 113.377 81.5009C113.384 81.5009 113.39 81.5009 113.397 81.5009C113.398 81.5009 113.4 81.5009 113.401 81.5009C113.409 81.5009 113.417 81.5009 113.425 81.5009L113.425 81.5011C117.685 81.5166 121.758 82.336 125.51 83.7994C129.966 86.7533 133.684 90.7357 136.319 95.4061Z" fill="black"/>
<path d="M116.222 140.795C124.624 139.842 131.814 134.828 135.776 127.772C132.278 135.198 124.871 140.428 116.222 140.795ZM136.319 95.4061C130.784 90.2737 123.378 87.131 115.251 87.131C114.867 87.131 114.485 87.1426 114.106 87.1642C111.832 86.5033 109.429 86.1481 106.945 86.1481C106.423 86.1481 105.909 86.1737 105.399 86.2178H98.3525C102.529 83.2971 107.583 81.5543 113.045 81.5017C113.047 81.5017 113.049 81.5017 113.051 81.5017C113.06 81.5017 113.07 81.5017 113.08 81.5017C113.083 81.501 113.086 81.5009 113.089 81.5009C113.097 81.5009 113.106 81.5009 113.114 81.5009C113.117 81.5009 113.121 81.5009 113.125 81.5009C113.133 81.5009 113.141 81.5009 113.148 81.5009C113.152 81.5009 113.156 81.5009 113.16 81.5009C113.168 81.5009 113.175 81.5009 113.182 81.5009C113.187 81.5009 113.191 81.5009 113.196 81.5009C113.203 81.5009 113.21 81.5009 113.218 81.5009C113.222 81.5009 113.226 81.5009 113.23 81.5009C113.238 81.5009 113.246 81.5009 113.254 81.5009C113.257 81.5009 113.261 81.5009 113.264 81.5009C113.264 81.5009 113.265 81.5009 113.266 81.5009C113.277 81.5009 113.288 81.5009 113.299 81.5009C113.309 81.5009 113.316 81.5009 113.326 81.5009C113.329 81.5009 113.332 81.5009 113.335 81.5009C113.34 81.5009 113.347 81.5009 113.351 81.5009C113.357 81.5009 113.361 81.5009 113.366 81.5009C113.37 81.5009 113.373 81.5009 113.377 81.5009C113.384 81.5009 113.39 81.5009 113.397 81.5009C113.398 81.5009 113.4 81.5009 113.401 81.5009C113.409 81.5009 113.417 81.5009 113.425 81.5009L113.425 81.5011C117.685 81.5166 121.758 82.336 125.51 83.7994C129.966 86.7533 133.684 90.7357 136.319 95.4061Z" fill="#2668F2"/>
<path d="M113.262 134.037C113.258 134.037 113.254 134.037 113.251 134.037C113.254 134.037 113.259 134.037 113.262 134.037ZM113.225 134.037C113.22 134.037 113.215 134.037 113.21 134.037C113.216 134.037 113.22 134.037 113.225 134.037ZM113.188 134.037C113.183 134.037 113.176 134.037 113.172 134.037C113.177 134.037 113.182 134.037 113.188 134.037ZM113.15 134.037C113.145 134.037 113.139 134.037 113.134 134.037C113.14 134.037 113.145 134.037 113.15 134.037ZM113.076 134.036C113.069 134.036 113.065 134.036 113.058 134.036C113.064 134.036 113.069 134.036 113.076 134.036ZM113.038 134.035C113.032 134.035 113.026 134.035 113.021 134.035C113.026 134.035 113.033 134.035 113.038 134.035ZM113.001 134.035C112.994 134.035 112.989 134.035 112.983 134.035C112.989 134.035 112.995 134.035 113.001 134.035ZM112.926 134.034C112.919 134.034 112.915 134.034 112.908 134.034C112.915 134.034 112.92 134.034 112.926 134.034ZM112.888 134.034C112.883 134.034 112.877 134.034 112.871 134.034C112.878 134.034 112.882 134.034 112.888 134.034ZM112.851 134.033C112.846 134.033 112.839 134.033 112.833 134.033C112.84 134.033 112.845 134.033 112.851 134.033ZM112.776 134.031C112.771 134.031 112.765 134.031 112.759 134.031C112.765 134.031 112.771 134.031 112.776 134.031ZM112.737 134.031C112.733 134.031 112.727 134.031 112.722 134.031C112.727 134.031 112.733 134.031 112.737 134.031ZM112.703 134.03C112.689 134.03 112.676 134.03 112.662 134.029C112.676 134.03 112.689 134.03 112.703 134.03ZM112.648 134.029C112.641 134.029 112.635 134.028 112.628 134.028C112.635 134.028 112.641 134.029 112.648 134.029ZM112.574 134.027C112.567 134.027 112.561 134.027 112.553 134.027C112.56 134.027 112.567 134.027 112.574 134.027ZM112.538 134.026C112.531 134.026 112.522 134.026 112.516 134.025C112.523 134.026 112.531 134.026 112.538 134.026ZM112.463 134.024C112.456 134.024 112.45 134.024 112.442 134.023C112.45 134.024 112.457 134.024 112.463 134.024ZM112.426 134.023C112.419 134.022 112.412 134.022 112.405 134.022C112.412 134.022 112.419 134.022 112.426 134.023ZM112.39 134.021C112.382 134.021 112.375 134.021 112.368 134.021C112.374 134.021 112.383 134.021 112.39 134.021ZM112.354 134.02C112.346 134.02 112.338 134.02 112.33 134.019C112.339 134.02 112.345 134.02 112.354 134.02ZM112.317 134.019C112.309 134.018 112.302 134.018 112.293 134.018C112.301 134.018 112.309 134.018 112.317 134.019ZM112.28 134.017C112.272 134.017 112.264 134.017 112.256 134.017C112.265 134.017 112.272 134.017 112.28 134.017ZM112.21 134.014C112.201 134.014 112.191 134.014 112.183 134.014C112.192 134.014 112.2 134.014 112.21 134.014ZM112.176 134.013C112.108 134.01 112.037 134.007 111.967 134.003C112.037 134.007 112.107 134.01 112.176 134.013ZM111.93 134.002C111.919 134.001 111.909 134 111.899 134C111.909 134 111.919 134.001 111.93 134.002ZM111.893 134C111.884 134 111.872 133.999 111.862 133.998C111.872 133.999 111.883 134 111.893 134ZM111.857 133.998C111.847 133.997 111.837 133.997 111.827 133.996C111.837 133.997 111.846 133.997 111.857 133.998ZM111.785 133.993C111.774 133.993 111.764 133.993 111.753 133.992C111.764 133.993 111.775 133.993 111.785 133.993ZM111.749 133.992C111.738 133.991 111.728 133.99 111.717 133.99C111.728 133.99 111.739 133.991 111.749 133.992ZM111.714 133.99C99.6875 133.269 89.846 124.407 87.5708 112.855C88.1334 115.712 89.1596 118.403 90.5665 120.847C94.8476 128.291 102.661 133.447 111.714 133.99ZM115.252 131.258C113.328 131.258 111.462 131.009 109.684 130.543C118.777 129.213 125.782 121.363 125.782 111.905C125.782 111.343 125.757 110.787 125.708 110.238C127.376 112.436 128.367 115.175 128.367 118.142C128.367 125.375 122.484 131.258 115.252 131.258ZM113.231 126.094C113.229 126.094 113.227 126.094 113.224 126.094C113.226 126.094 113.229 126.094 113.231 126.094ZM101.887 122.076C99.4669 121.377 97.2544 120.19 95.3607 118.627C94.6495 117.127 94.1024 115.534 93.7417 113.872H91.2715C90.8474 113.163 90.469 112.421 90.1408 111.654H87.3626H95.4342C96.3412 115.834 98.669 119.489 101.887 122.076ZM124.193 115.108C124.193 115.106 124.192 115.103 124.192 115.1C124.192 115.103 124.192 115.106 124.193 115.108ZM87.5607 112.805C87.5599 112.799 87.5576 112.791 87.5568 112.784C87.5584 112.791 87.5592 112.798 87.5607 112.805ZM87.553 112.765C87.5522 112.761 87.5514 112.756 87.5507 112.752C87.5514 112.757 87.5522 112.76 87.553 112.765ZM87.5452 112.726C87.5445 112.722 87.5437 112.718 87.5437 112.715C87.5445 112.719 87.5445 112.722 87.5452 112.726ZM87.5375 112.685C87.5375 112.683 87.5375 112.683 87.5367 112.68C87.5375 112.682 87.5375 112.684 87.5375 112.685ZM87.5236 112.612V112.61C87.5236 112.611 87.5236 112.611 87.5236 112.612ZM87.3742 111.728V111.726C87.3742 111.727 87.3742 111.727 87.3742 111.728ZM87.3688 111.691C87.368 111.69 87.368 111.69 87.368 111.689C87.368 111.689 87.368 111.691 87.3688 111.691Z" fill="black"/>
<path d="M113.262 134.037C113.258 134.037 113.254 134.037 113.251 134.037C113.254 134.037 113.259 134.037 113.262 134.037ZM113.225 134.037C113.22 134.037 113.215 134.037 113.21 134.037C113.216 134.037 113.22 134.037 113.225 134.037ZM113.188 134.037C113.183 134.037 113.176 134.037 113.172 134.037C113.177 134.037 113.182 134.037 113.188 134.037ZM113.15 134.037C113.145 134.037 113.139 134.037 113.134 134.037C113.14 134.037 113.145 134.037 113.15 134.037ZM113.076 134.036C113.069 134.036 113.065 134.036 113.058 134.036C113.064 134.036 113.069 134.036 113.076 134.036ZM113.038 134.035C113.032 134.035 113.026 134.035 113.021 134.035C113.026 134.035 113.033 134.035 113.038 134.035ZM113.001 134.035C112.994 134.035 112.989 134.035 112.983 134.035C112.989 134.035 112.995 134.035 113.001 134.035ZM112.926 134.034C112.919 134.034 112.915 134.034 112.908 134.034C112.915 134.034 112.92 134.034 112.926 134.034ZM112.888 134.034C112.883 134.034 112.877 134.034 112.871 134.034C112.878 134.034 112.882 134.034 112.888 134.034ZM112.851 134.033C112.846 134.033 112.839 134.033 112.833 134.033C112.84 134.033 112.845 134.033 112.851 134.033ZM112.776 134.031C112.771 134.031 112.765 134.031 112.759 134.031C112.765 134.031 112.771 134.031 112.776 134.031ZM112.737 134.031C112.733 134.031 112.727 134.031 112.722 134.031C112.727 134.031 112.733 134.031 112.737 134.031ZM112.703 134.03C112.689 134.03 112.676 134.03 112.662 134.029C112.676 134.03 112.689 134.03 112.703 134.03ZM112.648 134.029C112.641 134.029 112.635 134.028 112.628 134.028C112.635 134.028 112.641 134.029 112.648 134.029ZM112.574 134.027C112.567 134.027 112.561 134.027 112.553 134.027C112.56 134.027 112.567 134.027 112.574 134.027ZM112.538 134.026C112.531 134.026 112.522 134.026 112.516 134.025C112.523 134.026 112.531 134.026 112.538 134.026ZM112.463 134.024C112.456 134.024 112.45 134.024 112.442 134.023C112.45 134.024 112.457 134.024 112.463 134.024ZM112.426 134.023C112.419 134.022 112.412 134.022 112.405 134.022C112.412 134.022 112.419 134.022 112.426 134.023ZM112.39 134.021C112.382 134.021 112.375 134.021 112.368 134.021C112.374 134.021 112.383 134.021 112.39 134.021ZM112.354 134.02C112.346 134.02 112.338 134.02 112.33 134.019C112.339 134.02 112.345 134.02 112.354 134.02ZM112.317 134.019C112.309 134.018 112.302 134.018 112.293 134.018C112.301 134.018 112.309 134.018 112.317 134.019ZM112.28 134.017C112.272 134.017 112.264 134.017 112.256 134.017C112.265 134.017 112.272 134.017 112.28 134.017ZM112.21 134.014C112.201 134.014 112.191 134.014 112.183 134.014C112.192 134.014 112.2 134.014 112.21 134.014ZM112.176 134.013C112.108 134.01 112.037 134.007 111.967 134.003C112.037 134.007 112.107 134.01 112.176 134.013ZM111.93 134.002C111.919 134.001 111.909 134 111.899 134C111.909 134 111.919 134.001 111.93 134.002ZM111.893 134C111.884 134 111.872 133.999 111.862 133.998C111.872 133.999 111.883 134 111.893 134ZM111.857 133.998C111.847 133.997 111.837 133.997 111.827 133.996C111.837 133.997 111.846 133.997 111.857 133.998ZM111.785 133.993C111.774 133.993 111.764 133.993 111.753 133.992C111.764 133.993 111.775 133.993 111.785 133.993ZM111.749 133.992C111.738 133.991 111.728 133.99 111.717 133.99C111.728 133.99 111.739 133.991 111.749 133.992ZM111.714 133.99C99.6875 133.269 89.846 124.407 87.5708 112.855C88.1334 115.712 89.1596 118.403 90.5665 120.847C94.8476 128.291 102.661 133.447 111.714 133.99ZM115.252 131.258C113.328 131.258 111.462 131.009 109.684 130.543C118.777 129.213 125.782 121.363 125.782 111.905C125.782 111.343 125.757 110.787 125.708 110.238C127.376 112.436 128.367 115.175 128.367 118.142C128.367 125.375 122.484 131.258 115.252 131.258ZM113.231 126.094C113.229 126.094 113.227 126.094 113.224 126.094C113.226 126.094 113.229 126.094 113.231 126.094ZM101.887 122.076C99.4669 121.377 97.2544 120.19 95.3607 118.627C94.6495 117.127 94.1024 115.534 93.7417 113.872H91.2715C90.8474 113.163 90.469 112.421 90.1408 111.654H87.3626H95.4342C96.3412 115.834 98.669 119.489 101.887 122.076ZM124.193 115.108C124.193 115.106 124.192 115.103 124.192 115.1C124.192 115.103 124.192 115.106 124.193 115.108ZM87.5607 112.805C87.5599 112.799 87.5576 112.791 87.5568 112.784C87.5584 112.791 87.5592 112.798 87.5607 112.805ZM87.553 112.765C87.5522 112.761 87.5514 112.756 87.5507 112.752C87.5514 112.757 87.5522 112.76 87.553 112.765ZM87.5452 112.726C87.5445 112.722 87.5437 112.718 87.5437 112.715C87.5445 112.719 87.5445 112.722 87.5452 112.726ZM87.5375 112.685C87.5375 112.683 87.5375 112.683 87.5367 112.68C87.5375 112.682 87.5375 112.684 87.5375 112.685ZM87.5236 112.612V112.61C87.5236 112.611 87.5236 112.611 87.5236 112.612ZM87.3742 111.728V111.726C87.3742 111.727 87.3742 111.727 87.3742 111.728ZM87.3688 111.691C87.368 111.69 87.368 111.69 87.368 111.689C87.368 111.689 87.368 111.691 87.3688 111.691Z" fill="white"/>
<path d="M113.275 126.094C113.271 126.094 113.268 126.094 113.264 126.094C113.268 126.094 113.271 126.094 113.275 126.094ZM113.249 126.094C113.244 126.094 113.237 126.094 113.231 126.094C113.237 126.094 113.243 126.094 113.249 126.094ZM113.224 126.094C108.933 126.077 104.995 124.575 101.887 122.076C101.893 122.077 101.899 122.08 101.905 122.081C105.011 124.572 108.94 126.077 113.224 126.094ZM124.193 115.15C124.193 115.147 124.193 115.146 124.193 115.143C124.193 115.146 124.193 115.148 124.193 115.15ZM124.193 115.117C124.193 115.114 124.193 115.111 124.193 115.108C124.193 115.111 124.193 115.114 124.193 115.117ZM124.192 115.1C124.192 115.098 124.192 115.094 124.192 115.091C124.192 115.094 124.192 115.097 124.192 115.1ZM124.192 115.084C124.192 115.081 124.192 115.077 124.192 115.074C124.192 115.078 124.192 115.081 124.192 115.084ZM124.192 115.067C124.192 115.064 124.192 115.06 124.192 115.057C124.192 115.061 124.192 115.064 124.192 115.067ZM124.192 115.053C124.12 109.639 120.075 105.179 114.848 104.43C114.844 104.426 114.84 104.422 114.836 104.418C115.865 104.566 116.847 104.86 117.764 105.275C117.778 105.277 117.791 105.28 117.805 105.282C121.528 106.98 124.134 110.713 124.192 115.053ZM87.5708 112.855C87.5708 112.854 87.57 112.853 87.57 112.853C87.5708 112.854 87.57 112.854 87.5708 112.855ZM87.563 112.818C87.5623 112.814 87.5615 112.809 87.5607 112.805C87.5615 112.81 87.5623 112.813 87.563 112.818ZM87.5568 112.784C87.5553 112.777 87.5545 112.771 87.553 112.765C87.5545 112.772 87.5553 112.777 87.5568 112.784ZM87.5367 112.68C87.5352 112.67 87.5329 112.66 87.5305 112.649C87.5329 112.659 87.5352 112.671 87.5367 112.68ZM87.5305 112.647C87.5282 112.636 87.5259 112.623 87.5236 112.612C87.5259 112.624 87.5282 112.634 87.5305 112.647ZM87.5236 112.61C87.4686 112.318 87.4191 112.024 87.3742 111.728C87.4191 112.024 87.4686 112.317 87.5236 112.61ZM87.3742 111.726C87.3719 111.715 87.3703 111.703 87.3688 111.691C87.3703 111.703 87.3719 111.714 87.3742 111.726ZM87.368 111.689C87.3665 111.677 87.3649 111.665 87.3626 111.654C87.3649 111.665 87.3665 111.678 87.368 111.689ZM113.35 96.365C113.346 96.365 113.341 96.365 113.337 96.365C113.341 96.365 113.346 96.365 113.35 96.365Z" fill="black"/>
<path d="M113.275 126.094C113.271 126.094 113.268 126.094 113.264 126.094C113.268 126.094 113.271 126.094 113.275 126.094ZM113.249 126.094C113.244 126.094 113.237 126.094 113.231 126.094C113.237 126.094 113.243 126.094 113.249 126.094ZM113.224 126.094C108.933 126.077 104.995 124.575 101.887 122.076C101.893 122.077 101.899 122.08 101.905 122.081C105.011 124.572 108.94 126.077 113.224 126.094ZM124.193 115.15C124.193 115.147 124.193 115.146 124.193 115.143C124.193 115.146 124.193 115.148 124.193 115.15ZM124.193 115.117C124.193 115.114 124.193 115.111 124.193 115.108C124.193 115.111 124.193 115.114 124.193 115.117ZM124.192 115.1C124.192 115.098 124.192 115.094 124.192 115.091C124.192 115.094 124.192 115.097 124.192 115.1ZM124.192 115.084C124.192 115.081 124.192 115.077 124.192 115.074C124.192 115.078 124.192 115.081 124.192 115.084ZM124.192 115.067C124.192 115.064 124.192 115.06 124.192 115.057C124.192 115.061 124.192 115.064 124.192 115.067ZM124.192 115.053C124.12 109.639 120.075 105.179 114.848 104.43C114.844 104.426 114.84 104.422 114.836 104.418C115.865 104.566 116.847 104.86 117.764 105.275C117.778 105.277 117.791 105.28 117.805 105.282C121.528 106.98 124.134 110.713 124.192 115.053ZM87.5708 112.855C87.5708 112.854 87.57 112.853 87.57 112.853C87.5708 112.854 87.57 112.854 87.5708 112.855ZM87.563 112.818C87.5623 112.814 87.5615 112.809 87.5607 112.805C87.5615 112.81 87.5623 112.813 87.563 112.818ZM87.5568 112.784C87.5553 112.777 87.5545 112.771 87.553 112.765C87.5545 112.772 87.5553 112.777 87.5568 112.784ZM87.5367 112.68C87.5352 112.67 87.5329 112.66 87.5305 112.649C87.5329 112.659 87.5352 112.671 87.5367 112.68ZM87.5305 112.647C87.5282 112.636 87.5259 112.623 87.5236 112.612C87.5259 112.624 87.5282 112.634 87.5305 112.647ZM87.5236 112.61C87.4686 112.318 87.4191 112.024 87.3742 111.728C87.4191 112.024 87.4686 112.317 87.5236 112.61ZM87.3742 111.726C87.3719 111.715 87.3703 111.703 87.3688 111.691C87.3703 111.703 87.3719 111.714 87.3742 111.726ZM87.368 111.689C87.3665 111.677 87.3649 111.665 87.3626 111.654C87.3649 111.665 87.3665 111.678 87.368 111.689ZM113.35 96.365C113.346 96.365 113.341 96.365 113.337 96.365C113.341 96.365 113.346 96.365 113.35 96.365Z" fill="url(#paint3_radial_655_4068)"/>
<path d="M109.684 130.544C103.343 128.882 98.1188 124.452 95.3607 118.628C97.2544 120.19 99.4669 121.377 101.887 122.076C104.995 124.575 108.933 126.077 113.224 126.094C113.227 126.094 113.229 126.094 113.231 126.094C113.237 126.094 113.244 126.094 113.249 126.094C113.254 126.094 113.259 126.094 113.264 126.094C113.268 126.095 113.271 126.095 113.275 126.095C113.283 126.095 113.292 126.095 113.3 126.095C119.307 126.095 124.193 121.208 124.193 115.201C124.193 115.196 124.193 115.19 124.193 115.185C124.193 115.182 124.193 115.181 124.193 115.179C124.193 115.175 124.193 115.172 124.193 115.168C124.193 115.165 124.193 115.163 124.193 115.161C124.193 115.158 124.193 115.154 124.193 115.151C124.193 115.148 124.193 115.146 124.193 115.144C124.193 115.141 124.193 115.137 124.193 115.134C124.193 115.131 124.193 115.128 124.193 115.126C124.193 115.123 124.193 115.12 124.193 115.117C124.193 115.114 124.193 115.112 124.193 115.109C124.192 115.107 124.192 115.103 124.192 115.1C124.192 115.097 124.192 115.095 124.192 115.092C124.192 115.09 124.192 115.086 124.192 115.084C124.192 115.081 124.192 115.079 124.192 115.075C124.192 115.073 124.192 115.07 124.192 115.068C124.192 115.065 124.192 115.062 124.192 115.058C124.192 115.056 124.192 115.055 124.192 115.053C124.134 110.714 121.528 106.981 117.805 105.283C121.012 105.918 123.802 107.725 125.708 110.238C125.757 110.788 125.782 111.344 125.782 111.906C125.782 121.363 118.777 129.214 109.684 130.544ZM90.5665 120.848C89.1596 118.403 88.1334 115.713 87.5708 112.855C87.57 112.855 87.5708 112.855 87.57 112.854C87.5677 112.842 87.5654 112.83 87.563 112.818C87.5623 112.814 87.5615 112.81 87.5607 112.806C87.5592 112.799 87.5584 112.791 87.5568 112.784C87.5553 112.777 87.5545 112.773 87.553 112.766C87.5522 112.761 87.5514 112.757 87.5507 112.752C87.5491 112.743 87.5468 112.735 87.5452 112.726C87.5445 112.722 87.5445 112.719 87.5437 112.715C87.5414 112.706 87.5398 112.696 87.5375 112.686C87.5375 112.684 87.5375 112.683 87.5367 112.68C87.5352 112.671 87.5329 112.66 87.5305 112.65C87.5305 112.649 87.5305 112.648 87.5305 112.648C87.5282 112.635 87.5259 112.625 87.5236 112.612C87.5236 112.612 87.5236 112.612 87.5236 112.611C87.4686 112.318 87.4191 112.024 87.3742 111.729C87.3742 111.728 87.3742 111.728 87.3742 111.727C87.3719 111.715 87.3703 111.704 87.3688 111.691C87.368 111.691 87.368 111.69 87.368 111.69C87.3665 111.678 87.3649 111.665 87.3626 111.654H90.1408C90.469 112.421 90.8474 113.163 91.2715 113.872H87.7944C88.3857 116.352 89.329 118.696 90.5665 120.848Z" fill="black"/>
<path d="M109.684 130.544C103.343 128.882 98.1188 124.452 95.3607 118.628C97.2544 120.19 99.4669 121.377 101.887 122.076C104.995 124.575 108.933 126.077 113.224 126.094C113.227 126.094 113.229 126.094 113.231 126.094C113.237 126.094 113.244 126.094 113.249 126.094C113.254 126.094 113.259 126.094 113.264 126.094C113.268 126.095 113.271 126.095 113.275 126.095C113.283 126.095 113.292 126.095 113.3 126.095C119.307 126.095 124.193 121.208 124.193 115.201C124.193 115.196 124.193 115.19 124.193 115.185C124.193 115.182 124.193 115.181 124.193 115.179C124.193 115.175 124.193 115.172 124.193 115.168C124.193 115.165 124.193 115.163 124.193 115.161C124.193 115.158 124.193 115.154 124.193 115.151C124.193 115.148 124.193 115.146 124.193 115.144C124.193 115.141 124.193 115.137 124.193 115.134C124.193 115.131 124.193 115.128 124.193 115.126C124.193 115.123 124.193 115.12 124.193 115.117C124.193 115.114 124.193 115.112 124.193 115.109C124.192 115.107 124.192 115.103 124.192 115.1C124.192 115.097 124.192 115.095 124.192 115.092C124.192 115.09 124.192 115.086 124.192 115.084C124.192 115.081 124.192 115.079 124.192 115.075C124.192 115.073 124.192 115.07 124.192 115.068C124.192 115.065 124.192 115.062 124.192 115.058C124.192 115.056 124.192 115.055 124.192 115.053C124.134 110.714 121.528 106.981 117.805 105.283C121.012 105.918 123.802 107.725 125.708 110.238C125.757 110.788 125.782 111.344 125.782 111.906C125.782 121.363 118.777 129.214 109.684 130.544ZM90.5665 120.848C89.1596 118.403 88.1334 115.713 87.5708 112.855C87.57 112.855 87.5708 112.855 87.57 112.854C87.5677 112.842 87.5654 112.83 87.563 112.818C87.5623 112.814 87.5615 112.81 87.5607 112.806C87.5592 112.799 87.5584 112.791 87.5568 112.784C87.5553 112.777 87.5545 112.773 87.553 112.766C87.5522 112.761 87.5514 112.757 87.5507 112.752C87.5491 112.743 87.5468 112.735 87.5452 112.726C87.5445 112.722 87.5445 112.719 87.5437 112.715C87.5414 112.706 87.5398 112.696 87.5375 112.686C87.5375 112.684 87.5375 112.683 87.5367 112.68C87.5352 112.671 87.5329 112.66 87.5305 112.65C87.5305 112.649 87.5305 112.648 87.5305 112.648C87.5282 112.635 87.5259 112.625 87.5236 112.612C87.5236 112.612 87.5236 112.612 87.5236 112.611C87.4686 112.318 87.4191 112.024 87.3742 111.729C87.3742 111.728 87.3742 111.728 87.3742 111.727C87.3719 111.715 87.3703 111.704 87.3688 111.691C87.368 111.691 87.368 111.69 87.368 111.69C87.3665 111.678 87.3649 111.665 87.3626 111.654H90.1408C90.469 112.421 90.8474 113.163 91.2715 113.872H87.7944C88.3857 116.352 89.329 118.696 90.5665 120.848Z" fill="white"/>
<path d="M113.3 134.037C113.287 134.037 113.275 134.037 113.262 134.037C113.259 134.037 113.254 134.037 113.251 134.037C113.243 134.037 113.233 134.037 113.225 134.037C113.22 134.037 113.216 134.037 113.21 134.037C113.202 134.037 113.196 134.037 113.188 134.037C113.182 134.037 113.177 134.037 113.172 134.037C113.165 134.037 113.158 134.037 113.15 134.037C113.145 134.037 113.14 134.037 113.134 134.037C113.126 134.037 113.121 134.037 113.113 134.036C113.107 134.036 113.101 134.036 113.096 134.036C113.09 134.036 113.082 134.036 113.076 134.036C113.069 134.036 113.064 134.036 113.058 134.036C113.052 134.036 113.045 134.035 113.038 134.035C113.033 134.035 113.026 134.035 113.021 134.035C113.014 134.035 113.008 134.035 113.001 134.035C112.995 134.035 112.989 134.035 112.983 134.035C112.977 134.035 112.97 134.035 112.963 134.034C112.958 134.034 112.951 134.034 112.946 134.034C112.939 134.034 112.932 134.034 112.926 134.034C112.92 134.034 112.915 134.034 112.908 134.034C112.902 134.034 112.895 134.034 112.888 134.034C112.882 134.034 112.878 134.034 112.871 134.034C112.864 134.034 112.858 134.034 112.851 134.033C112.845 134.033 112.84 134.033 112.833 134.033C112.827 134.033 112.82 134.032 112.813 134.032C112.808 134.032 112.802 134.032 112.796 134.032C112.789 134.032 112.784 134.032 112.776 134.031C112.771 134.031 112.765 134.031 112.759 134.031C112.751 134.031 112.745 134.031 112.737 134.031C112.733 134.031 112.727 134.031 112.722 134.031C112.715 134.031 112.71 134.031 112.703 134.03C112.689 134.03 112.676 134.03 112.662 134.029C112.658 134.029 112.653 134.029 112.648 134.029C112.641 134.029 112.635 134.028 112.628 134.028C112.621 134.028 112.617 134.028 112.611 134.028C112.605 134.028 112.597 134.027 112.591 134.027C112.585 134.027 112.58 134.027 112.574 134.027C112.567 134.027 112.56 134.027 112.553 134.027C112.548 134.027 112.543 134.026 112.538 134.026C112.531 134.026 112.523 134.026 112.516 134.025C112.511 134.025 112.506 134.025 112.501 134.025C112.493 134.024 112.486 134.024 112.479 134.024C112.474 134.024 112.468 134.024 112.463 134.024C112.457 134.024 112.45 134.024 112.442 134.023C112.437 134.023 112.431 134.023 112.426 134.023C112.419 134.022 112.412 134.022 112.405 134.022C112.4 134.021 112.395 134.021 112.39 134.021C112.383 134.021 112.374 134.021 112.368 134.021C112.364 134.021 112.357 134.02 112.354 134.02C112.345 134.02 112.339 134.02 112.33 134.019C112.326 134.019 112.322 134.019 112.317 134.019C112.309 134.018 112.301 134.018 112.293 134.018C112.289 134.017 112.285 134.017 112.28 134.017C112.272 134.017 112.265 134.017 112.256 134.017C112.252 134.016 112.249 134.016 112.245 134.016C112.237 134.016 112.228 134.015 112.219 134.015C112.216 134.014 112.213 134.014 112.21 134.014C112.2 134.014 112.192 134.014 112.183 134.014C112.179 134.013 112.179 134.013 112.176 134.013C112.107 134.01 112.037 134.007 111.967 134.003C111.967 134.003 111.967 134.003 111.966 134.003C111.955 134.003 111.944 134.002 111.933 134.002C111.933 134.002 111.93 134.002 111.93 134.002C111.919 134.001 111.909 134 111.899 134C111.895 134 111.895 134 111.893 134C111.883 134 111.872 133.999 111.862 133.998C111.86 133.998 111.859 133.998 111.857 133.998C111.846 133.997 111.837 133.997 111.827 133.996C111.825 133.996 111.822 133.996 111.82 133.996C111.81 133.995 111.8 133.995 111.79 133.993C111.789 133.993 111.786 133.993 111.785 133.993C111.775 133.993 111.764 133.993 111.753 133.992C111.752 133.992 111.75 133.992 111.749 133.992C111.739 133.991 111.728 133.99 111.717 133.99C111.716 133.99 111.715 133.99 111.714 133.99C102.661 133.447 94.8476 128.291 90.5665 120.847C92.4795 124.17 95.0968 127.035 98.2133 129.239C100.945 130.208 103.883 130.742 106.946 130.742C107.876 130.742 108.789 130.674 109.684 130.543C111.462 131.009 113.328 131.258 115.252 131.258C122.484 131.258 128.367 125.375 128.367 118.142C128.367 115.175 127.376 112.436 125.708 110.238C125.24 104.936 122.556 100.265 118.6 97.1365C116.932 96.6458 115.173 96.3696 113.35 96.365C123.714 96.3913 132.136 104.832 132.136 115.2C132.136 125.588 123.687 134.037 113.3 134.037ZM131.81 118.623C130.812 122.314 129.013 125.677 126.61 128.517C129.254 125.874 131.104 122.446 131.81 118.623ZM95.3607 118.627C93.7417 117.292 92.3557 115.684 91.2715 113.872H93.7417C94.1024 115.534 94.6495 117.127 95.3607 118.627ZM114.834 104.415C114.344 104.346 113.845 104.309 113.337 104.307C113.332 104.307 113.326 104.307 113.32 104.307C113.319 104.307 113.319 104.307 113.319 104.307C113.312 104.307 113.306 104.307 113.3 104.307H87.2628C87.6281 101.488 88.4491 98.8275 89.6665 96.3874C88.9367 97.8508 88.3679 99.4032 87.9361 101.013H106.946C110.051 101.013 112.847 102.324 114.834 104.415ZM113.337 96.365C113.333 96.365 113.329 96.365 113.326 96.365C113.33 96.365 113.333 96.365 113.337 96.365Z" fill="white"/>
<path d="M117.803 105.283C117.789 105.28 117.776 105.277 117.762 105.275C116.845 104.86 115.863 104.566 114.834 104.418C114.834 104.417 114.833 104.417 114.832 104.415C115.877 104.563 116.874 104.86 117.803 105.283Z" fill="black"/>
<path d="M117.803 105.283C117.789 105.28 117.776 105.277 117.762 105.275C116.845 104.86 115.863 104.566 114.834 104.418C114.834 104.417 114.833 104.417 114.832 104.415C115.877 104.563 116.874 104.86 117.803 105.283Z" fill="url(#paint4_radial_655_4068)"/>
<path d="M106.945 130.743C103.882 130.743 100.944 130.209 98.2126 129.24C95.0962 127.036 92.4789 124.17 90.5659 120.848C89.3284 118.696 88.3851 116.352 87.7938 113.872H91.2709C92.3551 115.684 93.7411 117.293 95.3601 118.628C98.1182 124.452 103.342 128.882 109.683 130.544C108.788 130.675 107.875 130.743 106.945 130.743ZM126.609 128.517C129.012 125.677 130.812 122.314 131.809 118.623C131.103 122.447 129.253 125.874 126.609 128.517ZM125.708 110.238C123.802 107.725 121.011 105.918 117.804 105.283C116.876 104.86 115.878 104.563 114.833 104.415C112.847 102.324 110.05 101.013 106.945 101.013H87.9354C88.3673 99.4035 88.9361 97.8511 89.6659 96.3877C89.6697 96.3799 89.6736 96.3722 89.6767 96.3652H113.299C113.308 96.3652 113.316 96.3652 113.326 96.3652C113.329 96.3652 113.333 96.3652 113.337 96.3652C113.34 96.3652 113.346 96.3652 113.349 96.3652C115.172 96.3699 116.931 96.6462 118.6 97.1368C122.555 100.266 125.239 104.936 125.708 110.238Z" fill="white"/>
</g>
</g>
<rect x="1" y="0.5" width="232" height="232" rx="116" stroke="white"/>
<defs>
<filter id="filter0_b_655_4068" x="34.5" y="34" width="165" height="165" filterUnits="userSpaceOnUse" color-interpolation-filters="sRGB">
<feFlood flood-opacity="0" result="BackgroundImageFix"/>
<feGaussianBlur in="BackgroundImageFix" stdDeviation="7"/>
<feComposite in2="SourceAlpha" operator="in" result="effect1_backgroundBlur_655_4068"/>
<feBlend mode="normal" in="SourceGraphic" in2="effect1_backgroundBlur_655_4068" result="shape"/>
</filter>
<linearGradient id="paint0_linear_655_4068" x1="19.011" y1="172.035" x2="312.902" y2="-21.777" gradientUnits="userSpaceOnUse">
<stop offset="0.182796" stop-color="#2668F2"/>
<stop offset="0.370968" stop-color="#2668F2"/>
<stop offset="0.516129" stop-color="#2668F2"/>
<stop offset="0.645161" stop-color="#2668F2"/>
<stop offset="0.725807" stop-color="#2668F2"/>
<stop offset="0.83871" stop-color="#2668F2"/>
<stop offset="1" stop-color="#2668F2"/>
</linearGradient>
<radialGradient id="paint1_radial_655_4068" cx="0" cy="0" r="1" gradientUnits="userSpaceOnUse" gradientTransform="translate(82.5735 51.3605) scale(303.415 265.455)">
<stop stop-color="white"/>
<stop offset="0.556122" stop-color="white"/>
<stop offset="1" stop-color="#FAFAFA"/>
</radialGradient>
<linearGradient id="paint2_linear_655_4068" x1="10.9577" y1="173.224" x2="327.052" y2="-48.5234" gradientUnits="userSpaceOnUse">
<stop stop-color="#2668F2"/>
<stop offset="0.182796" stop-color="#2668F2"/>
<stop offset="0.370968" stop-color="#2668F2"/>
<stop offset="0.516129" stop-color="#2668F2"/>
<stop offset="0.645161" stop-color="#2668F2"/>
<stop offset="0.725807" stop-color="#2668F2"/>
<stop offset="0.83871" stop-color="#2668F2"/>
<stop offset="1" stop-color="#2668F2"/>
</linearGradient>
<radialGradient id="paint3_radial_655_4068" cx="0" cy="0" r="1" gradientUnits="userSpaceOnUse" gradientTransform="translate(115.91 91.0745) scale(161.705 168.179)">
<stop stop-color="white"/>
<stop offset="0.556122" stop-color="white"/>
<stop offset="1" stop-color="#FAFAFA"/>
</radialGradient>
<radialGradient id="paint4_radial_655_4068" cx="0" cy="0" r="1" gradientUnits="userSpaceOnUse" gradientTransform="translate(27.4743 -988.69) scale(2004.65 5763.38)">
<stop stop-color="white"/>
<stop offset="0.556122" stop-color="white"/>
<stop offset="1" stop-color="#F7F7F7"/>
</radialGradient>
<clipPath id="clip0_655_4068">
<rect x="0.5" width="233" height="233" rx="116.5" fill="white"/>
</clipPath>
<clipPath id="clip1_655_4068">
<rect width="18" height="18" fill="white" transform="translate(98.4426 16.8909) rotate(-11.0439)"/>
</clipPath>
<clipPath id="clip2_655_4068">
<rect width="18" height="18" fill="white" transform="translate(115.419 202.122) rotate(-11.237)"/>
</clipPath>
<clipPath id="clip3_655_4068">
<rect width="80" height="80" fill="white" transform="translate(77.499 76)"/>
</clipPath>
</defs>
</svg>
