<svg width="226" height="32" viewBox="0 0 226 32" fill="none" xmlns="http://www.w3.org/2000/svg">
<path d="M14.5199 29.9608H4V26.7839V28.6427H11.9781C19.4111 28.6427 25.4582 22.5956 25.4582 15.162C25.4582 12.7658 24.8292 10.5138 23.7278 8.56234C26.173 10.8295 27.7056 14.0677 27.7056 17.6567C27.7056 18.6844 27.5781 19.6821 27.3409 20.6374C27.7635 19.3376 27.9963 17.9523 28 16.5141C27.9814 23.9323 21.9417 29.9608 14.5199 29.9608ZM28 16.5141C28 16.5089 28 16.5039 28 16.4987C28 16.5036 28 16.5092 28 16.5141ZM24.823 16.4686C24.823 16.4674 24.823 16.4671 24.823 16.4659C24.823 16.4668 24.823 16.4677 24.823 16.4686ZM24.823 16.4544C24.823 16.4541 24.823 16.4532 24.823 16.4529C24.823 16.4532 24.823 16.4538 24.823 16.4544ZM24.823 16.4284C24.823 16.4278 24.823 16.4269 24.823 16.4262C24.823 16.4272 24.823 16.4278 24.823 16.4284ZM24.8227 16.3885C24.8227 16.3879 24.8227 16.3885 24.8227 16.3882V16.3885ZM24.8224 16.3764C24.8224 16.3758 24.8224 16.3752 24.8224 16.3742C24.8224 16.3749 24.8224 16.3758 24.8224 16.3764ZM24.8224 16.3625C24.8224 16.3618 24.8224 16.3618 24.8224 16.3615C24.8224 16.3615 24.8224 16.3622 24.8224 16.3625ZM24.8221 16.3492C24.8221 16.3488 24.8221 16.3492 24.8221 16.3488V16.3492ZM24.8218 16.3102C24.8218 16.3098 24.8218 16.3095 24.8218 16.3092C24.8218 16.3095 24.8218 16.3095 24.8218 16.3102ZM17.9225 6.75456C16.857 6.38062 15.7116 6.17723 14.5199 6.17723C14.3112 6.17723 14.1057 6.18776 13.9014 6.2051H6.9909C8.85782 4.2772 11.4475 3.05509 14.3245 3.00184C12.1744 3.04147 10.1849 3.73455 8.53743 4.88702H8.54115C8.35882 5.01456 8.18083 5.14766 8.00717 5.28603H14.5561C14.6511 5.27798 14.7468 5.27117 14.8424 5.2656C15.9583 5.59001 16.9963 6.09799 17.9225 6.75456ZM14.3248 3.00184C14.3332 3.00184 14.3419 3.00153 14.3502 3.00153C14.3416 3.00153 14.3335 3.00184 14.3248 3.00184ZM14.4038 3.00091C14.4115 3.0006 14.4196 3.0006 14.4276 3.0006C14.4254 3.0006 14.4227 3.0006 14.4205 3.0006C14.4199 3.0006 14.4189 3.0006 14.4183 3.0006C14.4134 3.0006 14.4084 3.0006 14.4038 3.00091ZM14.4298 3.0006C14.4335 3.00029 14.4378 3.00029 14.4415 3.00029C14.4397 3.00029 14.4375 3.00029 14.4357 3.00029C14.4344 3.00029 14.4332 3.00029 14.4319 3.0006C14.4313 3.0006 14.4304 3.0006 14.4298 3.0006ZM14.4415 3.00029C14.4437 3.00029 14.4453 3.00029 14.4471 3.00029C14.4465 3.00029 14.4462 3.00029 14.4456 3.00029C14.4443 3.00029 14.4431 3.00029 14.4415 3.00029ZM14.448 3.00029C14.4499 3.00029 14.4514 3.00029 14.4533 3.00029C14.4521 3.00029 14.4511 3.00029 14.4502 3.00029C14.4496 3.00029 14.4487 3.00029 14.448 3.00029ZM14.4561 3.00029C14.4583 3.00029 14.4598 3.00029 14.4617 3.00029C14.461 3.00029 14.4604 3.00029 14.4595 3.00029C14.4586 3.00029 14.4573 3.00029 14.4561 3.00029ZM14.4626 3.00029C14.4682 3.00029 14.4737 3.00029 14.4793 3.00029C14.479 3.00029 14.4787 3.00029 14.4784 3.00029C14.4765 3.00029 14.475 3.00029 14.4731 3.00029C14.47 3.00029 14.4672 3.00029 14.4641 3.00029C14.4635 3.00029 14.4632 3.00029 14.4626 3.00029ZM14.4821 3.00029C14.4849 3.00029 14.487 3.00029 14.4898 3.00029C14.4889 3.00029 14.4883 3.00029 14.4874 3.00029C14.4855 3.00029 14.4839 3.00029 14.4821 3.00029ZM14.4917 3.00029C14.496 3.00029 14.5004 3.00029 14.5047 3.00029C14.5038 3.00029 14.5025 3.00029 14.5019 3.00029C14.4985 3.00029 14.4954 3.00029 14.4923 3.00029C14.492 3.00029 14.492 3.00029 14.4917 3.00029Z" fill="black"/>
<path d="M14.5199 29.9608H4V26.7839V28.6427H11.9781C19.4111 28.6427 25.4582 22.5956 25.4582 15.162C25.4582 12.7658 24.8292 10.5138 23.7278 8.56234C26.173 10.8295 27.7056 14.0677 27.7056 17.6567C27.7056 18.6844 27.5781 19.6821 27.3409 20.6374C27.7635 19.3376 27.9963 17.9523 28 16.5141C27.9814 23.9323 21.9417 29.9608 14.5199 29.9608ZM28 16.5141C28 16.5089 28 16.5039 28 16.4987C28 16.5036 28 16.5092 28 16.5141ZM24.823 16.4686C24.823 16.4674 24.823 16.4671 24.823 16.4659C24.823 16.4668 24.823 16.4677 24.823 16.4686ZM24.823 16.4544C24.823 16.4541 24.823 16.4532 24.823 16.4529C24.823 16.4532 24.823 16.4538 24.823 16.4544ZM24.823 16.4284C24.823 16.4278 24.823 16.4269 24.823 16.4262C24.823 16.4272 24.823 16.4278 24.823 16.4284ZM24.8227 16.3885C24.8227 16.3879 24.8227 16.3885 24.8227 16.3882V16.3885ZM24.8224 16.3764C24.8224 16.3758 24.8224 16.3752 24.8224 16.3742C24.8224 16.3749 24.8224 16.3758 24.8224 16.3764ZM24.8224 16.3625C24.8224 16.3618 24.8224 16.3618 24.8224 16.3615C24.8224 16.3615 24.8224 16.3622 24.8224 16.3625ZM24.8221 16.3492C24.8221 16.3488 24.8221 16.3492 24.8221 16.3488V16.3492ZM24.8218 16.3102C24.8218 16.3098 24.8218 16.3095 24.8218 16.3092C24.8218 16.3095 24.8218 16.3095 24.8218 16.3102ZM17.9225 6.75456C16.857 6.38062 15.7116 6.17723 14.5199 6.17723C14.3112 6.17723 14.1057 6.18776 13.9014 6.2051H6.9909C8.85782 4.2772 11.4475 3.05509 14.3245 3.00184C12.1744 3.04147 10.1849 3.73455 8.53743 4.88702H8.54115C8.35882 5.01456 8.18083 5.14766 8.00717 5.28603H14.5561C14.6511 5.27798 14.7468 5.27117 14.8424 5.2656C15.9583 5.59001 16.9963 6.09799 17.9225 6.75456ZM14.3248 3.00184C14.3332 3.00184 14.3419 3.00153 14.3502 3.00153C14.3416 3.00153 14.3335 3.00184 14.3248 3.00184ZM14.4038 3.00091C14.4115 3.0006 14.4196 3.0006 14.4276 3.0006C14.4254 3.0006 14.4227 3.0006 14.4205 3.0006C14.4199 3.0006 14.4189 3.0006 14.4183 3.0006C14.4134 3.0006 14.4084 3.0006 14.4038 3.00091ZM14.4298 3.0006C14.4335 3.00029 14.4378 3.00029 14.4415 3.00029C14.4397 3.00029 14.4375 3.00029 14.4357 3.00029C14.4344 3.00029 14.4332 3.00029 14.4319 3.0006C14.4313 3.0006 14.4304 3.0006 14.4298 3.0006ZM14.4415 3.00029C14.4437 3.00029 14.4453 3.00029 14.4471 3.00029C14.4465 3.00029 14.4462 3.00029 14.4456 3.00029C14.4443 3.00029 14.4431 3.00029 14.4415 3.00029ZM14.448 3.00029C14.4499 3.00029 14.4514 3.00029 14.4533 3.00029C14.4521 3.00029 14.4511 3.00029 14.4502 3.00029C14.4496 3.00029 14.4487 3.00029 14.448 3.00029ZM14.4561 3.00029C14.4583 3.00029 14.4598 3.00029 14.4617 3.00029C14.461 3.00029 14.4604 3.00029 14.4595 3.00029C14.4586 3.00029 14.4573 3.00029 14.4561 3.00029ZM14.4626 3.00029C14.4682 3.00029 14.4737 3.00029 14.4793 3.00029C14.479 3.00029 14.4787 3.00029 14.4784 3.00029C14.4765 3.00029 14.475 3.00029 14.4731 3.00029C14.47 3.00029 14.4672 3.00029 14.4641 3.00029C14.4635 3.00029 14.4632 3.00029 14.4626 3.00029ZM14.4821 3.00029C14.4849 3.00029 14.487 3.00029 14.4898 3.00029C14.4889 3.00029 14.4883 3.00029 14.4874 3.00029C14.4855 3.00029 14.4839 3.00029 14.4821 3.00029ZM14.4917 3.00029C14.496 3.00029 14.5004 3.00029 14.5047 3.00029C14.5038 3.00029 14.5025 3.00029 14.5019 3.00029C14.4985 3.00029 14.4954 3.00029 14.4923 3.00029C14.492 3.00029 14.492 3.00029 14.4917 3.00029Z" fill="url(#paint0_linear_671_11243)"/>
<path d="M24.823 16.4529C24.823 16.4491 24.823 16.4457 24.823 16.442C24.823 16.446 24.823 16.4488 24.823 16.4529ZM24.823 16.4262C24.823 16.4225 24.823 16.4188 24.8227 16.4148C24.823 16.4185 24.823 16.4225 24.823 16.4262ZM24.8227 16.4145C24.8227 16.4104 24.8227 16.4067 24.8227 16.4024C24.8227 16.4067 24.8227 16.4101 24.8227 16.4145ZM24.8227 16.4002C24.8227 16.3962 24.8227 16.3925 24.8227 16.3885C24.8227 16.3922 24.8227 16.3965 24.8227 16.4002ZM24.8227 16.3882C24.8227 16.3841 24.8227 16.3804 24.8224 16.3764C24.8227 16.3801 24.8227 16.3844 24.8227 16.3882ZM24.8224 16.3742C24.8224 16.3702 24.8224 16.3665 24.8224 16.3625C24.8224 16.3662 24.8224 16.3705 24.8224 16.3742ZM24.8218 16.3092C24.8215 16.3006 24.8215 16.292 24.8212 16.2837C24.8215 16.2923 24.8215 16.3006 24.8218 16.3092ZM24.8212 16.2837C24.8212 16.2793 24.8212 16.2749 24.8209 16.2705C24.8212 16.2746 24.8212 16.2793 24.8212 16.2837ZM24.8209 16.2702C24.7326 11.8752 21.8764 8.14737 17.9287 6.75903C17.9265 6.75779 17.9247 6.75625 17.9225 6.7547C21.8743 8.1415 24.7326 11.8724 24.8209 16.2702ZM14.3246 3.00199H14.3249C14.3249 3.00199 14.3249 3.00199 14.3246 3.00199ZM14.3503 3.00168C14.3506 3.00168 14.3512 3.00168 14.3512 3.00168C14.3509 3.00168 14.3506 3.00168 14.3503 3.00168ZM14.4017 3.00106C14.4026 3.00106 14.4029 3.00106 14.4038 3.00106C14.4032 3.00106 14.4023 3.00106 14.4017 3.00106ZM14.4277 3.00075C14.4286 3.00075 14.4292 3.00075 14.4298 3.00075C14.4289 3.00075 14.4286 3.00075 14.4277 3.00075ZM14.5608 3.00044C14.5602 3.00044 14.5592 3.00044 14.5589 3.00044C14.5595 3.00044 14.5602 3.00044 14.5608 3.00044ZM14.5407 3.00044C14.5388 3.00044 14.536 3.00044 14.5342 3.00044C14.5363 3.00044 14.5385 3.00044 14.5407 3.00044ZM14.506 3.00044C14.5069 3.00044 14.5075 3.00044 14.5082 3.00044C14.5078 3.00044 14.5069 3.00044 14.5066 3.00044C14.5063 3.00044 14.5063 3.00044 14.506 3.00044ZM14.5304 3.00044C14.5267 3.00044 14.5236 3.00044 14.5199 3.00044C14.5233 3.00044 14.527 3.00044 14.5304 3.00044Z" fill="black"/>
<path d="M24.823 16.4529C24.823 16.4491 24.823 16.4457 24.823 16.442C24.823 16.446 24.823 16.4488 24.823 16.4529ZM24.823 16.4262C24.823 16.4225 24.823 16.4188 24.8227 16.4148C24.823 16.4185 24.823 16.4225 24.823 16.4262ZM24.8227 16.4145C24.8227 16.4104 24.8227 16.4067 24.8227 16.4024C24.8227 16.4067 24.8227 16.4101 24.8227 16.4145ZM24.8227 16.4002C24.8227 16.3962 24.8227 16.3925 24.8227 16.3885C24.8227 16.3922 24.8227 16.3965 24.8227 16.4002ZM24.8227 16.3882C24.8227 16.3841 24.8227 16.3804 24.8224 16.3764C24.8227 16.3801 24.8227 16.3844 24.8227 16.3882ZM24.8224 16.3742C24.8224 16.3702 24.8224 16.3665 24.8224 16.3625C24.8224 16.3662 24.8224 16.3705 24.8224 16.3742ZM24.8218 16.3092C24.8215 16.3006 24.8215 16.292 24.8212 16.2837C24.8215 16.2923 24.8215 16.3006 24.8218 16.3092ZM24.8212 16.2837C24.8212 16.2793 24.8212 16.2749 24.8209 16.2705C24.8212 16.2746 24.8212 16.2793 24.8212 16.2837ZM24.8209 16.2702C24.7326 11.8752 21.8764 8.14737 17.9287 6.75903C17.9265 6.75779 17.9247 6.75625 17.9225 6.7547C21.8743 8.1415 24.7326 11.8724 24.8209 16.2702ZM14.3246 3.00199H14.3249C14.3249 3.00199 14.3249 3.00199 14.3246 3.00199ZM14.3503 3.00168C14.3506 3.00168 14.3512 3.00168 14.3512 3.00168C14.3509 3.00168 14.3506 3.00168 14.3503 3.00168ZM14.4017 3.00106C14.4026 3.00106 14.4029 3.00106 14.4038 3.00106C14.4032 3.00106 14.4023 3.00106 14.4017 3.00106ZM14.4277 3.00075C14.4286 3.00075 14.4292 3.00075 14.4298 3.00075C14.4289 3.00075 14.4286 3.00075 14.4277 3.00075ZM14.5608 3.00044C14.5602 3.00044 14.5592 3.00044 14.5589 3.00044C14.5595 3.00044 14.5602 3.00044 14.5608 3.00044ZM14.5407 3.00044C14.5388 3.00044 14.536 3.00044 14.5342 3.00044C14.5363 3.00044 14.5385 3.00044 14.5407 3.00044ZM14.506 3.00044C14.5069 3.00044 14.5075 3.00044 14.5082 3.00044C14.5078 3.00044 14.5069 3.00044 14.5066 3.00044C14.5063 3.00044 14.5063 3.00044 14.506 3.00044ZM14.5304 3.00044C14.5267 3.00044 14.5236 3.00044 14.5199 3.00044C14.5233 3.00044 14.527 3.00044 14.5304 3.00044Z" fill="url(#paint1_radial_671_11243)"/>
<path d="M11.9781 28.6427H4V26.7839H14.5199C14.9152 26.7839 15.3052 26.7613 15.689 26.7179C19.1486 26.5712 22.1113 24.4793 23.5105 21.5089C24.3463 20.0209 24.8231 18.3054 24.8231 16.4802C24.8231 16.4765 24.823 16.4724 24.823 16.4686C24.823 16.4677 24.823 16.4668 24.823 16.4659C24.823 16.4621 24.823 16.4581 24.823 16.4544C24.823 16.4538 24.823 16.4532 24.823 16.4529C24.823 16.4488 24.823 16.446 24.823 16.442C24.823 16.4414 24.823 16.4408 24.823 16.4402C24.823 16.4361 24.823 16.4324 24.823 16.4284C24.823 16.4278 24.823 16.4272 24.823 16.4262C24.823 16.4225 24.823 16.4185 24.8227 16.4148V16.4145C24.8227 16.4101 24.8227 16.4067 24.8227 16.4024C24.8227 16.4018 24.8227 16.4008 24.8227 16.4002C24.8227 16.3965 24.8227 16.3922 24.8227 16.3885V16.3882C24.8227 16.3844 24.8227 16.3801 24.8224 16.3764C24.8224 16.3758 24.8224 16.3749 24.8224 16.3742C24.8224 16.3705 24.8224 16.3662 24.8224 16.3625C24.8224 16.3622 24.8224 16.3615 24.8224 16.3615C24.8224 16.3572 24.8224 16.3535 24.8221 16.3492V16.3488C24.8221 16.3448 24.8221 16.3405 24.8221 16.3365C24.8221 16.3358 24.8221 16.3355 24.8221 16.3352C24.8218 16.3269 24.8218 16.3185 24.8218 16.3102C24.8218 16.3095 24.8218 16.3095 24.8218 16.3092C24.8215 16.3006 24.8215 16.2923 24.8212 16.2837C24.8212 16.2793 24.8212 16.2746 24.8209 16.2705V16.2702C24.7326 11.8724 21.8742 8.14135 17.9225 6.75456C16.9963 6.09799 15.9583 5.59001 14.8424 5.2656C14.9941 5.25693 15.1467 5.25239 15.3005 5.25239C18.5512 5.25239 21.5136 6.50939 23.7278 8.56234C24.8292 10.5138 25.4582 12.7658 25.4582 15.162C25.4582 22.5956 19.4111 28.6427 11.9781 28.6427ZM8.54115 4.88702H8.53743C10.1849 3.73455 12.1744 3.04147 14.3245 3.00184C14.3248 3.00184 14.3248 3.00184 14.3248 3.00184C14.3335 3.00184 14.3416 3.00153 14.3502 3.00153C14.3505 3.00153 14.3508 3.00153 14.3511 3.00153C14.3595 3.00153 14.3676 3.00122 14.3759 3.00122C14.3765 3.00122 14.3772 3.00122 14.3778 3.00122C14.3858 3.00091 14.3936 3.00091 14.4016 3.00091C14.4022 3.00091 14.4032 3.00091 14.4038 3.00091C14.4084 3.0006 14.4134 3.0006 14.4183 3.0006C12.2332 3.02165 10.2118 3.71877 8.54115 4.88702ZM14.4205 3.0006C14.4227 3.0006 14.4254 3.0006 14.4276 3.0006C14.4285 3.0006 14.4288 3.0006 14.4298 3.0006C14.4304 3.0006 14.4313 3.0006 14.4319 3.0006C14.4282 3.0006 14.4242 3.0006 14.4205 3.0006ZM14.4357 3.00029C14.4375 3.00029 14.4397 3.00029 14.4415 3.00029C14.4431 3.00029 14.4443 3.00029 14.4456 3.00029C14.4425 3.00029 14.4391 3.00029 14.4357 3.00029ZM14.4502 3.00029C14.4511 3.00029 14.4521 3.00029 14.4533 3.00029C14.4542 3.00029 14.4552 3.00029 14.4561 3.00029C14.4573 3.00029 14.4586 3.00029 14.4595 3.00029C14.4564 3.00029 14.4533 3.00029 14.4502 3.00029ZM14.4731 3.00029C14.47 3.00029 14.4672 3.00029 14.4641 3.00029C14.4672 3.00029 14.4703 3.00029 14.4731 3.00029ZM14.4784 3.00029C14.4787 3.00029 14.479 3.00029 14.4793 3.00029C14.4802 3.00029 14.4812 3.00029 14.4821 3.00029C14.4839 3.00029 14.4855 3.00029 14.4874 3.00029C14.4843 3.00029 14.4815 3.00029 14.4784 3.00029ZM14.5066 3.00044C14.5069 3.00044 14.5078 3.00029 14.5081 3.00029C14.5121 3.00029 14.5158 3.00029 14.5199 3.00029C14.5155 3.00029 14.5109 3.00044 14.5066 3.00044Z" fill="url(#paint2_linear_671_11243)"/>
<path d="M15.6595 26.7191C19.0429 26.3449 21.9372 24.326 23.5237 21.4815C23.5193 21.4905 23.515 21.4998 23.5107 21.5087C21.9258 24.3312 19.05 26.3365 15.6892 26.7179C15.6793 26.7182 15.6694 26.7185 15.6595 26.7191ZM14.5002 24.0146C14.4968 24.0146 14.4934 24.0146 14.49 24.0146C14.4931 24.0146 14.4971 24.0146 14.5002 24.0146ZM14.4841 24.0146C14.481 24.0146 14.4782 24.0146 14.4751 24.0146C14.4782 24.0146 14.4807 24.0146 14.4841 24.0146ZM14.4686 24.0146C14.4658 24.0146 14.4627 24.0146 14.46 24.0146C14.4631 24.0146 14.4658 24.0146 14.4686 24.0146ZM14.4535 24.0146C14.4507 24.0146 14.4479 24.0146 14.4451 24.0143C14.4482 24.0146 14.4504 24.0146 14.4535 24.0146ZM14.4383 24.0143C14.4355 24.0143 14.433 24.0143 14.4302 24.0143C14.4327 24.0143 14.4358 24.0143 14.4383 24.0143ZM14.4231 24.0143C14.4203 24.0143 14.4179 24.0139 14.4154 24.0139C14.4179 24.0139 14.4207 24.0143 14.4231 24.0143ZM14.4083 24.0139C14.4055 24.0139 14.403 24.0139 14.4002 24.0139C14.403 24.0139 14.4058 24.0139 14.4083 24.0139ZM14.3931 24.0139C14.3903 24.0139 14.3881 24.0139 14.3854 24.0136C14.3881 24.0139 14.3906 24.0139 14.3931 24.0139ZM14.3782 24.0136C14.3755 24.0136 14.373 24.0136 14.3705 24.0136C14.373 24.0136 14.3758 24.0136 14.3782 24.0136ZM14.3634 24.0133C14.3606 24.0133 14.3581 24.0133 14.3553 24.0133C14.3578 24.0133 14.3609 24.0133 14.3634 24.0133ZM14.3485 24.0133C14.346 24.0133 14.343 24.013 14.3405 24.013C14.3433 24.0133 14.3457 24.0133 14.3485 24.0133ZM14.3185 24.0127C14.316 24.0127 14.3132 24.0127 14.3105 24.0124C14.3135 24.0127 14.3157 24.0127 14.3185 24.0127ZM14.2888 24.0121C14.2863 24.0121 14.2835 24.0121 14.281 24.0118C14.2838 24.0121 14.286 24.0121 14.2888 24.0121ZM14.2649 24.0115C14.2634 24.0115 14.2612 24.0115 14.2594 24.0115C14.2612 24.0115 14.2631 24.0115 14.2649 24.0115ZM14.251 24.0112C14.2488 24.0112 14.2467 24.0112 14.2445 24.0112C14.2467 24.0112 14.2485 24.0112 14.251 24.0112ZM14.2365 24.0108C14.2343 24.0108 14.2318 24.0105 14.2297 24.0105C14.2318 24.0105 14.234 24.0108 14.2365 24.0108ZM14.2213 24.0105C14.2191 24.0102 14.2173 24.0102 14.2151 24.0102C14.2173 24.0102 14.2191 24.0105 14.2213 24.0105ZM14.2064 24.0099C14.2043 24.0099 14.2021 24.0099 14.2002 24.0099C14.2024 24.0099 14.2043 24.0099 14.2064 24.0099ZM14.1767 24.009C14.1746 24.009 14.1727 24.009 14.1705 24.009C14.1724 24.009 14.1749 24.009 14.1767 24.009ZM14.147 24.0081C14.1451 24.0081 14.1433 24.0078 14.1414 24.0078C14.143 24.0078 14.1455 24.0081 14.147 24.0081ZM14.1321 24.0074C14.1303 24.0074 14.1284 24.0074 14.1269 24.0074C14.1287 24.0074 14.1303 24.0074 14.1321 24.0074ZM14.1024 24.0065C14.1012 24.0062 14.0993 24.0062 14.0981 24.0062C14.0996 24.0062 14.1009 24.0062 14.1024 24.0065ZM14.073 24.0053C14.0724 24.005 14.0712 24.005 14.0705 24.005C14.0715 24.005 14.0718 24.005 14.073 24.0053ZM13.9594 23.9997C13.9585 23.9997 13.9582 23.9997 13.9573 23.9997C13.9582 23.9997 13.9582 23.9997 13.9594 23.9997ZM13.9449 23.9991C13.9442 23.9991 13.9436 23.9991 13.9427 23.9991C13.9436 23.9991 13.9439 23.9991 13.9449 23.9991ZM13.9012 23.9966C13.9006 23.9966 13.9003 23.9966 13.8997 23.9966C13.9 23.9966 13.9009 23.9966 13.9012 23.9966ZM13.8867 23.9957C13.8861 23.9957 13.8864 23.9957 13.8857 23.9957C13.8861 23.9957 13.8864 23.9957 13.8867 23.9957ZM28.0001 16.4986C28.0001 16.4974 28.0001 16.4968 28.0001 16.4952C28.0001 16.4964 28.0001 16.4974 28.0001 16.4986ZM15.1345 12.167C14.9385 12.1386 14.7386 12.1234 14.5349 12.1228C14.7379 12.1234 14.9376 12.1382 15.1336 12.1658C15.1339 12.1664 15.1342 12.1664 15.1345 12.167ZM14.5349 12.1228C14.5327 12.1228 14.5305 12.1228 14.5281 12.1228C14.5302 12.1228 14.5327 12.1228 14.5349 12.1228ZM14.4618 3.00023C14.4621 3.00023 14.4624 3.00023 14.4627 3.00023C14.4627 3.00023 14.4621 3.00023 14.4618 3.00023ZM14.5049 3.00023C14.5052 3.00023 14.5058 3.00023 14.5061 3.00023H14.5058C14.5052 3.00023 14.5052 3.00023 14.5049 3.00023Z" fill="black"/>
<path d="M15.6595 26.7191C19.0429 26.3449 21.9372 24.326 23.5237 21.4815C23.5193 21.4905 23.515 21.4998 23.5107 21.5087C21.9258 24.3312 19.05 26.3365 15.6892 26.7179C15.6793 26.7182 15.6694 26.7185 15.6595 26.7191ZM14.5002 24.0146C14.4968 24.0146 14.4934 24.0146 14.49 24.0146C14.4931 24.0146 14.4971 24.0146 14.5002 24.0146ZM14.4841 24.0146C14.481 24.0146 14.4782 24.0146 14.4751 24.0146C14.4782 24.0146 14.4807 24.0146 14.4841 24.0146ZM14.4686 24.0146C14.4658 24.0146 14.4627 24.0146 14.46 24.0146C14.4631 24.0146 14.4658 24.0146 14.4686 24.0146ZM14.4535 24.0146C14.4507 24.0146 14.4479 24.0146 14.4451 24.0143C14.4482 24.0146 14.4504 24.0146 14.4535 24.0146ZM14.4383 24.0143C14.4355 24.0143 14.433 24.0143 14.4302 24.0143C14.4327 24.0143 14.4358 24.0143 14.4383 24.0143ZM14.4231 24.0143C14.4203 24.0143 14.4179 24.0139 14.4154 24.0139C14.4179 24.0139 14.4207 24.0143 14.4231 24.0143ZM14.4083 24.0139C14.4055 24.0139 14.403 24.0139 14.4002 24.0139C14.403 24.0139 14.4058 24.0139 14.4083 24.0139ZM14.3931 24.0139C14.3903 24.0139 14.3881 24.0139 14.3854 24.0136C14.3881 24.0139 14.3906 24.0139 14.3931 24.0139ZM14.3782 24.0136C14.3755 24.0136 14.373 24.0136 14.3705 24.0136C14.373 24.0136 14.3758 24.0136 14.3782 24.0136ZM14.3634 24.0133C14.3606 24.0133 14.3581 24.0133 14.3553 24.0133C14.3578 24.0133 14.3609 24.0133 14.3634 24.0133ZM14.3485 24.0133C14.346 24.0133 14.343 24.013 14.3405 24.013C14.3433 24.0133 14.3457 24.0133 14.3485 24.0133ZM14.3185 24.0127C14.316 24.0127 14.3132 24.0127 14.3105 24.0124C14.3135 24.0127 14.3157 24.0127 14.3185 24.0127ZM14.2888 24.0121C14.2863 24.0121 14.2835 24.0121 14.281 24.0118C14.2838 24.0121 14.286 24.0121 14.2888 24.0121ZM14.2649 24.0115C14.2634 24.0115 14.2612 24.0115 14.2594 24.0115C14.2612 24.0115 14.2631 24.0115 14.2649 24.0115ZM14.251 24.0112C14.2488 24.0112 14.2467 24.0112 14.2445 24.0112C14.2467 24.0112 14.2485 24.0112 14.251 24.0112ZM14.2365 24.0108C14.2343 24.0108 14.2318 24.0105 14.2297 24.0105C14.2318 24.0105 14.234 24.0108 14.2365 24.0108ZM14.2213 24.0105C14.2191 24.0102 14.2173 24.0102 14.2151 24.0102C14.2173 24.0102 14.2191 24.0105 14.2213 24.0105ZM14.2064 24.0099C14.2043 24.0099 14.2021 24.0099 14.2002 24.0099C14.2024 24.0099 14.2043 24.0099 14.2064 24.0099ZM14.1767 24.009C14.1746 24.009 14.1727 24.009 14.1705 24.009C14.1724 24.009 14.1749 24.009 14.1767 24.009ZM14.147 24.0081C14.1451 24.0081 14.1433 24.0078 14.1414 24.0078C14.143 24.0078 14.1455 24.0081 14.147 24.0081ZM14.1321 24.0074C14.1303 24.0074 14.1284 24.0074 14.1269 24.0074C14.1287 24.0074 14.1303 24.0074 14.1321 24.0074ZM14.1024 24.0065C14.1012 24.0062 14.0993 24.0062 14.0981 24.0062C14.0996 24.0062 14.1009 24.0062 14.1024 24.0065ZM14.073 24.0053C14.0724 24.005 14.0712 24.005 14.0705 24.005C14.0715 24.005 14.0718 24.005 14.073 24.0053ZM13.9594 23.9997C13.9585 23.9997 13.9582 23.9997 13.9573 23.9997C13.9582 23.9997 13.9582 23.9997 13.9594 23.9997ZM13.9449 23.9991C13.9442 23.9991 13.9436 23.9991 13.9427 23.9991C13.9436 23.9991 13.9439 23.9991 13.9449 23.9991ZM13.9012 23.9966C13.9006 23.9966 13.9003 23.9966 13.8997 23.9966C13.9 23.9966 13.9009 23.9966 13.9012 23.9966ZM13.8867 23.9957C13.8861 23.9957 13.8864 23.9957 13.8857 23.9957C13.8861 23.9957 13.8864 23.9957 13.8867 23.9957ZM28.0001 16.4986C28.0001 16.4974 28.0001 16.4968 28.0001 16.4952C28.0001 16.4964 28.0001 16.4974 28.0001 16.4986ZM15.1345 12.167C14.9385 12.1386 14.7386 12.1234 14.5349 12.1228C14.7379 12.1234 14.9376 12.1382 15.1336 12.1658C15.1339 12.1664 15.1342 12.1664 15.1345 12.167ZM14.5349 12.1228C14.5327 12.1228 14.5305 12.1228 14.5281 12.1228C14.5302 12.1228 14.5327 12.1228 14.5349 12.1228ZM14.4618 3.00023C14.4621 3.00023 14.4624 3.00023 14.4627 3.00023C14.4627 3.00023 14.4621 3.00023 14.4618 3.00023ZM14.5049 3.00023C14.5052 3.00023 14.5058 3.00023 14.5061 3.00023H14.5058C14.5052 3.00023 14.5052 3.00023 14.5049 3.00023Z" fill="white"/>
<path d="M27.3416 20.6371C27.5787 19.6818 27.7062 18.6841 27.7062 17.6564C27.7062 14.0675 26.1736 10.8292 23.7285 8.56205C22.6744 6.6939 21.1873 5.10094 19.4049 3.91937C17.9039 3.33401 16.275 3.00619 14.571 3C21.981 3.02724 28.0006 9.06384 28.0006 16.4798C28.0006 16.4851 28.0006 16.49 28.0006 16.495C28.0006 16.4965 28.0006 16.4971 28.0006 16.4984C28.0006 16.5036 28.0006 16.5086 28.0006 16.5138C27.9969 17.952 27.7641 19.3373 27.3416 20.6371ZM14.5567 5.28574H8.00781C8.18147 5.14737 8.35947 5.01426 8.54179 4.88673H11.3603C11.5643 4.86908 11.7701 4.85887 11.9788 4.85887C12.9724 4.85887 13.9336 5.00095 14.8431 5.26531C14.7474 5.27088 14.6517 5.27769 14.5567 5.28574ZM14.4462 3C14.4468 3 14.4471 3 14.4478 3C14.4481 3 14.4484 3 14.4487 3C14.4493 3 14.4502 3 14.4509 3C14.4493 3 14.4478 3 14.4462 3ZM14.4601 3C14.4611 3 14.4617 3 14.4623 3C14.4626 3 14.4632 3 14.4632 3C14.4639 3 14.4642 3 14.4648 3C14.4632 3 14.4617 3 14.4601 3ZM14.488 3C14.4889 3 14.4895 3 14.4905 3C14.4911 3 14.4917 3 14.4923 3C14.4926 3 14.4926 3 14.493 3C14.4911 3 14.4895 3 14.488 3ZM14.5471 3C14.5453 3 14.5434 3 14.5412 3C14.5437 3 14.545 3 14.5471 3ZM14.5025 3C14.5032 3 14.5044 3 14.5053 3C14.5056 3 14.5056 3 14.5063 3C14.505 3 14.5035 3 14.5025 3Z" fill="black"/>
<path d="M27.3416 20.6371C27.5787 19.6818 27.7062 18.6841 27.7062 17.6564C27.7062 14.0675 26.1736 10.8292 23.7285 8.56205C22.6744 6.6939 21.1873 5.10094 19.4049 3.91937C17.9039 3.33401 16.275 3.00619 14.571 3C21.981 3.02724 28.0006 9.06384 28.0006 16.4798C28.0006 16.4851 28.0006 16.49 28.0006 16.495C28.0006 16.4965 28.0006 16.4971 28.0006 16.4984C28.0006 16.5036 28.0006 16.5086 28.0006 16.5138C27.9969 17.952 27.7641 19.3373 27.3416 20.6371ZM14.5567 5.28574H8.00781C8.18147 5.14737 8.35947 5.01426 8.54179 4.88673H11.3603C11.5643 4.86908 11.7701 4.85887 11.9788 4.85887C12.9724 4.85887 13.9336 5.00095 14.8431 5.26531C14.7474 5.27088 14.6517 5.27769 14.5567 5.28574ZM14.4462 3C14.4468 3 14.4471 3 14.4478 3C14.4481 3 14.4484 3 14.4487 3C14.4493 3 14.4502 3 14.4509 3C14.4493 3 14.4478 3 14.4462 3ZM14.4601 3C14.4611 3 14.4617 3 14.4623 3C14.4626 3 14.4632 3 14.4632 3C14.4639 3 14.4642 3 14.4648 3C14.4632 3 14.4617 3 14.4601 3ZM14.488 3C14.4889 3 14.4895 3 14.4905 3C14.4911 3 14.4917 3 14.4923 3C14.4926 3 14.4926 3 14.493 3C14.4911 3 14.4895 3 14.488 3ZM14.5471 3C14.5453 3 14.5434 3 14.5412 3C14.5437 3 14.545 3 14.5471 3ZM14.5025 3C14.5032 3 14.5044 3 14.5053 3C14.5056 3 14.5056 3 14.5063 3C14.505 3 14.5035 3 14.5025 3Z" fill="#2668F2"/>
<path d="M15.6889 26.718C19.0497 26.3367 21.9256 24.3314 23.5105 21.5089C22.1113 24.4794 19.1485 26.5713 15.6889 26.718ZM23.7277 8.56243C21.5135 6.50947 18.5512 5.25239 15.3005 5.25239C15.1467 5.25239 14.994 5.25702 14.8423 5.26569C13.9328 5.00133 12.9717 4.85925 11.978 4.85925C11.7693 4.85925 11.5635 4.86946 11.3595 4.8871H8.54102C10.2117 3.71885 12.2331 3.02174 14.4182 3.00069C14.4188 3.00069 14.4197 3.00069 14.4204 3.00069C14.4241 3.00069 14.4281 3.00069 14.4318 3.00069C14.433 3.00038 14.4343 3.00038 14.4355 3.00038C14.4389 3.00038 14.4423 3.00038 14.4454 3.00038C14.447 3.00038 14.4485 3.00038 14.4501 3.00038C14.4532 3.00038 14.4563 3.00038 14.4594 3.00038C14.4609 3.00038 14.4625 3.00038 14.464 3.00038C14.4671 3.00038 14.4702 3.00038 14.473 3.00038C14.4748 3.00038 14.4764 3.00038 14.4782 3.00038C14.4813 3.00038 14.4841 3.00038 14.4872 3.00038C14.4888 3.00038 14.4903 3.00038 14.4922 3.00038C14.4953 3.00038 14.4984 3.00038 14.5018 3.00038C14.5027 3.00038 14.5042 3.00038 14.5055 3.00038C14.5058 3.00038 14.5061 3.00038 14.5064 3.00038C14.5107 3.00038 14.5154 3.00038 14.5197 3.00038C14.5234 3.00038 14.5265 3.00038 14.5302 3.00038C14.5315 3.00038 14.5327 3.00038 14.534 3.00038C14.5358 3.00038 14.5386 3.00038 14.5405 3.00038C14.5426 3.00038 14.5445 3.00038 14.5463 3.00038C14.5479 3.00038 14.5491 3.00038 14.5507 3.00038C14.5535 3.00038 14.5559 3.00038 14.5587 3.00038C14.559 3.00038 14.56 3.00038 14.5606 3.00038C14.5637 3.00038 14.5668 3.00038 14.5699 3.00038L14.5701 3.00044C16.2742 3.00663 17.9031 3.33439 19.4042 3.91975C21.1866 5.10132 22.6737 6.69428 23.7277 8.56243Z" fill="black"/>
<path d="M15.6889 26.718C19.0497 26.3367 21.9256 24.3314 23.5105 21.5089C22.1113 24.4794 19.1485 26.5713 15.6889 26.718ZM23.7277 8.56243C21.5135 6.50947 18.5512 5.25239 15.3005 5.25239C15.1467 5.25239 14.994 5.25702 14.8423 5.26569C13.9328 5.00133 12.9717 4.85925 11.978 4.85925C11.7693 4.85925 11.5635 4.86946 11.3595 4.8871H8.54102C10.2117 3.71885 12.2331 3.02174 14.4182 3.00069C14.4188 3.00069 14.4197 3.00069 14.4204 3.00069C14.4241 3.00069 14.4281 3.00069 14.4318 3.00069C14.433 3.00038 14.4343 3.00038 14.4355 3.00038C14.4389 3.00038 14.4423 3.00038 14.4454 3.00038C14.447 3.00038 14.4485 3.00038 14.4501 3.00038C14.4532 3.00038 14.4563 3.00038 14.4594 3.00038C14.4609 3.00038 14.4625 3.00038 14.464 3.00038C14.4671 3.00038 14.4702 3.00038 14.473 3.00038C14.4748 3.00038 14.4764 3.00038 14.4782 3.00038C14.4813 3.00038 14.4841 3.00038 14.4872 3.00038C14.4888 3.00038 14.4903 3.00038 14.4922 3.00038C14.4953 3.00038 14.4984 3.00038 14.5018 3.00038C14.5027 3.00038 14.5042 3.00038 14.5055 3.00038C14.5058 3.00038 14.5061 3.00038 14.5064 3.00038C14.5107 3.00038 14.5154 3.00038 14.5197 3.00038C14.5234 3.00038 14.5265 3.00038 14.5302 3.00038C14.5315 3.00038 14.5327 3.00038 14.534 3.00038C14.5358 3.00038 14.5386 3.00038 14.5405 3.00038C14.5426 3.00038 14.5445 3.00038 14.5463 3.00038C14.5479 3.00038 14.5491 3.00038 14.5507 3.00038C14.5535 3.00038 14.5559 3.00038 14.5587 3.00038C14.559 3.00038 14.56 3.00038 14.5606 3.00038C14.5637 3.00038 14.5668 3.00038 14.5699 3.00038L14.5701 3.00044C16.2742 3.00663 17.9031 3.33439 19.4042 3.91975C21.1866 5.10132 22.6737 6.69428 23.7277 8.56243Z" fill="url(#paint3_linear_671_11243)"/>
<path d="M14.5048 24.0148C14.5033 24.0148 14.5017 24.0148 14.5002 24.0148C14.5017 24.0148 14.5036 24.0148 14.5048 24.0148ZM14.49 24.0148C14.4881 24.0148 14.4859 24.0148 14.4841 24.0148C14.4863 24.0148 14.4878 24.0148 14.49 24.0148ZM14.4751 24.0148C14.4733 24.0148 14.4705 24.0148 14.4686 24.0148C14.4708 24.0148 14.4729 24.0148 14.4751 24.0148ZM14.4599 24.0148C14.4578 24.0148 14.4556 24.0148 14.4534 24.0148C14.4559 24.0148 14.4578 24.0148 14.4599 24.0148ZM14.4302 24.0144C14.4278 24.0144 14.4259 24.0144 14.4231 24.0144C14.4256 24.0144 14.4278 24.0144 14.4302 24.0144ZM14.4154 24.0141C14.4129 24.0141 14.4104 24.0141 14.4083 24.0141C14.4104 24.0141 14.4132 24.0141 14.4154 24.0141ZM14.4002 24.0141C14.3977 24.0141 14.3956 24.0141 14.3931 24.0141C14.3956 24.0141 14.398 24.0141 14.4002 24.0141ZM14.3705 24.0138C14.3677 24.0138 14.3658 24.0135 14.3634 24.0135C14.3658 24.0135 14.368 24.0138 14.3705 24.0138ZM14.3553 24.0135C14.3531 24.0135 14.3507 24.0135 14.3485 24.0135C14.351 24.0135 14.3528 24.0135 14.3553 24.0135ZM14.3405 24.0132C14.3383 24.0132 14.3355 24.0132 14.3333 24.0132C14.3358 24.0132 14.338 24.0132 14.3405 24.0132ZM14.3104 24.0126C14.3083 24.0126 14.3058 24.0126 14.3036 24.0126C14.3058 24.0126 14.3086 24.0126 14.3104 24.0126ZM14.295 24.0126C14.2931 24.0126 14.2906 24.0123 14.2888 24.0123C14.2909 24.0123 14.2931 24.0126 14.295 24.0126ZM14.281 24.012C14.2758 24.012 14.2702 24.012 14.2649 24.0117C14.2705 24.012 14.2758 24.012 14.281 24.012ZM14.2594 24.0117C14.2566 24.0117 14.2538 24.0113 14.251 24.0113C14.2538 24.0113 14.2563 24.0117 14.2594 24.0117ZM14.2296 24.0107C14.2269 24.0107 14.2244 24.0107 14.2213 24.0107C14.2241 24.0107 14.2269 24.0107 14.2296 24.0107ZM14.2151 24.0104C14.2123 24.0104 14.2089 24.0104 14.2064 24.0101C14.2092 24.0104 14.2123 24.0104 14.2151 24.0104ZM14.1854 24.0095C14.1823 24.0095 14.1798 24.0095 14.1767 24.0092C14.1798 24.0095 14.1826 24.0095 14.1854 24.0095ZM14.1705 24.0092C14.1677 24.0089 14.1646 24.0089 14.1618 24.0089C14.1649 24.0089 14.1674 24.0089 14.1705 24.0092ZM14.156 24.0086C14.1529 24.0086 14.1501 24.0083 14.147 24.0083C14.1498 24.0083 14.1532 24.0086 14.156 24.0086ZM14.1414 24.0079C14.1383 24.0079 14.1352 24.0079 14.1321 24.0076C14.1355 24.0079 14.138 24.0079 14.1414 24.0079ZM14.1269 24.0076C14.1235 24.0073 14.1207 24.0073 14.1173 24.0073C14.1204 24.0073 14.1238 24.0073 14.1269 24.0076ZM14.112 24.007C14.1089 24.007 14.1055 24.0067 14.1024 24.0067C14.1058 24.0067 14.1089 24.007 14.112 24.007ZM14.0838 24.0058C14.0804 24.0058 14.0764 24.0055 14.073 24.0055C14.0767 24.0055 14.0801 24.0058 14.0838 24.0058ZM14.0705 24.0052C14.043 24.0042 14.0148 24.0027 13.9869 24.0014C14.0148 24.0027 14.0427 24.0042 14.0705 24.0052ZM13.9718 24.0008C13.9678 24.0005 13.9634 24.0002 13.9594 23.9999C13.9634 24.0002 13.9674 24.0005 13.9718 24.0008ZM13.9572 23.9999C13.9535 23.9999 13.9489 23.9996 13.9448 23.9993C13.9489 23.9996 13.9532 23.9999 13.9572 23.9999ZM13.9427 23.9993C13.9387 23.999 13.9346 23.9987 13.9306 23.9983C13.9346 23.9987 13.9383 23.999 13.9427 23.9993ZM13.9139 23.9974C13.9096 23.9971 13.9055 23.9971 13.9012 23.9968C13.9055 23.9971 13.9099 23.9974 13.9139 23.9974ZM13.8997 23.9968C13.8953 23.9965 13.8913 23.9962 13.8867 23.9959C13.891 23.9962 13.8956 23.9965 13.8997 23.9968ZM13.8857 23.9959C9.07496 23.7077 5.13837 20.163 4.22828 15.542C4.45333 16.6848 4.8638 17.7612 5.42657 18.739C7.13902 21.7166 10.2643 23.7789 13.8857 23.9959ZM15.3007 22.9031C14.5311 22.9031 13.7848 22.8038 13.0735 22.6174C16.7107 22.0853 19.5128 18.9452 19.5128 15.1622C19.5128 14.9374 19.5029 14.7148 19.4834 14.4951C20.1505 15.3745 20.5467 16.47 20.5467 17.6568C20.5467 20.5499 18.1935 22.9031 15.3007 22.9031ZM14.4924 20.8375C14.4915 20.8375 14.4906 20.8375 14.4897 20.8375C14.4903 20.8375 14.4915 20.8375 14.4924 20.8375ZM9.95471 19.2303C8.98674 18.9508 8.10172 18.4759 7.34425 17.8509C7.05977 17.2507 6.84092 16.6136 6.69666 15.9487H5.70857C5.53893 15.6652 5.38756 15.3683 5.25631 15.0615H4.14502H7.37366C7.73645 16.7338 8.66759 18.1958 9.95471 19.2303ZM18.8773 16.4434C18.8773 16.4425 18.877 16.4412 18.877 16.44C18.877 16.4412 18.877 16.4425 18.8773 16.4434ZM4.22426 15.5222C4.22395 15.5197 4.22302 15.5163 4.22271 15.5135C4.22333 15.5163 4.22364 15.5194 4.22426 15.5222ZM4.22117 15.5061C4.22086 15.5045 4.22055 15.5023 4.22024 15.5008C4.22055 15.5027 4.22086 15.5042 4.22117 15.5061ZM4.21807 15.4903C4.21776 15.489 4.21745 15.4872 4.21745 15.4859C4.21776 15.4875 4.21776 15.4887 4.21807 15.4903ZM4.21498 15.4742C4.21498 15.4733 4.21498 15.4733 4.21467 15.472C4.21498 15.4729 4.21498 15.4736 4.21498 15.4742ZM4.2094 15.4448V15.4442C4.2094 15.4445 4.2094 15.4445 4.2094 15.4448ZM4.14966 15.0913V15.0906C4.14966 15.091 4.14966 15.091 4.14966 15.0913ZM4.14749 15.0764C4.14718 15.0761 4.14718 15.0761 4.14718 15.0758C4.14718 15.0758 4.14718 15.0764 4.14749 15.0764Z" fill="black"/>
<path d="M14.5048 24.0148C14.5033 24.0148 14.5017 24.0148 14.5002 24.0148C14.5017 24.0148 14.5036 24.0148 14.5048 24.0148ZM14.49 24.0148C14.4881 24.0148 14.4859 24.0148 14.4841 24.0148C14.4863 24.0148 14.4878 24.0148 14.49 24.0148ZM14.4751 24.0148C14.4733 24.0148 14.4705 24.0148 14.4686 24.0148C14.4708 24.0148 14.4729 24.0148 14.4751 24.0148ZM14.4599 24.0148C14.4578 24.0148 14.4556 24.0148 14.4534 24.0148C14.4559 24.0148 14.4578 24.0148 14.4599 24.0148ZM14.4302 24.0144C14.4278 24.0144 14.4259 24.0144 14.4231 24.0144C14.4256 24.0144 14.4278 24.0144 14.4302 24.0144ZM14.4154 24.0141C14.4129 24.0141 14.4104 24.0141 14.4083 24.0141C14.4104 24.0141 14.4132 24.0141 14.4154 24.0141ZM14.4002 24.0141C14.3977 24.0141 14.3956 24.0141 14.3931 24.0141C14.3956 24.0141 14.398 24.0141 14.4002 24.0141ZM14.3705 24.0138C14.3677 24.0138 14.3658 24.0135 14.3634 24.0135C14.3658 24.0135 14.368 24.0138 14.3705 24.0138ZM14.3553 24.0135C14.3531 24.0135 14.3507 24.0135 14.3485 24.0135C14.351 24.0135 14.3528 24.0135 14.3553 24.0135ZM14.3405 24.0132C14.3383 24.0132 14.3355 24.0132 14.3333 24.0132C14.3358 24.0132 14.338 24.0132 14.3405 24.0132ZM14.3104 24.0126C14.3083 24.0126 14.3058 24.0126 14.3036 24.0126C14.3058 24.0126 14.3086 24.0126 14.3104 24.0126ZM14.295 24.0126C14.2931 24.0126 14.2906 24.0123 14.2888 24.0123C14.2909 24.0123 14.2931 24.0126 14.295 24.0126ZM14.281 24.012C14.2758 24.012 14.2702 24.012 14.2649 24.0117C14.2705 24.012 14.2758 24.012 14.281 24.012ZM14.2594 24.0117C14.2566 24.0117 14.2538 24.0113 14.251 24.0113C14.2538 24.0113 14.2563 24.0117 14.2594 24.0117ZM14.2296 24.0107C14.2269 24.0107 14.2244 24.0107 14.2213 24.0107C14.2241 24.0107 14.2269 24.0107 14.2296 24.0107ZM14.2151 24.0104C14.2123 24.0104 14.2089 24.0104 14.2064 24.0101C14.2092 24.0104 14.2123 24.0104 14.2151 24.0104ZM14.1854 24.0095C14.1823 24.0095 14.1798 24.0095 14.1767 24.0092C14.1798 24.0095 14.1826 24.0095 14.1854 24.0095ZM14.1705 24.0092C14.1677 24.0089 14.1646 24.0089 14.1618 24.0089C14.1649 24.0089 14.1674 24.0089 14.1705 24.0092ZM14.156 24.0086C14.1529 24.0086 14.1501 24.0083 14.147 24.0083C14.1498 24.0083 14.1532 24.0086 14.156 24.0086ZM14.1414 24.0079C14.1383 24.0079 14.1352 24.0079 14.1321 24.0076C14.1355 24.0079 14.138 24.0079 14.1414 24.0079ZM14.1269 24.0076C14.1235 24.0073 14.1207 24.0073 14.1173 24.0073C14.1204 24.0073 14.1238 24.0073 14.1269 24.0076ZM14.112 24.007C14.1089 24.007 14.1055 24.0067 14.1024 24.0067C14.1058 24.0067 14.1089 24.007 14.112 24.007ZM14.0838 24.0058C14.0804 24.0058 14.0764 24.0055 14.073 24.0055C14.0767 24.0055 14.0801 24.0058 14.0838 24.0058ZM14.0705 24.0052C14.043 24.0042 14.0148 24.0027 13.9869 24.0014C14.0148 24.0027 14.0427 24.0042 14.0705 24.0052ZM13.9718 24.0008C13.9678 24.0005 13.9634 24.0002 13.9594 23.9999C13.9634 24.0002 13.9674 24.0005 13.9718 24.0008ZM13.9572 23.9999C13.9535 23.9999 13.9489 23.9996 13.9448 23.9993C13.9489 23.9996 13.9532 23.9999 13.9572 23.9999ZM13.9427 23.9993C13.9387 23.999 13.9346 23.9987 13.9306 23.9983C13.9346 23.9987 13.9383 23.999 13.9427 23.9993ZM13.9139 23.9974C13.9096 23.9971 13.9055 23.9971 13.9012 23.9968C13.9055 23.9971 13.9099 23.9974 13.9139 23.9974ZM13.8997 23.9968C13.8953 23.9965 13.8913 23.9962 13.8867 23.9959C13.891 23.9962 13.8956 23.9965 13.8997 23.9968ZM13.8857 23.9959C9.07496 23.7077 5.13837 20.163 4.22828 15.542C4.45333 16.6848 4.8638 17.7612 5.42657 18.739C7.13902 21.7166 10.2643 23.7789 13.8857 23.9959ZM15.3007 22.9031C14.5311 22.9031 13.7848 22.8038 13.0735 22.6174C16.7107 22.0853 19.5128 18.9452 19.5128 15.1622C19.5128 14.9374 19.5029 14.7148 19.4834 14.4951C20.1505 15.3745 20.5467 16.47 20.5467 17.6568C20.5467 20.5499 18.1935 22.9031 15.3007 22.9031ZM14.4924 20.8375C14.4915 20.8375 14.4906 20.8375 14.4897 20.8375C14.4903 20.8375 14.4915 20.8375 14.4924 20.8375ZM9.95471 19.2303C8.98674 18.9508 8.10172 18.4759 7.34425 17.8509C7.05977 17.2507 6.84092 16.6136 6.69666 15.9487H5.70857C5.53893 15.6652 5.38756 15.3683 5.25631 15.0615H4.14502H7.37366C7.73645 16.7338 8.66759 18.1958 9.95471 19.2303ZM18.8773 16.4434C18.8773 16.4425 18.877 16.4412 18.877 16.44C18.877 16.4412 18.877 16.4425 18.8773 16.4434ZM4.22426 15.5222C4.22395 15.5197 4.22302 15.5163 4.22271 15.5135C4.22333 15.5163 4.22364 15.5194 4.22426 15.5222ZM4.22117 15.5061C4.22086 15.5045 4.22055 15.5023 4.22024 15.5008C4.22055 15.5027 4.22086 15.5042 4.22117 15.5061ZM4.21807 15.4903C4.21776 15.489 4.21745 15.4872 4.21745 15.4859C4.21776 15.4875 4.21776 15.4887 4.21807 15.4903ZM4.21498 15.4742C4.21498 15.4733 4.21498 15.4733 4.21467 15.472C4.21498 15.4729 4.21498 15.4736 4.21498 15.4742ZM4.2094 15.4448V15.4442C4.2094 15.4445 4.2094 15.4445 4.2094 15.4448ZM4.14966 15.0913V15.0906C4.14966 15.091 4.14966 15.091 4.14966 15.0913ZM4.14749 15.0764C4.14718 15.0761 4.14718 15.0761 4.14718 15.0758C4.14718 15.0758 4.14718 15.0764 4.14749 15.0764Z" fill="white"/>
<path d="M14.5098 20.8378C14.5085 20.8378 14.507 20.8378 14.5058 20.8375C14.507 20.8378 14.5082 20.8378 14.5098 20.8378ZM14.4996 20.8375C14.4974 20.8375 14.4946 20.8375 14.4924 20.8375C14.4949 20.8375 14.4971 20.8375 14.4996 20.8375ZM14.4897 20.8375C12.7732 20.8307 11.1979 20.2299 9.95471 19.2303C9.95719 19.2309 9.95966 19.2319 9.96183 19.2325C11.2044 20.229 12.776 20.8307 14.4897 20.8375ZM18.8773 16.4601C18.8773 16.4589 18.8773 16.4583 18.8773 16.4573C18.8773 16.4583 18.8773 16.4592 18.8773 16.4601ZM18.8773 16.4468C18.8773 16.4456 18.8773 16.4443 18.8773 16.4434C18.8773 16.4446 18.8773 16.4456 18.8773 16.4468ZM18.877 16.44C18.877 16.4391 18.877 16.4378 18.877 16.4366C18.877 16.4378 18.877 16.4387 18.877 16.44ZM18.877 16.4335C18.877 16.4322 18.877 16.431 18.877 16.4298C18.877 16.4313 18.877 16.4322 18.877 16.4335ZM18.877 16.427C18.877 16.4257 18.877 16.4242 18.877 16.423C18.877 16.4245 18.877 16.4257 18.877 16.427ZM18.877 16.4211C18.8482 14.2555 17.2298 12.4716 15.1391 12.1722C15.1376 12.1704 15.136 12.1688 15.1345 12.1673C15.5459 12.2264 15.9387 12.344 16.3055 12.5099C16.3111 12.5109 16.3163 12.5121 16.3219 12.513C17.8112 13.1922 18.8537 14.6854 18.877 16.4211ZM4.22828 15.542C4.22828 15.5417 4.22798 15.5414 4.22798 15.5414C4.22829 15.5417 4.22798 15.5417 4.22828 15.542ZM4.22519 15.5271C4.22488 15.5256 4.22457 15.5237 4.22426 15.5222C4.22457 15.524 4.22488 15.5253 4.22519 15.5271ZM4.22271 15.5135C4.2221 15.511 4.22178 15.5085 4.22117 15.5061C4.22178 15.5089 4.2221 15.5107 4.22271 15.5135ZM4.21467 15.472C4.21405 15.468 4.21312 15.464 4.21219 15.4596C4.21312 15.4637 4.21405 15.4683 4.21467 15.472ZM4.21219 15.459C4.21126 15.4544 4.21033 15.4494 4.2094 15.4448C4.21033 15.4497 4.21126 15.4538 4.21219 15.459ZM4.2094 15.4442C4.18742 15.3271 4.16761 15.2095 4.14966 15.0913C4.16761 15.2095 4.18742 15.3268 4.2094 15.4442ZM4.14966 15.0906C4.14873 15.086 4.14811 15.0814 4.14749 15.0764C4.14811 15.0814 4.14873 15.0857 4.14966 15.0906ZM4.14718 15.0758C4.14656 15.0708 4.14595 15.0662 4.14502 15.0615C4.14595 15.0659 4.14656 15.0711 4.14718 15.0758ZM14.5398 8.94604C14.5386 8.94604 14.5364 8.94604 14.5349 8.94604C14.5364 8.94604 14.5383 8.94604 14.5398 8.94604Z" fill="black"/>
<path d="M14.5098 20.8378C14.5085 20.8378 14.507 20.8378 14.5058 20.8375C14.507 20.8378 14.5082 20.8378 14.5098 20.8378ZM14.4996 20.8375C14.4974 20.8375 14.4946 20.8375 14.4924 20.8375C14.4949 20.8375 14.4971 20.8375 14.4996 20.8375ZM14.4897 20.8375C12.7732 20.8307 11.1979 20.2299 9.95471 19.2303C9.95719 19.2309 9.95966 19.2319 9.96183 19.2325C11.2044 20.229 12.776 20.8307 14.4897 20.8375ZM18.8773 16.4601C18.8773 16.4589 18.8773 16.4583 18.8773 16.4573C18.8773 16.4583 18.8773 16.4592 18.8773 16.4601ZM18.8773 16.4468C18.8773 16.4456 18.8773 16.4443 18.8773 16.4434C18.8773 16.4446 18.8773 16.4456 18.8773 16.4468ZM18.877 16.44C18.877 16.4391 18.877 16.4378 18.877 16.4366C18.877 16.4378 18.877 16.4387 18.877 16.44ZM18.877 16.4335C18.877 16.4322 18.877 16.431 18.877 16.4298C18.877 16.4313 18.877 16.4322 18.877 16.4335ZM18.877 16.427C18.877 16.4257 18.877 16.4242 18.877 16.423C18.877 16.4245 18.877 16.4257 18.877 16.427ZM18.877 16.4211C18.8482 14.2555 17.2298 12.4716 15.1391 12.1722C15.1376 12.1704 15.136 12.1688 15.1345 12.1673C15.5459 12.2264 15.9387 12.344 16.3055 12.5099C16.3111 12.5109 16.3163 12.5121 16.3219 12.513C17.8112 13.1922 18.8537 14.6854 18.877 16.4211ZM4.22828 15.542C4.22828 15.5417 4.22798 15.5414 4.22798 15.5414C4.22829 15.5417 4.22798 15.5417 4.22828 15.542ZM4.22519 15.5271C4.22488 15.5256 4.22457 15.5237 4.22426 15.5222C4.22457 15.524 4.22488 15.5253 4.22519 15.5271ZM4.22271 15.5135C4.2221 15.511 4.22178 15.5085 4.22117 15.5061C4.22178 15.5089 4.2221 15.5107 4.22271 15.5135ZM4.21467 15.472C4.21405 15.468 4.21312 15.464 4.21219 15.4596C4.21312 15.4637 4.21405 15.4683 4.21467 15.472ZM4.21219 15.459C4.21126 15.4544 4.21033 15.4494 4.2094 15.4448C4.21033 15.4497 4.21126 15.4538 4.21219 15.459ZM4.2094 15.4442C4.18742 15.3271 4.16761 15.2095 4.14966 15.0913C4.16761 15.2095 4.18742 15.3268 4.2094 15.4442ZM4.14966 15.0906C4.14873 15.086 4.14811 15.0814 4.14749 15.0764C4.14811 15.0814 4.14873 15.0857 4.14966 15.0906ZM4.14718 15.0758C4.14656 15.0708 4.14595 15.0662 4.14502 15.0615C4.14595 15.0659 4.14656 15.0711 4.14718 15.0758ZM14.5398 8.94604C14.5386 8.94604 14.5364 8.94604 14.5349 8.94604C14.5364 8.94604 14.5383 8.94604 14.5398 8.94604Z" fill="url(#paint4_radial_671_11243)"/>
<path d="M13.0735 22.6177C10.537 21.953 8.4475 20.1808 7.34425 17.8512C8.10172 18.4761 8.98674 18.951 9.95471 19.2305C11.1979 20.2301 12.7732 20.8309 14.4897 20.8377C14.4906 20.8377 14.4915 20.8377 14.4924 20.8377C14.4946 20.8377 14.4974 20.8377 14.4996 20.8377C14.5017 20.8377 14.5036 20.8377 14.5058 20.8377C14.507 20.838 14.5085 20.838 14.5098 20.838C14.5132 20.838 14.5166 20.838 14.52 20.838C16.9228 20.838 18.8773 18.8832 18.8773 16.4804C18.8773 16.4783 18.8773 16.4761 18.8773 16.474C18.8773 16.473 18.8773 16.4724 18.8773 16.4715C18.8773 16.4699 18.8773 16.4687 18.8773 16.4671C18.8773 16.4662 18.8773 16.4653 18.8773 16.4644C18.8773 16.4631 18.8773 16.4616 18.8773 16.4603C18.8773 16.4594 18.8773 16.4585 18.8773 16.4575C18.8773 16.4563 18.8773 16.4548 18.8773 16.4535C18.8773 16.4526 18.8773 16.4514 18.8773 16.4504C18.8773 16.4492 18.8773 16.4479 18.8773 16.447C18.8773 16.4458 18.8773 16.4449 18.8773 16.4436C18.877 16.4427 18.877 16.4414 18.877 16.4402C18.877 16.439 18.877 16.438 18.877 16.4368C18.877 16.4359 18.877 16.4346 18.877 16.4337C18.877 16.4325 18.877 16.4315 18.877 16.43C18.877 16.4291 18.877 16.4281 18.877 16.4272C18.877 16.426 18.877 16.4247 18.877 16.4232C18.877 16.4226 18.877 16.4219 18.877 16.4213C18.8537 14.6857 17.8112 13.1924 16.3219 12.5132C17.6047 12.7674 18.7209 13.4902 19.4834 14.4953C19.5029 14.7151 19.5128 14.9376 19.5128 15.1624C19.5128 18.9454 16.7107 22.0855 13.0735 22.6177ZM5.42657 18.7393C4.8638 17.7614 4.45333 16.6851 4.22828 15.5422C4.22798 15.5419 4.22829 15.5419 4.22798 15.5416C4.22705 15.5369 4.22612 15.532 4.22519 15.5273C4.22488 15.5255 4.22457 15.5242 4.22426 15.5224C4.22364 15.5196 4.22333 15.5165 4.22271 15.5137C4.2221 15.5109 4.22178 15.5091 4.22117 15.5063C4.22086 15.5044 4.22055 15.5029 4.22024 15.501C4.21962 15.4973 4.21869 15.4939 4.21807 15.4905C4.21776 15.489 4.21776 15.4877 4.21745 15.4862C4.21652 15.4824 4.2159 15.4784 4.21498 15.4744C4.21498 15.4738 4.21498 15.4732 4.21467 15.4722C4.21405 15.4685 4.21312 15.4639 4.21219 15.4599C4.21219 15.4595 4.21219 15.4592 4.21219 15.4592C4.21126 15.454 4.21033 15.4499 4.2094 15.445C4.2094 15.4447 4.2094 15.4447 4.2094 15.4444C4.18742 15.3271 4.16761 15.2097 4.14966 15.0915C4.14966 15.0912 4.14966 15.0912 4.14966 15.0909C4.14873 15.0859 4.14811 15.0816 4.14749 15.0766C4.14718 15.0766 4.14718 15.076 4.14718 15.076C4.14656 15.0714 4.14595 15.0661 4.14502 15.0618H5.25631C5.38756 15.3685 5.53893 15.6654 5.70857 15.9489H4.31775C4.55424 16.9408 4.93159 17.8784 5.42657 18.7393Z" fill="black"/>
<path d="M13.0735 22.6177C10.537 21.953 8.4475 20.1808 7.34425 17.8512C8.10172 18.4761 8.98674 18.951 9.95471 19.2305C11.1979 20.2301 12.7732 20.8309 14.4897 20.8377C14.4906 20.8377 14.4915 20.8377 14.4924 20.8377C14.4946 20.8377 14.4974 20.8377 14.4996 20.8377C14.5017 20.8377 14.5036 20.8377 14.5058 20.8377C14.507 20.838 14.5085 20.838 14.5098 20.838C14.5132 20.838 14.5166 20.838 14.52 20.838C16.9228 20.838 18.8773 18.8832 18.8773 16.4804C18.8773 16.4783 18.8773 16.4761 18.8773 16.474C18.8773 16.473 18.8773 16.4724 18.8773 16.4715C18.8773 16.4699 18.8773 16.4687 18.8773 16.4671C18.8773 16.4662 18.8773 16.4653 18.8773 16.4644C18.8773 16.4631 18.8773 16.4616 18.8773 16.4603C18.8773 16.4594 18.8773 16.4585 18.8773 16.4575C18.8773 16.4563 18.8773 16.4548 18.8773 16.4535C18.8773 16.4526 18.8773 16.4514 18.8773 16.4504C18.8773 16.4492 18.8773 16.4479 18.8773 16.447C18.8773 16.4458 18.8773 16.4449 18.8773 16.4436C18.877 16.4427 18.877 16.4414 18.877 16.4402C18.877 16.439 18.877 16.438 18.877 16.4368C18.877 16.4359 18.877 16.4346 18.877 16.4337C18.877 16.4325 18.877 16.4315 18.877 16.43C18.877 16.4291 18.877 16.4281 18.877 16.4272C18.877 16.426 18.877 16.4247 18.877 16.4232C18.877 16.4226 18.877 16.4219 18.877 16.4213C18.8537 14.6857 17.8112 13.1924 16.3219 12.5132C17.6047 12.7674 18.7209 13.4902 19.4834 14.4953C19.5029 14.7151 19.5128 14.9376 19.5128 15.1624C19.5128 18.9454 16.7107 22.0855 13.0735 22.6177ZM5.42657 18.7393C4.8638 17.7614 4.45333 16.6851 4.22828 15.5422C4.22798 15.5419 4.22829 15.5419 4.22798 15.5416C4.22705 15.5369 4.22612 15.532 4.22519 15.5273C4.22488 15.5255 4.22457 15.5242 4.22426 15.5224C4.22364 15.5196 4.22333 15.5165 4.22271 15.5137C4.2221 15.5109 4.22178 15.5091 4.22117 15.5063C4.22086 15.5044 4.22055 15.5029 4.22024 15.501C4.21962 15.4973 4.21869 15.4939 4.21807 15.4905C4.21776 15.489 4.21776 15.4877 4.21745 15.4862C4.21652 15.4824 4.2159 15.4784 4.21498 15.4744C4.21498 15.4738 4.21498 15.4732 4.21467 15.4722C4.21405 15.4685 4.21312 15.4639 4.21219 15.4599C4.21219 15.4595 4.21219 15.4592 4.21219 15.4592C4.21126 15.454 4.21033 15.4499 4.2094 15.445C4.2094 15.4447 4.2094 15.4447 4.2094 15.4444C4.18742 15.3271 4.16761 15.2097 4.14966 15.0915C4.14966 15.0912 4.14966 15.0912 4.14966 15.0909C4.14873 15.0859 4.14811 15.0816 4.14749 15.0766C4.14718 15.0766 4.14718 15.076 4.14718 15.076C4.14656 15.0714 4.14595 15.0661 4.14502 15.0618H5.25631C5.38756 15.3685 5.53893 15.6654 5.70857 15.9489H4.31775C4.55424 16.9408 4.93159 17.8784 5.42657 18.7393Z" fill="white"/>
<path d="M14.52 24.0148C14.5148 24.0148 14.5101 24.0148 14.5048 24.0148C14.5036 24.0148 14.5017 24.0148 14.5002 24.0148C14.4971 24.0148 14.4931 24.0148 14.49 24.0148C14.4878 24.0148 14.4863 24.0148 14.4841 24.0148C14.4807 24.0148 14.4782 24.0148 14.4751 24.0148C14.4729 24.0148 14.4708 24.0148 14.4686 24.0148C14.4658 24.0148 14.463 24.0148 14.4599 24.0148C14.4578 24.0148 14.4559 24.0148 14.4534 24.0148C14.4504 24.0148 14.4482 24.0148 14.4451 24.0144C14.4429 24.0144 14.4404 24.0144 14.4383 24.0144C14.4358 24.0144 14.4327 24.0144 14.4302 24.0144C14.4278 24.0144 14.4256 24.0144 14.4231 24.0144C14.4206 24.0144 14.4178 24.0141 14.4154 24.0141C14.4132 24.0141 14.4104 24.0141 14.4083 24.0141C14.4058 24.0141 14.403 24.0141 14.4002 24.0141C14.398 24.0141 14.3956 24.0141 14.3931 24.0141C14.3906 24.0141 14.3881 24.0141 14.3853 24.0138C14.3832 24.0138 14.3804 24.0138 14.3782 24.0138C14.3757 24.0138 14.373 24.0138 14.3705 24.0138C14.368 24.0138 14.3658 24.0135 14.3634 24.0135C14.3609 24.0135 14.3578 24.0135 14.3553 24.0135C14.3528 24.0135 14.351 24.0135 14.3485 24.0135C14.3457 24.0135 14.3432 24.0135 14.3405 24.0132C14.338 24.0132 14.3358 24.0132 14.3333 24.0132C14.3309 24.0132 14.3281 24.0129 14.3253 24.0129C14.3231 24.0129 14.321 24.0129 14.3185 24.0129C14.3157 24.0129 14.3135 24.0129 14.3104 24.0126C14.3086 24.0126 14.3058 24.0126 14.3036 24.0126C14.3005 24.0126 14.2981 24.0126 14.295 24.0126C14.2931 24.0126 14.2909 24.0123 14.2888 24.0123C14.286 24.0123 14.2838 24.0123 14.281 24.012C14.2758 24.012 14.2705 24.012 14.2649 24.0117C14.2631 24.0117 14.2612 24.0117 14.2594 24.0117C14.2563 24.0117 14.2538 24.0113 14.251 24.0113C14.2485 24.0113 14.2467 24.0113 14.2445 24.0113C14.242 24.0113 14.2389 24.011 14.2364 24.011C14.234 24.011 14.2318 24.0107 14.2296 24.0107C14.2269 24.0107 14.2241 24.0107 14.2213 24.0107C14.2191 24.0107 14.2173 24.0104 14.2151 24.0104C14.2123 24.0104 14.2092 24.0104 14.2064 24.0101C14.2043 24.0101 14.2024 24.0101 14.2002 24.0101C14.1971 24.0098 14.1944 24.0098 14.1916 24.0098C14.1897 24.0098 14.1872 24.0098 14.1854 24.0095C14.1826 24.0095 14.1798 24.0095 14.1767 24.0092C14.1748 24.0092 14.1724 24.0092 14.1705 24.0092C14.1674 24.0089 14.1649 24.0089 14.1618 24.0089C14.16 24.0086 14.1578 24.0086 14.156 24.0086C14.1532 24.0086 14.1498 24.0083 14.147 24.0083C14.1454 24.0083 14.143 24.0079 14.1414 24.0079C14.138 24.0079 14.1355 24.0079 14.1321 24.0076C14.1303 24.0076 14.1287 24.0076 14.1269 24.0076C14.1238 24.0073 14.1204 24.0073 14.1173 24.0073C14.1157 24.007 14.1139 24.007 14.112 24.007C14.1089 24.007 14.1058 24.0067 14.1024 24.0067C14.1009 24.0064 14.0996 24.0064 14.0981 24.0064C14.0947 24.0064 14.0913 24.0061 14.0876 24.0061C14.0863 24.0058 14.0851 24.0058 14.0838 24.0058C14.0801 24.0058 14.0767 24.0055 14.073 24.0055C14.0718 24.0052 14.0715 24.0052 14.0705 24.0052C14.0427 24.0042 14.0148 24.0027 13.9869 24.0014C13.9866 24.0014 13.9866 24.0014 13.9863 24.0014C13.982 24.0011 13.9777 24.0008 13.9733 24.0008C13.973 24.0008 13.9721 24.0008 13.9718 24.0008C13.9674 24.0005 13.9634 24.0002 13.9594 23.9999C13.9582 23.9999 13.9582 23.9999 13.9572 23.9999C13.9532 23.9999 13.9489 23.9996 13.9448 23.9993C13.9439 23.9993 13.9436 23.9993 13.9427 23.9993C13.9383 23.999 13.9346 23.9987 13.9306 23.9983C13.93 23.9983 13.9288 23.9983 13.9281 23.9983C13.9241 23.998 13.9201 23.998 13.9161 23.9974C13.9154 23.9974 13.9145 23.9974 13.9139 23.9974C13.9099 23.9974 13.9055 23.9971 13.9012 23.9968C13.9009 23.9968 13.9 23.9968 13.8997 23.9968C13.8956 23.9965 13.891 23.9962 13.8867 23.9959C13.8863 23.9959 13.886 23.9959 13.8857 23.9959C10.2643 23.7789 7.13902 21.7166 5.42657 18.739C6.19178 20.0679 7.23871 21.2142 8.48528 22.0958C9.578 22.4834 10.7531 22.697 11.9783 22.697C12.3504 22.697 12.7156 22.6697 13.0735 22.6174C13.7848 22.8038 14.5311 22.9031 15.3007 22.9031C18.1935 22.9031 20.5467 20.5499 20.5467 17.6568C20.5467 16.47 20.1505 15.3745 19.4834 14.4951C19.2958 12.3743 18.2223 10.5062 16.6401 9.25464C15.9728 9.05839 15.2691 8.9479 14.5398 8.94604C18.6857 8.95657 22.0545 12.3328 22.0545 16.4802C22.0545 20.6351 18.6748 24.0148 14.52 24.0148ZM21.9239 17.8491C21.5249 19.3256 20.8052 20.6707 19.844 21.8067C20.9015 20.7496 21.6416 19.3786 21.9239 17.8491ZM7.34425 17.8509C6.69666 17.317 6.14225 16.6737 5.70857 15.9487H6.69666C6.84092 16.6136 7.05977 17.2507 7.34425 17.8509ZM15.1336 12.166C14.9376 12.1384 14.7379 12.1236 14.5349 12.123C14.5327 12.123 14.5302 12.123 14.528 12.123C14.5277 12.123 14.5277 12.123 14.5274 12.123C14.525 12.123 14.5225 12.123 14.52 12.123H4.1051C4.25121 10.9953 4.57963 9.93104 5.06656 8.95502C4.77465 9.54039 4.54715 10.1613 4.37442 10.8052H11.9783C13.2202 10.8052 14.3389 11.3296 15.1336 12.166ZM14.5349 8.94604C14.5333 8.94604 14.5318 8.94604 14.5305 8.94604C14.5321 8.94604 14.5333 8.94604 14.5349 8.94604Z" fill="white"/>
<path d="M16.3212 12.5132C16.3156 12.5122 16.3104 12.511 16.3048 12.5101C15.938 12.3441 15.5451 12.2265 15.1337 12.1674C15.1334 12.1668 15.1331 12.1668 15.1328 12.1661C15.5507 12.2253 15.9497 12.3441 16.3212 12.5132Z" fill="black"/>
<path d="M16.3212 12.5132C16.3156 12.5122 16.3104 12.511 16.3048 12.5101C15.938 12.3441 15.5451 12.2265 15.1337 12.1674C15.1334 12.1668 15.1331 12.1668 15.1328 12.1661C15.5507 12.2253 15.9497 12.3441 16.3212 12.5132Z" fill="url(#paint5_radial_671_11243)"/>
<path d="M11.978 22.6971C10.7528 22.6971 9.57774 22.4835 8.48502 22.096C7.23845 21.2143 6.19154 20.0681 5.42633 18.7392C4.93135 17.8783 4.554 16.9407 4.3175 15.9489H5.70833C6.14201 16.6738 6.69642 17.3171 7.34401 17.8511C8.44725 20.1808 10.5367 21.9529 13.0732 22.6176C12.7154 22.6699 12.3501 22.6971 11.978 22.6971ZM19.8438 21.8068C20.8049 20.6708 21.5246 19.3258 21.9237 17.8492C21.6413 19.3787 20.9012 20.7497 19.8438 21.8068ZM19.4831 14.4952C18.7207 13.4901 17.6045 12.7673 16.3217 12.5131C15.9502 12.3441 15.5512 12.2252 15.1333 12.1661C14.3387 11.3297 13.2199 10.8053 11.978 10.8053H4.37416C4.54689 10.1614 4.77441 9.54048 5.06632 8.95512C5.06786 8.95202 5.06941 8.94893 5.07065 8.94614H14.5198C14.5232 8.94614 14.5266 8.94614 14.5303 8.94614C14.5315 8.94614 14.5331 8.94614 14.5346 8.94614C14.5362 8.94614 14.5383 8.94614 14.5396 8.94614C15.2689 8.948 15.9725 9.05851 16.6399 9.25477C18.222 10.5063 19.2955 12.3744 19.4831 14.4952Z" fill="white"/>
<path d="M44.592 22.5V20.952H48.066C48.99 20.952 49.8 20.754 50.496 20.358C51.192 19.95 51.732 19.392 52.116 18.684C52.512 17.976 52.71 17.16 52.71 16.236C52.71 15.324 52.512 14.514 52.116 13.806C51.72 13.098 51.174 12.546 50.478 12.15C49.782 11.754 48.978 11.556 48.066 11.556H44.61V10.008H48.102C49.014 10.008 49.854 10.164 50.622 10.476C51.402 10.788 52.074 11.226 52.638 11.79C53.214 12.354 53.658 13.014 53.97 13.77C54.294 14.526 54.456 15.354 54.456 16.254C54.456 17.142 54.294 17.97 53.97 18.738C53.658 19.494 53.22 20.154 52.656 20.718C52.092 21.282 51.42 21.72 50.64 22.032C49.872 22.344 49.038 22.5 48.138 22.5H44.592ZM43.476 22.5V10.008H45.168V22.5H43.476ZM60.4722 22.68C59.6202 22.68 58.8522 22.488 58.1682 22.104C57.4842 21.708 56.9442 21.174 56.5482 20.502C56.1522 19.83 55.9542 19.068 55.9542 18.216C55.9542 17.376 56.1462 16.62 56.5302 15.948C56.9262 15.276 57.4542 14.748 58.1142 14.364C58.7862 13.968 59.5362 13.77 60.3642 13.77C61.1562 13.77 61.8522 13.95 62.4522 14.31C63.0642 14.67 63.5382 15.168 63.8742 15.804C64.2222 16.44 64.3962 17.16 64.3962 17.964C64.3962 18.084 64.3902 18.216 64.3782 18.36C64.3662 18.492 64.3422 18.648 64.3062 18.828H57.0882V17.478H63.4422L62.8482 18C62.8482 17.424 62.7462 16.938 62.5422 16.542C62.3382 16.134 62.0502 15.822 61.6782 15.606C61.3062 15.378 60.8562 15.264 60.3282 15.264C59.7762 15.264 59.2902 15.384 58.8702 15.624C58.4502 15.864 58.1262 16.2 57.8982 16.632C57.6702 17.064 57.5562 17.574 57.5562 18.162C57.5562 18.762 57.6762 19.29 57.9162 19.746C58.1562 20.19 58.4982 20.538 58.9422 20.79C59.3862 21.03 59.8962 21.15 60.4722 21.15C60.9522 21.15 61.3902 21.066 61.7862 20.898C62.1942 20.73 62.5422 20.478 62.8302 20.142L63.8742 21.204C63.4662 21.684 62.9622 22.05 62.3622 22.302C61.7742 22.554 61.1442 22.68 60.4722 22.68ZM68.956 22.5L65.032 13.95H66.832L69.982 21.168H68.938L72.106 13.95H73.834L69.91 22.5H68.956ZM78.8414 22.68C77.9894 22.68 77.2214 22.488 76.5374 22.104C75.8534 21.708 75.3134 21.174 74.9174 20.502C74.5214 19.83 74.3234 19.068 74.3234 18.216C74.3234 17.376 74.5154 16.62 74.8994 15.948C75.2954 15.276 75.8234 14.748 76.4834 14.364C77.1554 13.968 77.9054 13.77 78.7334 13.77C79.5254 13.77 80.2214 13.95 80.8214 14.31C81.4334 14.67 81.9074 15.168 82.2434 15.804C82.5914 16.44 82.7654 17.16 82.7654 17.964C82.7654 18.084 82.7594 18.216 82.7474 18.36C82.7354 18.492 82.7114 18.648 82.6754 18.828H75.4574V17.478H81.8114L81.2174 18C81.2174 17.424 81.1154 16.938 80.9114 16.542C80.7074 16.134 80.4194 15.822 80.0474 15.606C79.6754 15.378 79.2254 15.264 78.6974 15.264C78.1454 15.264 77.6594 15.384 77.2394 15.624C76.8194 15.864 76.4954 16.2 76.2674 16.632C76.0394 17.064 75.9254 17.574 75.9254 18.162C75.9254 18.762 76.0454 19.29 76.2854 19.746C76.5254 20.19 76.8674 20.538 77.3114 20.79C77.7554 21.03 78.2654 21.15 78.8414 21.15C79.3214 21.15 79.7594 21.066 80.1554 20.898C80.5634 20.73 80.9114 20.478 81.1994 20.142L82.2434 21.204C81.8354 21.684 81.3314 22.05 80.7314 22.302C80.1434 22.554 79.5134 22.68 78.8414 22.68ZM87.2498 22.68C86.7698 22.68 86.3138 22.62 85.8818 22.5C85.4618 22.368 85.0718 22.188 84.7118 21.96C84.3518 21.72 84.0398 21.438 83.7758 21.114L84.8198 20.07C85.1318 20.454 85.4918 20.742 85.8998 20.934C86.3078 21.114 86.7638 21.204 87.2678 21.204C87.7718 21.204 88.1618 21.12 88.4378 20.952C88.7138 20.772 88.8518 20.526 88.8518 20.214C88.8518 19.902 88.7378 19.662 88.5098 19.494C88.2938 19.314 88.0118 19.17 87.6638 19.062C87.3158 18.942 86.9438 18.828 86.5478 18.72C86.1638 18.6 85.7978 18.45 85.4498 18.27C85.1018 18.09 84.8138 17.844 84.5858 17.532C84.3698 17.22 84.2618 16.806 84.2618 16.29C84.2618 15.774 84.3878 15.33 84.6398 14.958C84.8918 14.574 85.2398 14.28 85.6838 14.076C86.1398 13.872 86.6858 13.77 87.3218 13.77C87.9938 13.77 88.5878 13.89 89.1038 14.13C89.6318 14.358 90.0638 14.706 90.3998 15.174L89.3558 16.218C89.1158 15.906 88.8158 15.666 88.4558 15.498C88.1078 15.33 87.7118 15.246 87.2678 15.246C86.7998 15.246 86.4398 15.33 86.1878 15.498C85.9478 15.654 85.8278 15.876 85.8278 16.164C85.8278 16.452 85.9358 16.674 86.1518 16.83C86.3678 16.986 86.6498 17.118 86.9978 17.226C87.3578 17.334 87.7298 17.448 88.1138 17.568C88.4978 17.676 88.8638 17.826 89.2118 18.018C89.5598 18.21 89.8418 18.468 90.0578 18.792C90.2858 19.116 90.3998 19.542 90.3998 20.07C90.3998 20.874 90.1118 21.51 89.5358 21.978C88.9718 22.446 88.2098 22.68 87.2498 22.68ZM98.2614 22.5V17.514C98.2614 16.866 98.0574 16.332 97.6494 15.912C97.2414 15.492 96.7134 15.282 96.0654 15.282C95.6334 15.282 95.2494 15.378 94.9134 15.57C94.5774 15.762 94.3134 16.026 94.1214 16.362C93.9294 16.698 93.8334 17.082 93.8334 17.514L93.1674 17.136C93.1674 16.488 93.3114 15.912 93.5994 15.408C93.8874 14.904 94.2894 14.508 94.8054 14.22C95.3214 13.92 95.9034 13.77 96.5514 13.77C97.1994 13.77 97.7694 13.914 98.2614 14.202C98.7654 14.49 99.1614 14.892 99.4494 15.408C99.7374 15.924 99.8814 16.518 99.8814 17.19V22.5H98.2614ZM92.2134 22.5V9.648H93.8334V22.5H92.2134ZM113.829 22.5L107.529 15.984L113.703 10.008H115.899L109.239 16.416V15.48L116.079 22.5H113.829ZM106.107 22.5V10.008H107.799V22.5H106.107ZM120.384 22.68C119.688 22.68 119.058 22.524 118.494 22.212C117.942 21.888 117.51 21.444 117.198 20.88C116.886 20.316 116.73 19.662 116.73 18.918V13.95H118.35V18.846C118.35 19.314 118.428 19.722 118.584 20.07C118.752 20.406 118.992 20.664 119.304 20.844C119.616 21.024 119.982 21.114 120.402 21.114C121.038 21.114 121.536 20.916 121.896 20.52C122.256 20.112 122.436 19.554 122.436 18.846V13.95H124.056V18.918C124.056 19.662 123.9 20.316 123.588 20.88C123.276 21.444 122.844 21.888 122.292 22.212C121.752 22.524 121.116 22.68 120.384 22.68ZM126.227 22.5V13.95H127.847V22.5H126.227ZM132.005 22.5V17.334C132.005 16.698 131.807 16.2 131.411 15.84C131.027 15.468 130.541 15.282 129.953 15.282C129.557 15.282 129.203 15.366 128.891 15.534C128.579 15.702 128.327 15.936 128.135 16.236C127.943 16.536 127.847 16.896 127.847 17.316L127.181 16.992C127.181 16.344 127.319 15.78 127.595 15.3C127.883 14.82 128.273 14.448 128.765 14.184C129.257 13.908 129.809 13.77 130.421 13.77C131.021 13.77 131.561 13.902 132.041 14.166C132.533 14.43 132.917 14.802 133.193 15.282C133.481 15.762 133.625 16.332 133.625 16.992V22.5H132.005ZM137.783 22.5V17.334C137.783 16.698 137.585 16.2 137.189 15.84C136.805 15.468 136.325 15.282 135.749 15.282C135.353 15.282 134.993 15.366 134.669 15.534C134.357 15.702 134.105 15.936 133.913 16.236C133.721 16.536 133.625 16.896 133.625 17.316L132.707 16.992C132.743 16.332 132.917 15.768 133.229 15.3C133.553 14.82 133.967 14.448 134.471 14.184C134.975 13.908 135.527 13.77 136.127 13.77C136.751 13.77 137.309 13.902 137.801 14.166C138.293 14.43 138.683 14.802 138.971 15.282C139.271 15.762 139.421 16.338 139.421 17.01V22.5H137.783ZM145.262 22.68C144.482 22.68 143.774 22.488 143.138 22.104C142.502 21.708 141.998 21.174 141.625 20.502C141.266 19.83 141.086 19.074 141.086 18.234C141.086 17.394 141.266 16.638 141.625 15.966C141.998 15.294 142.496 14.76 143.12 14.364C143.756 13.968 144.47 13.77 145.262 13.77C145.91 13.77 146.486 13.908 146.99 14.184C147.506 14.448 147.92 14.82 148.232 15.3C148.544 15.768 148.718 16.314 148.754 16.938V19.512C148.718 20.124 148.544 20.67 148.232 21.15C147.932 21.63 147.524 22.008 147.008 22.284C146.504 22.548 145.922 22.68 145.262 22.68ZM145.532 21.15C146.336 21.15 146.984 20.88 147.476 20.34C147.968 19.788 148.214 19.086 148.214 18.234C148.214 17.646 148.1 17.136 147.872 16.704C147.656 16.26 147.344 15.918 146.936 15.678C146.528 15.426 146.054 15.3 145.514 15.3C144.974 15.3 144.494 15.426 144.074 15.678C143.666 15.93 143.342 16.278 143.102 16.722C142.874 17.154 142.76 17.652 142.76 18.216C142.76 18.792 142.874 19.302 143.102 19.746C143.342 20.178 143.672 20.52 144.092 20.772C144.512 21.024 144.992 21.15 145.532 21.15ZM148.106 22.5V20.196L148.412 18.108L148.106 16.038V13.95H149.744V22.5H148.106ZM152.102 22.5V13.95H153.722V22.5H152.102ZM153.722 17.622L153.11 17.352C153.11 16.26 153.362 15.39 153.866 14.742C154.37 14.094 155.096 13.77 156.044 13.77C156.476 13.77 156.866 13.848 157.214 14.004C157.562 14.148 157.886 14.394 158.186 14.742L157.124 15.84C156.944 15.648 156.746 15.51 156.53 15.426C156.314 15.342 156.062 15.3 155.774 15.3C155.174 15.3 154.682 15.492 154.298 15.876C153.914 16.26 153.722 16.842 153.722 17.622ZM167.149 22.68C166.165 22.68 165.325 22.5 164.629 22.14C163.933 21.78 163.315 21.258 162.775 20.574L163.927 19.422C164.323 19.974 164.779 20.394 165.295 20.682C165.811 20.958 166.447 21.096 167.203 21.096C167.947 21.096 168.541 20.934 168.985 20.61C169.441 20.286 169.669 19.842 169.669 19.278C169.669 18.81 169.561 18.432 169.345 18.144C169.129 17.856 168.835 17.622 168.463 17.442C168.103 17.25 167.707 17.082 167.275 16.938C166.843 16.782 166.411 16.62 165.979 16.452C165.547 16.272 165.151 16.056 164.791 15.804C164.431 15.54 164.137 15.198 163.909 14.778C163.693 14.358 163.585 13.83 163.585 13.194C163.585 12.486 163.753 11.886 164.089 11.394C164.437 10.89 164.905 10.506 165.493 10.242C166.093 9.966 166.765 9.828 167.509 9.828C168.325 9.828 169.057 9.99 169.705 10.314C170.353 10.626 170.881 11.04 171.289 11.556L170.137 12.708C169.765 12.276 169.363 11.952 168.931 11.736C168.511 11.52 168.025 11.412 167.473 11.412C166.801 11.412 166.267 11.562 165.871 11.862C165.475 12.15 165.277 12.558 165.277 13.086C165.277 13.506 165.385 13.848 165.601 14.112C165.829 14.364 166.123 14.58 166.483 14.76C166.843 14.94 167.239 15.108 167.671 15.264C168.115 15.408 168.553 15.57 168.985 15.75C169.417 15.93 169.813 16.158 170.173 16.434C170.533 16.71 170.821 17.07 171.037 17.514C171.265 17.946 171.379 18.492 171.379 19.152C171.379 20.256 170.995 21.12 170.227 21.744C169.471 22.368 168.445 22.68 167.149 22.68ZM179.42 22.5V17.514C179.42 16.866 179.216 16.332 178.808 15.912C178.4 15.492 177.872 15.282 177.224 15.282C176.792 15.282 176.408 15.378 176.072 15.57C175.736 15.762 175.472 16.026 175.28 16.362C175.088 16.698 174.992 17.082 174.992 17.514L174.326 17.136C174.326 16.488 174.47 15.912 174.758 15.408C175.046 14.904 175.448 14.508 175.964 14.22C176.48 13.92 177.062 13.77 177.71 13.77C178.358 13.77 178.928 13.914 179.42 14.202C179.924 14.49 180.32 14.892 180.608 15.408C180.896 15.924 181.04 16.518 181.04 17.19V22.5H179.42ZM173.372 22.5V9.648H174.992V22.5H173.372ZM186.869 22.68C186.089 22.68 185.381 22.488 184.745 22.104C184.109 21.708 183.605 21.174 183.233 20.502C182.873 19.83 182.693 19.074 182.693 18.234C182.693 17.394 182.873 16.638 183.233 15.966C183.605 15.294 184.103 14.76 184.727 14.364C185.363 13.968 186.077 13.77 186.869 13.77C187.517 13.77 188.093 13.908 188.597 14.184C189.113 14.448 189.527 14.82 189.839 15.3C190.151 15.768 190.325 16.314 190.361 16.938V19.512C190.325 20.124 190.151 20.67 189.839 21.15C189.539 21.63 189.131 22.008 188.615 22.284C188.111 22.548 187.529 22.68 186.869 22.68ZM187.139 21.15C187.943 21.15 188.591 20.88 189.083 20.34C189.575 19.788 189.821 19.086 189.821 18.234C189.821 17.646 189.707 17.136 189.479 16.704C189.263 16.26 188.951 15.918 188.543 15.678C188.135 15.426 187.661 15.3 187.121 15.3C186.581 15.3 186.101 15.426 185.681 15.678C185.273 15.93 184.949 16.278 184.709 16.722C184.481 17.154 184.367 17.652 184.367 18.216C184.367 18.792 184.481 19.302 184.709 19.746C184.949 20.178 185.279 20.52 185.699 20.772C186.119 21.024 186.599 21.15 187.139 21.15ZM189.713 22.5V20.196L190.019 18.108L189.713 16.038V13.95H191.351V22.5H189.713ZM193.709 22.5V13.95H195.329V22.5H193.709ZM195.329 17.622L194.717 17.352C194.717 16.26 194.969 15.39 195.473 14.742C195.977 14.094 196.703 13.77 197.651 13.77C198.083 13.77 198.473 13.848 198.821 14.004C199.169 14.148 199.493 14.394 199.793 14.742L198.731 15.84C198.551 15.648 198.353 15.51 198.137 15.426C197.921 15.342 197.669 15.3 197.381 15.3C196.781 15.3 196.289 15.492 195.905 15.876C195.521 16.26 195.329 16.842 195.329 17.622ZM200.969 22.5V13.95H202.589V22.5H200.969ZM206.747 22.5V17.334C206.747 16.698 206.549 16.2 206.153 15.84C205.769 15.468 205.283 15.282 204.695 15.282C204.299 15.282 203.945 15.366 203.633 15.534C203.321 15.702 203.069 15.936 202.877 16.236C202.685 16.536 202.589 16.896 202.589 17.316L201.923 16.992C201.923 16.344 202.061 15.78 202.337 15.3C202.625 14.82 203.015 14.448 203.507 14.184C203.999 13.908 204.551 13.77 205.163 13.77C205.763 13.77 206.303 13.902 206.783 14.166C207.275 14.43 207.659 14.802 207.935 15.282C208.223 15.762 208.367 16.332 208.367 16.992V22.5H206.747ZM212.525 22.5V17.334C212.525 16.698 212.327 16.2 211.931 15.84C211.547 15.468 211.067 15.282 210.491 15.282C210.095 15.282 209.735 15.366 209.411 15.534C209.099 15.702 208.847 15.936 208.655 16.236C208.463 16.536 208.367 16.896 208.367 17.316L207.449 16.992C207.485 16.332 207.659 15.768 207.971 15.3C208.295 14.82 208.709 14.448 209.213 14.184C209.717 13.908 210.269 13.77 210.869 13.77C211.493 13.77 212.051 13.902 212.543 14.166C213.035 14.43 213.425 14.802 213.713 15.282C214.013 15.762 214.163 16.338 214.163 17.01V22.5H212.525ZM220.004 22.68C219.224 22.68 218.516 22.488 217.88 22.104C217.244 21.708 216.74 21.174 216.368 20.502C216.008 19.83 215.828 19.074 215.828 18.234C215.828 17.394 216.008 16.638 216.368 15.966C216.74 15.294 217.238 14.76 217.862 14.364C218.498 13.968 219.212 13.77 220.004 13.77C220.652 13.77 221.228 13.908 221.732 14.184C222.248 14.448 222.662 14.82 222.974 15.3C223.286 15.768 223.46 16.314 223.496 16.938V19.512C223.46 20.124 223.286 20.67 222.974 21.15C222.674 21.63 222.266 22.008 221.75 22.284C221.246 22.548 220.664 22.68 220.004 22.68ZM220.274 21.15C221.078 21.15 221.726 20.88 222.218 20.34C222.71 19.788 222.956 19.086 222.956 18.234C222.956 17.646 222.842 17.136 222.614 16.704C222.398 16.26 222.086 15.918 221.678 15.678C221.27 15.426 220.796 15.3 220.256 15.3C219.716 15.3 219.236 15.426 218.816 15.678C218.408 15.93 218.084 16.278 217.844 16.722C217.616 17.154 217.502 17.652 217.502 18.216C217.502 18.792 217.616 19.302 217.844 19.746C218.084 20.178 218.414 20.52 218.834 20.772C219.254 21.024 219.734 21.15 220.274 21.15ZM222.848 22.5V20.196L223.154 18.108L222.848 16.038V13.95H224.486V22.5H222.848Z" fill="white"/>
<defs>
<linearGradient id="paint0_linear_671_11243" x1="-23.1956" y1="39.2141" x2="94.3608" y2="-38.3108" gradientUnits="userSpaceOnUse">
<stop offset="0.182796" stop-color="#2668F2"/>
<stop offset="0.370968" stop-color="#2668F2"/>
<stop offset="0.516129" stop-color="#2668F2"/>
<stop offset="0.645161" stop-color="#2668F2"/>
<stop offset="0.725807" stop-color="#2668F2"/>
<stop offset="0.83871" stop-color="#2668F2"/>
<stop offset="1" stop-color="#2668F2"/>
</linearGradient>
<radialGradient id="paint1_radial_671_11243" cx="0" cy="0" r="1" gradientUnits="userSpaceOnUse" gradientTransform="translate(2.22941 -9.05578) scale(121.366 106.182)">
<stop stop-color="white"/>
<stop offset="0.556122" stop-color="white"/>
<stop offset="1" stop-color="#FAFAFA"/>
</radialGradient>
<linearGradient id="paint2_linear_671_11243" x1="-26.4169" y1="39.6897" x2="100.021" y2="-49.0093" gradientUnits="userSpaceOnUse">
<stop stop-color="#2668F2"/>
<stop offset="0.182796" stop-color="#2668F2"/>
<stop offset="0.370968" stop-color="#2668F2"/>
<stop offset="0.516129" stop-color="#2668F2"/>
<stop offset="0.645161" stop-color="#2668F2"/>
<stop offset="0.725807" stop-color="#2668F2"/>
<stop offset="0.83871" stop-color="#2668F2"/>
<stop offset="1" stop-color="#2668F2"/>
</linearGradient>
<linearGradient id="paint3_linear_671_11243" x1="-23.195" y1="-6.25277" x2="94.3594" y2="71.2695" gradientUnits="userSpaceOnUse">
<stop stop-color="#2668F2"/>
<stop offset="0.182796" stop-color="#2668F2"/>
<stop offset="0.370968" stop-color="#2668F2"/>
<stop offset="0.516129" stop-color="#2668F2"/>
<stop offset="0.645161" stop-color="#2668F2"/>
<stop offset="0.725807" stop-color="#2668F2"/>
<stop offset="0.83871" stop-color="#2668F2"/>
<stop offset="1" stop-color="#2668F2"/>
</linearGradient>
<radialGradient id="paint4_radial_671_11243" cx="0" cy="0" r="1" gradientUnits="userSpaceOnUse" gradientTransform="translate(15.5641 6.82985) scale(64.682 67.2714)">
<stop stop-color="white"/>
<stop offset="0.556122" stop-color="white"/>
<stop offset="1" stop-color="#FAFAFA"/>
</radialGradient>
<radialGradient id="paint5_radial_671_11243" cx="0" cy="0" r="1" gradientUnits="userSpaceOnUse" gradientTransform="translate(-19.8103 -425.076) scale(801.861 2305.35)">
<stop stop-color="white"/>
<stop offset="0.556122" stop-color="white"/>
<stop offset="1" stop-color="#F7F7F7"/>
</radialGradient>
</defs>
</svg>
