<svg width="32" height="33" viewBox="0 0 32 33" fill="none" xmlns="http://www.w3.org/2000/svg">
<path d="M10 4.5C10.3682 4.5 10.6667 4.79848 10.6667 5.16667C10.6667 5.53485 10.3682 5.83333 10 5.83333H7.33333C6.22876 5.83333 5.33333 6.72876 5.33333 7.83333V10.5415C5.33333 10.9097 5.03485 11.2082 4.66667 11.2082C4.29848 11.2082 4 10.9097 4 10.5415V7.83333C4 5.99239 5.49239 4.5 7.33333 4.5H10ZM22 5.83333C21.6319 5.83333 21.3333 5.53485 21.3333 5.16667C21.3333 4.79848 21.6319 4.5 22 4.5H24.6667C26.5076 4.5 28 5.99239 28 7.83333V10.5C28 10.8682 27.7015 11.1667 27.3333 11.1667C26.9652 11.1667 26.6667 10.8682 26.6667 10.5V7.83333C26.6667 6.72876 25.7712 5.83333 24.6667 5.83333H22ZM26.6667 22.5C26.6667 22.1319 26.9652 21.8333 27.3333 21.8333C27.7015 21.8333 28 22.1319 28 22.5V25.1667C28 27.0076 26.5076 28.5 24.6667 28.5H22C21.6319 28.5 21.3333 28.2015 21.3333 27.8333C21.3333 27.4652 21.6319 27.1667 22 27.1667H24.6667C25.7712 27.1667 26.6667 26.2712 26.6667 25.1667V22.5ZM4 22.5C4 22.1319 4.29848 21.8333 4.66667 21.8333C5.03485 21.8333 5.33333 22.1319 5.33333 22.5V25.1667C5.33333 26.2712 6.22876 27.1667 7.33333 27.1667H10C10.3682 27.1667 10.6667 27.4652 10.6667 27.8333C10.6667 28.2015 10.3682 28.5 10 28.5H7.33333C5.49239 28.5 4 27.0076 4 25.1667V22.5ZM10.6667 11.8333C10.6667 11.4651 10.9651 11.1667 11.3333 11.1667C11.7015 11.1667 12 11.4651 12 11.8333V13.1667C12 13.5349 11.7015 13.8333 11.3333 13.8333C10.9651 13.8333 10.6667 13.5349 10.6667 13.1667V11.8333ZM21.3333 11.8333C21.3333 11.4651 21.6319 11.1667 22 11.1667C22.3681 11.1667 22.6667 11.4651 22.6667 11.8333V13.1667C22.6667 13.5349 22.3681 13.8333 22 13.8333C21.6319 13.8333 21.3333 13.5349 21.3333 13.1667V11.8333ZM16 11.8333C16 11.4651 16.2985 11.1667 16.6667 11.1667C17.0348 11.1667 17.3333 11.4651 17.3333 11.8333V17.1667C17.3333 18.2712 16.4379 19.1667 15.3333 19.1667C14.9652 19.1667 14.6667 18.8681 14.6667 18.5C14.6667 18.1319 14.9652 17.8333 15.3333 17.8333C15.7015 17.8333 16 17.5348 16 17.1667V11.8333ZM10.8 21.5667C10.5791 21.2721 10.6388 20.8543 10.9333 20.6333C11.2279 20.4124 11.6457 20.4721 11.8667 20.7667C13.0813 22.3861 14.4472 23.1667 16 23.1667C17.5528 23.1667 18.9187 22.3861 20.1333 20.7667C20.3543 20.4721 20.7721 20.4124 21.0667 20.6333C21.3612 20.8543 21.4209 21.2721 21.2 21.5667C19.748 23.5027 18.0027 24.5 16 24.5C13.9973 24.5 12.252 23.5027 10.8 21.5667Z" fill="#4F4F4F"/>
</svg>
