<svg width="96" height="97" viewBox="0 0 96 97" fill="none" xmlns="http://www.w3.org/2000/svg">
<rect width="96" height="96.4878" rx="16" fill="#42638F"/>
<path d="M47.9999 63.6096C48.6058 63.6096 49.0975 64.1013 49.0975 64.7071C49.0975 65.313 48.6058 65.8047 47.9999 65.8047C47.3941 65.8047 46.9023 65.313 46.9023 64.7071C46.9023 64.1013 47.3941 63.6096 47.9999 63.6096Z" fill="white"/>
<path d="M71.378 54.8291C71.378 57.8595 68.9205 60.3169 65.8901 60.3169C62.8598 60.3169 60.4023 57.8595 60.4023 54.8291C60.4023 51.7987 62.8598 49.3413 65.8901 49.3413C68.9205 49.3413 71.378 51.7987 71.378 54.8291Z" stroke="white" stroke-width="2" stroke-miterlimit="10" strokeLinecap="round" stroke-linejoin="round"/>
<path d="M35.9268 73.4878H21V71.2927C21 66.4436 25.2607 62.5122 30.1098 62.5122C33.0743 62.5122 36.0245 63.9807 37.6138 66.2307" stroke="white" stroke-width="2" stroke-miterlimit="10" strokeLinecap="round" stroke-linejoin="round"/>
<path d="M58.3862 66.2307C59.9755 63.9807 62.9257 62.5122 65.8903 62.5122C70.7393 62.5122 75 66.4436 75 71.2927V73.4878H60.0732" stroke="white" stroke-width="2" stroke-miterlimit="10" strokeLinecap="round" stroke-linejoin="round"/>
<path d="M35.5977 54.8291C35.5977 57.8595 33.1402 60.3169 30.1099 60.3169C27.0795 60.3169 24.6221 57.8595 24.6221 54.8291C24.6221 51.7987 27.0795 49.3413 30.1099 49.3413C33.1402 49.3413 35.5977 51.7987 35.5977 54.8291Z" stroke="white" stroke-width="2" stroke-miterlimit="10" strokeLinecap="round" stroke-linejoin="round"/>
<path d="M55.683 50.4391C55.683 54.6823 52.2432 58.1221 48.0001 58.1221C43.7569 58.1221 40.3171 54.6823 40.3171 50.4391C40.3171 46.196 43.7569 42.7562 48.0001 42.7562C52.2432 42.7562 55.683 46.196 55.683 50.4391Z" stroke="white" stroke-width="2" stroke-miterlimit="10" strokeLinecap="round" stroke-linejoin="round"/>
<path d="M47.9604 23L45.5864 27.8545L40.2786 28.625L44.12 32.3688L43.2134 37.6558L47.9604 35.1599C49.7439 36.0972 50.9755 36.7448 52.7086 37.6558L51.8008 32.3688L55.6422 28.625L50.3344 27.8545L47.9604 23Z" stroke="white" stroke-width="2" stroke-miterlimit="10" strokeLinecap="round" stroke-linejoin="round"/>
<path d="M66.5795 41.5039L69.9589 43.2798L69.3135 39.5173L72.0474 36.8514L68.2686 36.3026L66.5795 32.8782L64.8893 36.3026L61.1104 36.8514L63.8444 39.5173L63.199 43.2798L66.5795 41.5039Z" stroke="white" stroke-width="2" stroke-miterlimit="10" strokeLinecap="round" stroke-linejoin="round"/>
<path d="M29.2624 41.5039L32.6418 43.2798L31.9964 39.5173L34.7304 36.8514L30.9515 36.3026L29.2624 32.8782L27.5721 36.3026L23.7932 36.8514L26.5272 39.5173L25.8819 43.2798L29.2624 41.5039Z" stroke="white" stroke-width="2" stroke-miterlimit="10" strokeLinecap="round" stroke-linejoin="round"/>
<path d="M60.0731 73.4878H35.9268V72.3902C35.9268 70.1402 36.5425 68.034 37.6137 66.2307C39.7188 62.69 43.5822 60.3171 47.9999 60.3171C51.3343 60.3171 54.3526 61.6682 56.5368 63.8534C57.2469 64.5635 57.8692 65.3614 58.3862 66.2307C59.4574 68.034 60.0731 70.1402 60.0731 72.3902V73.4878Z" stroke="white" stroke-width="2" stroke-miterlimit="10" strokeLinecap="round" stroke-linejoin="round"/>
<path d="M52.207 65.9641C53.3814 66.7357 54.333 67.8201 54.9411 69.0977" stroke="white" stroke-width="2" stroke-miterlimit="10" strokeLinecap="round" stroke-linejoin="round"/>
</svg>
