<svg width="96" height="96" viewBox="0 0 96 96" fill="none" xmlns="http://www.w3.org/2000/svg">
<rect width="96" height="96" rx="16" fill="#18395E"/>
<path d="M69.6141 49.3173C70.0913 48.6098 70.3701 47.758 70.3701 46.8423V45.9963C70.3701 43.549 68.3791 41.5579 65.9319 41.5579C64.7109 41.5579 63.6035 42.0538 62.8002 42.8545C60.7219 36.6731 54.8727 32.208 48 32.208C41.1273 32.208 35.2781 36.673 33.1998 42.8545C32.3965 42.0538 31.2892 41.5579 30.0681 41.5579C27.6209 41.5579 25.6299 43.549 25.6299 45.9963V46.8423C25.6299 47.758 25.9087 48.6098 26.3859 49.3173C23.3137 49.9647 21 52.6959 21 55.958V58.0816C21 58.664 21.4723 59.1363 22.0547 59.1363H27.5391C28.1215 59.1363 28.5938 58.664 28.5938 58.0816C28.5938 57.4991 28.1215 57.0268 27.5391 57.0268H23.1094V55.958C23.1094 53.3789 25.2076 51.2806 27.7866 51.2806H32.7783C33.1831 53.0611 33.8926 54.7271 34.8498 56.22L22.816 68.2543C21.2751 69.7953 21.2751 72.3029 22.8161 73.8441C23.5866 74.6147 24.5986 74.9999 25.6108 74.9999C26.623 74.9999 27.6351 74.6146 28.4057 73.8441L35.04 67.2095C35.4519 66.7976 35.4519 66.1297 35.04 65.7178C34.628 65.306 33.9604 65.306 33.5484 65.7178L26.9142 72.3524C26.1954 73.0711 25.0262 73.071 24.3075 72.3525C23.5889 71.6338 23.5889 70.4644 24.3075 69.7458L36.1207 57.9322C38.986 61.2928 43.2481 63.4279 48 63.4279C55.4174 63.4279 61.6424 58.227 63.2217 51.2806H68.2134C70.7924 51.2806 72.8906 53.3789 72.8906 55.958V57.0268H62.9766C62.3942 57.0268 61.9219 57.4991 61.9219 58.0816C61.9219 58.664 62.3942 59.1363 62.9766 59.1363H73.9453C74.5277 59.1363 75 58.664 75 58.0816V55.958C75 52.6959 72.6863 49.9647 69.6141 49.3173ZM32.397 46.8424C32.397 48.1265 31.3523 49.1712 30.0681 49.1712C28.7839 49.1712 27.7392 48.1265 27.7392 46.8424V45.9964C27.7392 44.7122 28.7839 43.6675 30.0681 43.6675C31.3523 43.6675 32.397 44.7122 32.397 45.9964V46.8424ZM48 61.3184C40.5561 61.3184 34.5 55.2621 34.5 47.8179C34.5 40.3738 40.5561 34.3175 48 34.3175C55.4439 34.3175 61.5 40.3738 61.5 47.8179C61.5 55.2621 55.4439 61.3184 48 61.3184ZM68.2607 46.8424C68.2607 48.1265 67.216 49.1712 65.9318 49.1712C64.6476 49.1712 63.6029 48.1265 63.6029 46.8424V45.9964C63.6029 44.7122 64.6476 43.6675 65.9318 43.6675C67.216 43.6675 68.2607 44.7122 68.2607 45.9964V46.8424Z" fill="white"/>
<path d="M48 36.4272C41.7191 36.4272 36.6094 41.5372 36.6094 47.8183C36.6094 51.0784 37.9864 54.0227 40.1888 56.101C40.2264 56.1417 40.2668 56.1801 40.3111 56.2149C42.3389 58.0735 45.0392 59.2093 48 59.2093C50.9608 59.2093 53.6611 58.0734 55.6889 56.2149C55.7332 56.1802 55.7736 56.1417 55.8112 56.101C58.0136 54.0227 59.3906 51.0784 59.3906 47.8183C59.3906 41.5373 54.2809 36.4272 48 36.4272ZM48 57.0998C45.8312 57.0998 43.8341 56.3519 42.2523 55.1007C43.3729 52.9803 45.5567 51.6462 48 51.6462C50.4433 51.6462 52.6271 52.9803 53.7477 55.1007C52.1659 56.3519 50.1688 57.0998 48 57.0998ZM45.7775 47.3141V46.4947C45.7775 45.2691 46.7745 44.2721 48 44.2721C49.2255 44.2721 50.2225 45.2691 50.2225 46.4947V47.3141C50.2225 48.5397 49.2255 49.5367 48 49.5367C46.7745 49.5367 45.7775 48.5397 45.7775 47.3141ZM55.2905 53.5559C54.3243 52.0142 52.9101 50.8385 51.2549 50.1681C51.9245 49.4052 52.3319 48.4067 52.3319 47.3142V46.4948C52.3319 44.1062 50.3886 42.1627 48 42.1627C45.6114 42.1627 43.6681 44.1062 43.6681 46.4948V47.3142C43.6681 48.4067 44.0754 49.4052 44.7451 50.1681C43.0899 50.8386 41.6758 52.0142 40.7095 53.5559C39.4633 51.9757 38.7188 49.9824 38.7188 47.8183C38.7188 42.7004 42.8823 38.5367 48 38.5367C53.1177 38.5367 57.2812 42.7004 57.2812 47.8183C57.2812 49.9824 56.5367 51.9757 55.2905 53.5559Z" fill="white"/>
<path d="M37.8614 62.8969C37.6652 62.7007 37.3931 62.5879 37.1157 62.5879C36.8383 62.5879 36.5662 62.7007 36.3701 62.8969C36.174 63.0931 36.061 63.3652 36.061 63.6426C36.061 63.92 36.1739 64.1921 36.3701 64.3883C36.5662 64.5844 36.8383 64.6973 37.1157 64.6973C37.3931 64.6973 37.6652 64.5845 37.8614 64.3883C38.0575 64.1921 38.1704 63.92 38.1704 63.6426C38.1704 63.3652 38.0576 63.0931 37.8614 62.8969Z" fill="white"/>
<path d="M48.0215 21C47.4391 21 46.9668 21.4723 46.9668 22.0547V25.6433C46.9668 26.2258 47.4391 26.698 48.0215 26.698C48.6039 26.698 49.0762 26.2257 49.0762 25.6433V22.0547C49.0762 21.4723 48.6039 21 48.0215 21Z" fill="white"/>
<path d="M48.7666 28.3759C48.5705 28.1798 48.2993 28.0669 48.021 28.0669C47.7435 28.0669 47.4715 28.1796 47.2753 28.3759C47.0792 28.5722 46.9663 28.8442 46.9663 29.1216C46.9663 29.399 47.0791 29.6711 47.2753 29.8672C47.4715 30.0634 47.7435 30.1763 48.021 30.1763C48.2994 30.1763 48.5705 30.0635 48.7666 29.8672C48.9627 29.6711 49.0757 29.399 49.0757 29.1216C49.0757 28.8442 48.9628 28.5721 48.7666 28.3759Z" fill="white"/>
<path d="M56.9626 25.1374C56.5506 24.7257 55.883 24.7257 55.471 25.1374L53.6172 26.9912C53.2054 27.4031 53.2054 28.0709 53.6172 28.4829C53.8233 28.6888 54.0931 28.7918 54.3631 28.7918C54.6331 28.7918 54.9029 28.6888 55.1089 28.4829L56.9626 26.6291C57.3745 26.2173 57.3745 25.5494 56.9626 25.1374Z" fill="white"/>
<path d="M42.4004 27.0037L40.5288 25.1321C40.1168 24.7203 39.4492 24.7203 39.0372 25.1321C38.6253 25.5439 38.6253 26.2118 39.0372 26.6238L40.9088 28.4954C41.1148 28.7013 41.3847 28.8043 41.6546 28.8043C41.9245 28.8043 42.1944 28.7013 42.4004 28.4954C42.8122 28.0835 42.8122 27.4156 42.4004 27.0037Z" fill="white"/>
</svg>
