<svg width="95" height="97" viewBox="0 0 95 97" fill="none" xmlns="http://www.w3.org/2000/svg">
<rect width="95" height="96.3529" rx="16" fill="#FFD15C"/>
<path d="M25 53.952C25 53.952 32.0989 38.5509 47.5 38.5509C62.9011 38.5509 70 53.952 70 53.952C70 53.952 62.9011 69.353 47.5 69.353C32.0989 69.353 25 53.952 25 53.952Z" stroke="white" stroke-width="2.5" stroke-miterlimit="10" strokeLinecap="square"/>
<path d="M39.7996 53.9518C39.7996 49.6989 43.2472 46.2513 47.5001 46.2513C51.753 46.2513 55.2006 49.6989 55.2006 53.9518C55.2006 58.2047 51.753 61.6523 47.5001 61.6523C43.2472 61.6523 39.7996 58.2047 39.7996 53.9518Z" stroke="white" stroke-width="2.5" stroke-miterlimit="10" strokeLinecap="square"/>
<path d="M49.4252 53.9518C49.4252 55.0151 48.5633 55.877 47.5001 55.877C46.4368 55.877 45.575 55.0151 45.575 53.9518C45.575 52.8886 46.4368 52.0267 47.5001 52.0267C48.5633 52.0267 49.4252 52.8886 49.4252 53.9518Z" fill="white"/>
<path d="M47.5 27.0003V30.8506" stroke="white" stroke-width="2.5" stroke-miterlimit="10" strokeLinecap="square"/>
<path d="M58.0349 28.8575L56.718 32.4756" stroke="white" stroke-width="2.5" stroke-miterlimit="10" strokeLinecap="square"/>
<path d="M67.2993 34.2063L64.8245 37.1558" stroke="white" stroke-width="2.5" stroke-miterlimit="10" strokeLinecap="square"/>
<path d="M36.9651 28.8575L38.282 32.4756" stroke="white" stroke-width="2.5" stroke-miterlimit="10" strokeLinecap="square"/>
<path d="M27.7007 34.2063L30.1755 37.1558" stroke="white" stroke-width="2.5" stroke-miterlimit="10" strokeLinecap="square"/>
</svg>
