<svg width="29" height="18" viewBox="0 0 29 18" fill="none" xmlns="http://www.w3.org/2000/svg">
<path d="M15.1242 12.7742C15.2051 11.7471 14.9178 10.7248 14.3138 9.88999C13.7097 9.05521 12.8282 8.46244 11.827 8.21767C12.5791 7.92727 13.2211 7.4085 13.6628 6.73435C14.1045 6.0602 14.3236 5.2646 14.2892 4.4595C14.2892 0.873993 11.6116 0 8.51809 0H0V18H8.75696C12.0403 18 15.1242 16.4311 15.1242 12.7742ZM3.97113 3.07283H7.69699C9.12912 3.07283 10.4194 3.47359 10.4194 5.12991C10.4194 6.65834 9.41597 7.27333 7.99771 7.27333H3.97113V3.07283ZM3.97113 14.9432V9.98591H8.29842C10.0462 9.98591 11.152 10.7117 11.152 12.5557C11.152 14.374 9.83185 14.9421 8.21631 14.9421L3.97113 14.9432Z" fill="#7A7A7A"/>
<path d="M22.7023 17.9814C24.0613 18.0901 25.4152 17.7179 26.5236 16.9311C27.632 16.1442 28.423 14.9936 28.7563 13.6835H25.6223C25.374 14.2065 24.9746 14.6447 24.4746 14.9424C23.9746 15.2401 23.3966 15.3838 22.814 15.3554C22.3773 15.397 21.9368 15.3405 21.5251 15.1902C21.1134 15.0399 20.7412 14.7996 20.4361 14.4872C20.1311 14.1747 19.901 13.7982 19.7629 13.3855C19.6249 12.9728 19.5825 12.5347 19.6389 12.1035H28.9693C28.9851 11.8945 28.9999 11.6719 28.9999 11.4473C28.9999 7.66769 26.7622 4.51611 22.7044 4.51611C21.8125 4.49725 20.9262 4.66084 20.101 4.99666C19.2758 5.33249 18.5293 5.83333 17.9082 6.46791C17.2871 7.10248 16.8047 7.85715 16.4912 8.68477C16.1777 9.51239 16.0398 10.3952 16.0861 11.278C16.084 15.252 18.6191 17.9814 22.7023 17.9814ZM22.5968 7.16193C22.969 7.13516 23.3428 7.18679 23.6934 7.31343C24.0441 7.44006 24.3637 7.63883 24.6313 7.89666C24.8988 8.15449 25.1083 8.46553 25.2458 8.80933C25.3834 9.15313 25.4459 9.52189 25.4293 9.89135H19.6441C19.6461 9.51663 19.7253 9.14626 19.877 8.80299C20.0286 8.45972 20.2495 8.15079 20.526 7.89518C20.8025 7.63957 21.1289 7.44267 21.485 7.31657C21.8411 7.19048 22.2194 7.13786 22.5968 7.16193Z" fill="#7A7A7A"/>
<path d="M19.1047 1H26.1689V3H19.1047V1Z" fill="#7A7A7A"/>
</svg>
