<svg width="32" height="48" viewBox="0 0 32 48" fill="none" xmlns="http://www.w3.org/2000/svg">
<path d="M8.00001 48C12.416 48 16 44.416 16 40V32H8.00001C3.58401 32 0 35.584 0 40C0 44.416 3.58401 48 8.00001 48Z" fill="#0ACF83"/>
<path d="M0 24C0 19.584 3.58401 16 8.00001 16H16V32H8.00001C3.58401 32 0 28.416 0 24Z" fill="#A259FF"/>
<path d="M-0.000244141 8C-0.000244141 3.584 3.58376 0 7.99977 0H15.9998V16H7.99977C3.58376 16 -0.000244141 12.416 -0.000244141 8Z" fill="#F24E1E"/>
<path d="M15.9998 0H23.9998C28.4158 0 31.9998 3.584 31.9998 8C31.9998 12.416 28.4158 16 23.9998 16H15.9998V0Z" fill="#FF7262"/>
<path d="M31.9998 24C31.9998 28.416 28.4158 32 23.9998 32C19.5838 32 15.9998 28.416 15.9998 24C15.9998 19.584 19.5838 16 23.9998 16C28.4158 16 31.9998 19.584 31.9998 24Z" fill="#1ABCFE"/>
</svg>
