<svg width="32" height="33" viewBox="0 0 32 33" fill="none" xmlns="http://www.w3.org/2000/svg">
<g clip-path="url(#clip0_426_3408)">
<path d="M28.6667 28.5H3.33333C1.496 28.5 0 27.004 0 25.1667V7.83333C0 5.996 1.496 4.5 3.33333 4.5H28.6667C30.504 4.5 32 5.996 32 7.83333V25.1667C32 27.004 30.504 28.5 28.6667 28.5ZM3.33333 5.83333C2.23067 5.83333 1.33333 6.73067 1.33333 7.83333V25.1667C1.33333 26.2693 2.23067 27.1667 3.33333 27.1667H28.6667C29.7693 27.1667 30.6667 26.2693 30.6667 25.1667V7.83333C30.6667 6.73067 29.7693 5.83333 28.6667 5.83333H3.33333Z" fill="#4F4F4F"/>
<path d="M9.99984 16.5002C8.1625 16.5002 6.6665 15.0042 6.6665 13.1668C6.6665 11.3295 8.1625 9.8335 9.99984 9.8335C11.8372 9.8335 13.3332 11.3295 13.3332 13.1668C13.3332 15.0042 11.8372 16.5002 9.99984 16.5002ZM9.99984 11.1668C8.89717 11.1668 7.99984 12.0642 7.99984 13.1668C7.99984 14.2695 8.89717 15.1668 9.99984 15.1668C11.1025 15.1668 11.9998 14.2695 11.9998 13.1668C11.9998 12.0642 11.1025 11.1668 9.99984 11.1668Z" fill="#4F4F4F"/>
<path d="M15.3333 23.1668C14.9653 23.1668 14.6667 22.8682 14.6667 22.5002V21.1668C14.6667 20.0642 13.7693 19.1668 12.6667 19.1668H7.33333C6.23067 19.1668 5.33333 20.0642 5.33333 21.1668V22.5002C5.33333 22.8682 5.03467 23.1668 4.66667 23.1668C4.29867 23.1668 4 22.8682 4 22.5002V21.1668C4 19.3295 5.496 17.8335 7.33333 17.8335H12.6667C14.504 17.8335 16 19.3295 16 21.1668V22.5002C16 22.8682 15.7013 23.1668 15.3333 23.1668Z" fill="#4F4F4F"/>
<path d="M27.3332 12.4998H19.3332C18.9652 12.4998 18.6665 12.2012 18.6665 11.8332C18.6665 11.4652 18.9652 11.1665 19.3332 11.1665H27.3332C27.7012 11.1665 27.9998 11.4652 27.9998 11.8332C27.9998 12.2012 27.7012 12.4998 27.3332 12.4998Z" fill="#4F4F4F"/>
<path d="M27.3332 17.8333H19.3332C18.9652 17.8333 18.6665 17.5347 18.6665 17.1667C18.6665 16.7987 18.9652 16.5 19.3332 16.5H27.3332C27.7012 16.5 27.9998 16.7987 27.9998 17.1667C27.9998 17.5347 27.7012 17.8333 27.3332 17.8333Z" fill="#4F4F4F"/>
<path d="M27.3332 23.1668H19.3332C18.9652 23.1668 18.6665 22.8682 18.6665 22.5002C18.6665 22.1322 18.9652 21.8335 19.3332 21.8335H27.3332C27.7012 21.8335 27.9998 22.1322 27.9998 22.5002C27.9998 22.8682 27.7012 23.1668 27.3332 23.1668Z" fill="#4F4F4F"/>
</g>
<defs>
<clipPath id="clip0_426_3408">
<rect width="32" height="32" fill="white" transform="translate(0 0.5)"/>
</clipPath>
</defs>
</svg>
