<svg width="104" height="105" viewBox="0 0 104 105" fill="none" xmlns="http://www.w3.org/2000/svg">
<circle cx="52" cy="52.5" r="50" fill="#4A35A5" fill-opacity="0.2" stroke="white" stroke-width="4"/>
<g clip-path="url(#clip0_510_4291)">
<path d="M66.3942 52.8658C66.1211 52.5017 65.6047 52.4279 65.2405 52.701C65.0656 52.8322 64.9499 53.0275 64.9191 53.2441L64.4618 56.4496C64.4508 56.4908 64.4364 56.531 64.4189 56.57C65.2594 55.454 65.9377 54.2246 66.4338 52.9186L66.3942 52.8658Z" fill="#4A35A5"/>
<path d="M63.6453 57.1571C63.6065 57.1571 63.5676 57.1547 63.5291 57.1497L58.6342 56.4501C58.1837 56.3855 57.8708 55.968 57.9354 55.5175V55.5173L58.3928 52.3117C58.4565 51.861 58.143 51.444 57.6923 51.3803C57.4767 51.3498 57.2577 51.4058 57.0833 51.5362L54.4925 53.4785C54.1284 53.7516 53.6119 53.6779 53.3388 53.3137L50.3722 49.3583C50.0991 48.9941 50.1729 48.4776 50.537 48.2046L53.127 46.2623C53.4912 45.9892 53.5649 45.4727 53.2919 45.1086C53.1606 44.9337 52.9653 44.818 52.7488 44.7872L49.5432 44.329C49.0927 44.265 48.7793 43.8477 48.8435 43.3971C48.8435 43.3968 48.8436 43.3965 48.8436 43.3962L49.5432 38.5021C49.6073 38.0516 50.0246 37.7382 50.4751 37.8024C50.4754 37.8024 50.4757 37.8025 50.4761 37.8025L53.6816 38.2607C54.0114 38.3085 54.3372 38.1517 54.5057 37.8643C54.6807 37.5787 54.661 37.2146 54.4562 36.9496L52.5156 34.3604C52.2425 33.9963 52.3163 33.4798 52.6804 33.2067L53.1476 32.8565C52.3907 32.8199 51.6321 32.8402 50.8782 32.9175C42.739 33.8468 36.8944 41.1983 37.8237 49.3375C38.33 53.7715 40.8056 57.7418 44.5643 60.1476C45.9365 60.9985 46.7793 62.491 46.7991 64.1056V67.4356C46.7991 68.801 47.9059 69.9078 49.2713 69.9078H55.8637C57.2291 69.9078 58.3359 68.801 58.3359 67.4356V64.174C58.3568 62.5215 59.2169 60.9933 60.6185 60.118C61.9177 59.2752 63.0778 58.2354 64.0573 57.036C63.9331 57.1121 63.791 57.1539 63.6453 57.1571ZM53.3916 67.4356H51.7435V64.9634H53.3916V67.4356ZM51.7435 63.3153C51.7429 61.1365 50.3994 59.1835 48.3648 58.4039C42.4307 56.0836 39.5012 49.3921 41.8215 43.458C42.7199 41.1602 44.3314 39.211 46.4192 37.8964L47.2935 39.2907C42.6711 42.1994 41.2818 48.3044 44.1905 52.9268C45.3173 54.7177 46.9891 56.1 48.9598 56.8704C51.6306 57.8919 53.3936 60.4558 53.3916 63.3153H51.7435Z" fill="#4A35A5"/>
<path d="M49.2715 74.0278V74.8519C49.2715 75.7622 50.0093 76.5 50.9196 76.5H54.2158C55.1261 76.5 55.8639 75.7622 55.8639 74.8519V74.0278H49.2715Z" fill="#4A35A5"/>
<path d="M44.1193 60.843C43.631 60.5265 43.1608 60.1828 42.711 59.8138C41.467 62.2355 38.4954 63.1901 36.0737 61.9462C34.4254 61.0995 33.3912 59.3999 33.3967 57.5468C33.4005 55.0554 35.2559 52.9552 37.7279 52.6445C37.4255 51.7349 37.207 50.7995 37.0752 49.8501L36.931 50.5357C36.7438 51.4264 35.8698 51.9967 34.979 51.8094C34.7657 51.7646 34.5634 51.6779 34.3839 51.5542L32.6698 50.3775L31.1684 51.8756L32.3485 53.5913C32.8649 54.3408 32.676 55.3672 31.9265 55.8836C31.7468 56.0075 31.5443 56.0944 31.3307 56.1393L29.2764 56.5719V58.5299L31.3307 58.9625C32.2214 59.1501 32.7915 60.0242 32.6039 60.9149C32.5589 61.1288 32.4718 61.3315 32.3476 61.5113L31.1684 63.218L32.6698 64.7161L34.3822 63.536C35.1317 63.0196 36.1581 63.2085 36.6745 63.958C36.7984 64.1377 36.8853 64.3402 36.9302 64.5538L37.362 66.6114H39.3208L39.7526 64.557C39.9401 63.6663 40.8141 63.0962 41.7048 63.2837C41.9183 63.3286 42.1208 63.4155 42.3006 63.5393L44.0122 64.7161L45.7798 62.9485C45.4834 62.0775 44.8973 61.3343 44.1193 60.843Z" fill="#4A35A5"/>
<path d="M55.8639 70.7314H49.2715V72.3796H55.8639V70.7314Z" fill="#4A35A5"/>
<path d="M73.1435 42.7061C71.7919 42.5128 70.8529 41.2604 71.0461 39.9088C71.139 39.2598 71.4858 38.6742 72.0104 38.2809L73.9412 36.8322L71.9634 34.1952L70.0327 35.6431C68.9406 36.4626 67.3909 36.2415 66.5715 35.1496C66.1785 34.6259 66.0093 33.9676 66.1011 33.3192L66.4422 30.9295L63.1798 30.4639L62.8386 32.8536C62.6453 34.2052 61.3929 35.1442 60.0414 34.951C59.3923 34.8582 58.8067 34.5113 58.4134 33.9867L56.9648 32.0526L54.3278 34.0304L55.7756 35.9612C56.595 37.0533 56.3738 38.6029 55.2816 39.4223C54.7568 39.816 54.0971 39.9849 53.4477 39.8919L51.0579 39.5507L50.5898 42.814L52.9796 43.1552C54.3312 43.3485 55.2702 44.6009 55.0769 45.9524C54.9841 46.6015 54.6373 47.1871 54.1127 47.5804L52.1827 49.0291L54.1605 51.666L56.0913 50.2182C57.1834 49.3989 58.733 49.62 59.5524 50.7122C59.9461 51.237 60.115 51.8968 60.022 52.5461L59.6808 54.9359L62.9507 55.404L63.2919 53.0142C63.4852 51.6626 64.7376 50.7236 66.0891 50.9169C66.7382 51.0097 67.3238 51.3565 67.7171 51.8811L69.1657 53.8111L71.8027 51.8333L70.3499 49.8993C69.5309 48.8069 69.7525 47.2573 70.8449 46.4383C71.3686 46.0457 72.0266 45.8767 72.6746 45.9685L75.0643 46.3097L75.5299 43.0472L73.1435 42.7061ZM63.0628 47.8754C60.3321 47.8754 58.1184 45.6618 58.1184 42.931C58.1184 40.2003 60.3321 37.9867 63.0628 37.9867C65.7935 37.9867 68.0071 40.2003 68.0071 42.931C68.0039 45.6604 65.7922 47.8722 63.0628 47.8754Z" fill="#4A35A5"/>
<path d="M73.993 59.1948H68.2246V60.8429H73.993V59.1948Z" fill="#4A35A5"/>
<path d="M67.928 63.5052L66.873 64.7715L71.8177 68.8911L72.8727 67.6249L67.928 63.5052Z" fill="#4A35A5"/>
<path d="M64.9284 65.7871H63.2803V71.5555H64.9284V65.7871Z" fill="#4A35A5"/>
<path d="M35.0617 41.09L28.4697 42.7378L28.8692 44.3358L35.4612 42.688L35.0617 41.09Z" fill="#4A35A5"/>
<path d="M30.7958 32.9794L29.8384 34.3198L35.6063 38.4397L36.5637 37.0993L30.7958 32.9794Z" fill="#4A35A5"/>
<path d="M38.4961 28.4995L36.8994 28.9077L38.5848 35.4997L40.1815 35.0914L38.4961 28.4995Z" fill="#4A35A5"/>
</g>
<defs>
<clipPath id="clip0_510_4291">
<rect width="48" height="48" fill="white" transform="translate(28 28.5)"/>
</clipPath>
</defs>
</svg>
