<svg width="178" height="152" viewBox="0 0 178 152" fill="none" xmlns="http://www.w3.org/2000/svg">
<path d="M177.949 58.259C179.692 99.9219 136.121 152 82.0928 152C40.0615 152 0.759774 114.388 0.759774 76.1971C-6.2116 33.3772 35.9948 0.394221 78.0261 0.394221C115.207 -3.07743 177.949 16.3942 177.949 58.259Z" fill="#EA4335"/>
<path d="M58.53 69.4H65.388V70.732H60.024V74.854H64.938V76.186H60.024V80.668H65.478V82H58.53V69.4ZM73.2844 74.386C72.9244 74.266 72.5824 74.206 72.2584 74.206C71.7424 74.206 71.3344 74.35 71.0344 74.638C70.7344 74.914 70.5484 75.268 70.4764 75.7V82H69.0364V73H70.0444L70.3144 74.098H70.3864C70.6144 73.69 70.8844 73.378 71.1964 73.162C71.5204 72.934 71.9284 72.82 72.4204 72.82C72.7684 72.82 73.1584 72.88 73.5904 73L73.2844 74.386ZM80.4016 74.386C80.0416 74.266 79.6996 74.206 79.3756 74.206C78.8596 74.206 78.4516 74.35 78.1516 74.638C77.8516 74.914 77.6656 75.268 77.5936 75.7V82H76.1536V73H77.1616L77.4316 74.098H77.5036C77.7316 73.69 78.0016 73.378 78.3136 73.162C78.6376 72.934 79.0456 72.82 79.5376 72.82C79.8856 72.82 80.2756 72.88 80.7076 73L80.4016 74.386ZM82.7668 77.5C82.7668 75.976 83.1028 74.812 83.7748 74.008C84.4588 73.192 85.4368 72.784 86.7088 72.784C87.3808 72.784 87.9628 72.898 88.4548 73.126C88.9588 73.342 89.3728 73.66 89.6968 74.08C90.0208 74.488 90.2608 74.986 90.4168 75.574C90.5728 76.15 90.6508 76.792 90.6508 77.5C90.6508 79.024 90.3088 80.194 89.6248 81.01C88.9528 81.814 87.9808 82.216 86.7088 82.216C86.0368 82.216 85.4488 82.108 84.9448 81.892C84.4528 81.664 84.0448 81.346 83.7208 80.938C83.3968 80.518 83.1568 80.02 83.0008 79.444C82.8448 78.856 82.7668 78.208 82.7668 77.5ZM84.2608 77.5C84.2608 77.956 84.3028 78.394 84.3868 78.814C84.4828 79.234 84.6268 79.6 84.8188 79.912C85.0108 80.224 85.2628 80.476 85.5748 80.668C85.8868 80.86 86.2648 80.956 86.7088 80.956C88.3408 80.968 89.1568 79.816 89.1568 77.5C89.1568 77.032 89.1088 76.588 89.0128 76.168C88.9288 75.748 88.7908 75.382 88.5988 75.07C88.4068 74.758 88.1548 74.512 87.8428 74.332C87.5308 74.14 87.1528 74.044 86.7088 74.044C85.0768 74.032 84.2608 75.184 84.2608 77.5ZM98.1692 74.386C97.8092 74.266 97.4672 74.206 97.1432 74.206C96.6272 74.206 96.2192 74.35 95.9192 74.638C95.6192 74.914 95.4332 75.268 95.3612 75.7V82H93.9212V73H94.9292L95.1992 74.098H95.2712C95.4992 73.69 95.7692 73.378 96.0812 73.162C96.4052 72.934 96.8132 72.82 97.3052 72.82C97.6532 72.82 98.0432 72.88 98.4752 73L98.1692 74.386Z" fill="white"/>
</svg>
