<svg width="143" height="152" viewBox="0 0 143 152" fill="none" xmlns="http://www.w3.org/2000/svg">
<path d="M142.95 93.0347C144.469 129.586 111.014 149.702 63.9957 151.896C20.4695 153.926 3.1056 126 0.730816 93.0075C-5.34266 53.2808 27.3784 0.484108 63.9957 0.484108C91.8322 -6.11469 142.95 56.3061 142.95 93.0347Z" fill="url(#paint0_linear_539_5187)"/>
<path d="M40.778 75.718H45.008V81.262C44.816 81.406 44.582 81.538 44.306 81.658C44.042 81.778 43.754 81.88 43.442 81.964C43.142 82.048 42.824 82.108 42.488 82.144C42.164 82.192 41.846 82.216 41.534 82.216C40.73 82.216 39.992 82.09 39.32 81.838C38.648 81.574 38.066 81.178 37.574 80.65C37.082 80.11 36.698 79.432 36.422 78.616C36.146 77.788 36.008 76.816 36.008 75.7C36.008 74.536 36.176 73.54 36.512 72.712C36.848 71.884 37.286 71.212 37.826 70.696C38.366 70.168 38.972 69.784 39.644 69.544C40.316 69.304 40.988 69.184 41.66 69.184C42.38 69.184 42.974 69.226 43.442 69.31C43.91 69.382 44.306 69.484 44.63 69.616L44.252 70.93C43.676 70.654 42.854 70.516 41.786 70.516C41.282 70.516 40.778 70.606 40.274 70.786C39.782 70.954 39.338 71.242 38.942 71.65C38.546 72.058 38.222 72.592 37.97 73.252C37.718 73.912 37.592 74.728 37.592 75.7C37.592 76.588 37.694 77.356 37.898 78.004C38.102 78.652 38.384 79.192 38.744 79.624C39.116 80.044 39.56 80.362 40.076 80.578C40.592 80.782 41.156 80.884 41.768 80.884C42.536 80.884 43.19 80.734 43.73 80.434V76.924L40.778 76.564V75.718ZM52.6555 74.386C52.2955 74.266 51.9535 74.206 51.6295 74.206C51.1135 74.206 50.7055 74.35 50.4055 74.638C50.1055 74.914 49.9195 75.268 49.8475 75.7V82H48.4075V73H49.4155L49.6855 74.098H49.7575C49.9855 73.69 50.2555 73.378 50.5675 73.162C50.8915 72.934 51.2995 72.82 51.7915 72.82C52.1395 72.82 52.5295 72.88 52.9615 73L52.6555 74.386ZM55.3807 73.666C55.8367 73.39 56.3647 73.186 56.9647 73.054C57.5767 72.922 58.2127 72.856 58.8727 72.856C59.4967 72.856 59.9947 72.94 60.3667 73.108C60.7507 73.276 61.0387 73.498 61.2307 73.774C61.4347 74.038 61.5667 74.332 61.6267 74.656C61.6987 74.98 61.7347 75.304 61.7347 75.628C61.7347 76.348 61.7167 77.05 61.6807 77.734C61.6447 78.418 61.6267 79.066 61.6267 79.678C61.6267 80.122 61.6447 80.542 61.6807 80.938C61.7167 81.334 61.7827 81.7 61.8787 82.036H60.8167L60.4387 80.776H60.3487C60.2407 80.944 60.1027 81.112 59.9347 81.28C59.7787 81.436 59.5867 81.58 59.3587 81.712C59.1307 81.832 58.8667 81.934 58.5667 82.018C58.2667 82.102 57.9247 82.144 57.5407 82.144C57.1567 82.144 56.7967 82.084 56.4607 81.964C56.1367 81.844 55.8547 81.676 55.6147 81.46C55.3747 81.232 55.1827 80.962 55.0387 80.65C54.9067 80.338 54.8407 79.984 54.8407 79.588C54.8407 79.06 54.9487 78.622 55.1647 78.274C55.3807 77.914 55.6807 77.632 56.0647 77.428C56.4607 77.212 56.9287 77.062 57.4687 76.978C58.0207 76.882 58.6267 76.834 59.2867 76.834C59.4547 76.834 59.6167 76.834 59.7727 76.834C59.9407 76.834 60.1087 76.846 60.2767 76.87C60.3127 76.51 60.3307 76.186 60.3307 75.898C60.3307 75.238 60.1987 74.776 59.9347 74.512C59.6707 74.248 59.1907 74.116 58.4947 74.116C58.2907 74.116 58.0687 74.134 57.8287 74.17C57.6007 74.194 57.3607 74.236 57.1087 74.296C56.8687 74.344 56.6347 74.41 56.4067 74.494C56.1907 74.566 55.9987 74.65 55.8307 74.746L55.3807 73.666ZM57.9367 80.884C58.2727 80.884 58.5727 80.842 58.8367 80.758C59.1007 80.662 59.3287 80.548 59.5207 80.416C59.7127 80.272 59.8687 80.116 59.9887 79.948C60.1207 79.78 60.2167 79.618 60.2767 79.462V77.968C60.1087 77.956 59.9347 77.95 59.7547 77.95C59.5867 77.938 59.4187 77.932 59.2507 77.932C58.8787 77.932 58.5127 77.956 58.1527 78.004C57.8047 78.04 57.4927 78.118 57.2167 78.238C56.9527 78.346 56.7367 78.502 56.5687 78.706C56.4127 78.898 56.3347 79.144 56.3347 79.444C56.3347 79.864 56.4847 80.212 56.7847 80.488C57.0847 80.752 57.4687 80.884 57.9367 80.884ZM72.3664 78.904C72.3664 79.516 72.3724 80.074 72.3844 80.578C72.3964 81.07 72.4504 81.556 72.5464 82.036H71.5744L71.2144 80.758H71.1424C70.9024 81.178 70.5544 81.526 70.0984 81.802C69.6424 82.078 69.1084 82.216 68.4964 82.216C67.2964 82.216 66.4024 81.838 65.8144 81.082C65.2384 80.326 64.9504 79.144 64.9504 77.536C64.9504 76 65.3104 74.836 66.0304 74.044C66.7624 73.24 67.7644 72.838 69.0364 72.838C69.4804 72.838 69.8284 72.862 70.0804 72.91C70.3444 72.958 70.6264 73.036 70.9264 73.144V69.4H72.3664V78.904ZM68.7304 80.956C69.3424 80.956 69.8284 80.8 70.1884 80.488C70.5484 80.164 70.7944 79.678 70.9264 79.03V74.566C70.7104 74.398 70.4644 74.278 70.1884 74.206C69.9124 74.134 69.5464 74.098 69.0904 74.098C68.2624 74.098 67.6144 74.374 67.1464 74.926C66.6784 75.466 66.4444 76.336 66.4444 77.536C66.4444 78.028 66.4804 78.484 66.5524 78.904C66.6364 79.324 66.7684 79.684 66.9484 79.984C67.1284 80.284 67.3624 80.524 67.6504 80.704C67.9504 80.872 68.3104 80.956 68.7304 80.956ZM76.4459 73H77.8859V82H76.4459V73ZM76.1399 70.264C76.1399 69.988 76.2299 69.754 76.4099 69.562C76.6019 69.358 76.8419 69.256 77.1299 69.256C77.4179 69.256 77.6639 69.358 77.8679 69.562C78.0719 69.754 78.1739 69.988 78.1739 70.264C78.1739 70.54 78.0719 70.768 77.8679 70.948C77.6639 71.128 77.4179 71.218 77.1299 71.218C76.8419 71.218 76.6019 71.128 76.4099 70.948C76.2299 70.768 76.1399 70.54 76.1399 70.264ZM88.5263 81.28C88.1663 81.568 87.7103 81.796 87.1583 81.964C86.6183 82.132 86.0423 82.216 85.4303 82.216C84.7463 82.216 84.1523 82.108 83.6483 81.892C83.1443 81.664 82.7303 81.346 82.4063 80.938C82.0823 80.518 81.8423 80.02 81.6863 79.444C81.5303 78.868 81.4523 78.22 81.4523 77.5C81.4523 75.964 81.7943 74.794 82.4783 73.99C83.1623 73.186 84.1403 72.784 85.4123 72.784C85.8203 72.784 86.2283 72.832 86.6363 72.928C87.0443 73.012 87.4103 73.18 87.7343 73.432C88.0583 73.684 88.3223 74.044 88.5263 74.512C88.7303 74.968 88.8323 75.574 88.8323 76.33C88.8323 76.726 88.7963 77.164 88.7243 77.644H82.9463C82.9463 78.172 83.0003 78.64 83.1083 79.048C83.2163 79.456 83.3843 79.804 83.6123 80.092C83.8403 80.368 84.1343 80.584 84.4943 80.74C84.8663 80.884 85.3163 80.956 85.8443 80.956C86.2523 80.956 86.6603 80.884 87.0683 80.74C87.4763 80.596 87.7823 80.428 87.9863 80.236L88.5263 81.28ZM85.4303 74.044C84.7223 74.044 84.1523 74.23 83.7203 74.602C83.3003 74.974 83.0483 75.61 82.9643 76.51H87.4283C87.4283 75.598 87.2543 74.962 86.9063 74.602C86.5583 74.23 86.0663 74.044 85.4303 74.044ZM97.8749 82V76.87C97.8749 75.934 97.7369 75.232 97.4609 74.764C97.1969 74.284 96.7049 74.044 95.9849 74.044C95.3489 74.044 94.8209 74.218 94.4009 74.566C93.9929 74.902 93.7049 75.328 93.5369 75.844V82H92.0969V73H93.1049L93.3749 74.098H93.4469C93.7349 73.714 94.1189 73.402 94.5989 73.162C95.0909 72.91 95.6729 72.784 96.3449 72.784C96.8369 72.784 97.2689 72.844 97.6409 72.964C98.0129 73.072 98.3189 73.27 98.5589 73.558C98.8109 73.846 98.9969 74.236 99.1169 74.728C99.2489 75.208 99.3149 75.82 99.3149 76.564V82H97.8749ZM101.753 73H103.157V71.218L104.597 70.804V73H107.045V74.26H104.597V79.246C104.597 79.87 104.675 80.314 104.831 80.578C104.987 80.83 105.251 80.956 105.623 80.956C105.935 80.956 106.199 80.926 106.415 80.866C106.631 80.794 106.871 80.704 107.135 80.596L107.459 81.694C107.135 81.85 106.781 81.976 106.397 82.072C106.013 82.168 105.599 82.216 105.155 82.216C104.423 82.216 103.907 82.012 103.607 81.604C103.307 81.184 103.157 80.488 103.157 79.516V74.26H101.753V73Z" fill="white"/>
<defs>
<linearGradient id="paint0_linear_539_5187" x1="71.5" y1="0" x2="71.5" y2="152" gradientUnits="userSpaceOnUse">
<stop stop-color="#3E7AFC"/>
<stop offset="1" stop-color="#2256C8"/>
</linearGradient>
</defs>
</svg>
