<svg width="178" height="152" viewBox="0 0 178 152" fill="none" xmlns="http://www.w3.org/2000/svg">
<path d="M177.949 58.259C179.692 99.9219 136.121 152 82.0928 152C40.0615 152 0.759774 114.388 0.759774 76.1971C-6.2116 33.3772 35.9948 0.394221 78.0261 0.394221C115.207 -3.07743 177.949 16.3942 177.949 58.259Z" fill="#2563EB"/>
<path d="M58.53 69.526C58.986 69.418 59.478 69.346 60.006 69.31C60.534 69.274 61.056 69.256 61.572 69.256C62.124 69.256 62.682 69.31 63.246 69.418C63.822 69.526 64.344 69.724 64.812 70.012C65.28 70.3 65.658 70.696 65.946 71.2C66.246 71.704 66.396 72.346 66.396 73.126C66.396 73.894 66.258 74.542 65.982 75.07C65.706 75.598 65.34 76.03 64.884 76.366C64.428 76.69 63.906 76.924 63.318 77.068C62.73 77.212 62.124 77.284 61.5 77.284C61.44 77.284 61.338 77.284 61.194 77.284C61.062 77.284 60.918 77.284 60.762 77.284C60.618 77.272 60.474 77.26 60.33 77.248C60.186 77.236 60.084 77.224 60.024 77.212V82H58.53V69.526ZM61.608 70.552C61.296 70.552 60.996 70.558 60.708 70.57C60.42 70.582 60.192 70.612 60.024 70.66V75.88C60.084 75.904 60.18 75.922 60.312 75.934C60.444 75.934 60.582 75.94 60.726 75.952C60.87 75.952 61.008 75.952 61.14 75.952C61.272 75.952 61.368 75.952 61.428 75.952C61.836 75.952 62.238 75.916 62.634 75.844C63.042 75.76 63.408 75.616 63.732 75.412C64.056 75.208 64.314 74.92 64.506 74.548C64.71 74.176 64.812 73.702 64.812 73.126C64.812 72.634 64.716 72.226 64.524 71.902C64.344 71.566 64.098 71.302 63.786 71.11C63.486 70.906 63.144 70.762 62.76 70.678C62.376 70.594 61.992 70.552 61.608 70.552ZM73.0559 74.386C72.6959 74.266 72.3539 74.206 72.0299 74.206C71.5139 74.206 71.1059 74.35 70.8059 74.638C70.5059 74.914 70.3199 75.268 70.2479 75.7V82H68.8079V73H69.8159L70.0859 74.098H70.1579C70.3859 73.69 70.6559 73.378 70.9679 73.162C71.2919 72.934 71.6999 72.82 72.1919 72.82C72.5399 72.82 72.9299 72.88 73.3619 73L73.0559 74.386ZM76.2311 73H77.6711V82H76.2311V73ZM75.9251 70.264C75.9251 69.988 76.0151 69.754 76.1951 69.562C76.3871 69.358 76.6271 69.256 76.9151 69.256C77.2031 69.256 77.4491 69.358 77.6531 69.562C77.8571 69.754 77.9591 69.988 77.9591 70.264C77.9591 70.54 77.8571 70.768 77.6531 70.948C77.4491 71.128 77.2031 71.218 76.9151 71.218C76.6271 71.218 76.3871 71.128 76.1951 70.948C76.0151 70.768 75.9251 70.54 75.9251 70.264ZM87.0155 82V76.906C87.0155 76.426 86.9915 76.012 86.9435 75.664C86.9075 75.304 86.8295 75.004 86.7095 74.764C86.5895 74.524 86.4155 74.344 86.1875 74.224C85.9715 74.104 85.6835 74.044 85.3235 74.044C84.7715 74.044 84.3095 74.212 83.9375 74.548C83.5775 74.884 83.3255 75.304 83.1815 75.808V82H81.7415V73H82.7495L83.0195 74.098H83.0915C83.4155 73.714 83.7875 73.402 84.2075 73.162C84.6395 72.91 85.1975 72.784 85.8815 72.784C86.4575 72.784 86.9255 72.898 87.2855 73.126C87.6575 73.342 87.9455 73.726 88.1495 74.278C88.4255 73.81 88.8035 73.444 89.2835 73.18C89.7755 72.916 90.3275 72.784 90.9395 72.784C91.4435 72.784 91.8695 72.844 92.2175 72.964C92.5655 73.072 92.8535 73.27 93.0815 73.558C93.3095 73.846 93.4715 74.236 93.5675 74.728C93.6755 75.22 93.7295 75.844 93.7295 76.6V82H92.2895V76.582C92.2895 76.15 92.2655 75.778 92.2175 75.466C92.1815 75.142 92.0975 74.878 91.9655 74.674C91.8455 74.458 91.6715 74.302 91.4435 74.206C91.2275 74.098 90.9395 74.044 90.5795 74.044C89.9795 74.044 89.5115 74.212 89.1755 74.548C88.8395 74.884 88.5995 75.364 88.4555 75.988V82H87.0155ZM97.2049 73.666C97.6609 73.39 98.1889 73.186 98.7889 73.054C99.4009 72.922 100.037 72.856 100.697 72.856C101.321 72.856 101.819 72.94 102.191 73.108C102.575 73.276 102.863 73.498 103.055 73.774C103.259 74.038 103.391 74.332 103.451 74.656C103.523 74.98 103.559 75.304 103.559 75.628C103.559 76.348 103.541 77.05 103.505 77.734C103.469 78.418 103.451 79.066 103.451 79.678C103.451 80.122 103.469 80.542 103.505 80.938C103.541 81.334 103.607 81.7 103.703 82.036H102.641L102.263 80.776H102.173C102.065 80.944 101.927 81.112 101.759 81.28C101.603 81.436 101.411 81.58 101.183 81.712C100.955 81.832 100.691 81.934 100.391 82.018C100.091 82.102 99.7489 82.144 99.3649 82.144C98.9809 82.144 98.6209 82.084 98.2849 81.964C97.9609 81.844 97.6789 81.676 97.4389 81.46C97.1989 81.232 97.0069 80.962 96.8629 80.65C96.7309 80.338 96.6649 79.984 96.6649 79.588C96.6649 79.06 96.7729 78.622 96.9889 78.274C97.2049 77.914 97.5049 77.632 97.8889 77.428C98.2849 77.212 98.7529 77.062 99.2929 76.978C99.8449 76.882 100.451 76.834 101.111 76.834C101.279 76.834 101.441 76.834 101.597 76.834C101.765 76.834 101.933 76.846 102.101 76.87C102.137 76.51 102.155 76.186 102.155 75.898C102.155 75.238 102.023 74.776 101.759 74.512C101.495 74.248 101.015 74.116 100.319 74.116C100.115 74.116 99.8929 74.134 99.6529 74.17C99.4249 74.194 99.1849 74.236 98.9329 74.296C98.6929 74.344 98.4589 74.41 98.2309 74.494C98.0149 74.566 97.8229 74.65 97.6549 74.746L97.2049 73.666ZM99.7609 80.884C100.097 80.884 100.397 80.842 100.661 80.758C100.925 80.662 101.153 80.548 101.345 80.416C101.537 80.272 101.693 80.116 101.813 79.948C101.945 79.78 102.041 79.618 102.101 79.462V77.968C101.933 77.956 101.759 77.95 101.579 77.95C101.411 77.938 101.243 77.932 101.075 77.932C100.703 77.932 100.337 77.956 99.9769 78.004C99.6289 78.04 99.3169 78.118 99.0409 78.238C98.7769 78.346 98.5609 78.502 98.3929 78.706C98.2369 78.898 98.1589 79.144 98.1589 79.444C98.1589 79.864 98.3089 80.212 98.6089 80.488C98.9089 80.752 99.2929 80.884 99.7609 80.884ZM111.527 74.386C111.167 74.266 110.825 74.206 110.501 74.206C109.985 74.206 109.577 74.35 109.277 74.638C108.977 74.914 108.791 75.268 108.719 75.7V82H107.279V73H108.287L108.557 74.098H108.629C108.857 73.69 109.127 73.378 109.439 73.162C109.763 72.934 110.171 72.82 110.663 72.82C111.011 72.82 111.401 72.88 111.833 73L111.527 74.386ZM117.042 78.832L117.546 80.56H117.636L118.032 78.814L119.778 73H121.236L118.572 81.082C118.368 81.67 118.164 82.24 117.96 82.792C117.768 83.344 117.552 83.836 117.312 84.268C117.072 84.7 116.802 85.042 116.502 85.294C116.202 85.558 115.854 85.69 115.458 85.69C115.026 85.69 114.672 85.63 114.396 85.51L114.648 84.268C114.804 84.328 114.954 84.358 115.098 84.358C115.434 84.358 115.758 84.178 116.07 83.818C116.382 83.47 116.64 82.864 116.844 82L113.226 73H114.882L117.042 78.832Z" fill="white"/>
</svg>
