<svg width="168" height="152" viewBox="0 0 168 152" fill="none" xmlns="http://www.w3.org/2000/svg">
<path d="M167.952 62.6299C169.604 102.35 128.304 152 77.0928 152C37.2527 152 2.58378 115.584 0 79.7316C0 42.7639 42.5898 0.285623 82.4299 0.285623C117.672 -3.02415 167.952 22.7172 167.952 62.6299Z" fill="#34A853"/>
<path d="M48.218 78.796C48.218 78.292 48.068 77.884 47.768 77.572C47.468 77.248 47.09 76.966 46.634 76.726C46.19 76.474 45.704 76.24 45.176 76.024C44.648 75.808 44.156 75.55 43.7 75.25C43.256 74.938 42.884 74.56 42.584 74.116C42.284 73.66 42.134 73.084 42.134 72.388C42.134 71.404 42.476 70.624 43.16 70.048C43.844 69.472 44.816 69.184 46.076 69.184C46.808 69.184 47.474 69.238 48.074 69.346C48.674 69.454 49.142 69.592 49.478 69.76L49.028 71.074C48.752 70.942 48.344 70.816 47.804 70.696C47.276 70.576 46.676 70.516 46.004 70.516C45.212 70.516 44.618 70.696 44.222 71.056C43.826 71.404 43.628 71.818 43.628 72.298C43.628 72.766 43.778 73.156 44.078 73.468C44.378 73.78 44.75 74.062 45.194 74.314C45.65 74.554 46.142 74.794 46.67 75.034C47.198 75.274 47.684 75.556 48.128 75.88C48.584 76.192 48.962 76.57 49.262 77.014C49.562 77.458 49.712 78.01 49.712 78.67C49.712 79.21 49.616 79.696 49.424 80.128C49.232 80.56 48.95 80.932 48.578 81.244C48.206 81.556 47.756 81.796 47.228 81.964C46.7 82.132 46.1 82.216 45.428 82.216C44.528 82.216 43.784 82.144 43.196 82C42.608 81.868 42.152 81.718 41.828 81.55L42.332 80.2C42.608 80.356 43.016 80.512 43.556 80.668C44.096 80.812 44.702 80.884 45.374 80.884C45.77 80.884 46.142 80.848 46.49 80.776C46.838 80.692 47.138 80.566 47.39 80.398C47.642 80.218 47.84 79.996 47.984 79.732C48.14 79.468 48.218 79.156 48.218 78.796ZM59.5185 81.28C59.1585 81.568 58.7025 81.796 58.1505 81.964C57.6105 82.132 57.0345 82.216 56.4225 82.216C55.7385 82.216 55.1445 82.108 54.6405 81.892C54.1365 81.664 53.7225 81.346 53.3985 80.938C53.0745 80.518 52.8345 80.02 52.6785 79.444C52.5225 78.868 52.4445 78.22 52.4445 77.5C52.4445 75.964 52.7865 74.794 53.4705 73.99C54.1545 73.186 55.1325 72.784 56.4045 72.784C56.8125 72.784 57.2205 72.832 57.6285 72.928C58.0365 73.012 58.4025 73.18 58.7265 73.432C59.0505 73.684 59.3145 74.044 59.5185 74.512C59.7225 74.968 59.8245 75.574 59.8245 76.33C59.8245 76.726 59.7885 77.164 59.7165 77.644H53.9385C53.9385 78.172 53.9925 78.64 54.1005 79.048C54.2085 79.456 54.3765 79.804 54.6045 80.092C54.8325 80.368 55.1265 80.584 55.4865 80.74C55.8585 80.884 56.3085 80.956 56.8365 80.956C57.2445 80.956 57.6525 80.884 58.0605 80.74C58.4685 80.596 58.7745 80.428 58.9785 80.236L59.5185 81.28ZM56.4225 74.044C55.7145 74.044 55.1445 74.23 54.7125 74.602C54.2925 74.974 54.0405 75.61 53.9565 76.51H58.4205C58.4205 75.598 58.2465 74.962 57.8985 74.602C57.5505 74.23 57.0585 74.044 56.4225 74.044ZM69.0338 81.406C68.6738 81.67 68.2478 81.868 67.7558 82C67.2638 82.144 66.7478 82.216 66.2078 82.216C65.5118 82.216 64.9238 82.108 64.4438 81.892C63.9638 81.664 63.5678 81.346 63.2558 80.938C62.9558 80.518 62.7338 80.02 62.5898 79.444C62.4578 78.856 62.3918 78.208 62.3918 77.5C62.3918 75.976 62.7278 74.812 63.3998 74.008C64.0718 73.192 65.0378 72.784 66.2978 72.784C66.8738 72.784 67.3598 72.832 67.7558 72.928C68.1638 73.012 68.5298 73.138 68.8538 73.306L68.4398 74.548C68.1638 74.392 67.8578 74.272 67.5218 74.188C67.1858 74.092 66.8258 74.044 66.4418 74.044C64.7378 74.044 63.8858 75.196 63.8858 77.5C63.8858 77.956 63.9278 78.394 64.0118 78.814C64.1078 79.222 64.2578 79.588 64.4618 79.912C64.6778 80.224 64.9538 80.476 65.2898 80.668C65.6378 80.86 66.0638 80.956 66.5678 80.956C66.9998 80.956 67.3838 80.89 67.7198 80.758C68.0678 80.626 68.3498 80.476 68.5658 80.308L69.0338 81.406ZM71.091 77.5C71.091 75.976 71.427 74.812 72.099 74.008C72.783 73.192 73.761 72.784 75.033 72.784C75.705 72.784 76.287 72.898 76.779 73.126C77.283 73.342 77.697 73.66 78.021 74.08C78.345 74.488 78.585 74.986 78.741 75.574C78.897 76.15 78.975 76.792 78.975 77.5C78.975 79.024 78.633 80.194 77.949 81.01C77.277 81.814 76.305 82.216 75.033 82.216C74.361 82.216 73.773 82.108 73.269 81.892C72.777 81.664 72.369 81.346 72.045 80.938C71.721 80.518 71.481 80.02 71.325 79.444C71.169 78.856 71.091 78.208 71.091 77.5ZM72.585 77.5C72.585 77.956 72.627 78.394 72.711 78.814C72.807 79.234 72.951 79.6 73.143 79.912C73.335 80.224 73.587 80.476 73.899 80.668C74.211 80.86 74.589 80.956 75.033 80.956C76.665 80.968 77.481 79.816 77.481 77.5C77.481 77.032 77.433 76.588 77.337 76.168C77.253 75.748 77.115 75.382 76.923 75.07C76.731 74.758 76.479 74.512 76.167 74.332C75.855 74.14 75.477 74.044 75.033 74.044C73.401 74.032 72.585 75.184 72.585 77.5ZM88.0234 82V76.87C88.0234 75.934 87.8854 75.232 87.6094 74.764C87.3454 74.284 86.8534 74.044 86.1334 74.044C85.4974 74.044 84.9694 74.218 84.5494 74.566C84.1414 74.902 83.8534 75.328 83.6854 75.844V82H82.2454V73H83.2534L83.5234 74.098H83.5954C83.8834 73.714 84.2674 73.402 84.7474 73.162C85.2394 72.91 85.8214 72.784 86.4934 72.784C86.9854 72.784 87.4174 72.844 87.7894 72.964C88.1614 73.072 88.4674 73.27 88.7074 73.558C88.9594 73.846 89.1454 74.236 89.2654 74.728C89.3974 75.208 89.4634 75.82 89.4634 76.564V82H88.0234ZM100.001 78.904C100.001 79.516 100.007 80.074 100.019 80.578C100.031 81.07 100.085 81.556 100.181 82.036H99.2091L98.8491 80.758H98.7771C98.5371 81.178 98.1891 81.526 97.7331 81.802C97.2771 82.078 96.7431 82.216 96.1311 82.216C94.9311 82.216 94.0371 81.838 93.4491 81.082C92.8731 80.326 92.5851 79.144 92.5851 77.536C92.5851 76 92.9451 74.836 93.6651 74.044C94.3971 73.24 95.3991 72.838 96.6711 72.838C97.1151 72.838 97.4631 72.862 97.7151 72.91C97.9791 72.958 98.2611 73.036 98.5611 73.144V69.4H100.001V78.904ZM96.3651 80.956C96.9771 80.956 97.4631 80.8 97.8231 80.488C98.1831 80.164 98.4291 79.678 98.5611 79.03V74.566C98.3451 74.398 98.0991 74.278 97.8231 74.206C97.5471 74.134 97.1811 74.098 96.7251 74.098C95.8971 74.098 95.2491 74.374 94.7811 74.926C94.3131 75.466 94.0791 76.336 94.0791 77.536C94.0791 78.028 94.1151 78.484 94.1871 78.904C94.2711 79.324 94.4031 79.684 94.5831 79.984C94.7631 80.284 94.9971 80.524 95.2851 80.704C95.5851 80.872 95.9451 80.956 96.3651 80.956ZM103.631 73.666C104.087 73.39 104.615 73.186 105.215 73.054C105.827 72.922 106.463 72.856 107.123 72.856C107.747 72.856 108.245 72.94 108.617 73.108C109.001 73.276 109.289 73.498 109.481 73.774C109.685 74.038 109.817 74.332 109.877 74.656C109.949 74.98 109.985 75.304 109.985 75.628C109.985 76.348 109.967 77.05 109.931 77.734C109.895 78.418 109.877 79.066 109.877 79.678C109.877 80.122 109.895 80.542 109.931 80.938C109.967 81.334 110.033 81.7 110.129 82.036H109.067L108.689 80.776H108.599C108.491 80.944 108.353 81.112 108.185 81.28C108.029 81.436 107.837 81.58 107.609 81.712C107.381 81.832 107.117 81.934 106.817 82.018C106.517 82.102 106.175 82.144 105.791 82.144C105.407 82.144 105.047 82.084 104.711 81.964C104.387 81.844 104.105 81.676 103.865 81.46C103.625 81.232 103.433 80.962 103.289 80.65C103.157 80.338 103.091 79.984 103.091 79.588C103.091 79.06 103.199 78.622 103.415 78.274C103.631 77.914 103.931 77.632 104.315 77.428C104.711 77.212 105.179 77.062 105.719 76.978C106.271 76.882 106.877 76.834 107.537 76.834C107.705 76.834 107.867 76.834 108.023 76.834C108.191 76.834 108.359 76.846 108.527 76.87C108.563 76.51 108.581 76.186 108.581 75.898C108.581 75.238 108.449 74.776 108.185 74.512C107.921 74.248 107.441 74.116 106.745 74.116C106.541 74.116 106.319 74.134 106.079 74.17C105.851 74.194 105.611 74.236 105.359 74.296C105.119 74.344 104.885 74.41 104.657 74.494C104.441 74.566 104.249 74.65 104.081 74.746L103.631 73.666ZM106.187 80.884C106.523 80.884 106.823 80.842 107.087 80.758C107.351 80.662 107.579 80.548 107.771 80.416C107.963 80.272 108.119 80.116 108.239 79.948C108.371 79.78 108.467 79.618 108.527 79.462V77.968C108.359 77.956 108.185 77.95 108.005 77.95C107.837 77.938 107.669 77.932 107.501 77.932C107.129 77.932 106.763 77.956 106.403 78.004C106.055 78.04 105.743 78.118 105.467 78.238C105.203 78.346 104.987 78.502 104.819 78.706C104.663 78.898 104.585 79.144 104.585 79.444C104.585 79.864 104.735 80.212 105.035 80.488C105.335 80.752 105.719 80.884 106.187 80.884ZM117.952 74.386C117.592 74.266 117.25 74.206 116.926 74.206C116.41 74.206 116.002 74.35 115.702 74.638C115.402 74.914 115.216 75.268 115.144 75.7V82H113.704V73H114.712L114.982 74.098H115.054C115.282 73.69 115.552 73.378 115.864 73.162C116.188 72.934 116.596 72.82 117.088 72.82C117.436 72.82 117.826 72.88 118.258 73L117.952 74.386ZM123.468 78.832L123.972 80.56H124.062L124.458 78.814L126.204 73H127.662L124.998 81.082C124.794 81.67 124.59 82.24 124.386 82.792C124.194 83.344 123.978 83.836 123.738 84.268C123.498 84.7 123.228 85.042 122.928 85.294C122.628 85.558 122.28 85.69 121.884 85.69C121.452 85.69 121.098 85.63 120.822 85.51L121.074 84.268C121.23 84.328 121.38 84.358 121.524 84.358C121.86 84.358 122.184 84.178 122.496 83.818C122.808 83.47 123.066 82.864 123.27 82L119.652 73H121.308L123.468 78.832Z" fill="white"/>
</svg>
