<svg width="18" height="18" viewBox="0 0 18 18" fill="none" xmlns="http://www.w3.org/2000/svg">
<path fill-rule="evenodd" clip-rule="evenodd" d="M9.00001 18C7.22011 18 5.48017 17.4723 4.00019 16.4835C2.52021 15.4947 1.36665 14.0892 0.685374 12.4449C0.00409673 10.8005 -0.174307 8.99104 0.172719 7.24529C0.519746 5.49954 1.37662 3.89589 2.63499 2.6371C3.89337 1.37831 5.49674 0.520903 7.24238 0.1733C8.98801 -0.174304 10.7975 0.00350218 12.4421 0.684236C14.0867 1.36497 15.4925 2.51806 16.4818 3.99771C17.4711 5.47737 17.9994 7.21713 18 8.99704C17.9979 11.3836 17.0491 13.6719 15.3618 15.3597C13.6746 17.0476 11.3866 17.9971 9.00001 18ZM16.1933 10.1662C14.7205 9.73868 13.173 9.63249 11.6556 9.8548C12.2748 11.5415 12.7483 13.2783 13.0706 15.046C13.8966 14.4892 14.5997 13.7691 15.1368 12.9302C15.6738 12.0913 16.0334 11.1513 16.1933 10.1682V10.1662ZM11.846 15.7193C11.5033 13.8329 10.9827 11.9831 10.2911 10.1949L10.2435 10.2108C7.83238 10.9512 5.79074 12.5765 4.52877 14.7604C5.5523 15.5582 6.77055 16.0678 8.05729 16.2364C9.34403 16.405 10.6524 16.2265 11.847 15.7193H11.846ZM3.58771 13.8828C4.96054 11.6565 7.04793 9.9617 9.50872 9.07538C9.60788 9.04464 9.69911 9.01588 9.7953 8.98911C9.61284 8.57461 9.41352 8.1611 9.20032 7.75255C6.76736 8.44895 4.24815 8.79782 1.7175 8.7888C1.7175 8.86317 1.7175 8.93754 1.7175 9.01092C1.71503 10.8106 2.3816 12.547 3.58771 13.8828ZM1.86823 7.51952C4.14152 7.50597 6.40417 7.20782 8.60336 6.63201C7.77987 5.18001 6.87814 3.7738 5.90217 2.41958C4.88182 2.90071 3.98669 3.61149 3.28685 4.49626C2.58701 5.38104 2.10147 6.41579 1.86823 7.51952ZM7.29243 1.92971C8.29021 3.29042 9.19816 4.71478 10.0105 6.19371C11.5089 5.70074 12.8341 4.78758 13.8282 3.56292C12.951 2.78427 11.8986 2.22913 10.7606 1.94477C9.62267 1.6604 8.43283 1.65524 7.29243 1.92971ZM14.6384 4.40878C13.5568 5.7051 12.1553 6.69639 10.5727 7.2845C10.7423 7.63256 10.9049 7.98558 11.0567 8.34058C11.1095 8.46685 11.1618 8.59213 11.2133 8.71641C12.9069 8.54023 14.6174 8.61945 16.2875 8.95143C16.2745 7.29196 15.6928 5.68713 14.6394 4.40481L14.6384 4.40878Z" fill="#7A7A7A"/>
</svg>
