<svg width="19" height="18" viewBox="0 0 19 18" fill="none" xmlns="http://www.w3.org/2000/svg">
<path d="M4 6H0V18H4V6Z" fill="#7A7A7A"/>
<path d="M17.6973 6.95952C17.2661 6.49763 16.739 6.13403 16.1524 5.89381C15.5657 5.65358 14.9336 5.54244 14.2995 5.56806C13.8208 5.56255 13.344 5.62669 12.8841 5.75842C12.4951 5.86744 12.1304 6.04836 11.8091 6.29166C11.3364 6.64149 10.9358 7.07817 10.6291 7.57794V5.85099H6.56543L6.57814 6.43996C6.58663 6.83261 6.59086 8.04211 6.59086 10.0685C6.59086 12.0948 6.58274 14.7385 6.56648 17.9996H10.6323V11.2149C10.6203 10.8787 10.6662 10.5429 10.768 10.222C10.935 9.81088 11.205 9.44887 11.5525 9.17027C11.9237 8.88202 12.3855 8.73304 12.8565 8.74958C13.1582 8.7274 13.4606 8.78283 13.7343 8.91051C14.0081 9.0382 14.244 9.23381 14.4192 9.47843C14.7851 10.0859 14.9594 10.7881 14.9197 11.4946V17.9912H18.9855V11.0287C19.089 9.55966 18.6288 8.10612 17.6973 6.95952Z" fill="#7A7A7A"/>
<path d="M2.01084 0.0025026C1.47617 -0.0228135 0.953814 0.180707 0.556965 0.568961C0.37548 0.750944 0.231981 0.972691 0.136046 1.2194C0.0401114 1.46611 -0.00605257 1.73211 0.000635537 1.99965C-0.00548829 2.2648 0.0393993 2.52845 0.132453 2.77386C0.225507 3.01928 0.364698 3.24112 0.541203 3.42532C0.731209 3.61933 0.955392 3.77001 1.20039 3.86836C1.44539 3.96671 1.7062 4.01073 1.96726 3.99779H1.98859C2.52742 4.02376 3.05382 3.81793 3.45266 3.42532C3.63325 3.2442 3.77553 3.02306 3.86978 2.777C3.96404 2.53095 4.00805 2.26578 3.99879 1.99965C4.00247 1.73296 3.95549 1.46829 3.86075 1.22203C3.76602 0.975766 3.62554 0.75315 3.44803 0.567959C3.25524 0.375173 3.02885 0.225872 2.78208 0.128782C2.53532 0.0316933 2.27313 -0.0112361 2.01084 0.0025026Z" fill="#7A7A7A"/>
</svg>
