<svg width="19" height="16" viewBox="0 0 19 16" fill="none" xmlns="http://www.w3.org/2000/svg">
<path d="M19 1.89938C18.2871 2.22268 17.5313 2.43312 16.7581 2.52365C17.5753 2.02993 18.1843 1.23661 18.4651 0.300196C17.7021 0.771584 16.8657 1.10149 15.9934 1.2751C15.6356 0.880544 15.2051 0.564437 14.7274 0.345502C14.2496 0.126568 13.7344 0.00925807 13.2121 0.000526192C12.6899 -0.00820569 12.1712 0.0918177 11.6869 0.294667C11.2026 0.497517 10.7625 0.799069 10.3926 1.18146C10.0247 1.55163 9.73383 1.99601 9.53793 2.48722C9.34203 2.97843 9.24528 3.50605 9.25363 4.03752C9.25602 4.34862 9.28966 4.65861 9.35398 4.96249C7.79171 4.88581 6.26389 4.4599 4.87519 3.71394C3.50452 2.98908 2.29515 1.97514 1.32467 0.737186C0.987789 1.33682 0.805309 2.0162 0.794765 2.71005C0.78422 3.40391 0.945965 4.08891 1.26446 4.69925C1.56712 5.27823 2.00195 5.77156 2.53092 6.13612C1.91306 6.11362 1.30942 5.93771 0.770718 5.62318V5.67312C0.758305 6.61207 1.07293 7.52417 1.65684 8.24201C2.22212 8.96384 3.0137 9.45722 3.89373 9.63622C3.55928 9.72734 3.21492 9.7735 2.86912 9.77356C2.62277 9.77169 2.37689 9.75082 2.13352 9.71113C2.38371 10.5127 2.869 11.2134 3.52168 11.7153C4.17436 12.2172 4.96188 12.4954 5.77436 12.511C4.40215 13.6457 2.69444 14.255 0.939312 14.2361C0.625568 14.2382 0.311959 14.2219 0 14.1872C1.77873 15.3864 3.8584 16.0168 5.98009 15.9997C7.30639 16.0095 8.62414 15.7789 9.87382 15.3182C11.009 14.9106 12.0632 14.2922 12.9848 13.4932C13.8436 12.7315 14.5922 11.8457 15.2076 10.8629C15.816 9.90388 16.2853 8.85748 16.6005 7.75716C16.9025 6.70516 17.0572 5.6137 17.0602 4.51613C17.0602 4.28307 17.0561 4.10966 17.0481 3.9959C17.8109 3.41943 18.4713 2.71006 19 1.89938Z" fill="#7A7A7A"/>
</svg>
